<svg id="svg" xmlns="http://www.w3.org/2000/svg" xmlns:xlink="http://www.w3.org/1999/xlink" width="400" height="400" viewBox="0, 0, 400,400"><g id="svgg"><path id="path0" d="M18.192 38.414 C 18.054 38.636,17.974 39.309,18.013 39.909 C 18.203 42.805,18.207 42.800,15.643 42.800 C 14.011 42.800,13.221 42.969,13.074 43.351 C 12.942 43.696,12.487 43.829,11.855 43.708 C 10.580 43.465,8.889 45.057,8.533 46.835 C 8.341 47.795,7.943 48.230,6.841 48.683 C 4.895 49.485,3.600 50.748,3.600 51.846 C 3.600 52.345,3.420 52.864,3.200 53.000 C 2.980 53.136,2.800 54.317,2.800 55.624 L 2.800 58.000 1.400 58.000 L 0.000 58.000 0.000 110.200 L 0.000 162.400 1.400 162.400 L 2.800 162.400 2.800 164.605 C 2.800 165.818,2.951 167.123,3.135 167.505 C 3.319 167.887,3.726 168.740,4.039 169.400 C 4.390 170.140,5.280 170.923,6.361 171.443 C 7.658 172.067,8.333 172.737,8.957 174.017 C 9.421 174.969,10.070 175.864,10.400 176.007 C 10.730 176.149,11.600 176.565,12.332 176.933 C 13.085 177.310,14.607 177.600,15.832 177.600 C 18.155 177.600,18.175 177.623,18.013 180.091 C 17.914 181.600,18.318 182.166,19.058 181.552 C 19.529 181.161,19.621 181.177,19.523 181.632 C 19.419 182.113,21.584 182.217,33.579 182.313 C 41.378 182.374,47.812 182.479,47.877 182.544 C 47.943 182.609,47.999 218.169,48.002 261.565 C 48.006 310.855,48.151 340.735,48.389 341.180 C 48.641 341.650,49.459 341.984,50.785 342.160 C 52.872 342.437,52.987 342.582,52.816 344.700 C 52.774 345.214,52.970 345.603,53.271 345.606 C 53.662 345.611,53.643 345.714,53.200 346.000 C 52.702 346.322,52.736 346.390,53.400 346.400 C 54.002 346.409,54.066 346.497,53.657 346.756 C 53.240 347.021,53.227 347.170,53.602 347.401 C 53.874 347.569,54.244 347.459,54.439 347.151 C 54.691 346.752,54.789 346.738,54.794 347.100 C 54.798 347.416,55.390 347.600,56.400 347.600 L 58.000 347.600 58.043 349.900 C 58.066 351.165,58.071 353.031,58.053 354.048 C 58.017 356.156,59.008 357.448,60.387 357.088 C 60.834 356.971,61.200 357.038,61.200 357.237 C 61.200 357.437,61.560 357.600,62.000 357.600 C 62.828 357.600,62.938 357.965,62.810 360.300 C 62.757 361.266,62.907 361.600,63.393 361.600 C 63.753 361.600,63.936 361.780,63.800 362.000 C 63.635 362.266,70.789 362.367,85.076 362.300 C 101.696 362.223,106.578 362.089,106.505 361.714 C 106.448 361.423,106.662 361.326,107.040 361.471 C 107.546 361.665,107.656 361.444,107.595 360.356 C 107.452 357.811,107.520 357.684,109.163 357.406 C 111.845 356.953,112.014 356.657,112.266 351.991 C 112.528 347.145,112.394 347.455,114.198 347.523 C 115.060 347.555,115.602 347.388,115.606 347.088 C 115.610 346.763,115.711 346.741,115.906 347.022 C 116.098 347.298,116.443 347.194,116.900 346.722 C 117.359 346.249,117.428 345.998,117.100 345.994 C 116.726 345.989,116.735 345.902,117.134 345.649 C 117.428 345.463,117.633 344.970,117.588 344.555 C 117.387 342.669,117.562 342.467,119.694 342.128 C 122.475 341.685,122.344 342.943,122.364 316.600 C 122.381 295.185,122.274 292.124,121.551 293.266 C 121.365 293.560,121.209 293.605,121.206 293.366 C 121.203 293.127,120.450 292.902,119.534 292.866 C 117.518 292.787,117.658 292.919,117.541 290.985 C 117.488 290.113,117.255 289.268,117.022 289.106 C 116.759 288.923,116.826 288.808,117.200 288.800 C 118.931 288.765,116.369 288.012,114.500 288.006 L 112.400 288.000 112.400 285.219 L 112.400 282.438 114.900 282.319 L 117.400 282.200 117.519 279.919 L 117.639 277.639 119.919 277.519 L 122.200 277.400 122.287 260.995 C 122.373 244.919,122.258 242.150,121.551 243.266 C 121.365 243.560,121.209 243.605,121.206 243.366 C 121.203 243.127,120.450 242.902,119.534 242.866 C 117.518 242.787,117.658 242.919,117.541 240.985 C 117.488 240.113,117.255 239.268,117.022 239.106 C 116.759 238.923,116.826 238.808,117.200 238.800 C 118.931 238.765,116.369 238.012,114.500 238.006 L 112.400 238.000 112.400 235.219 L 112.400 232.438 114.900 232.319 L 117.400 232.200 117.519 229.919 L 117.639 227.639 119.919 227.519 L 122.200 227.400 122.303 204.900 L 122.407 182.400 135.703 182.356 C 143.016 182.331,149.388 182.342,149.862 182.379 C 150.336 182.417,150.843 182.254,150.989 182.017 C 151.136 181.781,151.451 181.708,151.689 181.855 C 151.939 182.009,152.009 181.939,151.855 181.689 C 151.708 181.451,151.781 181.136,152.017 180.989 C 152.254 180.843,152.417 180.336,152.379 179.862 C 152.205 177.654,152.262 177.600,154.751 177.600 C 156.353 177.600,157.261 177.409,157.600 177.000 C 157.874 176.670,158.514 176.400,159.022 176.400 C 159.985 176.400,161.261 174.952,161.786 173.263 C 161.960 172.704,162.665 172.084,163.539 171.724 C 165.505 170.912,166.400 170.056,166.400 168.987 C 166.400 168.498,166.670 167.874,167.000 167.600 C 167.406 167.263,167.600 166.358,167.600 164.802 L 167.600 162.502 169.609 162.309 C 170.714 162.203,171.749 161.985,171.909 161.825 C 172.255 161.478,172.538 61.186,172.198 59.300 C 171.968 58.021,171.929 58.000,169.782 58.000 L 167.600 58.000 167.600 55.832 C 167.600 54.607,167.310 53.085,166.933 52.332 C 166.565 51.600,166.149 50.730,166.007 50.400 C 165.864 50.070,164.969 49.421,164.017 48.957 C 162.737 48.333,162.067 47.658,161.443 46.361 C 160.923 45.280,160.140 44.390,159.400 44.039 C 158.740 43.726,157.887 43.319,157.505 43.135 C 157.123 42.951,155.818 42.800,154.605 42.800 L 152.400 42.800 152.395 41.300 C 152.392 40.475,152.280 39.394,152.147 38.898 L 151.906 37.996 85.174 38.002 C 40.626 38.007,18.359 38.144,18.192 38.414 M11.780 44.306 C 11.571 44.474,10.881 45.059,10.247 45.606 C 9.185 46.522,9.137 46.531,9.628 45.725 C 9.921 45.244,10.530 44.671,10.980 44.452 C 11.998 43.958,12.275 43.907,11.780 44.306 M144.742 48.671 C 146.140 49.276,147.571 51.404,147.293 52.464 C 147.255 52.609,148.138 52.854,149.255 53.008 C 150.401 53.165,151.617 53.617,152.044 54.044 C 152.460 54.460,152.893 54.800,153.006 54.800 C 153.120 54.800,153.658 55.295,154.202 55.900 C 154.746 56.505,155.637 57.498,156.182 58.107 C 156.816 58.814,157.268 59.923,157.435 61.180 C 157.685 63.062,157.758 63.157,159.148 63.399 C 162.455 63.976,162.200 60.082,162.200 110.071 L 162.200 154.341 161.362 155.471 C 160.895 156.099,159.907 156.757,159.133 156.953 C 157.846 157.280,157.709 157.468,157.287 159.481 C 156.805 161.778,155.990 162.913,152.668 165.915 C 152.111 166.419,150.667 167.038,149.458 167.292 C 147.443 167.714,147.241 167.857,147.024 169.012 C 146.894 169.705,146.346 170.687,145.807 171.194 L 144.826 172.115 128.643 172.314 L 112.460 172.513 112.330 196.415 C 112.184 223.169,112.319 222.000,109.387 222.000 C 107.857 222.000,107.396 222.490,107.033 224.503 C 106.738 226.142,105.801 226.954,103.700 227.393 L 102.400 227.664 102.400 235.192 L 102.400 242.720 104.364 243.191 C 106.404 243.681,106.997 244.413,107.281 246.795 C 107.376 247.587,107.684 247.836,108.800 248.021 C 112.223 248.588,112.820 251.446,112.256 264.569 C 111.969 271.238,111.675 272.000,109.387 272.000 C 107.857 272.000,107.396 272.490,107.033 274.503 C 106.738 276.142,105.801 276.954,103.700 277.393 L 102.400 277.664 102.400 285.192 L 102.400 292.720 104.364 293.191 C 106.404 293.681,106.997 294.413,107.281 296.795 C 107.376 297.587,107.684 297.836,108.800 298.021 C 112.328 298.605,112.409 299.032,112.372 316.800 C 112.337 333.789,111.967 335.794,108.727 336.551 C 108.136 336.689,107.571 337.116,107.469 337.501 C 107.368 337.885,107.067 339.039,106.801 340.064 C 106.334 341.861,106.249 341.941,104.478 342.265 L 102.640 342.600 102.182 345.806 C 101.259 352.266,101.416 352.209,84.531 352.166 C 68.101 352.124,68.523 352.286,68.039 345.833 L 67.800 342.641 65.816 342.220 L 63.832 341.800 63.362 339.452 C 62.896 337.125,62.387 336.418,61.170 336.406 C 60.215 336.397,58.929 334.791,58.441 333.000 C 58.133 331.870,58.004 308.052,58.002 251.953 L 58.000 172.507 42.100 172.311 C 24.054 172.088,23.883 172.059,23.392 169.151 C 23.156 167.756,23.065 167.685,21.180 167.435 C 19.937 167.270,18.806 166.813,18.107 166.193 C 17.498 165.654,16.820 165.057,16.600 164.866 C 14.695 163.216,13.219 160.999,12.985 159.438 C 12.746 157.845,12.571 157.626,11.033 156.992 C 7.793 155.656,7.999 158.841,8.009 110.097 C 8.019 61.249,7.822 64.259,11.063 63.288 C 12.577 62.835,12.655 62.725,13.134 60.408 C 13.455 58.854,13.829 58.000,14.189 58.000 C 14.495 58.000,14.870 57.595,15.020 57.100 C 15.411 55.817,16.402 54.800,17.262 54.800 C 17.668 54.800,18.000 54.551,18.000 54.247 C 18.000 53.701,20.726 52.800,22.377 52.800 C 22.830 52.800,23.176 52.665,23.146 52.500 C 22.895 51.088,23.833 49.515,25.352 48.802 C 27.749 47.678,142.160 47.552,144.742 48.671 M47.153 74.256 C 46.207 76.095,46.168 76.118,42.841 76.932 C 38.571 77.977,37.977 78.571,36.932 82.841 C 36.118 86.168,36.095 86.207,34.256 87.153 L 32.400 88.108 32.400 95.212 L 32.400 102.315 34.273 103.258 L 36.146 104.200 36.986 107.720 C 37.448 109.656,37.925 111.142,38.046 111.021 C 38.167 110.900,38.485 111.212,38.754 111.715 C 39.226 112.597,42.136 113.600,44.223 113.600 C 45.431 113.600,46.720 114.674,47.613 116.426 L 48.416 118.000 84.991 118.000 L 121.566 118.000 122.584 116.264 C 123.615 114.504,124.920 113.614,126.519 113.582 C 127.667 113.559,131.266 112.609,131.078 112.378 C 130.999 112.280,131.263 111.885,131.667 111.500 C 132.070 111.115,132.412 110.935,132.427 111.100 C 132.494 111.844,133.567 107.266,133.582 106.170 C 133.601 104.857,134.481 103.841,136.700 102.571 L 138.000 101.828 138.000 95.124 L 138.000 88.421 136.700 87.753 C 134.948 86.853,133.600 85.348,133.600 84.291 C 133.600 82.143,132.609 79.233,131.715 78.754 C 131.212 78.485,130.900 78.167,131.021 78.046 C 131.142 77.925,129.656 77.448,127.720 76.986 L 124.200 76.146 123.258 74.273 L 122.315 72.400 85.212 72.400 L 48.108 72.400 47.153 74.256 M188.185 78.500 C 188.080 78.775,188.041 102.220,188.097 130.600 L 188.200 182.200 294.100 182.302 L 400.000 182.404 400.000 130.202 L 400.000 78.000 294.187 78.000 C 209.906 78.000,188.336 78.102,188.185 78.500 M118.000 84.332 C 118.000 86.566,118.911 87.349,121.550 87.381 C 122.868 87.398,123.029 87.504,122.883 88.270 C 122.390 90.871,123.933 92.400,127.050 92.400 C 127.960 92.400,128.000 92.519,128.000 95.200 L 128.000 98.000 125.980 98.000 C 123.798 98.000,122.800 99.189,122.800 101.787 C 122.800 102.604,122.604 102.800,121.787 102.800 C 119.189 102.800,118.000 103.798,118.000 105.980 L 118.000 108.000 85.200 108.000 L 52.400 108.000 52.400 107.050 C 52.400 103.980,51.329 102.800,48.540 102.800 C 47.804 102.800,47.600 102.583,47.600 101.800 C 47.600 101.250,47.409 100.800,47.176 100.800 C 46.943 100.800,46.875 100.603,47.024 100.362 C 47.417 99.725,46.360 97.965,45.626 98.034 C 45.282 98.066,44.415 98.071,43.700 98.046 L 42.400 98.000 42.400 95.244 L 42.400 92.488 43.700 92.280 C 46.626 91.812,47.346 91.401,47.072 90.355 C 46.964 89.940,47.058 89.600,47.283 89.600 C 47.507 89.600,47.619 89.105,47.532 88.500 C 47.380 87.453,47.454 87.398,49.084 87.350 C 51.332 87.285,51.930 86.719,52.243 84.358 L 52.503 82.400 85.252 82.400 L 118.000 82.400 118.000 84.332 M391.438 88.842 C 392.590 90.115,392.636 170.335,391.486 171.486 C 390.331 172.641,200.119 172.594,198.842 171.438 L 198.000 170.676 198.000 130.264 L 198.000 89.852 198.870 88.926 L 199.739 88.000 295.208 88.000 L 390.676 88.000 391.438 88.842 M188.185 218.500 C 188.080 218.775,188.041 242.220,188.097 270.600 L 188.200 322.200 294.100 322.302 L 400.000 322.404 400.000 270.202 L 400.000 218.000 294.187 218.000 C 209.906 218.000,188.336 218.102,188.185 218.500 M391.438 228.842 C 392.590 230.115,392.636 310.335,391.486 311.486 C 390.331 312.641,200.119 312.594,198.842 311.438 L 198.000 310.676 198.000 270.264 L 198.000 229.852 198.870 228.926 L 199.739 228.000 295.208 228.000 L 390.676 228.000 391.438 228.842 " stroke="none" fill="#448bc4" fill-rule="evenodd"></path><path id="path1" d="M10.980 44.452 C 10.530 44.671,9.921 45.244,9.628 45.725 C 9.137 46.531,9.185 46.522,10.247 45.606 C 10.881 45.059,11.571 44.474,11.780 44.306 C 12.275 43.907,11.998 43.958,10.980 44.452 M25.352 48.802 C 23.833 49.515,22.895 51.088,23.146 52.500 C 23.176 52.665,22.830 52.800,22.377 52.800 C 20.726 52.800,18.000 53.701,18.000 54.247 C 18.000 54.551,17.668 54.800,17.262 54.800 C 16.402 54.800,15.411 55.817,15.020 57.100 C 14.870 57.595,14.495 58.000,14.189 58.000 C 13.829 58.000,13.455 58.854,13.134 60.408 C 12.655 62.725,12.577 62.835,11.063 63.288 C 7.822 64.259,8.019 61.249,8.009 110.097 C 7.999 158.841,7.793 155.656,11.033 156.992 C 12.571 157.626,12.746 157.845,12.985 159.438 C 13.219 160.999,14.695 163.216,16.600 164.866 C 16.820 165.057,17.498 165.654,18.107 166.193 C 18.806 166.813,19.937 167.270,21.180 167.435 C 23.065 167.685,23.156 167.756,23.392 169.151 C 23.883 172.059,24.054 172.088,42.100 172.311 L 58.000 172.507 58.002 251.953 C 58.004 308.052,58.133 331.870,58.441 333.000 C 58.929 334.791,60.215 336.397,61.170 336.406 C 62.387 336.418,62.896 337.125,63.362 339.452 L 63.832 341.800 65.816 342.220 L 67.800 342.641 68.039 345.833 C 68.523 352.286,68.101 352.124,84.531 352.166 C 101.416 352.209,101.259 352.266,102.182 345.806 L 102.640 342.600 104.478 342.265 C 106.249 341.941,106.334 341.861,106.801 340.064 C 107.067 339.039,107.368 337.885,107.469 337.501 C 107.571 337.116,108.136 336.689,108.727 336.551 C 111.967 335.794,112.337 333.789,112.372 316.800 C 112.409 299.032,112.328 298.605,108.800 298.021 C 107.684 297.836,107.376 297.587,107.281 296.795 C 106.997 294.413,106.404 293.681,104.364 293.191 L 102.400 292.720 102.400 285.192 L 102.400 277.664 103.700 277.393 C 105.801 276.954,106.738 276.142,107.033 274.503 C 107.396 272.490,107.857 272.000,109.387 272.000 C 111.675 272.000,111.969 271.238,112.256 264.569 C 112.820 251.446,112.223 248.588,108.800 248.021 C 107.684 247.836,107.376 247.587,107.281 246.795 C 106.997 244.413,106.404 243.681,104.364 243.191 L 102.400 242.720 102.400 235.192 L 102.400 227.664 103.700 227.393 C 105.801 226.954,106.738 226.142,107.033 224.503 C 107.396 222.490,107.857 222.000,109.387 222.000 C 112.319 222.000,112.184 223.169,112.330 196.415 L 112.460 172.513 128.643 172.314 L 144.826 172.115 145.807 171.194 C 146.346 170.687,146.894 169.705,147.024 169.012 C 147.241 167.857,147.443 167.714,149.458 167.292 C 150.667 167.038,152.111 166.419,152.668 165.915 C 155.990 162.913,156.805 161.778,157.287 159.481 C 157.709 157.468,157.846 157.280,159.133 156.953 C 159.907 156.757,160.895 156.099,161.362 155.471 L 162.200 154.341 162.200 110.071 C 162.200 60.082,162.455 63.976,159.148 63.399 C 157.758 63.157,157.685 63.062,157.435 61.180 C 157.268 59.923,156.816 58.814,156.182 58.107 C 155.637 57.498,154.746 56.505,154.202 55.900 C 153.658 55.295,153.120 54.800,153.006 54.800 C 152.893 54.800,152.460 54.460,152.044 54.044 C 151.617 53.617,150.401 53.165,149.255 53.008 C 148.138 52.854,147.255 52.609,147.293 52.464 C 147.571 51.404,146.140 49.276,144.742 48.671 C 142.160 47.552,27.749 47.678,25.352 48.802 M139.000 50.174 C 140.320 50.588,141.684 51.168,142.031 51.463 C 142.379 51.759,142.874 52.000,143.131 52.000 C 143.389 52.000,143.600 52.180,143.600 52.401 C 143.600 52.621,144.780 53.358,146.222 54.040 C 148.676 55.199,150.800 56.742,150.800 57.365 C 150.800 57.648,152.017 58.809,153.770 60.200 C 154.325 60.640,155.395 62.260,156.147 63.800 C 156.900 65.340,157.857 66.960,158.273 67.400 C 158.690 67.840,159.429 69.419,159.915 70.908 L 160.800 73.617 160.800 110.221 C 160.800 146.118,160.784 146.872,159.976 149.270 C 159.237 151.466,157.487 154.384,156.700 154.733 C 156.535 154.807,156.400 155.116,156.400 155.420 C 156.400 156.785,153.816 160.800,152.938 160.800 C 152.535 160.800,150.814 162.588,150.807 163.014 C 150.799 163.465,146.539 166.400,145.892 166.400 C 145.674 166.400,144.656 167.003,143.630 167.741 C 139.696 170.567,138.254 170.800,124.724 170.800 C 112.879 170.800,112.634 170.816,111.726 171.670 L 110.800 172.539 110.798 193.770 C 110.795 219.082,111.145 216.939,106.300 221.358 C 105.695 221.910,105.200 222.485,105.200 222.635 C 105.200 223.013,103.236 224.800,102.820 224.800 C 101.417 224.800,100.800 228.015,100.803 235.312 C 100.806 243.815,100.395 242.786,106.101 248.580 C 108.784 251.305,110.125 252.987,110.398 253.970 C 110.920 255.846,110.910 264.589,110.384 266.480 C 110.007 267.840,109.520 268.421,106.300 271.358 C 105.695 271.910,105.200 272.485,105.200 272.635 C 105.200 273.013,103.236 274.800,102.820 274.800 C 101.417 274.800,100.800 278.015,100.803 285.312 C 100.806 293.815,100.395 292.786,106.101 298.580 C 110.984 303.538,110.795 302.804,110.798 316.840 L 110.800 328.280 109.584 329.959 C 108.915 330.882,108.128 331.730,107.834 331.842 C 107.540 331.955,106.793 333.252,106.174 334.724 C 105.507 336.312,104.204 338.342,102.971 339.717 C 101.828 340.991,100.795 342.521,100.676 343.117 C 100.556 343.712,99.652 345.040,98.667 346.067 C 97.682 347.094,96.724 348.180,96.538 348.481 C 94.399 351.942,81.265 351.881,73.800 348.376 C 72.222 347.635,71.747 346.930,70.407 343.342 C 69.923 342.045,69.483 341.509,67.105 339.322 C 65.825 338.145,64.058 335.070,63.413 332.900 C 63.266 332.405,62.978 332.000,62.773 332.000 C 62.245 332.000,61.137 330.782,60.200 329.174 C 59.408 327.815,59.399 326.976,59.292 250.023 C 59.193 178.682,59.130 172.186,58.530 171.523 C 57.927 170.856,56.936 170.800,45.746 170.800 C 32.554 170.800,29.677 170.389,27.246 168.154 C 26.721 167.672,25.821 167.059,25.246 166.792 C 21.433 165.023,20.724 164.495,18.600 161.838 C 18.160 161.287,17.603 160.829,17.362 160.818 C 16.617 160.787,15.594 159.386,14.162 156.434 C 13.406 154.875,12.610 153.600,12.394 153.600 C 12.177 153.600,12.000 153.389,12.000 153.131 C 12.000 152.874,11.755 152.379,11.456 152.031 C 9.472 149.730,9.400 148.267,9.400 110.000 L 9.400 74.200 10.297 71.201 C 10.791 69.551,11.376 68.141,11.597 68.068 C 11.819 67.994,12.000 67.687,12.000 67.387 C 12.000 67.086,12.241 66.696,12.534 66.520 C 12.828 66.344,13.572 65.120,14.187 63.800 C 15.660 60.639,20.670 55.659,23.897 54.148 C 25.164 53.554,26.344 52.828,26.520 52.534 C 26.696 52.241,27.101 52.000,27.420 52.000 C 27.739 52.000,28.000 51.841,28.000 51.646 C 28.000 51.126,31.835 49.933,34.600 49.592 C 40.656 48.846,136.466 49.380,139.000 50.174 M46.400 71.400 C 45.630 71.697,44.586 71.953,44.080 71.970 C 43.573 71.986,42.583 72.597,41.880 73.326 C 41.176 74.056,39.748 75.072,38.707 75.585 C 36.731 76.559,35.817 77.596,35.373 79.367 C 35.228 79.944,34.497 80.921,33.748 81.538 C 31.021 83.787,29.477 98.550,31.400 104.000 C 31.730 104.935,32.000 106.085,32.000 106.555 C 32.000 107.029,32.551 107.851,33.240 108.404 C 33.922 108.952,34.807 110.143,35.205 111.051 C 35.994 112.850,37.850 114.800,38.771 114.800 C 39.576 114.800,41.955 116.482,42.090 117.146 C 42.682 120.074,126.686 120.406,127.940 117.484 C 128.290 116.670,130.278 115.203,131.838 114.607 C 133.465 113.985,135.200 111.956,135.200 110.673 C 135.200 110.194,136.860 108.208,137.484 107.940 C 140.054 106.837,139.769 82.923,137.176 82.059 C 136.363 81.788,135.272 80.341,135.006 79.181 C 134.679 77.758,132.973 76.033,131.037 75.169 C 130.137 74.767,128.952 73.889,128.404 73.219 C 127.857 72.549,127.024 72.000,126.555 72.000 C 126.085 72.000,124.935 71.730,124.000 71.400 C 121.592 70.550,48.606 70.550,46.400 71.400 M123.258 74.273 L 124.200 76.146 127.720 76.986 C 129.656 77.448,131.142 77.925,131.021 78.046 C 130.900 78.167,131.212 78.485,131.715 78.754 C 132.609 79.233,133.600 82.143,133.600 84.291 C 133.600 85.348,134.948 86.853,136.700 87.753 L 138.000 88.421 138.000 95.124 L 138.000 101.828 136.700 102.571 C 134.481 103.841,133.601 104.857,133.582 106.170 C 133.567 107.266,132.494 111.844,132.427 111.100 C 132.412 110.935,132.070 111.115,131.667 111.500 C 131.263 111.885,130.999 112.280,131.078 112.378 C 131.266 112.609,127.667 113.559,126.519 113.582 C 124.920 113.614,123.615 114.504,122.584 116.264 L 121.566 118.000 84.991 118.000 L 48.416 118.000 47.613 116.426 C 46.720 114.674,45.431 113.600,44.223 113.600 C 42.136 113.600,39.226 112.597,38.754 111.715 C 38.485 111.212,38.167 110.900,38.046 111.021 C 37.925 111.142,37.448 109.656,36.986 107.720 L 36.146 104.200 34.273 103.258 L 32.400 102.315 32.400 95.212 L 32.400 88.108 34.256 87.153 C 36.095 86.207,36.118 86.168,36.932 82.841 C 37.977 78.571,38.571 77.977,42.841 76.932 C 46.168 76.118,46.207 76.095,47.153 74.256 L 48.108 72.400 85.212 72.400 L 122.315 72.400 123.258 74.273 M198.870 88.926 L 198.000 89.852 198.000 130.264 L 198.000 170.676 198.842 171.438 C 200.119 172.594,390.331 172.641,391.486 171.486 C 392.636 170.335,392.590 90.115,391.438 88.842 L 390.676 88.000 295.208 88.000 L 199.739 88.000 198.870 88.926 M389.169 91.036 L 390.400 92.071 390.400 130.066 L 390.400 168.062 389.231 169.231 L 388.062 170.400 295.066 170.400 L 202.071 170.400 201.036 169.169 L 200.000 167.939 200.000 130.024 L 200.000 92.109 201.055 91.055 L 202.109 90.000 295.024 90.000 L 387.939 90.000 389.169 91.036 M198.870 228.926 L 198.000 229.852 198.000 270.264 L 198.000 310.676 198.842 311.438 C 200.119 312.594,390.331 312.641,391.486 311.486 C 392.636 310.335,392.590 230.115,391.438 228.842 L 390.676 228.000 295.208 228.000 L 199.739 228.000 198.870 228.926 M389.169 231.036 L 390.400 232.071 390.400 270.066 L 390.400 308.062 389.231 309.231 L 388.062 310.400 295.066 310.400 L 202.071 310.400 201.036 309.169 L 200.000 307.939 200.000 270.024 L 200.000 232.109 201.055 231.055 L 202.109 230.000 295.024 230.000 L 387.939 230.000 389.169 231.036 " stroke="none" fill="#5494cc" fill-rule="evenodd"></path><path id="path2" d="M33.800 51.462 C 32.260 51.790,30.640 52.393,30.200 52.802 C 29.338 53.603,25.232 55.715,23.600 56.197 C 22.552 56.506,20.800 57.917,20.800 58.452 C 20.800 58.833,18.874 60.795,18.482 60.813 C 17.956 60.838,16.400 62.326,16.400 62.804 C 16.400 63.834,14.105 68.598,12.933 70.000 C 10.907 72.424,10.799 74.454,10.807 110.283 C 10.815 147.173,10.816 147.186,13.360 150.958 C 14.118 152.081,15.127 153.990,15.603 155.200 C 16.814 158.280,16.974 158.547,17.897 159.016 C 19.215 159.685,20.048 160.492,21.033 162.053 C 21.704 163.116,22.485 163.704,23.879 164.194 C 26.123 164.985,25.920 164.882,31.500 168.052 C 33.261 169.053,39.584 169.542,51.224 169.578 L 58.248 169.600 59.524 170.847 L 60.800 172.095 60.800 248.797 C 60.800 333.947,60.599 327.298,63.255 330.097 C 64.325 331.224,65.200 332.346,65.200 332.589 C 65.200 334.373,67.702 337.508,69.377 337.822 C 70.919 338.111,71.692 339.225,71.981 341.575 C 72.184 343.223,72.342 343.423,74.183 344.375 C 75.683 345.150,76.241 345.696,76.472 346.613 C 76.991 348.672,80.003 349.422,87.301 349.309 C 93.860 349.207,94.477 349.011,95.763 346.619 C 96.183 345.838,96.670 345.200,96.847 345.200 C 97.355 345.200,99.200 343.064,99.200 342.475 C 99.200 341.635,101.054 338.689,102.387 337.413 C 103.054 336.773,103.604 336.059,103.609 335.825 C 103.614 335.591,103.970 334.950,104.400 334.400 C 104.830 333.850,105.186 333.102,105.191 332.738 C 105.196 332.373,106.081 331.161,107.159 330.043 L 109.117 328.011 109.408 322.580 C 110.042 310.755,109.049 301.982,107.081 302.006 C 106.372 302.015,101.045 296.203,100.268 294.573 C 99.712 293.408,99.600 291.812,99.600 285.058 C 99.600 276.028,99.808 275.101,102.300 273.016 C 103.015 272.418,103.600 271.765,103.600 271.564 C 103.600 271.069,106.888 268.000,107.419 268.000 C 107.652 268.000,108.193 267.055,108.621 265.900 C 110.193 261.662,109.120 251.981,107.081 252.006 C 106.372 252.015,101.045 246.203,100.268 244.573 C 99.712 243.408,99.600 241.812,99.600 235.058 C 99.600 226.028,99.808 225.101,102.300 223.016 C 103.015 222.418,103.600 221.765,103.600 221.564 C 103.600 221.073,106.886 218.000,107.412 218.000 C 109.147 218.000,109.388 215.152,109.513 193.114 L 109.633 172.028 110.847 170.814 L 112.062 169.600 119.131 169.578 C 132.928 169.536,139.189 168.836,140.184 167.225 C 140.403 166.871,143.449 165.386,146.600 164.097 C 147.765 163.621,148.800 162.882,149.079 162.329 C 149.638 161.221,151.206 159.679,152.420 159.044 C 152.942 158.772,153.910 157.130,154.922 154.800 C 155.830 152.710,156.693 150.910,156.840 150.800 C 159.271 148.980,159.556 144.716,159.556 110.200 C 159.556 74.430,159.499 73.682,156.362 68.438 C 155.914 67.689,155.085 65.923,154.521 64.513 C 153.868 62.882,153.114 61.714,152.447 61.303 C 151.149 60.501,149.530 58.882,149.000 57.854 C 148.550 56.982,148.416 56.903,144.800 55.379 C 143.370 54.776,141.476 53.769,140.592 53.140 C 137.269 50.777,138.098 50.811,85.000 50.840 C 43.676 50.861,36.191 50.952,33.800 51.462 M136.448 52.900 C 136.663 53.285,137.101 53.600,137.420 53.600 C 137.739 53.600,138.000 53.776,138.000 53.992 C 138.000 54.540,140.557 55.771,143.395 56.588 C 146.603 57.512,148.000 58.278,148.000 59.114 C 148.000 60.035,149.792 61.932,150.930 62.218 C 152.135 62.521,152.620 63.377,154.033 67.702 C 154.829 70.136,155.719 71.951,156.712 73.163 L 158.200 74.979 158.200 110.261 C 158.200 143.553,158.160 145.584,157.488 146.272 C 155.729 148.071,155.129 149.135,154.179 152.142 C 152.784 156.557,152.047 158.000,151.185 158.000 C 150.248 158.000,148.000 160.248,148.000 161.185 C 148.000 162.070,146.309 162.912,141.887 164.229 C 140.079 164.768,138.400 165.477,138.156 165.804 C 137.912 166.132,137.529 166.400,137.305 166.400 C 137.081 166.400,136.634 166.797,136.311 167.283 C 135.733 168.154,135.568 168.168,124.362 168.298 C 111.849 168.442,109.805 168.718,109.067 170.361 C 108.738 171.092,108.541 177.764,108.400 192.876 L 108.200 214.352 106.700 215.686 C 105.875 216.420,105.200 217.241,105.200 217.510 C 105.200 217.780,105.044 218.000,104.852 218.000 C 104.177 218.000,99.872 222.607,99.252 223.994 C 98.764 225.086,98.590 227.278,98.473 233.800 C 98.271 245.063,98.832 247.482,102.229 250.000 C 102.971 250.550,103.583 251.225,103.589 251.500 C 103.595 251.775,103.876 252.000,104.213 252.000 C 104.549 252.000,104.941 252.301,105.082 252.669 C 105.407 253.517,106.470 254.588,107.303 254.907 C 109.223 255.644,108.755 263.858,106.688 265.697 C 105.869 266.425,105.200 267.241,105.200 267.510 C 105.200 267.780,105.044 268.000,104.852 268.000 C 104.177 268.000,99.872 272.607,99.252 273.994 C 98.764 275.086,98.590 277.278,98.473 283.800 C 98.271 295.063,98.832 297.482,102.229 300.000 C 102.971 300.550,103.583 301.225,103.589 301.500 C 103.595 301.775,103.876 302.000,104.213 302.000 C 104.549 302.000,104.941 302.301,105.082 302.669 C 105.403 303.506,106.467 304.586,107.274 304.896 C 108.994 305.556,108.895 328.000,107.171 328.000 C 106.241 328.000,104.106 330.606,103.765 332.159 C 103.436 333.658,102.749 334.800,102.176 334.800 C 101.035 334.800,98.000 340.173,98.000 342.192 C 98.000 342.849,97.669 343.179,96.742 343.445 C 95.798 343.716,95.225 344.302,94.442 345.799 C 93.869 346.896,93.220 347.927,93.000 348.090 C 92.523 348.445,82.990 348.494,81.700 348.148 L 80.800 347.907 80.800 263.370 C 80.800 175.238,80.775 173.894,79.121 171.790 C 78.105 170.498,72.579 170.288,71.502 171.500 C 69.772 173.446,69.817 171.375,69.699 254.181 L 69.586 332.963 68.738 333.866 L 67.890 334.768 67.145 333.821 C 66.735 333.300,66.400 332.420,66.400 331.865 C 66.400 330.735,64.064 328.000,63.099 328.000 C 62.022 328.000,62.011 327.200,62.005 249.303 C 61.999 162.720,62.260 169.775,59.035 168.885 C 58.058 168.616,52.838 168.385,46.060 168.311 C 34.876 168.190,34.710 168.176,33.996 167.294 C 33.598 166.802,33.085 166.400,32.856 166.400 C 32.627 166.400,32.290 166.132,32.107 165.805 C 31.924 165.478,30.301 164.769,28.500 164.230 C 23.748 162.807,22.629 162.189,22.084 160.681 C 21.622 159.405,19.845 158.000,18.692 158.000 C 18.128 158.000,17.582 156.695,15.785 151.053 C 15.374 149.762,14.714 148.504,14.319 148.257 C 13.924 148.010,13.600 147.590,13.600 147.324 C 13.600 147.058,13.285 146.663,12.900 146.448 C 12.241 146.079,12.200 143.933,12.200 110.196 C 12.200 76.505,12.242 74.305,12.900 73.824 C 13.285 73.542,13.600 73.150,13.600 72.952 C 13.600 72.754,13.924 72.390,14.319 72.143 C 14.714 71.896,15.372 70.638,15.779 69.347 C 17.955 62.458,17.870 62.643,19.060 62.262 C 20.570 61.780,21.874 60.556,22.181 59.334 C 22.432 58.334,25.029 56.899,27.800 56.229 C 29.529 55.810,31.748 54.728,32.120 54.122 C 32.296 53.835,32.682 53.600,32.977 53.600 C 33.273 53.600,33.613 53.344,33.733 53.031 C 34.091 52.098,33.915 52.101,85.928 52.151 C 133.224 52.197,136.078 52.240,136.448 52.900 M43.831 68.817 C 40.767 69.182,39.390 69.966,38.423 71.895 C 38.003 72.734,37.410 73.218,36.600 73.383 C 34.889 73.730,33.700 74.867,33.399 76.440 C 33.210 77.426,32.797 77.971,31.895 78.423 C 28.808 79.970,28.199 83.516,28.531 98.000 C 28.797 109.604,29.201 111.312,31.881 112.162 C 32.299 112.295,32.879 113.078,33.171 113.902 C 33.902 115.965,34.189 116.249,36.116 116.818 C 37.405 117.199,38.044 117.708,38.842 118.990 C 40.673 121.931,38.512 121.800,85.200 121.800 C 120.170 121.800,126.911 121.710,128.600 121.220 C 130.535 120.659,131.959 119.520,131.987 118.511 C 131.994 118.242,132.907 117.632,134.015 117.156 C 135.758 116.406,136.166 116.000,137.044 114.144 C 137.602 112.965,138.270 111.994,138.529 111.987 C 141.185 111.912,141.800 108.753,141.800 95.200 C 141.800 81.640,141.598 80.466,138.990 78.842 C 137.708 78.044,137.199 77.405,136.818 76.116 C 136.249 74.189,135.965 73.902,133.902 73.171 C 133.078 72.879,132.295 72.299,132.162 71.881 C 131.782 70.683,130.419 69.528,128.846 69.072 C 127.078 68.558,47.990 68.322,43.831 68.817 M126.329 70.208 C 128.233 70.657,129.172 71.136,130.129 72.146 C 130.828 72.884,132.163 73.876,133.096 74.351 C 134.318 74.971,135.068 75.743,135.777 77.106 C 136.318 78.148,137.466 79.769,138.327 80.708 C 140.456 83.030,140.800 85.054,140.800 95.247 C 140.800 105.811,140.034 109.259,137.318 110.922 C 137.029 111.099,136.544 111.839,136.240 112.565 C 135.564 114.183,134.218 115.514,132.522 116.243 C 131.819 116.545,131.099 117.029,130.922 117.318 C 128.794 120.793,128.699 120.800,85.247 120.800 C 42.663 120.800,43.460 120.844,40.708 118.336 C 39.769 117.480,38.170 116.318,37.155 115.756 C 35.956 115.091,34.985 114.148,34.385 113.066 C 33.877 112.150,32.863 110.828,32.132 110.129 C 30.064 108.149,29.612 105.470,29.612 95.200 C 29.613 84.758,29.968 82.792,32.319 80.242 C 33.212 79.273,34.319 77.743,34.778 76.842 C 35.335 75.752,36.071 75.014,36.983 74.633 C 37.736 74.318,39.177 73.301,40.185 72.371 C 43.222 69.572,41.592 69.671,85.000 69.640 C 118.050 69.616,124.175 69.700,126.329 70.208 M202.080 92.080 C 201.384 92.776,201.384 167.624,202.080 168.320 C 202.779 169.019,387.621 169.019,388.320 168.320 C 389.016 167.624,389.016 92.776,388.320 92.080 C 387.621 91.381,202.779 91.381,202.080 92.080 M202.080 232.080 C 201.384 232.776,201.384 307.624,202.080 308.320 C 202.779 309.019,387.621 309.019,388.320 308.320 C 389.016 307.624,389.016 232.776,388.320 232.080 C 387.621 231.381,202.779 231.381,202.080 232.080 " stroke="none" fill="#acccec" fill-rule="evenodd"></path><path id="path3" d="M34.876 52.282 C 34.367 52.381,33.853 52.718,33.733 53.031 C 33.613 53.344,33.273 53.600,32.977 53.600 C 32.682 53.600,32.296 53.835,32.120 54.122 C 31.748 54.728,29.529 55.810,27.800 56.229 C 25.029 56.899,22.432 58.334,22.181 59.334 C 21.874 60.556,20.570 61.780,19.060 62.262 C 17.870 62.643,17.955 62.458,15.779 69.347 C 15.372 70.638,14.714 71.896,14.319 72.143 C 13.924 72.390,13.600 72.754,13.600 72.952 C 13.600 73.150,13.285 73.542,12.900 73.824 C 12.242 74.305,12.200 76.505,12.200 110.196 C 12.200 143.933,12.241 146.079,12.900 146.448 C 13.285 146.663,13.600 147.058,13.600 147.324 C 13.600 147.590,13.924 148.010,14.319 148.257 C 14.714 148.504,15.374 149.762,15.785 151.053 C 17.582 156.695,18.128 158.000,18.692 158.000 C 19.845 158.000,21.622 159.405,22.084 160.681 C 22.629 162.189,23.748 162.807,28.500 164.230 C 30.301 164.769,31.924 165.478,32.107 165.805 C 32.290 166.132,32.627 166.400,32.856 166.400 C 33.085 166.400,33.598 166.802,33.996 167.294 C 34.710 168.176,34.876 168.190,46.060 168.311 C 52.838 168.385,58.058 168.616,59.035 168.885 C 62.260 169.775,61.999 162.720,62.005 249.303 C 62.011 327.200,62.022 328.000,63.099 328.000 C 64.064 328.000,66.400 330.735,66.400 331.865 C 66.400 332.420,66.735 333.300,67.145 333.821 L 67.890 334.768 68.738 333.866 L 69.586 332.963 69.699 254.181 C 69.817 171.375,69.772 173.446,71.502 171.500 C 72.579 170.288,78.105 170.498,79.121 171.790 C 80.775 173.894,80.800 175.238,80.800 263.370 L 80.800 347.907 81.700 348.148 C 82.990 348.494,92.523 348.445,93.000 348.090 C 93.220 347.927,93.869 346.896,94.442 345.799 C 95.225 344.302,95.798 343.716,96.742 343.445 C 97.669 343.179,98.000 342.849,98.000 342.192 C 98.000 340.173,101.035 334.800,102.176 334.800 C 102.749 334.800,103.436 333.658,103.765 332.159 C 104.106 330.606,106.241 328.000,107.171 328.000 C 108.895 328.000,108.994 305.556,107.274 304.896 C 106.467 304.586,105.403 303.506,105.082 302.669 C 104.941 302.301,104.549 302.000,104.213 302.000 C 103.876 302.000,103.595 301.775,103.589 301.500 C 103.583 301.225,102.971 300.550,102.229 300.000 C 98.832 297.482,98.271 295.063,98.473 283.800 C 98.590 277.278,98.764 275.086,99.252 273.994 C 99.872 272.607,104.177 268.000,104.852 268.000 C 105.044 268.000,105.200 267.780,105.200 267.510 C 105.200 267.241,105.869 266.425,106.688 265.697 C 108.755 263.858,109.223 255.644,107.303 254.907 C 106.470 254.588,105.407 253.517,105.082 252.669 C 104.941 252.301,104.549 252.000,104.213 252.000 C 103.876 252.000,103.595 251.775,103.589 251.500 C 103.583 251.225,102.971 250.550,102.229 250.000 C 98.832 247.482,98.271 245.063,98.473 233.800 C 98.590 227.278,98.764 225.086,99.252 223.994 C 99.872 222.607,104.177 218.000,104.852 218.000 C 105.044 218.000,105.200 217.780,105.200 217.510 C 105.200 217.241,105.875 216.420,106.700 215.686 L 108.200 214.352 108.400 192.876 C 108.541 177.764,108.738 171.092,109.067 170.361 C 109.805 168.718,111.849 168.442,124.362 168.298 C 135.568 168.168,135.733 168.154,136.311 167.283 C 136.634 166.797,137.081 166.400,137.305 166.400 C 137.529 166.400,137.912 166.132,138.156 165.804 C 138.400 165.477,140.079 164.768,141.887 164.229 C 146.309 162.912,148.000 162.070,148.000 161.185 C 148.000 160.248,150.248 158.000,151.185 158.000 C 152.047 158.000,152.784 156.557,154.179 152.142 C 155.129 149.135,155.729 148.071,157.488 146.272 C 158.160 145.584,158.200 143.553,158.200 110.261 L 158.200 74.979 156.712 73.163 C 155.719 71.951,154.829 70.136,154.033 67.702 C 152.620 63.377,152.135 62.521,150.930 62.218 C 149.792 61.932,148.000 60.035,148.000 59.114 C 148.000 58.278,146.603 57.512,143.395 56.588 C 140.557 55.771,138.000 54.540,138.000 53.992 C 138.000 53.776,137.739 53.600,137.420 53.600 C 137.101 53.600,136.663 53.285,136.448 52.900 C 136.075 52.233,38.195 51.638,34.876 52.282 M128.846 69.072 C 130.419 69.528,131.782 70.683,132.162 71.881 C 132.295 72.299,133.078 72.879,133.902 73.171 C 135.965 73.902,136.249 74.189,136.818 76.116 C 137.199 77.405,137.708 78.044,138.990 78.842 C 141.598 80.466,141.800 81.640,141.800 95.200 C 141.800 108.753,141.185 111.912,138.529 111.987 C 138.270 111.994,137.602 112.965,137.044 114.144 C 136.166 116.000,135.758 116.406,134.015 117.156 C 132.907 117.632,131.994 118.242,131.987 118.511 C 131.959 119.520,130.535 120.659,128.600 121.220 C 126.911 121.710,120.170 121.800,85.200 121.800 C 38.512 121.800,40.673 121.931,38.842 118.990 C 38.044 117.708,37.405 117.199,36.116 116.818 C 34.189 116.249,33.902 115.965,33.171 113.902 C 32.879 113.078,32.299 112.295,31.881 112.162 C 29.201 111.312,28.797 109.604,28.531 98.000 C 28.199 83.516,28.808 79.970,31.895 78.423 C 32.797 77.971,33.210 77.426,33.399 76.440 C 33.700 74.867,34.889 73.730,36.600 73.383 C 37.410 73.218,38.003 72.734,38.423 71.895 C 39.390 69.966,40.767 69.182,43.831 68.817 C 47.990 68.322,127.078 68.558,128.846 69.072 " stroke="none" fill="#dcf4fc" fill-rule="evenodd"></path><path id="path4" d="M34.600 49.592 C 31.835 49.933,28.000 51.126,28.000 51.646 C 28.000 51.841,27.739 52.000,27.420 52.000 C 27.101 52.000,26.696 52.241,26.520 52.534 C 26.344 52.828,25.164 53.554,23.897 54.148 C 20.670 55.659,15.660 60.639,14.187 63.800 C 13.572 65.120,12.828 66.344,12.534 66.520 C 12.241 66.696,12.000 67.086,12.000 67.387 C 12.000 67.687,11.819 67.994,11.597 68.068 C 11.376 68.141,10.791 69.551,10.297 71.201 L 9.400 74.200 9.400 110.000 C 9.400 148.267,9.472 149.730,11.456 152.031 C 11.755 152.379,12.000 152.874,12.000 153.131 C 12.000 153.389,12.177 153.600,12.394 153.600 C 12.610 153.600,13.406 154.875,14.162 156.434 C 15.594 159.386,16.617 160.787,17.362 160.818 C 17.603 160.829,18.160 161.287,18.600 161.838 C 20.724 164.495,21.433 165.023,25.246 166.792 C 25.821 167.059,26.721 167.672,27.246 168.154 C 29.677 170.389,32.554 170.800,45.746 170.800 C 56.936 170.800,57.927 170.856,58.530 171.523 C 59.130 172.186,59.193 178.682,59.292 250.023 C 59.399 326.976,59.408 327.815,60.200 329.174 C 61.137 330.782,62.245 332.000,62.773 332.000 C 62.978 332.000,63.266 332.405,63.413 332.900 C 64.058 335.070,65.825 338.145,67.105 339.322 C 69.483 341.509,69.923 342.045,70.407 343.342 C 71.747 346.930,72.222 347.635,73.800 348.376 C 81.265 351.881,94.399 351.942,96.538 348.481 C 96.724 348.180,97.682 347.094,98.667 346.067 C 99.652 345.040,100.556 343.712,100.676 343.117 C 100.795 342.521,101.828 340.991,102.971 339.717 C 104.204 338.342,105.507 336.312,106.174 334.724 C 106.793 333.252,107.540 331.955,107.834 331.842 C 108.128 331.730,108.915 330.882,109.584 329.959 L 110.800 328.280 110.798 316.840 C 110.795 302.804,110.984 303.538,106.101 298.580 C 100.395 292.786,100.806 293.815,100.803 285.312 C 100.800 278.015,101.417 274.800,102.820 274.800 C 103.236 274.800,105.200 273.013,105.200 272.635 C 105.200 272.485,105.695 271.910,106.300 271.358 C 109.520 268.421,110.007 267.840,110.384 266.480 C 110.910 264.589,110.920 255.846,110.398 253.970 C 110.125 252.987,108.784 251.305,106.101 248.580 C 100.395 242.786,100.806 243.815,100.803 235.312 C 100.800 228.015,101.417 224.800,102.820 224.800 C 103.236 224.800,105.200 223.013,105.200 222.635 C 105.200 222.485,105.695 221.910,106.300 221.358 C 111.145 216.939,110.795 219.082,110.798 193.770 L 110.800 172.539 111.726 171.670 C 112.634 170.816,112.879 170.800,124.724 170.800 C 138.254 170.800,139.696 170.567,143.630 167.741 C 144.656 167.003,145.674 166.400,145.892 166.400 C 146.539 166.400,150.799 163.465,150.807 163.014 C 150.814 162.588,152.535 160.800,152.938 160.800 C 153.816 160.800,156.400 156.785,156.400 155.420 C 156.400 155.116,156.535 154.807,156.700 154.733 C 157.487 154.384,159.237 151.466,159.976 149.270 C 160.784 146.872,160.800 146.118,160.800 110.221 L 160.800 73.617 159.915 70.908 C 159.429 69.419,158.690 67.840,158.273 67.400 C 157.857 66.960,156.900 65.340,156.147 63.800 C 155.395 62.260,154.325 60.640,153.770 60.200 C 152.017 58.809,150.800 57.648,150.800 57.365 C 150.800 56.742,148.676 55.199,146.222 54.040 C 144.780 53.358,143.600 52.621,143.600 52.401 C 143.600 52.180,143.389 52.000,143.131 52.000 C 142.874 52.000,142.379 51.759,142.031 51.463 C 139.593 49.391,140.525 49.427,86.800 49.359 C 59.410 49.324,35.920 49.429,34.600 49.592 M136.192 51.405 C 137.877 51.762,139.622 52.450,140.592 53.140 C 141.476 53.769,143.370 54.776,144.800 55.379 C 148.416 56.903,148.550 56.982,149.000 57.854 C 149.530 58.882,151.149 60.501,152.447 61.303 C 153.114 61.714,153.868 62.882,154.521 64.513 C 155.085 65.923,155.914 67.689,156.362 68.438 C 159.499 73.682,159.556 74.430,159.556 110.200 C 159.556 144.716,159.271 148.980,156.840 150.800 C 156.693 150.910,155.830 152.710,154.922 154.800 C 153.910 157.130,152.942 158.772,152.420 159.044 C 151.206 159.679,149.638 161.221,149.079 162.329 C 148.800 162.882,147.765 163.621,146.600 164.097 C 143.449 165.386,140.403 166.871,140.184 167.225 C 139.189 168.836,132.928 169.536,119.131 169.578 L 112.062 169.600 110.847 170.814 L 109.633 172.028 109.513 193.114 C 109.388 215.152,109.147 218.000,107.412 218.000 C 106.886 218.000,103.600 221.073,103.600 221.564 C 103.600 221.765,103.015 222.418,102.300 223.016 C 99.808 225.101,99.600 226.028,99.600 235.058 C 99.600 241.812,99.712 243.408,100.268 244.573 C 101.045 246.203,106.372 252.015,107.081 252.006 C 109.120 251.981,110.193 261.662,108.621 265.900 C 108.193 267.055,107.652 268.000,107.419 268.000 C 106.888 268.000,103.600 271.069,103.600 271.564 C 103.600 271.765,103.015 272.418,102.300 273.016 C 99.808 275.101,99.600 276.028,99.600 285.058 C 99.600 291.812,99.712 293.408,100.268 294.573 C 101.045 296.203,106.372 302.015,107.081 302.006 C 109.049 301.982,110.042 310.755,109.408 322.580 L 109.117 328.011 107.159 330.043 C 106.081 331.161,105.196 332.373,105.191 332.738 C 105.186 333.102,104.830 333.850,104.400 334.400 C 103.970 334.950,103.614 335.591,103.609 335.825 C 103.604 336.059,103.054 336.773,102.387 337.413 C 101.054 338.689,99.200 341.635,99.200 342.475 C 99.200 343.064,97.355 345.200,96.847 345.200 C 96.670 345.200,96.183 345.838,95.763 346.619 C 94.477 349.011,93.860 349.207,87.301 349.309 C 80.003 349.422,76.991 348.672,76.472 346.613 C 76.241 345.696,75.683 345.150,74.183 344.375 C 72.342 343.423,72.184 343.223,71.981 341.575 C 71.692 339.225,70.919 338.111,69.377 337.822 C 67.702 337.508,65.200 334.373,65.200 332.589 C 65.200 332.346,64.325 331.224,63.255 330.097 C 60.599 327.298,60.800 333.947,60.800 248.797 L 60.800 172.095 59.524 170.847 L 58.248 169.600 51.224 169.578 C 39.584 169.542,33.261 169.053,31.500 168.052 C 25.920 164.882,26.123 164.985,23.879 164.194 C 22.485 163.704,21.704 163.116,21.033 162.053 C 20.048 160.492,19.215 159.685,17.897 159.016 C 16.974 158.547,16.814 158.280,15.603 155.200 C 15.127 153.990,14.118 152.081,13.360 150.958 C 10.816 147.186,10.815 147.173,10.807 110.283 C 10.799 74.454,10.907 72.424,12.933 70.000 C 14.105 68.598,16.400 63.834,16.400 62.804 C 16.400 62.326,17.956 60.838,18.482 60.813 C 18.874 60.795,20.800 58.833,20.800 58.452 C 20.800 57.917,22.552 56.506,23.600 56.197 C 25.232 55.715,29.338 53.603,30.200 52.802 C 32.241 50.906,33.335 50.867,85.000 50.840 C 126.256 50.818,133.812 50.901,136.192 51.405 M44.109 70.175 C 42.632 70.533,41.480 71.177,40.185 72.371 C 39.177 73.301,37.736 74.318,36.983 74.633 C 36.071 75.014,35.335 75.752,34.778 76.842 C 34.319 77.743,33.212 79.273,32.319 80.242 C 28.431 84.459,28.294 106.455,32.132 110.129 C 32.863 110.828,33.877 112.150,34.385 113.066 C 34.985 114.148,35.956 115.091,37.155 115.756 C 38.170 116.318,39.769 117.480,40.708 118.336 C 43.460 120.844,42.663 120.800,85.247 120.800 C 128.699 120.800,128.794 120.793,130.922 117.318 C 131.099 117.029,131.819 116.545,132.522 116.243 C 134.218 115.514,135.564 114.183,136.240 112.565 C 136.544 111.839,137.029 111.099,137.318 110.922 C 140.034 109.259,140.800 105.811,140.800 95.247 C 140.800 85.054,140.456 83.030,138.327 80.708 C 137.466 79.769,136.318 78.148,135.777 77.106 C 135.068 75.743,134.318 74.971,133.096 74.351 C 132.163 73.876,130.828 72.884,130.129 72.146 C 127.692 69.573,128.330 69.609,85.000 69.640 C 55.135 69.662,45.718 69.785,44.109 70.175 M124.000 71.400 C 124.935 71.730,126.085 72.000,126.555 72.000 C 127.024 72.000,127.857 72.549,128.404 73.219 C 128.952 73.889,130.137 74.767,131.037 75.169 C 132.973 76.033,134.679 77.758,135.006 79.181 C 135.272 80.341,136.363 81.788,137.176 82.059 C 139.769 82.923,140.054 106.837,137.484 107.940 C 136.860 108.208,135.200 110.194,135.200 110.673 C 135.200 111.956,133.465 113.985,131.838 114.607 C 130.278 115.203,128.290 116.670,127.940 117.484 C 126.686 120.406,42.682 120.074,42.090 117.146 C 41.955 116.482,39.576 114.800,38.771 114.800 C 37.850 114.800,35.994 112.850,35.205 111.051 C 34.807 110.143,33.922 108.952,33.240 108.404 C 32.551 107.851,32.000 107.029,32.000 106.555 C 32.000 106.085,31.730 104.935,31.400 104.000 C 29.477 98.550,31.021 83.787,33.748 81.538 C 34.497 80.921,35.228 79.944,35.373 79.367 C 35.817 77.596,36.731 76.559,38.707 75.585 C 39.748 75.072,41.176 74.056,41.880 73.326 C 42.583 72.597,43.573 71.986,44.080 71.970 C 44.586 71.953,45.630 71.697,46.400 71.400 C 48.606 70.550,121.592 70.550,124.000 71.400 M201.055 91.055 L 200.000 92.109 200.000 130.024 L 200.000 167.939 201.036 169.169 L 202.071 170.400 295.066 170.400 L 388.062 170.400 389.231 169.231 L 390.400 168.062 390.400 130.066 L 390.400 92.071 389.169 91.036 L 387.939 90.000 295.024 90.000 L 202.109 90.000 201.055 91.055 M388.320 92.080 C 389.016 92.776,389.016 167.624,388.320 168.320 C 387.621 169.019,202.779 169.019,202.080 168.320 C 201.384 167.624,201.384 92.776,202.080 92.080 C 202.779 91.381,387.621 91.381,388.320 92.080 M201.055 231.055 L 200.000 232.109 200.000 270.024 L 200.000 307.939 201.036 309.169 L 202.071 310.400 295.066 310.400 L 388.062 310.400 389.231 309.231 L 390.400 308.062 390.400 270.066 L 390.400 232.071 389.169 231.036 L 387.939 230.000 295.024 230.000 L 202.109 230.000 201.055 231.055 M388.320 232.080 C 389.016 232.776,389.016 307.624,388.320 308.320 C 387.621 309.019,202.779 309.019,202.080 308.320 C 201.384 307.624,201.384 232.776,202.080 232.080 C 202.779 231.381,387.621 231.381,388.320 232.080 " stroke="none" fill="#a4c4e4" fill-rule="evenodd"></path></g></svg>