<svg id="svg" xmlns="http://www.w3.org/2000/svg" xmlns:xlink="http://www.w3.org/1999/xlink" width="400" height="400" viewBox="0, 0, 400,400"><g id="svgg"><path id="path0" d="M113.900 135.089 C 113.515 135.515,113.200 136.162,113.200 136.527 C 113.200 137.645,111.686 141.249,111.008 141.744 C 110.398 142.191,109.200 146.801,109.200 148.706 C 109.200 150.232,107.913 154.343,107.193 155.115 C 106.326 156.046,105.744 157.877,105.197 161.400 C 104.606 165.208,103.634 168.366,102.795 169.205 C 102.062 169.938,101.548 171.851,100.753 176.800 C 100.251 179.928,99.825 181.043,98.244 183.373 C 97.547 184.400,97.223 185.592,97.017 187.884 C 96.662 191.843,95.792 194.907,94.627 196.305 C 93.695 197.424,93.294 198.821,92.192 204.792 C 91.848 206.658,91.218 208.728,90.791 209.392 C 89.277 211.754,88.408 214.363,88.382 216.628 C 88.367 218.018,87.988 219.683,87.001 222.700 C 86.839 223.195,86.575 223.600,86.414 223.600 C 85.824 223.600,84.842 226.688,84.378 230.000 C 83.814 234.030,83.026 236.413,81.777 237.866 C 81.151 238.594,80.776 239.697,80.585 241.365 C 80.019 246.321,79.120 249.681,78.005 251.000 C 76.833 252.388,76.428 253.951,75.362 261.191 C 75.217 262.176,74.842 263.375,74.528 263.854 C 73.875 264.850,73.926 264.894,76.504 265.591 C 78.496 266.130,96.702 265.994,98.039 265.431 C 98.492 265.240,98.820 264.153,99.171 261.681 C 99.952 256.185,100.428 254.408,101.649 252.439 C 102.556 250.978,102.867 249.852,103.164 246.960 C 104.118 237.698,104.344 237.600,124.773 237.600 C 141.645 237.600,140.746 237.485,142.294 239.846 C 142.565 240.261,143.236 241.230,143.784 242.000 C 145.724 244.728,146.543 247.622,147.000 253.373 C 147.280 256.896,147.721 258.507,148.679 259.512 C 148.947 259.793,149.478 261.053,149.859 262.312 C 151.002 266.092,150.624 265.983,162.600 265.978 C 174.912 265.974,174.638 266.055,174.279 262.514 C 173.974 259.510,173.375 257.524,172.453 256.461 C 171.369 255.212,170.598 252.733,169.851 248.104 C 169.334 244.904,168.933 243.636,168.014 242.304 C 167.257 241.208,166.677 239.672,166.388 238.000 C 165.344 231.966,165.116 230.951,164.591 230.000 C 164.288 229.450,163.699 228.370,163.284 227.600 C 162.869 226.830,162.313 224.850,162.047 223.200 C 161.255 218.270,160.716 216.234,160.037 215.600 C 158.916 214.554,158.452 213.124,157.650 208.240 C 157.095 204.865,156.624 203.178,156.030 202.440 C 154.522 200.566,153.625 197.503,153.012 192.138 C 152.831 190.557,152.452 189.377,151.952 188.841 C 150.998 187.816,149.600 184.637,149.600 183.491 C 149.600 183.027,149.401 181.557,149.158 180.224 C 148.915 178.891,148.645 177.408,148.558 176.928 C 148.470 176.448,148.152 175.810,147.851 175.508 C 146.476 174.133,145.988 172.530,144.777 165.400 C 144.515 163.860,144.008 162.240,143.651 161.800 C 142.412 160.277,141.996 159.193,141.385 155.904 C 140.231 149.680,139.845 148.199,139.220 147.600 C 138.086 146.512,136.817 142.845,136.782 140.554 C 136.751 138.507,135.766 135.525,134.970 135.067 C 133.403 134.165,114.717 134.185,113.900 135.089 M193.300 134.839 C 192.503 135.669,192.574 264.631,193.371 265.429 C 194.347 266.405,214.442 266.258,215.338 265.269 C 215.937 264.607,216.000 262.485,216.000 243.087 C 216.000 227.803,216.132 221.348,216.459 220.630 C 217.134 219.148,218.559 218.888,227.200 218.666 C 231.490 218.556,235.990 218.262,237.200 218.012 C 240.288 217.374,242.589 216.937,245.600 216.415 C 251.701 215.359,252.614 215.089,253.905 213.958 C 255.097 212.915,257.196 211.790,259.799 210.800 C 260.349 210.591,260.800 210.177,260.800 209.880 C 260.800 209.191,262.228 207.882,263.900 207.037 C 264.615 206.675,265.201 206.069,265.201 205.690 C 265.203 204.792,266.346 202.953,267.988 201.205 C 269.041 200.084,269.491 199.024,270.283 195.805 C 270.824 193.602,271.719 190.900,272.271 189.800 C 274.481 185.396,274.577 170.282,272.424 165.800 C 271.789 164.480,271.048 162.410,270.775 161.200 C 269.673 156.303,269.151 154.903,268.028 153.827 C 267.393 153.219,266.395 151.653,265.809 150.348 C 265.037 148.627,264.323 147.709,263.215 147.010 C 262.375 146.479,261.443 145.495,261.146 144.822 C 260.848 144.150,260.370 143.600,260.083 143.600 C 259.409 143.600,255.093 140.857,254.695 140.176 C 254.279 139.462,252.070 138.400,251.005 138.400 C 249.954 138.400,245.194 136.880,244.523 136.331 C 242.788 134.909,240.116 134.735,216.800 134.525 C 198.214 134.357,193.704 134.418,193.300 134.839 M293.280 134.880 C 292.501 135.659,292.591 264.649,293.371 265.429 C 294.347 266.405,314.442 266.258,315.338 265.269 C 316.419 264.074,316.351 136.041,315.269 135.062 C 314.331 134.213,294.114 134.046,293.280 134.880 M237.850 154.553 C 238.702 154.856,240.320 155.711,241.445 156.453 C 242.570 157.194,244.023 158.088,244.673 158.440 C 245.397 158.832,246.209 159.840,246.766 161.040 C 247.267 162.118,248.087 163.450,248.589 164.000 C 252.390 168.163,252.253 187.515,248.398 191.001 C 247.912 191.440,247.153 192.509,246.711 193.375 C 245.407 195.929,244.556 196.444,240.000 197.434 C 238.350 197.792,236.829 198.246,236.620 198.443 C 236.411 198.639,232.245 198.800,227.361 198.800 L 218.483 198.800 217.241 197.386 L 216.000 195.972 216.000 176.835 C 216.000 156.566,216.092 155.485,217.896 154.434 C 219.026 153.776,235.954 153.877,237.850 154.553 M125.083 173.586 C 125.477 174.364,125.935 175.060,126.100 175.133 C 126.265 175.207,126.400 175.444,126.400 175.661 C 126.400 175.878,126.914 176.808,127.542 177.728 C 129.201 180.157,130.016 183.432,130.575 189.918 C 130.769 192.177,131.282 193.835,131.960 194.400 C 133.017 195.280,134.800 203.135,134.800 206.909 C 134.800 207.400,135.430 209.101,136.200 210.689 C 138.004 214.408,137.994 215.258,136.132 216.680 L 134.664 217.800 124.325 217.935 L 113.986 218.070 112.793 216.793 C 111.402 215.303,111.311 214.232,112.169 209.400 C 112.828 205.688,113.053 204.999,114.103 203.484 C 114.960 202.249,115.992 197.881,116.014 195.400 C 116.039 192.668,117.189 188.582,118.446 186.765 C 118.897 186.113,119.460 183.746,119.969 180.365 C 121.369 171.067,122.827 169.134,125.083 173.586 " stroke="none" fill="#fafbfc" fill-rule="evenodd"></path><path id="path1" d="M112.487 133.204 C 111.764 133.644,111.058 134.319,110.917 134.702 C 110.776 135.086,110.427 135.541,110.143 135.713 C 109.221 136.270,108.454 138.514,107.790 142.600 C 107.057 147.106,106.413 149.600,105.982 149.600 C 105.085 149.600,103.519 154.861,103.020 159.556 C 102.814 161.489,102.472 162.464,101.617 163.556 C 100.284 165.260,99.844 166.625,99.158 171.200 C 98.642 174.636,98.205 175.954,96.808 178.279 C 96.386 178.982,95.837 180.692,95.589 182.079 C 94.338 189.071,93.889 190.530,92.678 191.536 C 92.360 191.800,91.803 193.753,91.433 195.906 C 90.275 202.639,90.005 203.700,89.291 204.359 C 87.961 205.584,87.386 207.467,86.381 213.897 C 86.119 215.574,85.559 217.342,85.050 218.097 C 83.829 219.907,83.305 221.380,82.806 224.400 C 82.040 229.037,81.497 230.977,80.620 232.200 C 79.473 233.800,78.987 235.466,78.355 239.963 C 77.949 242.848,77.562 244.124,76.693 245.436 C 75.508 247.225,74.794 249.711,73.979 254.882 C 73.712 256.577,73.202 258.287,72.846 258.682 C 71.517 260.158,70.233 263.681,70.556 264.966 C 71.226 267.637,72.106 267.800,85.839 267.800 C 101.149 267.800,100.365 268.068,101.631 262.400 C 101.902 261.190,102.517 259.570,102.999 258.800 C 104.065 257.097,104.282 256.220,105.030 250.600 C 105.871 244.286,106.066 243.838,108.502 242.624 L 110.557 241.600 125.211 241.600 L 139.865 241.600 140.400 242.600 C 140.694 243.150,141.085 243.600,141.268 243.600 C 141.450 243.600,141.604 244.275,141.609 245.100 C 141.617 246.459,142.182 247.949,143.771 250.800 C 144.386 251.903,145.186 255.875,145.226 258.024 C 145.304 262.222,146.715 265.574,148.941 266.849 C 150.679 267.846,167.426 268.509,173.078 267.806 C 176.075 267.434,178.383 265.357,177.425 263.895 C 177.071 263.354,176.428 260.771,175.998 258.155 C 175.205 253.339,174.724 251.884,173.564 250.800 C 172.896 250.176,172.403 248.286,171.584 243.200 C 171.088 240.123,169.968 237.204,168.966 236.371 C 168.654 236.113,168.400 235.567,168.400 235.157 C 168.400 234.747,168.230 233.644,168.023 232.706 C 167.816 231.768,167.445 229.854,167.198 228.454 C 166.737 225.838,166.311 224.803,165.107 223.382 C 164.683 222.881,164.105 220.753,163.615 217.888 C 162.791 213.066,162.073 210.816,161.025 209.768 C 160.310 209.053,159.702 206.943,159.217 203.500 C 158.662 199.555,158.045 197.569,156.984 196.308 C 155.932 195.058,155.909 194.980,155.205 190.400 C 154.669 186.912,153.996 184.403,153.412 183.714 C 153.185 183.447,152.813 182.997,152.584 182.714 C 152.159 182.188,151.589 179.813,150.782 175.200 C 150.233 172.064,149.690 170.466,148.812 169.400 C 147.759 168.122,147.266 166.645,146.986 163.933 C 146.532 159.543,145.491 156.271,144.207 155.206 C 143.873 154.929,143.600 154.375,143.600 153.975 C 143.600 153.575,143.420 153.136,143.200 153.000 C 142.980 152.864,142.800 152.055,142.800 151.203 C 142.800 147.781,141.352 142.704,140.117 141.792 C 139.813 141.568,139.296 140.038,138.968 138.392 C 137.743 132.245,138.115 132.400,124.520 132.401 C 114.502 132.403,113.714 132.455,112.487 133.204 M192.365 132.913 C 190.773 134.136,190.800 132.959,190.802 200.274 L 190.804 265.400 191.764 266.600 L 192.724 267.800 204.153 267.800 L 215.582 267.800 216.691 266.691 L 217.800 265.583 218.000 244.091 C 218.110 232.271,218.329 222.402,218.487 222.159 C 218.680 221.863,222.752 221.640,230.887 221.479 C 243.203 221.236,244.495 221.078,246.866 219.524 C 247.433 219.153,249.328 218.502,251.077 218.077 C 254.721 217.193,257.013 216.200,257.714 215.204 C 257.981 214.824,259.241 214.037,260.513 213.456 C 261.785 212.875,262.937 212.084,263.072 211.700 C 263.392 210.795,264.828 209.200,265.324 209.200 C 265.884 209.200,267.600 207.252,267.600 206.615 C 267.600 206.317,268.392 205.318,269.359 204.395 C 271.032 202.801,271.430 201.947,272.164 198.382 C 272.280 197.823,273.014 196.543,273.797 195.538 C 276.754 191.742,276.943 163.298,274.036 159.631 C 272.953 158.266,272.220 156.618,271.658 154.287 C 271.384 153.151,270.669 151.802,269.898 150.965 C 269.184 150.189,268.301 149.013,267.936 148.351 C 266.879 146.434,265.851 145.200,265.311 145.200 C 265.036 145.200,264.326 144.466,263.732 143.570 C 263.080 142.583,261.917 141.566,260.789 140.994 C 259.764 140.475,258.618 139.581,258.243 139.009 C 257.474 137.836,256.049 137.109,252.700 136.181 C 251.435 135.830,250.400 135.396,250.400 135.216 C 250.400 134.559,246.922 133.299,243.884 132.855 C 239.349 132.193,193.236 132.244,192.365 132.913 M292.365 132.913 C 290.773 134.136,290.800 132.959,290.802 200.274 L 290.804 265.400 291.764 266.600 L 292.724 267.800 304.153 267.800 L 315.582 267.800 316.691 266.691 L 317.800 265.582 317.800 200.023 L 317.800 134.465 316.600 133.433 L 315.400 132.401 304.200 132.413 C 296.026 132.422,292.829 132.557,292.365 132.913 M133.400 133.593 C 136.144 134.036,137.595 135.348,137.598 137.389 C 137.600 138.559,139.138 144.010,139.576 144.400 C 140.348 145.086,141.438 148.489,141.819 151.400 C 142.138 153.837,142.864 156.130,144.018 158.344 C 144.837 159.916,145.417 161.715,145.841 164.000 C 146.596 168.064,147.080 169.747,148.200 172.200 C 148.904 173.740,149.699 176.170,149.966 177.600 C 150.748 181.770,151.294 183.708,152.095 185.152 C 153.124 187.008,153.804 189.258,154.406 192.800 C 154.697 194.513,155.570 197.203,156.440 199.071 C 157.279 200.869,158.078 203.299,158.218 204.471 C 158.469 206.589,159.948 212.018,160.376 212.400 C 161.077 213.024,161.730 215.015,162.800 219.800 C 163.646 223.581,164.527 226.400,164.863 226.400 C 165.048 226.400,165.200 226.672,165.200 227.005 C 165.200 227.338,165.358 227.923,165.551 228.305 C 166.136 229.463,166.800 231.805,166.800 232.709 C 166.800 234.063,167.836 237.562,169.138 240.600 C 169.798 242.140,170.544 244.480,170.797 245.800 C 171.603 250.013,172.000 251.346,173.178 253.800 C 174.594 256.752,175.050 258.309,175.403 261.400 C 175.554 262.720,175.849 264.009,176.058 264.265 C 176.321 264.585,176.018 265.051,175.082 265.765 L 173.724 266.800 162.657 266.800 C 154.544 266.800,151.351 266.667,150.699 266.300 C 149.455 265.602,148.001 263.920,148.000 263.180 C 148.000 262.839,147.836 262.389,147.637 262.180 C 147.437 261.971,146.972 260.180,146.605 258.200 C 146.237 256.220,145.751 253.610,145.525 252.400 C 145.094 250.089,144.646 248.592,143.791 246.600 C 143.508 245.940,142.984 244.690,142.626 243.822 C 142.268 242.953,141.522 241.648,140.967 240.922 L 139.959 239.600 125.130 239.600 L 110.301 239.600 108.026 240.851 C 105.446 242.270,105.117 242.848,104.416 247.200 C 103.835 250.808,102.780 255.248,102.373 255.800 C 101.731 256.670,100.400 261.418,100.400 262.835 C 100.400 263.869,100.077 264.723,99.364 265.569 L 98.329 266.800 87.264 266.794 C 71.930 266.786,70.940 266.448,73.083 261.950 C 74.312 259.371,74.955 257.041,75.444 253.400 C 75.592 252.300,76.381 249.960,77.198 248.200 C 78.030 246.408,78.908 243.680,79.194 242.000 C 79.726 238.871,80.621 235.712,81.175 235.010 C 81.750 234.282,83.080 229.877,83.594 227.000 C 83.869 225.460,84.677 222.850,85.389 221.200 C 86.100 219.550,86.895 217.210,87.153 216.000 C 87.412 214.790,87.833 212.810,88.089 211.600 C 88.345 210.390,88.966 208.652,89.469 207.737 C 90.754 205.403,91.497 202.994,91.796 200.200 C 92.074 197.600,92.093 197.542,93.923 193.400 C 94.603 191.860,95.347 189.700,95.575 188.600 C 96.606 183.642,97.312 181.000,97.811 180.231 C 98.576 179.052,99.444 176.292,100.165 172.751 C 100.898 169.152,101.005 168.810,102.209 166.200 C 103.199 164.057,103.678 162.399,104.404 158.600 C 104.980 155.588,105.594 153.682,106.400 152.400 C 107.271 151.016,107.905 148.963,108.191 146.600 C 108.528 143.815,109.121 141.804,110.454 138.925 C 111.084 137.564,111.600 136.272,111.600 136.054 C 111.600 135.836,112.271 135.105,113.091 134.429 L 114.582 133.200 122.791 133.202 C 127.306 133.204,132.080 133.379,133.400 133.593 M238.020 133.602 C 243.640 134.021,245.534 134.432,248.200 135.809 C 249.080 136.264,250.610 136.876,251.600 137.170 C 254.542 138.042,255.887 138.744,257.818 140.416 C 258.825 141.287,259.824 142.000,260.038 142.000 C 260.697 142.000,265.872 147.512,266.967 149.380 C 267.535 150.350,268.228 151.381,268.505 151.672 C 269.531 152.745,270.298 154.269,271.159 156.950 C 271.645 158.462,272.411 160.532,272.861 161.550 C 274.189 164.550,274.282 164.865,274.752 167.907 C 275.377 171.960,275.307 183.924,274.638 187.600 C 274.011 191.037,273.919 191.323,272.355 194.675 C 271.720 196.036,271.200 197.426,271.200 197.763 C 271.200 198.856,269.270 202.565,268.019 203.878 C 267.348 204.581,266.800 205.333,266.800 205.548 C 266.800 206.481,261.043 211.628,258.407 213.052 C 256.863 213.886,255.600 214.680,255.600 214.816 C 255.600 215.230,251.935 216.683,249.600 217.193 C 247.009 217.760,244.764 218.451,244.190 218.857 C 243.160 219.588,233.751 220.400,226.311 220.400 L 218.388 220.400 217.596 221.700 C 216.832 222.952,216.803 223.770,216.801 243.974 L 216.800 264.948 215.930 265.874 C 215.062 266.798,215.037 266.800,204.159 266.800 L 193.258 266.800 192.429 265.746 L 191.600 264.692 191.600 200.177 L 191.600 135.661 192.636 134.431 L 193.671 133.200 213.156 133.200 C 223.872 133.200,235.061 133.381,238.020 133.602 M315.700 134.147 L 316.800 135.093 316.800 200.021 L 316.800 264.948 315.930 265.874 C 315.062 266.798,315.037 266.800,304.159 266.800 L 293.258 266.800 292.429 265.746 L 291.600 264.692 291.600 200.177 L 291.600 135.661 292.636 134.431 L 293.671 133.200 304.136 133.200 C 314.561 133.201,314.604 133.204,315.700 134.147 M218.335 156.466 C 216.887 158.711,216.800 159.884,216.800 177.086 C 216.800 198.995,215.546 196.803,228.071 196.790 C 242.322 196.775,243.066 196.491,247.398 189.400 C 249.677 185.671,249.762 185.231,249.740 177.290 L 249.719 169.933 247.159 164.908 C 245.752 162.145,244.330 159.733,244.000 159.548 C 243.670 159.363,242.410 158.779,241.200 158.249 C 235.566 155.783,235.895 155.843,227.168 155.683 L 218.937 155.532 218.335 156.466 M237.427 158.435 C 241.935 159.260,246.000 162.966,246.000 166.251 C 246.000 166.491,246.411 167.298,246.913 168.044 C 249.484 171.862,249.510 184.007,246.952 186.765 C 246.428 187.330,245.999 188.064,245.999 188.396 C 245.997 189.185,244.584 191.509,243.254 192.911 C 241.198 195.077,240.432 195.200,228.959 195.200 L 218.415 195.200 218.190 194.300 C 217.843 192.909,218.158 159.065,218.524 158.500 C 218.941 157.855,233.976 157.803,237.427 158.435 M122.226 176.572 C 121.855 177.754,121.399 179.774,121.214 181.060 C 120.652 184.968,119.571 189.204,118.556 191.475 C 118.243 192.176,117.707 194.246,117.365 196.075 C 116.073 202.978,115.420 205.623,114.765 206.600 C 114.617 206.820,114.223 207.990,113.888 209.200 C 111.794 216.771,111.830 216.800,123.280 216.800 C 131.327 216.800,132.149 216.734,133.804 215.956 C 135.889 214.976,135.804 215.262,134.853 212.427 C 134.442 211.202,133.897 208.940,133.641 207.400 C 132.793 202.295,132.310 200.217,131.599 198.600 C 130.732 196.632,129.818 193.106,129.215 189.400 C 128.554 185.339,127.960 183.186,127.065 181.600 C 125.543 178.905,125.205 178.196,125.202 177.700 C 125.201 177.425,125.020 177.200,124.800 177.200 C 124.580 177.200,124.400 177.003,124.400 176.763 C 124.400 176.523,124.063 175.898,123.651 175.374 L 122.902 174.422 122.226 176.572 M125.395 182.769 C 125.561 183.302,126.009 184.072,126.389 184.480 C 127.318 185.477,127.847 187.455,128.401 192.000 C 128.939 196.407,129.432 198.523,130.312 200.200 C 131.789 203.016,132.400 204.963,132.400 206.855 C 132.400 208.104,132.884 211.454,133.415 213.887 C 133.790 215.603,132.049 216.003,124.320 215.977 C 120.514 215.964,116.680 215.822,115.800 215.661 L 114.200 215.368 114.284 213.324 C 114.343 211.862,114.694 210.765,115.513 209.472 C 116.665 207.656,117.073 205.910,118.006 198.800 C 118.302 196.551,118.758 194.926,119.354 194.000 C 120.717 191.883,121.971 186.851,121.993 183.412 C 121.997 182.758,122.218 181.287,122.484 180.143 L 122.967 178.062 124.029 179.931 C 124.613 180.959,125.228 182.236,125.395 182.769 " stroke="none" fill="#84c4fa" fill-rule="evenodd"></path><path id="path2" d="M364.400 69.990 C 364.400 70.215,364.639 70.400,364.930 70.400 C 365.482 70.400,366.423 71.231,367.419 72.600 L 368.002 73.400 367.739 72.600 C 367.252 71.119,364.400 68.889,364.400 69.990 M364.533 72.520 C 364.533 72.806,364.865 73.065,365.271 73.095 C 365.912 73.144,365.933 73.076,365.433 72.575 C 364.722 71.865,364.533 71.853,364.533 72.520 M369.180 74.575 C 369.451 74.902,370.016 75.278,370.436 75.411 C 370.856 75.545,371.200 75.901,371.200 76.203 C 371.200 76.506,371.380 76.864,371.600 77.000 C 372.342 77.458,372.007 76.449,371.100 75.491 C 370.053 74.385,368.346 73.572,369.180 74.575 M29.229 75.454 C 28.773 76.034,28.405 76.709,28.412 76.954 C 28.419 77.199,28.622 77.040,28.864 76.600 C 29.106 76.160,29.686 75.489,30.152 75.109 C 30.618 74.729,30.788 74.414,30.529 74.409 C 30.270 74.404,29.685 74.874,29.229 75.454 M109.342 131.877 C 107.393 132.258,106.427 135.469,106.408 141.626 C 106.400 144.234,106.390 144.257,104.991 144.924 C 103.136 145.808,102.910 146.540,102.573 152.750 C 102.373 156.423,102.142 158.000,101.805 158.000 C 101.057 158.000,99.600 159.419,99.600 160.147 C 99.600 160.506,99.440 160.800,99.245 160.800 C 98.734 160.800,98.338 163.184,98.051 167.993 C 97.802 172.148,97.789 172.194,96.543 172.993 C 94.609 174.235,94.442 174.765,94.150 180.576 C 93.888 185.810,93.848 186.000,93.001 186.000 C 90.955 186.000,90.005 188.745,90.002 194.673 C 90.000 198.308,89.919 198.772,89.248 198.985 C 86.943 199.716,86.095 201.857,85.745 207.826 C 85.492 212.151,85.473 212.216,84.093 213.600 C 81.942 215.757,81.600 216.965,81.600 222.400 C 81.600 226.649,81.516 227.250,80.900 227.434 C 78.006 228.300,77.743 228.935,77.280 236.195 C 77.031 240.099,76.914 240.607,76.228 240.739 C 74.273 241.113,73.695 242.721,73.356 248.721 C 73.095 253.329,73.061 253.465,71.998 254.075 C 70.014 255.214,69.477 256.879,69.315 262.400 C 69.113 269.287,67.367 268.579,84.901 268.722 C 102.059 268.862,102.000 268.871,102.000 266.242 C 102.000 264.587,102.084 264.445,103.214 264.197 C 105.418 263.713,106.400 259.886,106.400 251.785 L 106.400 248.097 107.616 247.593 C 109.055 246.997,110.000 245.776,110.000 244.511 L 110.000 243.600 125.000 243.600 L 140.000 243.600 140.006 247.100 C 140.015 252.252,141.345 255.600,143.383 255.600 C 143.742 255.600,143.942 257.188,144.113 261.403 C 144.438 269.437,142.298 268.600,162.507 268.600 L 179.271 268.600 180.035 267.656 C 181.281 266.117,180.947 260.800,179.604 260.800 C 178.109 260.800,177.326 258.870,177.069 254.546 C 176.699 248.316,175.544 245.200,173.604 245.200 C 172.933 245.200,172.853 244.749,172.733 240.300 C 172.583 234.763,172.106 233.311,170.157 232.452 L 168.915 231.905 168.642 226.737 C 168.314 220.524,168.006 219.674,165.970 219.349 L 164.473 219.109 164.337 213.409 L 164.200 207.708 162.357 205.954 L 160.515 204.200 160.242 199.511 C 159.933 194.203,159.303 192.249,157.585 191.271 C 156.496 190.652,156.405 190.424,156.403 188.329 C 156.395 181.799,155.118 178.000,152.930 178.000 C 152.007 178.000,152.000 177.962,151.999 173.100 C 151.999 167.299,151.441 165.648,149.300 165.106 L 148.000 164.777 147.992 161.689 C 147.979 156.640,147.341 153.232,146.193 152.084 C 145.647 151.538,145.200 150.948,145.200 150.772 C 145.200 150.597,144.840 150.340,144.400 150.200 C 143.666 149.967,143.600 149.592,143.594 145.673 C 143.586 140.219,142.547 137.118,140.601 136.743 C 139.979 136.623,139.743 136.126,139.496 134.414 C 139.324 133.216,138.962 132.096,138.692 131.925 C 138.196 131.609,110.935 131.565,109.342 131.877 M190.480 132.080 C 190.110 132.450,190.000 148.144,190.000 200.290 L 190.000 268.020 191.067 268.425 C 192.351 268.913,217.769 268.765,218.267 268.267 C 218.450 268.084,218.649 257.785,218.710 245.381 L 218.819 222.827 233.910 222.714 C 250.609 222.588,251.069 222.522,251.768 220.154 C 252.133 218.916,252.157 218.906,255.536 218.646 C 259.452 218.345,259.841 218.122,260.204 215.977 C 260.467 214.418,260.490 214.400,262.248 214.400 C 263.459 214.400,264.098 214.209,264.255 213.800 C 264.382 213.470,264.732 213.200,265.033 213.200 C 266.063 213.200,268.800 209.250,268.800 207.764 C 268.800 206.515,268.901 206.400,270.000 206.400 C 271.768 206.400,272.800 205.162,272.800 203.040 C 272.800 201.452,272.937 201.198,274.200 200.453 C 275.039 199.958,275.600 199.314,275.600 198.847 C 275.600 198.418,275.782 198.006,276.005 197.932 C 276.888 197.637,277.195 192.326,277.198 177.355 C 277.200 158.548,276.827 156.094,273.700 154.363 C 272.944 153.944,272.800 153.528,272.800 151.761 C 272.800 149.428,271.640 148.000,269.746 148.000 C 268.953 148.000,268.800 147.798,268.800 146.752 C 268.800 145.314,266.940 142.140,265.886 141.781 C 265.494 141.647,264.864 141.206,264.486 140.801 C 264.109 140.396,263.188 140.005,262.440 139.933 C 261.045 139.796,260.753 139.476,260.138 137.400 C 259.816 136.313,259.569 136.168,257.516 135.858 C 255.544 135.561,255.199 135.374,254.868 134.423 C 253.869 131.559,254.365 131.600,220.884 131.600 C 198.143 131.600,190.845 131.715,190.480 132.080 M290.480 132.080 C 290.110 132.450,290.000 148.144,290.000 200.290 L 290.000 268.020 291.067 268.425 C 292.351 268.914,317.769 268.765,318.267 268.267 C 318.756 267.777,318.900 133.916,318.413 132.635 L 318.020 131.600 304.490 131.600 C 294.500 131.600,290.834 131.726,290.480 132.080 M136.334 132.966 C 137.739 133.693,138.235 134.713,138.968 138.392 C 139.296 140.038,139.813 141.568,140.117 141.792 C 141.352 142.704,142.800 147.781,142.800 151.203 C 142.800 152.055,142.980 152.864,143.200 153.000 C 143.420 153.136,143.600 153.575,143.600 153.975 C 143.600 154.375,143.873 154.929,144.207 155.206 C 145.491 156.271,146.532 159.543,146.986 163.933 C 147.266 166.645,147.759 168.122,148.812 169.400 C 149.690 170.466,150.233 172.064,150.782 175.200 C 151.589 179.813,152.159 182.188,152.584 182.714 C 152.813 182.997,153.185 183.447,153.412 183.714 C 153.996 184.403,154.669 186.912,155.205 190.400 C 155.909 194.980,155.932 195.058,156.984 196.308 C 158.045 197.569,158.662 199.555,159.217 203.500 C 159.702 206.943,160.310 209.053,161.025 209.768 C 162.073 210.816,162.791 213.066,163.615 217.888 C 164.105 220.753,164.683 222.881,165.107 223.382 C 166.311 224.803,166.737 225.838,167.198 228.454 C 167.445 229.854,167.816 231.768,168.023 232.706 C 168.230 233.644,168.400 234.747,168.400 235.157 C 168.400 235.567,168.654 236.113,168.966 236.371 C 169.968 237.204,171.088 240.123,171.584 243.200 C 172.403 248.286,172.896 250.176,173.564 250.800 C 174.724 251.884,175.205 253.339,175.998 258.155 C 176.428 260.771,177.071 263.354,177.425 263.895 C 178.383 265.357,176.075 267.434,173.078 267.806 C 167.426 268.509,150.679 267.846,148.941 266.849 C 146.715 265.574,145.304 262.222,145.226 258.024 C 145.186 255.875,144.386 251.903,143.771 250.800 C 142.182 247.949,141.617 246.459,141.609 245.100 C 141.604 244.275,141.450 243.600,141.268 243.600 C 141.085 243.600,140.694 243.150,140.400 242.600 L 139.865 241.600 125.211 241.600 L 110.557 241.600 108.502 242.624 C 106.066 243.838,105.871 244.286,105.030 250.600 C 104.282 256.220,104.065 257.097,102.999 258.800 C 102.517 259.570,101.902 261.190,101.631 262.400 C 100.365 268.068,101.149 267.800,85.839 267.800 C 72.106 267.800,71.226 267.637,70.556 264.966 C 70.233 263.681,71.517 260.158,72.846 258.682 C 73.202 258.287,73.712 256.577,73.979 254.882 C 74.794 249.711,75.508 247.225,76.693 245.436 C 77.562 244.124,77.949 242.848,78.355 239.963 C 78.987 235.466,79.473 233.800,80.620 232.200 C 81.497 230.977,82.040 229.037,82.806 224.400 C 83.305 221.380,83.829 219.907,85.050 218.097 C 85.559 217.342,86.119 215.574,86.381 213.897 C 87.386 207.467,87.961 205.584,89.291 204.359 C 90.005 203.700,90.275 202.639,91.433 195.906 C 91.803 193.753,92.360 191.800,92.678 191.536 C 93.889 190.530,94.338 189.071,95.589 182.079 C 95.837 180.692,96.386 178.982,96.808 178.279 C 98.205 175.954,98.642 174.636,99.158 171.200 C 99.844 166.625,100.284 165.260,101.617 163.556 C 102.472 162.464,102.814 161.489,103.020 159.556 C 103.519 154.861,105.085 149.600,105.982 149.600 C 106.413 149.600,107.057 147.106,107.790 142.600 C 108.454 138.514,109.221 136.270,110.143 135.713 C 110.427 135.541,110.776 135.086,110.917 134.702 C 111.745 132.447,132.579 131.024,136.334 132.966 M243.884 132.855 C 246.922 133.299,250.400 134.559,250.400 135.216 C 250.400 135.396,251.435 135.830,252.700 136.181 C 256.049 137.109,257.474 137.836,258.243 139.009 C 258.618 139.581,259.764 140.475,260.789 140.994 C 261.917 141.566,263.080 142.583,263.732 143.570 C 264.326 144.466,265.036 145.200,265.311 145.200 C 265.851 145.200,266.879 146.434,267.936 148.351 C 268.301 149.013,269.184 150.189,269.898 150.965 C 270.669 151.802,271.384 153.151,271.658 154.287 C 272.220 156.618,272.953 158.266,274.036 159.631 C 275.385 161.333,275.641 163.333,275.874 174.000 C 276.184 188.204,275.714 193.077,273.797 195.538 C 273.014 196.543,272.280 197.823,272.164 198.382 C 271.430 201.947,271.032 202.801,269.359 204.395 C 268.392 205.318,267.600 206.317,267.600 206.615 C 267.600 207.252,265.884 209.200,265.324 209.200 C 264.828 209.200,263.392 210.795,263.072 211.700 C 262.937 212.084,261.785 212.875,260.513 213.456 C 259.241 214.037,257.981 214.824,257.714 215.204 C 257.013 216.200,254.721 217.193,251.077 218.077 C 249.328 218.502,247.433 219.153,246.866 219.524 C 244.495 221.078,243.203 221.236,230.887 221.479 C 222.752 221.640,218.680 221.863,218.487 222.159 C 218.329 222.402,218.110 232.271,218.000 244.091 L 217.800 265.583 216.691 266.691 L 215.582 267.800 204.153 267.800 L 192.724 267.800 191.764 266.600 L 190.804 265.400 190.802 200.274 C 190.800 132.959,190.773 134.136,192.365 132.913 C 193.236 132.244,239.349 132.193,243.884 132.855 M316.600 133.433 L 317.800 134.465 317.800 200.023 L 317.800 265.582 316.691 266.691 L 315.582 267.800 304.153 267.800 L 292.724 267.800 291.764 266.600 L 290.804 265.400 290.802 200.274 C 290.800 151.524,290.917 134.928,291.265 134.274 C 292.234 132.456,292.440 132.426,304.200 132.413 L 315.400 132.401 316.600 133.433 M218.524 158.500 C 218.158 159.065,217.843 192.909,218.190 194.300 L 218.415 195.200 228.959 195.200 C 240.432 195.200,241.198 195.077,243.254 192.911 C 244.584 191.509,245.997 189.185,245.999 188.396 C 245.999 188.064,246.428 187.330,246.952 186.765 C 249.510 184.007,249.484 171.862,246.913 168.044 C 246.411 167.298,246.000 166.491,246.000 166.251 C 246.000 162.966,241.935 159.260,237.427 158.435 C 233.976 157.803,218.941 157.855,218.524 158.500 M236.700 160.262 C 239.141 160.452,240.000 160.664,240.000 161.079 C 240.000 162.460,241.225 163.969,242.549 164.217 C 244.005 164.490,244.387 165.755,244.397 170.323 C 244.401 172.746,245.147 175.428,246.041 176.237 C 246.825 176.946,247.068 178.000,246.449 178.000 C 245.795 178.000,244.400 182.544,244.400 184.673 C 244.400 188.421,243.963 190.000,242.927 190.000 C 241.663 190.000,240.000 191.694,240.000 192.982 L 240.000 194.000 229.400 194.000 L 218.800 194.000 218.800 177.000 L 218.800 160.000 226.100 160.002 C 230.115 160.004,234.885 160.120,236.700 160.262 M122.484 180.143 C 122.218 181.287,121.997 182.758,121.993 183.412 C 121.971 186.851,120.717 191.883,119.354 194.000 C 118.758 194.926,118.302 196.551,118.006 198.800 C 117.073 205.910,116.665 207.656,115.513 209.472 C 114.694 210.765,114.343 211.862,114.284 213.324 L 114.200 215.368 115.800 215.661 C 116.680 215.822,120.514 215.964,124.320 215.977 C 132.049 216.003,133.790 215.603,133.415 213.887 C 132.884 211.454,132.400 208.104,132.400 206.855 C 132.400 204.963,131.789 203.016,130.312 200.200 C 129.432 198.523,128.939 196.407,128.401 192.000 C 127.847 187.455,127.318 185.477,126.389 184.480 C 126.009 184.072,125.561 183.302,125.395 182.769 C 125.228 182.236,124.613 180.959,124.029 179.931 L 122.967 178.062 122.484 180.143 M123.594 186.318 C 123.601 187.838,125.098 189.600,126.382 189.600 C 127.150 189.600,127.200 189.838,127.200 193.510 C 127.200 201.903,127.997 205.149,130.259 205.967 L 131.600 206.452 131.600 210.626 L 131.600 214.800 123.700 214.754 C 119.355 214.728,116.101 214.628,116.469 214.530 C 117.996 214.126,118.379 212.658,118.658 206.124 L 118.928 199.800 120.442 198.400 C 122.553 196.449,122.799 195.498,122.806 189.274 C 122.810 185.592,122.939 183.996,123.200 184.400 C 123.413 184.730,123.591 185.593,123.594 186.318 M28.596 323.993 C 29.193 325.147,31.600 326.798,31.600 326.054 C 31.600 325.852,31.165 325.578,30.634 325.444 C 30.081 325.305,29.441 324.689,29.136 324.001 C 28.844 323.340,28.464 322.800,28.292 322.800 C 28.120 322.800,28.257 323.337,28.596 323.993 M371.271 323.804 C 371.018 324.358,370.359 325.018,369.806 325.270 C 369.253 325.522,368.800 325.871,368.800 326.046 C 368.800 326.220,369.333 326.057,369.985 325.683 C 371.153 325.012,372.327 323.394,371.932 322.999 C 371.821 322.888,371.523 323.250,371.271 323.804 M32.400 327.358 C 32.400 328.611,34.857 330.877,35.509 330.224 C 35.622 330.111,35.374 329.890,34.957 329.732 C 34.022 329.377,33.200 328.592,33.200 328.052 C 33.200 327.829,33.020 327.536,32.800 327.400 C 32.580 327.264,32.400 327.245,32.400 327.358 M366.857 328.294 C 366.595 328.784,365.889 329.451,365.290 329.776 C 364.690 330.102,364.470 330.375,364.800 330.383 C 365.658 330.406,367.712 328.537,367.507 327.920 C 367.394 327.582,367.169 327.711,366.857 328.294 " stroke="none" fill="#2a9cf4" fill-rule="evenodd"></path><path id="path3" d="M40.700 65.077 C 40.156 65.218,40.000 65.686,40.000 67.171 L 40.000 69.084 37.160 69.322 C 33.861 69.599,32.575 70.291,32.201 71.993 C 32.021 72.816,31.521 73.423,30.667 73.855 C 28.763 74.819,28.000 75.622,28.000 76.662 C 28.000 77.178,27.820 77.600,27.600 77.600 C 27.380 77.600,27.200 78.500,27.200 79.600 L 27.200 81.600 25.447 81.600 C 23.966 81.600,23.656 81.740,23.453 82.500 C 23.047 84.018,23.177 317.341,23.584 317.986 C 23.908 318.499,24.374 318.616,26.700 318.768 C 27.029 318.789,27.200 319.484,27.200 320.800 C 27.200 322.441,27.326 322.800,27.902 322.800 C 28.298 322.800,28.837 323.324,29.136 324.001 C 29.435 324.676,30.081 325.305,30.611 325.439 C 31.169 325.579,31.608 326.027,31.687 326.538 C 31.759 327.012,32.045 327.353,32.321 327.296 C 32.597 327.239,32.942 327.509,33.089 327.896 C 33.429 328.796,34.011 329.373,34.925 329.720 C 35.324 329.871,35.550 330.157,35.428 330.355 C 35.108 330.873,36.193 331.200,38.233 331.200 L 40.000 331.200 40.000 333.024 C 40.000 334.137,40.156 334.751,40.400 334.600 C 40.620 334.464,40.800 334.554,40.800 334.800 C 40.800 335.046,40.980 335.136,41.200 335.000 C 41.420 334.864,41.600 334.943,41.600 335.176 C 41.600 335.473,88.962 335.599,200.200 335.597 C 311.087 335.596,358.800 335.469,358.800 335.174 C 358.800 334.943,358.953 334.847,359.140 334.963 C 359.506 335.189,360.499 333.599,360.379 332.978 C 360.093 331.504,360.420 331.200,362.300 331.194 C 364.050 331.188,366.381 330.442,364.800 330.394 C 364.380 330.381,364.440 330.246,365.000 329.945 C 365.440 329.708,366.204 329.039,366.698 328.457 C 367.418 327.610,367.596 327.539,367.598 328.100 C 367.599 328.485,367.420 328.800,367.200 328.800 C 366.980 328.800,366.800 328.980,366.800 329.200 C 366.800 329.420,366.945 329.600,367.123 329.600 C 367.470 329.600,368.800 326.819,368.800 326.093 C 368.800 325.851,369.172 325.536,369.628 325.391 C 370.083 325.247,370.802 324.560,371.226 323.864 C 371.650 323.169,372.000 322.870,372.005 323.200 C 372.011 323.733,372.055 323.733,372.400 323.200 C 372.613 322.870,372.791 321.768,372.794 320.752 L 372.800 318.904 374.649 318.696 C 375.667 318.581,376.654 318.243,376.844 317.944 C 377.357 317.135,377.297 83.329,376.783 82.369 C 376.472 81.787,375.938 81.600,374.586 81.600 L 372.800 81.600 372.800 79.833 C 372.800 77.763,372.472 76.708,371.931 77.043 C 371.719 77.173,371.458 76.945,371.351 76.535 C 371.244 76.125,370.602 75.471,369.924 75.082 C 369.246 74.693,368.804 74.262,368.942 74.124 C 369.295 73.772,368.386 72.761,367.956 73.027 C 367.762 73.147,367.395 72.788,367.140 72.229 C 366.886 71.670,366.165 70.986,365.539 70.709 C 364.912 70.432,364.400 69.979,364.400 69.702 C 364.400 69.366,363.738 69.200,362.400 69.200 C 360.774 69.200,360.394 69.069,360.368 68.500 C 360.258 66.143,360.110 65.514,359.586 65.183 C 359.002 64.814,42.117 64.708,40.700 65.077 M365.914 70.404 C 366.636 70.845,367.390 71.609,367.588 72.103 C 367.877 72.819,367.954 72.855,367.975 72.282 C 368.007 71.364,366.258 69.600,365.318 69.601 C 364.824 69.603,365.011 69.853,365.914 70.404 M365.433 72.575 C 365.933 73.076,365.912 73.144,365.271 73.095 C 364.865 73.065,364.533 72.806,364.533 72.520 C 364.533 71.853,364.722 71.865,365.433 72.575 M369.600 74.292 C 369.930 74.419,370.605 74.954,371.100 75.481 C 371.595 76.009,372.000 76.228,372.000 75.968 C 372.000 75.301,370.405 73.994,369.639 74.032 C 369.096 74.058,369.090 74.097,369.600 74.292 M30.152 75.109 C 29.686 75.489,29.106 76.160,28.864 76.600 C 28.622 77.040,28.419 77.199,28.412 76.954 C 28.394 76.303,29.978 74.398,30.529 74.409 C 30.788 74.414,30.618 74.729,30.152 75.109 M138.692 131.925 C 138.962 132.096,139.324 133.216,139.496 134.414 C 139.743 136.126,139.979 136.623,140.601 136.743 C 142.547 137.118,143.586 140.219,143.594 145.673 C 143.600 149.592,143.666 149.967,144.400 150.200 C 144.840 150.340,145.200 150.597,145.200 150.772 C 145.200 150.948,145.647 151.538,146.193 152.084 C 147.341 153.232,147.979 156.640,147.992 161.689 L 148.000 164.777 149.300 165.106 C 151.441 165.648,151.999 167.299,151.999 173.100 C 152.000 177.962,152.007 178.000,152.930 178.000 C 155.118 178.000,156.395 181.799,156.403 188.329 C 156.405 190.424,156.496 190.652,157.585 191.271 C 159.303 192.249,159.933 194.203,160.242 199.511 L 160.515 204.200 162.357 205.954 L 164.200 207.708 164.337 213.409 L 164.473 219.109 165.970 219.349 C 168.006 219.674,168.314 220.524,168.642 226.737 L 168.915 231.905 170.157 232.452 C 172.106 233.311,172.583 234.763,172.733 240.300 C 172.853 244.749,172.933 245.200,173.604 245.200 C 175.544 245.200,176.699 248.316,177.069 254.546 C 177.326 258.870,178.109 260.800,179.604 260.800 C 180.947 260.800,181.281 266.117,180.035 267.656 L 179.271 268.600 162.507 268.600 C 142.298 268.600,144.438 269.437,144.113 261.403 C 143.942 257.188,143.742 255.600,143.383 255.600 C 141.345 255.600,140.015 252.252,140.006 247.100 L 140.000 243.600 125.000 243.600 L 110.000 243.600 110.000 244.511 C 110.000 245.776,109.055 246.997,107.616 247.593 L 106.400 248.097 106.400 251.785 C 106.400 259.886,105.418 263.713,103.214 264.197 C 102.084 264.445,102.000 264.587,102.000 266.242 C 102.000 268.871,102.059 268.862,84.901 268.722 C 67.367 268.579,69.113 269.287,69.315 262.400 C 69.477 256.879,70.014 255.214,71.998 254.075 C 73.061 253.465,73.095 253.329,73.356 248.721 C 73.695 242.721,74.273 241.113,76.228 240.739 C 76.914 240.607,77.031 240.099,77.280 236.195 C 77.743 228.935,78.006 228.300,80.900 227.434 C 81.516 227.250,81.600 226.649,81.600 222.400 C 81.600 216.965,81.942 215.757,84.093 213.600 C 85.473 212.216,85.492 212.151,85.745 207.826 C 86.095 201.857,86.943 199.716,89.248 198.985 C 89.919 198.772,90.000 198.308,90.002 194.673 C 90.005 188.745,90.955 186.000,93.001 186.000 C 93.848 186.000,93.888 185.810,94.150 180.576 C 94.442 174.765,94.609 174.235,96.543 172.993 C 97.789 172.194,97.802 172.148,98.051 167.993 C 98.338 163.184,98.734 160.800,99.245 160.800 C 99.440 160.800,99.600 160.506,99.600 160.147 C 99.600 159.419,101.057 158.000,101.805 158.000 C 102.142 158.000,102.373 156.423,102.573 152.750 C 102.910 146.540,103.136 145.808,104.991 144.924 C 106.390 144.257,106.400 144.234,106.408 141.626 C 106.427 135.469,107.393 132.258,109.342 131.877 C 110.935 131.565,138.196 131.609,138.692 131.925 M252.648 132.464 C 253.881 133.044,254.612 133.689,254.868 134.423 C 255.199 135.374,255.544 135.561,257.516 135.858 C 259.569 136.168,259.816 136.313,260.138 137.400 C 260.753 139.476,261.045 139.796,262.440 139.933 C 263.188 140.005,264.109 140.396,264.486 140.801 C 264.864 141.206,265.494 141.647,265.886 141.781 C 266.940 142.140,268.800 145.314,268.800 146.752 C 268.800 147.798,268.953 148.000,269.746 148.000 C 271.640 148.000,272.800 149.428,272.800 151.761 C 272.800 153.528,272.944 153.944,273.700 154.363 C 276.827 156.094,277.200 158.548,277.198 177.355 C 277.195 192.326,276.888 197.637,276.005 197.932 C 275.782 198.006,275.600 198.418,275.600 198.847 C 275.600 199.314,275.039 199.958,274.200 200.453 C 272.937 201.198,272.800 201.452,272.800 203.040 C 272.800 205.162,271.768 206.400,270.000 206.400 C 268.901 206.400,268.800 206.515,268.800 207.764 C 268.800 209.250,266.063 213.200,265.033 213.200 C 264.732 213.200,264.382 213.470,264.255 213.800 C 264.098 214.209,263.459 214.400,262.248 214.400 C 260.490 214.400,260.467 214.418,260.204 215.977 C 259.841 218.122,259.452 218.345,255.536 218.646 C 252.157 218.906,252.133 218.916,251.768 220.154 C 251.069 222.522,250.609 222.588,233.910 222.714 L 218.819 222.827 218.710 245.381 C 218.649 257.785,218.450 268.084,218.267 268.267 C 217.769 268.765,192.351 268.913,191.067 268.425 L 190.000 268.020 190.000 200.290 C 190.000 148.144,190.110 132.450,190.480 132.080 C 191.497 131.063,250.441 131.427,252.648 132.464 M318.413 132.635 C 318.900 133.916,318.756 267.777,318.267 268.267 C 317.769 268.765,292.351 268.914,291.067 268.425 L 290.000 268.020 290.000 200.290 C 290.000 148.144,290.110 132.450,290.480 132.080 C 290.834 131.726,294.500 131.600,304.490 131.600 L 318.020 131.600 318.413 132.635 M218.800 177.000 L 218.800 194.000 229.400 194.000 L 240.000 194.000 240.000 192.982 C 240.000 191.694,241.663 190.000,242.927 190.000 C 243.963 190.000,244.400 188.421,244.400 184.673 C 244.400 182.544,245.795 178.000,246.449 178.000 C 247.068 178.000,246.825 176.946,246.041 176.237 C 245.147 175.428,244.401 172.746,244.397 170.323 C 244.387 165.755,244.005 164.490,242.549 164.217 C 241.225 163.969,240.000 162.460,240.000 161.079 C 240.000 160.339,235.691 160.006,226.100 160.002 L 218.800 160.000 218.800 177.000 M122.806 189.274 C 122.799 195.498,122.553 196.449,120.442 198.400 L 118.928 199.800 118.658 206.124 C 118.379 212.658,117.996 214.126,116.469 214.530 C 116.101 214.628,119.355 214.728,123.700 214.754 L 131.600 214.800 131.600 210.626 L 131.600 206.452 130.259 205.967 C 127.997 205.149,127.200 201.903,127.200 193.510 C 127.200 189.838,127.150 189.600,126.382 189.600 C 125.098 189.600,123.601 187.838,123.594 186.318 C 123.591 185.593,123.413 184.730,123.200 184.400 C 122.939 183.996,122.810 185.592,122.806 189.274 M28.016 323.719 C 27.997 324.590,29.866 326.406,30.758 326.384 C 31.158 326.374,30.989 326.145,30.308 325.776 C 29.708 325.450,28.950 324.692,28.624 324.092 C 28.184 323.280,28.028 323.184,28.016 323.719 M371.158 324.691 C 370.808 325.081,370.180 325.614,369.761 325.876 C 369.194 326.232,369.153 326.356,369.600 326.363 C 370.391 326.377,372.110 324.929,371.933 324.398 C 371.856 324.169,371.508 324.301,371.158 324.691 M32.427 328.438 C 32.394 329.207,33.641 330.411,34.431 330.373 C 34.762 330.357,34.641 330.172,34.142 329.931 C 33.671 329.702,33.098 329.129,32.869 328.658 C 32.570 328.040,32.447 327.978,32.427 328.438 " stroke="none" fill="#2494f4" fill-rule="evenodd"></path><path id="path4" d="M113.091 134.429 C 112.271 135.105,111.600 135.836,111.600 136.054 C 111.600 136.272,111.084 137.564,110.454 138.925 C 109.121 141.804,108.528 143.815,108.191 146.600 C 107.905 148.963,107.271 151.016,106.400 152.400 C 105.594 153.682,104.980 155.588,104.404 158.600 C 103.678 162.399,103.199 164.057,102.209 166.200 C 101.005 168.810,100.898 169.152,100.165 172.751 C 99.444 176.292,98.576 179.052,97.811 180.231 C 97.312 181.000,96.606 183.642,95.575 188.600 C 95.347 189.700,94.603 191.860,93.923 193.400 C 92.093 197.542,92.074 197.600,91.796 200.200 C 91.497 202.994,90.754 205.403,89.469 207.737 C 88.966 208.652,88.345 210.390,88.089 211.600 C 87.833 212.810,87.412 214.790,87.153 216.000 C 86.895 217.210,86.100 219.550,85.389 221.200 C 84.677 222.850,83.869 225.460,83.594 227.000 C 83.080 229.877,81.750 234.282,81.175 235.010 C 80.621 235.712,79.726 238.871,79.194 242.000 C 78.908 243.680,78.030 246.408,77.198 248.200 C 76.381 249.960,75.592 252.300,75.444 253.400 C 74.955 257.041,74.312 259.371,73.083 261.950 C 70.940 266.448,71.930 266.786,87.264 266.794 L 98.329 266.800 99.364 265.569 C 100.077 264.723,100.400 263.869,100.400 262.835 C 100.400 261.418,101.731 256.670,102.373 255.800 C 102.780 255.248,103.835 250.808,104.416 247.200 C 105.117 242.848,105.446 242.270,108.026 240.851 L 110.301 239.600 125.130 239.600 L 139.959 239.600 140.967 240.922 C 141.522 241.648,142.268 242.953,142.626 243.822 C 142.984 244.690,143.508 245.940,143.791 246.600 C 144.646 248.592,145.094 250.089,145.525 252.400 C 145.751 253.610,146.237 256.220,146.605 258.200 C 146.972 260.180,147.437 261.971,147.637 262.180 C 147.836 262.389,148.000 262.839,148.000 263.180 C 148.001 263.920,149.455 265.602,150.699 266.300 C 151.351 266.667,154.544 266.800,162.657 266.800 L 173.724 266.800 175.082 265.765 C 176.018 265.051,176.321 264.585,176.058 264.265 C 175.849 264.009,175.554 262.720,175.403 261.400 C 175.050 258.309,174.594 256.752,173.178 253.800 C 172.000 251.346,171.603 250.013,170.797 245.800 C 170.544 244.480,169.798 242.140,169.138 240.600 C 167.836 237.562,166.800 234.063,166.800 232.709 C 166.800 231.805,166.136 229.463,165.551 228.305 C 165.358 227.923,165.200 227.338,165.200 227.005 C 165.200 226.672,165.048 226.400,164.863 226.400 C 164.527 226.400,163.646 223.581,162.800 219.800 C 161.730 215.015,161.077 213.024,160.376 212.400 C 159.948 212.018,158.469 206.589,158.218 204.471 C 158.078 203.299,157.279 200.869,156.440 199.071 C 155.570 197.203,154.697 194.513,154.406 192.800 C 153.804 189.258,153.124 187.008,152.095 185.152 C 151.294 183.708,150.748 181.770,149.966 177.600 C 149.699 176.170,148.904 173.740,148.200 172.200 C 147.080 169.747,146.596 168.064,145.841 164.000 C 145.417 161.715,144.837 159.916,144.018 158.344 C 142.864 156.130,142.138 153.837,141.819 151.400 C 141.438 148.489,140.348 145.086,139.576 144.400 C 139.138 144.010,137.600 138.559,137.598 137.389 C 137.592 133.901,135.133 133.206,122.791 133.202 L 114.582 133.200 113.091 134.429 M192.636 134.431 L 191.600 135.661 191.600 200.177 L 191.600 264.692 192.429 265.746 L 193.258 266.800 204.159 266.800 C 215.037 266.800,215.062 266.798,215.930 265.874 L 216.800 264.948 216.801 243.974 C 216.803 223.770,216.832 222.952,217.596 221.700 L 218.388 220.400 226.311 220.400 C 233.751 220.400,243.160 219.588,244.190 218.857 C 244.764 218.451,247.009 217.760,249.600 217.193 C 251.935 216.683,255.600 215.230,255.600 214.816 C 255.600 214.680,256.863 213.886,258.407 213.052 C 261.043 211.628,266.800 206.481,266.800 205.548 C 266.800 205.333,267.348 204.581,268.019 203.878 C 269.270 202.565,271.200 198.856,271.200 197.763 C 271.200 197.426,271.720 196.036,272.355 194.675 C 273.919 191.323,274.011 191.037,274.638 187.600 C 275.307 183.924,275.377 171.960,274.752 167.907 C 274.282 164.865,274.189 164.550,272.861 161.550 C 272.411 160.532,271.645 158.462,271.159 156.950 C 270.298 154.269,269.531 152.745,268.505 151.672 C 268.228 151.381,267.535 150.350,266.967 149.380 C 265.872 147.512,260.697 142.000,260.038 142.000 C 259.824 142.000,258.825 141.287,257.818 140.416 C 255.887 138.744,254.542 138.042,251.600 137.170 C 250.610 136.876,249.080 136.264,248.200 135.809 C 243.891 133.583,238.744 133.200,213.156 133.200 L 193.671 133.200 192.636 134.431 M292.636 134.431 L 291.600 135.661 291.600 200.177 L 291.600 264.692 292.429 265.746 L 293.258 266.800 304.159 266.800 C 315.037 266.800,315.062 266.798,315.930 265.874 L 316.800 264.948 316.800 200.021 L 316.800 135.093 315.700 134.147 C 314.604 133.204,314.561 133.201,304.136 133.200 L 293.671 133.200 292.636 134.431 M134.970 135.067 C 135.766 135.525,136.751 138.507,136.782 140.554 C 136.817 142.845,138.086 146.512,139.220 147.600 C 139.845 148.199,140.231 149.680,141.385 155.904 C 141.996 159.193,142.412 160.277,143.651 161.800 C 144.008 162.240,144.515 163.860,144.777 165.400 C 145.988 172.530,146.476 174.133,147.851 175.508 C 148.152 175.810,148.470 176.448,148.558 176.928 C 148.645 177.408,148.915 178.891,149.158 180.224 C 149.401 181.557,149.600 183.027,149.600 183.491 C 149.600 184.637,150.998 187.816,151.952 188.841 C 152.452 189.377,152.831 190.557,153.012 192.138 C 153.625 197.503,154.522 200.566,156.030 202.440 C 156.624 203.178,157.095 204.865,157.650 208.240 C 158.452 213.124,158.916 214.554,160.037 215.600 C 160.716 216.234,161.255 218.270,162.047 223.200 C 162.313 224.850,162.869 226.830,163.284 227.600 C 163.699 228.370,164.288 229.450,164.591 230.000 C 165.116 230.951,165.344 231.966,166.388 238.000 C 166.677 239.672,167.257 241.208,168.014 242.304 C 168.933 243.636,169.334 244.904,169.851 248.104 C 170.598 252.733,171.369 255.212,172.453 256.461 C 173.375 257.524,173.974 259.510,174.279 262.514 C 174.638 266.055,174.912 265.974,162.600 265.978 C 150.624 265.983,151.002 266.092,149.859 262.312 C 149.478 261.053,148.947 259.793,148.679 259.512 C 147.721 258.507,147.280 256.896,147.000 253.373 C 146.543 247.622,145.724 244.728,143.784 242.000 C 143.236 241.230,142.565 240.261,142.294 239.846 C 140.746 237.485,141.645 237.600,124.773 237.600 C 104.344 237.600,104.118 237.698,103.164 246.960 C 102.867 249.852,102.556 250.978,101.649 252.439 C 100.428 254.408,99.952 256.185,99.171 261.681 C 98.820 264.153,98.492 265.240,98.039 265.431 C 96.702 265.994,78.496 266.130,76.504 265.591 C 73.926 264.894,73.875 264.850,74.528 263.854 C 74.842 263.375,75.217 262.176,75.362 261.191 C 76.428 253.951,76.833 252.388,78.005 251.000 C 79.120 249.681,80.019 246.321,80.585 241.365 C 80.776 239.697,81.151 238.594,81.777 237.866 C 83.026 236.413,83.814 234.030,84.378 230.000 C 84.842 226.688,85.824 223.600,86.414 223.600 C 86.575 223.600,86.839 223.195,87.001 222.700 C 87.988 219.683,88.367 218.018,88.382 216.628 C 88.408 214.363,89.277 211.754,90.791 209.392 C 91.218 208.728,91.848 206.658,92.192 204.792 C 93.294 198.821,93.695 197.424,94.627 196.305 C 95.792 194.907,96.662 191.843,97.017 187.884 C 97.223 185.592,97.547 184.400,98.244 183.373 C 99.825 181.043,100.251 179.928,100.753 176.800 C 101.548 171.851,102.062 169.938,102.795 169.205 C 103.634 168.366,104.606 165.208,105.197 161.400 C 105.744 157.877,106.326 156.046,107.193 155.115 C 107.913 154.343,109.200 150.232,109.200 148.706 C 109.200 146.801,110.398 142.191,111.008 141.744 C 111.686 141.249,113.200 137.645,113.200 136.527 C 113.200 134.424,113.860 134.303,124.400 134.469 C 130.553 134.566,134.486 134.789,134.970 135.067 M241.923 135.336 C 243.090 135.668,244.260 136.116,244.523 136.331 C 245.194 136.880,249.954 138.400,251.005 138.400 C 252.070 138.400,254.279 139.462,254.695 140.176 C 255.093 140.857,259.409 143.600,260.083 143.600 C 260.370 143.600,260.848 144.150,261.146 144.822 C 261.443 145.495,262.375 146.479,263.215 147.010 C 264.323 147.709,265.037 148.627,265.809 150.348 C 266.395 151.653,267.393 153.219,268.028 153.827 C 269.151 154.903,269.673 156.303,270.775 161.200 C 271.048 162.410,271.789 164.480,272.424 165.800 C 274.577 170.282,274.481 185.396,272.271 189.800 C 271.719 190.900,270.824 193.602,270.283 195.805 C 269.491 199.024,269.041 200.084,267.988 201.205 C 266.346 202.953,265.203 204.792,265.201 205.690 C 265.201 206.069,264.615 206.675,263.900 207.037 C 262.228 207.882,260.800 209.191,260.800 209.880 C 260.800 210.177,260.349 210.591,259.799 210.800 C 257.196 211.790,255.097 212.915,253.905 213.958 C 252.614 215.089,251.701 215.359,245.600 216.415 C 242.589 216.937,240.288 217.374,237.200 218.012 C 235.990 218.262,231.490 218.556,227.200 218.666 C 218.559 218.888,217.134 219.148,216.459 220.630 C 216.132 221.348,216.000 227.803,216.000 243.087 C 216.000 262.485,215.937 264.607,215.338 265.269 C 214.442 266.258,194.347 266.405,193.371 265.429 C 192.574 264.631,192.503 135.669,193.300 134.839 C 194.077 134.029,238.939 134.487,241.923 135.336 M315.269 135.062 C 316.351 136.041,316.419 264.074,315.338 265.269 C 314.442 266.258,294.347 266.405,293.371 265.429 C 292.591 264.649,292.501 135.659,293.280 134.880 C 294.114 134.046,314.331 134.213,315.269 135.062 M217.896 154.434 C 216.092 155.485,216.000 156.566,216.000 176.835 L 216.000 195.972 217.241 197.386 L 218.483 198.800 227.361 198.800 C 232.245 198.800,236.411 198.639,236.620 198.443 C 236.829 198.246,238.350 197.792,240.000 197.434 C 244.556 196.444,245.407 195.929,246.711 193.375 C 247.153 192.509,247.912 191.440,248.398 191.001 C 250.435 189.159,251.200 185.511,251.200 177.644 C 251.200 169.562,250.546 166.143,248.589 164.000 C 248.087 163.450,247.267 162.118,246.766 161.040 C 246.209 159.840,245.397 158.832,244.673 158.440 C 244.023 158.088,242.570 157.194,241.445 156.453 C 237.917 154.128,237.177 153.999,227.450 154.012 C 222.156 154.019,218.317 154.189,217.896 154.434 M237.200 156.560 C 239.644 157.546,243.267 159.138,244.000 159.548 C 244.330 159.733,245.752 162.145,247.159 164.908 L 249.719 169.933 249.740 177.290 C 249.762 185.231,249.677 185.671,247.398 189.400 C 243.066 196.491,242.322 196.775,228.071 196.790 C 215.546 196.803,216.800 198.995,216.800 177.086 C 216.800 159.884,216.887 158.711,218.335 156.466 L 218.937 155.532 227.168 155.683 C 233.947 155.807,235.718 155.962,237.200 156.560 M122.114 172.155 C 121.100 173.321,120.933 173.958,119.969 180.365 C 119.460 183.746,118.897 186.113,118.446 186.765 C 117.189 188.582,116.039 192.668,116.014 195.400 C 115.992 197.881,114.960 202.249,114.103 203.484 C 113.053 204.999,112.828 205.688,112.169 209.400 C 111.311 214.232,111.402 215.303,112.793 216.793 L 113.986 218.070 124.325 217.935 L 134.664 217.800 136.132 216.680 C 137.994 215.258,138.004 214.408,136.200 210.689 C 135.430 209.101,134.800 207.400,134.800 206.909 C 134.800 203.135,133.017 195.280,131.960 194.400 C 131.282 193.835,130.769 192.177,130.575 189.918 C 130.016 183.432,129.201 180.157,127.542 177.728 C 126.914 176.808,126.400 175.878,126.400 175.661 C 126.400 175.444,126.265 175.207,126.100 175.133 C 125.935 175.060,125.477 174.364,125.083 173.586 C 124.018 171.484,123.087 171.035,122.114 172.155 M124.400 176.763 C 124.400 177.003,124.580 177.200,124.800 177.200 C 125.020 177.200,125.201 177.425,125.202 177.700 C 125.205 178.196,125.543 178.905,127.065 181.600 C 127.960 183.186,128.554 185.339,129.215 189.400 C 129.818 193.106,130.732 196.632,131.599 198.600 C 132.310 200.217,132.793 202.295,133.641 207.400 C 133.897 208.940,134.442 211.202,134.853 212.427 C 135.804 215.262,135.889 214.976,133.804 215.956 C 132.149 216.734,131.327 216.800,123.280 216.800 C 111.830 216.800,111.794 216.771,113.888 209.200 C 114.223 207.990,114.617 206.820,114.765 206.600 C 115.420 205.623,116.073 202.978,117.365 196.075 C 117.707 194.246,118.243 192.176,118.556 191.475 C 119.571 189.204,120.652 184.968,121.214 181.060 C 121.399 179.774,121.855 177.754,122.226 176.572 L 122.902 174.422 123.651 175.374 C 124.063 175.898,124.400 176.523,124.400 176.763 " stroke="none" fill="#94ccfc" fill-rule="evenodd"></path></g></svg>