<svg id="svg" xmlns="http://www.w3.org/2000/svg" xmlns:xlink="http://www.w3.org/1999/xlink" width="400" height="400" viewBox="0, 0, 400,400"><g id="svgg"><path id="path0" d="M76.800 26.684 C 74.079 27.161,71.623 28.125,70.759 29.055 C 70.232 29.624,68.360 30.779,66.600 31.623 C 61.810 33.920,59.171 36.683,56.495 42.200 C 55.962 43.300,54.992 44.759,54.340 45.443 C 50.696 49.262,50.996 63.319,54.809 67.457 C 55.684 68.406,56.402 69.411,56.404 69.691 C 56.426 72.571,61.791 78.677,66.296 80.950 C 67.783 81.701,69.640 83.009,70.422 83.857 C 71.204 84.706,72.407 85.700,73.097 86.067 C 73.786 86.434,74.766 87.514,75.275 88.467 L 76.200 90.200 76.305 193.843 L 76.410 297.485 77.236 298.232 C 78.123 299.035,87.165 299.596,90.163 299.033 C 91.651 298.754,92.435 297.318,93.007 293.822 C 93.357 291.682,94.860 288.828,96.317 287.534 C 96.997 286.929,97.885 285.457,98.367 284.134 C 98.834 282.850,99.507 281.010,99.863 280.044 C 100.261 278.961,101.408 277.402,102.854 275.979 C 104.174 274.679,105.549 272.852,106.001 271.798 C 106.477 270.688,107.699 269.097,109.002 267.893 C 110.211 266.776,111.200 265.623,111.200 265.332 C 111.200 264.560,113.914 261.679,114.931 261.371 C 116.016 261.043,117.600 259.622,117.600 258.977 C 117.600 258.323,120.654 255.600,121.387 255.600 C 122.132 255.600,124.800 253.277,124.800 252.628 C 124.800 251.782,126.486 250.542,130.000 248.803 C 131.870 247.878,134.133 246.413,135.030 245.547 C 136.555 244.072,141.921 241.605,143.611 241.601 C 143.947 241.601,145.160 240.895,146.306 240.034 C 148.859 238.115,150.793 237.465,157.098 236.405 C 162.427 235.509,163.298 235.257,166.000 233.825 C 169.591 231.921,173.508 231.191,185.400 230.209 C 193.092 229.574,197.545 228.700,201.400 227.070 C 204.213 225.880,208.385 225.079,216.400 224.189 C 222.538 223.507,223.888 223.066,227.266 220.644 C 228.450 219.795,230.350 218.987,232.466 218.432 C 236.864 217.278,239.757 216.118,240.663 215.146 C 242.829 212.821,243.490 212.345,245.296 211.809 C 247.436 211.173,249.815 209.847,250.298 209.020 C 250.464 208.735,252.400 207.329,254.600 205.895 C 256.903 204.394,259.319 202.434,260.295 201.276 C 261.335 200.041,262.830 198.853,264.167 198.199 C 265.712 197.443,266.459 196.806,266.738 196.006 C 267.275 194.465,269.808 191.735,270.972 191.443 C 271.641 191.275,272.416 190.310,273.568 188.211 C 274.472 186.565,276.196 184.114,277.400 182.765 C 278.818 181.175,279.893 179.478,280.451 177.947 C 281.241 175.782,283.042 173.586,284.401 173.133 C 284.664 173.045,285.664 170.565,286.623 167.621 C 288.040 163.269,288.634 161.994,289.804 160.796 C 291.389 159.173,291.996 157.215,293.030 150.400 C 293.754 145.629,294.597 143.057,295.889 141.678 C 296.445 141.085,297.321 139.938,297.837 139.128 C 298.737 137.716,301.891 135.200,302.762 135.200 C 302.992 135.200,303.770 134.543,304.490 133.741 C 305.214 132.934,306.962 131.751,308.400 131.094 C 309.979 130.374,311.808 129.101,313.056 127.854 C 314.187 126.724,315.727 125.243,316.480 124.562 C 317.357 123.768,318.181 122.407,318.779 120.762 C 319.344 119.209,320.233 117.706,321.036 116.945 C 324.691 113.484,324.838 99.311,321.258 95.409 C 320.447 94.524,319.264 92.737,318.632 91.439 C 316.948 87.984,312.645 83.633,309.092 81.793 C 307.502 80.970,305.642 79.770,304.960 79.127 C 301.188 75.574,287.465 75.556,283.543 79.099 C 282.712 79.850,281.105 80.817,279.973 81.247 C 275.897 82.796,271.329 87.309,269.154 91.938 C 268.465 93.402,267.363 95.171,266.704 95.868 C 263.053 99.730,263.215 113.241,266.956 116.983 C 267.757 117.783,268.723 119.404,269.231 120.797 C 270.270 123.646,275.764 129.615,278.311 130.662 C 280.203 131.440,281.862 132.989,282.840 134.890 C 283.261 135.710,284.432 137.310,285.442 138.447 C 287.570 140.843,287.582 141.388,285.598 145.448 C 283.973 148.773,283.395 150.501,282.593 154.442 C 281.803 158.319,280.587 160.953,278.890 162.460 C 278.234 163.043,277.383 164.393,276.999 165.460 C 276.615 166.527,275.918 168.469,275.451 169.777 C 274.867 171.406,273.989 172.773,272.656 174.126 C 271.587 175.211,270.300 177.021,269.797 178.149 C 268.886 180.190,267.222 182.064,265.913 182.524 C 265.536 182.656,264.660 183.769,263.967 184.998 C 262.768 187.122,260.645 189.200,259.675 189.200 C 259.427 189.200,258.613 190.157,257.865 191.326 C 256.809 192.976,255.985 193.714,254.181 194.626 C 252.599 195.425,251.435 196.387,250.534 197.640 C 249.470 199.120,248.528 199.809,245.706 201.167 C 243.507 202.226,241.574 203.503,240.521 204.591 C 238.780 206.391,235.610 207.887,232.659 208.300 C 231.812 208.419,230.282 209.125,229.259 209.868 C 226.058 212.196,223.577 213.165,219.161 213.814 C 213.951 214.579,211.256 215.341,208.647 216.788 C 205.818 218.357,202.225 219.066,193.384 219.804 C 183.773 220.605,177.309 221.726,174.832 223.021 C 172.638 224.169,171.366 224.423,160.855 225.816 C 152.904 226.870,150.502 227.514,148.855 229.033 C 147.635 230.159,145.209 231.201,140.003 232.836 C 136.467 233.946,135.535 234.421,134.085 235.851 C 133.117 236.805,131.540 237.835,130.482 238.205 C 127.390 239.286,126.156 240.003,124.327 241.780 C 123.371 242.709,121.152 244.302,119.395 245.320 C 117.434 246.456,115.532 247.953,114.471 249.194 C 113.520 250.306,111.862 251.662,110.787 252.207 C 109.153 253.035,108.762 253.455,108.410 254.762 C 107.977 256.370,105.964 258.503,104.418 258.994 C 103.959 259.140,103.142 260.131,102.601 261.197 C 101.228 263.907,98.046 267.615,95.334 269.665 C 94.072 270.619,92.552 271.896,91.956 272.503 L 90.873 273.606 89.229 271.738 C 86.151 268.241,86.375 275.947,86.494 177.976 C 86.612 80.323,86.355 88.897,89.231 86.738 C 89.919 86.222,91.346 84.946,92.402 83.902 C 93.459 82.858,95.193 81.632,96.255 81.177 C 97.330 80.716,99.195 79.340,100.461 78.074 C 101.712 76.823,103.437 75.139,104.295 74.331 C 105.164 73.512,106.060 72.177,106.318 71.316 C 106.573 70.465,107.489 68.821,108.353 67.663 C 111.575 63.345,112.073 49.082,109.089 46.592 C 108.477 46.081,107.812 44.936,106.113 41.462 C 103.872 36.881,99.554 32.870,95.053 31.185 C 93.698 30.678,92.444 29.871,91.867 29.133 C 90.259 27.080,82.105 25.754,76.800 26.684 " stroke="none" fill="#74c9ac" fill-rule="evenodd"></path><path id="path1" d="M73.998 314.169 C 71.788 314.780,70.809 315.293,68.519 317.041 C 67.540 317.788,66.525 318.400,66.264 318.400 C 65.669 318.400,61.783 320.957,60.255 322.353 C 58.968 323.530,57.607 325.551,55.917 328.800 C 55.288 330.010,54.170 331.752,53.432 332.671 C 50.160 336.750,50.373 351.888,53.759 355.843 C 54.508 356.719,55.471 358.057,55.899 358.817 C 56.327 359.578,57.273 361.254,58.001 362.543 C 59.412 365.041,62.396 367.692,65.593 369.291 C 66.587 369.788,68.348 370.895,69.507 371.751 C 74.472 375.420,88.409 375.516,92.856 371.912 C 93.815 371.135,95.680 369.987,97.000 369.361 C 99.797 368.034,105.347 362.728,106.581 360.200 C 107.011 359.320,108.124 357.430,109.053 356.000 C 112.276 351.041,112.651 337.096,109.665 333.247 C 109.218 332.671,108.145 330.749,107.280 328.975 C 105.128 324.558,98.305 318.000,95.863 318.000 C 95.636 318.000,94.445 317.210,93.216 316.245 C 90.019 313.733,79.636 312.612,73.998 314.169 " stroke="none" fill="#84c5f5" fill-rule="evenodd"></path><path id="path2" d="M57.809 9.985 C 57.705 10.154,57.182 10.209,56.649 10.107 C 55.438 9.876,53.914 11.285,54.034 12.525 C 54.081 13.006,54.017 13.670,53.893 14.000 C 53.769 14.330,53.549 15.131,53.406 15.779 C 53.233 16.561,53.041 16.789,52.835 16.457 C 52.441 15.819,48.502 15.955,47.829 16.629 C 47.264 17.193,46.996 21.215,47.499 21.562 C 47.689 21.693,47.519 22.115,47.122 22.500 C 46.725 22.885,46.400 23.011,46.400 22.779 C 46.400 21.998,42.005 22.443,41.563 23.269 C 41.279 23.800,41.312 24.002,41.686 24.006 C 42.089 24.011,42.085 24.085,41.665 24.351 C 41.316 24.572,41.175 25.298,41.257 26.441 C 41.365 27.929,41.265 28.211,40.592 28.320 C 40.156 28.390,39.530 28.553,39.200 28.683 C 38.870 28.813,38.206 28.881,37.725 28.834 C 36.485 28.714,35.076 30.238,35.307 31.449 C 35.409 31.982,35.350 32.507,35.175 32.615 C 34.667 32.929,34.801 37.353,35.329 37.688 C 35.687 37.916,35.683 37.989,35.316 37.994 C 34.690 38.002,34.580 78.217,35.205 78.603 C 35.424 78.738,35.492 79.291,35.356 79.832 C 34.786 82.103,37.085 84.417,39.346 83.849 C 40.711 83.507,41.160 84.267,41.243 87.059 C 41.312 89.351,41.903 90.904,42.655 90.768 C 42.845 90.733,43.945 90.727,45.100 90.753 L 47.200 90.800 47.200 93.171 C 47.200 96.314,47.706 96.800,50.979 96.800 C 53.706 96.800,53.897 97.011,54.156 100.299 C 54.247 101.455,55.354 102.557,56.501 102.633 C 56.996 102.666,57.895 102.826,58.500 102.989 L 59.600 103.287 59.600 200.197 L 59.600 297.107 58.700 297.394 C 58.205 297.551,57.399 297.650,56.909 297.613 C 55.614 297.514,53.868 299.396,54.104 300.633 C 54.208 301.176,54.137 301.715,53.946 301.833 C 53.756 301.951,53.600 302.397,53.600 302.824 C 53.600 303.512,53.307 303.600,51.029 303.600 C 47.603 303.600,47.209 304.021,47.168 307.729 C 47.151 309.308,47.046 310.375,46.935 310.100 C 46.806 309.780,45.889 309.600,44.381 309.600 C 41.510 309.600,41.069 310.167,41.266 313.604 C 41.413 316.159,40.749 317.092,39.145 316.583 C 37.103 315.935,34.856 318.288,35.409 320.495 C 35.554 321.071,35.477 321.629,35.232 321.780 C 34.615 322.161,34.675 325.198,35.300 325.206 C 35.698 325.211,35.697 325.277,35.297 325.531 C 34.802 325.846,34.765 365.330,35.257 368.709 C 35.482 370.260,36.453 371.346,37.701 371.444 C 40.894 371.695,41.200 371.943,41.200 374.276 C 41.200 377.619,41.549 378.000,44.614 378.000 L 47.200 378.000 47.200 380.571 C 47.200 383.947,47.653 384.400,51.029 384.400 C 53.307 384.400,53.600 384.488,53.600 385.176 C 53.600 385.603,53.756 386.049,53.946 386.167 C 54.137 386.285,54.208 386.824,54.104 387.367 C 53.843 388.736,55.664 390.557,57.033 390.296 C 57.576 390.192,58.112 390.257,58.225 390.441 C 58.495 390.877,104.705 390.877,104.975 390.441 C 105.088 390.258,105.590 390.184,106.090 390.277 C 107.473 390.535,108.503 389.541,108.605 387.849 C 108.655 387.036,108.809 386.258,108.947 386.119 C 109.086 385.980,109.200 385.537,109.200 385.133 C 109.200 384.498,109.545 384.400,111.771 384.400 C 115.147 384.400,115.600 383.947,115.600 380.571 L 115.600 378.000 118.171 378.000 C 121.499 378.000,122.000 377.525,122.000 374.371 C 122.000 372.291,122.095 372.000,122.776 372.000 C 123.203 372.000,123.654 371.837,123.777 371.638 C 123.900 371.438,124.350 371.367,124.778 371.478 C 125.925 371.778,127.738 369.836,127.496 368.567 C 127.392 368.024,127.455 367.489,127.636 367.378 C 128.213 367.021,128.074 325.601,127.496 325.594 C 127.116 325.589,127.120 325.512,127.514 325.261 C 128.005 324.950,128.003 323.488,127.508 319.291 C 127.327 317.767,126.456 316.759,125.134 316.549 C 123.273 316.253,121.012 315.691,121.500 315.646 C 122.273 315.575,122.165 311.022,121.371 310.229 C 120.584 309.441,116.172 309.338,115.865 310.100 C 115.694 310.523,115.413 306.384,115.553 305.500 C 115.614 305.110,114.090 303.586,113.700 303.647 C 112.789 303.791,109.101 303.565,109.289 303.377 C 109.412 303.255,110.432 303.148,111.556 303.139 C 112.680 303.130,113.600 302.980,113.600 302.806 C 113.600 302.632,113.915 302.514,114.300 302.544 C 114.739 302.579,114.979 302.339,114.944 301.900 C 114.914 301.515,115.032 301.200,115.208 301.200 C 115.383 301.200,115.548 298.915,115.574 296.122 C 115.630 290.158,115.296 290.820,118.289 290.752 C 121.856 290.672,121.879 290.643,121.968 286.150 C 122.001 284.432,122.362 284.181,125.320 283.819 C 126.332 283.695,127.363 282.563,127.433 281.499 C 127.626 278.579,128.503 277.110,129.854 277.449 C 132.033 277.996,134.460 275.680,133.820 273.663 C 133.456 272.518,134.908 271.603,136.643 271.884 C 137.455 272.016,138.000 271.938,138.000 271.690 C 138.000 271.462,138.328 271.361,138.728 271.465 C 139.609 271.696,140.579 270.643,140.257 269.805 C 140.130 269.472,140.223 269.200,140.465 269.200 C 140.740 269.200,140.824 268.700,140.688 267.866 C 140.376 265.944,140.725 265.659,143.509 265.559 C 144.879 265.509,146.000 265.308,146.000 265.111 C 146.000 264.914,146.180 264.864,146.400 265.000 C 146.628 265.141,146.800 264.798,146.800 264.205 C 146.800 262.370,150.370 259.200,152.437 259.200 C 153.558 259.200,154.292 258.968,154.657 258.500 C 155.173 257.838,155.188 257.839,154.950 258.522 C 154.725 259.164,154.925 259.234,156.749 259.151 C 157.877 259.099,158.800 258.899,158.800 258.705 C 158.800 258.511,158.965 258.455,159.166 258.579 C 159.367 258.703,159.592 258.669,159.666 258.502 C 159.740 258.336,160.468 257.860,161.285 257.445 C 162.248 256.956,163.058 256.111,163.585 255.045 C 164.033 254.140,164.400 253.634,164.400 253.920 C 164.400 254.983,163.121 256.860,161.881 257.616 C 160.610 258.391,160.608 258.397,161.630 258.399 C 162.989 258.400,164.373 256.874,164.670 255.048 C 164.991 253.071,164.826 253.114,171.826 253.166 C 176.560 253.202,178.001 253.094,178.006 252.706 C 178.011 252.303,178.079 252.305,178.338 252.713 C 178.707 253.295,187.866 253.340,188.223 252.762 C 188.335 252.582,188.676 252.531,188.983 252.649 C 189.937 253.015,190.898 251.024,190.738 249.013 C 190.552 246.663,189.940 246.784,202.055 246.778 C 209.907 246.775,212.401 246.656,212.406 246.287 C 212.411 245.927,212.497 245.934,212.739 246.315 C 213.119 246.914,220.400 246.909,220.400 246.310 C 220.400 246.114,220.560 246.051,220.755 246.172 C 221.175 246.432,222.078 245.448,221.914 244.910 C 221.851 244.704,222.667 243.690,223.726 242.658 L 225.652 240.780 232.510 240.759 C 239.728 240.737,240.790 240.523,240.816 239.086 C 240.824 238.581,241.785 237.169,243.052 235.800 C 244.273 234.480,245.150 233.634,245.000 233.921 C 244.784 234.333,245.524 234.426,248.564 234.370 C 250.674 234.330,252.400 234.131,252.400 233.926 C 252.400 233.721,252.580 233.664,252.800 233.800 C 253.028 233.941,253.200 233.598,253.200 233.005 C 253.200 232.289,253.818 231.344,255.170 229.992 L 257.140 228.022 260.570 227.964 C 262.456 227.932,264.000 227.747,264.000 227.553 C 264.000 227.359,264.225 227.245,264.500 227.300 C 264.775 227.355,264.955 227.175,264.900 226.900 C 264.845 226.625,264.956 226.400,265.148 226.400 C 265.339 226.400,265.516 225.473,265.542 224.339 C 265.599 221.825,265.309 222.065,268.421 221.964 C 271.901 221.851,272.000 221.738,272.000 217.880 L 272.000 215.361 273.400 215.524 C 274.392 215.640,274.802 215.529,274.806 215.144 C 274.811 214.695,274.871 214.693,275.150 215.132 C 275.678 215.966,277.777 215.559,277.915 214.595 C 277.980 214.144,278.684 213.440,279.515 212.994 C 280.344 212.550,281.350 211.544,281.794 210.715 C 282.240 209.884,282.944 209.180,283.395 209.115 C 284.348 208.979,284.740 207.262,283.935 206.751 C 283.536 206.498,283.527 206.411,283.900 206.406 C 284.215 206.402,284.400 205.813,284.400 204.817 L 284.400 203.234 287.500 203.117 L 290.600 203.000 290.717 199.900 L 290.834 196.800 292.317 196.768 C 296.621 196.673,296.672 196.631,296.752 193.117 C 296.818 190.162,296.862 190.089,298.439 190.320 C 299.261 190.441,299.622 190.359,299.456 190.091 C 299.299 189.837,299.497 189.752,299.962 189.874 C 300.976 190.139,302.539 188.576,302.274 187.562 C 302.152 187.097,302.237 186.899,302.491 187.056 C 302.759 187.222,302.841 186.861,302.720 186.039 C 302.618 185.338,302.683 184.672,302.867 184.559 C 303.050 184.445,303.200 182.936,303.200 181.203 C 303.200 177.891,303.626 177.250,305.636 177.538 C 306.571 177.671,308.400 176.892,308.400 176.361 C 308.400 176.045,308.181 176.070,307.700 176.439 C 307.303 176.743,307.382 176.545,307.882 175.981 C 308.367 175.434,308.777 174.629,308.792 174.193 C 308.807 173.757,308.924 172.432,309.052 171.250 C 309.222 169.673,309.139 169.007,308.742 168.756 C 308.364 168.516,308.347 168.410,308.686 168.406 C 309.038 168.402,309.171 167.174,309.168 163.951 C 309.163 158.787,308.971 159.202,311.450 159.032 C 312.523 158.959,313.445 158.854,313.500 158.800 C 313.618 158.682,314.231 158.520,314.824 158.450 C 315.057 158.423,315.144 158.232,315.017 158.028 C 314.891 157.823,314.975 157.539,315.204 157.398 C 315.433 157.256,315.588 156.748,315.548 156.270 C 315.305 153.358,315.746 152.908,319.099 152.644 C 320.251 152.554,321.354 151.451,321.444 150.299 C 321.699 147.063,321.923 146.800,324.421 146.800 C 327.446 146.800,327.998 146.257,328.006 143.271 C 328.009 142.022,328.187 140.730,328.400 140.400 C 328.679 139.968,328.789 139.946,328.794 140.321 C 328.802 140.996,333.072 140.870,333.768 140.175 C 334.436 139.507,334.583 135.560,333.954 135.172 C 333.449 134.859,336.168 133.933,337.899 133.828 C 339.138 133.753,340.116 132.668,340.348 131.109 C 340.650 129.089,340.829 83.879,340.538 83.200 C 340.397 82.870,340.320 82.199,340.368 81.709 C 340.494 80.419,338.618 78.665,337.367 78.904 C 336.824 79.008,336.285 78.937,336.167 78.746 C 336.049 78.556,335.603 78.400,335.176 78.400 C 334.495 78.400,334.400 78.109,334.400 76.029 C 334.400 72.875,333.899 72.400,330.571 72.400 L 328.000 72.400 328.000 69.829 C 328.000 66.501,327.525 66.000,324.371 66.000 C 322.291 66.000,322.000 65.905,322.000 65.224 C 322.000 64.797,321.844 64.351,321.654 64.233 C 321.463 64.115,321.392 63.576,321.496 63.033 C 321.757 61.664,319.936 59.843,318.567 60.104 C 318.024 60.208,317.489 60.145,317.377 59.964 C 317.133 59.569,270.081 59.503,269.444 59.896 C 269.200 60.047,268.641 60.177,268.200 60.185 C 267.760 60.193,267.445 60.425,267.500 60.700 C 267.555 60.975,267.375 61.155,267.100 61.100 C 266.825 61.045,266.581 61.360,266.557 61.800 C 266.534 62.240,266.379 62.918,266.212 63.307 C 266.046 63.695,265.995 64.460,266.099 65.007 C 266.277 65.939,264.033 66.447,261.500 66.047 C 261.110 65.986,259.586 67.510,259.647 67.900 C 259.788 68.793,259.505 73.322,259.335 72.900 C 259.031 72.146,255.010 72.247,254.229 73.029 C 253.340 73.917,253.370 77.544,254.272 78.203 C 254.832 78.613,254.661 78.666,253.241 78.524 C 252.304 78.430,251.305 78.547,251.020 78.784 C 250.735 79.020,250.223 79.107,249.882 78.976 C 249.010 78.641,247.497 80.245,247.796 81.187 C 247.926 81.597,247.855 82.043,247.637 82.177 C 247.004 82.568,247.070 124.798,247.704 124.806 C 248.077 124.811,248.083 124.887,247.729 125.112 C 247.201 125.447,247.067 129.871,247.575 130.185 C 247.750 130.293,247.809 130.818,247.707 131.351 C 247.476 132.562,248.885 134.086,250.125 133.966 C 250.606 133.919,251.270 133.983,251.600 134.107 C 251.930 134.231,252.731 134.451,253.379 134.594 C 254.161 134.767,254.389 134.959,254.057 135.165 C 253.419 135.559,253.555 139.498,254.229 140.171 C 254.921 140.864,258.798 140.989,258.806 140.320 C 258.811 139.947,258.922 139.970,259.200 140.400 C 259.413 140.730,259.591 142.022,259.594 143.271 C 259.602 146.329,260.122 146.800,263.495 146.800 C 264.946 146.800,266.033 146.900,265.911 147.023 C 265.788 147.145,264.768 147.252,263.644 147.261 C 262.520 147.270,261.600 147.420,261.600 147.594 C 261.600 147.768,261.285 147.886,260.900 147.856 C 260.461 147.821,260.221 148.061,260.256 148.500 C 260.286 148.885,260.171 149.200,259.999 149.200 C 259.458 149.200,259.556 154.525,260.104 154.872 C 260.498 155.123,260.497 155.189,260.100 155.194 C 259.783 155.198,259.600 155.795,259.600 156.824 C 259.600 157.879,259.750 158.354,260.030 158.182 C 260.266 158.036,260.222 158.295,259.933 158.758 C 259.499 159.454,259.012 159.600,257.132 159.600 C 254.085 159.600,253.600 160.125,253.600 163.429 L 253.600 166.000 252.424 166.000 C 251.777 166.000,251.146 166.163,251.023 166.362 C 250.900 166.562,250.411 166.623,249.937 166.499 C 249.394 166.357,249.170 166.428,249.333 166.692 C 249.478 166.926,249.286 167.086,248.896 167.055 C 248.462 167.021,248.221 167.262,248.255 167.696 C 248.286 168.086,248.126 168.278,247.892 168.133 C 247.628 167.970,247.557 168.194,247.699 168.737 C 247.823 169.211,247.762 169.700,247.562 169.823 C 247.363 169.946,247.200 170.564,247.200 171.197 C 247.200 172.442,246.498 172.851,244.116 172.996 C 242.787 173.078,241.600 173.792,241.600 174.511 C 241.600 174.738,242.005 174.582,242.500 174.165 L 243.400 173.406 242.500 174.429 C 242.005 174.991,241.597 175.890,241.594 176.426 C 241.584 178.024,241.069 178.395,238.627 178.565 C 235.706 178.768,235.168 179.304,234.965 182.216 C 234.770 185.024,235.110 184.735,231.891 184.839 C 230.411 184.887,229.200 185.088,229.200 185.287 C 229.200 185.485,229.020 185.536,228.800 185.400 C 228.572 185.259,228.400 185.602,228.400 186.195 C 228.400 186.914,227.776 187.862,226.395 189.243 L 224.389 191.249 220.412 191.235 C 218.224 191.227,216.326 191.397,216.193 191.612 C 216.060 191.827,215.509 191.892,214.968 191.756 C 212.569 191.154,210.079 193.640,210.561 196.155 C 210.710 196.937,210.668 197.197,210.448 196.855 C 210.185 196.446,210.056 196.432,209.934 196.798 C 209.814 197.159,208.121 197.273,203.485 197.234 C 198.639 197.194,197.199 197.298,197.194 197.691 C 197.189 198.101,197.124 198.100,196.863 197.688 C 196.495 197.108,187.732 197.063,187.376 197.639 C 187.265 197.818,186.924 197.869,186.617 197.751 C 185.663 197.385,184.702 199.376,184.862 201.387 C 185.049 203.739,185.678 203.617,173.344 203.621 C 165.324 203.624,162.799 203.742,162.794 204.112 C 162.789 204.475,162.704 204.469,162.462 204.087 C 162.084 203.491,155.200 203.495,155.200 204.091 C 155.200 204.287,155.040 204.349,154.845 204.228 C 154.392 203.948,153.459 205.049,153.750 205.519 C 153.871 205.714,152.993 206.717,151.800 207.747 L 149.630 209.620 142.929 209.642 C 134.758 209.668,134.871 209.621,134.718 213.104 L 134.600 215.800 131.013 215.917 C 128.763 215.990,127.312 216.214,127.119 216.517 C 126.883 216.889,126.811 216.885,126.806 216.500 C 126.798 215.796,123.689 215.854,122.971 216.571 C 122.657 216.886,122.400 217.434,122.400 217.790 C 122.400 218.147,121.527 219.311,120.461 220.377 L 118.522 222.316 114.666 222.473 C 110.050 222.661,109.824 222.830,109.810 226.110 L 109.800 228.600 107.174 228.470 C 103.928 228.309,103.685 228.557,103.499 232.217 C 103.421 233.748,103.321 205.280,103.278 168.955 L 103.200 102.911 104.202 103.103 C 104.754 103.208,105.466 103.077,105.785 102.813 C 106.104 102.548,106.551 102.446,106.779 102.587 C 107.007 102.728,107.510 102.659,107.897 102.434 C 108.284 102.209,108.443 102.019,108.251 102.012 C 108.059 102.005,108.120 101.738,108.385 101.418 C 108.651 101.097,108.748 100.639,108.600 100.400 C 108.452 100.161,108.548 99.704,108.813 99.385 C 109.077 99.066,109.215 98.389,109.118 97.881 C 109.021 97.373,109.179 96.735,109.471 96.463 C 109.817 96.139,110.000 96.119,110.000 96.405 C 110.000 97.002,114.342 96.801,114.968 96.175 C 115.663 95.480,115.791 91.604,115.120 91.588 C 114.834 91.581,114.960 91.372,115.400 91.122 C 115.840 90.873,116.332 90.473,116.494 90.234 C 116.691 89.943,116.790 89.971,116.794 90.320 C 116.801 90.908,120.678 90.927,121.438 90.342 C 122.028 89.888,122.158 85.600,121.582 85.600 C 120.400 85.600,122.500 84.434,124.120 84.191 C 126.589 83.821,127.216 83.281,127.621 81.176 C 128.082 78.784,128.069 32.000,127.608 32.000 C 127.411 32.000,127.283 31.505,127.325 30.900 C 127.372 30.204,127.216 29.837,126.900 29.900 C 126.625 29.955,126.445 29.775,126.500 29.500 C 126.558 29.212,126.219 29.013,125.700 29.032 C 125.205 29.049,124.800 28.903,124.800 28.706 C 124.800 28.510,124.215 28.406,123.500 28.475 C 122.677 28.554,122.240 28.794,122.310 29.130 C 122.370 29.421,122.243 29.550,122.027 29.417 C 121.812 29.284,121.743 28.892,121.876 28.547 C 122.008 28.202,121.865 27.760,121.558 27.566 C 121.132 27.296,121.123 27.211,121.518 27.206 C 122.102 27.199,122.120 23.721,121.539 22.962 C 121.098 22.384,116.800 22.241,116.800 22.804 C 116.800 23.037,116.378 22.817,115.861 22.314 C 115.345 21.811,115.085 21.293,115.283 21.163 C 115.722 20.874,115.607 17.173,115.139 16.562 C 114.643 15.912,110.402 15.848,110.394 16.490 C 110.389 16.868,110.296 16.856,110.034 16.442 C 109.815 16.095,109.400 15.990,108.940 16.165 C 108.347 16.392,108.299 16.348,108.700 15.944 C 109.278 15.362,109.372 13.354,108.838 13.023 C 108.638 12.900,108.569 12.439,108.684 12.000 C 108.801 11.553,108.696 11.200,108.447 11.200 C 108.201 11.200,108.045 10.975,108.100 10.700 C 108.155 10.424,107.806 10.195,107.321 10.188 C 106.838 10.181,106.320 10.054,106.171 9.904 C 105.632 9.366,62.801 9.564,62.794 10.105 C 62.789 10.483,62.716 10.487,62.484 10.122 C 62.151 9.598,58.122 9.480,57.809 9.985 M278.582 16.504 C 278.471 16.792,278.430 23.681,278.490 31.814 L 278.600 46.600 287.600 46.600 L 296.600 46.600 296.600 31.400 L 296.600 16.200 287.691 16.090 C 280.641 16.003,278.741 16.089,278.582 16.504 M244.573 22.844 C 244.433 23.070,244.054 23.153,243.731 23.029 C 242.979 22.740,241.550 23.492,241.654 24.121 C 241.698 24.384,241.590 25.295,241.414 26.144 C 241.183 27.258,241.238 27.776,241.610 28.006 C 242.031 28.266,242.031 28.882,241.608 31.355 C 241.191 33.794,241.188 34.503,241.594 34.992 C 241.997 35.478,241.997 35.600,241.597 35.600 C 241.233 35.600,241.174 36.012,241.382 37.100 C 241.540 37.925,241.664 38.930,241.657 39.334 C 241.649 39.824,241.844 39.992,242.243 39.839 C 242.629 39.691,242.740 39.774,242.555 40.073 C 242.365 40.380,242.488 40.452,242.922 40.285 C 243.281 40.148,243.693 40.227,243.838 40.462 C 243.987 40.703,244.685 40.793,245.444 40.670 C 247.202 40.385,247.159 40.247,247.224 46.376 C 247.293 52.816,247.423 53.039,251.206 53.152 C 252.902 53.203,253.843 53.059,254.062 52.714 C 254.315 52.314,254.389 52.311,254.394 52.700 C 254.398 53.074,255.710 53.200,259.600 53.200 C 263.490 53.200,264.802 53.074,264.806 52.700 C 264.811 52.311,264.885 52.314,265.138 52.714 C 265.642 53.508,270.342 53.258,271.210 52.390 C 272.094 51.506,272.347 44.867,271.517 44.340 C 271.096 44.073,271.096 44.011,271.516 44.006 C 272.125 43.999,272.165 34.549,271.557 34.173 C 271.359 34.051,271.308 33.509,271.444 32.968 C 272.016 30.686,269.714 28.384,267.432 28.956 C 266.891 29.092,266.336 29.019,266.197 28.795 C 266.058 28.571,265.822 28.463,265.672 28.556 C 265.523 28.649,265.400 27.347,265.400 25.663 L 265.400 22.600 255.113 22.517 C 248.426 22.463,244.737 22.578,244.573 22.844 M310.218 23.040 C 309.691 23.566,309.587 24.625,309.625 29.070 C 309.679 35.362,309.975 34.686,307.065 34.921 C 303.711 35.192,303.800 34.949,303.800 43.806 C 303.800 54.005,302.444 52.978,316.046 53.086 C 328.528 53.185,327.850 53.394,327.966 49.418 C 328.011 47.878,328.243 46.497,328.482 46.349 C 328.746 46.186,328.619 45.998,328.158 45.869 C 327.741 45.753,328.053 45.751,328.851 45.864 C 331.478 46.238,332.946 44.973,333.799 41.600 C 333.994 40.830,333.956 40.738,333.632 41.200 C 333.335 41.625,333.210 41.650,333.206 41.287 C 333.203 41.006,333.470 40.671,333.800 40.545 C 334.568 40.250,334.655 36.170,333.900 35.865 C 333.500 35.704,333.500 35.657,333.900 35.632 C 334.211 35.612,334.400 34.996,334.400 34.000 C 334.400 32.990,334.216 32.398,333.900 32.394 C 333.514 32.389,333.517 32.313,333.917 32.060 C 334.516 31.680,334.549 24.000,333.952 24.000 C 333.758 24.000,333.645 23.775,333.700 23.500 C 333.755 23.225,333.575 23.045,333.300 23.100 C 333.025 23.155,332.800 23.031,332.800 22.825 C 332.800 22.096,310.953 22.304,310.218 23.040 M95.645 23.228 C 96.830 23.463,98.167 23.704,98.616 23.763 C 99.472 23.877,101.567 25.110,101.646 25.546 C 101.671 25.686,101.752 26.324,101.827 26.965 C 101.989 28.358,102.457 28.695,104.705 29.034 C 106.906 29.367,108.399 30.537,108.402 31.929 C 108.403 32.518,108.592 33.675,108.821 34.500 C 109.215 35.917,109.579 36.171,111.127 36.103 C 111.765 36.075,114.492 38.728,114.241 39.133 C 114.143 39.292,114.316 40.496,114.625 41.810 C 115.437 45.262,115.422 67.888,114.605 71.743 C 113.957 74.803,112.780 76.215,110.525 76.640 C 109.149 76.899,108.400 78.245,108.400 80.460 C 108.400 81.815,107.249 83.085,105.710 83.426 C 102.379 84.164,102.112 84.349,101.881 86.073 C 101.602 88.153,100.664 89.091,98.394 89.559 C 97.408 89.763,95.520 90.149,94.200 90.417 C 92.880 90.685,91.575 90.965,91.300 91.040 C 90.902 91.147,90.800 109.041,90.800 178.811 C 90.800 237.133,90.934 266.365,91.200 266.200 C 91.420 266.064,91.600 265.496,91.600 264.937 C 91.600 262.419,94.050 260.000,96.600 260.000 C 96.922 260.000,97.294 259.505,97.428 258.900 C 98.282 255.042,99.104 254.098,101.938 253.718 C 103.460 253.513,103.512 253.454,103.709 251.707 C 103.964 249.451,105.253 248.083,107.628 247.549 C 109.595 247.107,109.985 246.699,109.994 245.069 C 110.004 243.221,111.944 241.600,114.146 241.600 C 116.147 241.600,116.264 241.505,116.598 239.611 C 117.076 236.900,117.972 236.235,122.600 235.158 C 124.562 234.701,124.977 234.464,124.873 233.859 C 124.797 233.415,124.917 233.225,125.173 233.383 C 125.556 233.620,125.776 233.116,125.647 232.300 C 125.621 232.135,125.735 232.021,125.900 232.047 C 126.666 232.168,127.227 231.967,127.026 231.642 C 126.904 231.445,127.083 231.177,127.423 231.046 C 127.838 230.887,127.949 230.972,127.759 231.305 C 127.603 231.577,128.020 231.294,128.685 230.676 C 129.765 229.672,133.951 228.491,136.700 228.414 C 136.975 228.406,137.200 227.920,137.200 227.333 C 137.200 226.747,137.301 226.368,137.424 226.491 C 137.548 226.614,138.079 226.284,138.606 225.758 C 139.133 225.231,139.910 224.800,140.333 224.800 C 140.756 224.800,141.314 224.545,141.573 224.232 C 142.122 223.571,145.820 222.940,151.210 222.588 C 154.908 222.346,155.041 222.304,155.702 221.151 C 156.103 220.452,156.182 220.079,155.892 220.246 C 155.621 220.402,155.831 220.056,156.358 219.477 C 156.885 218.898,157.458 218.512,157.631 218.619 C 157.803 218.726,158.043 218.653,158.164 218.458 C 158.388 218.097,159.295 217.862,163.200 217.154 C 164.410 216.935,170.302 216.616,176.294 216.445 C 187.287 216.132,189.448 215.772,188.595 214.392 C 188.493 214.226,188.677 213.868,189.004 213.596 C 189.332 213.324,189.600 213.223,189.600 213.371 C 189.600 213.520,190.185 213.198,190.900 212.657 C 193.167 210.942,195.130 210.650,208.785 209.992 C 215.495 209.668,217.033 209.485,217.318 208.975 C 217.884 207.964,220.041 205.615,220.332 205.693 C 220.479 205.733,221.500 205.468,222.600 205.105 C 223.700 204.742,226.012 204.240,227.739 203.989 C 230.642 203.568,231.002 203.407,232.539 201.847 C 235.577 198.764,236.664 198.075,238.934 197.791 C 241.605 197.457,241.973 197.230,242.088 195.846 C 242.203 194.451,244.353 192.300,245.828 192.103 C 247.969 191.816,249.614 190.901,249.328 190.156 C 249.133 189.649,249.205 189.556,249.600 189.800 C 249.993 190.043,250.067 189.951,249.877 189.457 C 249.531 188.556,250.956 187.131,251.857 187.477 C 252.329 187.658,252.440 187.588,252.225 187.241 C 252.034 186.931,252.121 186.789,252.460 186.861 C 253.018 186.979,255.841 184.415,255.696 183.922 C 255.651 183.769,256.141 183.269,256.784 182.812 C 257.427 182.354,258.066 181.621,258.205 181.184 C 258.344 180.746,258.607 180.481,258.790 180.594 C 259.172 180.830,260.808 178.212,261.031 177.008 C 261.221 175.981,263.119 174.303,263.691 174.656 C 263.949 174.815,264.008 174.737,263.838 174.462 C 263.681 174.208,263.698 173.986,263.876 173.969 C 265.921 173.776,266.201 173.449,266.807 170.554 C 267.313 168.129,268.420 166.949,270.613 166.495 L 272.200 166.166 272.499 163.583 C 273.382 155.940,273.939 154.627,276.601 153.915 L 278.288 153.464 278.542 149.632 C 279.113 141.010,278.809 139.200,276.792 139.200 C 275.912 139.200,274.218 137.076,273.847 135.510 C 273.630 134.591,273.227 134.316,271.295 133.764 C 268.369 132.929,267.376 131.999,266.786 129.543 C 266.249 127.304,265.533 126.406,264.271 126.387 C 262.559 126.363,261.409 124.789,260.681 121.478 C 259.794 117.439,259.706 95.302,260.562 91.314 C 260.855 89.947,261.029 88.732,260.947 88.614 C 260.866 88.496,260.899 88.469,261.020 88.554 C 261.286 88.739,263.478 86.693,263.347 86.383 C 263.297 86.264,263.821 86.123,264.512 86.070 C 266.005 85.956,266.290 85.575,266.647 83.210 C 266.942 81.261,268.595 79.202,269.869 79.198 C 272.060 79.191,273.512 78.392,273.763 77.057 C 274.447 73.411,277.261 72.816,293.880 72.807 C 302.110 72.802,307.083 72.962,308.480 73.277 C 309.646 73.539,310.748 73.714,310.930 73.667 C 311.739 73.454,314.300 76.017,314.300 77.040 C 314.300 78.312,314.849 78.693,317.190 79.047 C 319.552 79.404,320.996 80.848,321.353 83.210 C 321.697 85.489,321.978 85.916,323.242 86.085 C 324.061 86.195,327.392 89.200,326.694 89.200 C 326.590 89.200,326.749 90.235,327.046 91.500 C 327.890 95.085,327.817 117.487,326.949 121.302 C 326.242 124.412,325.038 126.053,323.109 126.537 C 322.196 126.766,321.913 127.183,321.364 129.105 C 320.529 132.031,319.599 133.024,317.143 133.614 C 315.013 134.125,313.835 134.994,314.153 135.822 C 314.263 136.108,314.095 136.555,313.781 136.816 C 313.466 137.077,313.310 137.455,313.434 137.655 C 313.558 137.856,313.421 137.970,313.130 137.910 C 312.836 137.849,312.660 138.068,312.733 138.400 C 312.807 138.730,312.733 138.867,312.570 138.703 C 312.407 138.540,312.017 138.620,311.703 138.880 C 311.390 139.140,310.833 139.388,310.467 139.431 C 309.478 139.547,303.870 140.481,303.355 140.616 C 303.102 140.683,302.791 142.173,302.635 144.067 C 302.195 149.433,301.560 151.103,299.060 153.472 C 296.903 155.517,296.886 155.551,296.621 158.465 C 295.841 167.036,294.896 169.728,292.431 170.392 C 290.776 170.837,290.823 170.750,290.201 174.543 C 290.062 175.391,289.752 176.561,289.512 177.143 C 289.273 177.724,289.029 178.434,288.971 178.721 C 288.654 180.274,285.575 183.079,284.748 182.568 C 284.579 182.463,284.324 183.058,284.182 183.889 C 283.398 188.484,282.443 189.792,279.534 190.257 C 278.284 190.457,277.945 190.704,277.759 191.552 C 276.952 195.221,275.569 196.795,273.152 196.799 C 272.207 196.800,272.084 196.977,271.902 198.594 C 271.583 201.425,270.793 202.282,267.999 202.832 C 266.064 203.213,265.555 203.473,265.419 204.153 C 264.904 206.733,264.747 207.196,264.200 207.743 C 263.870 208.073,262.605 208.467,261.389 208.619 C 258.984 208.919,258.400 209.483,258.400 211.504 C 258.400 213.083,256.986 214.303,254.579 214.799 C 253.491 215.023,252.082 215.321,251.449 215.460 C 250.767 215.610,250.033 216.178,249.649 216.854 C 249.292 217.481,248.866 217.996,248.701 217.997 C 248.537 217.999,247.689 218.644,246.818 219.432 C 245.449 220.669,244.750 220.949,241.674 221.494 C 239.027 221.963,237.990 222.325,237.628 222.904 C 237.233 223.536,237.242 223.632,237.670 223.412 C 237.962 223.263,237.888 223.397,237.506 223.710 C 237.125 224.023,236.945 224.411,237.106 224.573 C 237.268 224.734,237.220 224.830,237.000 224.786 C 236.780 224.742,236.510 224.740,236.400 224.783 C 236.290 224.826,235.903 224.919,235.540 224.989 C 235.176 225.060,234.366 225.494,233.740 225.954 C 232.394 226.942,229.251 227.599,225.845 227.603 C 222.533 227.608,219.176 228.038,219.417 228.427 C 219.525 228.602,219.427 228.860,219.200 229.000 C 218.973 229.140,218.874 229.397,218.981 229.569 C 219.088 229.742,218.731 230.301,218.188 230.812 C 217.644 231.322,217.200 231.596,217.200 231.421 C 217.200 231.245,216.930 231.326,216.600 231.600 C 216.270 231.874,216.000 231.981,216.000 231.839 C 216.000 231.696,215.460 231.859,214.800 232.200 C 212.620 233.327,209.516 233.672,198.910 233.967 C 188.335 234.260,186.156 234.634,187.005 236.008 C 187.107 236.174,186.923 236.532,186.596 236.804 C 186.268 237.076,186.000 237.173,186.000 237.020 C 186.000 236.867,185.522 237.118,184.937 237.578 C 182.655 239.373,179.067 239.910,166.514 240.334 C 158.415 240.608,156.558 241.037,157.421 242.434 C 157.504 242.568,157.038 243.189,156.386 243.814 C 155.734 244.438,155.200 244.804,155.200 244.626 C 155.200 244.448,154.975 244.478,154.700 244.693 C 153.999 245.241,151.245 245.847,146.800 246.429 C 144.710 246.703,142.868 247.123,142.706 247.363 C 142.280 247.997,142.335 248.488,142.800 248.200 C 143.500 247.767,143.231 248.249,142.331 249.038 C 141.853 249.457,141.593 249.577,141.752 249.305 C 141.948 248.970,141.840 248.886,141.421 249.047 C 141.079 249.178,140.800 249.520,140.800 249.807 C 140.800 250.453,138.539 252.400,137.789 252.400 C 135.508 252.400,133.200 253.310,133.200 254.210 C 133.200 254.728,133.017 255.266,132.793 255.404 C 132.570 255.542,132.474 255.797,132.581 255.969 C 132.688 256.142,132.331 256.701,131.788 257.212 C 131.244 257.722,130.800 257.982,130.800 257.790 C 130.800 257.597,130.584 257.656,130.320 257.920 C 130.056 258.184,129.492 258.400,129.066 258.400 C 127.544 258.400,125.163 259.327,125.361 259.843 C 125.727 260.796,123.454 263.272,122.536 262.920 C 122.232 262.803,122.000 262.979,122.000 263.326 C 122.000 263.663,121.460 264.478,120.800 265.138 C 120.140 265.798,119.600 266.523,119.600 266.749 C 119.600 266.975,119.314 267.320,118.964 267.516 C 118.614 267.712,118.344 267.991,118.364 268.136 C 118.384 268.281,118.265 268.413,118.100 268.428 C 117.935 268.444,117.656 268.714,117.480 269.028 C 117.304 269.343,116.907 269.600,116.597 269.600 C 115.993 269.600,114.000 272.697,114.000 273.635 C 114.000 274.376,111.693 276.195,110.318 276.537 C 109.150 276.828,108.407 278.588,108.402 281.071 C 108.399 282.640,106.947 283.903,104.740 284.256 C 103.244 284.495,103.200 284.550,103.190 286.151 C 103.159 291.631,101.392 295.617,98.564 296.587 C 97.090 297.093,96.986 297.237,96.752 299.090 C 96.451 301.482,95.862 302.663,94.800 303.000 C 94.360 303.140,94.000 303.399,94.000 303.577 C 94.000 303.754,93.386 304.570,92.635 305.389 C 91.001 307.174,90.142 307.116,86.597 304.981 C 84.475 303.704,84.012 303.592,79.859 303.358 C 75.042 303.086,73.878 302.660,73.082 300.879 C 72.712 300.050,72.554 275.632,72.400 195.402 L 72.200 91.003 69.995 90.728 C 68.782 90.576,67.286 90.261,66.669 90.026 C 66.052 89.792,65.200 89.600,64.774 89.600 C 63.661 89.600,60.800 86.607,60.800 85.443 C 60.800 84.592,59.890 83.773,59.119 83.930 C 57.142 84.333,53.238 79.957,54.193 78.411 C 54.485 77.939,52.831 76.400,52.033 76.400 C 51.629 76.400,51.076 76.132,50.804 75.804 C 50.532 75.477,50.122 75.325,49.893 75.466 C 49.664 75.608,49.593 75.535,49.736 75.304 C 49.879 75.073,49.753 74.791,49.456 74.677 C 47.802 74.042,46.832 48.162,48.164 40.200 C 48.519 38.077,50.578 35.964,52.339 35.914 C 53.373 35.885,53.660 35.681,53.848 34.839 C 54.576 31.584,54.919 30.765,55.864 30.021 C 56.438 29.570,57.109 29.199,57.354 29.198 C 58.536 29.192,60.814 28.301,60.729 27.878 C 60.295 25.702,62.634 23.718,66.064 23.352 C 67.239 23.226,68.275 23.051,68.367 22.962 C 68.752 22.588,93.642 22.830,95.645 23.228 M245.600 24.997 C 245.600 25.032,245.121 25.497,244.535 26.030 C 243.950 26.564,243.601 26.775,243.759 26.500 C 243.924 26.213,243.834 26.000,243.547 26.000 C 243.262 26.000,243.360 25.771,243.776 25.467 C 244.363 25.038,245.600 24.719,245.600 24.997 M246.687 26.856 C 245.957 27.400,245.649 27.924,245.793 28.376 C 245.934 28.823,245.797 29.067,245.406 29.067 C 245.073 29.067,244.800 28.882,244.800 28.655 C 244.800 28.096,246.845 25.997,247.375 26.013 C 247.609 26.020,247.299 26.399,246.687 26.856 M247.200 28.489 C 247.200 29.770,247.196 29.773,246.577 28.888 C 245.964 28.014,246.083 27.200,246.824 27.200 C 247.031 27.200,247.200 27.780,247.200 28.489 M243.200 29.267 C 243.200 30.723,243.025 30.670,242.649 29.100 C 242.492 28.447,242.550 28.000,242.792 28.000 C 243.017 28.000,243.200 28.570,243.200 29.267 M329.992 41.010 C 329.714 41.345,329.394 41.528,329.283 41.416 C 329.171 41.304,328.875 41.492,328.625 41.833 C 328.230 42.373,328.171 42.352,328.171 41.666 C 328.171 41.129,328.396 40.922,328.877 41.015 C 329.266 41.090,329.688 40.982,329.815 40.775 C 329.943 40.569,330.149 40.400,330.273 40.400 C 330.397 40.400,330.270 40.674,329.992 41.010 M330.962 41.643 C 330.543 42.107,329.660 42.850,329.000 43.295 C 328.301 43.765,328.552 43.420,329.600 42.468 C 331.572 40.678,332.152 40.327,330.962 41.643 M339.506 41.427 C 339.400 41.533,338.642 41.645,337.823 41.676 C 336.305 41.733,335.055 42.886,335.228 44.068 C 335.574 46.416,334.407 47.511,331.301 47.756 C 328.909 47.944,328.666 49.033,328.666 59.600 C 328.666 70.477,328.832 71.132,331.691 71.540 C 332.832 71.702,346.651 71.797,349.711 71.663 C 351.112 71.602,352.884 69.877,352.766 68.691 C 352.516 66.196,353.484 65.298,356.693 65.045 C 357.184 65.006,357.814 64.729,358.093 64.428 C 358.508 63.981,358.492 63.942,358.000 64.210 C 357.549 64.456,357.570 64.343,358.082 63.757 C 358.457 63.328,358.790 62.622,358.823 62.189 C 359.021 59.559,359.168 42.848,358.999 42.121 C 358.806 41.290,340.302 40.631,339.506 41.427 M332.835 43.135 C 332.329 44.080,330.485 45.601,329.846 45.599 C 329.601 45.598,329.989 45.238,330.708 44.799 C 331.428 44.361,332.222 43.551,332.473 42.999 C 332.724 42.448,333.005 42.072,333.097 42.164 C 333.189 42.256,333.071 42.693,332.835 43.135 M362.400 66.420 C 362.400 66.615,362.128 66.670,361.795 66.543 C 360.957 66.221,359.904 67.191,360.135 68.072 C 360.239 68.472,360.138 68.800,359.910 68.800 C 359.663 68.800,359.583 69.340,359.712 70.134 C 360.059 72.276,359.845 72.362,354.046 72.424 C 347.549 72.493,347.200 72.694,347.200 76.367 C 347.200 77.886,347.379 78.806,347.700 78.935 C 348.100 79.096,348.100 79.143,347.700 79.168 C 346.731 79.230,347.012 95.012,348.000 96.000 C 348.967 96.967,355.764 97.218,356.136 96.300 C 356.297 95.905,356.415 95.908,356.704 96.317 C 357.142 96.939,365.863 96.945,366.247 96.323 C 366.379 96.110,366.945 96.050,367.505 96.191 C 369.707 96.743,372.066 94.497,371.420 92.463 C 371.281 92.025,371.358 91.550,371.590 91.406 C 371.823 91.262,371.937 91.022,371.844 90.872 C 371.751 90.723,373.053 90.600,374.737 90.600 L 377.800 90.600 377.881 80.418 C 377.930 74.302,377.807 70.050,377.574 69.769 C 377.361 69.512,377.283 69.048,377.402 68.739 C 377.716 67.921,376.672 66.692,375.560 66.571 C 375.032 66.514,374.600 66.432,374.600 66.389 C 374.600 66.347,371.855 66.256,368.500 66.188 C 365.121 66.120,362.400 66.223,362.400 66.420 M372.400 68.000 C 372.400 68.220,371.995 68.397,371.500 68.394 C 370.772 68.389,370.715 68.314,371.200 68.000 C 371.976 67.499,372.400 67.499,372.400 68.000 M375.438 68.493 C 375.947 69.090,375.983 69.219,375.547 68.883 C 375.013 68.472,374.852 68.487,374.669 68.965 C 374.536 69.310,374.722 69.623,375.122 69.729 C 375.718 69.886,375.721 69.913,375.149 69.954 C 374.791 69.979,374.251 69.695,373.949 69.323 C 373.576 68.863,373.560 68.743,373.900 68.947 C 374.352 69.219,374.585 68.773,374.447 67.900 C 374.368 67.396,374.641 67.560,375.438 68.493 M373.396 71.196 C 374.026 71.854,374.444 72.489,374.325 72.608 C 374.206 72.727,373.810 72.369,373.445 71.812 C 373.080 71.256,372.561 70.805,372.291 70.812 C 372.021 70.819,372.115 71.008,372.500 71.232 C 373.517 71.824,373.357 72.400,372.176 72.400 C 371.455 72.400,371.246 72.252,371.470 71.900 C 371.916 71.198,371.896 70.649,371.413 70.306 C 371.165 70.130,371.250 70.010,371.625 70.006 C 371.969 70.003,372.766 70.538,373.396 71.196 M251.634 81.379 C 252.340 80.943,251.990 81.470,250.935 82.430 C 250.350 82.964,250.001 83.175,250.159 82.900 C 250.318 82.625,250.257 82.400,250.024 82.400 C 249.791 82.400,249.915 82.078,250.300 81.683 C 250.685 81.289,251.060 81.110,251.134 81.286 C 251.208 81.461,251.433 81.503,251.634 81.379 M254.000 82.141 C 254.000 82.411,251.591 84.800,251.318 84.800 C 251.167 84.800,251.654 84.170,252.400 83.400 C 253.693 82.066,254.000 81.824,254.000 82.141 M253.703 84.349 C 253.853 84.926,253.726 85.053,253.149 84.903 C 252.375 84.700,252.203 84.330,252.667 83.867 C 253.130 83.403,253.500 83.575,253.703 84.349 M371.200 93.618 C 371.200 94.221,369.331 96.003,368.718 95.984 C 368.433 95.975,368.683 95.706,369.273 95.386 C 369.862 95.065,370.460 94.443,370.599 94.002 C 370.872 93.142,371.200 92.933,371.200 93.618 M104.400 97.176 C 104.400 97.717,103.671 98.091,103.193 97.796 C 102.970 97.658,102.891 97.377,103.017 97.172 C 103.317 96.687,104.400 96.690,104.400 97.176 M104.614 97.986 C 103.560 99.086,102.800 99.255,102.800 98.389 C 102.800 98.189,103.059 98.125,103.376 98.246 C 103.702 98.371,104.177 98.106,104.472 97.633 C 104.758 97.175,105.163 96.800,105.371 96.800 C 105.579 96.800,105.238 97.334,104.614 97.986 M106.600 98.800 C 106.464 99.020,106.543 99.200,106.776 99.200 C 107.009 99.200,106.885 99.523,106.500 99.917 C 106.115 100.311,105.740 100.490,105.666 100.314 C 105.592 100.139,105.322 100.115,105.066 100.262 C 104.810 100.409,105.036 100.050,105.570 99.465 C 106.549 98.390,107.056 98.063,106.600 98.800 M353.781 104.105 C 353.670 104.394,353.629 108.493,353.690 113.215 L 353.800 121.800 369.000 121.800 L 384.200 121.800 384.200 112.800 L 384.200 103.800 369.091 103.691 C 356.924 103.603,353.943 103.683,353.781 104.105 M299.200 184.525 C 299.200 184.594,298.615 185.179,297.900 185.825 L 296.600 187.000 297.775 185.700 C 298.870 184.488,299.200 184.216,299.200 184.525 M213.480 192.639 C 212.864 192.973,212.010 193.821,211.581 194.523 C 211.153 195.225,210.802 195.557,210.801 195.260 C 210.800 194.551,213.366 191.995,214.060 192.016 C 214.357 192.025,214.096 192.305,213.480 192.639 M215.066 194.557 C 214.442 195.067,213.588 196.005,213.169 196.642 C 212.749 197.279,212.404 197.575,212.403 197.300 C 212.400 196.759,215.407 193.591,215.900 193.614 C 216.065 193.622,215.690 194.046,215.066 194.557 M216.124 195.300 C 215.593 196.011,215.703 196.768,216.400 197.208 C 216.911 197.532,216.897 197.589,216.300 197.594 C 215.915 197.597,215.600 197.430,215.600 197.223 C 215.600 197.016,215.211 196.921,214.735 197.012 C 213.939 197.166,213.961 197.085,215.010 195.990 C 216.166 194.783,216.807 194.386,216.124 195.300 M159.378 207.487 C 159.500 207.804,159.414 207.932,159.178 207.786 C 158.951 207.646,158.458 207.772,158.082 208.066 C 157.483 208.535,157.460 208.523,157.897 207.963 C 158.170 207.613,158.305 207.238,158.197 207.130 C 158.088 207.022,158.262 206.933,158.583 206.933 C 158.903 206.933,159.261 207.183,159.378 207.487 M97.600 310.132 C 100.469 310.599,102.761 312.777,102.439 314.730 C 102.272 315.742,103.283 316.400,105.005 316.400 C 107.498 316.400,108.456 317.340,108.702 320.025 C 108.937 322.588,109.329 323.198,110.749 323.206 C 114.985 323.230,115.792 327.207,115.464 346.468 C 115.169 363.793,114.859 365.003,110.743 364.886 C 109.309 364.845,108.959 365.365,108.665 367.976 C 108.363 370.655,107.819 371.232,105.341 371.497 C 103.122 371.734,102.321 372.219,102.485 373.226 C 102.643 374.190,100.980 376.346,99.673 376.872 C 96.327 378.220,66.489 378.228,63.152 376.882 C 61.860 376.361,60.002 374.060,60.283 373.329 C 60.645 372.384,59.574 371.600,57.920 371.600 C 55.611 371.600,54.000 369.907,54.000 367.480 C 54.000 365.619,53.263 364.537,52.257 364.923 C 50.444 365.619,48.021 362.555,47.662 359.112 C 46.995 352.713,47.415 327.782,48.224 325.800 C 48.777 324.446,51.094 322.990,52.439 323.152 C 53.388 323.267,53.871 322.427,54.104 320.255 C 54.368 317.785,55.307 316.833,57.833 316.471 C 59.790 316.192,59.798 316.185,60.198 314.304 C 60.841 311.287,62.014 310.424,66.030 310.014 C 69.223 309.689,95.473 309.787,97.600 310.132 M37.644 317.358 C 37.118 317.650,36.450 318.318,36.158 318.844 C 35.867 319.370,35.622 319.567,35.614 319.282 C 35.596 318.610,37.410 316.796,38.082 316.814 C 38.367 316.822,38.170 317.067,37.644 317.358 " stroke="none" fill="#8c6c9c" fill-rule="evenodd"></path><path id="path3" d="M68.367 22.962 C 68.275 23.051,67.239 23.226,66.064 23.352 C 62.634 23.718,60.295 25.702,60.729 27.878 C 60.814 28.301,58.536 29.192,57.354 29.198 C 57.109 29.199,56.438 29.570,55.864 30.021 C 54.919 30.765,54.576 31.584,53.848 34.839 C 53.660 35.681,53.373 35.885,52.339 35.914 C 50.578 35.964,48.519 38.077,48.164 40.200 C 46.832 48.162,47.802 74.042,49.456 74.677 C 49.753 74.791,49.879 75.073,49.736 75.304 C 49.593 75.535,49.664 75.608,49.893 75.466 C 50.122 75.325,50.532 75.477,50.804 75.804 C 51.076 76.132,51.629 76.400,52.033 76.400 C 52.831 76.400,54.485 77.939,54.193 78.411 C 53.238 79.957,57.142 84.333,59.119 83.930 C 59.890 83.773,60.800 84.592,60.800 85.443 C 60.800 86.607,63.661 89.600,64.774 89.600 C 65.200 89.600,66.052 89.792,66.669 90.026 C 67.286 90.261,68.782 90.576,69.995 90.728 L 72.200 91.003 72.400 195.402 C 72.554 275.632,72.712 300.050,73.082 300.879 C 73.878 302.660,75.042 303.086,79.859 303.358 C 84.012 303.592,84.475 303.704,86.597 304.981 C 90.142 307.116,91.001 307.174,92.635 305.389 C 93.386 304.570,94.000 303.754,94.000 303.577 C 94.000 303.399,94.360 303.140,94.800 303.000 C 95.862 302.663,96.451 301.482,96.752 299.090 C 96.986 297.237,97.090 297.093,98.564 296.587 C 101.392 295.617,103.159 291.631,103.190 286.151 C 103.200 284.550,103.244 284.495,104.740 284.256 C 106.947 283.903,108.399 282.640,108.402 281.071 C 108.407 278.588,109.150 276.828,110.318 276.537 C 111.693 276.195,114.000 274.376,114.000 273.635 C 114.000 272.697,115.993 269.600,116.597 269.600 C 116.907 269.600,117.304 269.343,117.480 269.028 C 117.656 268.714,117.935 268.444,118.100 268.428 C 118.265 268.413,118.384 268.281,118.364 268.136 C 118.344 267.991,118.614 267.712,118.964 267.516 C 119.314 267.320,119.600 266.975,119.600 266.749 C 119.600 266.523,120.140 265.798,120.800 265.138 C 121.460 264.478,122.000 263.663,122.000 263.326 C 122.000 262.979,122.232 262.803,122.536 262.920 C 123.454 263.272,125.727 260.796,125.361 259.843 C 125.163 259.327,127.544 258.400,129.066 258.400 C 129.492 258.400,130.056 258.184,130.320 257.920 C 130.584 257.656,130.800 257.597,130.800 257.790 C 130.800 257.982,131.244 257.722,131.788 257.212 C 132.331 256.701,132.688 256.142,132.581 255.969 C 132.474 255.797,132.570 255.542,132.793 255.404 C 133.017 255.266,133.200 254.728,133.200 254.210 C 133.200 253.310,135.508 252.400,137.789 252.400 C 138.539 252.400,140.800 250.453,140.800 249.807 C 140.800 249.520,141.079 249.178,141.421 249.047 C 141.840 248.886,141.948 248.970,141.752 249.305 C 141.593 249.577,141.853 249.457,142.331 249.038 C 143.231 248.249,143.500 247.767,142.800 248.200 C 142.335 248.488,142.280 247.997,142.706 247.363 C 142.868 247.123,144.710 246.703,146.800 246.429 C 151.245 245.847,153.999 245.241,154.700 244.693 C 154.975 244.478,155.200 244.448,155.200 244.626 C 155.200 244.804,155.734 244.438,156.386 243.814 C 157.038 243.189,157.504 242.568,157.421 242.434 C 156.558 241.037,158.415 240.608,166.514 240.334 C 179.067 239.910,182.655 239.373,184.937 237.578 C 185.522 237.118,186.000 236.867,186.000 237.020 C 186.000 237.173,186.268 237.076,186.596 236.804 C 186.923 236.532,187.107 236.174,187.005 236.008 C 186.156 234.634,188.335 234.260,198.910 233.967 C 209.516 233.672,212.620 233.327,214.800 232.200 C 215.460 231.859,216.000 231.696,216.000 231.839 C 216.000 231.981,216.270 231.874,216.600 231.600 C 216.930 231.326,217.200 231.245,217.200 231.421 C 217.200 231.596,217.644 231.322,218.188 230.812 C 218.731 230.301,219.088 229.742,218.981 229.569 C 218.874 229.397,218.973 229.140,219.200 229.000 C 219.427 228.860,219.525 228.602,219.417 228.427 C 219.176 228.038,222.533 227.608,225.845 227.603 C 229.251 227.599,232.394 226.942,233.740 225.954 C 234.366 225.494,235.176 225.060,235.540 224.989 C 235.903 224.919,236.290 224.826,236.400 224.783 C 236.510 224.740,236.780 224.742,237.000 224.786 C 237.220 224.830,237.268 224.734,237.106 224.573 C 236.945 224.411,237.125 224.023,237.506 223.710 C 237.888 223.397,237.962 223.263,237.670 223.412 C 237.242 223.632,237.233 223.536,237.628 222.904 C 237.990 222.325,239.027 221.963,241.674 221.494 C 244.750 220.949,245.449 220.669,246.818 219.432 C 247.689 218.644,248.537 217.999,248.701 217.997 C 248.866 217.996,249.292 217.481,249.649 216.854 C 250.033 216.178,250.767 215.610,251.449 215.460 C 252.082 215.321,253.491 215.023,254.579 214.799 C 256.986 214.303,258.400 213.083,258.400 211.504 C 258.400 209.483,258.984 208.919,261.389 208.619 C 262.605 208.467,263.870 208.073,264.200 207.743 C 264.747 207.196,264.904 206.733,265.419 204.153 C 265.555 203.473,266.064 203.213,267.999 202.832 C 270.793 202.282,271.583 201.425,271.902 198.594 C 272.084 196.977,272.207 196.800,273.152 196.799 C 275.569 196.795,276.952 195.221,277.759 191.552 C 277.945 190.704,278.284 190.457,279.534 190.257 C 282.443 189.792,283.398 188.484,284.182 183.889 C 284.324 183.058,284.579 182.463,284.748 182.568 C 285.575 183.079,288.654 180.274,288.971 178.721 C 289.029 178.434,289.273 177.724,289.512 177.143 C 289.752 176.561,290.062 175.391,290.201 174.543 C 290.823 170.750,290.776 170.837,292.431 170.392 C 294.896 169.728,295.841 167.036,296.621 158.465 C 296.886 155.551,296.903 155.517,299.060 153.472 C 301.560 151.103,302.195 149.433,302.635 144.067 C 302.791 142.173,303.102 140.683,303.355 140.616 C 303.870 140.481,309.478 139.547,310.467 139.431 C 310.833 139.388,311.390 139.140,311.703 138.880 C 312.017 138.620,312.407 138.540,312.570 138.703 C 312.733 138.867,312.807 138.730,312.733 138.400 C 312.660 138.068,312.836 137.849,313.130 137.910 C 313.421 137.970,313.558 137.856,313.434 137.655 C 313.310 137.455,313.466 137.077,313.781 136.816 C 314.095 136.555,314.263 136.108,314.153 135.822 C 313.835 134.994,315.013 134.125,317.143 133.614 C 319.599 133.024,320.529 132.031,321.364 129.105 C 321.913 127.183,322.196 126.766,323.109 126.537 C 325.038 126.053,326.242 124.412,326.949 121.302 C 327.817 117.487,327.890 95.085,327.046 91.500 C 326.749 90.235,326.590 89.200,326.694 89.200 C 327.392 89.200,324.061 86.195,323.242 86.085 C 321.978 85.916,321.697 85.489,321.353 83.210 C 320.996 80.848,319.552 79.404,317.190 79.047 C 314.849 78.693,314.300 78.312,314.300 77.040 C 314.300 76.017,311.739 73.454,310.930 73.667 C 310.748 73.714,309.646 73.539,308.480 73.277 C 307.083 72.962,302.110 72.802,293.880 72.807 C 277.261 72.816,274.447 73.411,273.763 77.057 C 273.512 78.392,272.060 79.191,269.869 79.198 C 268.595 79.202,266.942 81.261,266.647 83.210 C 266.290 85.575,266.005 85.956,264.512 86.070 C 263.821 86.123,263.297 86.264,263.347 86.383 C 263.478 86.693,261.286 88.739,261.020 88.554 C 260.899 88.469,260.866 88.496,260.947 88.614 C 261.029 88.732,260.855 89.947,260.562 91.314 C 259.706 95.302,259.794 117.439,260.681 121.478 C 261.409 124.789,262.559 126.363,264.271 126.387 C 265.533 126.406,266.249 127.304,266.786 129.543 C 267.376 131.999,268.369 132.929,271.295 133.764 C 273.227 134.316,273.630 134.591,273.847 135.510 C 274.218 137.076,275.912 139.200,276.792 139.200 C 278.809 139.200,279.113 141.010,278.542 149.632 L 278.288 153.464 276.601 153.915 C 273.939 154.627,273.382 155.940,272.499 163.583 L 272.200 166.166 270.613 166.495 C 268.420 166.949,267.313 168.129,266.807 170.554 C 266.201 173.449,265.921 173.776,263.876 173.969 C 263.698 173.986,263.681 174.208,263.838 174.462 C 264.008 174.737,263.949 174.815,263.691 174.656 C 263.119 174.303,261.221 175.981,261.031 177.008 C 260.808 178.212,259.172 180.830,258.790 180.594 C 258.607 180.481,258.344 180.746,258.205 181.184 C 258.066 181.621,257.427 182.354,256.784 182.812 C 256.141 183.269,255.651 183.769,255.696 183.922 C 255.841 184.415,253.018 186.979,252.460 186.861 C 252.121 186.789,252.034 186.931,252.225 187.241 C 252.440 187.588,252.329 187.658,251.857 187.477 C 250.956 187.131,249.531 188.556,249.877 189.457 C 250.067 189.951,249.993 190.043,249.600 189.800 C 249.205 189.556,249.133 189.649,249.328 190.156 C 249.614 190.901,247.969 191.816,245.828 192.103 C 244.353 192.300,242.203 194.451,242.088 195.846 C 241.973 197.230,241.605 197.457,238.934 197.791 C 236.664 198.075,235.577 198.764,232.539 201.847 C 231.002 203.407,230.642 203.568,227.739 203.989 C 226.012 204.240,223.700 204.742,222.600 205.105 C 221.500 205.468,220.479 205.733,220.332 205.693 C 220.041 205.615,217.884 207.964,217.318 208.975 C 217.033 209.485,215.495 209.668,208.785 209.992 C 195.130 210.650,193.167 210.942,190.900 212.657 C 190.185 213.198,189.600 213.520,189.600 213.371 C 189.600 213.223,189.332 213.324,189.004 213.596 C 188.677 213.868,188.493 214.226,188.595 214.392 C 189.448 215.772,187.287 216.132,176.294 216.445 C 170.302 216.616,164.410 216.935,163.200 217.154 C 159.295 217.862,158.388 218.097,158.164 218.458 C 158.043 218.653,157.803 218.726,157.631 218.619 C 157.458 218.512,156.885 218.898,156.358 219.477 C 155.831 220.056,155.621 220.402,155.892 220.246 C 156.182 220.079,156.103 220.452,155.702 221.151 C 155.041 222.304,154.908 222.346,151.210 222.588 C 145.820 222.940,142.122 223.571,141.573 224.232 C 141.314 224.545,140.756 224.800,140.333 224.800 C 139.910 224.800,139.133 225.231,138.606 225.758 C 138.079 226.284,137.548 226.614,137.424 226.491 C 137.301 226.368,137.200 226.747,137.200 227.333 C 137.200 227.920,136.975 228.406,136.700 228.414 C 133.951 228.491,129.765 229.672,128.685 230.676 C 128.020 231.294,127.603 231.577,127.759 231.305 C 127.949 230.972,127.838 230.887,127.423 231.046 C 127.083 231.177,126.904 231.445,127.026 231.642 C 127.227 231.967,126.666 232.168,125.900 232.047 C 125.735 232.021,125.621 232.135,125.647 232.300 C 125.776 233.116,125.556 233.620,125.173 233.383 C 124.917 233.225,124.797 233.415,124.873 233.859 C 124.977 234.464,124.562 234.701,122.600 235.158 C 117.972 236.235,117.076 236.900,116.598 239.611 C 116.264 241.505,116.147 241.600,114.146 241.600 C 111.944 241.600,110.004 243.221,109.994 245.069 C 109.985 246.699,109.595 247.107,107.628 247.549 C 105.253 248.083,103.964 249.451,103.709 251.707 C 103.512 253.454,103.460 253.513,101.938 253.718 C 99.104 254.098,98.282 255.042,97.428 258.900 C 97.294 259.505,96.922 260.000,96.600 260.000 C 94.050 260.000,91.600 262.419,91.600 264.937 C 91.600 265.496,91.420 266.064,91.200 266.200 C 90.934 266.365,90.800 237.133,90.800 178.811 C 90.800 109.041,90.902 91.147,91.300 91.040 C 91.575 90.965,92.880 90.685,94.200 90.417 C 95.520 90.149,97.408 89.763,98.394 89.559 C 100.664 89.091,101.602 88.153,101.881 86.073 C 102.112 84.349,102.379 84.164,105.710 83.426 C 107.249 83.085,108.400 81.815,108.400 80.460 C 108.400 78.245,109.149 76.899,110.525 76.640 C 112.780 76.215,113.957 74.803,114.605 71.743 C 115.422 67.888,115.437 45.262,114.625 41.810 C 114.316 40.496,114.143 39.292,114.241 39.133 C 114.492 38.728,111.765 36.075,111.127 36.103 C 109.579 36.171,109.215 35.917,108.821 34.500 C 108.592 33.675,108.403 32.518,108.402 31.929 C 108.399 30.537,106.906 29.367,104.705 29.034 C 102.457 28.695,101.989 28.358,101.827 26.965 C 101.752 26.324,101.671 25.686,101.646 25.546 C 101.567 25.110,99.472 23.877,98.616 23.763 C 98.167 23.704,96.830 23.463,95.645 23.228 C 93.642 22.830,68.752 22.588,68.367 22.962 M89.800 24.443 C 93.708 24.922,94.750 25.333,96.637 27.139 C 97.317 27.790,98.757 28.792,99.837 29.365 C 104.356 31.764,106.400 33.242,106.400 34.108 C 106.400 34.311,106.776 35.004,107.235 35.650 C 107.695 36.295,108.250 37.472,108.469 38.264 C 108.688 39.057,109.629 40.479,110.562 41.425 C 115.292 46.222,115.338 66.695,110.631 71.642 C 109.876 72.436,108.873 73.903,108.403 74.904 C 107.933 75.904,107.200 77.038,106.774 77.423 C 106.348 77.809,106.000 78.309,106.000 78.536 C 106.000 79.063,104.379 80.800,103.888 80.800 C 103.683 80.800,102.970 81.259,102.304 81.819 C 101.638 82.380,100.352 83.215,99.447 83.676 C 98.541 84.137,97.260 85.148,96.600 85.923 C 95.929 86.711,94.305 87.831,92.916 88.463 C 91.549 89.085,90.199 90.000,89.916 90.497 C 89.209 91.734,88.933 264.789,89.634 266.483 C 90.478 268.519,90.980 268.569,92.657 266.787 C 93.506 265.886,95.211 264.125,96.447 262.874 C 97.683 261.623,98.979 260.042,99.327 259.359 C 99.930 258.177,101.520 256.644,103.766 255.082 C 104.334 254.687,105.089 253.787,105.444 253.082 C 106.227 251.526,108.378 249.200,109.032 249.200 C 109.499 249.200,111.578 246.986,112.845 245.140 C 113.199 244.623,114.807 243.500,116.417 242.645 C 118.027 241.789,119.778 240.574,120.308 239.944 C 121.420 238.623,125.614 236.201,127.453 235.818 C 128.141 235.675,129.041 235.189,129.453 234.739 C 132.273 231.652,132.743 231.344,136.243 230.275 C 138.199 229.678,140.086 229.192,140.436 229.195 C 140.786 229.198,141.928 228.392,142.973 227.405 C 145.169 225.330,145.628 225.184,154.200 223.823 C 159.636 222.961,161.014 222.591,163.349 221.372 C 166.886 219.526,171.610 218.606,181.657 217.806 C 190.893 217.071,195.462 216.286,198.001 215.000 C 200.464 213.751,205.109 212.595,210.800 211.815 C 220.296 210.512,222.132 210.051,223.751 208.568 C 225.769 206.719,226.167 206.541,230.735 205.435 C 235.448 204.294,236.139 203.966,237.038 202.443 C 237.680 201.357,242.277 198.431,244.310 197.815 C 244.810 197.664,246.264 196.456,247.540 195.132 C 249.274 193.333,250.396 192.543,251.984 192.006 C 253.810 191.387,254.230 191.042,254.981 189.543 C 255.577 188.355,256.564 187.329,258.082 186.319 C 259.542 185.348,260.457 184.413,260.739 183.602 C 261.432 181.615,262.751 180.041,264.450 179.175 C 265.398 178.691,266.187 177.933,266.419 177.284 C 267.370 174.616,269.541 171.037,271.102 169.561 C 273.246 167.534,273.784 166.485,274.532 162.867 C 275.149 159.887,275.529 159.151,277.111 157.865 C 278.765 156.521,279.548 154.260,280.408 148.342 C 280.866 145.184,281.336 142.280,281.451 141.890 C 281.817 140.650,278.379 134.474,277.069 134.015 C 273.078 132.620,269.012 128.649,266.403 123.600 C 266.119 123.050,265.217 121.866,264.398 120.968 C 261.797 118.117,261.412 116.244,261.408 106.400 C 261.403 96.228,261.840 94.060,264.384 91.615 C 265.224 90.808,266.383 89.259,266.960 88.174 C 269.316 83.736,270.842 81.600,271.656 81.600 C 272.162 81.600,276.853 78.546,278.552 77.111 C 279.406 76.390,280.486 75.597,280.952 75.349 C 283.189 74.159,295.830 73.609,302.410 74.415 C 306.799 74.953,307.005 75.026,308.843 76.686 C 310.282 77.987,313.581 80.173,316.035 81.454 C 317.744 82.346,318.487 83.345,321.047 88.200 C 321.628 89.300,322.681 90.740,323.389 91.400 C 327.508 95.240,327.444 118.387,323.308 121.097 C 322.748 121.464,322.027 122.402,321.704 123.182 C 321.381 123.962,320.506 125.455,319.758 126.501 C 319.011 127.546,318.400 128.525,318.400 128.675 C 318.400 129.050,316.729 130.800,316.370 130.800 C 316.211 130.800,315.168 131.414,314.052 132.165 C 312.936 132.916,311.385 133.741,310.605 133.998 C 309.723 134.290,308.959 134.907,308.585 135.629 C 307.997 136.766,305.428 138.400,304.230 138.400 C 302.891 138.400,300.955 140.715,300.288 143.114 C 299.927 144.411,298.988 146.429,298.200 147.600 C 296.719 149.801,296.073 151.803,294.984 157.571 C 294.296 161.211,293.705 162.617,291.941 164.813 C 291.316 165.591,290.175 168.098,289.405 170.385 C 287.995 174.571,287.066 176.025,285.171 177.011 C 284.498 177.362,283.965 178.140,283.628 179.263 C 282.563 182.819,280.773 185.969,278.985 187.434 C 278.015 188.228,276.499 190.023,275.615 191.423 C 274.731 192.822,273.601 194.177,273.104 194.433 C 271.843 195.082,270.000 196.855,270.000 197.421 C 270.000 198.336,268.377 199.936,266.206 201.162 C 264.845 201.930,263.626 203.009,263.002 203.997 C 262.448 204.874,261.231 206.087,260.298 206.692 C 259.364 207.297,258.510 207.905,258.400 208.042 C 258.290 208.180,257.800 208.417,257.310 208.570 C 256.821 208.722,256.046 209.373,255.588 210.016 C 254.625 211.369,250.575 213.730,248.096 214.384 C 246.880 214.704,245.725 215.502,244.065 217.167 C 241.822 219.417,241.603 219.533,237.983 220.383 C 233.620 221.407,233.036 221.672,231.339 223.397 C 229.995 224.765,227.379 225.459,217.844 226.979 C 215.668 227.326,213.487 227.833,212.998 228.105 C 207.428 231.202,205.510 231.651,193.800 232.598 C 183.947 233.395,179.717 234.131,176.883 235.543 C 173.957 236.999,170.679 237.793,164.200 238.615 C 157.661 239.444,153.051 240.492,152.201 241.342 C 150.568 242.974,147.782 244.108,141.731 245.602 C 140.496 245.907,139.650 246.505,138.471 247.907 C 137.193 249.427,136.104 250.150,132.940 251.578 C 130.755 252.563,128.644 253.807,128.200 254.371 C 126.704 256.270,124.611 258.032,123.604 258.240 C 121.930 258.586,121.445 259.004,120.428 260.981 C 119.686 262.422,118.934 263.169,117.286 264.099 C 115.654 265.020,114.937 265.726,114.382 266.961 C 113.416 269.110,112.556 270.088,110.536 271.337 C 109.317 272.089,108.796 272.718,108.590 273.683 C 108.160 275.692,105.652 279.938,104.313 280.923 C 102.927 281.942,101.914 283.798,101.238 286.560 C 100.597 289.177,99.878 290.492,98.188 292.133 C 97.198 293.094,96.473 294.410,95.753 296.551 C 94.940 298.969,94.396 299.883,93.126 300.971 L 91.523 302.343 84.862 302.129 C 79.868 301.969,77.850 301.751,76.800 301.258 C 73.978 299.932,74.221 309.168,74.000 194.782 C 73.775 78.667,74.119 89.834,70.740 88.838 C 69.566 88.491,68.398 87.688,67.149 86.369 C 66.131 85.294,64.511 84.065,63.549 83.639 C 59.736 81.951,58.002 80.379,55.787 76.600 C 54.626 74.620,53.053 72.280,52.292 71.400 C 49.316 67.963,48.530 63.660,48.929 53.000 C 49.199 45.763,49.794 43.484,52.032 41.105 C 52.914 40.167,54.393 38.127,55.318 36.570 C 57.739 32.497,58.266 31.946,61.600 30.006 C 63.250 29.047,65.140 27.774,65.800 27.179 C 69.004 24.288,79.120 23.135,89.800 24.443 M243.776 25.467 C 243.360 25.771,243.262 26.000,243.547 26.000 C 243.834 26.000,243.924 26.213,243.759 26.500 C 243.601 26.775,243.950 26.564,244.535 26.030 C 245.929 24.761,245.340 24.323,243.776 25.467 M245.875 27.122 C 244.669 28.380,244.504 29.067,245.406 29.067 C 245.797 29.067,245.934 28.823,245.793 28.376 C 245.649 27.924,245.957 27.400,246.687 26.856 C 247.299 26.399,247.609 26.020,247.375 26.013 C 247.141 26.006,246.466 26.505,245.875 27.122 M246.200 27.599 C 246.065 27.819,246.234 28.399,246.577 28.888 C 247.196 29.773,247.200 29.770,247.200 28.489 C 247.200 27.236,246.700 26.791,246.200 27.599 M241.247 30.300 C 241.286 32.193,241.349 32.388,241.600 31.400 C 242.054 29.617,242.054 28.000,241.600 28.000 C 241.374 28.000,241.221 29.002,241.247 30.300 M242.649 29.100 C 243.025 30.670,243.200 30.723,243.200 29.267 C 243.200 28.570,243.017 28.000,242.792 28.000 C 242.550 28.000,242.492 28.447,242.649 29.100 M329.815 40.775 C 329.688 40.982,329.266 41.090,328.877 41.015 C 328.396 40.922,328.171 41.129,328.171 41.666 C 328.171 42.352,328.230 42.373,328.625 41.833 C 328.875 41.492,329.171 41.304,329.283 41.416 C 329.394 41.528,329.714 41.345,329.992 41.010 C 330.270 40.674,330.397 40.400,330.273 40.400 C 330.149 40.400,329.943 40.569,329.815 40.775 M329.600 42.468 C 328.552 43.420,328.301 43.765,329.000 43.295 C 330.104 42.551,331.938 40.777,331.562 40.817 C 331.473 40.826,330.590 41.570,329.600 42.468 M332.473 42.999 C 332.222 43.551,331.428 44.361,330.708 44.799 C 329.989 45.238,329.601 45.598,329.846 45.599 C 330.874 45.602,333.627 42.694,333.097 42.164 C 333.005 42.072,332.724 42.448,332.473 42.999 M369.900 66.282 C 370.395 66.378,371.205 66.378,371.700 66.282 C 372.195 66.187,371.790 66.109,370.800 66.109 C 369.810 66.109,369.405 66.187,369.900 66.282 M371.200 68.000 C 370.715 68.314,370.772 68.389,371.500 68.394 C 371.995 68.397,372.400 68.220,372.400 68.000 C 372.400 67.499,371.976 67.499,371.200 68.000 M374.447 67.900 C 374.585 68.773,374.352 69.219,373.900 68.947 C 373.560 68.743,373.576 68.863,373.949 69.323 C 374.251 69.695,374.791 69.979,375.149 69.954 C 375.721 69.913,375.718 69.886,375.122 69.729 C 374.722 69.623,374.536 69.310,374.669 68.965 C 374.852 68.487,375.013 68.472,375.547 68.883 C 375.983 69.219,375.947 69.090,375.438 68.493 C 374.641 67.560,374.368 67.396,374.447 67.900 M371.413 70.306 C 371.896 70.649,371.916 71.198,371.470 71.900 C 371.246 72.252,371.455 72.400,372.176 72.400 C 373.357 72.400,373.517 71.824,372.500 71.232 C 372.115 71.008,372.021 70.819,372.291 70.812 C 372.561 70.805,373.080 71.256,373.445 71.812 C 373.810 72.369,374.206 72.727,374.325 72.608 C 374.668 72.265,372.318 69.999,371.625 70.006 C 371.250 70.010,371.165 70.130,371.413 70.306 M250.300 81.683 C 249.915 82.078,249.791 82.400,250.024 82.400 C 250.257 82.400,250.318 82.625,250.159 82.900 C 250.001 83.175,250.350 82.964,250.935 82.430 C 251.990 81.470,252.340 80.943,251.634 81.379 C 251.433 81.503,251.208 81.461,251.134 81.286 C 251.060 81.110,250.685 81.289,250.300 81.683 M252.400 83.400 C 251.654 84.170,251.167 84.800,251.318 84.800 C 251.591 84.800,254.000 82.411,254.000 82.141 C 254.000 81.824,253.693 82.066,252.400 83.400 M252.667 83.867 C 252.203 84.330,252.375 84.700,253.149 84.903 C 253.726 85.053,253.853 84.926,253.703 84.349 C 253.500 83.575,253.130 83.403,252.667 83.867 M370.599 94.002 C 370.460 94.443,369.862 95.065,369.273 95.386 C 368.683 95.706,368.433 95.975,368.718 95.984 C 369.331 96.003,371.200 94.221,371.200 93.618 C 371.200 92.933,370.872 93.142,370.599 94.002 M103.017 97.172 C 102.891 97.377,102.970 97.658,103.193 97.796 C 103.671 98.091,104.400 97.717,104.400 97.176 C 104.400 96.690,103.317 96.687,103.017 97.172 M104.472 97.633 C 104.177 98.106,103.702 98.371,103.376 98.246 C 103.059 98.125,102.800 98.189,102.800 98.389 C 102.800 99.255,103.560 99.086,104.614 97.986 C 105.238 97.334,105.579 96.800,105.371 96.800 C 105.163 96.800,104.758 97.175,104.472 97.633 M105.570 99.465 C 105.036 100.050,104.810 100.409,105.066 100.262 C 105.322 100.115,105.592 100.139,105.666 100.314 C 105.740 100.490,106.115 100.311,106.500 99.917 C 106.885 99.523,107.009 99.200,106.776 99.200 C 106.543 99.200,106.464 99.020,106.600 98.800 C 107.056 98.063,106.549 98.390,105.570 99.465 M297.775 185.700 L 296.600 187.000 297.900 185.825 C 298.615 185.179,299.200 184.594,299.200 184.525 C 299.200 184.216,298.870 184.488,297.775 185.700 M212.160 193.360 C 211.412 194.108,210.801 194.963,210.801 195.260 C 210.802 195.557,211.153 195.225,211.581 194.523 C 212.010 193.821,212.864 192.973,213.480 192.639 C 214.096 192.305,214.357 192.025,214.060 192.016 C 213.763 192.007,212.908 192.612,212.160 193.360 M214.000 195.200 C 213.120 196.080,212.401 197.025,212.403 197.300 C 212.404 197.575,212.749 197.279,213.169 196.642 C 213.588 196.005,214.442 195.067,215.066 194.557 C 215.690 194.046,216.065 193.622,215.900 193.614 C 215.735 193.606,214.880 194.320,214.000 195.200 M215.010 195.990 C 213.961 197.085,213.939 197.166,214.735 197.012 C 215.211 196.921,215.600 197.016,215.600 197.223 C 215.600 197.430,215.915 197.597,216.300 197.594 C 216.897 197.589,216.911 197.532,216.400 197.208 C 215.703 196.768,215.593 196.011,216.124 195.300 C 216.807 194.386,216.166 194.783,215.010 195.990 M158.197 207.130 C 158.305 207.238,158.170 207.613,157.897 207.963 C 157.460 208.523,157.483 208.535,158.082 208.066 C 158.458 207.772,158.951 207.646,159.178 207.786 C 159.414 207.932,159.500 207.804,159.378 207.487 C 159.261 207.183,158.903 206.933,158.583 206.933 C 158.262 206.933,158.088 207.022,158.197 207.130 M163.483 255.209 C 162.989 256.259,162.242 256.993,161.083 257.566 C 160.157 258.024,159.670 258.399,160.000 258.398 C 161.622 258.395,164.771 255.203,164.324 254.016 C 164.256 253.834,163.877 254.371,163.483 255.209 M66.030 310.014 C 62.014 310.424,60.841 311.287,60.198 314.304 C 59.798 316.185,59.790 316.192,57.833 316.471 C 55.307 316.833,54.368 317.785,54.104 320.255 C 53.871 322.427,53.388 323.267,52.439 323.152 C 51.094 322.990,48.777 324.446,48.224 325.800 C 47.415 327.782,46.995 352.713,47.662 359.112 C 48.021 362.555,50.444 365.619,52.257 364.923 C 53.263 364.537,54.000 365.619,54.000 367.480 C 54.000 369.907,55.611 371.600,57.920 371.600 C 59.574 371.600,60.645 372.384,60.283 373.329 C 60.002 374.060,61.860 376.361,63.152 376.882 C 66.489 378.228,96.327 378.220,99.673 376.872 C 100.980 376.346,102.643 374.190,102.485 373.226 C 102.321 372.219,103.122 371.734,105.341 371.497 C 107.819 371.232,108.363 370.655,108.665 367.976 C 108.959 365.365,109.309 364.845,110.743 364.886 C 114.859 365.003,115.169 363.793,115.464 346.468 C 115.792 327.207,114.985 323.230,110.749 323.206 C 109.329 323.198,108.937 322.588,108.702 320.025 C 108.456 317.340,107.498 316.400,105.005 316.400 C 103.283 316.400,102.272 315.742,102.439 314.730 C 102.761 312.777,100.469 310.599,97.600 310.132 C 95.473 309.787,69.223 309.689,66.030 310.014 M93.000 312.017 C 94.528 312.515,96.052 313.395,97.194 314.439 C 98.181 315.342,99.621 316.421,100.394 316.837 C 104.829 319.226,105.761 319.947,106.862 321.839 C 107.898 323.621,109.200 326.292,109.200 326.636 C 109.200 326.711,109.843 327.417,110.630 328.203 C 113.607 331.181,114.757 337.626,114.196 348.200 C 113.844 354.820,113.216 356.905,110.755 359.609 C 109.661 360.812,108.658 362.247,108.525 362.798 C 108.392 363.349,107.950 364.278,107.542 364.862 C 107.134 365.446,106.800 366.067,106.800 366.243 C 106.800 366.636,104.347 369.200,103.970 369.200 C 103.447 369.200,98.990 372.021,97.511 373.288 C 92.078 377.942,70.442 377.993,65.388 373.364 C 64.588 372.631,63.184 371.608,62.267 371.091 C 57.918 368.637,57.621 368.391,56.376 366.200 C 55.876 365.320,55.038 363.846,54.513 362.926 C 53.989 362.005,52.773 360.393,51.810 359.345 C 49.065 356.355,48.659 354.378,48.661 344.000 C 48.662 333.698,50.111 328.078,53.113 326.729 C 53.500 326.555,56.400 322.099,56.400 321.678 C 56.400 321.236,58.389 319.131,59.400 318.504 C 59.840 318.231,61.011 317.575,62.003 317.046 C 62.995 316.517,64.615 315.345,65.603 314.442 C 69.453 310.922,85.330 309.516,93.000 312.017 M36.582 317.782 C 36.042 318.322,35.606 318.997,35.614 319.282 C 35.622 319.567,35.867 319.370,36.158 318.844 C 36.450 318.318,37.118 317.650,37.644 317.358 C 38.170 317.067,38.367 316.822,38.082 316.814 C 37.797 316.806,37.122 317.242,36.582 317.782 " stroke="none" fill="#8a74a4" fill-rule="evenodd"></path><path id="path4" d="M72.000 24.556 C 68.722 25.072,67.618 25.539,65.800 27.179 C 65.140 27.774,63.250 29.047,61.600 30.006 C 58.266 31.946,57.739 32.497,55.318 36.570 C 54.393 38.127,52.914 40.167,52.032 41.105 C 49.794 43.484,49.199 45.763,48.929 53.000 C 48.530 63.660,49.316 67.963,52.292 71.400 C 53.053 72.280,54.626 74.620,55.787 76.600 C 58.002 80.379,59.736 81.951,63.549 83.639 C 64.511 84.065,66.131 85.294,67.149 86.369 C 68.398 87.688,69.566 88.491,70.740 88.838 C 74.119 89.834,73.775 78.667,74.000 194.782 C 74.221 309.168,73.978 299.932,76.800 301.258 C 77.850 301.751,79.868 301.969,84.862 302.129 L 91.523 302.343 93.126 300.971 C 94.396 299.883,94.940 298.969,95.753 296.551 C 96.473 294.410,97.198 293.094,98.188 292.133 C 99.878 290.492,100.597 289.177,101.238 286.560 C 101.914 283.798,102.927 281.942,104.313 280.923 C 105.652 279.938,108.160 275.692,108.590 273.683 C 108.796 272.718,109.317 272.089,110.536 271.337 C 112.556 270.088,113.416 269.110,114.382 266.961 C 114.937 265.726,115.654 265.020,117.286 264.099 C 118.934 263.169,119.686 262.422,120.428 260.981 C 121.445 259.004,121.930 258.586,123.604 258.240 C 124.611 258.032,126.704 256.270,128.200 254.371 C 128.644 253.807,130.755 252.563,132.940 251.578 C 136.104 250.150,137.193 249.427,138.471 247.907 C 139.650 246.505,140.496 245.907,141.731 245.602 C 147.782 244.108,150.568 242.974,152.201 241.342 C 153.051 240.492,157.661 239.444,164.200 238.615 C 170.679 237.793,173.957 236.999,176.883 235.543 C 179.717 234.131,183.947 233.395,193.800 232.598 C 205.510 231.651,207.428 231.202,212.998 228.105 C 213.487 227.833,215.668 227.326,217.844 226.979 C 227.379 225.459,229.995 224.765,231.339 223.397 C 233.036 221.672,233.620 221.407,237.983 220.383 C 241.603 219.533,241.822 219.417,244.065 217.167 C 245.725 215.502,246.880 214.704,248.096 214.384 C 250.575 213.730,254.625 211.369,255.588 210.016 C 256.046 209.373,256.821 208.722,257.310 208.570 C 257.800 208.417,258.290 208.180,258.400 208.042 C 258.510 207.905,259.364 207.297,260.298 206.692 C 261.231 206.087,262.448 204.874,263.002 203.997 C 263.626 203.009,264.845 201.930,266.206 201.162 C 268.377 199.936,270.000 198.336,270.000 197.421 C 270.000 196.855,271.843 195.082,273.104 194.433 C 273.601 194.177,274.731 192.822,275.615 191.423 C 276.499 190.023,278.015 188.228,278.985 187.434 C 280.773 185.969,282.563 182.819,283.628 179.263 C 283.965 178.140,284.498 177.362,285.171 177.011 C 287.066 176.025,287.995 174.571,289.405 170.385 C 290.175 168.098,291.316 165.591,291.941 164.813 C 293.705 162.617,294.296 161.211,294.984 157.571 C 296.073 151.803,296.719 149.801,298.200 147.600 C 298.988 146.429,299.927 144.411,300.288 143.114 C 300.955 140.715,302.891 138.400,304.230 138.400 C 305.428 138.400,307.997 136.766,308.585 135.629 C 308.959 134.907,309.723 134.290,310.605 133.998 C 311.385 133.741,312.936 132.916,314.052 132.165 C 315.168 131.414,316.211 130.800,316.370 130.800 C 316.729 130.800,318.400 129.050,318.400 128.675 C 318.400 128.525,319.011 127.546,319.758 126.501 C 320.506 125.455,321.381 123.962,321.704 123.182 C 322.027 122.402,322.748 121.464,323.308 121.097 C 327.444 118.387,327.508 95.240,323.389 91.400 C 322.681 90.740,321.628 89.300,321.047 88.200 C 318.487 83.345,317.744 82.346,316.035 81.454 C 313.581 80.173,310.282 77.987,308.843 76.686 C 306.044 74.157,296.292 73.216,285.668 74.449 C 281.451 74.938,280.865 75.158,278.552 77.111 C 276.853 78.546,272.162 81.600,271.656 81.600 C 270.842 81.600,269.316 83.736,266.960 88.174 C 266.383 89.259,265.224 90.808,264.384 91.615 C 261.840 94.060,261.403 96.228,261.408 106.400 C 261.412 116.244,261.797 118.117,264.398 120.968 C 265.217 121.866,266.119 123.050,266.403 123.600 C 269.012 128.649,273.078 132.620,277.069 134.015 C 278.379 134.474,281.817 140.650,281.451 141.890 C 281.336 142.280,280.866 145.184,280.408 148.342 C 279.548 154.260,278.765 156.521,277.111 157.865 C 275.529 159.151,275.149 159.887,274.532 162.867 C 273.784 166.485,273.246 167.534,271.102 169.561 C 269.541 171.037,267.370 174.616,266.419 177.284 C 266.187 177.933,265.398 178.691,264.450 179.175 C 262.751 180.041,261.432 181.615,260.739 183.602 C 260.457 184.413,259.542 185.348,258.082 186.319 C 256.564 187.329,255.577 188.355,254.981 189.543 C 254.230 191.042,253.810 191.387,251.984 192.006 C 250.396 192.543,249.274 193.333,247.540 195.132 C 246.264 196.456,244.810 197.664,244.310 197.815 C 242.277 198.431,237.680 201.357,237.038 202.443 C 236.139 203.966,235.448 204.294,230.735 205.435 C 226.167 206.541,225.769 206.719,223.751 208.568 C 222.132 210.051,220.296 210.512,210.800 211.815 C 205.109 212.595,200.464 213.751,198.001 215.000 C 195.462 216.286,190.893 217.071,181.657 217.806 C 171.610 218.606,166.886 219.526,163.349 221.372 C 161.014 222.591,159.636 222.961,154.200 223.823 C 145.628 225.184,145.169 225.330,142.973 227.405 C 141.928 228.392,140.786 229.198,140.436 229.195 C 140.086 229.192,138.199 229.678,136.243 230.275 C 132.743 231.344,132.273 231.652,129.453 234.739 C 129.041 235.189,128.141 235.675,127.453 235.818 C 125.614 236.201,121.420 238.623,120.308 239.944 C 119.778 240.574,118.027 241.789,116.417 242.645 C 114.807 243.500,113.199 244.623,112.845 245.140 C 111.578 246.986,109.499 249.200,109.032 249.200 C 108.378 249.200,106.227 251.526,105.444 253.082 C 105.089 253.787,104.334 254.687,103.766 255.082 C 101.520 256.644,99.930 258.177,99.327 259.359 C 98.979 260.042,97.683 261.623,96.447 262.874 C 95.211 264.125,93.506 265.886,92.657 266.787 C 90.980 268.569,90.478 268.519,89.634 266.483 C 88.933 264.789,89.209 91.734,89.916 90.497 C 90.199 90.000,91.549 89.085,92.916 88.463 C 94.305 87.831,95.929 86.711,96.600 85.923 C 97.260 85.148,98.541 84.137,99.447 83.676 C 100.352 83.215,101.638 82.380,102.304 81.819 C 102.970 81.259,103.683 80.800,103.888 80.800 C 104.379 80.800,106.000 79.063,106.000 78.536 C 106.000 78.309,106.348 77.809,106.774 77.423 C 107.200 77.038,107.933 75.904,108.403 74.904 C 108.873 73.903,109.876 72.436,110.631 71.642 C 113.345 68.789,113.744 66.934,113.774 57.000 C 113.805 46.419,113.361 44.264,110.562 41.425 C 109.629 40.479,108.688 39.057,108.469 38.264 C 108.250 37.472,107.695 36.295,107.235 35.650 C 106.776 35.004,106.400 34.311,106.400 34.108 C 106.400 33.242,104.356 31.764,99.837 29.365 C 98.757 28.792,97.317 27.790,96.637 27.139 C 95.957 26.488,94.950 25.714,94.400 25.420 C 91.925 24.094,78.279 23.568,72.000 24.556 M87.758 27.162 C 90.327 27.777,91.092 28.144,91.867 29.133 C 92.444 29.871,93.698 30.678,95.053 31.185 C 99.554 32.870,103.872 36.881,106.113 41.462 C 107.812 44.936,108.477 46.081,109.089 46.592 C 112.073 49.082,111.575 63.345,108.353 67.663 C 107.489 68.821,106.573 70.465,106.318 71.316 C 106.060 72.177,105.164 73.512,104.295 74.331 C 103.437 75.139,101.712 76.823,100.461 78.074 C 99.195 79.340,97.330 80.716,96.255 81.177 C 95.193 81.632,93.459 82.858,92.402 83.902 C 91.346 84.946,89.919 86.222,89.231 86.738 C 86.355 88.897,86.612 80.323,86.494 177.976 C 86.375 275.947,86.151 268.241,89.229 271.738 L 90.873 273.606 91.956 272.503 C 92.552 271.896,94.072 270.619,95.334 269.665 C 98.046 267.615,101.228 263.907,102.601 261.197 C 103.142 260.131,103.959 259.140,104.418 258.994 C 105.964 258.503,107.977 256.370,108.410 254.762 C 108.762 253.455,109.153 253.035,110.787 252.207 C 111.862 251.662,113.520 250.306,114.471 249.194 C 115.532 247.953,117.434 246.456,119.395 245.320 C 121.152 244.302,123.371 242.709,124.327 241.780 C 126.156 240.003,127.390 239.286,130.482 238.205 C 131.540 237.835,133.117 236.805,134.085 235.851 C 135.535 234.421,136.467 233.946,140.003 232.836 C 145.209 231.201,147.635 230.159,148.855 229.033 C 150.502 227.514,152.904 226.870,160.855 225.816 C 171.366 224.423,172.638 224.169,174.832 223.021 C 177.309 221.726,183.773 220.605,193.384 219.804 C 202.225 219.066,205.818 218.357,208.647 216.788 C 211.256 215.341,213.951 214.579,219.161 213.814 C 223.577 213.165,226.058 212.196,229.259 209.868 C 230.282 209.125,231.812 208.419,232.659 208.300 C 235.610 207.887,238.780 206.391,240.521 204.591 C 241.574 203.503,243.507 202.226,245.706 201.167 C 248.528 199.809,249.470 199.120,250.534 197.640 C 251.435 196.387,252.599 195.425,254.181 194.626 C 255.985 193.714,256.809 192.976,257.865 191.326 C 258.613 190.157,259.427 189.200,259.675 189.200 C 260.645 189.200,262.768 187.122,263.967 184.998 C 264.660 183.769,265.536 182.656,265.913 182.524 C 267.222 182.064,268.886 180.190,269.797 178.149 C 270.300 177.021,271.587 175.211,272.656 174.126 C 273.989 172.773,274.867 171.406,275.451 169.777 C 275.918 168.469,276.615 166.527,276.999 165.460 C 277.383 164.393,278.234 163.043,278.890 162.460 C 280.587 160.953,281.803 158.319,282.593 154.442 C 283.395 150.501,283.973 148.773,285.598 145.448 C 287.582 141.388,287.570 140.843,285.442 138.447 C 284.432 137.310,283.261 135.710,282.840 134.890 C 281.862 132.989,280.203 131.440,278.311 130.662 C 275.764 129.615,270.270 123.646,269.231 120.797 C 268.723 119.404,267.757 117.783,266.956 116.983 C 263.215 113.241,263.053 99.730,266.704 95.868 C 267.363 95.171,268.465 93.402,269.154 91.938 C 271.329 87.309,275.897 82.796,279.973 81.247 C 281.105 80.817,282.712 79.850,283.543 79.099 C 287.465 75.556,301.188 75.574,304.960 79.127 C 305.642 79.770,307.502 80.970,309.092 81.793 C 312.645 83.633,316.948 87.984,318.632 91.439 C 319.264 92.737,320.447 94.524,321.258 95.409 C 324.838 99.311,324.691 113.484,321.036 116.945 C 320.233 117.706,319.344 119.209,318.779 120.762 C 318.181 122.407,317.357 123.768,316.480 124.562 C 315.727 125.243,314.187 126.724,313.056 127.854 C 311.808 129.101,309.979 130.374,308.400 131.094 C 306.962 131.751,305.214 132.934,304.490 133.741 C 303.770 134.543,302.992 135.200,302.762 135.200 C 301.891 135.200,298.737 137.716,297.837 139.128 C 297.321 139.938,296.445 141.085,295.889 141.678 C 294.597 143.057,293.754 145.629,293.030 150.400 C 291.996 157.215,291.389 159.173,289.804 160.796 C 288.634 161.994,288.040 163.269,286.623 167.621 C 285.664 170.565,284.664 173.045,284.401 173.133 C 283.042 173.586,281.241 175.782,280.451 177.947 C 279.893 179.478,278.818 181.175,277.400 182.765 C 276.196 184.114,274.472 186.565,273.568 188.211 C 272.416 190.310,271.641 191.275,270.972 191.443 C 269.808 191.735,267.275 194.465,266.738 196.006 C 266.459 196.806,265.712 197.443,264.167 198.199 C 262.830 198.853,261.335 200.041,260.295 201.276 C 259.319 202.434,256.903 204.394,254.600 205.895 C 252.400 207.329,250.464 208.735,250.298 209.020 C 249.815 209.847,247.436 211.173,245.296 211.809 C 243.490 212.345,242.829 212.821,240.663 215.146 C 239.757 216.118,236.864 217.278,232.466 218.432 C 230.350 218.987,228.450 219.795,227.266 220.644 C 223.888 223.066,222.538 223.507,216.400 224.189 C 208.385 225.079,204.213 225.880,201.400 227.070 C 197.545 228.700,193.092 229.574,185.400 230.209 C 173.508 231.191,169.591 231.921,166.000 233.825 C 163.298 235.257,162.427 235.509,157.098 236.405 C 150.793 237.465,148.859 238.115,146.306 240.034 C 145.160 240.895,143.947 241.601,143.611 241.601 C 141.921 241.605,136.555 244.072,135.030 245.547 C 134.133 246.413,131.870 247.878,130.000 248.803 C 126.486 250.542,124.800 251.782,124.800 252.628 C 124.800 253.277,122.132 255.600,121.387 255.600 C 120.654 255.600,117.600 258.323,117.600 258.977 C 117.600 259.622,116.016 261.043,114.931 261.371 C 113.914 261.679,111.200 264.560,111.200 265.332 C 111.200 265.623,110.211 266.776,109.002 267.893 C 107.699 269.097,106.477 270.688,106.001 271.798 C 105.549 272.852,104.174 274.679,102.854 275.979 C 101.408 277.402,100.261 278.961,99.863 280.044 C 99.507 281.010,98.834 282.850,98.367 284.134 C 97.885 285.457,96.997 286.929,96.317 287.534 C 94.860 288.828,93.357 291.682,93.007 293.822 C 92.435 297.318,91.651 298.754,90.163 299.033 C 87.165 299.596,78.123 299.035,77.236 298.232 L 76.410 297.485 76.305 193.843 L 76.200 90.200 75.275 88.467 C 74.766 87.514,73.786 86.434,73.097 86.067 C 72.407 85.700,71.204 84.706,70.422 83.857 C 69.640 83.009,67.783 81.701,66.296 80.950 C 61.791 78.677,56.426 72.571,56.404 69.691 C 56.402 69.411,55.684 68.406,54.809 67.457 C 50.996 63.319,50.696 49.262,54.340 45.443 C 54.992 44.759,55.962 43.300,56.495 42.200 C 59.171 36.683,61.810 33.920,66.600 31.623 C 68.360 30.779,70.232 29.624,70.759 29.055 C 73.031 26.608,81.502 25.665,87.758 27.162 M74.363 311.176 C 70.133 311.619,67.697 312.527,65.603 314.442 C 64.615 315.345,62.995 316.517,62.003 317.046 C 61.011 317.575,59.840 318.231,59.400 318.504 C 58.389 319.131,56.400 321.236,56.400 321.678 C 56.400 322.099,53.500 326.555,53.113 326.729 C 50.111 328.078,48.662 333.698,48.661 344.000 C 48.659 354.378,49.065 356.355,51.810 359.345 C 52.773 360.393,53.989 362.005,54.513 362.926 C 55.038 363.846,55.876 365.320,56.376 366.200 C 57.621 368.391,57.918 368.637,62.267 371.091 C 63.184 371.608,64.588 372.631,65.388 373.364 C 70.442 377.993,92.078 377.942,97.511 373.288 C 98.990 372.021,103.447 369.200,103.970 369.200 C 104.347 369.200,106.800 366.636,106.800 366.243 C 106.800 366.067,107.134 365.446,107.542 364.862 C 107.950 364.278,108.392 363.349,108.525 362.798 C 108.658 362.247,109.661 360.812,110.755 359.609 C 115.844 354.016,115.761 333.334,110.630 328.203 C 109.843 327.417,109.200 326.711,109.200 326.636 C 109.200 326.292,107.898 323.621,106.862 321.839 C 105.761 319.947,104.829 319.226,100.394 316.837 C 99.621 316.421,98.181 315.342,97.194 314.439 C 93.932 311.457,84.532 310.113,74.363 311.176 M88.114 314.045 C 90.555 314.424,91.314 314.751,93.216 316.245 C 94.445 317.210,95.636 318.000,95.863 318.000 C 98.305 318.000,105.128 324.558,107.280 328.975 C 108.145 330.749,109.218 332.671,109.665 333.247 C 112.651 337.096,112.276 351.041,109.053 356.000 C 108.124 357.430,107.011 359.320,106.581 360.200 C 105.347 362.728,99.797 368.034,97.000 369.361 C 95.680 369.987,93.815 371.135,92.856 371.912 C 88.409 375.516,74.472 375.420,69.507 371.751 C 68.348 370.895,66.587 369.788,65.593 369.291 C 62.396 367.692,59.412 365.041,58.001 362.543 C 57.273 361.254,56.327 359.578,55.899 358.817 C 55.471 358.057,54.508 356.719,53.759 355.843 C 50.373 351.888,50.160 336.750,53.432 332.671 C 54.170 331.752,55.288 330.010,55.917 328.800 C 57.607 325.551,58.968 323.530,60.255 322.353 C 61.783 320.957,65.669 318.400,66.264 318.400 C 66.525 318.400,67.540 317.788,68.519 317.041 C 72.857 313.729,79.518 312.711,88.114 314.045 " stroke="none" fill="#8694aa" fill-rule="evenodd"></path></g></svg>