<svg id="svg" xmlns="http://www.w3.org/2000/svg" xmlns:xlink="http://www.w3.org/1999/xlink" width="400" height="400" viewBox="0, 0, 400,400"><g id="svgg"><path id="path0" d="M283.376 18.306 C 283.143 18.468,282.902 19.500,282.841 20.600 C 282.707 23.000,283.000 22.707,280.600 22.841 C 278.202 22.974,278.014 23.196,278.006 25.900 L 278.000 28.000 275.900 28.006 C 273.196 28.014,272.974 28.202,272.841 30.600 C 272.707 33.000,273.000 32.707,270.600 32.841 C 268.202 32.974,268.014 33.196,268.006 35.900 L 268.000 38.000 265.900 38.006 C 263.196 38.014,262.974 38.202,262.841 40.600 C 262.707 43.000,263.000 42.707,260.600 42.841 C 258.202 42.974,258.014 43.196,258.006 45.900 L 258.000 48.000 255.900 48.006 C 253.196 48.014,252.974 48.202,252.841 50.600 C 252.707 53.000,253.000 52.707,250.600 52.841 C 248.202 52.974,248.014 53.196,248.006 55.900 L 248.000 58.000 245.900 58.006 C 243.196 58.014,242.974 58.202,242.841 60.600 C 242.707 63.000,243.000 62.707,240.600 62.841 C 238.202 62.974,238.014 63.196,238.006 65.900 L 238.000 68.000 235.900 68.006 C 233.196 68.014,232.974 68.202,232.841 70.600 C 232.707 73.000,233.000 72.707,230.600 72.841 C 228.202 72.974,228.014 73.196,228.006 75.900 L 228.000 78.000 225.900 78.006 C 223.196 78.014,222.974 78.202,222.841 80.600 C 222.706 83.011,222.998 82.733,220.480 82.848 C 217.947 82.964,217.917 83.032,218.083 88.400 C 218.165 91.077,218.348 92.215,218.700 92.250 C 218.975 92.278,227.930 92.323,238.600 92.350 L 258.000 92.400 258.000 115.200 L 258.000 138.000 180.643 138.000 C 119.117 138.000,103.250 138.102,103.111 138.500 C 103.016 138.775,102.897 139.805,102.847 140.788 C 102.737 142.980,103.346 142.700,98.314 142.869 C 93.429 143.033,93.153 143.186,92.955 145.832 C 92.783 148.125,93.041 147.899,90.402 148.065 L 88.204 148.204 88.064 150.402 C 87.910 152.809,87.635 153.172,86.174 152.893 C 85.638 152.791,85.200 152.891,85.200 153.116 C 85.200 153.341,84.843 153.432,84.407 153.318 C 83.543 153.092,82.705 154.604,82.826 156.175 C 82.860 156.629,82.869 158.305,82.844 159.900 L 82.800 162.800 81.033 162.800 C 80.061 162.800,78.981 162.909,78.633 163.043 C 78.059 163.263,78.000 169.591,78.000 230.639 L 78.000 297.993 58.100 298.096 L 38.200 298.200 38.083 302.000 C 37.917 307.368,37.947 307.436,40.480 307.552 C 42.998 307.667,42.706 307.389,42.844 309.800 C 42.976 312.087,43.283 312.330,46.100 312.372 L 48.000 312.400 48.006 314.500 C 48.014 317.204,48.202 317.426,50.600 317.559 C 53.000 317.693,52.706 317.400,52.844 319.800 C 52.976 322.087,53.283 322.330,56.100 322.372 L 58.000 322.400 58.006 324.500 C 58.014 327.204,58.202 327.426,60.600 327.559 C 63.000 327.693,62.706 327.400,62.844 329.800 C 62.976 332.087,63.283 332.330,66.100 332.372 L 68.000 332.400 68.006 334.500 C 68.014 337.204,68.202 337.426,70.600 337.559 C 73.000 337.693,72.706 337.400,72.844 339.800 C 72.976 342.087,73.283 342.330,76.100 342.372 L 78.000 342.400 78.006 344.500 C 78.014 347.204,78.202 347.426,80.600 347.559 C 83.000 347.693,82.706 347.400,82.844 349.800 C 82.976 352.087,83.283 352.330,86.100 352.372 L 88.000 352.400 88.006 354.500 C 88.014 357.204,88.202 357.426,90.600 357.559 C 93.000 357.693,92.706 357.400,92.844 359.800 C 92.976 362.087,93.283 362.330,96.100 362.372 L 98.000 362.400 98.006 364.500 C 98.014 367.204,98.202 367.426,100.600 367.559 C 103.000 367.693,102.706 367.400,102.844 369.800 C 102.991 372.364,102.918 372.339,110.400 372.366 C 117.542 372.391,117.412 372.438,117.559 369.800 C 117.693 367.400,117.400 367.693,119.800 367.559 C 122.198 367.426,122.386 367.204,122.394 364.500 L 122.400 362.400 124.500 362.394 C 127.204 362.386,127.426 362.198,127.559 359.800 C 127.693 357.400,127.400 357.693,129.800 357.559 C 132.198 357.426,132.386 357.204,132.394 354.500 L 132.400 352.400 134.500 352.394 C 137.204 352.386,137.426 352.198,137.559 349.800 C 137.693 347.400,137.400 347.693,139.800 347.559 C 142.198 347.426,142.386 347.204,142.394 344.500 L 142.400 342.400 144.500 342.394 C 147.204 342.386,147.426 342.198,147.559 339.800 C 147.693 337.400,147.400 337.693,149.800 337.559 C 152.198 337.426,152.386 337.204,152.394 334.500 L 152.400 332.400 154.500 332.394 C 157.204 332.386,157.426 332.198,157.559 329.800 C 157.693 327.400,157.400 327.693,159.800 327.559 C 162.198 327.426,162.386 327.204,162.394 324.500 L 162.400 322.400 164.500 322.394 C 167.204 322.386,167.426 322.198,167.559 319.800 C 167.693 317.400,167.400 317.693,169.800 317.559 C 172.198 317.426,172.386 317.204,172.394 314.500 L 172.400 312.400 174.500 312.394 C 177.204 312.386,177.426 312.198,177.559 309.800 C 177.694 307.389,177.402 307.667,179.920 307.552 C 182.461 307.436,182.518 307.304,182.331 301.949 L 182.200 298.200 162.300 298.096 L 142.400 297.993 142.400 275.196 L 142.400 252.400 219.226 252.400 C 303.839 252.400,297.600 252.624,297.600 249.586 L 297.600 247.600 300.500 247.556 C 302.095 247.531,303.805 247.544,304.300 247.584 C 304.795 247.624,305.200 247.470,305.200 247.241 C 305.200 247.012,305.441 246.918,305.736 247.031 C 306.390 247.282,307.369 246.197,307.011 245.618 C 306.869 245.388,306.964 245.200,307.223 245.200 C 307.506 245.200,307.619 244.811,307.507 244.226 C 307.233 242.793,307.651 242.408,309.562 242.333 C 311.717 242.249,312.249 241.717,312.333 239.562 C 312.408 237.651,312.793 237.233,314.226 237.507 C 314.774 237.612,315.200 237.503,315.200 237.259 C 315.200 237.020,315.441 236.918,315.736 237.031 C 316.390 237.282,317.369 236.197,317.011 235.618 C 316.869 235.388,316.956 235.200,317.205 235.200 C 317.454 235.200,317.624 234.795,317.584 234.300 C 317.544 233.805,317.531 232.095,317.556 230.500 L 317.600 227.600 319.586 227.600 C 322.618 227.600,322.400 232.903,322.400 159.226 L 322.400 92.400 341.800 92.350 C 352.470 92.323,361.425 92.278,361.700 92.250 C 362.259 92.194,362.639 86.401,362.228 84.208 C 362.000 82.996,361.903 82.939,359.905 82.847 C 357.405 82.733,357.694 83.010,357.559 80.600 C 357.426 78.202,357.204 78.014,354.500 78.006 L 352.400 78.000 352.372 76.100 C 352.330 73.283,352.087 72.976,349.800 72.844 C 347.400 72.706,347.693 73.000,347.559 70.600 C 347.426 68.202,347.204 68.014,344.500 68.006 L 342.400 68.000 342.372 66.100 C 342.330 63.283,342.087 62.976,339.800 62.844 C 337.400 62.706,337.693 63.000,337.559 60.600 C 337.426 58.202,337.204 58.014,334.500 58.006 L 332.400 58.000 332.372 56.100 C 332.330 53.283,332.087 52.976,329.800 52.844 C 327.400 52.706,327.693 53.000,327.559 50.600 C 327.426 48.202,327.204 48.014,324.500 48.006 L 322.400 48.000 322.372 46.100 C 322.330 43.283,322.087 42.976,319.800 42.844 C 317.400 42.706,317.693 43.000,317.559 40.600 C 317.426 38.202,317.204 38.014,314.500 38.006 L 312.400 38.000 312.372 36.100 C 312.330 33.283,312.087 32.976,309.800 32.844 C 307.400 32.706,307.693 33.000,307.559 30.600 C 307.426 28.202,307.204 28.014,304.500 28.006 L 302.400 28.000 302.372 26.100 C 302.330 23.283,302.087 22.976,299.800 22.844 C 297.400 22.706,297.693 23.000,297.559 20.600 C 297.498 19.500,297.257 18.468,297.024 18.306 C 296.471 17.923,283.929 17.923,283.376 18.306 M294.144 34.447 C 294.683 34.693,295.455 35.548,295.859 36.347 C 296.888 38.384,297.615 39.200,298.400 39.200 C 299.215 39.200,300.239 40.275,301.137 42.072 C 301.502 42.802,302.340 43.648,303.000 43.951 C 304.584 44.680,305.926 45.928,306.240 46.963 C 306.603 48.156,307.611 49.200,308.400 49.200 C 309.215 49.200,310.240 50.275,311.137 52.072 C 311.566 52.931,312.389 53.666,313.466 54.153 C 314.588 54.661,315.369 55.378,315.862 56.353 C 316.888 58.384,317.616 59.200,318.400 59.200 C 319.215 59.200,320.240 60.275,321.137 62.072 C 321.566 62.931,322.389 63.666,323.466 64.153 C 324.588 64.661,325.369 65.378,325.862 66.353 C 326.888 68.384,327.616 69.200,328.400 69.200 C 329.215 69.200,330.240 70.275,331.137 72.072 C 331.566 72.931,332.389 73.666,333.466 74.153 C 336.028 75.312,336.876 77.160,335.742 79.117 C 334.417 81.404,333.001 81.685,321.715 81.898 L 312.029 82.082 311.898 147.941 C 311.751 221.993,311.920 217.823,308.949 220.600 C 307.693 221.774,307.099 222.732,306.719 224.200 C 306.092 226.617,305.945 226.814,301.380 231.380 C 296.812 235.947,296.615 236.093,294.200 236.714 C 292.698 237.100,291.801 237.665,290.600 238.982 C 287.914 241.928,292.453 241.757,213.000 241.895 C 133.496 242.033,140.079 242.276,138.954 239.165 C 137.639 235.527,138.419 201.930,139.856 200.334 C 141.450 198.565,140.062 198.609,200.276 198.400 L 257.952 198.200 259.407 196.500 C 260.208 195.565,261.155 194.800,261.512 194.800 C 262.387 194.800,264.800 192.416,264.800 191.553 C 264.800 191.173,265.565 190.208,266.500 189.407 L 268.200 187.952 268.200 135.076 L 268.200 82.200 258.400 81.954 C 251.301 81.776,248.159 81.547,247.000 81.122 C 243.532 79.850,243.156 75.925,246.364 74.479 C 248.318 73.598,249.200 72.814,249.200 71.956 C 249.200 71.025,251.025 69.200,251.956 69.200 C 252.836 69.200,253.695 68.238,254.398 66.463 C 254.750 65.573,255.408 64.910,256.364 64.479 C 258.318 63.598,259.200 62.814,259.200 61.956 C 259.200 61.025,261.025 59.200,261.956 59.200 C 262.836 59.200,263.695 58.238,264.398 56.463 C 264.750 55.573,265.408 54.910,266.364 54.479 C 268.318 53.598,269.200 52.814,269.200 51.956 C 269.200 51.025,271.025 49.200,271.956 49.200 C 272.836 49.200,273.695 48.238,274.398 46.463 C 274.750 45.573,275.408 44.910,276.364 44.479 C 278.318 43.598,279.200 42.814,279.200 41.956 C 279.200 41.025,281.025 39.200,281.956 39.200 C 282.833 39.200,283.695 38.238,284.389 36.484 C 285.286 34.218,291.016 33.022,294.144 34.447 M259.165 148.954 C 262.052 149.998,262.051 149.990,261.913 169.800 C 261.775 189.723,261.761 189.826,258.914 191.114 C 257.510 191.750,253.250 191.807,200.400 191.897 C 137.841 192.003,142.078 191.882,141.073 193.584 C 140.678 194.253,140.150 194.800,139.899 194.800 C 138.855 194.800,136.369 197.011,135.579 198.643 C 135.113 199.607,134.199 200.710,133.549 201.094 C 131.876 202.082,131.971 198.548,132.090 255.800 L 132.200 308.200 141.800 308.434 C 147.080 308.563,151.670 308.773,152.000 308.901 C 152.330 309.029,153.080 309.238,153.667 309.366 C 154.783 309.609,156.400 311.752,156.400 312.987 C 156.400 313.932,153.865 316.400,152.894 316.400 C 152.361 316.400,151.796 317.007,151.138 318.284 C 150.411 319.698,149.698 320.411,148.284 321.138 C 147.007 321.796,146.400 322.361,146.400 322.894 C 146.400 323.912,143.912 326.400,142.894 326.400 C 142.361 326.400,141.796 327.007,141.138 328.284 C 140.411 329.698,139.698 330.411,138.284 331.138 C 137.007 331.796,136.400 332.361,136.400 332.894 C 136.400 333.912,133.912 336.400,132.894 336.400 C 132.361 336.400,131.796 337.007,131.138 338.284 C 130.411 339.698,129.698 340.411,128.284 341.138 C 127.007 341.796,126.400 342.361,126.400 342.894 C 126.400 343.912,123.912 346.400,122.894 346.400 C 122.361 346.400,121.796 347.007,121.138 348.284 C 120.411 349.698,119.698 350.411,118.284 351.138 C 117.007 351.796,116.400 352.361,116.400 352.894 C 116.400 357.534,106.228 357.834,104.083 353.258 C 103.680 352.398,102.856 351.528,102.072 351.137 C 100.275 350.240,99.200 349.215,99.200 348.400 C 99.200 347.611,98.156 346.603,96.963 346.240 C 95.928 345.926,94.680 344.584,93.951 343.000 C 93.648 342.340,92.802 341.502,92.072 341.137 C 90.275 340.239,89.200 339.215,89.200 338.400 C 89.200 337.611,88.156 336.603,86.963 336.240 C 85.928 335.926,84.680 334.584,83.951 333.000 C 83.648 332.340,82.802 331.502,82.072 331.137 C 80.275 330.239,79.200 329.215,79.200 328.400 C 79.200 327.611,78.156 326.603,76.963 326.240 C 75.928 325.926,74.680 324.584,73.951 323.000 C 73.648 322.340,72.802 321.502,72.072 321.137 C 70.275 320.239,69.200 319.215,69.200 318.400 C 69.200 317.600,68.152 316.602,66.918 316.226 C 63.178 315.087,63.458 310.247,67.328 309.135 C 68.295 308.858,73.047 308.559,78.600 308.427 L 88.200 308.200 88.446 242.000 C 88.721 168.118,88.624 170.071,92.063 168.980 C 92.488 168.845,92.966 168.065,93.231 167.076 C 94.072 163.938,95.377 161.689,96.840 160.857 C 97.475 160.496,97.996 160.065,97.997 159.900 C 98.001 159.517,99.503 158.005,99.900 157.985 C 100.065 157.976,100.560 157.416,101.000 156.741 C 101.874 155.399,104.447 153.908,107.076 153.221 C 108.102 152.952,108.843 152.494,108.988 152.037 C 109.565 150.221,111.939 149.260,116.800 148.876 C 124.322 148.283,257.509 148.356,259.165 148.954 " stroke="none" fill="#448cc4" fill-rule="evenodd"></path><path id="path1" d="M287.373 43.500 C 286.732 46.403,286.595 46.586,284.689 47.064 C 282.150 47.701,282.000 47.840,282.000 49.544 C 282.000 51.430,281.430 52.000,279.544 52.000 C 277.835 52.000,277.698 52.150,277.064 54.720 C 276.620 56.519,276.519 56.620,274.720 57.064 C 272.150 57.698,272.000 57.835,272.000 59.544 C 272.000 61.430,271.430 62.000,269.544 62.000 C 267.835 62.000,267.698 62.150,267.064 64.720 C 266.620 66.519,266.519 66.620,264.720 67.064 C 262.150 67.698,262.000 67.835,262.000 69.544 C 262.000 71.430,261.430 72.000,259.544 72.000 C 257.835 72.000,257.698 72.150,257.064 74.720 C 256.617 76.531,256.528 76.618,254.653 77.081 C 253.582 77.345,252.607 77.660,252.486 77.781 C 252.365 77.901,256.699 78.000,262.115 78.000 L 271.964 78.000 272.198 79.300 C 272.327 80.015,272.380 106.670,272.316 138.532 C 272.185 203.905,272.526 197.600,269.124 197.600 C 267.625 197.600,267.600 197.625,267.600 199.124 C 267.600 202.528,274.128 202.186,206.832 202.306 C 151.538 202.405,147.200 202.461,147.200 203.078 C 147.200 205.418,145.416 207.200,143.072 207.200 C 142.454 207.200,142.400 208.448,142.400 222.600 L 142.400 238.000 208.600 238.000 C 262.985 238.000,274.800 237.906,274.800 237.475 C 274.800 236.846,276.857 234.800,277.489 234.800 C 277.733 234.800,277.999 234.603,278.079 234.362 C 278.265 233.804,280.810 233.327,285.500 232.971 C 287.535 232.817,289.200 232.580,289.200 232.445 C 289.204 230.924,293.658 228.000,295.973 228.000 L 298.000 228.000 298.000 225.973 C 298.000 223.611,300.929 219.203,302.500 219.200 C 302.665 219.200,302.812 218.345,302.826 217.300 C 302.870 214.149,303.834 208.255,304.333 208.089 C 304.590 208.003,304.800 207.712,304.800 207.442 C 304.800 206.822,306.882 204.800,307.521 204.800 C 307.887 204.800,308.021 190.180,308.099 141.500 L 308.200 78.200 318.200 78.000 C 324.599 77.872,327.768 77.679,327.000 77.465 C 323.746 76.557,323.819 76.613,323.314 74.602 C 322.765 72.412,322.338 72.015,320.523 72.006 C 318.976 71.999,318.000 70.804,318.000 68.919 C 318.000 67.822,317.825 67.577,316.900 67.373 C 313.977 66.728,313.816 66.604,313.314 64.602 C 312.765 62.412,312.338 62.015,310.523 62.006 C 308.976 61.999,308.000 60.804,308.000 58.919 C 308.000 57.817,307.829 57.581,306.900 57.393 C 304.021 56.811,303.817 56.653,303.314 54.624 C 302.766 52.412,302.342 52.015,300.523 52.006 C 298.976 51.999,298.000 50.804,298.000 48.919 C 298.000 47.822,297.825 47.577,296.900 47.373 C 293.784 46.685,293.715 46.616,293.027 43.500 C 292.793 42.439,292.694 42.400,290.200 42.400 C 287.706 42.400,287.607 42.439,287.373 43.500 M124.470 153.622 C 123.958 154.270,123.295 154.800,122.997 154.800 C 122.698 154.800,122.344 155.147,122.209 155.571 C 121.912 156.509,119.425 157.108,114.325 157.470 L 110.769 157.722 108.788 159.890 C 106.962 161.887,106.638 162.075,104.654 162.279 L 102.501 162.501 102.279 164.654 C 102.074 166.639,101.888 166.962,99.887 168.790 L 97.717 170.774 97.437 174.487 C 96.971 180.677,95.792 183.821,93.471 185.068 L 92.600 185.535 92.400 248.534 C 92.290 283.184,92.050 311.683,91.868 311.867 C 91.685 312.050,87.185 312.290,81.868 312.400 C 75.649 312.529,72.628 312.720,73.400 312.935 C 76.851 313.898,76.770 313.818,77.393 316.900 C 77.581 317.829,77.817 318.000,78.919 318.000 C 80.804 318.000,81.999 318.976,82.006 320.523 C 82.015 322.342,82.412 322.766,84.624 323.314 C 86.653 323.817,86.811 324.021,87.393 326.900 C 87.581 327.829,87.817 328.000,88.919 328.000 C 90.804 328.000,91.999 328.976,92.006 330.523 C 92.015 332.342,92.412 332.766,94.624 333.314 C 96.653 333.817,96.811 334.021,97.393 336.900 C 97.581 337.829,97.817 338.000,98.919 338.000 C 100.804 338.000,101.999 338.976,102.006 340.523 C 102.015 342.342,102.412 342.766,104.624 343.314 C 106.653 343.817,106.811 344.021,107.393 346.900 C 107.608 347.963,107.703 348.000,110.181 348.000 C 112.971 348.000,112.881 348.081,113.375 345.143 C 113.595 343.837,113.775 343.658,115.110 343.421 C 117.867 342.933,118.000 342.838,118.000 341.355 C 118.000 339.473,119.473 338.000,121.355 338.000 C 122.833 338.000,122.914 337.886,123.375 335.143 C 123.595 333.837,123.775 333.658,125.110 333.421 C 127.867 332.933,128.000 332.838,128.000 331.355 C 128.000 329.473,129.473 328.000,131.355 328.000 C 132.833 328.000,132.914 327.886,133.375 325.143 C 133.595 323.837,133.775 323.658,135.110 323.421 C 137.867 322.933,138.000 322.838,138.000 321.355 C 138.000 319.473,139.473 318.000,141.355 318.000 C 142.834 318.000,142.914 317.887,143.377 315.133 C 143.605 313.775,143.749 313.646,145.312 313.388 C 149.466 312.704,147.664 312.423,139.000 312.407 C 133.940 312.397,129.395 312.281,128.900 312.148 L 128.000 311.907 128.000 252.976 L 128.000 194.045 128.889 193.423 C 129.378 193.080,130.458 192.800,131.289 192.800 C 132.770 192.800,132.800 192.770,132.800 191.289 C 132.800 190.458,133.080 189.378,133.423 188.889 L 134.045 188.000 193.577 188.000 L 253.109 188.000 253.374 186.233 C 253.690 184.125,254.106 183.720,256.320 183.366 L 258.000 183.098 258.000 167.749 L 258.000 152.400 191.700 152.422 L 125.400 152.444 124.470 153.622 " stroke="none" fill="#dcf4fc" fill-rule="evenodd"></path><path id="path2" d="M267.145 57.158 C 247.351 77.001,246.526 77.887,247.345 78.421 C 249.348 79.725,251.898 80.106,260.284 80.352 C 268.140 80.582,268.812 80.659,269.371 81.400 C 270.320 82.658,270.305 186.226,269.356 189.494 C 268.804 191.390,268.205 192.216,265.211 195.211 C 259.912 200.509,266.512 200.000,203.159 200.000 C 136.314 200.000,141.373 199.532,140.461 205.800 C 139.869 209.865,139.816 238.000,140.400 238.000 C 140.620 238.000,140.806 238.225,140.813 238.500 C 140.864 240.544,137.074 240.447,210.698 240.291 C 280.630 240.143,282.664 240.096,285.761 238.572 C 286.400 238.257,287.165 238.000,287.461 238.000 C 287.758 238.000,288.000 237.818,288.000 237.595 C 288.000 237.216,292.812 234.800,293.567 234.800 C 294.583 234.800,304.800 224.538,304.800 223.518 C 304.800 222.798,307.231 218.000,307.595 218.000 C 307.818 218.000,308.000 217.676,308.000 217.280 C 308.000 216.884,308.191 216.369,308.424 216.136 C 310.058 214.502,310.119 212.271,310.365 145.468 C 310.595 82.785,310.615 81.524,311.376 80.968 C 311.982 80.525,313.816 80.400,319.714 80.400 C 327.516 80.400,331.977 79.674,333.195 78.206 C 333.539 77.792,329.136 73.176,313.005 57.038 L 292.376 36.400 290.088 36.426 L 287.800 36.451 267.145 57.158 M293.437 41.000 C 293.797 41.550,294.296 42.001,294.546 42.001 C 294.796 42.002,295.360 42.543,295.800 43.203 C 296.240 43.864,296.915 44.506,297.300 44.629 C 297.685 44.753,298.000 45.001,298.000 45.180 C 298.000 45.428,303.292 50.831,307.715 55.097 C 307.887 55.263,309.464 56.885,311.219 58.700 C 312.973 60.515,314.541 62.001,314.704 62.001 C 314.867 62.002,315.360 62.543,315.800 63.203 C 316.240 63.864,316.915 64.506,317.300 64.629 C 317.685 64.753,318.000 64.991,318.000 65.158 C 318.000 65.552,324.316 72.000,324.704 72.001 C 324.867 72.002,325.360 72.543,325.800 73.203 C 326.240 73.864,326.915 74.506,327.300 74.629 C 327.685 74.753,328.000 75.020,328.000 75.224 C 328.000 75.427,328.552 76.086,329.227 76.688 L 330.455 77.781 329.327 78.165 C 328.707 78.375,324.290 78.650,319.510 78.774 C 311.150 78.991,310.786 79.035,309.910 79.911 L 309.000 80.822 308.733 144.511 C 308.441 214.475,308.527 211.730,306.563 213.812 C 305.814 214.606,305.096 215.738,304.967 216.328 C 304.837 216.918,304.477 218.079,304.166 218.908 C 303.855 219.738,303.600 220.848,303.600 221.375 C 303.600 222.730,303.203 223.600,302.586 223.600 C 301.813 223.600,299.200 226.183,299.200 226.947 C 299.200 227.778,297.794 229.200,296.973 229.200 C 296.244 229.200,293.600 231.875,293.600 232.613 C 293.600 233.205,292.711 233.600,291.375 233.600 C 290.848 233.600,289.738 233.855,288.908 234.166 C 288.079 234.477,286.918 234.837,286.328 234.967 C 285.738 235.096,284.608 235.812,283.817 236.558 C 282.381 237.913,282.371 237.915,276.631 238.357 C 268.136 239.012,142.737 238.977,142.080 238.320 C 141.488 237.728,141.399 209.857,141.977 206.325 C 142.803 201.282,138.604 201.605,203.323 201.602 C 264.035 201.600,262.810 201.647,264.834 199.239 C 266.903 196.779,267.435 196.239,269.078 194.931 C 271.669 192.869,271.600 194.507,271.600 135.003 C 271.600 77.042,271.722 80.083,269.355 79.183 C 268.801 78.972,264.895 78.797,260.674 78.794 C 255.311 78.790,252.537 78.627,251.462 78.253 L 249.925 77.717 250.962 76.901 C 251.533 76.452,252.000 75.981,252.000 75.853 C 252.000 75.522,255.562 72.002,255.911 71.989 C 256.070 71.983,256.650 71.358,257.200 70.600 C 257.750 69.842,258.425 69.217,258.700 69.211 C 258.975 69.205,259.205 68.975,259.211 68.700 C 259.217 68.425,259.842 67.750,260.600 67.200 C 261.358 66.650,261.983 66.070,261.989 65.911 C 262.003 65.533,265.533 62.003,265.911 61.989 C 266.070 61.983,266.650 61.358,267.200 60.600 C 267.750 59.842,268.425 59.217,268.700 59.211 C 268.975 59.205,269.205 58.975,269.211 58.700 C 269.217 58.425,269.842 57.750,270.600 57.200 C 271.358 56.650,271.983 56.070,271.989 55.911 C 272.003 55.533,275.533 52.003,275.911 51.989 C 276.070 51.983,276.650 51.358,277.200 50.600 C 277.750 49.842,278.425 49.217,278.700 49.211 C 278.975 49.205,279.205 48.975,279.211 48.700 C 279.217 48.425,279.842 47.750,280.600 47.200 C 281.358 46.650,281.983 46.070,281.989 45.911 C 282.002 45.562,285.522 42.000,285.853 42.000 C 285.981 42.000,286.439 41.550,286.871 41.000 C 287.564 40.119,287.964 40.000,290.220 40.000 C 292.511 40.000,292.851 40.106,293.437 41.000 M122.303 150.463 C 116.489 150.829,114.283 151.418,111.408 153.369 C 110.573 153.935,109.216 154.580,108.393 154.802 C 106.389 155.342,102.014 159.074,97.800 163.839 C 96.920 164.834,95.975 165.894,95.700 166.195 C 95.425 166.497,95.196 167.071,95.191 167.471 C 95.186 167.872,94.653 169.100,94.008 170.200 C 90.087 176.883,90.349 171.954,90.056 244.686 C 89.813 305.053,89.763 308.409,89.087 309.086 C 88.466 309.708,87.303 309.832,80.087 310.047 C 71.440 310.304,69.295 310.595,67.529 311.752 L 66.470 312.446 87.056 333.023 L 107.641 353.600 110.321 353.589 L 113.000 353.578 114.800 351.413 C 115.790 350.222,116.780 349.234,117.000 349.217 C 117.442 349.183,119.200 347.437,119.200 347.031 C 119.200 346.890,119.948 346.106,120.862 345.288 C 123.177 343.215,126.383 339.860,126.392 339.500 C 126.396 339.335,126.625 339.197,126.900 339.193 C 127.407 339.186,129.200 337.501,129.200 337.031 C 129.200 336.890,129.948 336.106,130.862 335.288 C 133.177 333.215,136.383 329.860,136.392 329.500 C 136.396 329.335,136.625 329.197,136.900 329.193 C 137.407 329.186,139.200 327.501,139.200 327.031 C 139.200 326.890,139.948 326.106,140.862 325.288 C 143.177 323.215,146.383 319.860,146.392 319.500 C 146.396 319.335,146.625 319.197,146.900 319.193 C 147.398 319.186,149.200 317.505,149.200 317.047 C 149.200 316.722,151.584 314.445,152.700 313.705 C 155.900 311.582,150.386 310.005,139.694 309.987 C 133.642 309.977,132.046 309.858,131.400 309.370 C 130.456 308.657,129.904 205.741,130.820 201.311 C 131.191 199.519,131.708 198.723,134.448 195.722 C 139.692 189.982,131.969 190.635,197.600 190.379 C 255.493 190.152,257.210 190.104,258.662 188.660 C 261.400 185.937,261.190 150.800,258.436 150.800 C 258.196 150.800,258.000 150.620,258.000 150.400 C 258.000 149.899,130.313 149.958,122.303 150.463 M258.320 152.080 C 258.995 152.755,258.947 181.262,258.265 184.490 C 257.297 189.069,261.951 188.743,197.000 188.782 C 132.919 188.822,137.163 188.568,134.244 192.527 C 133.624 193.367,132.693 194.248,132.173 194.485 C 131.654 194.722,130.727 195.639,130.114 196.523 L 129.000 198.131 128.882 252.766 C 128.817 282.815,128.871 307.994,129.003 308.719 C 129.467 311.267,130.680 311.596,139.600 311.601 C 143.890 311.603,148.079 311.793,148.909 312.024 L 150.418 312.443 131.439 331.421 L 112.461 350.400 110.173 350.400 L 107.886 350.400 88.919 331.426 L 69.951 312.451 71.476 312.028 C 72.314 311.795,76.474 311.603,80.720 311.602 C 89.127 311.600,90.231 311.367,91.122 309.411 C 91.485 308.614,91.606 294.058,91.623 248.681 C 91.650 180.502,91.699 178.620,93.491 176.787 C 94.784 175.465,96.400 171.630,96.400 169.885 C 96.400 168.254,97.106 166.816,98.093 166.439 C 99.217 166.009,100.271 164.863,101.137 163.128 C 101.512 162.377,102.408 161.507,103.200 161.126 C 104.893 160.310,105.962 159.308,106.433 158.093 C 106.823 157.090,108.260 156.400,109.957 156.400 C 111.602 156.400,116.044 154.470,117.153 153.273 C 118.052 152.303,118.445 152.209,122.561 151.978 C 131.616 151.471,257.806 151.566,258.320 152.080 " stroke="none" fill="#acccec" fill-rule="evenodd"></path><path id="path3" d="M285.955 34.600 C 285.381 34.912,284.676 35.760,284.389 36.484 C 283.695 38.238,282.833 39.200,281.956 39.200 C 281.025 39.200,279.200 41.025,279.200 41.956 C 279.200 42.814,278.318 43.598,276.364 44.479 C 275.408 44.910,274.750 45.573,274.398 46.463 C 273.695 48.238,272.836 49.200,271.956 49.200 C 271.025 49.200,269.200 51.025,269.200 51.956 C 269.200 52.814,268.318 53.598,266.364 54.479 C 265.408 54.910,264.750 55.573,264.398 56.463 C 263.695 58.238,262.836 59.200,261.956 59.200 C 261.025 59.200,259.200 61.025,259.200 61.956 C 259.200 62.814,258.318 63.598,256.364 64.479 C 255.408 64.910,254.750 65.573,254.398 66.463 C 253.695 68.238,252.836 69.200,251.956 69.200 C 251.025 69.200,249.200 71.025,249.200 71.956 C 249.200 72.814,248.318 73.598,246.364 74.479 C 243.156 75.925,243.532 79.850,247.000 81.122 C 248.159 81.547,251.301 81.776,258.400 81.954 L 268.200 82.200 268.200 135.076 L 268.200 187.952 266.500 189.407 C 265.565 190.208,264.800 191.173,264.800 191.553 C 264.800 192.416,262.387 194.800,261.512 194.800 C 261.155 194.800,260.208 195.565,259.407 196.500 L 257.952 198.200 200.276 198.400 C 140.062 198.609,141.450 198.565,139.856 200.334 C 138.419 201.930,137.639 235.527,138.954 239.165 C 140.079 242.276,133.496 242.033,213.000 241.895 C 292.453 241.757,287.914 241.928,290.600 238.982 C 291.801 237.665,292.698 237.100,294.200 236.714 C 296.615 236.093,296.812 235.947,301.380 231.380 C 305.945 226.814,306.092 226.617,306.719 224.200 C 307.099 222.732,307.693 221.774,308.949 220.600 C 311.920 217.823,311.751 221.993,311.898 147.941 L 312.029 82.082 321.715 81.898 C 333.001 81.685,334.417 81.404,335.742 79.117 C 336.876 77.160,336.028 75.312,333.466 74.153 C 332.389 73.666,331.566 72.931,331.137 72.072 C 330.240 70.275,329.215 69.200,328.400 69.200 C 327.616 69.200,326.888 68.384,325.862 66.353 C 325.369 65.378,324.588 64.661,323.466 64.153 C 322.389 63.666,321.566 62.931,321.137 62.072 C 320.240 60.275,319.215 59.200,318.400 59.200 C 317.616 59.200,316.888 58.384,315.862 56.353 C 315.369 55.378,314.588 54.661,313.466 54.153 C 312.389 53.666,311.566 52.931,311.137 52.072 C 310.240 50.275,309.215 49.200,308.400 49.200 C 307.611 49.200,306.603 48.156,306.240 46.963 C 305.926 45.928,304.584 44.680,303.000 43.951 C 302.340 43.648,301.502 42.802,301.137 42.072 C 300.239 40.275,299.215 39.200,298.400 39.200 C 297.615 39.200,296.888 38.384,295.859 36.347 C 294.689 34.033,288.883 33.008,285.955 34.600 M313.005 57.038 C 329.136 73.176,333.539 77.792,333.195 78.206 C 331.977 79.674,327.516 80.400,319.714 80.400 C 313.816 80.400,311.982 80.525,311.376 80.968 C 310.615 81.524,310.595 82.785,310.365 145.468 C 310.119 212.271,310.058 214.502,308.424 216.136 C 308.191 216.369,308.000 216.884,308.000 217.280 C 308.000 217.676,307.818 218.000,307.595 218.000 C 307.231 218.000,304.800 222.798,304.800 223.518 C 304.800 224.538,294.583 234.800,293.567 234.800 C 292.812 234.800,288.000 237.216,288.000 237.595 C 288.000 237.818,287.758 238.000,287.461 238.000 C 287.165 238.000,286.400 238.257,285.761 238.572 C 282.664 240.096,280.630 240.143,210.698 240.291 C 137.074 240.447,140.864 240.544,140.813 238.500 C 140.806 238.225,140.620 238.000,140.400 238.000 C 139.816 238.000,139.869 209.865,140.461 205.800 C 141.373 199.532,136.314 200.000,203.159 200.000 C 266.512 200.000,259.912 200.509,265.211 195.211 C 268.205 192.216,268.804 191.390,269.356 189.494 C 270.305 186.226,270.320 82.658,269.371 81.400 C 268.812 80.659,268.140 80.582,260.284 80.352 C 251.898 80.106,249.348 79.725,247.345 78.421 C 246.526 77.887,247.351 77.001,267.145 57.158 L 287.800 36.451 290.088 36.426 L 292.376 36.400 313.005 57.038 M116.800 148.876 C 111.939 149.260,109.565 150.221,108.988 152.037 C 108.843 152.494,108.102 152.952,107.076 153.221 C 104.447 153.908,101.874 155.399,101.000 156.741 C 100.560 157.416,100.065 157.976,99.900 157.985 C 99.503 158.005,98.001 159.517,97.997 159.900 C 97.996 160.065,97.475 160.496,96.840 160.857 C 95.377 161.689,94.072 163.938,93.231 167.076 C 92.966 168.065,92.488 168.845,92.063 168.980 C 88.624 170.071,88.721 168.118,88.446 242.000 L 88.200 308.200 78.600 308.427 C 73.047 308.559,68.295 308.858,67.328 309.135 C 63.458 310.247,63.178 315.087,66.918 316.226 C 68.152 316.602,69.200 317.600,69.200 318.400 C 69.200 319.215,70.275 320.239,72.072 321.137 C 72.802 321.502,73.648 322.340,73.951 323.000 C 74.680 324.584,75.928 325.926,76.963 326.240 C 78.156 326.603,79.200 327.611,79.200 328.400 C 79.200 329.215,80.275 330.239,82.072 331.137 C 82.802 331.502,83.648 332.340,83.951 333.000 C 84.680 334.584,85.928 335.926,86.963 336.240 C 88.156 336.603,89.200 337.611,89.200 338.400 C 89.200 339.215,90.275 340.239,92.072 341.137 C 92.802 341.502,93.648 342.340,93.951 343.000 C 94.680 344.584,95.928 345.926,96.963 346.240 C 98.156 346.603,99.200 347.611,99.200 348.400 C 99.200 349.215,100.275 350.240,102.072 351.137 C 102.856 351.528,103.680 352.398,104.083 353.258 C 106.228 357.834,116.400 357.534,116.400 352.894 C 116.400 352.361,117.007 351.796,118.284 351.138 C 119.698 350.411,120.411 349.698,121.138 348.284 C 121.796 347.007,122.361 346.400,122.894 346.400 C 123.912 346.400,126.400 343.912,126.400 342.894 C 126.400 342.361,127.007 341.796,128.284 341.138 C 129.698 340.411,130.411 339.698,131.138 338.284 C 131.796 337.007,132.361 336.400,132.894 336.400 C 133.912 336.400,136.400 333.912,136.400 332.894 C 136.400 332.361,137.007 331.796,138.284 331.138 C 139.698 330.411,140.411 329.698,141.138 328.284 C 141.796 327.007,142.361 326.400,142.894 326.400 C 143.912 326.400,146.400 323.912,146.400 322.894 C 146.400 322.361,147.007 321.796,148.284 321.138 C 149.698 320.411,150.411 319.698,151.138 318.284 C 151.796 317.007,152.361 316.400,152.894 316.400 C 153.865 316.400,156.400 313.932,156.400 312.987 C 156.400 311.752,154.783 309.609,153.667 309.366 C 153.080 309.238,152.330 309.029,152.000 308.901 C 151.670 308.773,147.080 308.563,141.800 308.434 L 132.200 308.200 132.090 255.800 C 131.971 198.548,131.876 202.082,133.549 201.094 C 134.199 200.710,135.113 199.607,135.579 198.643 C 136.369 197.011,138.855 194.800,139.899 194.800 C 140.150 194.800,140.678 194.253,141.073 193.584 C 142.078 191.882,137.841 192.003,200.400 191.897 C 253.250 191.807,257.510 191.750,258.914 191.114 C 261.761 189.826,261.775 189.723,261.913 169.800 C 262.051 149.990,262.052 149.998,259.165 148.954 C 257.509 148.356,124.322 148.283,116.800 148.876 M258.000 150.400 C 258.000 150.620,258.196 150.800,258.436 150.800 C 261.190 150.800,261.400 185.937,258.662 188.660 C 257.210 190.104,255.493 190.152,197.600 190.379 C 131.969 190.635,139.692 189.982,134.448 195.722 C 131.708 198.723,131.191 199.519,130.820 201.311 C 129.904 205.741,130.456 308.657,131.400 309.370 C 132.046 309.858,133.642 309.977,139.694 309.987 C 150.386 310.005,155.900 311.582,152.700 313.705 C 151.584 314.445,149.200 316.722,149.200 317.047 C 149.200 317.505,147.398 319.186,146.900 319.193 C 146.625 319.197,146.396 319.335,146.392 319.500 C 146.383 319.860,143.177 323.215,140.862 325.288 C 139.948 326.106,139.200 326.890,139.200 327.031 C 139.200 327.501,137.407 329.186,136.900 329.193 C 136.625 329.197,136.396 329.335,136.392 329.500 C 136.383 329.860,133.177 333.215,130.862 335.288 C 129.948 336.106,129.200 336.890,129.200 337.031 C 129.200 337.501,127.407 339.186,126.900 339.193 C 126.625 339.197,126.396 339.335,126.392 339.500 C 126.383 339.860,123.177 343.215,120.862 345.288 C 119.948 346.106,119.200 346.890,119.200 347.031 C 119.200 347.437,117.442 349.183,117.000 349.217 C 116.780 349.234,115.790 350.222,114.800 351.413 L 113.000 353.578 110.321 353.589 L 107.641 353.600 87.056 333.023 L 66.470 312.446 67.529 311.752 C 69.295 310.595,71.440 310.304,80.087 310.047 C 87.303 309.832,88.466 309.708,89.087 309.086 C 89.763 308.409,89.813 305.053,90.056 244.686 C 90.349 171.954,90.087 176.883,94.008 170.200 C 94.653 169.100,95.186 167.872,95.191 167.471 C 95.196 167.071,95.425 166.497,95.700 166.195 C 95.975 165.894,96.920 164.834,97.800 163.839 C 102.014 159.074,106.389 155.342,108.393 154.802 C 109.216 154.580,110.573 153.935,111.408 153.369 C 114.283 151.418,116.489 150.829,122.303 150.463 C 130.313 149.958,258.000 149.899,258.000 150.400 " stroke="none" fill="#78acdc" fill-rule="evenodd"></path><path id="path4" d="M286.871 41.000 C 286.439 41.550,285.981 42.000,285.853 42.000 C 285.522 42.000,282.002 45.562,281.989 45.911 C 281.983 46.070,281.358 46.650,280.600 47.200 C 279.842 47.750,279.217 48.425,279.211 48.700 C 279.205 48.975,278.975 49.205,278.700 49.211 C 278.425 49.217,277.750 49.842,277.200 50.600 C 276.650 51.358,276.070 51.983,275.911 51.989 C 275.533 52.003,272.003 55.533,271.989 55.911 C 271.983 56.070,271.358 56.650,270.600 57.200 C 269.842 57.750,269.217 58.425,269.211 58.700 C 269.205 58.975,268.975 59.205,268.700 59.211 C 268.425 59.217,267.750 59.842,267.200 60.600 C 266.650 61.358,266.070 61.983,265.911 61.989 C 265.533 62.003,262.003 65.533,261.989 65.911 C 261.983 66.070,261.358 66.650,260.600 67.200 C 259.842 67.750,259.217 68.425,259.211 68.700 C 259.205 68.975,258.975 69.205,258.700 69.211 C 258.425 69.217,257.750 69.842,257.200 70.600 C 256.650 71.358,256.070 71.983,255.911 71.989 C 255.562 72.002,252.000 75.522,252.000 75.853 C 252.000 75.981,251.533 76.452,250.962 76.901 L 249.925 77.717 251.462 78.253 C 252.537 78.627,255.311 78.790,260.674 78.794 C 264.895 78.797,268.801 78.972,269.355 79.183 C 271.722 80.083,271.600 77.042,271.600 135.003 C 271.600 194.507,271.669 192.869,269.078 194.931 C 267.435 196.239,266.903 196.779,264.834 199.239 C 262.810 201.647,264.035 201.600,203.323 201.602 C 138.604 201.605,142.803 201.282,141.977 206.325 C 141.399 209.857,141.488 237.728,142.080 238.320 C 142.737 238.977,268.136 239.012,276.631 238.357 C 282.371 237.915,282.381 237.913,283.817 236.558 C 284.608 235.812,285.738 235.096,286.328 234.967 C 286.918 234.837,288.079 234.477,288.908 234.166 C 289.738 233.855,290.848 233.600,291.375 233.600 C 292.711 233.600,293.600 233.205,293.600 232.613 C 293.600 231.875,296.244 229.200,296.973 229.200 C 297.794 229.200,299.200 227.778,299.200 226.947 C 299.200 226.183,301.813 223.600,302.586 223.600 C 303.203 223.600,303.600 222.730,303.600 221.375 C 303.600 220.848,303.855 219.738,304.166 218.908 C 304.477 218.079,304.837 216.918,304.967 216.328 C 305.096 215.738,305.814 214.606,306.563 213.812 C 308.527 211.730,308.441 214.475,308.733 144.511 L 309.000 80.822 309.910 79.911 C 310.786 79.035,311.150 78.991,319.510 78.774 C 324.290 78.650,328.707 78.375,329.327 78.165 L 330.455 77.781 329.227 76.688 C 328.552 76.086,328.000 75.427,328.000 75.224 C 328.000 75.020,327.685 74.753,327.300 74.629 C 326.915 74.506,326.240 73.864,325.800 73.203 C 325.360 72.543,324.867 72.002,324.704 72.001 C 324.316 72.000,318.000 65.552,318.000 65.158 C 318.000 64.991,317.685 64.753,317.300 64.629 C 316.915 64.506,316.240 63.864,315.800 63.203 C 315.360 62.543,314.867 62.002,314.704 62.001 C 314.541 62.001,312.973 60.515,311.219 58.700 C 309.464 56.885,307.887 55.263,307.715 55.097 C 303.292 50.831,298.000 45.428,298.000 45.180 C 298.000 45.001,297.685 44.753,297.300 44.629 C 296.915 44.506,296.240 43.864,295.800 43.203 C 295.360 42.543,294.796 42.002,294.546 42.001 C 294.296 42.001,293.797 41.550,293.437 41.000 C 292.851 40.106,292.511 40.000,290.220 40.000 C 287.964 40.000,287.564 40.119,286.871 41.000 M293.027 43.500 C 293.715 46.616,293.784 46.685,296.900 47.373 C 297.825 47.577,298.000 47.822,298.000 48.919 C 298.000 50.804,298.976 51.999,300.523 52.006 C 302.342 52.015,302.766 52.412,303.314 54.624 C 303.817 56.653,304.021 56.811,306.900 57.393 C 307.829 57.581,308.000 57.817,308.000 58.919 C 308.000 60.804,308.976 61.999,310.523 62.006 C 312.338 62.015,312.765 62.412,313.314 64.602 C 313.816 66.604,313.977 66.728,316.900 67.373 C 317.825 67.577,318.000 67.822,318.000 68.919 C 318.000 70.804,318.976 71.999,320.523 72.006 C 322.338 72.015,322.765 72.412,323.314 74.602 C 323.819 76.613,323.746 76.557,327.000 77.465 C 327.768 77.679,324.599 77.872,318.200 78.000 L 308.200 78.200 308.099 141.500 C 308.021 190.180,307.887 204.800,307.521 204.800 C 306.882 204.800,304.800 206.822,304.800 207.442 C 304.800 207.712,304.590 208.003,304.333 208.089 C 303.834 208.255,302.870 214.149,302.826 217.300 C 302.812 218.345,302.665 219.200,302.500 219.200 C 300.929 219.203,298.000 223.611,298.000 225.973 L 298.000 228.000 295.973 228.000 C 293.658 228.000,289.204 230.924,289.200 232.445 C 289.200 232.580,287.535 232.817,285.500 232.971 C 280.810 233.327,278.265 233.804,278.079 234.362 C 277.999 234.603,277.733 234.800,277.489 234.800 C 276.857 234.800,274.800 236.846,274.800 237.475 C 274.800 237.906,262.985 238.000,208.600 238.000 L 142.400 238.000 142.400 222.600 C 142.400 208.448,142.454 207.200,143.072 207.200 C 145.416 207.200,147.200 205.418,147.200 203.078 C 147.200 202.461,151.538 202.405,206.832 202.306 C 274.128 202.186,267.600 202.528,267.600 199.124 C 267.600 197.625,267.625 197.600,269.124 197.600 C 272.526 197.600,272.185 203.905,272.316 138.532 C 272.380 106.670,272.327 80.015,272.198 79.300 L 271.964 78.000 262.115 78.000 C 256.699 78.000,252.365 77.901,252.486 77.781 C 252.607 77.660,253.582 77.345,254.653 77.081 C 256.528 76.618,256.617 76.531,257.064 74.720 C 257.698 72.150,257.835 72.000,259.544 72.000 C 261.430 72.000,262.000 71.430,262.000 69.544 C 262.000 67.835,262.150 67.698,264.720 67.064 C 266.519 66.620,266.620 66.519,267.064 64.720 C 267.698 62.150,267.835 62.000,269.544 62.000 C 271.430 62.000,272.000 61.430,272.000 59.544 C 272.000 57.835,272.150 57.698,274.720 57.064 C 276.519 56.620,276.620 56.519,277.064 54.720 C 277.698 52.150,277.835 52.000,279.544 52.000 C 281.430 52.000,282.000 51.430,282.000 49.544 C 282.000 47.840,282.150 47.701,284.689 47.064 C 286.595 46.586,286.732 46.403,287.373 43.500 C 287.607 42.439,287.706 42.400,290.200 42.400 C 292.694 42.400,292.793 42.439,293.027 43.500 M122.561 151.978 C 118.445 152.209,118.052 152.303,117.153 153.273 C 116.044 154.470,111.602 156.400,109.957 156.400 C 108.260 156.400,106.823 157.090,106.433 158.093 C 105.962 159.308,104.893 160.310,103.200 161.126 C 102.408 161.507,101.512 162.377,101.137 163.128 C 100.271 164.863,99.217 166.009,98.093 166.439 C 97.106 166.816,96.400 168.254,96.400 169.885 C 96.400 171.630,94.784 175.465,93.491 176.787 C 91.699 178.620,91.650 180.502,91.623 248.681 C 91.606 294.058,91.485 308.614,91.122 309.411 C 90.231 311.367,89.127 311.600,80.720 311.602 C 76.474 311.603,72.314 311.795,71.476 312.028 L 69.951 312.451 88.919 331.426 L 107.886 350.400 110.173 350.400 L 112.461 350.400 131.439 331.421 L 150.418 312.443 148.909 312.024 C 148.079 311.793,143.890 311.603,139.600 311.601 C 130.680 311.596,129.467 311.267,129.003 308.719 C 128.871 307.994,128.817 282.815,128.882 252.766 L 129.000 198.131 130.114 196.523 C 130.727 195.639,131.654 194.722,132.173 194.485 C 132.693 194.248,133.624 193.367,134.244 192.527 C 137.163 188.568,132.919 188.822,197.000 188.782 C 261.951 188.743,257.297 189.069,258.265 184.490 C 258.947 181.262,258.995 152.755,258.320 152.080 C 257.806 151.566,131.616 151.471,122.561 151.978 M258.000 167.749 L 258.000 183.098 256.320 183.366 C 254.106 183.720,253.690 184.125,253.374 186.233 L 253.109 188.000 193.577 188.000 L 134.045 188.000 133.423 188.889 C 133.080 189.378,132.800 190.458,132.800 191.289 C 132.800 192.770,132.770 192.800,131.289 192.800 C 130.458 192.800,129.378 193.080,128.889 193.423 L 128.000 194.045 128.000 252.976 L 128.000 311.907 128.900 312.148 C 129.395 312.281,133.940 312.397,139.000 312.407 C 147.664 312.423,149.466 312.704,145.312 313.388 C 143.749 313.646,143.605 313.775,143.377 315.133 C 142.914 317.887,142.834 318.000,141.355 318.000 C 139.473 318.000,138.000 319.473,138.000 321.355 C 138.000 322.838,137.867 322.933,135.110 323.421 C 133.775 323.658,133.595 323.837,133.375 325.143 C 132.914 327.886,132.833 328.000,131.355 328.000 C 129.473 328.000,128.000 329.473,128.000 331.355 C 128.000 332.838,127.867 332.933,125.110 333.421 C 123.775 333.658,123.595 333.837,123.375 335.143 C 122.914 337.886,122.833 338.000,121.355 338.000 C 119.473 338.000,118.000 339.473,118.000 341.355 C 118.000 342.838,117.867 342.933,115.110 343.421 C 113.775 343.658,113.595 343.837,113.375 345.143 C 112.881 348.081,112.971 348.000,110.181 348.000 C 107.703 348.000,107.608 347.963,107.393 346.900 C 106.811 344.021,106.653 343.817,104.624 343.314 C 102.412 342.766,102.015 342.342,102.006 340.523 C 101.999 338.976,100.804 338.000,98.919 338.000 C 97.817 338.000,97.581 337.829,97.393 336.900 C 96.811 334.021,96.653 333.817,94.624 333.314 C 92.412 332.766,92.015 332.342,92.006 330.523 C 91.999 328.976,90.804 328.000,88.919 328.000 C 87.817 328.000,87.581 327.829,87.393 326.900 C 86.811 324.021,86.653 323.817,84.624 323.314 C 82.412 322.766,82.015 322.342,82.006 320.523 C 81.999 318.976,80.804 318.000,78.919 318.000 C 77.817 318.000,77.581 317.829,77.393 316.900 C 76.905 314.489,76.564 313.855,75.600 313.568 C 75.050 313.404,74.060 313.119,73.400 312.935 C 72.628 312.720,75.649 312.529,81.868 312.400 C 87.185 312.290,91.685 312.050,91.868 311.867 C 92.050 311.683,92.290 283.184,92.400 248.534 L 92.600 185.535 93.471 185.068 C 95.792 183.821,96.971 180.677,97.437 174.487 L 97.717 170.774 99.887 168.790 C 101.888 166.962,102.074 166.639,102.279 164.654 L 102.501 162.501 104.654 162.279 C 106.638 162.075,106.962 161.887,108.788 159.890 L 110.769 157.722 114.325 157.470 C 119.425 157.108,121.912 156.509,122.209 155.571 C 122.344 155.147,122.698 154.800,122.997 154.800 C 123.295 154.800,123.958 154.270,124.470 153.622 L 125.400 152.444 191.700 152.422 L 258.000 152.400 258.000 167.749 " stroke="none" fill="#d4ecfc" fill-rule="evenodd"></path></g></svg>