<?xml version="1.0" standalone="no"?>
<!DOCTYPE svg PUBLIC "-//W3C//DTD SVG 20010904//EN"
 "http://www.w3.org/TR/2001/REC-SVG-20010904/DTD/svg10.dtd">
<svg version="1.0" xmlns="http://www.w3.org/2000/svg"
 width="1280.000000pt" height="1280.000000pt" viewBox="0 0 1280.000000 1280.000000"
 preserveAspectRatio="xMidYMid meet">
<g transform="translate(0.000000,1280.000000) scale(0.100000,-0.100000)"
fill="#000000" stroke="none">
<path d="M966 8198 c-14 -20 -16 -89 -16 -558 0 -523 4 -593 32 -612 7 -4 238
-8 514 -8 473 0 502 1 517 18 15 17 17 72 17 585 l0 566 -22 15 c-20 14 -86
16 -525 16 l-502 0 -15 -22z m974 -578 l0 -510 -445 0 -445 0 0 510 0 510 445
0 445 0 0 -510z"/>
<path d="M2882 8168 c-9 -9 -12 -149 -12 -568 0 -553 0 -557 21 -576 20 -18
44 -19 529 -19 485 0 509 1 529 19 21 19 21 23 21 565 0 479 -2 549 -16 569
l-15 22 -523 0 c-393 0 -525 -3 -534 -12z m961 -90 c-6 -7 -106 -138 -222
-290 -117 -153 -217 -278 -222 -278 -6 0 -55 39 -110 86 -55 48 -101 85 -104
83 -2 -2 3 -40 11 -84 7 -44 27 -163 44 -265 17 -102 34 -194 39 -205 7 -17
18 -4 76 85 37 58 118 182 180 275 122 186 279 428 314 488 13 20 25 37 27 37
2 0 4 -205 4 -455 l0 -454 -297 -3 c-164 -2 -371 -2 -460 0 l-163 2 0 495 0
495 446 0 c356 0 444 -3 437 -12z"/>
<path d="M4772 8144 l-22 -15 0 -533 c0 -529 0 -533 21 -552 20 -18 45 -19
600 -19 461 0 581 3 591 13 10 10 13 122 13 548 l0 536 -24 19 c-22 18 -47 19
-590 19 -497 0 -569 -2 -589 -16z m985 -87 c-3 -8 -103 -143 -222 -301 l-218
-287 -21 19 c-11 10 -65 56 -118 101 -112 95 -109 97 -78 -61 21 -111 70 -396
70 -410 0 -4 -74 -8 -165 -8 l-165 0 0 480 0 480 461 0 c379 0 460 -2 456 -13z
m128 -468 l0 -474 -317 -3 c-175 -1 -318 1 -318 4 0 9 83 140 160 254 32 47
100 153 152 235 299 473 295 468 312 462 8 -3 11 -130 11 -478z"/>
<path d="M6710 8140 c-19 -19 -20 -33 -20 -550 l0 -531 25 -24 c22 -23 32 -25
115 -25 80 0 90 -2 90 -18 0 -55 -63 -699 -81 -827 -21 -146 -175 -794 -217
-915 -30 -82 -97 -223 -113 -237 -12 -9 -43 -10 -130 -3 -207 17 -280 13 -441
-25 -81 -18 -167 -43 -192 -53 -50 -22 -58 -33 -202 -271 -131 -218 -213 -303
-364 -380 -195 -100 -287 -177 -386 -321 -73 -107 -435 -703 -494 -813 -56
-105 -74 -166 -90 -307 -14 -114 -3 -267 31 -435 26 -133 109 -376 169 -500
56 -116 189 -318 322 -490 112 -145 347 -383 443 -450 116 -80 285 -172 365
-199 122 -40 211 -47 682 -49 499 -2 487 -4 777 84 349 105 939 422 1175 630
27 24 107 120 177 214 70 93 184 233 254 310 205 225 279 334 309 451 32 123
15 240 -51 368 -39 74 -121 161 -586 616 -115 112 -187 191 -202 220 -21 41
-167 480 -332 994 l-67 210 42 415 c23 229 44 497 47 596 3 99 18 310 35 469
27 259 48 554 50 691 0 28 3 292 6 588 l5 537 -25 25 -25 25 -541 0 c-527 0
-540 0 -560 -20z m923 -78 c15 -7 12 -15 -28 -69 -40 -54 -49 -61 -65 -51 -14
9 -39 5 -116 -16 -55 -16 -117 -36 -139 -46 -60 -27 -138 -102 -191 -183 -26
-39 -51 -76 -55 -81 -4 -4 -23 4 -43 19 -20 15 -36 25 -36 22 0 -3 7 -42 16
-87 14 -78 14 -87 -5 -169 -11 -47 -25 -135 -32 -194 l-12 -108 -71 3 -71 3
-3 470 c-1 259 0 476 3 483 3 9 96 12 417 11 227 0 421 -4 431 -7z m136 -269
c0 -151 -4 -259 -9 -248 -4 11 -20 52 -34 90 -14 39 -46 104 -70 145 l-43 74
51 84 c54 88 81 122 96 122 6 0 10 -103 9 -267z"/>
<path d="M8636 8138 c-14 -20 -16 -90 -16 -560 0 -530 3 -581 33 -600 7 -4
258 -8 560 -8 534 0 547 0 567 20 20 20 20 33 20 573 0 484 -2 555 -16 575
l-15 22 -559 0 -559 0 -15 -22z m1074 -573 l0 -505 -500 0 -500 0 0 505 0 505
500 0 500 0 0 -505z"/>
<path d="M10588 8139 c-17 -9 -18 -47 -18 -568 0 -465 2 -560 14 -577 14 -18
33 -19 567 -22 484 -2 555 -1 575 13 l24 15 0 559 c0 528 -1 559 -18 574 -17
15 -71 17 -573 17 -358 -1 -560 -4 -571 -11z m1072 -579 l0 -500 -500 0 -500
0 0 500 0 500 500 0 500 0 0 -500z"/>
</g>
</svg>
