<svg id="svg" xmlns="http://www.w3.org/2000/svg" xmlns:xlink="http://www.w3.org/1999/xlink" width="400" height="400" viewBox="0, 0, 400,400"><g id="svgg"><path id="path0" d="M189.181 167.487 C 188.050 167.608,187.612 167.916,187.028 169.000 C 186.190 170.556,184.047 171.473,180.407 171.833 C 177.044 172.165,176.400 172.360,176.400 173.048 C 176.400 173.870,173.868 176.400,173.045 176.400 C 172.313 176.400,170.800 177.591,170.800 178.167 C 170.800 178.732,168.735 180.800,168.171 180.800 C 167.586 180.800,166.615 182.241,166.279 183.608 C 165.928 185.035,164.534 186.400,163.427 186.400 C 162.289 186.400,162.000 187.053,162.000 189.621 C 162.000 193.243,160.440 199.819,159.143 201.666 C 158.548 202.513,158.477 202.950,158.797 203.792 C 159.019 204.375,159.200 205.466,159.200 206.216 C 159.200 206.967,159.559 208.170,159.999 208.890 C 160.438 209.611,160.798 210.863,160.799 211.674 C 160.799 212.485,160.994 213.655,161.231 214.274 C 161.468 214.893,161.745 216.570,161.845 218.000 C 162.191 222.917,162.272 223.140,163.825 223.431 C 165.404 223.727,166.400 224.883,166.400 226.419 C 166.400 227.559,167.873 229.200,168.897 229.200 C 169.648 229.200,170.874 230.647,171.593 232.384 C 172.008 233.384,172.327 233.600,173.390 233.600 C 174.973 233.600,176.720 235.098,177.047 236.737 C 177.270 237.848,177.395 237.908,179.940 238.131 C 181.403 238.259,183.140 238.460,183.800 238.578 C 184.460 238.697,186.357 238.948,188.017 239.138 C 189.676 239.328,191.386 239.670,191.817 239.900 C 193.352 240.719,197.778 240.935,199.090 240.257 C 200.298 239.632,206.431 238.537,211.060 238.119 C 213.363 237.911,213.535 237.825,213.744 236.779 C 214.038 235.312,215.398 234.085,217.300 233.573 C 218.355 233.289,218.953 232.848,219.213 232.165 C 219.660 230.990,221.491 229.200,222.247 229.200 C 222.538 229.200,223.231 228.239,223.787 227.064 C 224.648 225.244,226.452 223.623,227.880 223.387 C 227.924 223.380,228.250 221.400,228.605 218.987 C 229.248 214.615,229.257 214.594,231.125 212.684 L 233.000 210.768 233.000 204.317 C 233.000 199.203,232.886 197.829,232.451 197.683 C 230.924 197.175,229.496 195.302,229.169 193.380 C 228.983 192.291,228.735 190.860,228.616 190.200 C 228.497 189.540,228.309 188.456,228.199 187.790 C 228.052 186.910,227.599 186.366,226.533 185.792 C 225.443 185.205,224.821 184.441,224.097 182.802 C 222.947 180.199,220.347 177.495,217.931 176.392 C 215.690 175.368,214.978 174.792,214.643 173.735 C 214.238 172.460,213.618 172.108,211.400 171.898 C 206.807 171.462,203.600 169.970,203.600 168.270 C 203.600 167.317,195.081 166.854,189.181 167.487 " stroke="none" fill="#8cb4f3" fill-rule="evenodd"></path><path id="path1" d="M310.500 193.900 C 265.566 193.967,242.400 194.138,242.400 194.401 C 242.400 194.665,265.539 194.800,310.624 194.800 C 356.004 194.800,378.764 194.666,378.600 194.400 C 378.287 193.894,378.817 193.894,379.600 194.400 C 380.113 194.731,380.098 194.789,379.500 194.794 C 379.115 194.797,378.845 195.018,378.900 195.284 C 379.035 195.940,379.745 196.749,380.033 196.576 C 380.162 196.498,380.267 196.700,380.267 197.025 C 380.267 197.464,380.032 197.394,379.346 196.749 C 378.839 196.273,378.520 195.730,378.636 195.542 C 378.753 195.353,348.268 195.200,310.624 195.200 L 242.400 195.200 242.391 196.500 C 242.386 197.215,242.026 198.585,241.591 199.544 C 240.458 202.042,240.473 207.959,241.620 210.551 L 242.439 212.404 312.120 212.387 C 372.603 212.372,381.902 212.292,382.576 211.785 C 383.004 211.463,383.139 211.200,382.876 211.200 C 382.614 211.200,382.400 211.014,382.400 210.786 C 382.400 210.520,382.722 210.543,383.300 210.851 C 384.145 211.302,384.163 211.286,383.600 210.589 C 383.216 210.114,383.186 209.959,383.518 210.158 C 383.802 210.329,384.297 210.251,384.618 209.985 C 384.938 209.720,385.200 209.636,385.200 209.800 C 385.200 209.964,385.470 209.874,385.800 209.600 C 386.130 209.326,386.400 208.910,386.400 208.675 C 386.400 208.439,386.166 208.567,385.880 208.958 C 385.420 209.588,385.357 209.494,385.328 208.134 C 385.303 206.979,385.375 206.798,385.619 207.400 C 385.867 208.010,385.968 207.772,386.047 206.400 C 386.330 201.481,386.267 200.725,385.503 199.862 C 385.083 199.388,384.856 199.270,384.999 199.600 C 385.148 199.944,385.002 199.884,384.656 199.460 C 384.305 199.029,383.849 198.846,383.565 199.022 C 383.235 199.226,383.180 199.157,383.394 198.810 C 383.605 198.468,383.526 198.358,383.159 198.480 C 382.492 198.703,381.523 197.817,381.659 197.109 C 381.910 195.806,379.523 193.037,378.720 193.699 C 378.654 193.753,347.955 193.844,310.500 193.900 M10.753 194.300 C 10.727 194.465,10.723 194.725,10.745 194.877 C 10.767 195.029,10.323 195.517,9.759 195.961 C 8.800 196.715,8.740 197.600,9.647 197.600 C 9.867 197.600,9.936 197.420,9.800 197.200 C 9.664 196.980,9.844 196.800,10.200 196.800 C 10.556 196.800,10.736 196.620,10.600 196.400 C 10.464 196.180,10.507 196.000,10.696 196.000 C 10.885 196.000,11.040 195.550,11.040 195.000 C 11.040 194.066,10.859 193.626,10.753 194.300 M11.815 194.642 C 11.290 195.167,11.264 195.405,11.673 195.942 C 11.948 196.304,12.021 196.471,11.834 196.314 C 11.647 196.156,11.145 196.471,10.718 197.014 C 10.274 197.578,9.527 198.000,8.971 198.000 L 8.000 198.000 8.000 205.024 C 8.000 209.604,8.139 211.961,8.400 211.800 C 8.620 211.664,8.800 211.740,8.800 211.968 C 8.800 212.253,30.568 212.387,78.301 212.396 L 147.802 212.408 148.401 211.504 C 150.215 208.762,150.276 203.049,148.534 198.940 C 148.240 198.246,148.000 197.122,148.000 196.441 L 148.000 195.202 82.700 195.100 L 17.400 194.998 82.700 194.899 C 125.901 194.833,148.000 194.665,148.000 194.400 C 148.000 193.630,12.586 193.871,11.815 194.642 M15.600 194.623 C 14.114 194.947,12.074 195.003,12.252 194.716 C 12.359 194.542,13.292 194.421,14.324 194.446 C 15.356 194.472,15.930 194.552,15.600 194.623 " stroke="none" fill="#a4b4cc" fill-rule="evenodd"></path><path id="path2" d="M190.848 153.580 C 189.320 153.964,188.973 154.376,188.387 156.491 L 187.974 157.982 180.492 158.091 C 173.390 158.194,173.003 158.240,172.858 158.995 C 172.452 161.105,169.864 162.800,167.047 162.800 C 163.707 162.800,162.800 163.526,162.800 166.200 L 162.800 168.000 160.400 168.000 L 158.000 168.000 158.000 170.349 L 158.000 172.698 155.976 172.893 C 153.149 173.164,153.020 173.394,152.865 178.419 L 152.729 182.800 151.138 182.800 C 148.134 182.800,148.000 183.032,148.000 188.214 L 148.000 192.800 80.200 192.800 C 26.227 192.800,12.400 192.902,12.400 193.300 C 12.400 193.698,26.165 193.777,80.200 193.685 L 148.000 193.570 148.000 195.785 C 148.000 197.003,148.148 198.000,148.329 198.000 C 150.756 198.000,150.963 209.639,148.571 211.624 C 148.115 212.002,148.000 213.540,148.000 219.226 C 148.000 227.294,148.120 227.600,151.289 227.600 L 152.800 227.600 152.832 230.300 C 152.850 231.785,153.075 233.797,153.332 234.770 C 153.812 236.585,154.021 236.738,156.900 237.373 C 157.918 237.597,158.000 237.762,158.000 239.584 C 158.000 241.861,158.098 241.955,160.826 242.278 C 162.975 242.532,162.998 242.555,163.375 244.839 C 163.685 246.714,164.765 247.198,169.288 247.491 L 172.800 247.718 172.800 249.183 C 172.800 252.406,171.258 252.200,195.334 252.200 C 207.104 252.200,216.864 252.069,217.025 251.909 C 217.185 251.749,217.401 250.733,217.505 249.652 L 217.693 247.687 221.795 247.535 C 226.596 247.358,227.082 247.085,227.443 244.358 L 227.703 242.400 229.423 242.400 C 231.638 242.400,232.400 241.638,232.400 239.423 L 232.400 237.704 234.241 237.497 C 237.073 237.177,237.378 236.649,237.536 231.787 L 237.673 227.600 239.622 227.600 C 242.305 227.600,242.400 227.315,242.400 219.249 C 242.400 212.912,242.338 212.341,241.500 210.923 C 240.247 208.802,240.144 200.587,241.354 199.250 C 242.116 198.409,242.256 197.824,242.349 195.100 L 242.400 193.600 310.200 193.600 C 355.133 193.600,378.000 193.465,378.000 193.200 C 378.000 192.935,355.133 192.800,310.200 192.800 L 242.400 192.800 242.400 188.400 C 242.400 183.263,241.352 180.564,238.900 179.387 C 237.655 178.789,237.600 178.665,237.600 176.443 C 237.600 173.546,236.922 172.800,234.288 172.800 L 232.440 172.800 232.320 170.500 L 232.200 168.200 229.900 168.080 L 227.600 167.960 227.600 165.794 C 227.600 163.232,227.096 162.800,224.103 162.800 C 222.208 162.800,222.134 162.755,221.437 161.175 C 220.978 160.134,220.339 159.415,219.660 159.175 C 219.077 158.968,218.287 158.620,217.905 158.400 C 217.509 158.172,213.944 158.000,209.605 158.000 L 202.000 158.000 202.000 156.462 C 202.000 153.934,201.086 153.434,196.268 153.329 C 194.031 153.280,191.592 153.393,190.848 153.580 M207.253 165.354 C 208.053 165.640,209.594 166.622,210.679 167.537 C 211.764 168.452,213.000 169.201,213.426 169.202 C 215.114 169.206,218.797 171.077,219.698 172.389 C 220.194 173.111,221.318 174.099,222.196 174.585 C 223.159 175.117,224.432 176.408,225.402 177.834 C 226.287 179.135,227.401 180.372,227.879 180.583 C 228.975 181.068,230.194 183.219,230.835 185.800 C 231.406 188.102,232.163 189.465,233.499 190.600 C 236.534 193.178,236.034 219.200,232.949 219.200 C 232.447 219.200,230.800 222.263,230.800 223.198 C 230.800 224.072,229.869 226.400,229.520 226.400 C 229.344 226.400,229.199 226.715,229.197 227.100 C 229.196 227.485,228.566 228.228,227.797 228.752 C 227.029 229.275,226.400 229.922,226.400 230.190 C 226.400 230.457,226.040 231.002,225.600 231.400 C 225.160 231.798,224.800 232.335,224.800 232.592 C 224.800 233.207,223.283 234.527,221.900 235.115 C 221.295 235.372,220.800 235.767,220.800 235.991 C 220.800 236.216,220.571 236.400,220.290 236.400 C 220.010 236.400,219.053 237.172,218.165 238.116 C 216.798 239.569,216.116 239.938,213.732 240.513 C 210.119 241.385,208.158 242.211,207.861 242.985 C 207.731 243.323,207.364 243.600,207.046 243.600 C 206.727 243.600,206.407 243.765,206.333 243.967 C 206.045 244.761,201.452 245.172,193.992 245.071 L 186.185 244.965 183.951 243.483 C 182.722 242.667,181.511 242.000,181.259 242.000 C 181.006 242.000,180.800 241.835,180.800 241.633 C 180.800 241.431,179.875 241.068,178.744 240.825 C 176.104 240.259,174.077 239.292,173.579 238.360 C 173.362 237.956,172.334 237.131,171.293 236.527 C 170.252 235.924,169.340 235.288,169.267 235.115 C 169.193 234.942,168.978 234.800,168.787 234.800 C 168.262 234.800,166.400 232.971,166.400 232.454 C 166.400 232.204,166.244 232.000,166.053 232.000 C 165.862 232.000,165.212 231.235,164.608 230.300 C 164.005 229.365,162.901 228.024,162.155 227.320 C 161.410 226.617,160.794 225.807,160.787 225.520 C 160.780 225.234,160.518 224.661,160.204 224.246 C 159.890 223.831,159.516 222.712,159.373 221.759 C 159.230 220.806,158.863 219.818,158.557 219.564 C 158.250 219.310,158.000 218.861,158.000 218.567 C 158.000 218.272,157.645 217.700,157.211 217.296 C 155.025 215.259,154.061 200.794,155.712 194.800 C 156.151 193.204,156.830 192.000,157.290 191.999 C 157.828 191.997,158.818 189.812,159.645 186.800 C 159.917 185.810,160.264 184.820,160.415 184.600 C 160.566 184.380,160.808 183.705,160.952 183.100 C 161.097 182.495,161.383 182.000,161.588 182.000 C 162.207 182.000,164.796 179.129,165.484 177.680 C 165.837 176.935,166.548 176.133,167.063 175.898 C 167.579 175.664,168.000 175.320,168.000 175.136 C 168.000 174.951,168.225 174.794,168.500 174.787 C 169.244 174.767,170.538 173.570,171.405 172.100 C 171.827 171.385,172.456 170.800,172.802 170.800 C 173.148 170.800,174.137 170.440,175.000 170.000 C 175.863 169.560,176.884 169.200,177.268 169.200 C 178.274 169.200,180.779 167.882,180.790 167.346 C 180.803 166.745,182.367 165.745,184.048 165.261 C 186.177 164.649,205.496 164.726,207.253 165.354 M9.821 193.889 C 9.616 194.423,9.485 194.460,9.234 194.055 C 8.772 193.308,8.234 194.599,8.215 196.500 C 8.201 197.849,8.300 197.995,9.200 197.953 C 9.878 197.922,9.974 197.848,9.500 197.724 C 8.793 197.540,8.497 196.400,9.156 196.400 C 9.351 196.400,9.486 196.175,9.456 195.900 C 9.425 195.625,9.580 195.328,9.800 195.240 C 10.020 195.152,10.398 194.809,10.639 194.479 C 10.920 194.094,11.281 194.000,11.639 194.216 C 12.117 194.503,12.118 194.453,11.651 193.877 C 10.946 193.007,10.158 193.012,9.821 193.889 M379.060 193.787 C 378.936 194.110,379.035 194.498,379.279 194.649 C 379.561 194.823,379.610 194.740,379.414 194.423 C 379.200 194.076,379.334 193.973,379.853 194.085 C 380.264 194.175,380.551 194.475,380.490 194.753 C 380.430 195.032,380.566 195.145,380.793 195.004 C 381.020 194.864,381.313 195.030,381.445 195.372 C 381.576 195.715,381.845 195.896,382.042 195.774 C 382.644 195.402,382.442 194.904,381.600 194.684 C 381.160 194.569,380.800 194.188,380.800 193.837 C 380.800 193.034,379.365 192.992,379.060 193.787 M384.054 198.629 C 384.692 198.970,385.078 198.998,385.253 198.715 C 385.395 198.485,385.755 198.439,386.055 198.613 C 386.364 198.791,386.461 198.776,386.279 198.576 C 386.102 198.383,385.318 198.202,384.536 198.175 C 383.170 198.128,383.151 198.146,384.054 198.629 M386.629 201.029 C 386.481 201.615,386.438 202.172,386.532 202.266 C 386.627 202.360,386.824 201.958,386.971 201.371 C 387.119 200.785,387.162 200.228,387.068 200.134 C 386.973 200.040,386.776 200.442,386.629 201.029 M386.438 206.400 C 386.424 207.610,386.560 208.833,386.740 209.117 C 386.924 209.406,386.996 208.611,386.904 207.317 C 386.679 204.158,386.468 203.742,386.438 206.400 M385.619 209.974 C 384.902 210.968,383.608 211.296,382.821 210.683 C 382.283 210.265,382.269 210.289,382.717 210.861 C 383.139 211.401,383.139 211.560,382.717 211.730 C 382.346 211.878,382.372 211.946,382.806 211.968 C 383.139 211.986,384.129 211.618,385.006 211.150 L 386.600 210.300 385.822 211.167 C 385.208 211.852,385.181 211.982,385.691 211.786 C 386.511 211.472,386.895 210.498,386.487 209.769 C 386.230 209.310,386.070 209.348,385.619 209.974 " stroke="none" fill="#537eba" fill-rule="evenodd"></path><path id="path3" d="M184.048 165.261 C 182.367 165.745,180.803 166.745,180.790 167.346 C 180.779 167.882,178.274 169.200,177.268 169.200 C 176.884 169.200,175.863 169.560,175.000 170.000 C 174.137 170.440,173.148 170.800,172.802 170.800 C 172.456 170.800,171.827 171.385,171.405 172.100 C 170.538 173.570,169.244 174.767,168.500 174.787 C 168.225 174.794,168.000 174.951,168.000 175.136 C 168.000 175.320,167.579 175.664,167.063 175.898 C 166.548 176.133,165.837 176.935,165.484 177.680 C 164.796 179.129,162.207 182.000,161.588 182.000 C 161.383 182.000,161.097 182.495,160.952 183.100 C 160.808 183.705,160.566 184.380,160.415 184.600 C 160.264 184.820,159.917 185.810,159.645 186.800 C 158.818 189.812,157.828 191.997,157.290 191.999 C 157.010 191.999,156.577 192.495,156.329 193.100 C 154.021 198.721,154.610 214.873,157.211 217.296 C 157.645 217.700,158.000 218.272,158.000 218.567 C 158.000 218.861,158.250 219.310,158.557 219.564 C 158.863 219.818,159.230 220.806,159.373 221.759 C 159.516 222.712,159.890 223.831,160.204 224.246 C 160.518 224.661,160.780 225.234,160.787 225.520 C 160.794 225.807,161.410 226.617,162.155 227.320 C 162.901 228.024,164.005 229.365,164.608 230.300 C 165.212 231.235,165.862 232.000,166.053 232.000 C 166.244 232.000,166.400 232.204,166.400 232.454 C 166.400 232.971,168.262 234.800,168.787 234.800 C 168.978 234.800,169.193 234.942,169.267 235.115 C 169.340 235.288,170.252 235.924,171.293 236.527 C 172.334 237.131,173.362 237.956,173.579 238.360 C 174.077 239.292,176.104 240.259,178.744 240.825 C 179.875 241.068,180.800 241.431,180.800 241.633 C 180.800 241.835,181.006 242.000,181.259 242.000 C 181.511 242.000,182.722 242.667,183.951 243.483 L 186.185 244.965 193.992 245.071 C 201.452 245.172,206.045 244.761,206.333 243.967 C 206.407 243.765,206.727 243.600,207.046 243.600 C 207.364 243.600,207.731 243.323,207.861 242.985 C 208.158 242.211,210.119 241.385,213.732 240.513 C 216.116 239.938,216.798 239.569,218.165 238.116 C 219.053 237.172,220.010 236.400,220.290 236.400 C 220.571 236.400,220.800 236.216,220.800 235.991 C 220.800 235.767,221.295 235.372,221.900 235.115 C 223.283 234.527,224.800 233.207,224.800 232.592 C 224.800 232.335,225.160 231.798,225.600 231.400 C 226.040 231.002,226.400 230.457,226.400 230.190 C 226.400 229.922,227.029 229.275,227.797 228.752 C 228.566 228.228,229.196 227.485,229.197 227.100 C 229.199 226.715,229.344 226.400,229.520 226.400 C 229.869 226.400,230.800 224.072,230.800 223.198 C 230.800 222.263,232.447 219.200,232.949 219.200 C 236.034 219.200,236.534 193.178,233.499 190.600 C 232.163 189.465,231.406 188.102,230.835 185.800 C 230.194 183.219,228.975 181.068,227.879 180.583 C 227.401 180.372,226.287 179.135,225.402 177.834 C 224.432 176.408,223.159 175.117,222.196 174.585 C 221.318 174.099,220.194 173.111,219.698 172.389 C 218.797 171.077,215.114 169.206,213.426 169.202 C 213.000 169.201,211.764 168.452,210.679 167.537 C 209.594 166.622,208.053 165.640,207.253 165.354 C 205.496 164.726,186.177 164.649,184.048 165.261 M202.100 167.457 C 203.009 167.607,203.600 167.928,203.600 168.270 C 203.600 169.970,206.807 171.462,211.400 171.898 C 213.618 172.108,214.238 172.460,214.643 173.735 C 214.978 174.792,215.690 175.368,217.931 176.392 C 220.347 177.495,222.947 180.199,224.097 182.802 C 224.821 184.441,225.443 185.205,226.533 185.792 C 227.599 186.366,228.052 186.910,228.199 187.790 C 228.309 188.456,228.497 189.540,228.616 190.200 C 228.735 190.860,228.983 192.291,229.169 193.380 C 229.496 195.302,230.924 197.175,232.451 197.683 C 232.886 197.829,233.000 199.203,233.000 204.317 L 233.000 210.768 231.125 212.684 C 229.257 214.594,229.248 214.615,228.605 218.987 C 228.250 221.400,227.924 223.380,227.880 223.387 C 226.452 223.623,224.648 225.244,223.787 227.064 C 223.231 228.239,222.538 229.200,222.247 229.200 C 221.491 229.200,219.660 230.990,219.213 232.165 C 218.953 232.848,218.355 233.289,217.300 233.573 C 215.398 234.085,214.038 235.312,213.744 236.779 C 213.535 237.825,213.363 237.911,211.060 238.119 C 206.431 238.537,200.298 239.632,199.090 240.257 C 197.778 240.935,193.352 240.719,191.817 239.900 C 191.386 239.670,189.676 239.328,188.017 239.138 C 186.357 238.948,184.460 238.697,183.800 238.578 C 183.140 238.460,181.403 238.259,179.940 238.131 C 177.395 237.908,177.270 237.848,177.047 236.737 C 176.720 235.098,174.973 233.600,173.390 233.600 C 172.327 233.600,172.008 233.384,171.593 232.384 C 170.874 230.647,169.648 229.200,168.897 229.200 C 167.873 229.200,166.400 227.559,166.400 226.419 C 166.400 224.883,165.404 223.727,163.825 223.431 C 162.272 223.140,162.191 222.917,161.845 218.000 C 161.745 216.570,161.468 214.893,161.231 214.274 C 160.994 213.655,160.799 212.485,160.799 211.674 C 160.798 210.863,160.438 209.611,159.999 208.890 C 159.559 208.170,159.200 206.967,159.200 206.216 C 159.200 205.466,159.019 204.375,158.797 203.792 C 158.477 202.950,158.548 202.513,159.143 201.666 C 160.440 199.819,162.000 193.243,162.000 189.621 C 162.000 187.053,162.289 186.400,163.427 186.400 C 164.534 186.400,165.928 185.035,166.279 183.608 C 166.615 182.241,167.586 180.800,168.171 180.800 C 168.735 180.800,170.800 178.732,170.800 178.167 C 170.800 177.591,172.313 176.400,173.045 176.400 C 173.868 176.400,176.400 173.870,176.400 173.048 C 176.400 172.360,177.044 172.165,180.407 171.833 C 184.047 171.473,186.190 170.556,187.028 169.000 C 187.612 167.916,188.050 167.608,189.181 167.487 C 191.668 167.220,200.544 167.200,202.100 167.457 M50.100 193.900 C 68.085 193.958,97.515 193.958,115.500 193.900 C 133.485 193.842,118.770 193.795,82.800 193.795 C 46.830 193.795,32.115 193.842,50.100 193.900 M276.332 193.900 C 295.104 193.957,325.704 193.957,344.332 193.900 C 362.959 193.842,347.600 193.795,310.200 193.795 C 272.800 193.795,257.559 193.842,276.332 193.900 M148.421 198.305 C 148.409 198.583,148.556 199.123,148.746 199.505 C 149.781 201.580,150.086 206.013,149.427 209.400 C 149.209 210.521,149.231 210.508,149.767 209.200 C 150.741 206.818,150.568 202.087,149.421 199.775 C 148.883 198.689,148.433 198.027,148.421 198.305 M241.211 199.387 C 240.943 199.709,240.793 200.180,240.877 200.432 C 240.961 200.684,241.245 200.420,241.507 199.845 C 242.040 198.674,241.937 198.512,241.211 199.387 M240.542 205.000 C 240.541 206.980,240.608 207.840,240.692 206.912 C 240.776 205.984,240.777 204.364,240.695 203.312 C 240.612 202.260,240.543 203.020,240.542 205.000 M386.000 206.226 C 386.000 207.011,385.810 208.046,385.578 208.526 C 385.170 209.370,385.177 209.374,385.778 208.624 C 386.340 207.922,386.684 204.800,386.200 204.800 C 386.090 204.800,386.000 205.442,386.000 206.226 M240.828 209.400 C 240.828 209.620,241.086 210.250,241.400 210.800 C 241.714 211.350,241.972 211.620,241.972 211.400 C 241.972 211.180,241.714 210.550,241.400 210.000 C 241.086 209.450,240.828 209.180,240.828 209.400 " stroke="none" fill="#7cace4" fill-rule="evenodd"></path><path id="path4" d="M50.100 195.100 C 68.085 195.158,97.515 195.158,115.500 195.100 C 133.485 195.042,118.770 194.995,82.800 194.995 C 46.830 194.995,32.115 195.042,50.100 195.100 M276.300 195.100 C 295.055 195.157,325.745 195.157,344.500 195.100 C 363.255 195.042,347.910 194.995,310.400 194.995 C 272.890 194.995,257.545 195.042,276.300 195.100 M378.636 195.542 C 378.520 195.730,378.839 196.273,379.346 196.749 C 380.032 197.394,380.267 197.464,380.267 197.025 C 380.267 196.700,380.162 196.498,380.033 196.576 C 379.688 196.784,378.808 195.726,379.091 195.443 C 379.224 195.309,379.224 195.200,379.090 195.200 C 378.957 195.200,378.752 195.354,378.636 195.542 M10.622 196.700 L 9.953 197.800 10.727 196.917 C 11.152 196.431,11.642 196.161,11.814 196.317 C 11.987 196.473,11.999 196.375,11.841 196.100 C 11.447 195.416,11.386 195.446,10.622 196.700 M382.006 196.433 C 382.009 196.965,382.189 197.670,382.406 198.000 C 382.682 198.422,382.723 198.185,382.542 197.200 C 382.225 195.475,381.998 195.149,382.006 196.433 M383.803 198.395 C 383.664 198.621,383.821 198.690,384.169 198.557 C 384.505 198.428,385.075 198.618,385.437 198.980 C 385.799 199.342,386.209 199.525,386.347 199.386 C 386.652 199.081,385.248 198.000,384.547 198.000 C 384.272 198.000,383.937 198.178,383.803 198.395 M386.940 204.800 C 386.940 206.670,387.009 207.435,387.093 206.500 C 387.177 205.565,387.177 204.035,387.093 203.100 C 387.009 202.165,386.940 202.930,386.940 204.800 M384.806 211.223 C 384.040 211.650,383.680 211.996,384.006 211.991 C 384.333 211.986,385.050 211.630,385.600 211.200 C 386.856 210.217,386.596 210.225,384.806 211.223 " stroke="none" fill="#94b8e4" fill-rule="evenodd"></path></g></svg>