<svg id="svg" xmlns="http://www.w3.org/2000/svg" xmlns:xlink="http://www.w3.org/1999/xlink" width="400" height="400" viewBox="0, 0, 400,400"><g id="svgg"><path id="path0" d="M201.327 38.993 L 199.918 40.402 200.032 53.901 C 200.189 72.557,200.427 71.411,195.500 75.775 C 194.419 76.732,194.400 76.829,194.400 81.401 L 194.400 86.052 196.976 88.526 L 199.552 91.000 199.976 94.129 C 201.215 103.271,200.299 108.614,196.940 111.836 L 194.400 114.273 194.400 118.894 C 194.400 124.023,194.062 123.272,197.848 126.565 C 200.254 128.658,201.125 136.315,199.846 144.124 C 199.339 147.219,199.311 147.269,196.867 149.538 L 194.400 151.828 194.400 156.340 L 194.400 160.852 196.964 163.326 L 199.528 165.800 199.964 169.164 C 201.173 178.490,200.219 184.026,196.867 187.138 L 194.400 189.428 194.400 193.940 L 194.400 198.452 196.957 200.926 C 199.513 203.400,199.514 203.400,199.957 206.516 C 201.031 214.072,200.121 221.884,197.960 223.646 C 194.165 226.742,194.400 226.229,194.400 231.401 L 194.400 236.052 196.976 238.526 L 199.552 241.000 199.976 244.129 C 201.215 253.271,200.299 258.614,196.940 261.836 L 194.400 264.273 194.400 268.894 C 194.400 274.023,194.062 273.272,197.848 276.565 C 200.254 278.658,201.125 286.315,199.846 294.124 C 199.339 297.219,199.311 297.269,196.867 299.538 L 194.400 301.828 194.400 306.340 L 194.400 310.852 196.964 313.326 L 199.528 315.800 199.964 319.164 C 200.204 321.014,200.400 328.133,200.400 334.985 L 200.400 347.443 201.719 348.722 L 203.038 350.000 272.386 350.000 C 355.289 350.000,348.579 350.498,349.545 344.274 C 350.453 338.421,350.248 42.303,349.335 40.715 C 347.508 37.541,354.283 37.813,274.067 37.693 L 202.735 37.585 201.327 38.993 M229.106 52.500 C 231.793 55.360,232.154 70.681,229.599 73.401 C 228.179 74.912,222.219 74.910,220.799 73.399 C 218.103 70.529,218.697 53.671,221.552 52.003 C 222.961 51.180,228.189 51.524,229.106 52.500 M260.306 52.500 C 262.993 55.360,263.354 70.681,260.799 73.401 C 259.379 74.912,253.419 74.910,251.999 73.399 C 249.303 70.529,249.897 53.671,252.752 52.003 C 254.161 51.180,259.389 51.524,260.306 52.500 M291.747 52.575 C 294.106 56.176,294.444 69.780,292.256 73.097 L 291.400 74.395 287.770 74.397 C 284.412 74.400,284.069 74.325,283.199 73.399 C 280.503 70.529,281.097 53.671,283.952 52.003 C 285.472 51.115,291.059 51.525,291.747 52.575 M323.106 52.500 C 324.257 53.725,324.703 56.121,324.839 61.800 C 325.128 73.924,324.909 74.400,319.034 74.400 C 315.609 74.400,315.271 74.327,314.399 73.399 C 311.703 70.529,312.297 53.671,315.152 52.003 C 316.574 51.172,322.189 51.523,323.106 52.500 M282.491 125.778 C 284.557 126.303,285.624 126.858,287.091 128.172 C 288.141 129.114,289.564 130.173,290.252 130.527 C 291.760 131.302,293.345 133.120,294.461 135.353 C 294.913 136.259,295.976 137.720,296.823 138.600 C 301.427 143.386,301.826 165.787,297.477 175.364 L 296.222 178.129 298.211 179.747 C 302.032 182.856,306.185 187.393,307.424 189.811 C 308.097 191.125,309.298 193.190,310.093 194.400 C 314.087 200.482,313.777 226.421,309.648 231.600 C 309.034 232.370,308.420 233.450,308.283 234.000 C 307.451 237.344,303.208 241.762,298.000 244.704 C 296.570 245.512,294.516 246.840,293.436 247.655 C 290.371 249.968,289.075 250.098,267.263 250.296 C 239.724 250.547,239.187 250.433,238.161 244.169 C 237.464 239.912,237.361 136.918,238.048 131.559 C 238.631 127.012,239.664 125.839,243.600 125.251 C 248.275 124.553,279.323 124.973,282.491 125.778 M251.700 139.295 L 250.400 140.638 250.400 156.597 L 250.400 172.556 251.475 173.678 L 252.550 174.800 265.495 174.800 C 280.468 174.800,279.222 175.094,283.674 170.510 C 287.481 166.590,287.400 166.907,287.400 156.000 C 287.400 145.963,287.340 145.694,284.558 143.145 C 283.750 142.405,282.800 141.471,282.445 141.069 C 282.090 140.666,280.990 139.856,280.000 139.269 L 278.200 138.200 265.600 138.076 L 253.000 137.952 251.700 139.295 M251.700 189.293 L 250.400 190.638 250.400 212.841 L 250.400 235.043 251.748 236.350 L 253.097 237.657 269.248 237.515 C 285.189 237.374,285.430 237.360,287.732 236.418 C 290.880 235.131,296.628 229.357,298.503 225.600 L 299.800 223.000 299.800 213.000 C 299.800 200.050,299.664 199.602,294.030 193.975 C 288.078 188.030,289.041 188.259,269.200 188.088 L 253.000 187.949 251.700 189.293 " stroke="none" fill="#87cefc" fill-rule="evenodd"></path><path id="path1" d="M184.800 11.200 L 184.800 22.400 107.200 22.450 C 64.520 22.478,29.465 22.535,29.300 22.579 C 28.892 22.685,26.821 23.565,25.610 24.145 C 25.065 24.406,24.366 25.155,24.055 25.810 C 23.745 26.464,23.246 27.508,22.947 28.129 C 22.127 29.833,22.130 357.781,22.950 359.466 C 23.254 360.090,23.835 361.297,24.241 362.149 C 24.647 363.002,25.389 363.857,25.890 364.049 C 26.390 364.242,27.295 364.612,27.900 364.871 C 28.505 365.131,29.135 365.378,29.300 365.421 C 29.465 365.465,64.517 365.523,107.194 365.550 L 184.789 365.600 184.894 378.100 L 185.000 390.600 194.000 390.600 L 203.000 390.600 203.106 378.100 L 203.211 365.600 280.982 365.600 C 330.949 365.600,358.839 365.461,358.993 365.211 C 359.126 364.997,359.933 364.633,360.788 364.403 C 362.434 363.960,364.400 362.024,364.400 360.846 C 364.400 360.465,364.665 359.804,364.988 359.376 C 365.859 358.226,365.902 29.871,365.032 28.129 C 364.721 27.508,364.295 26.545,364.083 25.990 C 363.865 25.417,363.028 24.659,362.149 24.241 C 361.297 23.835,360.090 23.254,359.468 22.951 C 358.518 22.489,345.842 22.400,280.768 22.400 L 203.200 22.400 203.200 11.200 L 203.200 0.000 194.000 0.000 L 184.800 0.000 184.800 11.200 M186.374 39.174 L 187.947 40.747 188.074 55.674 C 188.202 70.895,188.494 73.600,190.006 73.600 C 190.179 73.600,191.141 74.431,192.142 75.448 L 193.964 77.295 195.349 75.948 C 196.111 75.206,197.304 74.147,198.001 73.592 C 199.939 72.052,200.113 70.401,200.018 54.493 L 199.934 40.386 201.335 38.985 L 202.735 37.585 274.067 37.693 C 354.283 37.813,347.508 37.541,349.335 40.715 C 350.248 42.303,350.453 338.421,349.545 344.274 C 348.579 350.498,355.289 350.000,272.386 350.000 L 203.038 350.000 201.719 348.722 L 200.400 347.443 200.400 334.985 C 200.400 328.133,200.202 321.014,199.959 319.164 L 199.519 315.800 196.735 313.079 L 193.951 310.358 191.407 312.977 C 190.009 314.418,188.761 316.092,188.634 316.698 C 187.875 320.322,187.570 324.700,187.335 335.334 L 187.070 347.268 185.904 348.434 L 184.738 349.600 115.669 349.585 C 42.997 349.570,42.339 349.554,40.426 347.823 C 37.962 345.594,37.944 344.498,37.735 189.200 C 37.541 45.016,37.554 43.626,39.050 40.712 C 40.653 37.588,38.048 37.692,115.900 37.643 L 184.800 37.600 186.374 39.174 M221.552 52.003 C 218.697 53.671,218.103 70.529,220.799 73.399 C 222.219 74.910,228.179 74.912,229.599 73.401 C 232.154 70.681,231.793 55.360,229.106 52.500 C 228.189 51.524,222.961 51.180,221.552 52.003 M252.752 52.003 C 249.897 53.671,249.303 70.529,251.999 73.399 C 253.419 74.910,259.379 74.912,260.799 73.401 C 263.354 70.681,262.993 55.360,260.306 52.500 C 259.389 51.524,254.161 51.180,252.752 52.003 M283.952 52.003 C 281.097 53.671,280.503 70.529,283.199 73.399 C 284.069 74.325,284.412 74.400,287.770 74.397 L 291.400 74.395 292.256 73.097 C 294.444 69.780,294.106 56.176,291.747 52.575 C 291.059 51.525,285.472 51.115,283.952 52.003 M315.152 52.003 C 312.297 53.671,311.703 70.529,314.399 73.399 C 315.271 74.327,315.609 74.400,319.034 74.400 C 324.909 74.400,325.128 73.924,324.839 61.800 C 324.622 52.721,323.980 51.594,319.030 51.612 C 317.254 51.619,315.509 51.795,315.152 52.003 M191.524 88.001 C 188.252 91.396,188.261 91.368,188.075 98.620 C 187.847 107.480,188.137 108.669,191.361 112.117 L 193.903 114.835 196.689 112.108 L 199.476 109.382 199.938 106.275 C 200.515 102.393,200.527 98.182,199.971 94.129 L 199.542 91.000 196.768 88.300 C 195.242 86.815,193.950 85.609,193.897 85.620 C 193.844 85.631,192.776 86.702,191.524 88.001 M191.329 125.554 C 188.299 128.416,188.200 128.795,188.200 137.600 C 188.200 146.160,188.268 146.422,191.346 149.707 L 193.883 152.414 196.613 149.802 C 199.339 147.194,199.344 147.186,199.850 144.095 C 201.125 136.315,200.250 128.653,197.848 126.568 C 196.941 125.782,195.735 124.702,195.167 124.169 C 193.868 122.951,194.218 122.825,191.329 125.554 M243.600 125.251 C 239.664 125.839,238.631 127.012,238.048 131.559 C 237.361 136.918,237.464 239.912,238.161 244.169 C 239.187 250.433,239.724 250.547,267.263 250.296 C 289.075 250.098,290.371 249.968,293.436 247.655 C 294.516 246.840,296.570 245.512,298.000 244.704 C 303.208 241.762,307.451 237.344,308.283 234.000 C 308.420 233.450,309.034 232.370,309.648 231.600 C 313.777 226.421,314.087 200.482,310.093 194.400 C 309.298 193.190,308.097 191.125,307.424 189.811 C 306.185 187.393,302.032 182.856,298.211 179.747 L 296.222 178.129 297.477 175.364 C 299.272 171.413,299.995 167.209,300.260 159.200 C 300.667 146.910,299.796 141.690,296.823 138.600 C 295.976 137.720,294.913 136.259,294.461 135.353 C 293.345 133.120,291.760 131.302,290.252 130.527 C 289.564 130.173,288.141 129.114,287.091 128.172 C 283.859 125.276,282.638 125.114,263.000 124.978 C 253.510 124.913,245.069 125.032,243.600 125.251 M280.000 139.269 C 280.990 139.856,282.090 140.666,282.445 141.069 C 282.800 141.471,283.750 142.405,284.558 143.145 C 287.340 145.694,287.400 145.963,287.400 156.000 C 287.400 166.907,287.481 166.590,283.674 170.510 C 279.222 175.094,280.468 174.800,265.495 174.800 L 252.550 174.800 251.475 173.678 L 250.400 172.556 250.400 156.597 L 250.400 140.638 251.700 139.295 L 253.000 137.952 265.600 138.076 L 278.200 138.200 280.000 139.269 M191.314 163.036 C 188.286 166.209,188.200 166.545,188.200 175.200 C 188.200 183.760,188.268 184.022,191.346 187.307 L 193.883 190.014 196.613 187.402 C 200.252 183.920,201.209 178.706,199.959 169.164 L 199.519 165.800 196.756 163.100 C 195.237 161.615,193.950 160.407,193.897 160.416 C 193.844 160.425,192.681 161.604,191.314 163.036 M287.800 189.188 C 289.718 189.956,290.969 190.918,294.030 193.975 C 299.664 199.602,299.800 200.050,299.800 213.000 L 299.800 223.000 298.503 225.600 C 296.628 229.357,290.880 235.131,287.732 236.418 C 285.430 237.360,285.189 237.374,269.248 237.515 L 253.097 237.657 251.748 236.350 L 250.400 235.043 250.400 212.841 L 250.400 190.638 251.700 189.293 L 253.000 187.949 269.200 188.088 C 285.214 188.226,285.428 188.238,287.800 189.188 M191.314 200.636 C 188.286 203.809,188.200 204.145,188.200 212.800 C 188.200 220.701,188.428 221.999,190.075 223.480 C 190.760 224.096,191.908 225.215,192.625 225.967 L 193.928 227.333 195.331 225.967 C 196.103 225.215,197.316 224.136,198.027 223.570 C 200.119 221.902,201.018 213.936,199.952 206.516 L 199.504 203.400 196.749 200.700 C 195.234 199.215,193.950 198.007,193.897 198.016 C 193.844 198.025,192.681 199.204,191.314 200.636 M191.524 238.001 C 188.252 241.396,188.261 241.368,188.075 248.620 C 187.847 257.480,188.137 258.669,191.361 262.117 L 193.903 264.835 196.689 262.108 L 199.476 259.382 199.938 256.275 C 200.515 252.393,200.527 248.182,199.971 244.129 L 199.542 241.000 196.768 238.300 C 195.242 236.815,193.950 235.609,193.897 235.620 C 193.844 235.631,192.776 236.702,191.524 238.001 M191.329 275.554 C 188.299 278.416,188.200 278.795,188.200 287.600 C 188.200 296.160,188.268 296.422,191.346 299.707 L 193.883 302.414 196.613 299.802 C 199.339 297.194,199.344 297.186,199.850 294.095 C 201.125 286.315,200.250 278.653,197.848 276.568 C 196.941 275.782,195.735 274.702,195.167 274.169 C 193.868 272.951,194.218 272.825,191.329 275.554 M65.063 314.053 C 61.818 315.939,61.159 333.239,64.215 336.295 C 65.998 338.078,71.534 338.277,73.494 336.628 C 75.559 334.891,75.984 326.858,74.541 316.855 C 74.126 313.980,68.201 312.228,65.063 314.053 M96.263 314.053 C 94.356 315.161,92.777 325.605,93.619 331.536 C 94.343 336.634,95.391 337.600,100.200 337.600 C 105.009 337.600,106.057 336.634,106.781 331.536 C 107.642 325.468,106.029 315.086,104.060 314.032 C 103.022 313.477,97.228 313.492,96.263 314.053 M127.320 314.201 C 124.192 316.392,123.775 333.803,126.785 336.500 C 128.774 338.283,134.318 338.162,136.185 336.295 C 139.288 333.192,138.565 315.801,135.260 314.032 C 134.010 313.363,128.344 313.484,127.320 314.201 M158.916 313.920 C 157.221 314.997,155.624 326.030,156.392 331.359 C 157.166 336.733,158.038 337.600,162.669 337.600 C 167.400 337.600,168.460 336.613,169.181 331.536 C 170.042 325.468,168.429 315.086,166.460 314.032 C 165.541 313.540,159.651 313.453,158.916 313.920 " stroke="none" fill="#8d6d9d" fill-rule="evenodd"></path><path id="path2" d="M44.200 38.162 C 39.376 38.982,38.767 39.695,38.019 45.400 C 37.427 49.914,37.702 325.500,38.309 336.200 C 38.741 343.814,39.283 346.789,40.426 347.823 C 42.339 349.554,42.997 349.570,115.669 349.585 L 184.738 349.600 185.904 348.434 L 187.070 347.268 187.335 335.334 C 187.570 324.673,187.875 320.319,188.640 316.670 C 188.770 316.049,189.855 314.563,191.050 313.367 C 192.888 311.530,193.161 311.074,192.812 310.423 C 192.281 309.430,192.276 303.379,192.806 302.389 C 193.145 301.755,192.849 301.251,191.005 299.317 C 188.286 296.464,188.200 296.093,188.200 287.200 C 188.200 278.939,188.428 278.062,191.200 275.677 C 192.879 274.232,193.138 273.832,192.802 273.203 C 192.278 272.225,192.281 265.769,192.806 264.789 C 193.145 264.156,192.851 263.652,191.016 261.728 C 188.181 258.753,187.852 257.289,188.075 248.620 C 188.260 241.406,188.323 241.202,191.277 238.325 C 192.941 236.704,193.174 236.298,192.818 235.634 C 192.291 234.649,192.268 228.193,192.789 227.220 C 193.198 226.457,192.844 225.970,190.075 223.480 C 188.428 221.999,188.200 220.701,188.200 212.800 C 188.200 204.219,188.327 203.691,191.033 200.985 C 192.886 199.132,193.161 198.674,192.812 198.023 C 192.281 197.030,192.276 190.979,192.806 189.989 C 193.145 189.355,192.849 188.851,191.005 186.917 C 188.301 184.079,188.200 183.658,188.200 175.200 C 188.200 166.619,188.327 166.091,191.033 163.385 C 192.886 161.532,193.161 161.074,192.812 160.423 C 192.281 159.430,192.276 153.379,192.806 152.389 C 193.145 151.755,192.849 151.251,191.005 149.317 C 188.286 146.464,188.200 146.093,188.200 137.200 C 188.200 128.939,188.428 128.062,191.200 125.677 C 192.879 124.232,193.138 123.832,192.802 123.203 C 192.278 122.225,192.281 115.769,192.806 114.789 C 193.145 114.156,192.851 113.652,191.016 111.728 C 188.181 108.753,187.852 107.289,188.075 98.620 C 188.260 91.406,188.323 91.202,191.277 88.325 C 192.941 86.704,193.174 86.298,192.818 85.634 C 192.284 84.635,192.272 78.187,192.802 77.195 C 193.184 76.483,190.924 73.600,189.984 73.600 C 188.496 73.600,188.202 70.843,188.074 55.674 L 187.947 40.747 186.374 39.174 L 184.800 37.600 115.900 37.643 C 64.651 37.675,46.283 37.808,44.200 38.162 M118.282 124.296 C 123.271 125.626,125.461 129.205,126.604 137.896 C 127.274 142.990,127.752 144.517,129.271 146.419 C 130.896 148.455,131.908 151.687,132.808 157.718 C 133.987 165.618,134.234 166.538,135.561 167.958 C 137.206 169.719,138.325 172.945,139.029 177.960 C 140.151 185.941,140.668 187.913,142.176 189.967 C 143.794 192.171,144.537 194.695,145.204 200.248 C 145.853 205.657,146.689 208.812,147.787 210.000 C 149.909 212.295,150.742 214.982,151.814 223.000 C 152.619 229.023,152.997 230.247,154.606 232.046 C 157.365 235.129,158.602 245.014,156.636 248.262 C 155.288 250.490,151.577 251.807,146.930 251.708 C 144.310 251.652,141.600 248.883,141.600 246.262 C 141.600 245.704,140.842 244.371,139.815 243.124 C 137.723 240.583,137.152 238.728,136.208 231.399 C 135.460 225.599,135.251 224.914,133.600 222.860 C 132.497 221.487,130.804 217.530,130.797 216.310 C 130.789 214.642,128.892 214.400,115.827 214.400 C 101.587 214.400,101.348 214.440,99.532 217.143 C 98.845 218.164,97.949 219.271,97.541 219.603 C 96.719 220.269,95.899 223.690,95.199 229.378 C 94.512 234.956,94.078 236.480,92.336 239.442 C 91.443 240.959,90.304 243.594,89.804 245.298 C 88.183 250.820,87.093 251.600,81.001 251.600 C 74.836 251.600,73.586 250.146,73.607 243.000 C 73.631 234.767,75.185 227.976,77.639 225.387 C 78.695 224.273,78.874 223.618,79.826 217.387 C 80.949 210.043,81.528 208.293,83.684 205.729 C 84.588 204.653,85.187 203.442,85.366 202.329 C 85.518 201.378,85.993 198.287,86.420 195.460 C 87.265 189.877,88.195 187.267,90.011 185.390 C 91.066 184.301,91.242 183.718,91.794 179.508 C 93.054 169.898,94.008 166.547,96.123 164.302 C 97.355 162.995,98.144 160.172,98.946 154.200 C 99.632 149.089,100.704 145.921,102.364 144.104 C 103.808 142.523,104.183 141.371,104.998 136.000 C 106.270 127.630,108.626 124.862,115.534 123.624 C 115.608 123.611,116.845 123.913,118.282 124.296 M115.081 163.871 C 114.715 164.712,114.136 167.186,113.796 169.369 C 113.104 173.800,112.109 176.414,110.433 178.200 C 109.029 179.697,108.887 180.221,108.193 186.484 C 107.883 189.280,107.212 192.814,106.702 194.336 L 105.773 197.104 107.587 197.754 C 110.125 198.664,121.879 198.690,123.620 197.790 C 125.016 197.068,125.029 196.912,124.166 191.000 C 122.981 182.889,122.489 181.035,121.188 179.788 C 119.552 178.221,118.496 175.139,117.632 169.409 C 117.228 166.730,116.639 164.043,116.322 163.440 L 115.747 162.342 115.081 163.871 M73.392 314.555 C 74.455 315.619,74.547 316.066,75.180 323.260 C 75.797 330.277,75.174 335.214,73.494 336.628 C 71.534 338.277,65.998 338.078,64.215 336.295 C 61.159 333.239,61.818 315.939,65.063 314.053 C 66.614 313.151,72.333 313.496,73.392 314.555 M104.060 314.032 C 106.029 315.086,107.642 325.468,106.781 331.536 C 106.057 336.634,105.009 337.600,100.200 337.600 C 95.391 337.600,94.343 336.634,93.619 331.536 C 92.777 325.605,94.356 315.161,96.263 314.053 C 97.228 313.492,103.022 313.477,104.060 314.032 M135.260 314.032 C 138.565 315.801,139.288 333.192,136.185 336.295 C 134.318 338.162,128.774 338.283,126.785 336.500 C 123.775 333.803,124.192 316.392,127.320 314.201 C 128.344 313.484,134.010 313.363,135.260 314.032 M166.460 314.032 C 168.429 315.086,170.042 325.468,169.181 331.536 C 168.460 336.613,167.400 337.600,162.669 337.600 C 158.038 337.600,157.166 336.733,156.392 331.359 C 155.624 326.030,157.221 314.997,158.916 313.920 C 159.651 313.453,165.541 313.540,166.460 314.032 " stroke="none" fill="#ec7c9c" fill-rule="evenodd"></path><path id="path3" d="M114.117 126.835 C 113.411 127.287,112.206 128.499,111.438 129.528 C 110.669 130.558,109.699 131.850,109.282 132.400 C 108.788 133.050,108.083 135.707,107.266 140.000 C 106.199 145.608,105.740 147.141,104.218 150.200 C 102.217 154.221,101.594 156.228,100.383 162.554 C 99.521 167.063,98.743 169.482,97.605 171.200 C 96.249 173.245,95.247 176.333,94.424 181.000 C 93.456 186.487,92.693 189.119,91.410 191.400 C 90.119 193.694,89.337 196.354,88.404 201.628 C 87.347 207.604,87.118 208.354,85.408 211.465 C 83.891 214.226,82.807 217.714,81.788 223.120 C 80.950 227.564,79.774 231.270,78.818 232.487 C 75.792 236.333,75.018 247.018,77.662 248.433 C 78.961 249.128,84.578 248.508,85.421 247.577 C 85.792 247.167,86.788 244.447,87.635 241.531 C 88.481 238.616,89.652 235.324,90.235 234.216 C 91.217 232.352,92.732 226.680,93.391 222.400 C 94.936 212.363,95.720 211.998,115.742 212.004 C 134.732 212.009,135.897 212.669,137.981 224.600 C 138.842 229.528,139.976 233.924,140.947 236.091 C 142.266 239.040,143.900 243.485,144.404 245.497 C 145.291 249.036,147.074 249.581,151.278 247.600 C 153.245 246.673,154.534 241.561,153.346 239.400 C 151.541 236.117,151.032 234.700,150.327 231.007 C 148.868 223.360,147.998 220.256,146.410 217.037 C 144.948 214.071,143.715 209.794,142.999 205.200 C 142.430 201.556,141.234 197.149,140.473 195.892 C 139.229 193.838,138.065 190.108,137.389 186.000 C 136.475 180.457,135.264 176.242,134.150 174.733 C 132.867 172.993,131.796 169.436,130.803 163.620 C 129.885 158.237,129.299 156.370,127.593 153.388 C 126.207 150.965,124.800 145.886,124.800 143.303 C 124.800 139.715,123.079 134.297,121.345 132.427 C 120.825 131.866,120.096 130.672,119.724 129.773 C 118.495 126.802,116.115 125.555,114.117 126.835 M117.982 159.267 C 118.389 159.936,119.292 162.759,119.988 165.541 C 120.855 169.001,121.765 171.524,122.869 173.525 C 124.131 175.812,124.566 177.121,124.860 179.525 C 125.638 185.881,126.802 190.528,128.410 193.693 C 129.273 195.394,129.879 197.049,129.756 197.369 C 127.913 202.173,103.324 202.221,101.139 197.425 C 100.708 196.480,102.453 191.600,103.222 191.600 C 103.762 191.600,105.157 186.805,106.188 181.400 C 107.169 176.263,107.590 174.913,109.438 171.000 C 109.957 169.900,110.936 167.126,111.614 164.836 C 113.884 157.161,115.723 155.553,117.982 159.267 " stroke="none" fill="#f8dbd2" fill-rule="evenodd"></path><path id="path4" d="M192.643 77.433 C 191.718 79.843,192.551 86.224,193.732 85.771 C 194.701 85.399,194.733 77.413,193.767 77.043 C 192.913 76.715,192.919 76.713,192.643 77.433 M192.643 115.033 C 191.718 117.443,192.551 123.824,193.732 123.371 C 194.701 122.999,194.733 115.013,193.767 114.643 C 192.913 114.315,192.919 114.313,192.643 115.033 M112.600 124.399 C 108.127 125.598,106.111 128.675,104.998 136.000 C 104.183 141.371,103.808 142.523,102.364 144.104 C 100.704 145.921,99.632 149.089,98.946 154.200 C 98.144 160.172,97.355 162.995,96.123 164.302 C 94.008 166.547,93.054 169.898,91.794 179.508 C 91.242 183.718,91.066 184.301,90.011 185.390 C 88.195 187.267,87.265 189.877,86.420 195.460 C 85.993 198.287,85.518 201.378,85.366 202.329 C 85.187 203.442,84.588 204.653,83.684 205.729 C 81.528 208.293,80.949 210.043,79.826 217.387 C 78.874 223.618,78.695 224.273,77.639 225.387 C 75.185 227.976,73.631 234.767,73.607 243.000 C 73.586 250.146,74.836 251.600,81.001 251.600 C 87.093 251.600,88.183 250.820,89.804 245.298 C 90.304 243.594,91.443 240.959,92.336 239.442 C 94.078 236.480,94.512 234.956,95.199 229.378 C 95.899 223.690,96.719 220.269,97.541 219.603 C 97.949 219.271,98.845 218.164,99.532 217.143 C 101.348 214.440,101.587 214.400,115.827 214.400 C 128.892 214.400,130.789 214.642,130.797 216.310 C 130.804 217.530,132.497 221.487,133.600 222.860 C 135.251 224.914,135.460 225.599,136.208 231.399 C 137.152 238.728,137.723 240.583,139.815 243.124 C 140.842 244.371,141.600 245.704,141.600 246.262 C 141.600 248.883,144.310 251.652,146.930 251.708 C 151.577 251.807,155.288 250.490,156.636 248.262 C 158.602 245.014,157.365 235.129,154.606 232.046 C 152.997 230.247,152.619 229.023,151.814 223.000 C 150.742 214.982,149.909 212.295,147.787 210.000 C 146.689 208.812,145.853 205.657,145.204 200.248 C 144.537 194.695,143.794 192.171,142.176 189.967 C 140.668 187.913,140.151 185.941,139.029 177.960 C 138.325 172.945,137.206 169.719,135.561 167.958 C 134.234 166.538,133.987 165.618,132.808 157.718 C 131.908 151.687,130.896 148.455,129.271 146.419 C 127.752 144.517,127.274 142.990,126.604 137.896 C 125.461 129.205,123.271 125.626,118.282 124.296 C 116.845 123.913,115.608 123.611,115.534 123.624 C 115.460 123.637,114.140 123.986,112.600 124.399 M117.560 127.069 C 118.413 127.683,119.336 128.836,119.724 129.773 C 120.096 130.672,120.825 131.866,121.345 132.427 C 123.079 134.297,124.800 139.715,124.800 143.303 C 124.800 145.886,126.207 150.965,127.593 153.388 C 129.299 156.370,129.885 158.237,130.803 163.620 C 131.796 169.436,132.867 172.993,134.150 174.733 C 135.264 176.242,136.475 180.457,137.389 186.000 C 138.065 190.108,139.229 193.838,140.473 195.892 C 141.234 197.149,142.430 201.556,142.999 205.200 C 143.715 209.794,144.948 214.071,146.410 217.037 C 147.998 220.256,148.868 223.360,150.327 231.007 C 151.032 234.700,151.541 236.117,153.346 239.400 C 154.534 241.561,153.245 246.673,151.278 247.600 C 147.074 249.581,145.291 249.036,144.404 245.497 C 143.900 243.485,142.266 239.040,140.947 236.091 C 139.976 233.924,138.842 229.528,137.981 224.600 C 135.897 212.669,134.732 212.009,115.742 212.004 C 95.720 211.998,94.936 212.363,93.391 222.400 C 92.732 226.680,91.217 232.352,90.235 234.216 C 89.652 235.324,88.481 238.616,87.635 241.531 C 86.788 244.447,85.792 247.167,85.421 247.577 C 84.578 248.508,78.961 249.128,77.662 248.433 C 75.018 247.018,75.792 236.333,78.818 232.487 C 79.774 231.270,80.950 227.564,81.788 223.120 C 82.807 217.714,83.891 214.226,85.408 211.465 C 87.118 208.354,87.347 207.604,88.404 201.628 C 89.337 196.354,90.119 193.694,91.410 191.400 C 92.693 189.119,93.456 186.487,94.424 181.000 C 95.247 176.333,96.249 173.245,97.605 171.200 C 98.743 169.482,99.521 167.063,100.383 162.554 C 101.594 156.228,102.217 154.221,104.218 150.200 C 105.740 147.141,106.199 145.608,107.266 140.000 C 108.083 135.707,108.788 133.050,109.282 132.400 C 109.699 131.850,110.669 130.558,111.438 129.528 C 113.985 126.114,115.426 125.536,117.560 127.069 M192.643 152.633 C 191.729 155.014,192.553 161.023,193.732 160.571 C 194.699 160.200,194.731 152.613,193.767 152.243 C 192.913 151.915,192.919 151.913,192.643 152.633 M114.860 157.843 C 113.660 158.684,113.036 160.027,111.614 164.836 C 110.936 167.126,109.957 169.900,109.438 171.000 C 107.590 174.913,107.169 176.263,106.188 181.400 C 105.157 186.805,103.762 191.600,103.222 191.600 C 102.453 191.600,100.708 196.480,101.139 197.425 C 103.324 202.221,127.913 202.173,129.756 197.369 C 129.879 197.049,129.273 195.394,128.410 193.693 C 126.802 190.528,125.638 185.881,124.860 179.525 C 124.566 177.121,124.131 175.812,122.869 173.525 C 121.765 171.524,120.855 169.001,119.988 165.541 C 118.249 158.595,116.829 156.464,114.860 157.843 M117.632 169.409 C 118.496 175.139,119.552 178.221,121.188 179.788 C 122.489 181.035,122.981 182.889,124.166 191.000 C 125.029 196.912,125.016 197.068,123.620 197.790 C 121.879 198.690,110.125 198.664,107.587 197.754 L 105.773 197.104 106.702 194.336 C 107.212 192.814,107.883 189.280,108.193 186.484 C 108.887 180.221,109.029 179.697,110.433 178.200 C 112.109 176.414,113.104 173.800,113.796 169.369 C 114.136 167.186,114.715 164.712,115.081 163.871 L 115.747 162.342 116.322 163.440 C 116.639 164.043,117.228 166.730,117.632 169.409 M192.643 190.233 C 191.729 192.614,192.553 198.623,193.732 198.171 C 194.699 197.800,194.731 190.213,193.767 189.843 C 192.913 189.515,192.919 189.513,192.643 190.233 M192.643 227.433 C 191.718 229.843,192.551 236.224,193.732 235.771 C 194.701 235.399,194.733 227.413,193.767 227.043 C 192.913 226.715,192.919 226.713,192.643 227.433 M192.643 265.033 C 191.718 267.443,192.551 273.824,193.732 273.371 C 194.701 272.999,194.733 265.013,193.767 264.643 C 192.913 264.315,192.919 264.313,192.643 265.033 M192.643 302.633 C 191.729 305.014,192.553 311.023,193.732 310.571 C 194.699 310.200,194.731 302.613,193.767 302.243 C 192.913 301.915,192.919 301.913,192.643 302.633 " stroke="none" fill="#f4a4b4" fill-rule="evenodd"></path></g></svg>