<svg id="svg" xmlns="http://www.w3.org/2000/svg" xmlns:xlink="http://www.w3.org/1999/xlink" width="400" height="400" viewBox="0, 0, 400,400"><g id="svgg"><path id="path0" d="M182.000 114.793 C 182.000 200.479,181.949 207.712,181.334 209.131 C 180.046 212.105,181.225 212.000,149.221 212.000 C 121.204 212.000,119.271 212.088,121.184 213.283 C 121.633 213.563,122.000 214.019,122.000 214.296 C 122.000 214.573,122.225 214.806,122.500 214.813 C 123.259 214.832,125.200 216.678,125.200 217.381 C 125.200 217.721,125.366 218.000,125.569 218.000 C 126.084 218.000,132.000 223.871,132.000 224.382 C 132.000 224.612,132.225 224.806,132.500 224.813 C 133.259 224.832,135.200 226.678,135.200 227.381 C 135.200 227.721,135.366 228.000,135.569 228.000 C 136.084 228.000,142.000 233.871,142.000 234.382 C 142.000 234.612,142.236 234.800,142.525 234.800 C 143.171 234.800,145.200 236.865,145.200 237.522 C 145.200 237.785,145.335 238.002,145.500 238.005 C 145.783 238.009,149.345 241.403,151.657 243.872 C 152.238 244.492,153.273 245.448,153.957 245.996 C 154.641 246.543,155.200 247.141,155.200 247.325 C 155.200 247.508,155.949 248.320,156.865 249.129 C 157.780 249.938,158.995 251.120,159.565 251.755 C 161.083 253.448,162.556 254.869,163.959 255.996 C 164.642 256.543,165.200 257.141,165.200 257.325 C 165.200 257.508,165.949 258.320,166.865 259.129 C 167.780 259.938,168.995 261.120,169.565 261.755 C 171.083 263.448,172.556 264.869,173.959 265.996 C 174.642 266.543,175.200 267.114,175.200 267.263 C 175.200 267.719,178.308 270.800,178.769 270.800 C 179.006 270.800,179.200 270.969,179.200 271.176 C 179.200 271.382,180.325 272.642,181.700 273.976 C 183.075 275.309,184.380 276.588,184.600 276.818 C 184.820 277.047,185.788 277.992,186.752 278.917 C 187.715 279.843,188.975 281.119,189.552 281.754 C 190.982 283.329,192.860 285.223,194.029 286.271 C 194.563 286.749,195.672 287.874,196.494 288.771 C 198.707 291.185,201.624 291.184,203.877 288.767 C 204.715 287.869,205.806 286.744,206.302 286.267 C 206.797 285.790,207.967 284.601,208.902 283.624 C 209.836 282.647,211.483 281.027,212.562 280.024 C 213.641 279.021,214.721 277.965,214.962 277.679 C 215.203 277.392,215.801 276.762,216.290 276.279 C 216.780 275.795,217.950 274.620,218.890 273.667 C 219.831 272.714,220.911 271.634,221.291 271.267 C 221.672 270.900,222.662 269.902,223.491 269.049 C 224.321 268.196,230.805 261.697,237.900 254.606 C 244.995 247.515,250.800 241.507,250.800 241.256 C 250.800 241.005,250.989 240.800,251.219 240.800 C 251.450 240.800,253.702 238.685,256.225 236.100 C 258.748 233.515,260.970 231.246,261.163 231.057 C 261.357 230.869,262.324 229.904,263.314 228.914 C 265.573 226.652,266.637 225.588,268.971 223.256 C 269.993 222.235,271.009 221.220,271.229 221.000 C 271.449 220.780,272.388 219.842,273.315 218.916 C 274.242 217.990,275.476 216.730,276.058 216.116 C 276.640 215.502,277.767 214.472,278.563 213.827 C 280.805 212.008,280.879 212.013,250.878 212.006 C 219.925 211.999,219.894 211.997,218.955 209.513 C 218.766 209.011,218.518 166.660,218.405 115.400 L 218.200 22.200 200.100 22.096 L 182.000 21.992 182.000 114.793 M22.095 365.100 L 22.200 378.200 200.200 378.200 L 378.200 378.200 378.200 365.200 L 378.200 352.200 200.095 352.100 L 21.989 351.999 22.095 365.100 " stroke="none" fill="#dcf4fc" fill-rule="evenodd"></path><path id="path1" d="M168.000 103.000 L 168.000 198.000 127.987 198.000 L 87.975 198.000 88.087 202.700 L 88.200 207.400 90.500 207.520 L 92.800 207.640 92.800 209.777 C 92.800 212.224,93.015 212.400,96.014 212.400 L 97.962 212.400 98.081 214.900 L 98.200 217.400 100.500 217.520 L 102.800 217.640 102.800 219.777 C 102.800 222.224,103.015 222.400,106.014 222.400 L 107.962 222.400 108.081 224.900 L 108.200 227.400 110.500 227.520 L 112.800 227.640 112.800 229.777 C 112.800 232.224,113.015 232.400,116.014 232.400 L 117.962 232.400 118.081 234.900 L 118.200 237.400 120.500 237.520 L 122.800 237.640 122.800 239.777 C 122.800 242.224,123.015 242.400,126.014 242.400 L 127.962 242.400 128.081 244.900 L 128.200 247.400 130.500 247.520 L 132.800 247.640 132.800 249.777 C 132.800 252.224,133.015 252.400,136.014 252.400 L 137.962 252.400 138.081 254.900 L 138.200 257.400 140.500 257.520 L 142.800 257.640 142.800 259.777 C 142.800 262.224,143.015 262.400,146.014 262.400 L 147.962 262.400 148.081 264.900 L 148.200 267.400 150.500 267.520 L 152.800 267.640 152.800 269.777 C 152.800 272.224,153.015 272.400,156.014 272.400 L 157.962 272.400 158.081 274.900 L 158.200 277.400 160.500 277.520 L 162.800 277.640 162.800 279.777 C 162.800 282.224,163.015 282.400,166.014 282.400 L 167.962 282.400 168.081 284.900 L 168.200 287.400 170.500 287.520 L 172.800 287.640 172.800 289.777 C 172.800 292.224,173.015 292.400,176.014 292.400 L 177.962 292.400 178.081 294.900 L 178.200 297.400 180.500 297.520 L 182.800 297.640 182.800 299.777 C 182.800 302.224,183.015 302.400,186.014 302.400 L 187.962 302.400 188.081 304.900 L 188.200 307.400 190.500 307.520 L 192.800 307.640 192.800 309.777 C 192.800 312.471,192.600 312.400,200.200 312.400 C 207.807 312.400,207.600 312.474,207.600 309.757 L 207.600 307.600 209.757 307.600 C 212.229 307.600,212.400 307.391,212.400 304.367 L 212.400 302.400 214.367 302.400 C 217.391 302.400,217.600 302.229,217.600 299.757 L 217.600 297.600 219.757 297.600 C 222.229 297.600,222.400 297.391,222.400 294.367 L 222.400 292.400 224.367 292.400 C 227.391 292.400,227.600 292.229,227.600 289.757 L 227.600 287.600 229.757 287.600 C 232.229 287.600,232.400 287.391,232.400 284.367 L 232.400 282.400 234.367 282.400 C 237.391 282.400,237.600 282.229,237.600 279.757 L 237.600 277.600 239.757 277.600 C 242.229 277.600,242.400 277.391,242.400 274.367 L 242.400 272.400 244.367 272.400 C 247.391 272.400,247.600 272.229,247.600 269.757 L 247.600 267.600 249.757 267.600 C 252.229 267.600,252.400 267.391,252.400 264.367 L 252.400 262.400 254.367 262.400 C 257.391 262.400,257.600 262.229,257.600 259.757 L 257.600 257.600 259.757 257.600 C 262.229 257.600,262.400 257.391,262.400 254.367 L 262.400 252.400 264.367 252.400 C 267.391 252.400,267.600 252.229,267.600 249.757 L 267.600 247.600 269.757 247.600 C 272.229 247.600,272.400 247.391,272.400 244.367 L 272.400 242.400 274.367 242.400 C 277.391 242.400,277.600 242.229,277.600 239.757 L 277.600 237.600 279.757 237.600 C 282.229 237.600,282.400 237.391,282.400 234.367 L 282.400 232.400 284.367 232.400 C 287.391 232.400,287.600 232.229,287.600 229.757 L 287.600 227.600 289.757 227.600 C 292.229 227.600,292.400 227.391,292.400 224.367 L 292.400 222.400 294.367 222.400 C 297.391 222.400,297.600 222.229,297.600 219.757 L 297.600 217.600 299.757 217.600 C 302.229 217.600,302.400 217.391,302.400 214.367 L 302.400 212.400 304.367 212.400 C 307.391 212.400,307.600 212.229,307.600 209.757 L 307.600 207.600 309.792 207.600 C 312.445 207.600,312.487 207.506,312.317 202.000 L 312.200 198.200 272.300 198.098 L 232.400 197.996 232.400 102.998 L 232.400 8.000 200.200 8.000 L 168.000 8.000 168.000 103.000 M219.528 20.336 L 220.800 21.471 220.800 114.536 C 220.800 207.067,220.805 207.605,221.600 208.400 C 222.385 209.185,222.933 209.200,250.527 209.200 C 280.836 209.200,281.679 209.253,283.900 211.307 C 285.112 212.428,284.458 214.800,282.936 214.800 C 282.790 214.800,282.205 215.322,281.636 215.961 C 278.952 218.969,278.426 219.504,276.679 221.000 C 275.652 221.880,274.808 222.735,274.805 222.900 C 274.798 223.290,273.290 224.798,272.900 224.805 C 272.735 224.808,271.880 225.652,271.000 226.679 C 269.504 228.426,268.969 228.952,265.961 231.636 C 265.322 232.205,264.800 232.790,264.800 232.936 C 264.800 233.296,263.273 234.799,262.900 234.805 C 262.735 234.808,261.880 235.652,261.000 236.679 C 259.504 238.426,258.969 238.952,255.961 241.636 C 255.322 242.205,254.800 242.790,254.800 242.936 C 254.800 243.296,253.273 244.799,252.900 244.805 C 252.735 244.808,251.880 245.652,251.000 246.679 C 250.120 247.707,248.885 249.009,248.256 249.574 C 245.538 252.012,244.978 252.592,244.592 253.365 C 244.368 253.816,243.805 254.373,243.342 254.604 C 242.878 254.835,241.802 255.813,240.950 256.777 C 240.097 257.741,238.885 258.995,238.256 259.565 C 235.446 262.108,234.977 262.595,234.592 263.365 C 234.368 263.816,233.804 264.374,233.339 264.606 C 232.874 264.838,232.067 265.538,231.547 266.161 C 231.026 266.785,229.846 268.039,228.923 268.948 C 228.001 269.856,226.801 271.050,226.257 271.600 C 224.992 272.878,223.147 274.722,221.857 276.000 C 220.559 277.285,217.548 280.296,216.190 281.667 C 214.841 283.029,213.012 284.858,211.729 286.129 C 210.436 287.408,207.408 290.436,206.129 291.729 C 205.581 292.281,204.603 293.308,203.954 294.010 C 201.888 296.247,195.242 295.254,195.190 292.700 C 195.184 292.425,194.202 291.480,193.007 290.600 C 191.811 289.720,190.826 288.854,190.817 288.677 C 190.792 288.199,187.532 284.800,187.099 284.800 C 186.650 284.800,185.236 283.159,185.203 282.600 C 185.190 282.380,184.202 281.480,183.007 280.600 C 181.811 279.720,180.826 278.854,180.817 278.677 C 180.792 278.199,177.532 274.800,177.099 274.800 C 176.650 274.800,175.236 273.159,175.203 272.600 C 175.190 272.380,174.202 271.480,173.007 270.600 C 171.811 269.720,170.826 268.853,170.817 268.673 C 170.808 268.494,170.172 267.684,169.403 266.873 C 168.635 266.063,168.005 265.265,168.003 265.100 C 168.002 264.935,167.714 264.800,167.364 264.800 C 166.657 264.800,165.234 263.278,165.213 262.500 C 165.206 262.225,165.065 261.998,164.900 261.997 C 164.735 261.995,163.937 261.365,163.127 260.597 C 162.316 259.828,161.461 259.200,161.227 259.200 C 160.992 259.200,160.795 258.975,160.790 258.700 C 160.780 258.179,157.766 254.800,157.311 254.800 C 156.819 254.800,155.200 253.059,155.200 252.530 C 155.200 252.239,155.065 251.998,154.900 251.997 C 154.735 251.995,153.937 251.365,153.127 250.597 C 152.316 249.828,151.461 249.200,151.227 249.200 C 150.992 249.200,150.795 248.975,150.790 248.700 C 150.780 248.200,147.774 244.800,147.342 244.800 C 146.893 244.800,145.214 242.991,145.207 242.500 C 145.203 242.225,145.042 242.000,144.850 242.000 C 144.407 242.000,138.000 235.572,138.000 235.128 C 138.000 234.948,137.800 234.800,137.556 234.800 C 136.942 234.800,135.215 233.110,135.207 232.500 C 135.203 232.225,135.042 232.000,134.850 232.000 C 134.407 232.000,128.000 225.572,128.000 225.128 C 128.000 224.948,127.775 224.797,127.500 224.793 C 126.890 224.785,125.200 223.058,125.200 222.444 C 125.200 222.200,125.042 222.000,124.850 222.000 C 124.407 222.000,118.000 215.572,118.000 215.128 C 118.000 214.948,117.775 214.797,117.500 214.793 C 116.989 214.786,115.200 213.099,115.200 212.625 C 115.200 212.480,115.678 211.919,116.261 211.378 C 118.584 209.225,118.971 209.200,149.541 209.200 C 175.216 209.200,177.802 209.141,178.469 208.538 C 179.173 207.900,179.200 204.466,179.200 114.925 L 179.200 21.973 180.587 20.587 L 181.973 19.200 200.115 19.200 L 218.256 19.200 219.528 20.336 M8.000 365.200 L 8.000 392.401 200.100 392.300 L 392.200 392.200 392.303 365.100 L 392.406 338.000 200.203 338.000 L 8.000 338.000 8.000 365.200 M379.528 350.336 L 380.800 351.471 380.800 365.117 L 380.800 378.764 379.782 379.782 L 378.764 380.800 200.117 380.800 L 21.471 380.800 20.336 379.528 L 19.200 378.256 19.200 365.115 L 19.200 351.973 20.587 350.587 L 21.973 349.200 200.115 349.200 L 378.256 349.200 379.528 350.336 " stroke="none" fill="#448bc4" fill-rule="evenodd"></path><path id="path2" d="M180.587 20.587 L 179.200 21.973 179.200 114.925 C 179.200 204.466,179.173 207.900,178.469 208.538 C 177.802 209.141,175.216 209.200,149.541 209.200 C 118.971 209.200,118.584 209.225,116.261 211.378 C 115.678 211.919,115.200 212.480,115.200 212.625 C 115.200 213.099,116.989 214.786,117.500 214.793 C 117.775 214.797,118.000 214.948,118.000 215.128 C 118.000 215.572,124.407 222.000,124.850 222.000 C 125.042 222.000,125.200 222.200,125.200 222.444 C 125.200 223.058,126.890 224.785,127.500 224.793 C 127.775 224.797,128.000 224.948,128.000 225.128 C 128.000 225.572,134.407 232.000,134.850 232.000 C 135.042 232.000,135.203 232.225,135.207 232.500 C 135.215 233.110,136.942 234.800,137.556 234.800 C 137.800 234.800,138.000 234.948,138.000 235.128 C 138.000 235.572,144.407 242.000,144.850 242.000 C 145.042 242.000,145.203 242.225,145.207 242.500 C 145.214 242.991,146.893 244.800,147.342 244.800 C 147.774 244.800,150.780 248.200,150.790 248.700 C 150.795 248.975,150.992 249.200,151.227 249.200 C 151.461 249.200,152.316 249.828,153.127 250.597 C 153.937 251.365,154.735 251.995,154.900 251.997 C 155.065 251.998,155.200 252.239,155.200 252.530 C 155.200 253.059,156.819 254.800,157.311 254.800 C 157.766 254.800,160.780 258.179,160.790 258.700 C 160.795 258.975,160.992 259.200,161.227 259.200 C 161.461 259.200,162.316 259.828,163.127 260.597 C 163.937 261.365,164.735 261.995,164.900 261.997 C 165.065 261.998,165.206 262.225,165.213 262.500 C 165.234 263.278,166.657 264.800,167.364 264.800 C 167.714 264.800,168.002 264.935,168.003 265.100 C 168.005 265.265,168.635 266.063,169.403 266.873 C 170.172 267.684,170.808 268.494,170.817 268.673 C 170.826 268.853,171.811 269.720,173.007 270.600 C 174.202 271.480,175.190 272.380,175.203 272.600 C 175.236 273.159,176.650 274.800,177.099 274.800 C 177.532 274.800,180.792 278.199,180.817 278.677 C 180.826 278.854,181.811 279.720,183.007 280.600 C 184.202 281.480,185.190 282.380,185.203 282.600 C 185.236 283.159,186.650 284.800,187.099 284.800 C 187.532 284.800,190.792 288.199,190.817 288.677 C 190.826 288.854,191.811 289.720,193.007 290.600 C 194.202 291.480,195.184 292.425,195.190 292.700 C 195.242 295.254,201.888 296.247,203.954 294.010 C 204.603 293.308,205.581 292.281,206.129 291.729 C 207.408 290.436,210.436 287.408,211.729 286.129 C 213.012 284.858,214.841 283.029,216.190 281.667 C 217.548 280.296,220.559 277.285,221.857 276.000 C 223.147 274.722,224.992 272.878,226.257 271.600 C 226.801 271.050,228.001 269.856,228.923 268.948 C 229.846 268.039,231.026 266.785,231.547 266.161 C 232.067 265.538,232.874 264.838,233.339 264.606 C 233.804 264.374,234.368 263.816,234.592 263.365 C 234.977 262.595,235.446 262.108,238.256 259.565 C 238.885 258.995,240.097 257.741,240.950 256.777 C 241.802 255.813,242.878 254.835,243.342 254.604 C 243.805 254.373,244.368 253.816,244.592 253.365 C 244.978 252.592,245.538 252.012,248.256 249.574 C 248.885 249.009,250.120 247.707,251.000 246.679 C 251.880 245.652,252.735 244.808,252.900 244.805 C 253.273 244.799,254.800 243.296,254.800 242.936 C 254.800 242.790,255.322 242.205,255.961 241.636 C 258.969 238.952,259.504 238.426,261.000 236.679 C 261.880 235.652,262.735 234.808,262.900 234.805 C 263.273 234.799,264.800 233.296,264.800 232.936 C 264.800 232.790,265.322 232.205,265.961 231.636 C 268.969 228.952,269.504 228.426,271.000 226.679 C 271.880 225.652,272.735 224.808,272.900 224.805 C 273.290 224.798,274.798 223.290,274.805 222.900 C 274.808 222.735,275.652 221.880,276.679 221.000 C 278.426 219.504,278.952 218.969,281.636 215.961 C 282.205 215.322,282.790 214.800,282.936 214.800 C 284.458 214.800,285.112 212.428,283.900 211.307 C 281.679 209.253,280.836 209.200,250.527 209.200 C 222.933 209.200,222.385 209.185,221.600 208.400 C 220.805 207.605,220.800 207.067,220.800 114.536 L 220.800 21.471 219.528 20.336 L 218.256 19.200 200.115 19.200 L 181.973 19.200 180.587 20.587 M218.405 115.400 C 218.518 166.660,218.766 209.011,218.955 209.513 C 219.894 211.997,219.925 211.999,250.878 212.006 C 280.879 212.013,280.805 212.008,278.563 213.827 C 277.767 214.472,276.640 215.502,276.058 216.116 C 275.476 216.730,274.242 217.990,273.315 218.916 C 272.388 219.842,271.449 220.780,271.229 221.000 C 271.009 221.220,269.993 222.235,268.971 223.256 C 266.637 225.588,265.573 226.652,263.314 228.914 C 262.324 229.904,261.357 230.869,261.163 231.057 C 260.970 231.246,258.748 233.515,256.225 236.100 C 253.702 238.685,251.450 240.800,251.219 240.800 C 250.989 240.800,250.800 241.005,250.800 241.256 C 250.800 241.507,244.995 247.515,237.900 254.606 C 230.805 261.697,224.321 268.196,223.491 269.049 C 222.662 269.902,221.672 270.900,221.291 271.267 C 220.911 271.634,219.831 272.714,218.890 273.667 C 217.950 274.620,216.780 275.795,216.290 276.279 C 215.801 276.762,215.203 277.392,214.962 277.679 C 214.721 277.965,213.641 279.021,212.562 280.024 C 211.483 281.027,209.836 282.647,208.902 283.624 C 207.967 284.601,206.797 285.790,206.302 286.267 C 205.806 286.744,204.715 287.869,203.877 288.767 C 201.624 291.184,198.707 291.185,196.494 288.771 C 195.672 287.874,194.563 286.749,194.029 286.271 C 192.860 285.223,190.982 283.329,189.552 281.754 C 188.975 281.119,187.715 279.843,186.752 278.917 C 185.788 277.992,184.820 277.047,184.600 276.818 C 184.380 276.588,183.075 275.309,181.700 273.976 C 180.325 272.642,179.200 271.382,179.200 271.176 C 179.200 270.969,179.006 270.800,178.769 270.800 C 178.308 270.800,175.200 267.719,175.200 267.263 C 175.200 267.114,174.642 266.543,173.959 265.996 C 172.556 264.869,171.083 263.448,169.565 261.755 C 168.995 261.120,167.780 259.938,166.865 259.129 C 165.949 258.320,165.200 257.508,165.200 257.325 C 165.200 257.141,164.642 256.543,163.959 255.996 C 162.556 254.869,161.083 253.448,159.565 251.755 C 158.995 251.120,157.780 249.938,156.865 249.129 C 155.949 248.320,155.200 247.508,155.200 247.325 C 155.200 247.141,154.641 246.543,153.957 245.996 C 153.273 245.448,152.238 244.492,151.657 243.872 C 149.345 241.403,145.783 238.009,145.500 238.005 C 145.335 238.002,145.200 237.785,145.200 237.522 C 145.200 236.865,143.171 234.800,142.525 234.800 C 142.236 234.800,142.000 234.612,142.000 234.382 C 142.000 233.871,136.084 228.000,135.569 228.000 C 135.366 228.000,135.200 227.721,135.200 227.381 C 135.200 226.678,133.259 224.832,132.500 224.813 C 132.225 224.806,132.000 224.612,132.000 224.382 C 132.000 223.871,126.084 218.000,125.569 218.000 C 125.366 218.000,125.200 217.721,125.200 217.381 C 125.200 216.678,123.259 214.832,122.500 214.813 C 122.225 214.806,122.000 214.573,122.000 214.296 C 122.000 214.019,121.633 213.563,121.184 213.283 C 119.271 212.088,121.204 212.000,149.221 212.000 C 181.225 212.000,180.046 212.105,181.334 209.131 C 181.949 207.712,182.000 200.479,182.000 114.793 L 182.000 21.992 200.100 22.096 L 218.200 22.200 218.405 115.400 M20.587 350.587 L 19.200 351.973 19.200 365.115 L 19.200 378.256 20.336 379.528 L 21.471 380.800 200.117 380.800 L 378.764 380.800 379.782 379.782 L 380.800 378.764 380.800 365.117 L 380.800 351.471 379.528 350.336 L 378.256 349.200 200.115 349.200 L 21.973 349.200 20.587 350.587 M378.200 365.200 L 378.200 378.200 200.200 378.200 L 22.200 378.200 22.095 365.100 L 21.989 351.999 200.095 352.100 L 378.200 352.200 378.200 365.200 " stroke="none" fill="#a6ccec" fill-rule="evenodd"></path><path id="path3" d="" stroke="none" fill="#e0e4e0" fill-rule="evenodd"></path><path id="path4" d="" stroke="none" fill="#e0e4e0" fill-rule="evenodd"></path></g></svg>