<svg id="svg" xmlns="http://www.w3.org/2000/svg" xmlns:xlink="http://www.w3.org/1999/xlink" width="400" height="400" viewBox="0, 0, 400,400"><g id="svgg"><path id="path0" d="M124.800 0.286 C 124.250 0.386,123.629 0.632,123.420 0.834 C 123.211 1.035,122.716 1.200,122.320 1.200 C 121.924 1.200,121.600 1.380,121.600 1.600 C 121.600 1.820,121.344 2.000,121.031 2.000 C 120.281 2.000,114.958 7.273,114.614 8.357 C 114.466 8.821,114.178 9.200,113.973 9.200 C 113.768 9.200,113.600 9.560,113.600 10.000 C 113.600 10.440,113.420 10.800,113.200 10.800 C 112.980 10.800,112.800 11.329,112.800 11.976 C 112.800 12.623,112.620 13.264,112.400 13.400 C 111.795 13.774,111.851 385.275,112.455 387.172 C 113.138 389.312,113.723 390.514,114.500 391.375 C 114.885 391.802,115.200 392.311,115.200 392.506 C 115.200 393.077,120.439 398.000,121.046 398.000 C 121.351 398.000,121.600 398.180,121.600 398.400 C 121.600 398.620,121.945 398.800,122.367 398.800 C 122.788 398.800,123.208 399.025,123.300 399.300 C 123.545 400.035,288.855 400.035,289.100 399.300 C 289.192 399.025,289.539 398.800,289.872 398.800 C 291.675 398.800,298.800 391.631,298.800 389.816 C 298.800 389.477,298.980 389.200,299.200 389.200 C 299.420 389.200,299.600 388.761,299.600 388.224 C 299.600 387.687,299.780 387.136,300.000 387.000 C 300.263 386.837,300.400 370.522,300.400 339.356 L 300.400 291.960 308.700 283.635 C 317.597 274.711,342.200 249.806,347.286 244.574 C 348.983 242.828,352.223 239.555,354.486 237.300 C 356.749 235.046,360.445 231.356,362.700 229.100 C 364.954 226.845,368.644 223.155,370.900 220.900 C 373.155 218.646,376.845 214.956,379.100 212.700 C 381.354 210.445,385.044 206.762,387.300 204.516 C 393.482 198.358,396.400 195.163,396.400 194.551 C 396.400 194.248,396.580 194.000,396.800 194.000 C 397.020 194.000,397.200 193.680,397.200 193.288 C 397.200 192.897,397.560 192.317,398.000 192.000 C 398.440 191.683,398.800 191.028,398.800 190.545 C 398.800 190.062,399.025 189.592,399.300 189.500 C 399.686 189.371,399.800 186.448,399.800 176.687 C 399.800 167.103,399.679 163.919,399.300 163.540 C 399.025 163.265,398.800 162.716,398.800 162.320 C 398.800 161.924,398.620 161.600,398.400 161.600 C 398.180 161.600,398.000 161.330,398.000 161.000 C 398.000 160.670,397.820 160.400,397.600 160.400 C 397.380 160.400,397.200 160.130,397.200 159.800 C 397.200 159.470,397.049 159.200,396.864 159.200 C 396.680 159.200,396.324 158.751,396.073 158.201 C 395.578 157.114,393.781 155.174,386.901 148.297 C 379.316 140.716,375.193 136.593,370.505 131.900 C 364.030 125.419,362.484 124.000,361.898 124.000 C 361.611 124.000,361.117 123.640,360.800 123.200 C 360.483 122.760,359.918 122.400,359.545 122.400 C 359.172 122.400,358.807 122.265,358.733 122.100 C 358.512 121.601,355.178 120.000,354.362 120.000 C 353.943 120.000,353.600 119.820,353.600 119.600 C 353.600 119.380,352.880 119.200,352.000 119.200 C 351.120 119.200,350.400 119.020,350.400 118.800 C 350.400 118.549,347.800 118.400,343.400 118.400 C 339.000 118.400,336.400 118.549,336.400 118.800 C 336.400 119.020,335.680 119.200,334.800 119.200 C 333.920 119.200,333.200 119.380,333.200 119.600 C 333.200 119.820,332.761 120.000,332.224 120.000 C 331.687 120.000,331.136 120.180,331.000 120.400 C 330.864 120.620,330.403 120.800,329.976 120.800 C 329.549 120.800,329.200 120.980,329.200 121.200 C 329.200 121.420,328.930 121.600,328.600 121.600 C 328.270 121.600,328.000 121.780,328.000 122.000 C 328.000 122.220,327.680 122.400,327.288 122.400 C 326.897 122.400,326.317 122.760,326.000 123.200 C 325.683 123.640,325.189 124.000,324.902 124.000 C 324.200 124.000,323.229 124.932,307.306 140.898 C 303.657 144.557,301.682 146.400,301.411 146.400 C 301.295 146.400,301.200 117.150,301.200 81.400 C 301.200 38.333,301.065 16.400,300.800 16.400 C 300.580 16.400,300.400 15.678,300.400 14.795 C 300.400 13.912,300.232 12.877,300.026 12.495 C 299.821 12.113,299.417 11.215,299.129 10.500 C 298.840 9.785,298.469 9.200,298.302 9.200 C 298.136 9.200,298.000 8.918,298.000 8.573 C 298.000 7.803,292.136 2.000,291.359 2.000 C 291.052 2.000,290.799 1.865,290.797 1.700 C 290.781 0.179,292.049 0.202,207.200 0.152 C 162.430 0.126,125.350 0.186,124.800 0.286 M283.720 13.048 C 285.566 13.983,286.390 14.802,287.033 16.341 C 287.668 17.861,287.901 160.907,287.270 161.900 C 287.095 162.176,265.413 183.975,239.088 210.344 C 212.762 236.712,191.035 258.781,190.805 259.386 C 190.576 259.990,190.029 263.571,189.591 267.342 C 189.152 271.114,188.604 275.820,188.372 277.800 C 188.140 279.780,187.781 282.885,187.575 284.700 C 186.199 296.812,185.311 303.777,184.399 309.600 C 184.176 311.030,183.826 313.370,183.623 314.800 C 183.419 316.230,183.048 318.840,182.797 320.600 C 182.547 322.360,182.175 324.880,181.971 326.200 C 180.374 336.542,182.877 339.658,191.480 338.039 C 192.536 337.840,194.930 337.473,196.800 337.223 C 198.670 336.973,201.190 336.603,202.400 336.400 C 203.610 336.198,206.130 335.838,208.000 335.600 C 209.870 335.362,212.390 335.008,213.600 334.812 C 216.830 334.289,221.612 333.699,226.600 333.206 C 229.020 332.967,232.530 332.603,234.400 332.397 C 238.855 331.905,244.398 331.320,249.600 330.794 C 262.537 329.486,259.509 331.274,274.631 316.014 C 281.397 309.186,287.083 303.600,287.266 303.600 C 287.450 303.600,287.597 321.375,287.593 343.100 L 287.587 382.600 286.685 384.192 C 286.180 385.084,285.084 386.180,284.192 386.685 L 282.600 387.587 206.549 387.593 C 124.373 387.601,128.935 387.719,126.950 385.535 C 126.482 385.021,125.921 384.240,125.701 383.800 C 124.838 382.068,124.885 17.631,125.749 15.894 C 126.187 15.011,127.181 13.977,128.149 13.397 L 129.800 12.408 206.120 12.404 C 275.695 12.400,282.553 12.457,283.720 13.048 M140.623 25.981 C 137.915 27.766,137.604 28.953,137.602 37.520 C 137.600 46.634,137.873 47.476,141.495 49.500 C 144.117 50.965,148.129 49.157,149.524 45.881 C 150.446 43.715,150.159 30.192,149.153 28.402 C 147.511 25.481,143.227 24.265,140.623 25.981 M171.943 26.063 C 169.139 27.689,168.800 28.905,168.800 37.336 C 168.800 42.187,168.965 45.150,169.276 45.881 C 171.471 51.037,178.051 51.291,180.638 46.320 C 181.705 44.269,181.421 30.173,180.275 28.278 C 178.416 25.208,174.989 24.297,171.943 26.063 M203.800 25.667 C 202.359 26.464,201.140 27.776,200.565 29.149 C 199.830 30.903,199.760 44.198,200.476 45.881 C 202.578 50.817,208.995 51.349,211.553 46.798 C 212.715 44.730,212.813 30.718,211.681 28.414 C 210.347 25.698,206.296 24.286,203.800 25.667 M235.000 25.667 C 233.559 26.464,232.340 27.776,231.765 29.149 C 230.900 31.214,230.964 44.374,231.848 46.120 C 234.286 50.934,240.221 51.304,242.753 46.798 C 244.007 44.567,244.045 30.135,242.802 28.096 C 241.271 25.585,237.354 24.365,235.000 25.667 M265.559 26.103 C 262.318 28.257,260.854 42.429,263.422 46.800 C 265.770 50.795,271.439 50.890,274.019 46.977 C 275.211 45.169,275.197 30.057,274.002 28.096 C 272.255 25.231,268.283 24.293,265.559 26.103 M141.536 100.538 C 136.864 102.614,136.229 108.683,140.389 111.500 L 141.718 112.400 206.159 112.399 C 269.755 112.397,270.617 112.387,271.904 111.602 C 275.997 109.107,275.752 103.143,271.462 100.829 L 269.924 100.000 206.262 100.032 C 158.218 100.057,142.339 100.181,141.536 100.538 M345.827 131.617 C 352.354 132.765,352.545 132.911,369.666 149.933 C 387.963 168.123,388.480 168.858,388.480 176.655 C 388.480 183.383,387.242 185.526,377.823 195.108 C 373.655 199.347,370.102 202.767,369.927 202.708 C 369.482 202.557,317.200 150.290,317.200 149.995 C 317.200 149.863,320.665 146.339,324.900 142.164 C 333.447 133.737,334.598 132.956,340.200 131.782 C 343.319 131.128,343.081 131.135,345.827 131.617 M355.883 217.092 L 350.765 222.171 324.283 195.676 L 297.800 169.181 302.916 164.107 L 308.032 159.032 334.516 185.523 L 361.000 212.013 355.883 217.092 M315.419 204.645 C 329.819 219.080,341.600 231.095,341.600 231.345 C 341.600 231.968,263.525 310.000,262.901 310.000 C 262.567 310.000,262.400 309.338,262.400 308.016 C 262.400 306.925,262.230 304.720,262.022 303.116 C 261.627 300.065,261.111 295.212,260.394 287.800 C 259.485 278.403,258.557 277.600,248.613 277.600 L 242.400 277.600 242.400 273.098 L 242.400 268.596 259.226 251.798 C 268.480 242.559,276.310 234.514,276.626 233.920 C 279.250 228.982,273.418 223.150,268.480 225.774 C 267.886 226.090,259.931 233.830,250.802 242.974 L 234.204 259.600 232.318 259.600 C 231.281 259.600,229.120 259.430,227.516 259.222 C 224.496 258.831,218.609 258.207,213.874 257.778 C 211.997 257.608,211.077 257.345,210.919 256.933 C 210.699 256.360,288.123 178.400,288.913 178.400 C 289.092 178.400,301.020 190.210,315.419 204.645 M140.769 200.910 C 136.701 203.651,136.514 208.876,140.389 211.500 L 141.718 212.400 181.159 212.399 C 219.809 212.397,220.626 212.381,221.904 211.602 C 225.956 209.132,225.800 202.943,221.632 200.816 C 220.054 200.011,219.499 200.000,181.075 200.000 L 142.118 200.000 140.769 200.910 M211.000 269.575 C 212.760 269.761,217.350 270.218,221.200 270.590 C 230.892 271.527,229.907 270.607,230.067 278.876 C 230.266 289.244,230.729 289.694,241.424 289.928 L 248.249 290.076 248.742 294.738 C 249.014 297.302,249.400 300.930,249.600 302.800 C 249.952 306.081,250.655 312.805,251.009 316.283 C 251.222 318.376,251.092 318.456,246.830 318.857 C 244.943 319.034,241.600 319.374,239.400 319.610 C 237.200 319.847,233.780 320.215,231.800 320.429 C 223.522 321.321,220.968 321.488,220.400 321.178 C 220.070 320.998,214.959 315.987,209.043 310.043 L 198.286 299.237 198.564 297.318 C 198.849 295.347,199.343 291.174,200.000 285.200 C 200.206 283.330,200.567 280.180,200.803 278.200 C 201.039 276.220,201.330 273.520,201.449 272.200 C 201.809 268.195,200.734 268.491,211.000 269.575 M140.769 300.910 C 136.701 303.651,136.514 308.876,140.389 311.500 C 142.349 312.827,169.749 312.916,171.904 311.602 C 175.956 309.132,175.800 302.943,171.632 300.816 C 169.013 299.480,142.772 299.559,140.769 300.910 " stroke="none" fill="#8c6c9c" fill-rule="evenodd"></path><path id="path1" d="M249.630 217.700 C 227.253 240.152,211.007 256.751,211.208 256.958 C 211.399 257.155,216.549 257.838,222.653 258.477 L 233.750 259.638 250.775 242.653 C 265.423 228.039,268.037 225.598,269.500 225.170 C 272.864 224.187,276.373 226.219,277.265 229.668 C 278.195 233.259,278.395 233.008,259.553 251.847 L 242.400 268.997 242.400 273.098 L 242.400 277.200 248.551 277.200 C 257.966 277.200,259.766 278.441,260.439 285.394 C 260.610 287.157,260.939 290.310,261.170 292.400 C 261.402 294.490,261.877 299.169,262.227 302.799 C 262.577 306.428,262.947 309.480,263.048 309.582 C 263.323 309.857,341.200 231.879,341.200 231.328 C 341.200 230.692,289.531 178.800,288.898 178.800 C 288.624 178.800,270.953 196.305,249.630 217.700 M201.858 270.046 C 201.749 270.791,201.460 273.200,201.214 275.400 C 200.969 277.600,200.606 280.750,200.407 282.400 C 200.208 284.050,199.842 287.290,199.595 289.600 C 199.348 291.910,198.966 294.958,198.748 296.373 L 198.351 298.946 209.476 310.109 L 220.600 321.272 224.200 321.032 C 226.180 320.900,229.330 320.618,231.200 320.406 C 237.597 319.682,242.201 319.196,246.077 318.836 C 248.210 318.638,250.168 318.343,250.429 318.182 C 251.041 317.804,250.808 314.319,249.186 299.600 C 248.932 297.290,248.606 294.230,248.462 292.800 L 248.200 290.200 241.128 290.000 C 230.664 289.704,230.261 289.306,230.075 279.072 C 229.928 271.020,230.286 271.645,225.555 271.185 C 219.650 270.611,214.095 270.038,210.400 269.622 C 208.530 269.411,205.888 269.116,204.528 268.966 L 202.057 268.692 201.858 270.046 " stroke="none" fill="#f1daaf" fill-rule="evenodd"></path><path id="path2" d="M128.346 13.661 C 127.547 14.125,126.512 15.218,126.046 16.090 L 125.200 17.676 125.200 62.038 L 125.200 106.400 131.137 106.400 L 137.073 106.400 137.575 104.700 C 138.132 102.811,139.251 101.410,140.880 100.562 C 142.312 99.817,270.308 99.709,271.696 100.451 C 273.547 101.442,275.200 103.880,275.200 105.619 C 275.200 106.359,275.515 106.400,281.200 106.400 L 287.200 106.400 287.200 61.894 C 287.200 11.787,287.440 15.588,284.158 13.707 L 282.600 12.813 206.200 12.816 L 129.800 12.818 128.346 13.661 M146.938 25.681 C 150.098 27.887,150.076 27.794,149.923 38.314 L 149.800 46.788 148.307 48.281 C 144.996 51.590,138.838 50.081,137.610 45.661 C 136.861 42.963,137.107 30.443,137.945 28.600 C 139.565 25.039,143.971 23.609,146.938 25.681 M177.874 25.397 C 181.045 26.979,181.601 28.754,181.598 37.287 C 181.595 45.445,181.341 46.618,179.144 48.603 C 176.765 50.752,172.819 50.605,170.493 48.281 L 169.000 46.788 168.877 38.314 C 168.745 29.208,168.804 28.562,169.889 27.359 C 172.155 24.847,175.248 24.087,177.874 25.397 M208.905 25.300 C 212.431 27.271,212.800 28.429,212.800 37.523 C 212.800 44.116,212.711 45.130,212.006 46.574 C 209.847 50.995,203.358 51.302,200.798 47.104 C 199.518 45.004,199.590 29.649,200.889 27.753 C 202.637 25.201,206.573 23.997,208.905 25.300 M240.105 25.300 C 243.649 27.281,244.000 28.404,243.999 37.749 C 243.997 45.741,243.821 46.637,241.862 48.595 C 239.343 51.114,233.945 50.298,231.998 47.104 C 230.711 44.993,230.791 29.814,232.100 27.813 C 233.764 25.269,237.789 24.005,240.105 25.300 M271.459 25.390 C 272.700 26.009,273.860 27.192,274.700 28.695 C 275.552 30.219,275.336 45.467,274.441 47.000 C 272.056 51.084,265.544 51.084,263.159 47.000 C 262.217 45.386,262.053 30.232,262.959 28.479 C 264.580 25.344,268.507 23.917,271.459 25.390 M303.000 164.259 C 300.580 166.795,298.540 169.034,298.467 169.235 C 298.320 169.638,350.125 221.600,350.673 221.600 C 350.861 221.600,353.236 219.418,355.951 216.751 L 360.888 211.902 334.748 185.751 C 320.371 171.368,308.336 159.611,308.004 159.625 C 307.672 159.638,305.420 161.724,303.000 164.259 " stroke="none" fill="#ace3fb" fill-rule="evenodd"></path><path id="path3" d="M340.200 131.782 C 334.598 132.956,333.447 133.737,324.900 142.164 C 320.665 146.339,317.200 149.863,317.200 149.995 C 317.200 150.290,369.482 202.557,369.927 202.708 C 370.102 202.767,373.655 199.347,377.823 195.108 C 387.242 185.526,388.480 183.383,388.480 176.655 C 388.480 168.858,387.963 168.123,369.666 149.933 C 352.545 132.911,352.354 132.765,345.827 131.617 C 343.081 131.135,343.319 131.128,340.200 131.782 M270.800 196.200 C 269.828 197.190,269.123 198.000,269.233 198.000 C 269.343 198.000,270.228 197.190,271.200 196.200 C 272.172 195.210,272.877 194.400,272.767 194.400 C 272.657 194.400,271.772 195.210,270.800 196.200 M241.199 225.900 L 213.800 253.400 241.300 226.001 C 266.864 200.531,268.979 198.400,268.699 198.400 C 268.643 198.400,256.268 210.775,241.199 225.900 M270.500 225.076 C 270.885 225.176,271.515 225.176,271.900 225.076 C 272.285 224.975,271.970 224.893,271.200 224.893 C 270.430 224.893,270.115 224.975,270.500 225.076 M250.598 242.900 L 233.800 259.800 250.700 243.002 C 266.408 227.389,267.780 226.000,267.498 226.000 C 267.442 226.000,259.837 233.605,250.598 242.900 M275.634 227.047 C 276.165 227.733,276.680 228.223,276.779 228.135 C 276.877 228.047,276.443 227.486,275.813 226.888 L 274.669 225.800 275.634 227.047 M277.301 231.400 C 277.305 232.280,277.387 232.593,277.483 232.095 C 277.579 231.598,277.575 230.878,277.475 230.495 C 277.375 230.113,277.296 230.520,277.301 231.400 M341.246 231.001 C 341.204 231.736,263.812 309.600,263.123 309.600 C 262.972 309.600,262.778 308.925,262.691 308.100 L 262.534 306.600 262.467 308.300 C 262.423 309.431,262.568 310.000,262.901 310.000 C 263.918 310.000,341.695 231.772,341.487 230.959 C 341.305 230.247,341.290 230.250,341.246 231.001 M259.402 251.600 L 242.205 269.000 259.585 251.716 C 269.145 242.210,276.884 234.380,276.783 234.316 C 276.682 234.252,268.861 242.030,259.402 251.600 M214.100 257.876 C 214.485 257.976,215.115 257.976,215.500 257.876 C 215.885 257.775,215.570 257.693,214.800 257.693 C 214.030 257.693,213.715 257.775,214.100 257.876 M222.100 258.676 C 222.485 258.776,223.115 258.776,223.500 258.676 C 223.885 258.575,223.570 258.493,222.800 258.493 C 222.030 258.493,221.715 258.575,222.100 258.676 M229.700 259.476 C 230.085 259.576,230.715 259.576,231.100 259.476 C 231.485 259.375,231.170 259.293,230.400 259.293 C 229.630 259.293,229.315 259.375,229.700 259.476 M243.800 277.462 C 247.505 277.745,255.891 277.777,255.464 277.506 C 255.209 277.344,252.120 277.241,248.600 277.276 C 245.080 277.311,242.920 277.395,243.800 277.462 M256.435 278.100 C 256.528 278.155,257.233 278.740,258.002 279.400 L 259.400 280.600 258.225 279.300 C 257.579 278.585,256.874 278.000,256.658 278.000 C 256.443 278.000,256.343 278.045,256.435 278.100 M260.114 284.600 C 260.117 285.700,260.195 286.103,260.287 285.495 C 260.379 284.886,260.377 283.986,260.282 283.495 C 260.187 283.003,260.111 283.500,260.114 284.600 M260.920 292.400 C 260.920 293.610,260.995 294.105,261.087 293.500 C 261.178 292.895,261.178 291.905,261.087 291.300 C 260.995 290.695,260.920 291.190,260.920 292.400 M261.293 296.000 C 261.293 296.770,261.375 297.085,261.476 296.700 C 261.576 296.315,261.576 295.685,261.476 295.300 C 261.375 294.915,261.293 295.230,261.293 296.000 M261.720 300.000 C 261.720 301.210,261.795 301.705,261.887 301.100 C 261.978 300.495,261.978 299.505,261.887 298.900 C 261.795 298.295,261.720 298.790,261.720 300.000 M203.200 304.200 C 205.723 306.730,207.877 308.800,207.987 308.800 C 208.097 308.800,206.123 306.730,203.600 304.200 C 201.077 301.670,198.923 299.600,198.813 299.600 C 198.703 299.600,200.677 301.670,203.200 304.200 M262.093 303.600 C 262.093 304.370,262.175 304.685,262.276 304.300 C 262.376 303.915,262.376 303.285,262.276 302.900 C 262.175 302.515,262.093 302.830,262.093 303.600 M215.000 316.000 C 217.854 318.860,220.278 321.200,220.388 321.200 C 220.498 321.200,218.254 318.860,215.400 316.000 C 212.546 313.140,210.122 310.800,210.012 310.800 C 209.902 310.800,212.146 313.140,215.000 316.000 " stroke="none" fill="#eb7b9c" fill-rule="evenodd"></path><path id="path4" d="M128.301 13.312 C 126.807 14.216,125.961 15.172,125.479 16.500 C 125.045 17.698,125.530 17.268,126.196 15.866 C 126.550 15.119,127.507 14.150,128.369 13.666 L 129.909 12.800 206.170 12.800 C 290.831 12.800,284.614 12.610,286.019 15.236 C 286.264 15.694,286.569 15.964,286.697 15.837 C 287.068 15.465,285.527 13.980,283.916 13.157 C 282.475 12.422,280.215 12.400,206.116 12.402 L 129.800 12.404 128.301 13.312 M287.105 61.438 L 287.210 106.400 281.205 106.400 C 275.246 106.400,275.200 106.393,275.194 105.500 C 275.191 105.005,275.044 104.373,274.868 104.096 C 274.692 103.820,274.615 104.630,274.696 105.896 C 274.869 108.587,274.026 110.308,271.904 111.602 C 270.617 112.387,269.755 112.397,206.159 112.399 L 141.718 112.400 140.389 111.500 C 138.670 110.336,137.678 108.603,137.583 106.600 C 137.541 105.720,137.425 105.315,137.324 105.700 C 137.160 106.327,136.521 106.400,131.172 106.400 L 125.203 106.400 125.102 62.300 C 125.046 38.045,125.055 100.100,125.123 200.200 C 125.191 300.300,125.326 382.591,125.423 383.069 C 125.520 383.547,126.071 384.499,126.648 385.184 C 128.829 387.776,123.005 387.601,206.549 387.593 L 282.600 387.587 284.192 386.685 C 285.084 386.180,286.180 385.084,286.685 384.192 L 287.587 382.600 287.593 343.100 C 287.597 321.375,287.450 303.600,287.266 303.600 C 287.083 303.600,281.397 309.186,274.631 316.014 C 259.509 331.274,262.537 329.486,249.600 330.794 C 244.398 331.320,238.855 331.905,234.400 332.397 C 232.530 332.603,229.020 332.967,226.600 333.206 C 221.612 333.699,216.830 334.289,213.600 334.812 C 212.390 335.008,209.870 335.362,208.000 335.600 C 206.130 335.838,203.610 336.198,202.400 336.400 C 201.190 336.603,198.670 336.973,196.800 337.223 C 194.930 337.473,192.536 337.840,191.480 338.039 C 182.877 339.658,180.374 336.542,181.971 326.200 C 182.175 324.880,182.547 322.360,182.797 320.600 C 183.048 318.840,183.419 316.230,183.623 314.800 C 183.826 313.370,184.176 311.030,184.399 309.600 C 185.311 303.777,186.199 296.812,187.575 284.700 C 187.781 282.885,188.140 279.780,188.372 277.800 C 188.604 275.820,189.152 271.114,189.591 267.342 C 190.029 263.571,190.576 259.990,190.805 259.386 C 191.035 258.781,212.762 236.712,239.088 210.344 C 265.413 183.975,287.095 162.176,287.270 161.900 C 287.670 161.271,287.694 17.566,287.294 16.938 C 287.132 16.684,287.047 36.709,287.105 61.438 M141.461 25.100 C 141.359 25.265,142.159 25.338,143.239 25.261 C 144.697 25.158,145.569 25.338,146.624 25.961 C 148.587 27.119,148.902 27.015,147.114 25.800 C 145.663 24.814,141.925 24.351,141.461 25.100 M171.611 25.820 C 169.911 27.020,170.241 27.103,172.176 25.961 C 173.231 25.338,174.103 25.158,175.561 25.261 C 176.641 25.338,177.441 25.265,177.339 25.100 C 176.880 24.360,172.986 24.849,171.611 25.820 M203.189 25.637 C 201.688 26.507,199.978 28.668,200.033 29.625 C 200.051 29.941,200.311 29.639,200.612 28.953 C 201.732 26.400,204.243 24.987,207.162 25.265 C 208.026 25.347,208.647 25.276,208.543 25.107 C 208.150 24.472,204.590 24.824,203.189 25.637 M235.462 25.100 C 235.360 25.265,236.322 25.400,237.600 25.400 C 238.878 25.400,239.840 25.265,239.738 25.100 C 239.636 24.935,238.674 24.800,237.600 24.800 C 236.526 24.800,235.564 24.935,235.462 25.100 M266.662 25.100 C 266.560 25.265,267.522 25.400,268.800 25.400 C 270.078 25.400,271.040 25.265,270.938 25.100 C 270.836 24.935,269.874 24.800,268.800 24.800 C 267.726 24.800,266.764 24.935,266.662 25.100 M139.320 26.500 C 138.452 27.453,137.599 28.929,137.601 29.474 C 137.602 29.653,137.979 29.170,138.439 28.400 C 138.899 27.630,139.663 26.689,140.137 26.309 C 140.612 25.929,140.806 25.614,140.570 25.609 C 140.333 25.604,139.771 26.005,139.320 26.500 M178.663 26.309 C 179.137 26.689,179.901 27.630,180.361 28.400 C 181.238 29.869,181.524 29.776,180.750 28.274 C 180.122 27.055,178.745 25.598,178.230 25.609 C 177.994 25.614,178.188 25.929,178.663 26.309 M210.176 26.453 C 211.970 27.863,212.184 28.909,212.415 37.400 L 212.633 45.400 212.716 37.719 C 212.773 32.504,212.647 29.678,212.325 28.919 C 211.778 27.632,210.031 25.600,209.471 25.600 C 209.263 25.600,209.580 25.984,210.176 26.453 M233.600 26.113 C 233.270 26.381,232.737 26.960,232.415 27.400 C 232.094 27.840,232.453 27.660,233.213 27.000 C 233.974 26.340,234.672 25.755,234.765 25.700 C 234.857 25.645,234.768 25.606,234.567 25.613 C 234.365 25.620,233.930 25.845,233.600 26.113 M241.734 26.907 C 242.430 27.626,243.077 28.164,243.171 28.103 C 243.399 27.954,241.131 25.600,240.759 25.600 C 240.599 25.600,241.038 26.188,241.734 26.907 M264.324 26.700 C 263.163 27.945,262.396 29.296,262.409 30.074 C 262.414 30.363,262.751 29.866,263.159 28.969 C 263.566 28.071,264.396 26.946,265.004 26.469 C 265.611 25.991,265.937 25.600,265.729 25.600 C 265.520 25.600,264.888 26.095,264.324 26.700 M272.934 26.907 C 273.630 27.626,274.277 28.164,274.371 28.103 C 274.599 27.954,272.331 25.600,271.959 25.600 C 271.799 25.600,272.238 26.188,272.934 26.907 M149.111 28.374 C 149.482 29.020,149.840 29.493,149.907 29.426 C 150.124 29.209,149.083 27.200,148.754 27.200 C 148.580 27.200,148.740 27.728,149.111 28.374 M169.249 28.252 C 168.583 29.714,168.874 29.795,169.689 28.374 C 170.060 27.728,170.220 27.200,170.046 27.200 C 169.871 27.200,169.513 27.673,169.249 28.252 M274.600 37.600 C 274.600 42.398,274.735 46.240,274.900 46.138 C 275.065 46.036,275.200 42.194,275.200 37.600 C 275.200 33.006,275.065 29.164,274.900 29.062 C 274.735 28.960,274.600 32.802,274.600 37.600 M243.690 37.400 C 243.605 44.667,243.522 45.523,242.777 46.745 C 242.326 47.485,242.025 48.158,242.107 48.241 C 242.190 48.323,242.654 47.687,243.137 46.826 C 243.974 45.337,244.011 44.874,243.900 37.330 L 243.782 29.400 243.690 37.400 M137.367 37.400 C 137.367 41.580,137.426 43.236,137.498 41.079 C 137.571 38.923,137.570 35.503,137.498 33.479 C 137.425 31.456,137.366 33.220,137.367 37.400 M181.367 37.400 C 181.367 41.580,181.426 43.236,181.498 41.079 C 181.571 38.923,181.570 35.503,181.498 33.479 C 181.425 31.456,181.366 33.220,181.367 37.400 M149.386 46.115 C 149.095 47.274,147.651 48.745,146.081 49.484 C 145.044 49.971,145.041 49.982,146.000 49.751 C 147.750 49.329,150.576 46.043,149.831 45.297 C 149.725 45.192,149.525 45.560,149.386 46.115 M169.044 46.000 C 169.348 47.288,171.512 49.451,172.800 49.756 C 173.783 49.988,173.781 49.983,172.736 49.491 C 171.222 48.777,170.011 47.596,169.366 46.203 C 168.908 45.215,168.850 45.178,169.044 46.000 M231.216 45.320 C 231.184 45.963,232.343 47.823,233.259 48.598 L 234.200 49.394 233.349 48.397 C 232.880 47.849,232.213 46.860,231.865 46.200 C 231.517 45.540,231.225 45.144,231.216 45.320 M137.612 45.953 C 137.597 46.622,140.901 50.000,141.571 50.000 C 141.833 50.000,141.936 49.820,141.800 49.600 C 141.664 49.380,141.327 49.200,141.051 49.200 C 140.497 49.200,138.755 47.450,138.066 46.200 C 137.802 45.723,137.619 45.623,137.612 45.953 M180.800 45.919 C 180.800 46.592,178.401 49.200,177.782 49.200 C 177.488 49.200,177.136 49.380,177.000 49.600 C 176.481 50.439,177.632 49.948,179.001 48.745 C 180.528 47.405,181.412 46.079,181.032 45.699 C 180.905 45.571,180.800 45.670,180.800 45.919 M211.578 46.698 C 210.674 48.501,210.687 48.679,211.620 47.283 C 212.104 46.559,212.417 45.883,212.315 45.782 C 212.213 45.680,211.881 46.092,211.578 46.698 M263.200 47.076 C 263.200 47.863,266.592 50.341,267.047 49.886 C 267.145 49.788,266.674 49.479,265.999 49.200 C 265.325 48.920,264.419 48.242,263.986 47.692 C 263.554 47.142,263.200 46.865,263.200 47.076 M273.765 47.346 C 273.626 47.710,272.766 48.454,271.856 49.000 C 270.084 50.062,270.129 50.368,271.921 49.441 C 273.239 48.759,274.622 47.289,274.274 46.940 C 274.133 46.800,273.905 46.983,273.765 47.346 M209.000 49.227 C 208.340 49.650,208.005 49.997,208.256 49.998 C 208.506 49.999,209.136 49.646,209.656 49.213 C 210.845 48.223,210.559 48.229,209.000 49.227 M240.200 49.227 C 238.855 50.089,239.039 50.238,240.581 49.536 C 241.142 49.280,241.600 48.920,241.600 48.736 C 241.600 48.318,241.643 48.303,240.200 49.227 M270.400 100.171 C 270.400 100.265,270.940 100.611,271.600 100.940 C 272.260 101.269,272.800 101.401,272.800 101.234 C 272.800 101.066,272.342 100.720,271.781 100.464 C 270.684 99.964,270.400 99.904,270.400 100.171 M139.133 101.900 C 138.080 103.041,137.296 104.635,138.005 104.197 C 138.222 104.063,138.400 103.748,138.400 103.498 C 138.400 103.248,138.884 102.539,139.475 101.922 C 140.066 101.305,140.460 100.800,140.350 100.800 C 140.240 100.800,139.692 101.295,139.133 101.900 M300.800 166.200 C 299.161 167.850,297.910 169.200,298.020 169.200 C 298.130 169.200,299.561 167.850,301.200 166.200 C 302.839 164.550,304.090 163.200,303.980 163.200 C 303.870 163.200,302.439 164.550,300.800 166.200 M221.632 200.816 C 225.800 202.943,225.956 209.132,221.904 211.602 C 220.626 212.381,219.809 212.397,181.159 212.399 L 141.718 212.400 140.389 211.500 C 136.514 208.876,136.701 203.651,140.769 200.910 L 142.118 200.000 181.075 200.000 C 219.499 200.000,220.054 200.011,221.632 200.816 M353.787 218.900 L 351.400 221.400 353.900 219.013 C 356.222 216.795,356.583 216.400,356.287 216.400 C 356.226 216.400,355.101 217.525,353.787 218.900 M171.632 300.816 C 175.800 302.943,175.956 309.132,171.904 311.602 C 169.749 312.916,142.349 312.827,140.389 311.500 C 136.514 308.876,136.701 303.651,140.769 300.910 C 142.772 299.559,169.013 299.480,171.632 300.816 " stroke="none" fill="#84ccfc" fill-rule="evenodd"></path></g></svg>