<svg id="svg" xmlns="http://www.w3.org/2000/svg" xmlns:xlink="http://www.w3.org/1999/xlink" width="400" height="400" viewBox="0, 0, 400,400"><g id="svgg"><path id="path0" d="M58.185 18.500 C 58.081 18.775,58.041 100.720,58.098 200.600 L 58.200 382.200 132.000 382.270 C 172.590 382.309,205.575 382.249,205.300 382.137 C 204.940 381.990,204.800 380.614,204.800 377.213 C 204.800 372.657,204.769 372.485,203.900 372.252 C 203.405 372.119,173.300 372.006,137.000 372.000 C 65.022 371.987,69.478 372.143,68.564 369.600 C 67.826 367.546,67.824 32.862,68.562 30.800 C 69.568 27.989,62.499 28.211,154.631 28.097 C 244.389 27.986,240.396 27.897,241.494 30.037 C 241.877 30.784,241.990 40.773,241.994 74.500 L 242.000 118.000 285.100 118.030 C 331.177 118.063,330.471 118.032,331.494 120.034 C 331.878 120.785,331.991 132.331,332.000 172.000 C 332.006 200.050,332.119 223.405,332.252 223.900 C 332.485 224.769,332.657 224.800,337.213 224.800 C 340.615 224.800,341.990 224.940,342.136 225.300 C 342.247 225.575,342.307 198.170,342.269 164.400 L 342.200 103.000 339.900 102.880 L 337.600 102.760 337.600 100.380 L 337.600 98.000 335.019 98.000 L 332.438 98.000 332.319 95.500 L 332.200 93.000 329.900 92.880 L 327.600 92.760 327.600 90.380 L 327.600 88.000 325.019 88.000 L 322.438 88.000 322.319 85.500 L 322.200 83.000 319.900 82.880 L 317.600 82.760 317.600 80.380 L 317.600 78.000 315.019 78.000 L 312.438 78.000 312.319 75.500 L 312.200 73.000 309.900 72.880 L 307.600 72.760 307.600 70.380 L 307.600 68.000 305.019 68.000 L 302.438 68.000 302.319 65.500 L 302.200 63.000 299.900 62.880 L 297.600 62.760 297.600 60.380 L 297.600 58.000 295.019 58.000 L 292.438 58.000 292.319 55.500 L 292.200 53.000 289.900 52.880 L 287.600 52.760 287.600 50.380 L 287.600 48.000 285.019 48.000 L 282.438 48.000 282.319 45.500 L 282.200 43.000 279.900 42.880 L 277.600 42.760 277.600 40.380 L 277.600 38.000 275.019 38.000 L 272.438 38.000 272.319 35.500 L 272.200 33.000 269.900 32.880 L 267.600 32.760 267.600 30.380 L 267.600 28.000 265.019 28.000 L 262.438 28.000 262.319 25.500 L 262.200 23.000 259.900 22.880 L 257.600 22.760 257.600 20.380 L 257.600 18.000 157.987 18.000 C 78.665 18.000,58.336 18.102,58.185 18.500 M254.848 34.292 C 255.603 34.738,256.158 35.503,256.413 36.448 C 256.784 37.827,258.548 39.200,259.949 39.200 C 260.184 39.200,260.845 40.190,261.417 41.400 C 262.008 42.648,262.722 43.600,263.067 43.600 C 264.387 43.600,266.021 44.991,266.413 46.448 C 266.784 47.827,268.548 49.200,269.949 49.200 C 270.184 49.200,270.845 50.190,271.417 51.400 C 272.008 52.648,272.722 53.600,273.067 53.600 C 274.387 53.600,276.021 54.991,276.413 56.448 C 276.784 57.827,278.548 59.200,279.949 59.200 C 280.184 59.200,280.845 60.190,281.417 61.400 C 282.008 62.648,282.722 63.600,283.067 63.600 C 284.387 63.600,286.021 64.991,286.413 66.448 C 286.784 67.827,288.548 69.200,289.949 69.200 C 290.184 69.200,290.845 70.190,291.417 71.400 C 292.008 72.648,292.722 73.600,293.067 73.600 C 294.387 73.600,296.021 74.991,296.413 76.448 C 296.784 77.827,298.548 79.200,299.949 79.200 C 300.184 79.200,300.845 80.190,301.417 81.400 C 302.008 82.648,302.722 83.600,303.067 83.600 C 304.387 83.600,306.021 84.991,306.413 86.448 C 306.784 87.827,308.548 89.200,309.949 89.200 C 310.184 89.200,310.845 90.190,311.417 91.400 C 312.008 92.648,312.722 93.600,313.067 93.600 C 314.387 93.600,316.021 94.991,316.413 96.448 C 316.784 97.827,318.548 99.200,319.949 99.200 C 320.184 99.200,320.845 100.190,321.417 101.400 C 322.008 102.648,322.722 103.600,323.067 103.600 C 325.461 103.600,327.143 106.494,326.278 109.126 C 325.312 112.061,326.812 111.954,286.554 111.978 C 246.164 112.003,249.430 112.282,248.433 108.715 C 247.735 106.218,248.030 39.288,248.749 37.000 C 249.699 33.980,252.336 32.808,254.848 34.292 M354.507 218.493 C 353.616 218.915,352.871 221.145,353.358 221.932 C 353.655 222.413,352.688 222.800,351.186 222.800 C 348.738 222.800,348.000 223.510,348.000 225.864 L 348.000 228.000 346.500 228.044 C 345.675 228.069,344.618 228.059,344.151 228.022 C 343.207 227.949,342.504 229.170,343.232 229.620 C 343.570 229.829,343.572 229.943,343.239 230.054 C 342.948 230.151,342.635 232.706,342.363 237.202 C 341.834 245.925,341.167 247.600,338.220 247.600 C 337.874 247.600,337.600 247.941,337.600 248.372 C 337.600 249.799,335.084 252.000,333.453 252.000 C 332.237 252.000,332.000 252.139,332.000 252.853 C 332.000 254.358,330.481 256.319,329.085 256.618 C 327.330 256.993,326.928 257.392,326.613 259.074 C 326.292 260.783,325.028 261.968,323.508 261.987 C 322.670 261.997,322.367 262.233,322.208 263.000 C 322.093 263.550,321.905 264.456,321.789 265.012 C 321.573 266.053,319.521 267.596,318.350 267.599 C 317.960 267.599,317.611 268.044,317.478 268.711 C 317.112 270.540,315.764 271.902,314.028 272.195 C 312.579 272.440,312.440 272.579,312.195 274.028 C 311.902 275.764,310.540 277.112,308.711 277.478 C 308.011 277.618,307.600 277.956,307.600 278.391 C 307.600 279.756,305.854 281.719,304.242 282.168 C 302.851 282.555,302.625 282.802,302.144 284.451 C 301.665 286.095,301.395 286.391,299.703 287.124 C 298.104 287.817,297.682 288.241,297.061 289.774 C 296.405 291.392,296.114 291.659,294.493 292.132 C 292.810 292.623,292.623 292.809,292.134 294.486 C 291.625 296.232,289.997 297.600,288.430 297.600 C 288.182 297.600,287.801 298.095,287.582 298.700 C 286.710 301.108,286.244 301.621,284.460 302.141 C 282.814 302.621,282.621 302.816,282.134 304.486 C 281.625 306.232,279.997 307.600,278.430 307.600 C 278.182 307.600,277.801 308.095,277.582 308.700 C 276.710 311.108,276.244 311.621,274.460 312.141 C 272.814 312.621,272.621 312.816,272.134 314.486 C 271.625 316.232,269.997 317.600,268.430 317.600 C 268.182 317.600,267.801 318.095,267.582 318.700 C 266.709 321.110,266.245 321.621,264.452 322.144 C 262.996 322.568,262.566 322.911,262.224 323.917 C 261.653 325.597,261.164 326.018,258.916 326.764 C 257.152 327.350,256.973 327.531,256.654 329.048 C 256.296 330.756,254.666 332.000,252.786 332.000 C 252.271 332.000,252.000 332.271,252.000 332.786 C 252.000 334.639,250.735 336.341,249.161 336.607 C 247.360 336.911,246.960 337.324,246.600 339.256 C 246.331 340.694,245.602 341.236,242.700 342.154 C 242.202 342.311,242.000 342.795,242.000 343.830 C 242.000 347.191,240.812 350.543,239.214 351.691 C 237.604 352.849,237.284 353.995,236.556 361.200 C 236.240 364.330,235.640 365.615,233.816 367.071 C 232.624 368.021,232.405 368.473,232.204 370.386 C 231.328 378.726,226.856 383.483,220.500 382.835 C 219.977 382.781,219.597 382.964,219.594 383.271 C 219.589 383.662,219.486 383.643,219.200 383.200 C 218.878 382.702,218.810 382.736,218.800 383.400 C 218.790 384.040,218.714 384.084,218.422 383.622 C 218.193 383.261,218.041 386.227,218.017 391.522 L 217.977 400.000 227.789 400.000 L 237.600 400.000 237.600 398.800 L 237.600 397.600 243.500 397.566 C 246.745 397.547,250.030 397.502,250.800 397.466 L 252.200 397.400 252.319 394.900 L 252.438 392.400 257.519 392.361 C 260.314 392.340,263.460 392.330,264.510 392.340 C 265.561 392.349,266.326 392.203,266.210 392.016 C 266.094 391.828,266.359 391.769,266.799 391.884 C 267.405 392.042,267.600 391.897,267.600 391.287 C 267.600 388.504,271.641 387.062,277.954 387.591 C 278.479 387.635,279.061 387.430,279.248 387.136 C 279.501 386.736,279.589 386.727,279.594 387.100 C 279.597 387.375,279.870 387.600,280.200 387.600 C 280.530 387.600,280.800 387.426,280.800 387.213 C 280.800 386.999,281.048 386.920,281.351 387.036 C 281.955 387.268,282.250 386.349,282.359 383.900 C 282.422 382.459,282.373 382.400,281.113 382.394 C 279.215 382.385,278.738 381.924,278.507 379.874 C 278.086 376.140,279.336 373.600,281.595 373.600 C 282.870 373.600,283.600 372.931,283.600 371.764 C 283.600 370.491,284.776 369.247,286.553 368.638 C 287.813 368.207,288.207 367.813,288.638 366.553 C 289.247 364.776,290.491 363.600,291.764 363.600 C 292.903 363.600,293.600 362.876,293.600 361.694 C 293.600 360.137,294.291 359.308,296.195 358.580 C 297.188 358.201,298.000 357.647,298.000 357.348 C 298.000 355.592,299.368 353.725,301.010 353.240 C 302.481 352.806,302.751 352.540,303.180 351.108 C 303.784 349.092,304.991 348.031,306.700 348.013 C 307.894 348.001,308.001 347.894,308.013 346.700 C 308.031 344.996,309.091 343.785,311.087 343.187 C 312.480 342.769,312.769 342.480,313.187 341.087 C 313.785 339.091,314.996 338.031,316.700 338.013 C 317.894 338.001,318.001 337.894,318.013 336.700 C 318.031 334.996,319.091 333.785,321.087 333.187 C 322.480 332.769,322.769 332.480,323.187 331.087 C 323.785 329.091,324.996 328.031,326.700 328.013 C 327.894 328.001,328.001 327.894,328.013 326.700 C 328.031 324.996,329.091 323.785,331.087 323.187 C 332.480 322.769,332.769 322.480,333.187 321.087 C 333.949 318.541,334.861 318.029,338.653 318.013 C 342.253 317.999,342.382 318.105,342.395 321.103 L 342.400 322.405 344.469 322.252 C 347.027 322.063,348.901 319.792,347.100 319.065 C 346.700 318.904,346.700 318.857,347.100 318.832 C 347.375 318.814,347.600 318.530,347.600 318.200 C 347.600 317.870,347.855 317.600,348.167 317.600 C 348.478 317.600,348.824 317.375,348.935 317.100 C 349.096 316.700,349.143 316.700,349.168 317.100 C 349.210 317.757,350.456 317.739,351.372 317.070 C 351.852 316.719,352.146 315.887,352.242 314.610 C 352.418 312.263,352.263 312.418,354.610 312.242 C 357.039 312.060,358.837 309.766,357.100 309.065 C 356.700 308.904,356.700 308.857,357.100 308.832 C 357.375 308.814,357.600 308.530,357.600 308.200 C 357.600 307.870,357.855 307.600,358.167 307.600 C 358.478 307.600,358.824 307.375,358.935 307.100 C 359.096 306.700,359.143 306.700,359.168 307.100 C 359.210 307.759,360.458 307.738,361.381 307.063 C 362.027 306.591,362.245 305.680,362.376 302.900 C 362.392 302.576,363.045 302.400,364.226 302.400 C 367.035 302.400,367.600 301.929,367.600 299.586 L 367.600 297.600 369.586 297.600 C 371.929 297.600,372.400 297.035,372.400 294.226 C 372.400 292.763,372.539 292.395,373.100 292.376 C 377.252 292.236,377.257 292.234,377.509 289.609 L 377.702 287.600 379.174 287.600 C 381.349 287.600,382.072 286.877,382.303 284.467 C 382.412 283.330,382.614 282.387,382.751 282.372 C 382.888 282.356,383.847 282.310,384.882 282.270 C 387.000 282.187,388.197 281.422,387.197 280.789 C 386.753 280.509,386.736 280.411,387.130 280.406 C 387.469 280.402,387.619 280.003,387.545 279.300 C 387.382 277.745,387.783 277.307,389.182 277.512 C 390.030 277.636,390.402 277.525,390.406 277.145 C 390.411 276.720,390.495 276.731,390.789 277.197 C 391.422 278.197,392.187 277.000,392.270 274.882 C 392.310 273.847,392.356 272.888,392.372 272.751 C 392.387 272.614,393.330 272.412,394.467 272.303 C 396.890 272.070,397.600 271.350,397.600 269.124 C 397.600 267.697,397.677 267.600,398.800 267.600 L 400.000 267.600 400.000 247.800 L 400.000 228.000 398.800 228.000 C 397.618 228.000,397.600 227.969,397.600 225.880 C 397.600 223.230,397.170 222.800,394.520 222.800 L 392.400 222.800 392.395 221.300 C 392.392 220.475,392.280 219.392,392.146 218.894 L 391.903 217.987 373.652 218.029 C 361.736 218.055,355.090 218.217,354.507 218.493 M381.224 229.184 C 383.054 229.634,384.171 230.513,386.454 233.300 C 387.130 234.125,387.873 234.800,388.106 234.800 C 392.415 234.800,393.496 254.127,389.359 257.214 C 388.633 257.756,387.715 258.793,387.319 259.519 C 385.163 263.473,378.543 262.929,374.962 258.504 C 374.115 257.457,373.057 256.340,372.611 256.021 C 371.633 255.323,369.697 253.328,368.600 251.888 C 368.160 251.310,367.584 250.829,367.319 250.818 C 367.054 250.808,366.072 249.855,365.136 248.700 C 364.200 247.544,362.601 245.945,361.583 245.145 C 358.666 242.854,356.666 235.578,358.761 234.880 C 359.002 234.799,359.200 234.478,359.200 234.167 C 359.200 233.855,359.470 233.600,359.800 233.600 C 360.130 233.600,361.386 232.622,362.591 231.426 C 364.449 229.583,365.074 229.212,366.692 228.994 C 367.741 228.853,368.780 228.665,369.000 228.577 C 369.781 228.264,379.429 228.743,381.224 229.184 M355.039 244.424 C 355.977 245.004,356.448 245.649,356.626 246.598 C 356.846 247.772,357.131 248.039,358.810 248.642 C 360.720 249.329,361.230 249.978,362.154 252.900 C 362.293 253.341,362.787 253.605,363.487 253.613 C 365.024 253.632,366.290 254.808,366.610 256.514 C 366.849 257.785,367.099 258.027,368.810 258.642 C 370.720 259.329,371.230 259.978,372.154 262.900 C 372.286 263.320,372.773 263.600,373.369 263.600 C 374.669 263.600,376.389 265.346,376.441 266.718 C 376.592 270.774,374.841 275.139,373.030 275.219 C 372.794 275.229,371.846 276.181,370.925 277.333 C 370.004 278.486,368.346 280.142,367.241 281.014 C 366.136 281.886,365.225 282.794,365.216 283.030 C 365.163 284.459,361.138 286.400,358.228 286.400 C 355.946 286.400,353.600 284.608,353.600 282.865 C 353.600 282.397,352.927 281.875,351.604 281.315 C 350.159 280.705,349.494 280.158,349.196 279.336 C 348.369 277.057,347.866 276.400,346.949 276.400 C 345.837 276.400,344.039 274.586,343.742 273.164 C 343.579 272.385,343.038 271.921,341.567 271.300 C 340.156 270.704,339.492 270.154,339.196 269.336 C 338.373 267.067,337.865 266.400,336.961 266.400 C 332.344 266.400,332.886 259.260,337.880 254.291 C 339.156 253.021,340.650 251.530,341.200 250.977 C 343.413 248.752,344.309 248.000,344.744 248.000 C 344.995 248.000,345.200 247.730,345.200 247.400 C 345.200 244.749,352.159 242.644,355.039 244.424 M331.286 268.554 C 332.009 268.859,333.126 269.264,333.768 269.454 C 334.574 269.693,335.229 270.353,335.878 271.580 C 336.536 272.826,337.378 273.667,338.682 274.380 C 339.925 275.060,340.672 275.785,340.925 276.556 C 341.415 278.052,342.410 279.200,343.213 279.200 C 344.107 279.200,345.590 280.678,346.228 282.205 C 346.596 283.087,347.315 283.754,348.493 284.308 C 351.957 285.936,353.655 293.881,351.115 296.573 C 347.295 300.621,345.887 302.000,345.574 302.000 C 345.368 302.000,345.200 302.154,345.200 302.342 C 345.200 302.852,343.304 304.800,342.807 304.800 C 342.569 304.800,342.276 305.059,342.154 305.375 C 341.910 306.012,336.027 311.999,335.642 312.003 C 335.509 312.004,335.092 312.546,334.717 313.206 C 334.341 313.867,333.576 314.581,333.017 314.794 C 332.457 315.006,332.000 315.339,332.000 315.532 C 332.000 315.921,326.028 321.998,325.642 322.003 C 325.509 322.004,325.092 322.546,324.717 323.206 C 324.341 323.867,323.576 324.581,323.017 324.794 C 322.457 325.006,322.000 325.339,322.000 325.532 C 322.000 325.921,316.028 331.998,315.642 332.003 C 315.509 332.004,315.092 332.546,314.717 333.206 C 314.341 333.867,313.576 334.581,313.017 334.794 C 312.457 335.006,312.000 335.339,312.000 335.532 C 312.000 335.972,306.001 342.000,305.564 342.000 C 305.388 342.000,305.007 342.493,304.718 343.096 C 304.429 343.699,303.699 344.429,303.096 344.718 C 302.493 345.007,302.000 345.388,302.000 345.564 C 302.000 345.995,295.975 352.000,295.542 352.000 C 295.354 352.000,295.200 352.154,295.200 352.342 C 295.200 352.850,293.485 354.605,292.691 354.910 C 292.311 355.056,292.000 355.336,292.000 355.533 C 292.000 355.985,285.584 362.400,285.133 362.400 C 284.950 362.400,284.800 362.580,284.800 362.800 C 284.800 364.316,280.682 366.400,277.688 366.400 C 275.164 366.400,274.720 366.143,272.136 363.188 C 271.661 362.645,270.851 361.910,270.336 361.556 C 269.797 361.185,269.075 359.955,268.635 358.656 C 267.998 356.776,267.714 356.400,266.935 356.400 C 265.791 356.400,264.520 355.186,263.760 353.365 C 263.389 352.477,262.918 352.000,262.413 352.000 C 260.984 352.000,259.417 351.043,257.097 348.754 C 252.624 344.342,252.483 340.880,256.600 336.613 C 257.480 335.701,258.500 334.605,258.866 334.177 C 259.233 333.750,260.403 332.542,261.466 331.494 C 262.530 330.446,263.580 329.411,263.800 329.194 C 264.020 328.977,265.100 327.927,266.200 326.860 C 267.300 325.794,268.500 324.579,268.866 324.161 C 269.233 323.742,270.403 322.542,271.466 321.494 C 272.530 320.446,273.580 319.411,273.800 319.194 C 274.020 318.977,275.100 317.927,276.200 316.860 C 277.300 315.794,278.500 314.579,278.866 314.161 C 279.233 313.742,280.403 312.542,281.466 311.494 C 282.530 310.446,283.580 309.411,283.800 309.194 C 284.020 308.977,285.145 307.900,286.300 306.802 C 287.455 305.703,288.400 304.633,288.400 304.425 C 288.400 304.216,288.927 303.734,289.571 303.353 C 290.216 302.973,290.832 302.319,290.942 301.901 C 291.051 301.483,291.483 301.051,291.901 300.942 C 292.319 300.832,292.966 300.227,293.339 299.596 C 293.712 298.965,294.364 298.339,294.788 298.204 C 295.212 298.069,295.674 297.597,295.814 297.155 C 295.955 296.713,296.500 296.155,297.027 295.915 C 297.554 295.675,298.089 295.150,298.217 294.748 C 298.344 294.345,298.965 293.712,299.596 293.339 C 300.227 292.966,300.832 292.319,300.942 291.901 C 301.051 291.483,301.483 291.051,301.901 290.942 C 302.319 290.832,302.966 290.227,303.339 289.596 C 303.712 288.965,304.364 288.339,304.788 288.204 C 305.212 288.069,305.674 287.597,305.814 287.155 C 305.955 286.713,306.500 286.155,307.027 285.915 C 307.554 285.675,308.089 285.150,308.217 284.748 C 308.344 284.345,308.965 283.712,309.596 283.339 C 310.227 282.966,310.832 282.319,310.942 281.901 C 311.051 281.483,311.483 281.051,311.901 280.942 C 312.319 280.832,312.966 280.227,313.339 279.596 C 313.712 278.965,314.364 278.339,314.788 278.204 C 315.212 278.069,315.674 277.597,315.814 277.155 C 315.955 276.713,316.500 276.155,317.027 275.915 C 317.554 275.675,318.089 275.150,318.217 274.748 C 318.344 274.345,318.965 273.712,319.596 273.339 C 320.227 272.966,320.832 272.319,320.942 271.901 C 321.051 271.483,321.502 271.046,321.943 270.931 C 322.384 270.816,322.841 270.470,322.959 270.163 C 323.681 268.281,328.453 267.359,331.286 268.554 M249.837 348.571 C 250.560 349.077,251.501 350.836,252.154 352.900 C 252.306 353.383,252.790 353.600,253.716 353.600 C 256.629 353.600,260.800 355.664,260.800 357.106 C 260.800 357.748,262.354 359.167,263.079 359.187 C 264.482 359.226,266.400 362.078,266.400 364.124 C 266.400 367.394,266.720 367.928,269.231 368.843 C 272.243 369.941,273.403 371.794,272.372 373.857 C 271.565 375.470,270.628 376.400,269.808 376.400 C 267.277 376.400,263.511 377.751,262.073 379.175 C 259.405 381.816,244.313 383.432,240.550 381.480 C 236.454 379.355,237.511 360.027,241.830 358.059 C 242.510 357.749,242.771 357.064,243.173 354.537 C 244.111 348.640,246.668 346.351,249.837 348.571 " stroke="none" fill="#478cc5" fill-rule="evenodd"></path><path id="path1" d="M72.080 32.080 C 71.331 32.829,71.386 367.724,72.136 368.346 C 72.522 368.668,91.548 368.820,140.726 368.895 L 208.782 369.000 209.891 370.107 C 211.071 371.286,211.821 377.829,211.151 381.100 L 210.884 382.400 216.790 382.400 L 222.696 382.400 223.138 380.700 C 223.381 379.765,223.873 377.740,224.231 376.200 C 224.898 373.329,226.182 370.906,227.139 370.710 C 227.900 370.554,228.738 367.912,229.144 364.391 C 229.473 361.539,230.812 358.000,231.563 358.000 C 232.256 358.000,233.300 355.014,233.646 352.043 C 234.288 346.539,235.486 343.544,237.272 342.977 C 237.673 342.850,238.000 342.374,238.000 341.920 C 238.000 340.789,239.475 338.494,240.388 338.204 C 240.800 338.073,241.556 337.401,242.068 336.710 C 243.260 335.103,245.107 333.257,246.727 332.055 C 247.427 331.535,248.000 330.894,248.000 330.630 C 248.000 330.056,250.072 328.000,250.650 328.000 C 251.104 328.000,252.236 326.764,253.320 325.084 C 253.715 324.470,254.660 323.672,255.420 323.310 C 256.179 322.948,256.800 322.505,256.800 322.326 C 256.800 322.147,257.026 322.000,257.302 322.000 C 257.579 322.000,258.046 321.455,258.341 320.788 C 258.857 319.622,261.300 318.000,262.540 318.000 C 262.866 318.000,263.219 317.443,263.362 316.700 C 263.672 315.097,265.110 313.678,266.758 313.348 C 267.441 313.212,268.000 312.860,268.000 312.566 C 268.000 311.135,269.482 309.268,271.270 308.447 C 272.693 307.793,273.199 307.315,273.390 306.444 C 273.696 305.053,275.017 303.754,276.500 303.386 C 277.309 303.185,277.829 302.613,278.467 301.224 C 279.172 299.686,279.688 299.171,281.236 298.461 C 282.692 297.793,283.198 297.320,283.390 296.444 C 283.696 295.053,285.017 293.754,286.500 293.386 C 287.309 293.185,287.829 292.613,288.467 291.224 C 289.172 289.686,289.688 289.171,291.236 288.461 C 292.692 287.793,293.198 287.320,293.390 286.444 C 293.696 285.053,295.017 283.754,296.500 283.386 C 297.309 283.185,297.829 282.613,298.467 281.224 C 299.172 279.686,299.688 279.171,301.236 278.461 C 302.692 277.793,303.198 277.320,303.390 276.444 C 303.696 275.053,305.017 273.754,306.500 273.386 C 307.309 273.185,307.829 272.613,308.467 271.224 C 309.172 269.686,309.688 269.171,311.236 268.461 C 312.692 267.793,313.198 267.320,313.390 266.444 C 313.685 265.102,314.883 263.934,316.700 263.216 C 317.415 262.934,318.000 262.448,318.000 262.136 C 318.000 261.053,319.526 258.595,320.764 257.685 C 321.449 257.181,322.481 256.056,323.058 255.185 C 323.634 254.313,324.304 253.600,324.546 253.600 C 324.789 253.600,325.890 252.651,326.993 251.491 C 329.263 249.106,330.825 248.000,331.922 248.000 C 332.630 248.000,333.600 246.542,333.600 245.477 C 333.600 244.913,334.913 243.978,336.533 243.387 C 337.439 243.056,337.826 242.497,338.471 240.587 C 338.914 239.274,339.414 238.110,339.582 238.000 C 339.750 237.890,340.133 237.080,340.433 236.200 C 340.733 235.320,341.298 234.171,341.689 233.646 C 342.923 231.991,342.650 230.833,341.100 231.151 C 337.829 231.821,331.286 231.071,330.107 229.891 L 329.000 228.782 328.894 175.725 C 328.818 137.637,328.663 122.517,328.345 122.134 C 327.981 121.695,320.280 121.600,284.931 121.600 C 238.010 121.600,240.075 121.701,239.183 119.355 C 238.948 118.736,238.800 101.798,238.800 75.454 C 238.800 42.625,238.687 32.447,238.320 32.080 C 237.621 31.381,72.779 31.381,72.080 32.080 M252.413 74.900 L 252.400 108.000 285.200 108.000 C 317.594 108.000,320.642 107.877,316.166 106.750 C 314.294 106.278,313.920 105.834,313.416 103.483 C 313.173 102.349,313.033 102.249,311.128 101.833 C 309.668 101.514,308.900 100.658,308.396 98.784 C 308.010 97.351,307.801 97.161,306.151 96.746 C 304.295 96.279,303.919 95.830,303.416 93.483 C 303.173 92.349,303.033 92.249,301.128 91.833 C 299.668 91.514,298.900 90.658,298.396 88.784 C 298.010 87.351,297.801 87.161,296.151 86.746 C 294.295 86.279,293.919 85.830,293.416 83.483 C 293.173 82.349,293.033 82.249,291.128 81.833 C 289.668 81.514,288.900 80.658,288.396 78.784 C 288.010 77.351,287.801 77.161,286.151 76.746 C 284.295 76.279,283.919 75.830,283.416 73.483 C 283.173 72.349,283.033 72.249,281.128 71.833 C 279.668 71.514,278.900 70.658,278.396 68.784 C 278.010 67.351,277.801 67.161,276.151 66.746 C 274.295 66.279,273.919 65.830,273.416 63.483 C 273.173 62.349,273.033 62.249,271.128 61.833 C 269.668 61.514,268.900 60.658,268.396 58.784 C 268.010 57.351,267.801 57.161,266.151 56.746 C 264.295 56.279,263.919 55.830,263.416 53.483 C 263.173 52.349,263.033 52.249,261.128 51.833 C 259.670 51.514,258.900 50.658,258.398 48.794 C 258.023 47.401,257.785 47.175,256.288 46.783 C 254.434 46.299,253.600 45.498,253.600 44.200 C 253.600 43.734,253.336 43.004,253.013 42.576 C 252.495 41.892,252.424 45.709,252.413 74.900 M349.550 252.284 L 347.700 252.440 347.502 254.197 C 347.251 256.421,346.416 257.251,344.177 257.504 L 342.400 257.704 342.333 259.652 C 342.297 260.723,342.252 261.915,342.233 262.300 C 342.210 262.794,342.671 263.118,343.800 263.400 C 346.058 263.964,346.345 264.228,346.838 266.186 C 347.241 267.784,347.413 267.959,348.982 268.354 C 351.014 268.866,351.652 269.541,351.971 271.521 C 352.185 272.846,352.375 273.042,353.805 273.400 C 356.063 273.966,356.345 274.228,356.848 276.224 L 357.295 278.000 360.047 278.000 L 362.800 278.000 362.800 276.444 C 362.800 274.250,363.805 273.169,366.084 272.912 L 367.936 272.703 368.068 270.111 C 368.221 267.100,368.186 267.017,366.600 266.632 C 364.895 266.218,363.600 264.874,363.600 263.518 C 363.600 262.780,363.352 262.296,362.900 262.154 C 359.978 261.230,359.329 260.720,358.642 258.810 C 358.045 257.148,357.766 256.845,356.638 256.634 C 355.006 256.327,353.705 254.973,353.532 253.400 C 353.387 252.081,353.056 251.989,349.550 252.284 M336.891 324.188 C 336.219 325.571,335.568 326.206,334.011 326.994 C 332.577 327.721,332.000 328.250,332.000 328.838 C 332.000 329.291,331.474 330.188,330.831 330.831 C 330.188 331.474,329.291 332.000,328.838 332.000 C 328.251 332.000,327.722 332.575,327.002 333.996 C 326.202 335.575,325.575 336.202,323.996 337.002 C 322.575 337.722,322.000 338.251,322.000 338.838 C 322.000 339.291,321.474 340.188,320.831 340.831 C 320.188 341.474,319.291 342.000,318.838 342.000 C 318.251 342.000,317.722 342.575,317.002 343.996 C 316.202 345.575,315.575 346.202,313.996 347.002 C 312.575 347.722,312.000 348.251,312.000 348.838 C 312.000 349.291,311.474 350.188,310.831 350.831 C 310.188 351.474,309.291 352.000,308.838 352.000 C 308.251 352.000,307.722 352.575,307.002 353.996 C 306.202 355.575,305.575 356.202,303.996 357.002 C 302.488 357.766,302.000 358.235,302.000 358.918 C 302.000 360.284,301.320 361.072,292.641 369.764 L 284.617 377.800 284.539 379.758 C 284.494 380.869,284.231 381.862,283.930 382.053 C 283.639 382.239,296.630 382.348,312.800 382.295 L 342.200 382.200 342.303 352.300 L 342.405 322.400 340.082 322.400 L 337.759 322.400 336.891 324.188 M247.439 361.038 C 246.929 369.034,245.703 372.000,242.907 372.000 C 242.628 372.000,242.400 372.360,242.400 372.800 C 242.400 373.314,242.667 373.600,243.146 373.600 C 244.218 373.600,246.325 375.625,246.473 376.800 C 246.740 378.906,249.183 377.726,249.205 375.481 C 249.215 374.412,252.235 373.584,258.000 373.070 L 263.800 372.553 261.557 371.491 C 259.097 370.326,258.000 368.051,258.000 364.117 C 258.000 362.166,257.698 362.000,254.147 362.000 C 250.620 362.000,249.453 361.328,248.489 358.743 L 247.717 356.676 247.439 361.038 " stroke="none" fill="#fcfcfc" fill-rule="evenodd"></path><path id="path2" d="M70.800 30.800 L 69.200 32.400 69.200 200.144 L 69.200 367.888 70.573 369.344 L 71.946 370.800 138.101 370.800 C 196.480 370.800,204.498 370.872,206.327 371.415 L 208.400 372.031 208.441 374.915 C 208.546 382.307,208.619 382.708,209.783 382.262 C 210.292 382.066,210.400 381.175,210.400 377.148 L 210.400 372.271 209.175 371.177 C 207.202 369.416,208.639 369.454,139.023 369.316 C 77.891 369.195,72.184 369.129,71.523 368.530 C 70.326 367.447,70.402 32.798,71.600 31.600 C 72.804 30.396,237.449 30.329,238.538 31.531 C 239.145 32.203,239.200 35.799,239.200 75.076 L 239.200 117.888 240.573 119.344 L 241.946 120.800 284.911 120.800 C 325.782 120.800,327.908 120.835,328.528 121.520 C 329.122 122.176,329.192 126.845,329.316 174.020 C 329.459 228.148,329.428 227.215,331.177 229.175 L 332.271 230.400 337.148 230.400 C 341.175 230.400,342.066 230.292,342.262 229.783 C 342.708 228.619,342.307 228.546,334.915 228.441 L 332.031 228.400 331.415 226.327 C 330.876 224.509,330.800 217.979,330.800 173.101 L 330.800 121.946 329.344 120.573 L 327.888 119.200 285.006 119.200 C 243.971 119.200,242.095 119.168,241.462 118.469 C 240.855 117.797,240.800 114.195,240.800 74.842 L 240.800 31.946 239.344 30.573 L 237.888 29.200 155.144 29.200 L 72.400 29.200 70.800 30.800 M251.698 36.929 C 250.065 38.735,250.000 40.184,250.000 74.746 L 250.000 107.939 251.036 109.169 L 252.071 110.400 285.363 110.400 C 321.050 110.400,321.830 110.359,323.692 108.384 C 324.353 107.684,324.319 107.590,322.950 106.325 C 320.884 104.416,319.514 103.006,318.600 101.849 C 318.160 101.293,317.620 100.826,317.400 100.813 C 317.180 100.800,316.280 99.948,315.400 98.921 C 314.520 97.893,313.280 96.591,312.645 96.026 C 311.081 94.636,309.564 93.069,308.600 91.849 C 308.160 91.293,307.620 90.827,307.400 90.815 C 307.180 90.803,306.280 89.961,305.400 88.942 C 304.520 87.924,303.280 86.621,302.645 86.046 C 301.023 84.577,299.536 83.034,298.600 81.849 C 298.160 81.293,297.620 80.826,297.400 80.813 C 297.180 80.800,296.280 79.948,295.400 78.921 C 294.520 77.893,293.280 76.591,292.645 76.026 C 291.081 74.636,289.564 73.069,288.600 71.849 C 288.160 71.293,287.620 70.827,287.400 70.815 C 287.180 70.803,286.280 69.961,285.400 68.942 C 284.520 67.924,283.280 66.621,282.645 66.046 C 281.023 64.577,279.536 63.034,278.600 61.849 C 278.160 61.293,277.620 60.827,277.400 60.815 C 277.180 60.803,276.280 59.961,275.400 58.942 C 274.520 57.924,273.280 56.621,272.645 56.046 C 271.023 54.577,269.536 53.034,268.600 51.849 C 268.160 51.293,267.620 50.827,267.400 50.815 C 267.180 50.803,266.280 49.961,265.400 48.942 C 264.520 47.924,263.280 46.621,262.645 46.046 C 261.023 44.577,259.536 43.034,258.600 41.849 C 258.160 41.293,257.636 40.829,257.436 40.818 C 257.027 40.798,253.600 37.164,253.600 36.752 C 253.600 36.043,252.397 36.155,251.698 36.929 M253.617 40.149 C 253.626 40.397,254.611 41.320,255.807 42.200 C 257.002 43.080,257.984 44.025,257.990 44.300 C 257.995 44.575,258.168 44.800,258.373 44.800 C 258.578 44.800,258.860 45.160,259.000 45.600 C 259.140 46.040,259.439 46.400,259.665 46.400 C 260.208 46.400,263.595 49.640,263.617 50.179 C 263.626 50.411,264.611 51.320,265.807 52.200 C 267.002 53.080,267.984 54.025,267.990 54.300 C 267.995 54.575,268.168 54.800,268.373 54.800 C 268.578 54.800,268.860 55.160,269.000 55.600 C 269.140 56.040,269.439 56.400,269.665 56.400 C 270.208 56.400,273.595 59.640,273.617 60.179 C 273.626 60.411,274.611 61.320,275.807 62.200 C 277.002 63.080,277.984 64.025,277.990 64.300 C 277.995 64.575,278.168 64.800,278.373 64.800 C 278.578 64.800,278.860 65.160,279.000 65.600 C 279.140 66.040,279.439 66.400,279.665 66.400 C 280.208 66.400,283.595 69.640,283.617 70.179 C 283.626 70.411,284.611 71.320,285.807 72.200 C 287.002 73.080,287.984 74.025,287.990 74.300 C 287.995 74.575,288.168 74.800,288.373 74.800 C 288.578 74.800,288.860 75.160,289.000 75.600 C 289.140 76.040,289.439 76.400,289.665 76.400 C 290.208 76.400,293.595 79.640,293.617 80.179 C 293.626 80.411,294.611 81.320,295.807 82.200 C 297.002 83.080,297.984 84.025,297.990 84.300 C 297.995 84.575,298.168 84.800,298.373 84.800 C 298.578 84.800,298.860 85.160,299.000 85.600 C 299.140 86.040,299.439 86.400,299.665 86.400 C 300.208 86.400,303.595 89.640,303.617 90.179 C 303.626 90.411,304.611 91.320,305.807 92.200 C 307.002 93.080,307.984 94.025,307.990 94.300 C 307.995 94.575,308.168 94.800,308.373 94.800 C 308.578 94.800,308.860 95.160,309.000 95.600 C 309.140 96.040,309.439 96.400,309.665 96.400 C 310.208 96.400,313.595 99.640,313.617 100.179 C 313.626 100.411,314.611 101.320,315.807 102.200 C 317.002 103.080,317.984 104.025,317.990 104.300 C 317.995 104.575,318.168 104.800,318.373 104.800 C 318.578 104.800,318.860 105.160,319.000 105.600 C 319.140 106.040,319.452 106.400,319.693 106.400 C 321.532 106.400,321.360 107.816,319.439 108.493 C 316.107 109.666,252.899 109.575,251.889 108.395 C 251.029 107.391,250.809 43.881,251.656 41.228 C 251.908 40.443,252.180 39.555,252.261 39.255 C 252.436 38.612,253.588 39.371,253.617 40.149 M367.761 231.562 C 366.859 231.971,366.025 232.558,365.907 232.865 C 365.789 233.173,364.997 233.779,364.146 234.212 C 358.610 237.033,358.892 237.667,371.098 249.855 C 382.636 261.375,384.031 261.896,386.248 255.513 C 386.379 255.136,386.788 254.731,387.157 254.614 C 390.099 253.680,390.224 241.378,387.313 239.232 C 387.140 239.105,386.458 238.201,385.799 237.225 C 385.139 236.249,383.745 234.917,382.700 234.266 C 381.655 233.614,380.800 232.943,380.800 232.776 C 380.800 230.948,371.100 230.045,367.761 231.562 M376.175 233.358 C 376.863 233.824,377.958 234.700,378.609 235.303 C 379.259 235.906,380.249 236.400,380.807 236.400 C 382.321 236.400,383.463 237.398,383.713 238.942 C 383.916 240.191,386.750 244.874,387.633 245.420 C 388.228 245.788,388.086 249.200,387.475 249.200 C 386.986 249.200,385.200 251.258,385.200 251.822 C 385.200 251.962,384.864 252.554,384.454 253.138 C 384.043 253.722,383.582 255.055,383.429 256.100 C 383.146 258.035,382.000 258.885,382.000 257.160 C 382.000 256.097,379.538 253.600,378.489 253.600 C 377.547 253.600,376.749 252.720,376.201 251.078 C 375.795 249.863,375.556 249.661,373.404 248.717 C 372.652 248.388,371.909 247.568,371.404 246.510 C 370.570 244.763,369.412 243.635,368.431 243.613 C 367.535 243.593,366.400 242.360,366.400 241.408 C 366.400 240.381,365.042 239.043,363.500 238.551 C 361.712 237.981,362.085 237.443,364.771 236.718 C 366.160 236.343,367.604 235.758,367.980 235.418 C 368.356 235.078,368.858 234.800,369.096 234.800 C 369.334 234.800,369.961 234.286,370.490 233.658 C 372.003 231.860,373.827 231.764,376.175 233.358 M341.265 236.400 C 340.971 237.390,340.474 238.602,340.161 239.093 C 339.847 239.585,339.450 240.663,339.278 241.489 C 339.050 242.589,338.596 243.225,337.583 243.863 C 335.839 244.963,334.000 246.830,334.000 247.501 C 334.000 247.782,333.327 248.325,332.505 248.706 C 330.586 249.597,329.351 250.662,328.342 252.295 C 327.898 253.013,327.285 253.600,326.981 253.600 C 326.268 253.600,323.600 256.258,323.600 256.967 C 323.600 257.265,323.164 257.794,322.630 258.144 C 321.149 259.114,319.204 261.323,319.202 262.038 C 319.200 262.799,318.275 263.663,316.500 264.562 C 315.785 264.924,315.200 265.486,315.200 265.810 C 315.200 266.135,315.065 266.401,314.900 266.403 C 314.735 266.404,314.292 266.946,313.917 267.606 C 313.541 268.267,312.821 268.967,312.317 269.161 C 311.271 269.565,309.699 271.149,309.044 272.459 C 308.800 272.948,307.824 273.810,306.875 274.374 C 305.881 274.965,304.775 276.075,304.266 276.992 C 303.781 277.868,302.975 278.788,302.477 279.037 C 301.195 279.676,299.641 281.205,299.077 282.383 C 298.812 282.935,297.832 283.808,296.898 284.323 C 295.964 284.838,295.200 285.516,295.200 285.830 C 295.200 286.143,295.065 286.401,294.900 286.403 C 294.735 286.404,294.292 286.947,293.915 287.609 C 293.538 288.272,292.908 288.927,292.515 289.066 C 291.483 289.429,289.575 291.258,289.187 292.256 C 289.003 292.726,288.081 293.630,287.136 294.265 C 286.191 294.899,284.898 296.193,284.262 297.140 C 283.626 298.087,282.812 298.967,282.453 299.097 C 281.514 299.436,279.209 301.709,279.204 302.301 C 279.202 302.576,278.308 303.442,277.217 304.226 C 276.126 305.010,274.846 306.278,274.372 307.046 C 273.898 307.813,273.035 308.739,272.455 309.104 C 271.096 309.959,269.948 311.115,269.062 312.519 C 268.674 313.135,267.781 313.981,267.078 314.400 C 266.375 314.820,265.246 315.936,264.569 316.881 C 263.891 317.827,262.985 318.780,262.554 319.000 C 261.228 319.677,259.322 321.356,258.860 322.254 C 258.619 322.724,257.672 323.499,256.757 323.975 C 254.948 324.918,253.642 326.253,253.601 327.200 C 253.586 327.530,252.766 328.291,251.778 328.891 C 250.739 329.521,249.521 330.739,248.891 331.778 C 248.291 332.766,247.515 333.580,247.167 333.587 C 246.299 333.605,243.600 336.369,243.600 337.240 C 243.600 337.628,243.254 338.056,242.832 338.190 C 241.523 338.605,239.395 340.914,238.585 342.800 C 238.159 343.790,237.493 344.949,237.106 345.374 C 236.230 346.338,234.800 350.090,234.800 351.426 C 234.800 353.380,233.111 358.892,232.010 360.532 C 231.347 361.519,230.479 363.833,229.883 366.200 C 228.791 370.543,228.076 372.435,227.353 372.895 C 226.744 373.282,224.800 377.013,224.800 377.795 C 224.800 378.130,224.373 379.288,223.852 380.370 C 223.287 381.541,223.106 382.257,223.405 382.143 C 224.136 381.862,226.400 378.943,226.400 378.281 C 226.400 377.970,227.030 376.890,227.800 375.882 C 228.570 374.873,229.200 373.937,229.200 373.802 C 229.200 373.667,229.538 372.801,229.951 371.878 C 230.364 370.955,230.824 369.349,230.974 368.309 C 231.124 367.269,231.416 366.314,231.623 366.186 C 231.830 366.058,232.000 365.631,232.000 365.238 C 232.000 364.844,232.329 364.143,232.731 363.680 C 233.900 362.332,234.658 360.139,235.780 354.869 C 236.400 351.952,237.206 349.339,237.752 348.469 C 238.698 346.963,239.507 345.300,240.531 342.756 C 240.881 341.888,241.847 340.785,242.956 339.989 C 243.970 339.260,244.800 338.448,244.800 338.183 C 244.800 337.918,245.655 336.948,246.700 336.028 C 247.745 335.107,248.720 334.229,248.867 334.077 C 249.295 333.633,253.772 329.160,254.082 328.867 C 254.237 328.720,255.016 327.843,255.813 326.917 C 256.610 325.991,257.636 325.115,258.094 324.970 C 258.898 324.715,259.728 323.929,261.400 321.838 C 261.840 321.287,262.454 320.829,262.765 320.818 C 263.411 320.797,265.896 318.139,266.223 317.120 C 266.343 316.747,266.747 316.343,267.120 316.223 C 268.070 315.919,270.800 313.427,270.800 312.865 C 270.800 312.263,272.263 310.800,272.865 310.800 C 273.427 310.800,275.919 308.070,276.223 307.120 C 276.343 306.747,276.747 306.343,277.120 306.223 C 278.070 305.919,280.800 303.427,280.800 302.865 C 280.800 302.263,282.263 300.800,282.865 300.800 C 283.427 300.800,285.919 298.070,286.223 297.120 C 286.343 296.747,286.747 296.343,287.120 296.223 C 288.070 295.919,290.800 293.427,290.800 292.865 C 290.800 292.259,292.264 290.800,292.872 290.800 C 293.471 290.800,295.890 288.178,296.204 287.189 C 296.334 286.777,296.747 286.343,297.120 286.223 C 298.070 285.919,300.800 283.427,300.800 282.865 C 300.800 282.285,302.253 280.800,302.820 280.800 C 303.358 280.800,305.932 278.015,306.221 277.120 C 306.342 276.747,306.747 276.342,307.120 276.221 C 308.015 275.932,310.800 273.358,310.800 272.820 C 310.800 272.272,312.277 270.800,312.827 270.800 C 313.405 270.800,315.913 268.103,316.213 267.159 C 316.346 266.741,316.603 266.400,316.786 266.400 C 317.318 266.400,320.800 263.150,320.800 262.653 C 320.800 262.405,321.676 261.302,322.746 260.201 C 329.720 253.031,332.382 250.506,333.702 249.809 C 334.526 249.374,335.200 248.830,335.200 248.601 C 335.200 248.371,335.605 247.803,336.100 247.338 C 340.440 243.260,340.800 242.846,340.800 241.924 C 340.800 241.384,341.082 240.114,341.428 239.101 C 341.773 238.088,341.998 236.661,341.928 235.930 L 341.800 234.600 341.265 236.400 M351.618 246.292 C 351.298 246.418,350.705 246.830,350.300 247.208 C 349.895 247.585,348.914 248.233,348.121 248.647 C 346.504 249.491,343.625 252.333,343.610 253.100 C 343.605 253.375,343.374 253.600,343.098 253.600 C 342.191 253.600,339.416 256.578,338.618 258.407 C 338.188 259.393,337.513 260.629,337.118 261.154 C 336.172 262.411,336.212 262.983,337.300 263.705 C 338.538 264.526,340.800 266.737,340.800 267.125 C 340.800 267.301,341.643 268.154,342.673 269.022 C 343.704 269.890,344.919 271.033,345.373 271.562 C 346.763 273.179,348.362 274.800,348.568 274.800 C 348.885 274.800,350.800 276.808,350.800 277.140 C 350.800 277.307,351.623 278.145,352.629 279.003 C 355.554 281.497,356.228 282.174,356.510 282.909 C 357.073 284.376,363.071 281.846,365.183 279.252 C 366.383 277.779,366.626 277.528,369.802 274.490 C 370.785 273.549,371.702 272.334,371.838 271.790 C 371.975 271.245,372.244 270.800,372.435 270.800 C 372.627 270.800,373.149 270.084,373.595 269.209 L 374.407 267.618 371.825 264.909 C 370.404 263.419,368.870 261.840,368.414 261.400 C 367.958 260.960,366.914 259.903,366.093 259.051 C 365.272 258.199,363.985 256.939,363.234 256.251 C 362.482 255.563,361.312 254.395,360.634 253.656 C 359.955 252.917,358.996 251.927,358.502 251.456 C 358.009 250.985,356.534 249.565,355.224 248.300 C 352.814 245.971,352.657 245.883,351.618 246.292 M353.600 249.917 C 353.600 250.388,356.471 252.400,357.142 252.400 C 357.417 252.400,357.816 252.900,358.029 253.511 C 358.242 254.122,359.068 255.157,359.865 255.811 C 361.544 257.189,362.988 258.648,364.400 260.395 C 364.950 261.075,365.961 261.875,366.646 262.173 C 367.420 262.509,367.991 263.109,368.153 263.757 C 368.297 264.331,368.592 264.800,368.808 264.800 C 369.023 264.800,369.200 265.047,369.200 265.348 C 369.200 265.650,369.801 266.309,370.536 266.812 C 371.796 267.675,371.833 267.767,371.190 268.410 C 370.814 268.786,370.181 269.972,369.782 271.046 C 368.981 273.204,368.126 274.220,366.629 274.789 C 366.084 274.996,365.336 275.750,364.967 276.463 C 363.955 278.421,363.367 278.854,360.342 279.873 L 357.565 280.808 348.426 271.694 L 339.286 262.580 340.026 261.190 C 340.433 260.426,340.774 259.321,340.783 258.736 C 340.800 257.646,342.457 255.921,344.289 255.087 C 344.790 254.858,345.200 254.471,345.200 254.227 C 345.200 253.240,347.618 250.885,348.891 250.632 C 349.611 250.489,350.723 249.943,351.363 249.420 C 352.508 248.484,353.600 248.727,353.600 249.917 M324.983 272.600 C 323.839 273.810,322.745 274.801,322.551 274.802 C 322.358 274.803,321.570 275.558,320.800 276.480 C 319.251 278.334,318.767 278.832,316.767 280.628 C 316.015 281.303,314.874 282.518,314.230 283.328 C 313.587 284.138,312.867 284.801,312.630 284.802 C 312.394 284.803,311.570 285.558,310.800 286.480 C 309.055 288.569,308.569 289.055,306.480 290.800 C 305.558 291.570,304.800 292.380,304.795 292.600 C 304.785 293.044,303.044 294.800,302.614 294.800 C 302.464 294.800,301.680 295.552,300.871 296.471 C 299.137 298.441,298.540 299.048,296.971 300.436 C 296.327 301.006,295.183 302.221,294.429 303.136 C 293.675 304.051,292.865 304.808,292.629 304.817 C 292.393 304.826,291.750 305.401,291.200 306.094 C 289.892 307.743,285.499 312.000,285.106 312.000 C 284.938 312.000,284.797 312.225,284.793 312.500 C 284.785 313.110,283.058 314.800,282.444 314.800 C 282.200 314.800,282.000 314.958,282.000 315.152 C 282.000 315.345,280.538 316.965,278.752 318.752 C 276.965 320.538,275.345 322.000,275.152 322.000 C 274.958 322.000,274.797 322.225,274.793 322.500 C 274.785 323.110,273.058 324.800,272.444 324.800 C 272.200 324.800,272.000 324.958,272.000 325.152 C 272.000 325.345,270.538 326.965,268.752 328.752 C 266.965 330.538,265.345 332.000,265.152 332.000 C 264.958 332.000,264.797 332.225,264.793 332.500 C 264.786 333.015,263.098 334.800,262.618 334.800 C 262.307 334.800,260.717 336.642,259.098 338.877 C 258.484 339.725,257.626 340.774,257.191 341.209 C 256.073 342.327,256.203 343.145,257.722 344.565 C 258.450 345.244,259.525 346.457,260.112 347.259 C 260.698 348.062,262.030 349.130,263.071 349.634 C 265.261 350.695,270.800 356.046,270.800 357.103 C 270.800 357.496,271.544 358.444,272.454 359.209 C 273.364 359.974,274.759 361.275,275.554 362.099 C 277.344 363.955,278.014 363.970,280.174 362.200 C 281.114 361.430,282.087 360.800,282.336 360.800 C 282.586 360.800,283.467 360.045,284.295 359.122 C 285.123 358.199,286.401 356.894,287.136 356.222 C 287.871 355.550,288.951 354.488,289.536 353.863 C 290.899 352.407,292.376 350.928,294.062 349.334 C 294.798 348.638,295.862 347.558,296.427 346.934 C 296.992 346.310,298.162 345.116,299.027 344.280 C 301.051 342.323,302.394 340.980,304.280 339.022 C 305.116 338.154,306.401 336.894,307.136 336.222 C 307.871 335.550,308.951 334.488,309.536 333.863 C 311.781 331.464,312.678 330.559,314.016 329.340 C 314.777 328.648,316.030 327.351,316.800 326.459 C 317.570 325.567,318.380 324.824,318.600 324.809 C 318.820 324.794,319.540 324.051,320.200 323.158 C 320.860 322.266,322.255 320.883,323.300 320.085 C 324.345 319.288,325.200 318.507,325.200 318.350 C 325.200 317.949,328.266 314.802,328.669 314.791 C 328.851 314.785,329.540 314.051,330.200 313.158 C 330.860 312.266,332.254 310.883,333.299 310.086 C 334.343 309.289,335.292 308.339,335.408 307.975 C 335.632 307.268,338.169 304.806,338.689 304.791 C 338.860 304.785,339.540 304.051,340.200 303.158 C 340.860 302.266,342.255 300.883,343.300 300.085 C 344.345 299.288,345.200 298.475,345.200 298.278 C 345.200 298.082,346.280 296.848,347.600 295.536 C 350.336 292.817,350.255 293.062,349.211 290.625 C 348.408 288.752,332.250 272.000,331.247 272.000 C 331.001 272.000,330.800 271.848,330.800 271.663 C 330.800 271.362,328.199 270.400,327.385 270.400 C 327.208 270.400,326.127 271.390,324.983 272.600 M329.029 273.807 C 329.408 274.714,330.132 275.386,331.384 275.992 C 332.717 276.637,333.479 277.378,334.285 278.813 C 335.002 280.088,335.727 280.844,336.389 281.009 C 337.670 281.326,339.200 282.737,339.200 283.600 C 339.200 284.433,340.658 285.817,342.119 286.371 C 342.784 286.623,343.462 287.324,343.788 288.097 C 344.473 289.721,345.781 291.137,347.038 291.615 C 348.687 292.241,348.040 293.600,346.093 293.600 C 345.217 293.600,343.600 295.181,343.600 296.037 C 343.600 297.018,343.180 298.000,342.760 298.000 C 340.774 298.000,338.000 300.774,338.000 302.760 C 338.000 303.170,337.024 303.600,336.093 303.600 C 335.217 303.600,333.600 305.181,333.600 306.037 C 333.600 307.018,333.180 308.000,332.760 308.000 C 330.774 308.000,328.000 310.774,328.000 312.760 C 328.000 313.170,327.024 313.600,326.093 313.600 C 325.217 313.600,323.600 315.181,323.600 316.037 C 323.600 317.018,323.180 318.000,322.760 318.000 C 320.774 318.000,318.000 320.774,318.000 322.760 C 318.000 323.170,317.024 323.600,316.093 323.600 C 315.217 323.600,313.600 325.181,313.600 326.037 C 313.600 327.018,313.180 328.000,312.760 328.000 C 310.774 328.000,308.000 330.774,308.000 332.760 C 308.000 333.170,307.024 333.600,306.093 333.600 C 305.217 333.600,303.600 335.181,303.600 336.037 C 303.600 337.018,303.180 338.000,302.760 338.000 C 300.774 338.000,298.000 340.774,298.000 342.760 C 298.000 343.180,297.018 343.600,296.037 343.600 C 295.031 343.600,293.686 345.205,293.532 346.588 C 293.419 347.606,293.108 347.889,291.370 348.558 C 289.531 349.267,289.267 349.531,288.558 351.370 C 287.889 353.108,287.606 353.419,286.588 353.532 C 284.979 353.711,283.600 355.071,283.600 356.478 C 283.600 357.712,283.394 357.841,279.705 358.914 C 277.734 359.487,277.553 359.478,276.642 358.762 C 276.110 358.343,275.553 358.000,275.406 358.000 C 274.926 358.000,272.000 354.750,272.000 354.216 C 272.000 353.931,271.730 353.474,271.400 353.200 C 271.070 352.926,270.800 352.407,270.800 352.047 C 270.800 350.846,266.424 348.000,264.577 348.000 C 263.537 348.000,262.663 347.046,262.060 345.250 C 261.811 344.507,261.218 343.562,260.742 343.150 C 260.267 342.737,260.052 342.400,260.265 342.400 C 260.805 342.400,262.000 339.777,262.000 338.592 C 262.000 337.832,262.338 337.475,263.500 337.010 C 265.862 336.063,266.066 335.877,266.800 333.999 C 267.368 332.548,267.739 332.164,268.847 331.879 C 270.669 331.411,271.534 330.559,271.839 328.931 C 272.044 327.842,272.384 327.455,273.547 326.990 C 275.856 326.066,276.069 325.871,276.800 323.999 C 277.368 322.548,277.739 322.164,278.847 321.879 C 280.669 321.411,281.534 320.559,281.839 318.931 C 282.044 317.842,282.384 317.455,283.547 316.990 C 285.856 316.066,286.069 315.871,286.800 313.999 C 287.368 312.548,287.739 312.164,288.847 311.879 C 290.669 311.411,291.534 310.559,291.839 308.931 C 292.044 307.842,292.384 307.455,293.547 306.990 C 295.856 306.066,296.069 305.871,296.800 303.999 C 297.368 302.548,297.739 302.164,298.847 301.879 C 300.669 301.411,301.534 300.559,301.839 298.931 C 302.044 297.842,302.384 297.455,303.547 296.990 C 305.852 296.068,306.069 295.870,306.785 294.038 C 307.336 292.629,307.748 292.206,308.982 291.782 C 310.876 291.131,311.133 290.872,311.789 288.950 C 312.225 287.672,312.621 287.286,314.046 286.751 C 315.862 286.070,316.037 285.877,316.945 283.559 C 317.362 282.495,317.809 282.057,318.655 281.884 C 320.345 281.538,321.164 280.779,321.774 278.995 C 322.227 277.668,322.608 277.291,324.046 276.751 C 325.873 276.065,326.031 275.889,326.982 273.471 C 327.663 271.739,328.202 271.827,329.029 273.807 M336.114 320.784 C 335.501 321.435,334.487 322.605,333.861 323.384 C 333.234 324.163,332.489 324.800,332.206 324.800 C 331.922 324.800,331.265 325.373,330.745 326.073 C 329.873 327.248,329.297 327.848,326.130 330.882 C 325.508 331.478,324.487 332.603,323.861 333.382 C 323.234 334.162,322.489 334.800,322.206 334.800 C 321.922 334.800,321.265 335.373,320.745 336.073 C 319.873 337.248,319.297 337.848,316.130 340.882 C 315.508 341.478,314.487 342.603,313.861 343.382 C 313.234 344.162,312.489 344.800,312.206 344.800 C 311.922 344.800,311.265 345.373,310.745 346.073 C 310.225 346.773,309.248 347.898,308.573 348.573 C 307.898 349.248,306.773 350.225,306.073 350.745 C 305.373 351.265,304.800 351.906,304.800 352.170 C 304.800 352.772,302.716 354.800,302.097 354.800 C 301.648 354.800,299.218 358.026,299.182 358.672 C 299.171 358.852,298.705 359.360,298.145 359.800 C 296.643 360.980,295.202 362.535,295.183 362.996 C 295.174 363.218,294.189 364.120,292.993 365.000 C 291.798 365.880,290.816 366.788,290.810 367.017 C 290.796 367.600,287.475 370.800,286.885 370.800 C 286.618 370.800,286.400 370.939,286.400 371.109 C 286.400 371.490,283.469 374.602,281.674 376.126 C 279.917 377.619,280.221 382.353,282.077 382.394 C 282.230 382.397,282.320 381.312,282.277 379.982 C 282.204 377.703,282.267 377.524,283.357 376.882 C 284.897 375.975,286.071 374.795,286.792 373.431 C 287.117 372.815,287.762 372.166,288.226 371.990 C 289.313 371.577,291.577 369.313,291.990 368.226 C 292.166 367.762,292.826 367.119,293.455 366.797 C 294.855 366.081,296.010 364.919,296.784 363.448 C 297.105 362.837,297.735 362.144,298.184 361.906 C 299.325 361.302,300.268 360.151,301.277 358.132 C 301.753 357.179,302.380 356.400,302.671 356.400 C 303.306 356.400,306.400 353.383,306.400 352.764 C 306.400 352.246,308.016 350.832,308.630 350.813 C 309.145 350.797,310.794 349.106,310.813 348.574 C 310.834 348.003,312.271 346.400,312.764 346.400 C 313.004 346.400,313.920 345.680,314.800 344.800 C 315.680 343.920,316.400 343.004,316.400 342.764 C 316.400 342.246,318.016 340.832,318.630 340.813 C 319.145 340.797,320.794 339.106,320.813 338.574 C 320.834 338.003,322.271 336.400,322.764 336.400 C 323.004 336.400,323.920 335.680,324.800 334.800 C 325.680 333.920,326.400 333.004,326.400 332.764 C 326.400 332.246,328.016 330.832,328.630 330.813 C 329.145 330.797,330.794 329.106,330.813 328.574 C 330.834 328.003,332.271 326.400,332.764 326.400 C 333.370 326.400,336.400 323.313,336.400 322.696 C 336.400 322.419,336.743 321.978,337.163 321.716 C 337.878 321.269,338.599 321.291,341.300 321.840 C 342.634 322.111,342.725 321.534,341.525 320.416 C 340.131 319.118,337.514 319.296,336.114 320.784 M247.100 350.703 C 246.715 350.789,246.400 351.115,246.400 351.429 C 246.400 351.743,246.248 352.000,246.063 352.000 C 245.670 352.000,244.800 354.709,244.800 355.932 C 244.800 357.187,243.735 360.251,242.205 363.400 C 239.253 369.474,238.888 376.328,241.374 379.010 C 243.698 381.517,252.629 380.906,257.780 377.887 C 259.481 376.890,263.225 375.653,266.800 374.907 C 267.350 374.792,268.404 374.247,269.141 373.697 L 270.483 372.696 269.379 371.748 C 268.772 371.227,268.149 370.800,267.994 370.800 C 267.410 370.800,264.800 368.027,264.800 367.407 C 264.800 364.358,259.409 358.842,254.016 356.373 C 252.173 355.529,250.338 353.779,249.380 351.948 C 248.777 350.796,248.171 350.465,247.100 350.703 M251.521 357.287 C 253.687 358.971,256.985 360.800,257.857 360.800 C 258.469 360.800,259.784 362.417,260.570 364.136 C 260.956 364.980,261.570 365.975,261.936 366.345 C 262.301 366.716,263.050 367.904,263.600 368.986 C 264.350 370.460,265.033 371.169,266.330 371.816 L 268.059 372.678 266.930 373.095 C 265.309 373.694,260.254 374.800,259.140 374.800 C 258.147 374.800,254.486 376.548,253.800 377.350 C 252.714 378.619,247.761 379.326,244.889 378.622 L 242.155 377.952 241.710 375.276 C 241.130 371.785,241.821 368.253,243.503 366.107 C 244.746 364.522,244.878 364.125,245.867 359.000 C 246.207 357.240,246.754 355.026,247.083 354.080 L 247.681 352.361 248.461 353.938 C 248.898 354.821,250.243 356.294,251.521 357.287 " stroke="none" fill="#aaccec" fill-rule="evenodd"></path><path id="path3" d="M71.500 31.633 C 70.390 32.849,70.413 367.526,71.523 368.530 C 72.184 369.129,77.891 369.195,139.023 369.316 C 208.755 369.454,207.198 369.413,209.198 371.198 L 210.447 372.313 210.323 377.357 C 210.246 380.509,210.346 382.353,210.590 382.271 C 212.015 381.793,211.432 371.646,209.891 370.107 L 208.782 369.000 140.726 368.895 C 91.548 368.820,72.522 368.668,72.136 368.346 C 71.386 367.724,71.331 32.829,72.080 32.080 C 72.779 31.381,237.621 31.381,238.320 32.080 C 238.687 32.447,238.800 42.625,238.800 75.454 C 238.800 101.798,238.948 118.736,239.183 119.355 C 240.075 121.701,238.010 121.600,284.931 121.600 C 320.280 121.600,327.981 121.695,328.345 122.134 C 328.663 122.517,328.818 137.637,328.894 175.725 L 329.000 228.782 330.107 229.891 C 331.646 231.432,341.793 232.015,342.271 230.590 C 342.353 230.346,340.509 230.246,337.357 230.323 L 332.313 230.447 331.198 229.198 C 329.425 227.211,329.460 228.239,329.316 174.020 C 329.192 126.845,329.122 122.176,328.528 121.520 C 327.908 120.835,325.782 120.800,284.911 120.800 L 241.946 120.800 240.573 119.344 L 239.200 117.888 239.200 75.006 C 239.200 33.971,239.168 32.095,238.469 31.462 C 237.240 30.350,72.517 30.519,71.500 31.633 M252.261 39.255 C 252.180 39.555,251.908 40.443,251.656 41.228 C 250.809 43.881,251.029 107.391,251.889 108.395 C 252.899 109.575,316.107 109.666,319.439 108.493 C 321.360 107.816,321.532 106.400,319.693 106.400 C 319.452 106.400,319.140 106.040,319.000 105.600 C 318.860 105.160,318.578 104.800,318.373 104.800 C 318.168 104.800,317.995 104.575,317.990 104.300 C 317.984 104.025,317.002 103.080,315.807 102.200 C 314.611 101.320,313.626 100.411,313.617 100.179 C 313.595 99.640,310.208 96.400,309.665 96.400 C 309.439 96.400,309.140 96.040,309.000 95.600 C 308.860 95.160,308.578 94.800,308.373 94.800 C 308.168 94.800,307.995 94.575,307.990 94.300 C 307.984 94.025,307.002 93.080,305.807 92.200 C 304.611 91.320,303.626 90.411,303.617 90.179 C 303.595 89.640,300.208 86.400,299.665 86.400 C 299.439 86.400,299.140 86.040,299.000 85.600 C 298.860 85.160,298.578 84.800,298.373 84.800 C 298.168 84.800,297.995 84.575,297.990 84.300 C 297.984 84.025,297.002 83.080,295.807 82.200 C 294.611 81.320,293.626 80.411,293.617 80.179 C 293.595 79.640,290.208 76.400,289.665 76.400 C 289.439 76.400,289.140 76.040,289.000 75.600 C 288.860 75.160,288.578 74.800,288.373 74.800 C 288.168 74.800,287.995 74.575,287.990 74.300 C 287.984 74.025,287.002 73.080,285.807 72.200 C 284.611 71.320,283.626 70.411,283.617 70.179 C 283.595 69.640,280.208 66.400,279.665 66.400 C 279.439 66.400,279.140 66.040,279.000 65.600 C 278.860 65.160,278.578 64.800,278.373 64.800 C 278.168 64.800,277.995 64.575,277.990 64.300 C 277.984 64.025,277.002 63.080,275.807 62.200 C 274.611 61.320,273.626 60.411,273.617 60.179 C 273.595 59.640,270.208 56.400,269.665 56.400 C 269.439 56.400,269.140 56.040,269.000 55.600 C 268.860 55.160,268.578 54.800,268.373 54.800 C 268.168 54.800,267.995 54.575,267.990 54.300 C 267.984 54.025,267.002 53.080,265.807 52.200 C 264.611 51.320,263.626 50.411,263.617 50.179 C 263.595 49.640,260.208 46.400,259.665 46.400 C 259.439 46.400,259.140 46.040,259.000 45.600 C 258.860 45.160,258.578 44.800,258.373 44.800 C 258.168 44.800,257.995 44.575,257.990 44.300 C 257.984 44.025,257.002 43.080,255.807 42.200 C 254.611 41.320,253.626 40.397,253.617 40.149 C 253.588 39.371,252.436 38.612,252.261 39.255 M253.600 44.200 C 253.600 45.498,254.434 46.299,256.288 46.783 C 257.785 47.175,258.023 47.401,258.398 48.794 C 258.900 50.658,259.670 51.514,261.128 51.833 C 263.033 52.249,263.173 52.349,263.416 53.483 C 263.919 55.830,264.295 56.279,266.151 56.746 C 267.801 57.161,268.010 57.351,268.396 58.784 C 268.900 60.658,269.668 61.514,271.128 61.833 C 273.033 62.249,273.173 62.349,273.416 63.483 C 273.919 65.830,274.295 66.279,276.151 66.746 C 277.801 67.161,278.010 67.351,278.396 68.784 C 278.900 70.658,279.668 71.514,281.128 71.833 C 283.033 72.249,283.173 72.349,283.416 73.483 C 283.919 75.830,284.295 76.279,286.151 76.746 C 287.801 77.161,288.010 77.351,288.396 78.784 C 288.900 80.658,289.668 81.514,291.128 81.833 C 293.033 82.249,293.173 82.349,293.416 83.483 C 293.919 85.830,294.295 86.279,296.151 86.746 C 297.801 87.161,298.010 87.351,298.396 88.784 C 298.900 90.658,299.668 91.514,301.128 91.833 C 303.033 92.249,303.173 92.349,303.416 93.483 C 303.919 95.830,304.295 96.279,306.151 96.746 C 307.801 97.161,308.010 97.351,308.396 98.784 C 308.900 100.658,309.668 101.514,311.128 101.833 C 313.033 102.249,313.173 102.349,313.416 103.483 C 313.920 105.834,314.294 106.278,316.166 106.750 C 320.642 107.877,317.594 108.000,285.200 108.000 L 252.400 108.000 252.413 74.900 C 252.424 45.709,252.495 41.892,253.013 42.576 C 253.336 43.004,253.600 43.734,253.600 44.200 M371.989 232.337 C 371.693 232.436,371.018 233.030,370.490 233.658 C 369.961 234.286,369.334 234.800,369.096 234.800 C 368.858 234.800,368.356 235.078,367.980 235.418 C 367.604 235.758,366.160 236.343,364.771 236.718 C 362.085 237.443,361.712 237.981,363.500 238.551 C 365.042 239.043,366.400 240.381,366.400 241.408 C 366.400 242.360,367.535 243.593,368.431 243.613 C 369.412 243.635,370.570 244.763,371.404 246.510 C 371.909 247.568,372.652 248.388,373.404 248.717 C 375.556 249.661,375.795 249.863,376.201 251.078 C 376.749 252.720,377.547 253.600,378.489 253.600 C 379.538 253.600,382.000 256.097,382.000 257.160 C 382.000 258.885,383.146 258.035,383.429 256.100 C 383.582 255.055,384.043 253.722,384.454 253.138 C 384.864 252.554,385.200 251.962,385.200 251.822 C 385.200 251.258,386.986 249.200,387.475 249.200 C 388.086 249.200,388.228 245.788,387.633 245.420 C 386.750 244.874,383.916 240.191,383.713 238.942 C 383.463 237.398,382.321 236.400,380.807 236.400 C 380.249 236.400,379.259 235.906,378.609 235.303 C 376.024 232.906,373.574 231.809,371.989 232.337 M341.596 233.718 C 341.280 234.203,340.771 235.320,340.464 236.200 C 340.158 237.080,339.766 237.890,339.592 238.000 C 339.419 238.110,338.914 239.274,338.471 240.587 C 337.826 242.497,337.439 243.056,336.533 243.387 C 334.913 243.978,333.600 244.913,333.600 245.477 C 333.600 246.542,332.630 248.000,331.922 248.000 C 330.825 248.000,329.263 249.106,326.993 251.491 C 325.890 252.651,324.789 253.600,324.546 253.600 C 324.304 253.600,323.634 254.313,323.058 255.185 C 322.481 256.056,321.449 257.181,320.764 257.685 C 319.526 258.595,318.000 261.053,318.000 262.136 C 318.000 262.448,317.415 262.934,316.700 263.216 C 314.883 263.934,313.685 265.102,313.390 266.444 C 313.198 267.320,312.692 267.793,311.236 268.461 C 309.685 269.173,309.173 269.685,308.461 271.236 C 307.793 272.692,307.320 273.198,306.444 273.390 C 305.053 273.696,303.754 275.017,303.386 276.500 C 303.185 277.309,302.613 277.829,301.224 278.467 C 299.686 279.172,299.171 279.688,298.461 281.236 C 297.793 282.692,297.320 283.198,296.444 283.390 C 295.053 283.696,293.754 285.017,293.386 286.500 C 293.185 287.309,292.613 287.829,291.224 288.467 C 289.686 289.172,289.171 289.688,288.461 291.236 C 287.793 292.692,287.320 293.198,286.444 293.390 C 285.053 293.696,283.754 295.017,283.386 296.500 C 283.185 297.309,282.613 297.829,281.224 298.467 C 279.689 299.171,279.171 299.689,278.467 301.224 C 277.829 302.613,277.309 303.185,276.500 303.386 C 275.017 303.754,273.696 305.053,273.390 306.444 C 273.199 307.315,272.693 307.793,271.270 308.447 C 269.482 309.268,268.000 311.135,268.000 312.566 C 268.000 312.860,267.441 313.212,266.758 313.348 C 265.110 313.678,263.672 315.097,263.362 316.700 C 263.219 317.443,262.866 318.000,262.540 318.000 C 261.300 318.000,258.857 319.622,258.341 320.788 C 258.046 321.455,257.579 322.000,257.302 322.000 C 257.026 322.000,256.800 322.147,256.800 322.326 C 256.800 322.505,256.179 322.948,255.420 323.310 C 254.660 323.672,253.715 324.470,253.320 325.084 C 252.202 326.817,251.100 328.000,250.603 328.000 C 250.035 328.000,248.000 330.093,248.000 330.677 C 248.000 330.915,247.427 331.535,246.727 332.055 C 245.107 333.257,243.260 335.103,242.068 336.710 C 241.556 337.401,240.800 338.073,240.388 338.204 C 239.475 338.494,238.000 340.789,238.000 341.920 C 238.000 342.374,237.673 342.850,237.272 342.977 C 235.486 343.544,234.288 346.539,233.646 352.043 C 233.300 355.014,232.256 358.000,231.563 358.000 C 230.812 358.000,229.473 361.539,229.144 364.391 C 228.738 367.912,227.900 370.554,227.139 370.710 C 226.149 370.913,224.880 373.369,224.198 376.400 C 223.827 378.050,223.360 379.924,223.160 380.565 C 222.960 381.206,222.872 381.805,222.965 381.898 C 223.186 382.119,224.800 378.463,224.800 377.742 C 224.800 377.000,226.766 373.268,227.353 372.895 C 228.076 372.435,228.791 370.543,229.883 366.200 C 230.479 363.833,231.347 361.519,232.010 360.532 C 233.111 358.892,234.800 353.380,234.800 351.426 C 234.800 350.090,236.230 346.338,237.106 345.374 C 237.493 344.949,238.159 343.790,238.585 342.800 C 239.395 340.914,241.523 338.605,242.832 338.190 C 243.254 338.056,243.600 337.628,243.600 337.240 C 243.600 336.369,246.299 333.605,247.167 333.587 C 247.515 333.580,248.291 332.766,248.891 331.778 C 249.521 330.739,250.739 329.521,251.778 328.891 C 252.766 328.291,253.586 327.530,253.601 327.200 C 253.642 326.253,254.948 324.918,256.757 323.975 C 257.672 323.499,258.619 322.724,258.860 322.254 C 259.322 321.356,261.228 319.677,262.554 319.000 C 262.985 318.780,263.891 317.827,264.569 316.881 C 265.246 315.936,266.375 314.820,267.078 314.400 C 267.781 313.981,268.674 313.135,269.062 312.519 C 269.948 311.115,271.096 309.959,272.455 309.104 C 273.035 308.739,273.898 307.813,274.372 307.046 C 274.846 306.278,276.126 305.010,277.217 304.226 C 278.308 303.442,279.202 302.576,279.204 302.301 C 279.209 301.709,281.514 299.436,282.453 299.097 C 282.812 298.967,283.626 298.087,284.262 297.140 C 284.898 296.193,286.191 294.899,287.136 294.265 C 288.081 293.630,289.003 292.726,289.187 292.256 C 289.575 291.258,291.483 289.429,292.515 289.066 C 292.908 288.927,293.538 288.272,293.915 287.609 C 294.292 286.947,294.735 286.404,294.900 286.403 C 295.065 286.401,295.200 286.143,295.200 285.830 C 295.200 285.516,295.964 284.838,296.898 284.323 C 297.832 283.808,298.812 282.935,299.077 282.383 C 299.641 281.205,301.195 279.676,302.477 279.037 C 302.975 278.788,303.781 277.868,304.266 276.992 C 304.775 276.075,305.881 274.965,306.875 274.374 C 307.824 273.810,308.800 272.948,309.044 272.459 C 309.699 271.149,311.271 269.565,312.317 269.161 C 312.821 268.967,313.541 268.267,313.917 267.606 C 314.292 266.946,314.735 266.404,314.900 266.403 C 315.065 266.401,315.200 266.135,315.200 265.810 C 315.200 265.486,315.785 264.924,316.500 264.562 C 318.275 263.663,319.200 262.799,319.202 262.038 C 319.204 261.323,321.149 259.114,322.630 258.144 C 323.164 257.794,323.600 257.265,323.600 256.967 C 323.600 256.258,326.268 253.600,326.981 253.600 C 327.285 253.600,327.898 253.013,328.342 252.295 C 329.351 250.662,330.586 249.597,332.505 248.706 C 333.327 248.325,334.000 247.782,334.000 247.501 C 334.000 246.830,335.839 244.963,337.583 243.863 C 338.614 243.213,339.049 242.593,339.291 241.427 C 339.470 240.567,339.795 239.647,340.014 239.383 C 340.450 238.858,342.469 233.136,342.284 232.951 C 342.221 232.888,341.911 233.233,341.596 233.718 M351.363 249.420 C 350.723 249.943,349.611 250.489,348.891 250.632 C 347.618 250.885,345.200 253.240,345.200 254.227 C 345.200 254.471,344.790 254.858,344.289 255.087 C 342.457 255.921,340.800 257.646,340.783 258.736 C 340.774 259.321,340.433 260.426,340.026 261.190 L 339.286 262.580 348.426 271.694 L 357.565 280.808 360.342 279.873 C 363.367 278.854,363.955 278.421,364.967 276.463 C 365.336 275.750,366.084 274.996,366.629 274.789 C 368.126 274.220,368.981 273.204,369.782 271.046 C 370.181 269.972,370.814 268.786,371.190 268.410 C 371.833 267.767,371.796 267.675,370.536 266.812 C 369.801 266.309,369.200 265.650,369.200 265.348 C 369.200 265.047,369.023 264.800,368.808 264.800 C 368.592 264.800,368.297 264.331,368.153 263.757 C 367.991 263.109,367.420 262.509,366.646 262.173 C 365.961 261.875,364.950 261.075,364.400 260.395 C 362.988 258.648,361.544 257.189,359.865 255.811 C 359.068 255.157,358.242 254.122,358.029 253.511 C 357.816 252.900,357.417 252.400,357.142 252.400 C 356.471 252.400,353.600 250.388,353.600 249.917 C 353.600 248.727,352.508 248.484,351.363 249.420 M353.532 253.400 C 353.705 254.973,355.006 256.327,356.638 256.634 C 357.766 256.845,358.045 257.148,358.642 258.810 C 359.329 260.720,359.978 261.230,362.900 262.154 C 363.352 262.296,363.600 262.780,363.600 263.518 C 363.600 264.874,364.895 266.218,366.600 266.632 C 368.186 267.017,368.221 267.100,368.068 270.111 L 367.936 272.703 366.084 272.912 C 363.805 273.169,362.800 274.250,362.800 276.444 L 362.800 278.000 360.047 278.000 L 357.295 278.000 356.848 276.224 C 356.345 274.228,356.063 273.966,353.805 273.400 C 352.375 273.042,352.185 272.846,351.971 271.521 C 351.652 269.541,351.014 268.866,348.982 268.354 C 347.413 267.959,347.241 267.784,346.838 266.186 C 346.345 264.228,346.058 263.964,343.800 263.400 C 342.671 263.118,342.210 262.794,342.233 262.300 C 342.252 261.915,342.297 260.723,342.333 259.652 L 342.400 257.704 344.177 257.504 C 346.416 257.251,347.251 256.421,347.502 254.197 L 347.700 252.440 349.550 252.284 C 353.056 251.989,353.387 252.081,353.532 253.400 M326.982 273.471 C 326.031 275.889,325.873 276.065,324.046 276.751 C 322.608 277.291,322.227 277.668,321.774 278.995 C 321.164 280.779,320.345 281.538,318.655 281.884 C 317.809 282.057,317.362 282.495,316.945 283.559 C 316.037 285.877,315.862 286.070,314.046 286.751 C 312.621 287.286,312.225 287.672,311.789 288.950 C 311.133 290.872,310.876 291.131,308.982 291.782 C 307.748 292.206,307.336 292.629,306.785 294.038 C 306.069 295.870,305.852 296.068,303.547 296.990 C 302.384 297.455,302.044 297.842,301.839 298.931 C 301.534 300.559,300.669 301.411,298.847 301.879 C 297.739 302.164,297.368 302.548,296.800 303.999 C 296.069 305.871,295.856 306.066,293.547 306.990 C 292.384 307.455,292.044 307.842,291.839 308.931 C 291.534 310.559,290.669 311.411,288.847 311.879 C 287.739 312.164,287.368 312.548,286.800 313.999 C 286.069 315.871,285.856 316.066,283.547 316.990 C 282.384 317.455,282.044 317.842,281.839 318.931 C 281.534 320.559,280.669 321.411,278.847 321.879 C 277.739 322.164,277.368 322.548,276.800 323.999 C 276.069 325.871,275.856 326.066,273.547 326.990 C 272.384 327.455,272.044 327.842,271.839 328.931 C 271.534 330.559,270.669 331.411,268.847 331.879 C 267.739 332.164,267.368 332.548,266.800 333.999 C 266.066 335.877,265.862 336.063,263.500 337.010 C 262.338 337.475,262.000 337.832,262.000 338.592 C 262.000 339.777,260.805 342.400,260.265 342.400 C 260.052 342.400,260.267 342.737,260.742 343.150 C 261.218 343.562,261.811 344.507,262.060 345.250 C 262.663 347.046,263.537 348.000,264.577 348.000 C 266.424 348.000,270.800 350.846,270.800 352.047 C 270.800 352.407,271.070 352.926,271.400 353.200 C 271.730 353.474,272.000 353.931,272.000 354.216 C 272.000 354.750,274.926 358.000,275.406 358.000 C 275.553 358.000,276.110 358.343,276.642 358.762 C 277.553 359.478,277.734 359.487,279.705 358.914 C 283.394 357.841,283.600 357.712,283.600 356.478 C 283.600 355.071,284.979 353.711,286.588 353.532 C 287.606 353.419,287.889 353.108,288.558 351.370 C 289.267 349.531,289.531 349.267,291.370 348.558 C 293.108 347.889,293.419 347.606,293.532 346.588 C 293.686 345.205,295.031 343.600,296.037 343.600 C 297.018 343.600,298.000 343.180,298.000 342.760 C 298.000 340.774,300.774 338.000,302.760 338.000 C 303.180 338.000,303.600 337.018,303.600 336.037 C 303.600 335.181,305.217 333.600,306.093 333.600 C 307.024 333.600,308.000 333.170,308.000 332.760 C 308.000 330.774,310.774 328.000,312.760 328.000 C 313.180 328.000,313.600 327.018,313.600 326.037 C 313.600 325.181,315.217 323.600,316.093 323.600 C 317.024 323.600,318.000 323.170,318.000 322.760 C 318.000 320.774,320.774 318.000,322.760 318.000 C 323.180 318.000,323.600 317.018,323.600 316.037 C 323.600 315.181,325.217 313.600,326.093 313.600 C 327.024 313.600,328.000 313.170,328.000 312.760 C 328.000 310.774,330.774 308.000,332.760 308.000 C 333.180 308.000,333.600 307.018,333.600 306.037 C 333.600 305.181,335.217 303.600,336.093 303.600 C 337.024 303.600,338.000 303.170,338.000 302.760 C 338.000 300.774,340.774 298.000,342.760 298.000 C 343.180 298.000,343.600 297.018,343.600 296.037 C 343.600 295.181,345.217 293.600,346.093 293.600 C 348.040 293.600,348.687 292.241,347.038 291.615 C 345.781 291.137,344.473 289.721,343.788 288.097 C 343.462 287.324,342.784 286.623,342.119 286.371 C 340.658 285.817,339.200 284.433,339.200 283.600 C 339.200 282.737,337.670 281.326,336.389 281.009 C 335.727 280.844,335.002 280.088,334.285 278.813 C 333.479 277.378,332.717 276.637,331.384 275.992 C 330.132 275.386,329.408 274.714,329.029 273.807 C 328.202 271.827,327.663 271.739,326.982 273.471 M337.100 321.772 C 336.715 322.056,336.400 322.493,336.400 322.744 C 336.400 323.326,333.343 326.400,332.764 326.400 C 332.246 326.400,330.832 328.016,330.813 328.630 C 330.797 329.145,329.106 330.794,328.574 330.813 C 328.003 330.834,326.400 332.271,326.400 332.764 C 326.400 333.004,325.680 333.920,324.800 334.800 C 323.920 335.680,323.004 336.400,322.764 336.400 C 322.246 336.400,320.832 338.016,320.813 338.630 C 320.797 339.145,319.106 340.794,318.574 340.813 C 318.003 340.834,316.400 342.271,316.400 342.764 C 316.400 343.004,315.680 343.920,314.800 344.800 C 313.920 345.680,313.004 346.400,312.764 346.400 C 312.246 346.400,310.832 348.016,310.813 348.630 C 310.797 349.145,309.106 350.794,308.574 350.813 C 308.003 350.834,306.400 352.271,306.400 352.764 C 306.400 353.383,303.306 356.400,302.671 356.400 C 302.380 356.400,301.753 357.179,301.277 358.132 C 300.268 360.151,299.325 361.302,298.184 361.906 C 297.735 362.144,297.105 362.837,296.784 363.448 C 296.010 364.919,294.855 366.081,293.455 366.797 C 292.826 367.119,292.166 367.762,291.990 368.226 C 291.577 369.313,289.313 371.577,288.226 371.990 C 287.762 372.166,287.117 372.815,286.792 373.431 C 286.068 374.800,284.891 375.981,283.357 376.875 C 282.150 377.579,281.842 378.863,282.295 381.300 C 282.716 383.561,284.434 382.380,284.539 379.758 L 284.617 377.800 292.641 369.764 C 301.320 361.072,302.000 360.284,302.000 358.918 C 302.000 358.235,302.488 357.766,303.996 357.002 C 305.575 356.202,306.202 355.575,307.002 353.996 C 307.722 352.575,308.251 352.000,308.838 352.000 C 309.291 352.000,310.188 351.474,310.831 350.831 C 311.474 350.188,312.000 349.291,312.000 348.838 C 312.000 348.251,312.575 347.722,313.996 347.002 C 315.575 346.202,316.202 345.575,317.002 343.996 C 317.722 342.575,318.251 342.000,318.838 342.000 C 319.291 342.000,320.188 341.474,320.831 340.831 C 321.474 340.188,322.000 339.291,322.000 338.838 C 322.000 338.251,322.575 337.722,323.996 337.002 C 325.575 336.202,326.202 335.575,327.002 333.996 C 327.722 332.575,328.251 332.000,328.838 332.000 C 329.291 332.000,330.188 331.474,330.831 330.831 C 331.474 330.188,332.000 329.291,332.000 328.838 C 332.000 328.250,332.577 327.721,334.011 326.994 C 335.568 326.206,336.219 325.571,336.891 324.188 L 337.759 322.400 340.180 322.375 C 341.833 322.357,342.346 322.246,341.799 322.024 C 340.204 321.377,337.811 321.249,337.100 321.772 M247.083 354.080 C 246.754 355.026,246.207 357.240,245.867 359.000 C 244.878 364.125,244.746 364.522,243.503 366.107 C 241.821 368.253,241.130 371.785,241.710 375.276 L 242.155 377.952 244.889 378.622 C 247.761 379.326,252.714 378.619,253.800 377.350 C 254.486 376.548,258.147 374.800,259.140 374.800 C 260.254 374.800,265.309 373.694,266.930 373.095 L 268.059 372.678 266.330 371.816 C 265.033 371.169,264.350 370.460,263.600 368.986 C 263.050 367.904,262.301 366.716,261.936 366.345 C 261.570 365.975,260.956 364.980,260.570 364.136 C 259.784 362.417,258.469 360.800,257.857 360.800 C 255.873 360.800,249.584 356.207,248.461 353.938 L 247.681 352.361 247.083 354.080 M250.410 361.405 C 251.080 361.752,252.640 362.000,254.147 362.000 C 257.698 362.000,258.000 362.166,258.000 364.117 C 258.000 368.051,259.097 370.326,261.557 371.491 L 263.800 372.553 258.000 373.070 C 252.235 373.584,249.215 374.412,249.205 375.481 C 249.183 377.726,246.740 378.906,246.473 376.800 C 246.325 375.625,244.218 373.600,243.146 373.600 C 242.667 373.600,242.400 373.314,242.400 372.800 C 242.400 372.360,242.628 372.000,242.907 372.000 C 245.703 372.000,246.929 369.034,247.439 361.038 L 247.717 356.676 248.489 358.743 C 249.026 360.183,249.609 360.991,250.410 361.405 " stroke="none" fill="#b5dbf9" fill-rule="evenodd"></path><path id="path4" d="M70.800 28.562 C 69.959 28.863,69.160 29.530,68.800 30.231 C 67.940 31.906,67.679 366.948,68.536 369.435 C 69.478 372.171,64.560 371.987,137.000 372.000 C 173.300 372.006,203.405 372.119,203.900 372.252 C 204.769 372.485,204.800 372.657,204.800 377.204 C 204.800 382.377,204.812 382.400,207.370 382.400 L 208.674 382.400 208.574 380.100 C 208.519 378.835,208.457 376.502,208.437 374.915 L 208.400 372.031 206.327 371.415 C 204.498 370.872,196.480 370.800,138.101 370.800 L 71.946 370.800 70.573 369.344 L 69.200 367.888 69.200 200.144 L 69.200 32.400 70.800 30.800 L 72.400 29.200 155.144 29.200 L 237.888 29.200 239.344 30.573 L 240.800 31.946 240.800 74.911 C 240.800 116.027,240.831 117.905,241.531 118.538 C 242.203 119.145,245.799 119.200,285.076 119.200 L 327.888 119.200 329.344 120.573 L 330.800 121.946 330.800 173.101 C 330.800 217.979,330.876 224.509,331.415 226.327 L 332.031 228.400 334.915 228.437 C 336.502 228.457,338.835 228.519,340.100 228.574 L 342.400 228.674 342.400 227.370 C 342.400 224.812,342.377 224.800,337.204 224.800 C 332.657 224.800,332.485 224.769,332.252 223.900 C 332.119 223.405,332.006 200.050,332.000 172.000 C 331.991 132.331,331.878 120.785,331.494 120.034 C 330.471 118.032,331.177 118.063,285.100 118.030 L 242.000 118.000 241.994 74.500 C 241.988 27.014,242.116 29.468,239.600 28.564 C 237.552 27.828,72.856 27.826,70.800 28.562 M250.326 34.502 C 248.246 36.241,248.257 36.054,248.100 72.800 C 247.943 109.389,247.957 109.679,249.910 111.215 C 251.367 112.361,321.015 112.410,324.000 111.267 C 327.843 109.796,327.089 103.600,323.067 103.600 C 322.722 103.600,322.008 102.648,321.417 101.400 C 320.845 100.190,320.184 99.200,319.949 99.200 C 318.548 99.200,316.784 97.827,316.413 96.448 C 316.021 94.991,314.387 93.600,313.067 93.600 C 312.722 93.600,312.008 92.648,311.417 91.400 C 310.845 90.190,310.184 89.200,309.949 89.200 C 308.548 89.200,306.784 87.827,306.413 86.448 C 306.021 84.991,304.387 83.600,303.067 83.600 C 302.722 83.600,302.008 82.648,301.417 81.400 C 300.845 80.190,300.184 79.200,299.949 79.200 C 298.548 79.200,296.784 77.827,296.413 76.448 C 296.021 74.991,294.387 73.600,293.067 73.600 C 292.722 73.600,292.008 72.648,291.417 71.400 C 290.845 70.190,290.184 69.200,289.949 69.200 C 288.548 69.200,286.784 67.827,286.413 66.448 C 286.021 64.991,284.387 63.600,283.067 63.600 C 282.722 63.600,282.008 62.648,281.417 61.400 C 280.845 60.190,280.184 59.200,279.949 59.200 C 278.548 59.200,276.784 57.827,276.413 56.448 C 276.021 54.991,274.387 53.600,273.067 53.600 C 272.722 53.600,272.008 52.648,271.417 51.400 C 270.845 50.190,270.184 49.200,269.949 49.200 C 268.548 49.200,266.784 47.827,266.413 46.448 C 266.021 44.991,264.387 43.600,263.067 43.600 C 262.722 43.600,262.008 42.648,261.417 41.400 C 260.845 40.190,260.184 39.200,259.949 39.200 C 258.548 39.200,256.784 37.827,256.413 36.448 C 255.699 33.798,252.421 32.750,250.326 34.502 M253.600 36.752 C 253.600 37.164,257.027 40.798,257.436 40.818 C 257.636 40.829,258.160 41.293,258.600 41.849 C 259.536 43.034,261.023 44.577,262.645 46.046 C 263.280 46.621,264.520 47.924,265.400 48.942 C 266.280 49.961,267.180 50.803,267.400 50.815 C 267.620 50.827,268.160 51.293,268.600 51.849 C 269.536 53.034,271.023 54.577,272.645 56.046 C 273.280 56.621,274.520 57.924,275.400 58.942 C 276.280 59.961,277.180 60.803,277.400 60.815 C 277.620 60.827,278.160 61.293,278.600 61.849 C 279.536 63.034,281.023 64.577,282.645 66.046 C 283.280 66.621,284.520 67.924,285.400 68.942 C 286.280 69.961,287.180 70.803,287.400 70.815 C 287.620 70.827,288.160 71.293,288.600 71.849 C 289.564 73.069,291.081 74.636,292.645 76.026 C 293.280 76.591,294.520 77.893,295.400 78.921 C 296.280 79.948,297.180 80.800,297.400 80.813 C 297.620 80.826,298.160 81.293,298.600 81.849 C 299.536 83.034,301.023 84.577,302.645 86.046 C 303.280 86.621,304.520 87.924,305.400 88.942 C 306.280 89.961,307.180 90.803,307.400 90.815 C 307.620 90.827,308.160 91.293,308.600 91.849 C 309.564 93.069,311.081 94.636,312.645 96.026 C 313.280 96.591,314.520 97.893,315.400 98.921 C 316.280 99.948,317.180 100.800,317.400 100.813 C 317.620 100.826,318.160 101.293,318.600 101.849 C 319.514 103.006,320.884 104.416,322.950 106.325 C 324.319 107.590,324.353 107.684,323.692 108.384 C 321.830 110.359,321.050 110.400,285.363 110.400 L 252.071 110.400 251.036 109.169 L 250.000 107.939 250.000 74.746 C 250.000 40.184,250.065 38.735,251.698 36.929 C 252.397 36.155,253.600 36.043,253.600 36.752 M369.000 228.577 C 368.780 228.665,367.741 228.853,366.692 228.994 C 365.074 229.212,364.449 229.583,362.591 231.426 C 361.386 232.622,360.130 233.600,359.800 233.600 C 359.470 233.600,359.200 233.855,359.200 234.167 C 359.200 234.478,359.002 234.799,358.761 234.880 C 356.666 235.578,358.666 242.854,361.583 245.145 C 362.601 245.945,364.200 247.544,365.136 248.700 C 366.072 249.855,367.054 250.808,367.319 250.818 C 367.584 250.829,368.160 251.310,368.600 251.888 C 369.697 253.328,371.633 255.323,372.611 256.021 C 373.057 256.340,374.115 257.457,374.962 258.504 C 378.543 262.929,385.163 263.473,387.319 259.519 C 387.715 258.793,388.633 257.756,389.359 257.214 C 393.496 254.127,392.415 234.800,388.106 234.800 C 387.873 234.800,387.130 234.125,386.454 233.300 C 384.171 230.513,383.054 229.634,381.224 229.184 C 379.429 228.743,369.781 228.264,369.000 228.577 M379.074 231.636 C 380.023 232.095,380.800 232.608,380.800 232.776 C 380.800 232.943,381.655 233.614,382.700 234.266 C 383.745 234.917,385.139 236.249,385.799 237.225 C 386.458 238.201,387.140 239.105,387.313 239.232 C 390.224 241.378,390.099 253.680,387.157 254.614 C 386.788 254.731,386.379 255.136,386.248 255.513 C 384.031 261.896,382.636 261.375,371.098 249.855 C 358.892 237.667,358.610 237.033,364.146 234.212 C 364.997 233.779,365.789 233.173,365.907 232.865 C 366.702 230.794,375.616 229.962,379.074 231.636 M342.000 235.950 C 342.000 236.802,341.730 238.265,341.400 239.200 C 341.070 240.135,340.800 241.352,340.800 241.903 C 340.800 242.850,340.468 243.235,336.100 247.338 C 335.605 247.803,335.200 248.371,335.200 248.601 C 335.200 248.830,334.526 249.374,333.702 249.809 C 332.382 250.506,329.720 253.031,322.746 260.201 C 321.676 261.302,320.800 262.405,320.800 262.653 C 320.800 263.150,317.318 266.400,316.786 266.400 C 316.603 266.400,316.346 266.741,316.213 267.159 C 315.913 268.103,313.405 270.800,312.827 270.800 C 312.277 270.800,310.800 272.272,310.800 272.820 C 310.800 273.358,308.015 275.932,307.120 276.221 C 306.747 276.342,306.342 276.747,306.221 277.120 C 305.932 278.015,303.358 280.800,302.820 280.800 C 302.253 280.800,300.800 282.285,300.800 282.865 C 300.800 283.427,298.070 285.919,297.120 286.223 C 296.747 286.343,296.334 286.777,296.204 287.189 C 295.890 288.178,293.471 290.800,292.872 290.800 C 292.264 290.800,290.800 292.259,290.800 292.865 C 290.800 293.427,288.070 295.919,287.120 296.223 C 286.747 296.343,286.343 296.747,286.223 297.120 C 285.919 298.070,283.427 300.800,282.865 300.800 C 282.263 300.800,280.800 302.263,280.800 302.865 C 280.800 303.427,278.070 305.919,277.120 306.223 C 276.747 306.343,276.343 306.747,276.223 307.120 C 275.919 308.070,273.427 310.800,272.865 310.800 C 272.263 310.800,270.800 312.263,270.800 312.865 C 270.800 313.427,268.070 315.919,267.120 316.223 C 266.747 316.343,266.343 316.747,266.223 317.120 C 265.896 318.139,263.411 320.797,262.765 320.818 C 262.454 320.829,261.840 321.287,261.400 321.838 C 259.728 323.929,258.898 324.715,258.094 324.970 C 257.636 325.115,256.610 325.991,255.813 326.917 C 255.016 327.843,254.177 328.780,253.949 329.000 C 253.489 329.444,249.630 333.298,249.000 333.944 C 248.780 334.169,247.745 335.107,246.700 336.028 C 245.655 336.948,244.800 337.918,244.800 338.183 C 244.800 338.448,243.970 339.260,242.956 339.989 C 241.847 340.785,240.881 341.888,240.531 342.756 C 239.507 345.300,238.698 346.963,237.752 348.469 C 237.206 349.339,236.400 351.952,235.780 354.869 C 234.658 360.139,233.900 362.332,232.731 363.680 C 232.329 364.143,232.000 364.844,232.000 365.238 C 232.000 365.631,231.830 366.058,231.623 366.186 C 231.416 366.314,231.124 367.269,230.974 368.309 C 230.824 369.349,230.364 370.955,229.951 371.878 C 229.538 372.801,229.200 373.667,229.200 373.802 C 229.200 373.937,228.570 374.873,227.800 375.882 C 227.030 376.890,226.400 378.004,226.400 378.358 C 226.400 378.711,225.696 379.770,224.836 380.712 L 223.272 382.423 224.736 382.149 C 228.667 381.415,231.273 377.591,232.046 371.422 C 232.418 368.458,232.556 368.121,233.833 367.069 C 235.667 365.557,236.241 364.321,236.556 361.200 C 237.284 353.995,237.604 352.849,239.214 351.691 C 240.812 350.543,242.000 347.191,242.000 343.830 C 242.000 342.795,242.202 342.311,242.700 342.154 C 245.602 341.236,246.331 340.694,246.600 339.256 C 246.960 337.324,247.360 336.911,249.161 336.607 C 250.735 336.341,252.000 334.639,252.000 332.786 C 252.000 332.271,252.271 332.000,252.786 332.000 C 254.666 332.000,256.296 330.756,256.654 329.048 C 256.973 327.531,257.152 327.350,258.916 326.764 C 261.164 326.018,261.653 325.597,262.224 323.917 C 262.566 322.911,262.996 322.568,264.452 322.144 C 266.245 321.621,266.709 321.110,267.582 318.700 C 267.801 318.095,268.182 317.600,268.430 317.600 C 269.997 317.600,271.625 316.232,272.134 314.486 C 272.621 312.816,272.814 312.621,274.460 312.141 C 276.244 311.621,276.710 311.108,277.582 308.700 C 277.801 308.095,278.182 307.600,278.430 307.600 C 279.997 307.600,281.625 306.232,282.134 304.486 C 282.622 302.811,282.811 302.622,284.486 302.134 C 286.232 301.625,287.600 299.997,287.600 298.430 C 287.600 298.182,288.095 297.801,288.700 297.582 C 291.108 296.710,291.621 296.244,292.141 294.460 C 292.621 292.815,292.817 292.621,294.482 292.135 C 296.091 291.666,296.394 291.387,297.124 289.703 C 297.817 288.104,298.241 287.682,299.774 287.061 C 301.399 286.402,301.658 286.118,302.141 284.462 C 302.625 282.801,302.850 282.556,304.242 282.168 C 305.854 281.719,307.600 279.756,307.600 278.391 C 307.600 277.956,308.011 277.618,308.711 277.478 C 310.540 277.112,311.902 275.764,312.195 274.028 C 312.440 272.579,312.579 272.440,314.028 272.195 C 315.764 271.902,317.112 270.540,317.478 268.711 C 317.611 268.044,317.960 267.599,318.350 267.599 C 319.521 267.596,321.573 266.053,321.789 265.012 C 321.905 264.456,322.093 263.550,322.208 263.000 C 322.367 262.233,322.670 261.997,323.508 261.987 C 325.028 261.968,326.292 260.783,326.613 259.074 C 326.928 257.392,327.330 256.993,329.085 256.618 C 330.481 256.319,332.000 254.358,332.000 252.853 C 332.000 252.139,332.237 252.000,333.453 252.000 C 335.084 252.000,337.600 249.799,337.600 248.372 C 337.600 247.941,337.874 247.600,338.220 247.600 C 339.401 247.600,341.089 246.433,341.520 245.319 C 341.994 244.091,342.637 234.400,342.244 234.400 C 342.110 234.400,342.000 235.097,342.000 235.950 M348.798 244.335 C 346.834 245.060,345.200 246.452,345.200 247.400 C 345.200 247.730,344.995 248.000,344.744 248.000 C 344.309 248.000,343.413 248.752,341.200 250.977 C 340.650 251.530,339.156 253.021,337.880 254.291 C 332.886 259.260,332.344 266.400,336.961 266.400 C 337.865 266.400,338.373 267.067,339.196 269.336 C 339.492 270.154,340.156 270.704,341.567 271.300 C 343.038 271.921,343.579 272.385,343.742 273.164 C 344.039 274.586,345.837 276.400,346.949 276.400 C 347.866 276.400,348.369 277.057,349.196 279.336 C 349.494 280.158,350.159 280.705,351.604 281.315 C 352.927 281.875,353.600 282.397,353.600 282.865 C 353.600 284.608,355.946 286.400,358.228 286.400 C 361.138 286.400,365.163 284.459,365.216 283.030 C 365.225 282.794,366.136 281.886,367.241 281.014 C 368.346 280.142,370.004 278.486,370.925 277.333 C 371.846 276.181,372.794 275.229,373.030 275.219 C 374.841 275.139,376.592 270.774,376.441 266.718 C 376.389 265.346,374.669 263.600,373.369 263.600 C 372.773 263.600,372.286 263.320,372.154 262.900 C 371.230 259.978,370.720 259.329,368.810 258.642 C 367.099 258.027,366.849 257.785,366.610 256.514 C 366.290 254.808,365.024 253.632,363.487 253.613 C 362.787 253.605,362.293 253.341,362.154 252.900 C 361.230 249.978,360.720 249.329,358.810 248.642 C 357.131 248.039,356.846 247.772,356.626 246.598 C 356.122 243.909,352.662 242.908,348.798 244.335 M355.224 248.300 C 356.534 249.565,358.009 250.985,358.502 251.456 C 358.996 251.927,359.955 252.917,360.634 253.656 C 361.312 254.395,362.482 255.563,363.234 256.251 C 363.985 256.939,365.272 258.199,366.093 259.051 C 366.914 259.903,367.958 260.960,368.414 261.400 C 368.870 261.840,370.404 263.419,371.825 264.909 L 374.407 267.618 373.595 269.209 C 373.149 270.084,372.627 270.800,372.435 270.800 C 372.244 270.800,371.975 271.245,371.838 271.790 C 371.702 272.334,370.785 273.549,369.802 274.490 C 366.626 277.528,366.383 277.779,365.183 279.252 C 363.071 281.846,357.073 284.376,356.510 282.909 C 356.228 282.174,355.554 281.497,352.629 279.003 C 351.623 278.145,350.800 277.307,350.800 277.140 C 350.800 276.808,348.885 274.800,348.568 274.800 C 348.362 274.800,346.763 273.179,345.373 271.562 C 344.919 271.033,343.704 269.890,342.673 269.022 C 341.643 268.154,340.800 267.301,340.800 267.125 C 340.800 266.737,338.538 264.526,337.300 263.705 C 336.212 262.983,336.172 262.411,337.118 261.154 C 337.513 260.629,338.188 259.393,338.618 258.407 C 339.416 256.578,342.191 253.600,343.098 253.600 C 343.374 253.600,343.605 253.375,343.610 253.100 C 343.625 252.333,346.504 249.491,348.121 248.647 C 348.914 248.233,349.895 247.585,350.300 247.208 C 351.013 246.543,351.856 246.097,352.522 246.032 C 352.699 246.014,353.915 247.035,355.224 248.300 M324.487 268.804 C 323.764 269.244,323.077 269.856,322.959 270.163 C 322.841 270.470,322.384 270.816,321.943 270.931 C 321.502 271.046,321.051 271.483,320.942 271.901 C 320.832 272.319,320.227 272.966,319.596 273.339 C 318.965 273.712,318.344 274.345,318.217 274.748 C 318.089 275.150,317.554 275.675,317.027 275.915 C 316.500 276.155,315.955 276.713,315.814 277.155 C 315.674 277.597,315.212 278.069,314.788 278.204 C 314.364 278.339,313.712 278.965,313.339 279.596 C 312.966 280.227,312.319 280.832,311.901 280.942 C 311.483 281.051,311.051 281.483,310.942 281.901 C 310.832 282.319,310.227 282.966,309.596 283.339 C 308.965 283.712,308.344 284.345,308.217 284.748 C 308.089 285.150,307.554 285.675,307.027 285.915 C 306.500 286.155,305.955 286.713,305.814 287.155 C 305.674 287.597,305.212 288.069,304.788 288.204 C 304.364 288.339,303.712 288.965,303.339 289.596 C 302.966 290.227,302.319 290.832,301.901 290.942 C 301.483 291.051,301.051 291.483,300.942 291.901 C 300.832 292.319,300.227 292.966,299.596 293.339 C 298.965 293.712,298.344 294.345,298.217 294.748 C 298.089 295.150,297.554 295.675,297.027 295.915 C 296.500 296.155,295.955 296.713,295.814 297.155 C 295.674 297.597,295.212 298.069,294.788 298.204 C 294.364 298.339,293.712 298.965,293.339 299.596 C 292.966 300.227,292.319 300.832,291.901 300.942 C 291.483 301.051,291.051 301.483,290.942 301.901 C 290.832 302.319,290.216 302.973,289.571 303.353 C 288.927 303.734,288.400 304.216,288.400 304.425 C 288.400 304.633,287.455 305.703,286.300 306.802 C 285.145 307.900,284.020 308.977,283.800 309.194 C 283.580 309.411,282.530 310.446,281.466 311.494 C 280.403 312.542,279.233 313.742,278.866 314.161 C 278.500 314.579,277.300 315.794,276.200 316.860 C 275.100 317.927,274.020 318.977,273.800 319.194 C 273.580 319.411,272.530 320.446,271.466 321.494 C 270.403 322.542,269.233 323.742,268.866 324.161 C 268.500 324.579,267.300 325.794,266.200 326.860 C 265.100 327.927,264.020 328.977,263.800 329.194 C 263.580 329.411,262.530 330.446,261.466 331.494 C 260.403 332.542,259.233 333.750,258.866 334.177 C 258.500 334.605,257.480 335.701,256.600 336.613 C 252.483 340.880,252.624 344.342,257.097 348.754 C 259.417 351.043,260.984 352.000,262.413 352.000 C 262.918 352.000,263.389 352.477,263.760 353.365 C 264.520 355.186,265.791 356.400,266.935 356.400 C 267.714 356.400,267.998 356.776,268.635 358.656 C 269.075 359.955,269.797 361.185,270.336 361.556 C 270.851 361.910,271.661 362.645,272.136 363.188 C 274.720 366.143,275.164 366.400,277.688 366.400 C 280.682 366.400,284.800 364.316,284.800 362.800 C 284.800 362.580,284.950 362.400,285.133 362.400 C 285.584 362.400,292.000 355.985,292.000 355.533 C 292.000 355.336,292.311 355.056,292.691 354.910 C 293.485 354.605,295.200 352.850,295.200 352.342 C 295.200 352.154,295.354 352.000,295.542 352.000 C 295.975 352.000,302.000 345.995,302.000 345.564 C 302.000 345.388,302.493 345.007,303.096 344.718 C 303.699 344.429,304.429 343.699,304.718 343.096 C 305.007 342.493,305.388 342.000,305.564 342.000 C 306.001 342.000,312.000 335.972,312.000 335.532 C 312.000 335.339,312.457 335.006,313.017 334.794 C 313.576 334.581,314.341 333.867,314.717 333.206 C 315.092 332.546,315.509 332.004,315.642 332.003 C 316.028 331.998,322.000 325.921,322.000 325.532 C 322.000 325.339,322.457 325.006,323.017 324.794 C 323.576 324.581,324.341 323.867,324.717 323.206 C 325.092 322.546,325.509 322.004,325.642 322.003 C 326.028 321.998,332.000 315.921,332.000 315.532 C 332.000 315.339,332.457 315.006,333.017 314.794 C 333.576 314.581,334.341 313.867,334.717 313.206 C 335.092 312.546,335.509 312.004,335.642 312.003 C 336.027 311.999,341.910 306.012,342.154 305.375 C 342.276 305.059,342.569 304.800,342.807 304.800 C 343.304 304.800,345.200 302.852,345.200 302.342 C 345.200 302.154,345.368 302.000,345.574 302.000 C 345.887 302.000,347.295 300.621,351.115 296.573 C 353.655 293.881,351.957 285.936,348.493 284.308 C 347.315 283.754,346.596 283.087,346.228 282.205 C 345.590 280.678,344.107 279.200,343.213 279.200 C 342.410 279.200,341.415 278.052,340.925 276.556 C 340.672 275.785,339.925 275.060,338.682 274.380 C 337.378 273.667,336.536 272.826,335.878 271.580 C 335.229 270.353,334.574 269.693,333.768 269.454 C 333.126 269.264,332.009 268.859,331.286 268.554 C 329.330 267.729,326.052 267.849,324.487 268.804 M329.254 270.863 C 330.104 271.118,330.800 271.478,330.800 271.663 C 330.800 271.848,331.001 272.000,331.247 272.000 C 332.250 272.000,348.408 288.752,349.211 290.625 C 350.255 293.062,350.336 292.817,347.600 295.536 C 346.280 296.848,345.200 298.082,345.200 298.278 C 345.200 298.475,344.345 299.288,343.300 300.085 C 342.255 300.883,340.860 302.266,340.200 303.158 C 339.540 304.051,338.860 304.785,338.689 304.791 C 338.169 304.806,335.632 307.268,335.408 307.975 C 335.292 308.339,334.343 309.289,333.299 310.086 C 332.254 310.883,330.860 312.266,330.200 313.158 C 329.540 314.051,328.851 314.785,328.669 314.791 C 328.266 314.802,325.200 317.949,325.200 318.350 C 325.200 318.507,324.345 319.288,323.300 320.085 C 322.255 320.883,320.860 322.266,320.200 323.158 C 319.540 324.051,318.820 324.794,318.600 324.809 C 318.380 324.824,317.570 325.567,316.800 326.459 C 316.030 327.351,314.777 328.648,314.016 329.340 C 312.678 330.559,311.781 331.464,309.536 333.863 C 308.951 334.488,307.871 335.550,307.136 336.222 C 306.401 336.894,305.116 338.154,304.280 339.022 C 302.394 340.980,301.051 342.323,299.027 344.280 C 298.162 345.116,296.992 346.310,296.427 346.934 C 295.862 347.558,294.798 348.638,294.062 349.334 C 292.376 350.928,290.899 352.407,289.536 353.863 C 288.951 354.488,287.871 355.550,287.136 356.222 C 286.401 356.894,285.123 358.199,284.295 359.122 C 283.467 360.045,282.586 360.800,282.336 360.800 C 282.087 360.800,281.114 361.430,280.174 362.200 C 278.014 363.970,277.344 363.955,275.554 362.099 C 274.759 361.275,273.364 359.974,272.454 359.209 C 271.544 358.444,270.800 357.496,270.800 357.103 C 270.800 356.046,265.261 350.695,263.071 349.634 C 262.030 349.130,260.698 348.062,260.112 347.259 C 259.525 346.457,258.450 345.244,257.722 344.565 C 256.203 343.145,256.073 342.327,257.191 341.209 C 257.626 340.774,258.484 339.725,259.098 338.877 C 260.717 336.642,262.307 334.800,262.618 334.800 C 263.098 334.800,264.786 333.015,264.793 332.500 C 264.797 332.225,264.958 332.000,265.152 332.000 C 265.345 332.000,266.965 330.538,268.752 328.752 C 270.538 326.965,272.000 325.345,272.000 325.152 C 272.000 324.958,272.200 324.800,272.444 324.800 C 273.058 324.800,274.785 323.110,274.793 322.500 C 274.797 322.225,274.958 322.000,275.152 322.000 C 275.345 322.000,276.965 320.538,278.752 318.752 C 280.538 316.965,282.000 315.345,282.000 315.152 C 282.000 314.958,282.200 314.800,282.444 314.800 C 283.058 314.800,284.785 313.110,284.793 312.500 C 284.797 312.225,284.938 312.000,285.106 312.000 C 285.499 312.000,289.892 307.743,291.200 306.094 C 291.750 305.401,292.393 304.826,292.629 304.817 C 292.865 304.808,293.675 304.051,294.429 303.136 C 295.183 302.221,296.327 301.006,296.971 300.436 C 298.540 299.048,299.137 298.441,300.871 296.471 C 301.680 295.552,302.464 294.800,302.614 294.800 C 303.044 294.800,304.785 293.044,304.795 292.600 C 304.800 292.380,305.558 291.570,306.480 290.800 C 307.401 290.030,308.435 289.120,308.778 288.778 C 309.120 288.435,310.030 287.401,310.800 286.480 C 311.570 285.558,312.394 284.803,312.630 284.802 C 312.867 284.801,313.587 284.138,314.230 283.328 C 314.874 282.518,316.015 281.303,316.767 280.628 C 318.767 278.832,319.251 278.334,320.800 276.480 C 321.570 275.558,322.358 274.803,322.551 274.802 C 322.745 274.801,323.839 273.810,324.983 272.600 C 327.298 270.151,327.120 270.224,329.254 270.863 M334.535 318.749 C 334.060 319.146,333.453 320.198,333.187 321.087 C 332.769 322.480,332.480 322.769,331.087 323.187 C 329.091 323.785,328.031 324.996,328.013 326.700 C 328.001 327.894,327.894 328.001,326.700 328.013 C 324.996 328.031,323.785 329.091,323.187 331.087 C 322.769 332.480,322.480 332.769,321.087 333.187 C 319.091 333.785,318.031 334.996,318.013 336.700 C 318.001 337.894,317.894 338.001,316.700 338.013 C 314.996 338.031,313.785 339.091,313.187 341.087 C 312.769 342.480,312.480 342.769,311.087 343.187 C 309.091 343.785,308.031 344.996,308.013 346.700 C 308.001 347.894,307.894 348.001,306.700 348.013 C 304.991 348.031,303.784 349.092,303.180 351.108 C 302.751 352.540,302.481 352.806,301.010 353.240 C 299.368 353.725,298.000 355.592,298.000 357.348 C 298.000 357.647,297.188 358.201,296.195 358.580 C 294.291 359.308,293.600 360.137,293.600 361.694 C 293.600 362.876,292.903 363.600,291.764 363.600 C 290.491 363.600,289.247 364.776,288.638 366.553 C 288.207 367.813,287.813 368.207,286.553 368.638 C 284.776 369.247,283.600 370.491,283.600 371.764 C 283.600 372.931,282.870 373.600,281.595 373.600 C 278.871 373.600,276.939 380.575,279.256 382.043 C 279.918 382.462,281.989 382.512,281.354 382.094 C 280.083 381.256,280.295 377.297,281.674 376.126 C 283.469 374.602,286.400 371.490,286.400 371.109 C 286.400 370.939,286.633 370.800,286.917 370.800 C 287.503 370.800,290.795 367.574,290.810 366.985 C 290.816 366.773,291.798 365.880,292.993 365.000 C 294.189 364.120,295.174 363.218,295.183 362.996 C 295.202 362.535,296.643 360.980,298.145 359.800 C 298.705 359.360,299.171 358.852,299.182 358.672 C 299.220 357.990,301.661 354.800,302.144 354.800 C 302.752 354.800,304.800 352.736,304.800 352.123 C 304.800 351.885,305.373 351.265,306.073 350.745 C 306.773 350.225,307.898 349.248,308.573 348.573 C 309.248 347.898,310.225 346.773,310.745 346.073 C 311.265 345.373,311.922 344.800,312.206 344.800 C 312.489 344.800,313.234 344.162,313.861 343.382 C 314.487 342.603,315.508 341.478,316.130 340.882 C 319.297 337.848,319.873 337.248,320.745 336.073 C 321.265 335.373,321.922 334.800,322.206 334.800 C 322.489 334.800,323.234 334.162,323.861 333.382 C 324.487 332.603,325.508 331.478,326.130 330.882 C 329.297 327.848,329.873 327.248,330.745 326.073 C 331.265 325.373,331.922 324.800,332.206 324.800 C 332.489 324.800,333.234 324.163,333.861 323.384 C 337.137 319.310,339.398 318.435,341.525 320.416 C 342.492 321.317,342.676 320.869,342.148 318.900 C 341.819 317.673,335.962 317.557,334.535 318.749 M245.555 348.600 C 244.287 349.289,243.824 350.444,243.173 354.537 C 242.771 357.064,242.510 357.749,241.830 358.059 C 237.511 360.027,236.454 379.355,240.550 381.480 C 244.313 383.432,259.405 381.816,262.073 379.175 C 263.511 377.751,267.277 376.400,269.808 376.400 C 270.628 376.400,271.565 375.470,272.372 373.857 C 273.403 371.794,272.243 369.941,269.231 368.843 C 266.720 367.928,266.400 367.394,266.400 364.124 C 266.400 362.078,264.482 359.226,263.079 359.187 C 262.354 359.167,260.800 357.748,260.800 357.106 C 260.800 355.664,256.629 353.600,253.716 353.600 C 252.790 353.600,252.306 353.383,252.154 352.900 C 250.711 348.337,248.586 346.953,245.555 348.600 M249.380 351.948 C 250.338 353.779,252.173 355.529,254.016 356.373 C 259.409 358.842,264.800 364.358,264.800 367.407 C 264.800 368.027,267.410 370.800,267.994 370.800 C 268.149 370.800,268.772 371.227,269.379 371.748 L 270.483 372.696 269.141 373.697 C 268.404 374.247,267.350 374.792,266.800 374.907 C 263.225 375.653,259.481 376.890,257.780 377.887 C 252.629 380.906,243.698 381.517,241.374 379.010 C 238.888 376.328,239.253 369.474,242.205 363.400 C 243.735 360.251,244.800 357.187,244.800 355.932 C 244.800 354.709,245.670 352.000,246.063 352.000 C 246.248 352.000,246.400 351.743,246.400 351.429 C 246.400 350.054,248.588 350.435,249.380 351.948 M252.400 393.849 C 252.400 395.464,253.434 395.206,254.719 393.271 C 255.277 392.430,255.247 392.400,253.849 392.400 C 252.450 392.400,252.400 392.450,252.400 393.849 " stroke="none" fill="#64a4d4" fill-rule="evenodd"></path></g></svg>