<svg id="svg" xmlns="http://www.w3.org/2000/svg" xmlns:xlink="http://www.w3.org/1999/xlink" width="400" height="400" viewBox="0, 0, 400,400"><g id="svgg"><path id="path0" d="M83.317 17.900 C 82.751 19.440,81.254 20.355,79.102 20.479 L 77.000 20.600 76.876 22.100 C 76.752 23.596,76.747 23.600,74.876 23.640 C 71.893 23.703,71.085 24.066,70.711 25.513 C 70.430 26.594,70.190 26.800,69.203 26.800 C 67.954 26.800,67.200 27.694,67.200 29.174 C 67.200 29.769,66.943 30.000,66.280 30.000 C 65.012 30.000,64.400 30.728,64.400 32.237 C 64.400 33.262,64.205 33.562,63.407 33.762 C 62.149 34.078,61.200 35.892,61.200 37.980 C 61.200 39.419,61.094 39.600,60.249 39.600 C 58.514 39.600,58.225 40.505,58.062 46.453 C 57.912 51.904,57.894 52.000,57.004 52.000 C 54.863 52.000,55.000 41.922,55.000 199.561 C 55.000 279.993,55.135 346.281,55.300 346.868 C 55.511 347.622,55.953 348.014,56.800 348.200 L 58.000 348.464 58.047 353.132 C 58.111 359.389,58.283 360.079,59.901 360.543 C 61.026 360.866,61.200 361.091,61.200 362.225 C 61.200 363.848,62.294 365.823,63.495 366.371 C 64.115 366.653,64.402 367.132,64.406 367.891 C 64.414 369.347,64.770 369.820,66.100 370.146 C 66.888 370.339,67.202 370.668,67.206 371.308 C 67.215 372.655,67.757 373.251,69.246 373.556 C 70.142 373.739,70.644 374.095,70.741 374.616 C 71.014 376.087,71.629 376.400,74.249 376.400 L 76.800 376.400 76.800 378.000 L 76.800 379.600 78.878 379.600 C 81.014 379.600,83.200 380.955,83.200 382.279 C 83.200 382.716,97.349 382.790,164.789 382.704 L 246.378 382.600 247.260 381.718 C 248.716 380.261,248.877 374.352,247.500 372.876 C 246.948 372.284,246.289 371.151,246.036 370.358 C 245.466 368.570,243.417 366.137,241.172 364.581 L 239.469 363.400 166.003 363.200 L 92.538 363.000 91.163 361.952 C 90.408 361.375,88.877 360.511,87.762 360.032 C 85.374 359.004,81.514 355.271,80.624 353.127 C 80.287 352.317,79.579 351.187,79.051 350.617 C 78.522 350.046,77.943 349.089,77.765 348.490 C 77.291 346.895,77.101 57.238,77.572 53.825 C 77.812 52.089,78.263 50.667,78.776 50.025 C 79.228 49.461,80.072 48.100,80.652 47.000 C 82.188 44.086,84.641 41.731,87.600 40.330 C 89.030 39.653,90.596 38.738,91.080 38.298 C 92.630 36.889,96.065 36.843,200.200 36.843 C 306.352 36.843,307.437 36.859,309.658 38.443 C 310.396 38.969,311.879 39.808,312.953 40.306 C 315.152 41.327,318.190 44.201,319.604 46.600 C 320.123 47.480,320.937 48.676,321.412 49.257 C 323.516 51.831,323.645 55.259,323.216 97.200 C 322.671 150.464,322.618 211.553,323.116 212.800 C 323.950 214.889,326.729 217.252,329.250 218.015 C 332.344 218.952,332.800 219.367,332.800 221.249 C 332.800 223.113,333.198 223.193,334.539 221.600 C 335.322 220.669,335.890 220.393,337.074 220.371 C 338.906 220.336,340.817 219.297,341.494 217.969 C 341.871 217.229,341.990 210.691,341.994 190.300 C 342.000 164.616,342.028 163.600,342.738 163.600 C 345.152 163.600,344.989 167.517,345.106 106.542 C 345.218 47.442,345.300 49.872,343.169 49.129 L 342.000 48.722 341.994 44.661 C 341.987 40.190,341.877 39.840,340.357 39.468 C 339.425 39.241,339.288 38.972,339.081 36.965 C 338.840 34.630,337.977 33.200,336.809 33.200 C 336.370 33.200,336.014 32.686,335.771 31.700 C 335.449 30.400,335.230 30.184,334.123 30.076 C 332.966 29.964,332.834 29.813,332.723 28.476 C 332.608 27.101,332.503 26.992,331.177 26.880 C 329.964 26.778,329.699 26.573,329.377 25.480 C 329.017 24.259,328.876 24.183,326.300 23.837 C 323.739 23.493,323.600 23.419,323.600 22.417 C 323.600 20.783,322.902 20.400,319.920 20.400 C 317.438 20.400,317.200 20.328,317.200 19.574 C 317.200 19.119,317.014 18.399,316.786 17.974 C 316.168 16.819,83.742 16.746,83.317 17.900 M374.514 268.920 C 375.001 269.426,375.474 269.787,375.564 269.723 C 375.798 269.555,374.342 268.000,373.952 268.000 C 373.774 268.000,374.027 268.414,374.514 268.920 M380.770 275.745 C 381.303 276.325,381.820 276.800,381.919 276.800 C 382.313 276.800,380.893 275.032,380.366 274.867 C 380.055 274.770,380.236 275.165,380.770 275.745 M380.575 362.052 C 379.595 363.095,379.548 363.227,380.291 362.843 C 380.781 362.589,381.372 362.026,381.605 361.591 C 382.197 360.485,381.936 360.602,380.575 362.052 M374.514 368.680 C 374.027 369.186,373.774 369.600,373.952 369.600 C 374.342 369.600,375.798 368.045,375.564 367.877 C 375.474 367.813,375.001 368.174,374.514 368.680 " stroke="none" fill="#474f57" fill-rule="evenodd"></path><path id="path1" d="M331.915 255.689 C 331.045 256.366,329.995 256.593,326.618 256.834 C 322.027 257.162,320.682 257.383,318.089 258.235 C 317.148 258.545,314.754 259.152,312.769 259.585 C 310.784 260.019,308.709 260.728,308.158 261.161 C 307.608 261.595,306.010 262.331,304.609 262.797 C 303.207 263.263,301.833 263.919,301.555 264.254 C 301.278 264.589,300.177 265.305,299.109 265.846 C 296.170 267.335,293.031 269.701,288.818 273.600 C 287.986 274.370,286.877 275.386,286.353 275.858 C 285.108 276.980,282.865 279.759,281.568 281.787 C 281.001 282.674,280.211 283.667,279.814 283.994 C 279.416 284.321,278.752 285.379,278.337 286.346 C 277.923 287.313,277.167 288.599,276.657 289.205 C 276.147 289.811,275.489 291.183,275.193 292.253 C 274.898 293.324,274.245 294.830,273.743 295.600 C 273.240 296.370,272.549 298.350,272.208 300.000 C 271.866 301.650,271.097 304.350,270.498 306.000 C 268.826 310.607,268.823 326.961,270.494 331.600 C 271.088 333.250,271.856 335.950,272.201 337.600 C 272.547 339.250,273.250 341.237,273.764 342.015 C 274.278 342.794,274.834 344.054,274.998 344.815 C 275.370 346.542,276.231 348.262,277.456 349.731 C 277.975 350.353,278.400 351.076,278.400 351.338 C 278.400 351.600,279.120 352.686,280.000 353.751 C 280.880 354.816,281.600 355.813,281.600 355.967 C 281.600 357.369,290.297 365.913,295.106 369.235 C 296.897 370.472,297.341 372.253,296.113 373.272 C 294.536 374.581,296.442 376.400,299.392 376.400 C 301.454 376.400,301.600 376.466,301.848 377.500 C 302.302 379.403,302.692 379.600,306.018 379.600 L 309.138 379.600 310.507 381.200 L 311.877 382.800 331.496 382.800 C 352.906 382.800,351.600 382.945,351.600 380.567 C 351.600 379.609,351.638 379.600,355.571 379.600 C 359.902 379.600,360.800 379.217,360.800 377.371 C 360.800 376.459,360.936 376.400,363.026 376.400 C 365.746 376.400,366.800 375.893,366.800 374.586 C 366.800 373.737,366.984 373.600,368.120 373.600 C 369.734 373.600,370.400 372.993,370.400 371.520 C 370.400 370.529,370.546 370.400,371.669 370.400 C 372.650 370.400,373.328 369.992,374.662 368.600 C 375.766 367.448,376.731 366.800,377.344 366.800 C 378.522 366.800,379.022 366.215,379.396 364.400 C 379.701 362.917,381.394 360.800,382.275 360.800 C 382.608 360.800,382.800 360.289,382.800 359.400 C 382.800 358.133,382.907 358.000,383.920 358.000 C 385.393 358.000,386.000 357.334,386.000 355.720 C 386.000 354.597,386.142 354.400,386.951 354.400 C 388.316 354.400,388.766 353.644,389.057 350.859 C 389.290 348.627,389.400 348.400,390.243 348.400 C 391.627 348.400,392.000 347.260,392.000 343.026 C 392.000 339.246,392.012 339.200,392.967 339.200 C 395.345 339.200,395.200 340.506,395.200 319.096 L 395.200 299.477 393.600 298.107 L 392.000 296.738 391.994 293.669 C 391.987 290.221,391.834 289.829,390.358 289.468 C 389.414 289.238,389.291 288.980,389.058 286.748 C 388.767 283.968,388.316 283.200,386.975 283.200 C 386.193 283.200,386.029 282.966,385.924 281.700 C 385.807 280.281,385.719 280.193,384.300 280.076 C 382.842 279.955,382.800 279.908,382.800 278.376 C 382.800 277.342,382.620 276.800,382.275 276.800 C 381.412 276.800,379.688 274.701,379.317 273.200 C 379.049 272.115,378.607 271.620,377.354 271.000 C 376.465 270.560,375.122 269.525,374.371 268.700 C 373.338 267.565,372.695 267.200,371.728 267.200 C 370.579 267.200,370.438 267.069,370.325 265.900 C 370.208 264.680,370.096 264.592,368.500 264.477 C 366.918 264.363,366.800 264.273,366.800 263.191 C 366.800 261.691,365.869 261.200,363.026 261.200 C 360.986 261.200,360.799 261.125,360.794 260.300 C 360.782 258.624,360.257 258.341,356.755 258.124 C 353.482 257.922,353.364 257.879,351.916 256.358 L 350.432 254.800 341.716 254.822 C 333.474 254.843,332.941 254.890,331.915 255.689 M341.200 291.268 C 342.630 291.510,344.261 291.941,344.825 292.225 C 345.388 292.510,347.252 293.102,348.967 293.541 C 350.682 293.981,352.470 294.699,352.942 295.138 C 353.414 295.577,354.748 296.294,355.906 296.732 C 357.064 297.170,358.646 298.084,359.420 298.764 C 360.194 299.444,361.072 300.000,361.370 300.000 C 362.078 300.000,371.527 309.251,372.584 310.980 C 373.033 311.714,373.760 312.821,374.200 313.440 C 374.885 314.403,375.000 315.207,375.000 319.016 L 375.000 323.467 373.700 324.947 C 372.985 325.762,372.400 326.609,372.400 326.830 C 372.400 327.051,371.709 327.909,370.864 328.738 C 370.019 329.566,369.164 330.509,368.964 330.833 C 368.426 331.706,361.271 338.000,360.817 338.000 C 360.603 338.000,359.802 338.550,359.036 339.222 C 358.271 339.894,356.779 340.758,355.722 341.142 C 354.665 341.525,353.189 342.223,352.441 342.691 C 351.694 343.159,349.804 343.851,348.241 344.228 C 346.679 344.604,344.722 345.253,343.893 345.668 C 339.668 347.786,323.296 347.739,318.592 345.596 C 317.627 345.157,315.614 344.520,314.119 344.180 C 312.624 343.841,310.913 343.212,310.318 342.783 C 309.723 342.354,308.283 341.628,307.118 341.171 C 305.953 340.714,304.640 340.012,304.200 339.612 C 303.760 339.212,302.784 338.515,302.031 338.065 C 299.046 336.278,291.648 329.161,290.530 327.000 C 290.188 326.340,289.434 325.294,288.854 324.675 C 287.890 323.645,287.788 323.217,287.665 319.646 C 287.447 313.371,288.789 311.295,299.526 301.300 C 300.294 300.585,301.133 300.000,301.389 300.000 C 301.646 300.000,302.563 299.404,303.428 298.676 C 304.293 297.947,305.630 297.112,306.400 296.819 C 307.170 296.526,308.486 295.830,309.324 295.272 C 310.163 294.714,312.053 293.945,313.524 293.564 C 314.996 293.182,317.280 292.477,318.600 291.996 C 322.715 290.497,334.409 290.121,341.200 291.268 M327.200 303.949 C 326.650 304.130,324.790 305.236,323.066 306.406 C 320.011 308.479,319.501 309.086,316.923 313.705 C 316.188 315.024,315.881 319.176,316.337 321.643 C 316.979 325.118,320.073 329.670,322.819 331.180 C 323.798 331.719,324.833 332.389,325.118 332.669 C 326.732 334.257,335.065 334.432,337.137 332.921 C 337.721 332.494,338.920 331.737,339.800 331.239 C 341.313 330.382,342.360 329.241,344.608 326.000 C 349.094 319.534,346.515 310.812,338.600 305.686 C 335.671 303.788,330.208 302.956,327.200 303.949 " stroke="none" fill="#75c4fc" fill-rule="evenodd"></path><path id="path2" d="M96.800 39.088 C 96.250 39.188,95.440 39.602,95.000 40.008 C 93.955 40.973,92.261 41.598,90.674 41.606 C 89.175 41.613,88.817 41.831,87.882 43.300 C 87.497 43.905,86.910 44.400,86.577 44.400 C 86.245 44.400,85.606 45.022,85.157 45.782 C 84.709 46.543,84.005 47.271,83.594 47.402 C 83.105 47.557,82.621 48.412,82.200 49.860 C 81.826 51.146,81.101 52.501,80.477 53.079 L 79.400 54.077 79.400 200.139 L 79.400 346.200 80.689 347.458 C 81.558 348.307,82.064 349.258,82.244 350.385 C 82.425 351.520,82.820 352.257,83.476 352.687 C 84.007 353.034,84.695 353.811,85.006 354.413 C 85.318 355.014,86.025 355.620,86.579 355.759 C 87.133 355.898,87.863 356.548,88.203 357.206 C 88.659 358.087,89.106 358.401,89.910 358.402 C 91.693 358.406,93.898 359.166,95.127 360.200 L 96.279 361.170 169.257 361.285 C 249.529 361.412,243.846 361.234,244.738 363.645 C 244.901 364.084,245.471 364.661,246.005 364.927 C 247.402 365.624,247.943 366.983,248.222 370.500 L 248.468 373.600 271.992 373.600 L 295.516 373.600 295.670 371.986 C 295.815 370.466,295.731 370.318,294.212 369.416 C 290.399 367.151,282.480 359.216,280.798 355.973 C 280.391 355.189,279.761 354.300,279.398 353.998 C 279.035 353.697,278.301 352.629,277.768 351.625 C 277.234 350.621,276.426 349.336,275.972 348.768 C 275.517 348.201,274.975 346.978,274.767 346.051 C 274.559 345.123,273.926 343.667,273.361 342.813 C 272.791 341.951,272.007 339.781,271.598 337.931 C 271.193 336.099,270.479 333.742,270.010 332.694 C 268.137 328.506,267.991 310.457,269.791 305.600 C 270.158 304.610,270.906 302.090,271.453 300.000 C 272.001 297.910,272.885 295.533,273.418 294.718 C 273.952 293.902,274.559 292.477,274.767 291.549 C 274.975 290.622,275.517 289.399,275.971 288.832 C 276.425 288.264,277.182 287.080,277.653 286.200 C 278.124 285.320,278.944 284.060,279.476 283.400 C 280.007 282.740,281.248 281.089,282.232 279.731 C 284.291 276.890,285.054 276.078,289.416 272.088 C 292.893 268.908,295.720 266.841,298.200 265.663 C 299.080 265.246,300.136 264.528,300.546 264.069 C 300.957 263.610,302.432 262.855,303.825 262.392 C 305.217 261.928,306.840 261.169,307.431 260.704 C 308.026 260.236,310.223 259.456,312.353 258.956 C 314.469 258.459,317.010 257.755,318.000 257.392 C 319.019 257.018,322.143 256.562,325.200 256.341 C 328.170 256.127,331.095 255.761,331.700 255.527 L 332.800 255.103 332.800 237.975 C 332.800 226.933,332.657 220.759,332.398 220.599 C 332.102 220.416,327.614 219.821,324.910 219.607 C 324.861 219.603,324.547 219.070,324.212 218.422 C 323.877 217.775,323.119 217.010,322.527 216.722 C 320.756 215.862,320.775 216.702,320.686 133.367 L 320.600 52.934 319.300 51.453 C 318.585 50.639,318.000 49.690,318.000 49.345 C 318.000 48.598,314.688 44.821,313.507 44.221 C 313.051 43.989,312.481 43.440,312.239 43.000 C 311.613 41.860,311.169 41.613,309.726 41.606 C 308.067 41.598,306.429 40.962,305.268 39.873 L 304.336 39.000 201.068 38.953 C 144.271 38.926,97.350 38.987,96.800 39.088 M322.800 291.563 C 321.590 291.735,320.025 292.172,319.322 292.536 C 318.619 292.900,316.591 293.536,314.815 293.950 C 313.038 294.363,310.913 295.162,310.092 295.724 C 309.272 296.286,307.790 297.055,306.800 297.433 C 305.810 297.811,304.540 298.543,303.978 299.060 C 303.416 299.577,302.739 300.000,302.473 300.000 C 301.397 300.000,291.515 309.723,290.640 311.643 C 290.300 312.389,289.638 313.473,289.169 314.052 C 287.356 316.287,287.776 322.965,289.842 324.762 C 290.369 325.220,290.800 325.841,290.800 326.141 C 290.800 326.442,291.425 327.351,292.189 328.161 C 292.954 328.972,293.809 329.942,294.091 330.317 C 294.373 330.693,295.593 331.863,296.802 332.917 C 298.011 333.971,299.630 335.385,300.400 336.058 C 303.701 338.945,311.224 342.817,315.424 343.791 C 316.900 344.133,318.668 344.674,319.354 344.993 C 323.856 347.086,338.073 347.244,342.580 345.250 C 343.532 344.829,345.636 344.184,347.255 343.818 C 348.875 343.451,350.941 342.718,351.847 342.190 C 352.753 341.661,354.520 340.845,355.774 340.375 C 357.029 339.906,358.155 339.262,358.277 338.944 C 358.399 338.626,359.214 338.001,360.089 337.554 C 362.496 336.327,371.993 327.189,371.998 326.097 C 371.999 325.821,372.437 325.215,372.971 324.750 C 374.992 322.993,375.402 316.232,373.621 314.039 C 373.157 313.467,372.521 312.460,372.206 311.800 C 371.733 310.807,367.791 306.619,362.800 301.804 C 362.250 301.274,361.170 300.573,360.400 300.248 C 359.630 299.923,358.704 299.304,358.342 298.873 C 357.980 298.442,356.630 297.696,355.342 297.216 C 354.054 296.735,352.632 295.998,352.181 295.578 C 351.731 295.157,349.873 294.442,348.052 293.989 C 346.231 293.536,343.809 292.790,342.671 292.332 C 340.391 291.415,327.401 290.913,322.800 291.563 M334.473 303.177 C 336.565 303.520,337.872 304.195,341.913 307.019 C 342.416 307.370,343.301 308.410,343.881 309.329 C 344.461 310.248,345.400 311.704,345.968 312.565 C 347.536 314.944,347.529 322.673,345.956 325.033 C 345.382 325.895,344.538 327.233,344.081 328.007 C 340.463 334.131,330.255 336.702,324.316 332.985 C 319.940 330.246,319.401 329.731,317.600 326.564 L 315.800 323.400 315.800 318.800 C 315.800 308.434,324.112 301.480,334.473 303.177 " stroke="none" fill="#ececf3" fill-rule="evenodd"></path><path id="path3" d="M94.717 38.795 C 94.121 38.975,93.129 39.481,92.513 39.920 C 91.897 40.358,90.598 40.931,89.626 41.193 C 87.360 41.803,83.194 45.725,81.793 48.565 C 81.241 49.684,80.387 51.108,79.895 51.729 L 79.000 52.859 78.879 198.729 C 78.755 347.658,78.762 348.504,80.202 349.056 C 80.495 349.169,81.198 350.239,81.765 351.435 C 83.085 354.225,87.196 358.236,89.400 358.885 C 90.280 359.144,91.690 359.783,92.534 360.304 C 95.228 361.971,96.340 361.995,169.000 362.000 C 217.667 362.003,239.875 362.136,240.938 362.432 C 243.702 363.199,246.750 366.721,247.606 370.135 L 248.324 373.000 248.115 370.000 C 247.893 366.812,247.216 365.234,245.929 364.897 C 245.494 364.784,244.980 364.275,244.787 363.766 C 243.816 361.213,249.879 361.412,169.257 361.285 L 96.279 361.170 95.127 360.200 C 93.898 359.166,91.693 358.406,89.910 358.402 C 89.106 358.401,88.659 358.087,88.203 357.206 C 87.863 356.548,87.133 355.898,86.579 355.759 C 86.025 355.620,85.318 355.014,85.006 354.413 C 84.695 353.811,84.007 353.034,83.476 352.687 C 82.820 352.257,82.425 351.520,82.244 350.385 C 82.064 349.258,81.558 348.307,80.689 347.458 L 79.400 346.200 79.400 200.139 L 79.400 54.077 80.477 53.079 C 81.101 52.501,81.826 51.146,82.200 49.860 C 82.621 48.412,83.105 47.557,83.594 47.402 C 84.005 47.271,84.709 46.543,85.157 45.782 C 85.606 45.022,86.245 44.400,86.577 44.400 C 86.910 44.400,87.497 43.905,87.882 43.300 C 88.817 41.831,89.175 41.613,90.674 41.606 C 92.333 41.598,93.970 40.962,95.132 39.873 L 96.064 39.000 200.200 39.000 L 304.336 39.000 305.268 39.873 C 306.430 40.962,308.067 41.598,309.726 41.606 C 311.169 41.613,311.613 41.860,312.239 43.000 C 312.481 43.440,313.051 43.989,313.507 44.221 C 314.688 44.821,318.000 48.598,318.000 49.345 C 318.000 49.690,318.585 50.639,319.300 51.453 L 320.600 52.934 320.686 133.367 C 320.775 216.702,320.756 215.862,322.527 216.722 C 323.119 217.010,323.864 217.751,324.184 218.369 C 324.796 219.553,326.048 220.000,328.753 220.000 C 329.552 220.000,330.822 220.177,331.576 220.393 C 332.492 220.656,332.813 220.653,332.545 220.385 C 332.324 220.164,330.769 219.745,329.088 219.452 C 325.425 218.815,321.692 215.693,321.505 213.109 C 321.453 212.389,321.408 175.949,321.405 132.131 L 321.400 52.461 320.523 51.331 C 320.041 50.709,318.985 49.120,318.178 47.800 C 316.304 44.739,312.972 41.783,310.718 41.183 C 309.773 40.931,308.697 40.455,308.326 40.125 C 306.362 38.372,310.357 38.434,200.200 38.452 C 142.780 38.461,95.312 38.616,94.717 38.795 M331.600 255.563 C 331.270 255.750,328.480 256.088,325.400 256.315 C 322.198 256.551,319.029 257.011,318.000 257.390 C 317.010 257.754,314.469 258.459,312.353 258.956 C 310.223 259.456,308.026 260.236,307.431 260.704 C 306.840 261.169,305.217 261.928,303.825 262.392 C 302.432 262.855,300.957 263.610,300.546 264.069 C 300.136 264.528,299.080 265.246,298.200 265.663 C 295.720 266.841,292.893 268.908,289.416 272.088 C 285.054 276.078,284.291 276.890,282.232 279.731 C 281.248 281.089,280.007 282.740,279.476 283.400 C 278.944 284.060,278.124 285.320,277.653 286.200 C 277.182 287.080,276.425 288.264,275.971 288.832 C 275.517 289.399,274.975 290.622,274.767 291.549 C 274.559 292.477,273.952 293.902,273.418 294.718 C 272.885 295.533,272.001 297.910,271.453 300.000 C 270.906 302.090,270.158 304.610,269.791 305.600 C 267.991 310.457,268.137 328.506,270.010 332.694 C 270.479 333.742,271.193 336.099,271.598 337.931 C 272.007 339.781,272.791 341.951,273.361 342.813 C 273.926 343.667,274.559 345.123,274.767 346.051 C 274.975 346.978,275.517 348.201,275.972 348.768 C 276.426 349.336,277.234 350.621,277.768 351.625 C 278.301 352.629,279.035 353.697,279.398 353.998 C 279.761 354.300,280.391 355.189,280.798 355.973 C 282.487 359.229,290.332 367.076,294.309 369.487 C 295.668 370.310,295.763 370.494,295.650 372.066 C 295.549 373.463,295.623 373.679,296.077 373.302 C 297.339 372.255,296.917 370.486,295.106 369.235 C 290.297 365.913,281.600 357.369,281.600 355.967 C 281.600 355.813,280.880 354.816,280.000 353.751 C 279.120 352.686,278.400 351.600,278.400 351.338 C 278.400 351.076,277.975 350.353,277.456 349.731 C 276.231 348.262,275.370 346.542,274.998 344.815 C 274.834 344.054,274.278 342.794,273.764 342.015 C 273.250 341.237,272.547 339.250,272.201 337.600 C 271.856 335.950,271.088 333.250,270.494 331.600 C 268.823 326.961,268.826 310.607,270.498 306.000 C 271.097 304.350,271.866 301.650,272.208 300.000 C 272.549 298.350,273.240 296.370,273.743 295.600 C 274.245 294.830,274.898 293.324,275.193 292.253 C 275.489 291.183,276.147 289.811,276.657 289.205 C 277.167 288.599,277.923 287.313,278.337 286.346 C 278.752 285.379,279.416 284.321,279.814 283.994 C 280.211 283.667,281.001 282.674,281.568 281.787 C 282.865 279.759,285.108 276.980,286.353 275.858 C 286.877 275.386,287.986 274.370,288.818 273.600 C 293.031 269.701,296.170 267.335,299.109 265.846 C 300.177 265.305,301.278 264.589,301.555 264.254 C 301.833 263.919,303.207 263.263,304.609 262.797 C 306.010 262.331,307.608 261.595,308.158 261.161 C 308.709 260.728,310.784 260.019,312.769 259.585 C 314.754 259.152,317.148 258.538,318.089 258.220 C 320.412 257.437,324.511 256.807,327.313 256.803 C 329.395 256.800,332.400 255.984,332.400 255.420 C 332.400 255.139,332.328 255.152,331.600 255.563 M325.200 290.802 C 322.605 291.000,320.083 291.456,318.600 291.996 C 317.280 292.477,314.996 293.182,313.524 293.564 C 312.053 293.945,310.163 294.714,309.324 295.272 C 308.486 295.830,307.170 296.526,306.400 296.819 C 305.630 297.112,304.293 297.947,303.428 298.676 C 302.563 299.404,301.646 300.000,301.389 300.000 C 301.133 300.000,300.294 300.585,299.526 301.300 C 288.789 311.295,287.447 313.371,287.665 319.646 C 287.788 323.217,287.890 323.645,288.854 324.675 C 289.434 325.294,290.188 326.340,290.530 327.000 C 291.648 329.161,299.046 336.278,302.031 338.065 C 302.784 338.515,303.760 339.212,304.200 339.612 C 304.640 340.012,305.953 340.714,307.118 341.171 C 308.283 341.628,309.723 342.354,310.318 342.783 C 310.913 343.212,312.624 343.841,314.119 344.180 C 315.614 344.520,317.627 345.157,318.592 345.596 C 323.296 347.739,339.668 347.786,343.893 345.668 C 344.722 345.253,346.679 344.604,348.241 344.228 C 349.804 343.851,351.694 343.159,352.441 342.691 C 353.189 342.223,354.665 341.525,355.722 341.142 C 356.779 340.758,358.271 339.894,359.036 339.222 C 359.802 338.550,360.603 338.000,360.817 338.000 C 361.271 338.000,368.426 331.706,368.964 330.833 C 369.164 330.509,370.019 329.566,370.864 328.738 C 371.709 327.909,372.400 327.051,372.400 326.830 C 372.400 326.609,372.985 325.762,373.700 324.947 L 375.000 323.467 375.000 319.016 C 375.000 315.207,374.885 314.403,374.200 313.440 C 373.760 312.821,373.033 311.714,372.584 310.980 C 371.527 309.251,362.078 300.000,361.370 300.000 C 361.072 300.000,360.194 299.444,359.420 298.764 C 358.646 298.084,357.064 297.170,355.906 296.732 C 354.748 296.294,353.414 295.577,352.942 295.138 C 352.470 294.699,350.682 293.981,348.967 293.541 C 347.252 293.102,345.388 292.510,344.825 292.225 C 342.268 290.934,332.640 290.236,325.200 290.802 M342.671 292.332 C 343.809 292.790,346.231 293.536,348.052 293.989 C 349.873 294.442,351.731 295.157,352.181 295.578 C 352.632 295.998,354.054 296.735,355.342 297.216 C 356.630 297.696,357.980 298.442,358.342 298.873 C 358.704 299.304,359.630 299.923,360.400 300.248 C 361.170 300.573,362.250 301.274,362.800 301.804 C 367.791 306.619,371.733 310.807,372.206 311.800 C 372.521 312.460,373.157 313.467,373.621 314.039 C 375.402 316.232,374.992 322.993,372.971 324.750 C 372.437 325.215,371.999 325.821,371.998 326.097 C 371.993 327.189,362.496 336.327,360.089 337.554 C 359.214 338.001,358.399 338.626,358.277 338.944 C 358.155 339.262,357.029 339.906,355.774 340.375 C 354.520 340.845,352.753 341.661,351.847 342.190 C 350.941 342.718,348.875 343.451,347.255 343.818 C 345.636 344.184,343.532 344.829,342.580 345.250 C 338.073 347.244,323.856 347.086,319.354 344.993 C 318.668 344.674,316.900 344.133,315.424 343.791 C 311.224 342.817,303.701 338.945,300.400 336.058 C 299.630 335.385,298.011 333.971,296.802 332.917 C 295.593 331.863,294.373 330.693,294.091 330.317 C 293.809 329.942,292.954 328.972,292.189 328.161 C 291.425 327.351,290.800 326.442,290.800 326.141 C 290.800 325.841,290.369 325.220,289.842 324.762 C 287.776 322.965,287.356 316.287,289.169 314.052 C 289.638 313.473,290.300 312.389,290.640 311.643 C 291.515 309.723,301.397 300.000,302.473 300.000 C 302.739 300.000,303.416 299.577,303.978 299.060 C 304.540 298.543,305.810 297.811,306.800 297.433 C 307.790 297.055,309.272 296.286,310.092 295.724 C 310.913 295.162,313.038 294.363,314.815 293.950 C 316.591 293.536,318.619 292.900,319.322 292.536 C 322.400 290.943,338.858 290.799,342.671 292.332 M327.983 303.163 C 321.335 304.098,315.800 311.203,315.800 318.800 L 315.800 323.400 317.600 326.564 C 319.401 329.731,319.940 330.246,324.316 332.985 C 330.255 336.702,340.463 334.131,344.081 328.007 C 344.538 327.233,345.382 325.895,345.956 325.033 C 347.529 322.673,347.536 314.944,345.968 312.565 C 345.400 311.704,344.461 310.248,343.881 309.329 C 342.807 307.626,342.599 307.445,338.873 304.965 C 335.977 303.038,332.711 302.497,327.983 303.163 M338.600 305.686 C 346.515 310.812,349.094 319.534,344.608 326.000 C 342.360 329.241,341.313 330.382,339.800 331.239 C 338.920 331.737,337.721 332.494,337.137 332.921 C 335.065 334.432,326.732 334.257,325.118 332.669 C 324.833 332.389,323.798 331.719,322.819 331.180 C 320.073 329.670,316.979 325.118,316.337 321.643 C 315.881 319.176,316.188 315.024,316.923 313.705 C 321.112 306.199,325.171 303.518,332.000 303.745 C 335.743 303.870,335.842 303.899,338.600 305.686 " stroke="none" fill="#e0e4e4" fill-rule="evenodd"></path><path id="path4" d="M94.698 37.189 C 92.820 37.380,91.722 37.714,91.098 38.281 C 90.604 38.731,89.030 39.653,87.600 40.330 C 84.641 41.731,82.188 44.086,80.652 47.000 C 80.072 48.100,79.228 49.461,78.776 50.025 C 78.263 50.667,77.812 52.089,77.572 53.825 C 77.101 57.238,77.291 346.895,77.765 348.490 C 77.943 349.089,78.522 350.046,79.051 350.617 C 79.579 351.187,80.287 352.317,80.624 353.127 C 81.514 355.271,85.374 359.004,87.762 360.032 C 88.877 360.511,90.408 361.375,91.163 361.952 L 92.538 363.000 166.003 363.200 L 239.469 363.400 241.172 364.581 C 243.468 366.172,245.520 368.639,246.068 370.468 C 246.315 371.295,246.964 372.383,247.509 372.886 C 248.431 373.737,248.483 373.745,248.262 373.000 C 248.131 372.560,247.768 371.091,247.456 369.735 C 246.766 366.742,243.572 363.163,240.938 362.432 C 239.875 362.136,217.667 362.003,169.000 362.000 C 96.340 361.995,95.228 361.971,92.534 360.304 C 91.690 359.783,90.280 359.144,89.400 358.885 C 87.196 358.236,83.085 354.225,81.765 351.435 C 81.198 350.239,80.495 349.169,80.202 349.056 C 78.762 348.504,78.755 347.658,78.879 198.729 L 79.000 52.859 79.895 51.729 C 80.387 51.108,81.241 49.684,81.793 48.565 C 83.179 45.755,87.362 41.803,89.583 41.204 C 90.532 40.949,92.035 40.259,92.925 39.670 L 94.542 38.600 198.771 38.483 C 308.999 38.360,305.579 38.319,307.766 39.803 C 308.546 40.332,309.915 40.962,310.809 41.203 C 312.969 41.784,316.347 44.809,318.178 47.800 C 318.985 49.120,320.041 50.709,320.523 51.331 L 321.400 52.461 321.405 132.131 C 321.408 175.949,321.453 212.397,321.505 213.127 C 321.674 215.496,325.676 219.017,328.615 219.385 C 329.898 219.545,331.365 219.834,331.874 220.028 C 332.383 220.222,332.800 220.227,332.800 220.039 C 332.800 219.398,331.648 218.741,329.250 218.015 C 326.729 217.252,323.950 214.889,323.116 212.800 C 322.618 211.553,322.671 150.464,323.216 97.200 C 323.645 55.259,323.516 51.831,321.412 49.257 C 320.937 48.676,320.123 47.480,319.604 46.600 C 318.190 44.201,315.152 41.327,312.953 40.306 C 311.879 39.808,310.396 38.969,309.658 38.443 C 308.683 37.747,307.480 37.398,305.258 37.164 C 301.551 36.775,98.526 36.799,94.698 37.189 " stroke="none" fill="#acacb4" fill-rule="evenodd"></path></g></svg>