<svg id="svg" xmlns="http://www.w3.org/2000/svg" xmlns:xlink="http://www.w3.org/1999/xlink" width="400" height="400" viewBox="0, 0, 400,400"><g id="svgg"><path id="path0" d="M8.184 8.500 C 8.079 8.775,8.040 22.140,8.097 38.200 L 8.200 67.400 10.500 67.520 L 12.800 67.640 12.800 69.777 C 12.800 72.224,13.015 72.400,16.014 72.400 L 17.962 72.400 18.081 74.900 L 18.200 77.400 20.500 77.520 L 22.800 77.640 22.800 79.540 C 22.800 81.962,23.272 82.400,25.880 82.400 C 27.997 82.400,28.000 82.402,28.039 83.700 C 28.112 86.105,28.198 86.600,28.555 86.666 C 28.751 86.702,29.066 86.972,29.255 87.266 C 29.538 87.703,29.671 87.692,29.994 87.200 C 30.301 86.733,30.389 86.721,30.394 87.145 C 30.398 87.523,30.769 87.637,31.600 87.515 C 32.840 87.333,33.056 87.790,32.821 90.100 C 32.782 90.485,32.935 90.800,33.162 90.800 C 33.389 90.800,33.471 91.070,33.345 91.400 C 33.195 91.790,33.374 92.024,33.857 92.068 C 34.266 92.106,34.870 92.177,35.200 92.226 C 35.530 92.275,36.295 92.334,36.900 92.357 C 37.946 92.398,38.000 92.497,38.000 94.377 C 38.000 96.913,40.945 99.059,41.735 97.100 C 41.896 96.700,41.943 96.700,41.968 97.100 C 41.986 97.375,42.239 97.600,42.531 97.600 C 42.893 97.600,43.006 97.981,42.885 98.800 C 42.782 99.503,42.889 100.000,43.142 100.000 C 43.380 100.000,43.471 100.270,43.345 100.600 C 43.218 100.930,43.324 101.200,43.581 101.200 C 43.837 101.200,43.943 101.368,43.816 101.574 C 43.542 102.018,46.950 102.602,47.572 102.218 C 47.984 101.962,48.171 103.115,48.026 105.021 C 47.942 106.120,49.356 107.357,50.387 107.088 C 50.834 106.971,51.200 107.038,51.200 107.237 C 51.200 107.437,51.875 107.614,52.700 107.632 C 53.525 107.649,53.975 107.754,53.700 107.865 C 53.094 108.109,53.026 110.000,53.624 110.000 C 53.857 110.000,53.931 110.188,53.789 110.418 C 53.401 111.045,54.417 112.049,55.366 111.976 C 57.194 111.835,58.000 112.023,58.000 112.592 C 58.000 114.687,59.236 116.265,61.416 116.953 C 63.006 117.454,63.600 117.838,63.600 118.366 C 63.600 119.625,65.141 121.116,67.121 121.774 C 68.427 122.208,69.254 122.783,69.731 123.590 C 70.114 124.240,70.949 125.079,71.586 125.455 C 72.222 125.831,72.829 126.468,72.934 126.869 C 73.093 127.476,73.539 127.600,75.563 127.600 L 78.000 127.600 78.000 130.000 L 78.000 132.400 80.400 132.400 L 82.800 132.400 82.800 134.520 C 82.800 137.167,83.231 137.600,85.860 137.600 L 87.960 137.600 88.080 139.900 L 88.200 142.200 90.500 142.320 L 92.800 142.440 92.800 144.540 C 92.800 147.169,93.233 147.600,95.880 147.600 L 98.000 147.600 98.000 149.757 C 98.000 152.222,98.214 152.400,101.177 152.400 C 103.022 152.400,103.082 152.437,102.890 153.443 C 102.767 154.083,102.905 154.621,103.245 154.836 C 103.644 155.089,103.660 155.189,103.300 155.194 C 102.524 155.203,102.710 156.145,103.647 156.948 C 104.259 157.471,104.982 157.634,106.247 157.534 L 108.000 157.394 108.047 159.197 C 108.073 160.189,108.071 161.203,108.041 161.452 C 107.975 162.005,109.298 162.387,111.300 162.395 C 112.743 162.400,112.800 162.453,112.800 163.781 C 112.800 166.518,115.349 168.870,116.444 167.143 C 116.697 166.743,116.789 166.732,116.794 167.100 C 116.797 167.375,117.070 167.600,117.400 167.600 C 117.780 167.600,118.012 168.004,118.033 168.700 C 118.135 172.055,118.156 172.080,120.905 172.147 C 122.901 172.196,123.038 172.262,122.878 173.100 C 122.784 173.595,122.883 174.000,123.098 174.000 C 123.313 174.000,123.408 174.422,123.310 174.937 C 123.075 176.168,124.232 177.325,125.463 177.090 C 125.978 176.992,126.400 177.066,126.400 177.255 C 126.400 177.445,126.825 177.600,127.345 177.600 C 128.128 177.600,128.258 177.765,128.104 178.569 C 127.772 180.303,129.112 181.951,130.834 181.927 C 132.821 181.900,133.153 182.165,133.449 184.015 C 133.744 185.863,134.196 186.306,136.468 186.977 C 138.195 187.487,138.521 187.809,139.167 189.639 C 139.521 190.642,141.469 191.867,143.260 192.212 C 144.121 192.377,145.165 193.475,145.187 194.237 C 145.194 194.477,145.830 195.013,146.600 195.428 C 147.390 195.853,148.000 196.491,148.000 196.891 C 148.000 197.491,148.369 197.600,150.400 197.600 L 152.800 197.600 152.800 199.367 C 152.800 202.211,152.977 202.400,155.642 202.400 L 157.998 202.400 158.099 269.900 L 158.200 337.400 160.451 337.518 L 162.702 337.637 162.893 339.627 C 163.130 342.092,163.134 342.096,165.722 342.310 C 167.842 342.486,167.843 342.487,168.511 344.367 C 169.292 346.566,171.596 347.600,175.715 347.600 L 177.960 347.600 178.080 349.900 L 178.200 352.200 180.500 352.320 L 182.800 352.440 182.800 354.220 C 182.800 356.598,183.789 357.600,186.137 357.600 C 187.817 357.600,187.889 357.652,188.353 359.202 C 189.028 361.455,190.103 362.007,194.348 362.282 L 197.965 362.516 198.082 364.958 L 198.200 367.400 200.451 367.518 L 202.702 367.637 202.893 369.627 C 203.130 372.092,203.134 372.096,205.722 372.310 C 207.842 372.486,207.843 372.487,208.511 374.367 C 209.292 376.566,211.596 377.600,215.715 377.600 L 217.960 377.600 218.080 379.900 L 218.200 382.200 220.500 382.320 L 222.800 382.440 222.800 384.220 C 222.800 386.598,223.789 387.600,226.137 387.600 C 227.817 387.600,227.889 387.652,228.353 389.202 C 229.145 391.845,230.046 392.173,236.563 392.187 L 242.200 392.200 242.301 297.300 L 242.402 202.400 244.758 202.400 C 247.423 202.400,247.600 202.211,247.600 199.367 L 247.600 197.600 249.837 197.600 C 251.668 197.600,252.110 197.467,252.266 196.869 C 252.371 196.468,252.978 195.831,253.614 195.455 C 254.251 195.079,255.087 194.238,255.472 193.586 C 255.857 192.934,256.314 192.378,256.486 192.350 C 258.777 191.985,260.695 190.729,261.440 189.106 C 262.085 187.703,262.499 187.353,264.174 186.800 C 266.008 186.194,266.195 186.008,266.806 184.174 C 267.431 182.299,267.543 182.193,269.032 182.070 C 271.135 181.897,272.000 181.042,272.000 179.138 C 272.000 177.764,272.107 177.600,273.000 177.600 C 273.550 177.600,274.000 177.437,274.000 177.237 C 274.000 177.038,274.366 176.971,274.813 177.088 C 275.941 177.383,277.307 176.074,277.085 174.911 C 276.989 174.410,277.087 174.000,277.302 174.000 C 277.517 174.000,277.616 173.595,277.522 173.100 C 277.362 172.262,277.499 172.196,279.495 172.147 C 282.105 172.083,282.033 172.152,282.125 169.645 L 282.200 167.606 283.918 167.603 C 286.249 167.599,287.600 166.283,287.600 164.018 C 287.600 162.753,287.753 162.394,288.300 162.374 C 292.197 162.232,292.248 162.180,292.374 158.197 C 292.397 157.492,292.623 157.412,294.222 157.539 C 295.552 157.645,296.254 157.494,296.822 156.980 C 297.701 156.185,297.853 155.203,297.100 155.194 C 296.740 155.189,296.756 155.089,297.155 154.836 C 297.495 154.621,297.633 154.083,297.510 153.443 C 297.316 152.428,297.367 152.400,299.375 152.400 C 301.930 152.400,302.400 151.953,302.400 149.520 L 302.400 147.600 304.520 147.600 C 307.167 147.600,307.600 147.169,307.600 144.540 L 307.600 142.440 309.900 142.320 L 312.200 142.200 312.320 139.900 L 312.440 137.600 314.540 137.600 C 317.169 137.600,317.600 137.167,317.600 134.520 L 317.600 132.400 319.757 132.400 C 322.202 132.400,322.400 132.173,322.400 129.367 L 322.400 127.600 324.837 127.600 C 326.934 127.600,327.304 127.489,327.483 126.805 C 327.597 126.367,328.301 125.632,329.046 125.171 C 329.792 124.711,330.501 123.935,330.624 123.447 C 330.782 122.818,331.362 122.409,332.627 122.035 C 334.959 121.347,336.319 120.239,336.474 118.901 C 336.578 118.007,336.946 117.695,338.600 117.096 C 340.943 116.247,342.000 115.153,342.000 113.579 C 342.000 112.191,342.429 111.901,344.440 111.928 C 346.192 111.953,347.443 110.384,347.101 108.592 C 346.946 107.781,347.123 107.660,348.793 107.439 C 351.442 107.087,351.981 106.560,352.099 104.200 L 352.200 102.200 354.328 102.178 C 356.471 102.156,357.402 101.573,357.008 100.500 C 356.908 100.225,357.020 100.000,357.258 100.000 C 357.511 100.000,357.618 99.503,357.515 98.800 C 357.400 98.016,357.511 97.600,357.836 97.600 C 358.110 97.600,358.424 97.375,358.535 97.100 C 358.696 96.700,358.743 96.700,358.768 97.100 C 358.810 97.761,360.456 97.740,361.376 97.067 C 361.858 96.715,362.172 95.835,362.303 94.467 C 362.486 92.568,362.587 92.397,363.551 92.357 C 364.128 92.334,364.870 92.275,365.200 92.226 C 365.530 92.177,366.134 92.106,366.543 92.068 C 367.026 92.024,367.205 91.790,367.055 91.400 C 366.929 91.070,367.011 90.800,367.238 90.800 C 367.465 90.800,367.618 90.485,367.579 90.100 C 367.344 87.790,367.560 87.333,368.800 87.515 C 369.631 87.637,370.002 87.523,370.006 87.145 C 370.011 86.718,370.104 86.730,370.437 87.200 C 370.758 87.654,370.910 87.678,371.065 87.298 C 371.177 87.021,371.420 86.889,371.605 87.003 C 372.086 87.300,372.369 86.077,372.278 84.100 L 372.200 82.400 374.126 82.400 C 377.039 82.400,377.600 81.946,377.600 79.586 L 377.600 77.600 379.757 77.600 C 382.229 77.600,382.400 77.391,382.400 74.367 L 382.400 72.400 384.367 72.400 C 387.391 72.400,387.600 72.229,387.600 69.757 L 387.600 67.600 389.792 67.600 C 392.669 67.600,392.443 70.347,392.313 37.000 L 392.200 8.200 200.288 8.100 C 46.968 8.019,8.337 8.100,8.184 8.500 M379.442 18.870 C 382.034 19.807,382.070 20.118,381.914 39.825 C 381.753 60.195,381.823 59.765,378.399 61.239 C 377.043 61.822,376.400 62.334,376.400 62.830 C 376.400 63.686,373.741 66.400,372.903 66.400 C 372.303 66.400,370.836 67.926,370.813 68.574 C 370.793 69.151,369.123 70.800,368.559 70.800 C 367.860 70.800,365.200 73.373,365.200 74.050 C 365.200 74.355,364.705 74.824,364.100 75.092 C 362.947 75.603,361.153 77.215,359.800 78.957 C 359.360 79.523,358.145 80.542,357.100 81.222 C 356.055 81.901,355.200 82.714,355.200 83.029 C 355.200 83.343,355.061 83.600,354.892 83.600 C 354.484 83.600,350.795 86.845,348.023 89.643 C 346.800 90.877,345.377 92.020,344.861 92.183 C 343.735 92.538,342.813 93.455,341.996 95.034 C 341.664 95.676,340.614 96.594,339.658 97.077 C 338.538 97.644,337.636 98.491,337.111 99.470 C 336.134 101.293,335.418 101.864,333.703 102.189 C 332.721 102.375,332.342 102.698,332.140 103.518 C 331.694 105.328,330.867 106.250,329.192 106.803 C 327.652 107.311,326.400 108.862,326.400 110.261 C 326.400 110.558,326.130 110.800,325.800 110.800 C 325.470 110.800,325.200 110.978,325.200 111.195 C 325.200 111.413,324.498 111.703,323.641 111.840 C 322.331 112.049,322.046 112.271,321.855 113.226 C 321.558 114.712,320.068 116.400,319.054 116.400 C 318.064 116.400,316.400 117.905,316.400 118.800 C 316.400 119.646,314.971 120.924,313.273 121.595 C 312.334 121.966,311.768 122.563,311.339 123.636 C 310.753 125.099,309.345 126.400,308.346 126.400 C 307.611 126.400,306.400 127.640,306.400 128.392 C 306.400 129.289,304.926 130.621,303.080 131.392 C 302.125 131.791,301.422 132.422,301.163 133.111 C 300.699 134.350,299.502 135.519,297.781 136.415 C 297.132 136.753,296.182 137.788,295.670 138.715 C 295.057 139.826,294.375 140.489,293.670 140.660 C 292.469 140.953,291.241 142.090,290.460 143.632 C 290.173 144.200,289.366 144.996,288.669 145.402 C 287.971 145.808,286.381 147.143,285.136 148.370 C 281.652 151.801,278.875 154.364,275.689 157.090 C 274.088 158.460,272.378 160.039,271.889 160.600 C 271.400 161.160,270.373 161.929,269.606 162.309 C 268.839 162.689,268.029 163.361,267.806 163.803 C 266.900 165.597,266.047 166.424,264.311 167.192 C 262.969 167.786,262.415 168.290,262.214 169.099 C 261.854 170.551,260.468 171.998,259.430 172.006 C 258.198 172.015,257.760 172.421,256.943 174.309 C 256.319 175.751,255.900 176.131,254.252 176.745 C 252.610 177.358,252.219 177.710,251.787 178.965 C 251.223 180.608,250.324 181.471,248.800 181.831 C 248.250 181.960,247.592 182.130,247.338 182.206 C 247.083 182.283,246.759 182.876,246.617 183.523 C 246.306 184.937,245.006 186.199,243.490 186.558 C 242.684 186.748,242.137 187.321,241.493 188.645 C 239.857 192.013,242.681 191.788,200.800 191.888 C 158.485 191.988,160.661 192.147,158.914 188.817 C 157.895 186.874,157.390 186.415,156.258 186.406 C 155.363 186.399,153.877 184.628,153.599 183.238 C 153.454 182.513,153.063 182.163,152.199 181.985 C 150.030 181.537,148.000 179.498,148.000 177.768 C 148.000 177.455,147.736 177.200,147.414 177.200 C 145.888 177.200,144.017 175.825,143.381 174.235 C 142.655 172.422,142.209 172.015,140.936 172.006 C 139.917 171.999,138.000 169.878,138.000 168.759 C 138.000 168.271,137.590 167.834,136.900 167.589 C 134.973 166.904,133.911 166.138,133.247 164.953 C 132.396 163.436,130.904 162.000,130.179 162.000 C 129.514 162.000,128.000 160.602,128.000 159.987 C 128.000 159.761,127.752 159.480,127.450 159.364 C 126.839 159.129,123.530 156.221,119.867 152.700 C 118.551 151.435,117.323 150.400,117.137 150.400 C 116.722 150.400,115.550 149.194,114.966 148.165 C 114.727 147.744,113.618 146.770,112.503 146.000 C 111.387 145.230,110.162 144.080,109.782 143.445 C 108.783 141.778,107.862 140.952,106.665 140.652 C 106.061 140.501,105.348 139.873,104.987 139.175 C 104.143 137.542,103.129 136.400,102.525 136.400 C 101.692 136.400,99.200 133.967,99.200 133.153 C 99.200 132.634,98.591 132.103,97.300 131.495 C 95.345 130.574,94.648 129.877,93.603 127.800 C 93.242 127.082,92.625 126.547,92.066 126.468 C 90.733 126.279,89.283 124.888,88.980 123.508 C 88.788 122.635,88.338 122.169,87.260 121.726 C 85.442 120.978,83.600 119.278,83.600 118.348 C 83.600 117.559,82.160 116.400,81.181 116.400 C 80.334 116.400,78.997 114.896,78.520 113.408 C 78.224 112.484,77.808 112.137,76.669 111.868 C 75.861 111.677,75.200 111.358,75.200 111.160 C 75.200 110.962,74.945 110.800,74.633 110.800 C 74.322 110.800,73.812 110.037,73.502 109.105 C 73.001 107.604,72.724 107.342,71.070 106.805 C 70.044 106.472,69.203 105.997,69.202 105.749 C 69.201 105.501,68.930 105.074,68.600 104.800 C 68.270 104.526,68.000 103.888,68.000 103.383 C 68.000 102.673,67.707 102.399,66.713 102.181 C 64.757 101.751,64.015 101.156,63.183 99.346 C 62.684 98.261,62.085 97.608,61.442 97.446 C 60.114 97.113,58.001 95.283,57.997 94.464 C 57.995 93.836,55.758 92.000,54.996 92.000 C 54.801 92.000,53.592 90.965,52.309 89.700 C 48.366 85.812,47.276 84.800,47.033 84.800 C 46.650 84.800,45.358 83.389,45.082 82.669 C 44.941 82.301,44.639 82.000,44.413 82.000 C 43.804 82.000,41.449 79.899,38.557 76.777 C 37.957 76.129,37.227 75.600,36.933 75.600 C 36.640 75.600,36.400 75.420,36.400 75.200 C 36.400 74.980,36.130 74.800,35.800 74.800 C 35.470 74.800,35.200 74.506,35.200 74.147 C 35.200 73.307,32.552 70.800,31.665 70.800 C 31.292 70.800,30.392 69.892,29.664 68.779 C 28.936 67.667,27.949 66.607,27.470 66.423 C 26.235 65.949,24.459 64.207,24.012 63.033 C 23.777 62.412,22.935 61.717,21.786 61.194 C 18.578 59.732,18.621 60.007,18.472 40.000 C 18.328 20.719,18.404 19.956,20.574 19.004 C 22.265 18.261,377.392 18.129,379.442 18.870 M71.678 123.475 C 72.958 124.701,73.159 125.420,72.057 124.830 C 71.263 124.405,69.788 122.400,70.269 122.400 C 70.427 122.400,71.061 122.884,71.678 123.475 M329.551 123.581 C 328.679 124.760,327.600 125.463,327.600 124.851 C 327.600 124.306,329.368 122.451,329.912 122.425 C 330.239 122.409,330.109 122.826,329.551 123.581 M146.836 193.499 C 148.151 194.740,148.337 195.304,147.300 194.907 C 146.193 194.483,144.644 192.400,145.436 192.400 C 145.566 192.400,146.196 192.894,146.836 193.499 M254.811 193.179 C 254.338 194.063,252.748 195.282,252.453 194.987 C 252.212 194.746,254.421 192.400,254.889 192.400 C 255.075 192.400,255.040 192.751,254.811 193.179 M229.442 198.870 C 232.228 199.877,232.033 193.083,231.910 284.800 C 231.787 377.289,232.043 369.703,228.996 370.976 C 227.487 371.606,225.201 371.049,224.644 369.915 C 223.565 367.718,222.838 366.998,221.310 366.613 C 219.722 366.213,218.000 365.029,218.000 364.338 C 218.000 363.665,216.348 362.370,215.196 362.139 C 214.548 362.010,213.812 361.655,213.560 361.352 C 213.308 361.048,212.863 360.800,212.572 360.800 C 211.920 360.800,210.000 359.069,210.000 358.481 C 210.000 357.933,207.858 356.400,207.092 356.400 C 206.132 356.400,204.342 354.759,203.746 353.333 C 203.352 352.390,202.927 351.998,202.295 351.993 C 200.938 351.983,198.216 350.289,198.083 349.372 C 198.002 348.811,196.904 348.013,194.483 346.755 C 192.132 345.533,190.702 344.504,190.083 343.588 C 189.513 342.744,188.426 341.918,187.210 341.404 C 185.391 340.635,184.446 339.752,183.363 337.805 C 183.122 337.374,182.193 336.836,181.298 336.610 C 179.720 336.213,178.000 335.027,178.000 334.338 C 178.000 333.665,176.348 332.370,175.196 332.139 C 174.548 332.010,173.812 331.655,173.560 331.352 C 173.308 331.048,172.863 330.800,172.572 330.800 C 171.880 330.800,170.317 329.269,169.713 328.000 C 168.445 325.333,168.404 323.311,168.402 262.946 C 168.400 196.658,168.282 200.019,170.649 198.973 C 172.252 198.265,227.501 198.168,229.442 198.870 " stroke="none" fill="#468bc5" fill-rule="evenodd"></path><path id="path1" d="M22.267 22.267 C 22.120 22.413,22.000 29.430,22.000 37.859 L 22.000 53.184 23.574 53.987 C 25.245 54.839,26.400 56.161,26.400 57.221 C 26.400 57.866,27.245 58.438,29.299 59.181 C 30.034 59.448,30.696 60.206,31.299 61.474 C 32.018 62.985,32.453 63.420,33.452 63.624 C 35.080 63.956,36.239 65.085,36.578 66.669 C 36.807 67.739,37.154 68.047,38.795 68.637 C 40.721 69.330,41.228 69.973,42.154 72.900 C 42.307 73.385,42.790 73.600,43.725 73.600 C 45.280 73.600,46.094 74.362,46.761 76.440 C 47.133 77.602,47.512 77.967,48.719 78.328 C 50.941 78.994,51.676 79.695,51.955 81.412 C 52.196 82.891,52.294 82.977,54.203 83.380 C 56.130 83.787,56.228 83.875,57.000 85.896 C 57.649 87.597,57.977 87.992,58.738 87.996 C 60.582 88.004,61.953 89.214,62.233 91.079 C 62.425 92.362,62.671 92.800,63.199 92.800 C 64.936 92.800,66.582 93.946,67.591 95.859 C 68.332 97.262,68.890 97.837,69.608 97.935 C 70.739 98.089,72.400 99.478,72.400 100.270 C 72.400 100.561,72.569 100.800,72.775 100.800 C 73.208 100.800,74.587 101.986,78.240 105.500 C 79.670 106.875,81.002 108.000,81.200 108.000 C 81.398 108.000,81.704 108.227,81.880 108.504 C 82.056 108.781,82.874 109.456,83.697 110.004 C 84.521 110.552,85.196 111.196,85.197 111.436 C 85.201 111.965,87.508 114.109,88.837 114.817 C 90.039 115.458,90.771 116.389,90.787 117.300 C 90.794 117.685,91.051 118.000,91.357 118.000 C 91.664 118.000,92.008 118.244,92.123 118.543 C 92.237 118.842,92.875 119.195,93.540 119.328 C 94.434 119.507,95.029 120.048,95.825 121.407 C 96.578 122.692,97.419 123.487,98.623 124.053 C 99.927 124.666,100.570 125.316,101.273 126.730 C 102.026 128.247,102.479 128.673,103.686 129.003 C 105.319 129.448,106.368 130.546,106.387 131.832 C 106.400 132.655,106.978 133.061,109.465 133.994 C 110.410 134.348,110.941 134.956,111.557 136.389 C 112.181 137.839,112.655 138.376,113.492 138.582 C 115.306 139.028,116.274 139.868,116.547 141.235 C 116.892 142.959,117.486 143.599,118.749 143.606 C 120.413 143.616,122.000 145.316,122.000 147.089 C 122.000 147.630,122.242 148.000,122.597 148.000 C 124.464 148.000,126.341 149.379,126.913 151.172 C 127.430 152.791,127.662 153.027,129.094 153.392 C 131.259 153.943,131.855 154.530,132.155 156.408 C 132.390 157.881,132.506 158.001,133.705 158.009 C 135.668 158.022,137.600 159.941,137.600 161.879 C 137.600 162.416,138.148 162.768,139.666 163.205 C 141.356 163.692,141.812 164.019,142.166 165.000 C 142.909 167.055,143.735 168.000,144.786 168.000 C 145.481 168.000,146.509 168.753,148.200 170.500 C 150.557 172.936,154.121 176.065,154.841 176.333 C 155.039 176.407,155.200 176.812,155.200 177.233 C 155.200 177.655,155.392 178.000,155.627 178.000 C 156.198 178.000,158.784 179.939,159.884 181.192 C 161.841 183.422,162.657 184.126,163.900 184.656 C 164.615 184.961,165.200 185.478,165.200 185.805 C 165.200 186.132,165.359 186.400,165.553 186.400 C 165.748 186.400,166.001 186.760,166.116 187.200 C 166.323 187.992,166.662 188.000,200.157 188.000 L 233.989 188.000 234.580 186.586 C 234.977 185.637,235.616 184.985,236.524 184.606 C 237.268 184.295,238.310 183.556,238.838 182.964 C 241.208 180.311,243.813 178.000,244.434 178.000 C 244.635 178.000,244.800 177.834,244.800 177.631 C 244.800 177.196,246.578 175.414,248.423 174.000 C 249.141 173.450,250.830 171.875,252.178 170.500 C 253.599 169.049,254.970 168.000,255.444 168.000 C 256.460 168.000,257.811 166.556,258.155 165.102 C 258.419 163.985,260.423 162.800,262.049 162.800 C 262.541 162.800,262.800 162.515,262.800 161.974 C 262.800 159.942,264.688 158.023,266.700 158.009 C 267.830 158.001,268.000 157.865,268.000 156.962 C 268.000 155.029,269.157 153.694,271.149 153.330 C 272.888 153.013,272.980 152.925,273.396 151.200 C 273.800 149.526,273.975 149.344,275.896 148.600 C 277.691 147.905,278.048 147.576,278.616 146.095 C 279.310 144.285,280.156 143.600,281.694 143.600 C 282.876 143.600,283.600 142.903,283.600 141.764 C 283.600 140.488,284.777 139.246,286.568 138.633 C 287.839 138.198,288.260 137.782,288.782 136.446 C 289.479 134.664,290.472 133.760,291.975 133.539 C 292.640 133.442,293.249 132.800,294.000 131.404 C 294.835 129.852,295.376 129.324,296.437 129.028 C 297.980 128.597,299.200 127.422,299.200 126.366 C 299.200 125.614,300.817 124.278,302.503 123.637 C 303.057 123.426,303.937 122.481,304.458 121.535 C 305.072 120.423,305.826 119.673,306.597 119.409 C 307.712 119.026,309.200 117.868,309.200 117.384 C 309.200 116.881,310.990 114.800,311.423 114.800 C 312.057 114.800,315.198 112.022,315.209 111.452 C 315.216 111.054,317.216 109.390,319.137 108.183 C 319.502 107.954,320.970 106.643,322.400 105.269 C 326.708 101.132,327.090 100.800,327.554 100.800 C 327.799 100.800,328.000 100.530,328.000 100.200 C 328.000 99.284,329.410 98.074,330.647 97.929 C 331.522 97.827,331.965 97.377,332.776 95.768 C 333.781 93.775,335.298 92.800,337.394 92.800 C 337.810 92.800,338.002 92.392,338.006 91.500 C 338.015 89.535,339.603 88.000,341.626 88.000 C 342.512 88.000,342.751 87.739,343.178 86.300 C 343.863 83.991,344.187 83.681,346.233 83.374 C 347.623 83.166,348.000 82.944,348.000 82.335 C 348.000 80.692,349.152 79.284,351.091 78.557 C 353.199 77.767,353.585 77.398,353.594 76.170 C 353.603 74.966,355.239 73.600,356.672 73.600 C 357.774 73.600,357.969 73.399,358.679 71.532 C 359.399 69.635,359.635 69.399,361.532 68.679 C 363.230 68.033,363.600 67.721,363.600 66.933 C 363.600 65.766,365.707 63.600,366.842 63.600 C 367.864 63.600,368.685 62.798,369.016 61.478 C 369.327 60.241,370.206 59.431,371.791 58.922 C 372.570 58.672,373.340 57.925,374.012 56.770 C 374.607 55.747,375.665 54.662,376.520 54.200 L 377.998 53.400 377.999 37.700 L 378.000 22.000 200.267 22.000 C 102.513 22.000,22.413 22.120,22.267 22.267 M172.267 202.267 C 171.934 202.600,171.910 322.100,172.243 322.967 C 172.397 323.368,172.972 323.600,173.814 323.600 C 175.315 323.600,176.699 324.995,177.078 326.889 C 177.244 327.719,177.534 328.000,178.224 328.000 C 179.716 328.000,181.243 328.739,182.771 330.202 C 185.163 332.491,186.575 333.599,187.101 333.600 C 188.367 333.601,190.617 335.264,191.030 336.503 C 191.395 337.602,191.815 337.922,193.778 338.600 C 195.837 339.311,196.163 339.578,196.719 341.000 C 197.457 342.890,197.692 343.078,199.758 343.427 C 201.325 343.691,204.800 346.537,204.800 347.556 C 204.800 347.800,205.048 348.000,205.350 348.000 C 206.819 348.000,210.436 350.042,210.837 351.098 C 211.477 352.782,212.407 353.600,213.680 353.600 C 215.107 353.600,216.726 355.129,217.058 356.790 C 217.247 357.735,217.511 358.000,218.263 358.000 C 219.852 358.000,221.704 359.022,223.447 360.862 C 225.246 362.759,226.457 363.600,227.395 363.600 C 227.933 363.600,228.000 354.677,228.000 282.800 L 228.000 202.000 200.267 202.000 C 185.013 202.000,172.413 202.120,172.267 202.267 " stroke="none" fill="#b4dcfc" fill-rule="evenodd"></path><path id="path2" d="M21.700 21.798 C 21.318 22.232,21.201 25.992,21.206 37.683 C 21.212 53.614,21.383 55.467,22.953 56.615 C 23.309 56.875,23.600 57.293,23.600 57.544 C 23.600 57.795,23.876 58.000,24.213 58.000 C 24.549 58.000,24.929 58.270,25.055 58.600 C 25.182 58.930,25.446 59.200,25.643 59.200 C 25.839 59.200,27.053 60.235,28.341 61.500 C 29.628 62.765,32.353 65.330,34.395 67.200 C 36.437 69.070,39.014 71.545,40.123 72.700 C 41.231 73.855,42.344 74.800,42.594 74.800 C 43.090 74.800,45.200 76.858,45.200 77.341 C 45.200 77.712,47.212 79.600,47.608 79.600 C 48.049 79.600,50.799 82.203,50.807 82.628 C 50.818 83.201,52.493 84.652,53.515 84.975 C 54.018 85.133,54.869 85.960,55.407 86.811 C 55.944 87.661,57.268 88.937,58.349 89.644 C 59.430 90.352,60.588 91.505,60.923 92.207 C 61.298 92.994,62.173 93.800,63.209 94.313 C 64.280 94.843,65.343 95.839,66.146 97.066 C 66.838 98.124,67.764 99.057,68.202 99.138 C 69.072 99.299,71.431 101.661,71.791 102.732 C 71.915 103.099,72.778 103.776,73.708 104.235 C 74.794 104.771,75.652 105.572,76.103 106.473 C 76.555 107.374,77.492 108.249,78.718 108.917 C 79.956 109.591,80.944 110.519,81.527 111.555 C 82.021 112.435,82.821 113.280,83.305 113.433 C 84.591 113.842,86.400 115.269,86.400 115.875 C 86.400 116.164,86.568 116.400,86.773 116.400 C 86.978 116.400,87.247 116.717,87.369 117.104 C 87.573 117.744,88.373 118.327,90.000 119.021 C 90.330 119.162,91.284 120.167,92.120 121.256 C 92.956 122.344,94.036 123.386,94.520 123.571 C 95.004 123.756,96.317 124.873,97.437 126.053 C 98.558 127.234,100.231 128.830,101.155 129.600 C 102.079 130.370,103.782 131.900,104.941 133.000 C 106.099 134.100,107.576 135.476,108.223 136.057 C 108.871 136.639,109.760 137.576,110.200 138.139 C 110.640 138.702,111.135 139.171,111.300 139.182 C 111.465 139.192,111.923 139.515,112.317 139.900 C 112.712 140.285,113.522 140.958,114.117 141.395 C 114.713 141.832,115.200 142.377,115.200 142.606 C 115.200 143.099,116.210 144.006,117.830 144.965 C 118.473 145.346,119.518 146.381,120.151 147.264 C 120.784 148.148,122.179 149.410,123.251 150.070 C 124.323 150.729,125.200 151.427,125.200 151.620 C 125.200 152.187,127.638 154.800,128.167 154.800 C 128.672 154.800,130.800 156.838,130.800 157.322 C 130.800 157.747,132.347 159.200,132.800 159.200 C 133.397 159.200,136.400 162.410,136.400 163.048 C 136.400 163.352,136.584 163.600,136.808 163.600 C 137.676 163.600,140.449 165.677,140.795 166.586 C 141.326 167.984,142.477 169.200,143.268 169.200 C 144.185 169.200,145.865 170.792,146.381 172.151 C 146.630 172.804,147.276 173.408,147.998 173.659 C 148.659 173.890,149.200 174.241,149.200 174.439 C 149.200 174.638,149.476 174.800,149.813 174.800 C 150.149 174.800,150.541 175.115,150.683 175.500 C 150.825 175.885,151.045 176.290,151.171 176.400 C 151.297 176.510,151.589 176.944,151.821 177.364 C 152.052 177.784,152.831 178.444,153.552 178.830 C 155.213 179.721,156.400 180.789,156.400 181.392 C 156.400 181.918,158.067 183.600,158.588 183.600 C 159.311 183.600,161.507 185.610,161.949 186.676 C 162.985 189.178,163.323 189.200,200.200 189.200 C 235.153 189.200,237.998 189.055,237.999 187.271 C 238.001 186.254,240.160 184.167,242.108 183.302 C 242.717 183.031,243.386 182.403,243.594 181.905 C 244.199 180.458,244.891 179.774,246.663 178.870 C 247.744 178.319,248.581 177.502,249.062 176.531 C 249.551 175.541,250.396 174.728,251.571 174.115 C 252.609 173.574,253.584 172.690,253.929 171.979 C 254.575 170.645,256.200 169.200,257.054 169.200 C 257.753 169.200,259.200 167.763,259.200 167.070 C 259.200 166.426,260.492 165.233,262.474 164.048 C 263.284 163.564,264.175 162.653,264.453 162.025 C 264.731 161.397,265.810 160.326,266.852 159.644 C 267.893 158.962,269.252 157.682,269.872 156.798 C 270.493 155.915,271.403 155.085,271.896 154.954 C 272.786 154.717,275.200 152.287,275.200 151.628 C 275.200 151.438,276.055 150.732,277.100 150.059 C 278.145 149.385,279.360 148.343,279.800 147.742 C 281.035 146.057,282.254 144.800,282.654 144.800 C 283.003 144.800,283.416 144.422,285.925 141.800 C 287.191 140.478,289.847 138.276,290.429 138.067 C 290.633 137.993,290.800 137.717,290.800 137.453 C 290.800 137.188,291.565 136.355,292.500 135.602 C 293.435 134.848,294.834 133.584,295.609 132.794 C 296.385 132.004,298.071 130.500,299.358 129.452 C 300.644 128.404,302.170 126.974,302.748 126.273 C 304.012 124.743,305.269 123.631,305.757 123.613 C 306.202 123.597,308.100 121.630,309.009 120.242 C 309.385 119.669,309.941 119.200,310.246 119.200 C 310.551 119.200,310.800 119.023,310.800 118.808 C 310.800 118.592,311.235 118.306,311.766 118.173 C 312.320 118.034,312.935 117.440,313.208 116.780 C 313.710 115.569,315.633 113.894,317.029 113.453 C 317.485 113.309,318.258 112.479,318.747 111.608 C 319.308 110.611,320.344 109.628,321.548 108.951 C 322.682 108.313,323.671 107.399,323.979 106.702 C 324.273 106.038,325.436 104.928,326.650 104.151 C 327.832 103.394,328.800 102.607,328.800 102.402 C 328.800 101.672,331.252 99.249,332.115 99.125 C 332.646 99.050,333.491 98.237,334.252 97.071 C 335.058 95.839,336.117 94.844,337.188 94.314 C 338.110 93.858,339.022 93.069,339.215 92.560 C 339.599 91.550,341.477 89.737,342.861 89.041 C 343.343 88.798,344.306 87.790,345.002 86.800 C 345.698 85.810,346.592 84.937,346.990 84.860 C 347.710 84.720,348.784 83.702,350.082 81.931 C 350.457 81.419,351.761 80.280,352.980 79.400 C 354.198 78.520,355.197 77.593,355.198 77.339 C 355.199 77.086,355.847 76.366,356.637 75.739 C 357.427 75.113,359.116 73.610,360.390 72.400 C 361.664 71.190,364.271 68.760,366.183 67.000 C 368.095 65.240,370.705 62.765,371.983 61.500 C 373.261 60.235,374.414 59.200,374.546 59.200 C 375.158 59.200,377.849 56.130,378.487 54.705 C 379.569 52.289,379.580 22.577,378.500 21.757 C 377.414 20.933,22.426 20.974,21.700 21.798 M377.999 37.700 L 377.998 53.400 376.520 54.200 C 375.665 54.662,374.607 55.747,374.012 56.770 C 373.340 57.925,372.570 58.672,371.791 58.922 C 370.206 59.431,369.327 60.241,369.016 61.478 C 368.685 62.798,367.864 63.600,366.842 63.600 C 365.707 63.600,363.600 65.766,363.600 66.933 C 363.600 67.721,363.230 68.033,361.532 68.679 C 359.635 69.399,359.399 69.635,358.679 71.532 C 357.969 73.399,357.774 73.600,356.672 73.600 C 355.239 73.600,353.603 74.966,353.594 76.170 C 353.585 77.398,353.199 77.767,351.091 78.557 C 349.152 79.284,348.000 80.692,348.000 82.335 C 348.000 82.944,347.623 83.166,346.233 83.374 C 344.187 83.681,343.863 83.991,343.178 86.300 C 342.751 87.739,342.512 88.000,341.626 88.000 C 339.603 88.000,338.015 89.535,338.006 91.500 C 338.002 92.392,337.810 92.800,337.394 92.800 C 335.298 92.800,333.781 93.775,332.776 95.768 C 331.965 97.377,331.522 97.827,330.647 97.929 C 329.410 98.074,328.000 99.284,328.000 100.200 C 328.000 100.530,327.799 100.800,327.554 100.800 C 327.090 100.800,326.708 101.132,322.400 105.269 C 320.970 106.643,319.502 107.954,319.137 108.183 C 317.216 109.390,315.216 111.054,315.209 111.452 C 315.198 112.022,312.057 114.800,311.423 114.800 C 310.990 114.800,309.200 116.881,309.200 117.384 C 309.200 117.868,307.712 119.026,306.597 119.409 C 305.826 119.673,305.072 120.423,304.458 121.535 C 303.937 122.481,303.057 123.426,302.503 123.637 C 300.817 124.278,299.200 125.614,299.200 126.366 C 299.200 127.422,297.980 128.597,296.437 129.028 C 295.376 129.324,294.835 129.852,294.000 131.404 C 293.249 132.800,292.640 133.442,291.975 133.539 C 290.472 133.760,289.479 134.664,288.782 136.446 C 288.260 137.782,287.839 138.198,286.568 138.633 C 284.777 139.246,283.600 140.488,283.600 141.764 C 283.600 142.903,282.876 143.600,281.694 143.600 C 280.156 143.600,279.310 144.285,278.616 146.095 C 278.048 147.576,277.691 147.905,275.896 148.600 C 273.975 149.344,273.800 149.526,273.396 151.200 C 272.980 152.925,272.888 153.013,271.149 153.330 C 269.157 153.694,268.000 155.029,268.000 156.962 C 268.000 157.865,267.830 158.001,266.700 158.009 C 264.688 158.023,262.800 159.942,262.800 161.974 C 262.800 162.515,262.541 162.800,262.049 162.800 C 260.423 162.800,258.419 163.985,258.155 165.102 C 257.811 166.556,256.460 168.000,255.444 168.000 C 254.970 168.000,253.599 169.049,252.178 170.500 C 250.830 171.875,249.141 173.450,248.423 174.000 C 246.578 175.414,244.800 177.196,244.800 177.631 C 244.800 177.834,244.635 178.000,244.434 178.000 C 243.813 178.000,241.208 180.311,238.838 182.964 C 238.310 183.556,237.268 184.295,236.524 184.606 C 235.616 184.985,234.977 185.637,234.580 186.586 L 233.989 188.000 200.157 188.000 C 166.662 188.000,166.323 187.992,166.116 187.200 C 166.001 186.760,165.748 186.400,165.553 186.400 C 165.359 186.400,165.200 186.132,165.200 185.805 C 165.200 185.478,164.615 184.961,163.900 184.656 C 162.657 184.126,161.841 183.422,159.884 181.192 C 158.784 179.939,156.198 178.000,155.627 178.000 C 155.392 178.000,155.200 177.655,155.200 177.233 C 155.200 176.812,155.039 176.407,154.841 176.333 C 154.121 176.065,150.557 172.936,148.200 170.500 C 146.509 168.753,145.481 168.000,144.786 168.000 C 143.735 168.000,142.909 167.055,142.166 165.000 C 141.812 164.019,141.356 163.692,139.666 163.205 C 138.148 162.768,137.600 162.416,137.600 161.879 C 137.600 159.941,135.668 158.022,133.705 158.009 C 132.506 158.001,132.390 157.881,132.155 156.408 C 131.855 154.530,131.259 153.943,129.094 153.392 C 127.662 153.027,127.430 152.791,126.913 151.172 C 126.341 149.379,124.464 148.000,122.597 148.000 C 122.242 148.000,122.000 147.630,122.000 147.089 C 122.000 145.316,120.413 143.616,118.749 143.606 C 117.486 143.599,116.892 142.959,116.547 141.235 C 116.274 139.868,115.306 139.028,113.492 138.582 C 112.655 138.376,112.181 137.839,111.557 136.389 C 110.941 134.956,110.410 134.348,109.465 133.994 C 106.978 133.061,106.400 132.655,106.387 131.832 C 106.368 130.546,105.319 129.448,103.686 129.003 C 102.479 128.673,102.026 128.247,101.273 126.730 C 100.570 125.316,99.927 124.666,98.623 124.053 C 97.419 123.487,96.578 122.692,95.825 121.407 C 95.029 120.048,94.434 119.507,93.540 119.328 C 92.875 119.195,92.237 118.842,92.123 118.543 C 92.008 118.244,91.664 118.000,91.357 118.000 C 91.051 118.000,90.794 117.685,90.787 117.300 C 90.771 116.389,90.039 115.458,88.837 114.817 C 87.508 114.109,85.201 111.965,85.197 111.436 C 85.196 111.196,84.521 110.552,83.697 110.004 C 82.874 109.456,82.056 108.781,81.880 108.504 C 81.704 108.227,81.398 108.000,81.200 108.000 C 81.002 108.000,79.670 106.875,78.240 105.500 C 74.587 101.986,73.208 100.800,72.775 100.800 C 72.569 100.800,72.400 100.561,72.400 100.270 C 72.400 99.478,70.739 98.089,69.608 97.935 C 68.890 97.837,68.332 97.262,67.591 95.859 C 66.582 93.946,64.936 92.800,63.199 92.800 C 62.671 92.800,62.425 92.362,62.233 91.079 C 61.953 89.214,60.582 88.004,58.738 87.996 C 57.977 87.992,57.649 87.597,57.000 85.896 C 56.228 83.875,56.130 83.787,54.203 83.380 C 52.294 82.977,52.196 82.891,51.955 81.412 C 51.676 79.695,50.941 78.994,48.719 78.328 C 47.512 77.967,47.133 77.602,46.761 76.440 C 46.094 74.362,45.280 73.600,43.725 73.600 C 42.790 73.600,42.307 73.385,42.154 72.900 C 41.228 69.973,40.721 69.330,38.795 68.637 C 37.154 68.047,36.807 67.739,36.578 66.669 C 36.239 65.085,35.080 63.956,33.452 63.624 C 32.453 63.420,32.018 62.985,31.299 61.474 C 30.696 60.206,30.034 59.448,29.299 59.181 C 27.245 58.438,26.400 57.866,26.400 57.221 C 26.400 56.161,25.245 54.839,23.574 53.987 L 22.000 53.184 22.000 37.859 C 22.000 29.430,22.120 22.413,22.267 22.267 C 22.413 22.120,102.513 22.000,200.267 22.000 L 378.000 22.000 377.999 37.700 M171.700 201.798 C 171.056 202.530,170.956 323.600,171.600 323.600 C 171.820 323.600,172.000 323.846,172.000 324.146 C 172.000 324.446,172.720 325.190,173.600 325.800 C 174.480 326.410,175.200 327.089,175.200 327.310 C 175.200 327.844,176.173 328.555,178.632 329.818 C 179.750 330.392,180.974 331.387,181.354 332.029 C 181.772 332.738,182.819 333.530,184.018 334.046 C 185.104 334.513,186.624 335.594,187.396 336.448 C 188.167 337.302,188.898 338.000,189.020 338.000 C 189.627 338.000,194.751 341.665,195.286 342.483 C 195.625 342.999,196.930 343.926,198.187 344.541 C 199.598 345.232,200.725 346.111,201.136 346.841 C 201.535 347.551,202.620 348.413,203.857 349.002 C 204.988 349.541,206.593 350.643,207.425 351.450 C 208.256 352.258,209.311 353.118,209.768 353.363 C 211.814 354.457,214.800 356.626,214.800 357.018 C 214.800 357.535,216.333 358.649,218.855 359.966 C 219.873 360.497,220.997 361.426,221.355 362.031 C 221.712 362.636,222.858 363.533,223.902 364.025 C 224.946 364.516,226.295 365.376,226.900 365.934 C 227.737 366.707,228.000 366.799,228.000 366.321 C 228.000 365.975,228.269 365.176,228.598 364.546 C 229.594 362.635,229.498 202.515,228.500 201.757 C 227.424 200.940,172.421 200.980,171.700 201.798 M228.000 282.800 C 228.000 354.677,227.933 363.600,227.395 363.600 C 226.457 363.600,225.246 362.759,223.447 360.862 C 221.704 359.022,219.852 358.000,218.263 358.000 C 217.511 358.000,217.247 357.735,217.058 356.790 C 216.726 355.129,215.107 353.600,213.680 353.600 C 212.407 353.600,211.477 352.782,210.837 351.098 C 210.436 350.042,206.819 348.000,205.350 348.000 C 205.048 348.000,204.800 347.800,204.800 347.556 C 204.800 346.537,201.325 343.691,199.758 343.427 C 197.692 343.078,197.457 342.890,196.719 341.000 C 196.163 339.578,195.837 339.311,193.778 338.600 C 191.815 337.922,191.395 337.602,191.030 336.503 C 190.617 335.264,188.367 333.601,187.101 333.600 C 186.575 333.599,185.163 332.491,182.771 330.202 C 181.243 328.739,179.716 328.000,178.224 328.000 C 177.534 328.000,177.244 327.719,177.078 326.889 C 176.699 324.995,175.315 323.600,173.814 323.600 C 172.972 323.600,172.397 323.368,172.243 322.967 C 171.910 322.100,171.934 202.600,172.267 202.267 C 172.413 202.120,185.013 202.000,200.267 202.000 L 228.000 202.000 228.000 282.800 " stroke="none" fill="#a4ccf4" fill-rule="evenodd"></path><path id="path3" d="M20.574 19.004 C 18.404 19.956,18.328 20.719,18.472 40.000 C 18.621 60.007,18.578 59.732,21.786 61.194 C 22.935 61.717,23.777 62.412,24.012 63.033 C 24.459 64.207,26.235 65.949,27.470 66.423 C 27.949 66.607,28.936 67.667,29.664 68.779 C 30.392 69.892,31.292 70.800,31.665 70.800 C 32.552 70.800,35.200 73.307,35.200 74.147 C 35.200 74.506,35.470 74.800,35.800 74.800 C 36.130 74.800,36.400 74.980,36.400 75.200 C 36.400 75.420,36.640 75.600,36.933 75.600 C 37.227 75.600,37.957 76.129,38.557 76.777 C 41.449 79.899,43.804 82.000,44.413 82.000 C 44.639 82.000,44.941 82.301,45.082 82.669 C 45.358 83.389,46.650 84.800,47.033 84.800 C 47.276 84.800,48.366 85.812,52.309 89.700 C 53.592 90.965,54.801 92.000,54.996 92.000 C 55.758 92.000,57.995 93.836,57.997 94.464 C 58.001 95.283,60.114 97.113,61.442 97.446 C 62.085 97.608,62.684 98.261,63.183 99.346 C 64.015 101.156,64.757 101.751,66.713 102.181 C 67.707 102.399,68.000 102.673,68.000 103.383 C 68.000 103.888,68.270 104.526,68.600 104.800 C 68.930 105.074,69.201 105.501,69.202 105.749 C 69.203 105.997,70.044 106.472,71.070 106.805 C 72.724 107.342,73.001 107.604,73.502 109.105 C 73.812 110.037,74.322 110.800,74.633 110.800 C 74.945 110.800,75.200 110.962,75.200 111.160 C 75.200 111.358,75.861 111.677,76.669 111.868 C 77.808 112.137,78.224 112.484,78.520 113.408 C 78.997 114.896,80.334 116.400,81.181 116.400 C 82.160 116.400,83.600 117.559,83.600 118.348 C 83.600 119.278,85.442 120.978,87.260 121.726 C 88.338 122.169,88.788 122.635,88.980 123.508 C 89.283 124.888,90.733 126.279,92.066 126.468 C 92.625 126.547,93.242 127.082,93.603 127.800 C 94.648 129.877,95.345 130.574,97.300 131.495 C 98.591 132.103,99.200 132.634,99.200 133.153 C 99.200 133.967,101.692 136.400,102.525 136.400 C 103.129 136.400,104.143 137.542,104.987 139.175 C 105.348 139.873,106.061 140.501,106.665 140.652 C 107.862 140.952,108.783 141.778,109.782 143.445 C 110.162 144.080,111.387 145.230,112.503 146.000 C 113.618 146.770,114.727 147.744,114.966 148.165 C 115.550 149.194,116.722 150.400,117.137 150.400 C 117.323 150.400,118.551 151.435,119.867 152.700 C 123.530 156.221,126.839 159.129,127.450 159.364 C 127.752 159.480,128.000 159.761,128.000 159.987 C 128.000 160.602,129.514 162.000,130.179 162.000 C 130.904 162.000,132.396 163.436,133.247 164.953 C 133.911 166.138,134.973 166.904,136.900 167.589 C 137.590 167.834,138.000 168.271,138.000 168.759 C 138.000 169.878,139.917 171.999,140.936 172.006 C 142.209 172.015,142.655 172.422,143.381 174.235 C 144.017 175.825,145.888 177.200,147.414 177.200 C 147.736 177.200,148.000 177.455,148.000 177.768 C 148.000 179.498,150.030 181.537,152.199 181.985 C 153.063 182.163,153.454 182.513,153.599 183.238 C 153.877 184.628,155.363 186.399,156.258 186.406 C 157.390 186.415,157.895 186.874,158.914 188.817 C 160.661 192.147,158.485 191.988,200.800 191.888 C 242.681 191.788,239.857 192.013,241.493 188.645 C 242.137 187.321,242.684 186.748,243.490 186.558 C 245.006 186.199,246.306 184.937,246.617 183.523 C 246.759 182.876,247.083 182.283,247.338 182.206 C 247.592 182.130,248.250 181.960,248.800 181.831 C 250.324 181.471,251.223 180.608,251.787 178.965 C 252.219 177.710,252.610 177.358,254.252 176.745 C 255.900 176.131,256.319 175.751,256.943 174.309 C 257.760 172.421,258.198 172.015,259.430 172.006 C 260.468 171.998,261.854 170.551,262.214 169.099 C 262.415 168.290,262.969 167.786,264.311 167.192 C 266.047 166.424,266.900 165.597,267.806 163.803 C 268.029 163.361,268.839 162.689,269.606 162.309 C 270.373 161.929,271.400 161.160,271.889 160.600 C 272.378 160.039,274.088 158.460,275.689 157.090 C 278.875 154.364,281.652 151.801,285.136 148.370 C 286.381 147.143,287.971 145.808,288.669 145.402 C 289.366 144.996,290.173 144.200,290.460 143.632 C 291.241 142.090,292.469 140.953,293.670 140.660 C 294.375 140.489,295.057 139.826,295.670 138.715 C 296.182 137.788,297.132 136.753,297.781 136.415 C 299.502 135.519,300.699 134.350,301.163 133.111 C 301.422 132.422,302.125 131.791,303.080 131.392 C 304.926 130.621,306.400 129.289,306.400 128.392 C 306.400 127.640,307.611 126.400,308.346 126.400 C 309.345 126.400,310.753 125.099,311.339 123.636 C 311.768 122.563,312.334 121.966,313.273 121.595 C 314.971 120.924,316.400 119.646,316.400 118.800 C 316.400 117.905,318.064 116.400,319.054 116.400 C 320.068 116.400,321.558 114.712,321.855 113.226 C 322.046 112.271,322.331 112.049,323.641 111.840 C 324.498 111.703,325.200 111.413,325.200 111.195 C 325.200 110.978,325.470 110.800,325.800 110.800 C 326.130 110.800,326.400 110.558,326.400 110.261 C 326.400 108.862,327.652 107.311,329.192 106.803 C 330.867 106.250,331.694 105.328,332.140 103.518 C 332.342 102.698,332.721 102.375,333.703 102.189 C 335.418 101.864,336.134 101.293,337.111 99.470 C 337.636 98.491,338.538 97.644,339.658 97.077 C 340.614 96.594,341.664 95.676,341.996 95.034 C 342.813 93.455,343.735 92.538,344.861 92.183 C 345.377 92.020,346.800 90.877,348.023 89.643 C 350.795 86.845,354.484 83.600,354.892 83.600 C 355.061 83.600,355.200 83.343,355.200 83.029 C 355.200 82.714,356.055 81.901,357.100 81.222 C 358.145 80.542,359.360 79.523,359.800 78.957 C 361.153 77.215,362.947 75.603,364.100 75.092 C 364.705 74.824,365.200 74.355,365.200 74.050 C 365.200 73.373,367.860 70.800,368.559 70.800 C 369.123 70.800,370.793 69.151,370.813 68.574 C 370.836 67.926,372.303 66.400,372.903 66.400 C 373.741 66.400,376.400 63.686,376.400 62.830 C 376.400 62.334,377.043 61.822,378.399 61.239 C 381.823 59.765,381.753 60.195,381.914 39.825 C 382.070 20.118,382.034 19.807,379.442 18.870 C 377.392 18.129,22.265 18.261,20.574 19.004 M379.387 21.013 L 380.800 22.427 380.800 37.798 C 380.800 57.069,380.980 56.304,375.305 61.152 C 374.373 61.948,373.608 62.825,373.605 63.100 C 373.602 63.375,373.324 63.600,372.987 63.600 C 372.651 63.600,372.271 63.870,372.145 64.200 C 372.018 64.530,371.770 64.800,371.594 64.800 C 371.418 64.800,370.216 65.835,368.924 67.100 C 366.208 69.760,359.102 76.200,357.495 77.458 C 356.893 77.929,356.400 78.415,356.400 78.537 C 356.400 78.866,354.552 80.800,354.237 80.800 C 353.875 80.800,352.938 81.583,351.872 82.777 C 350.188 84.663,348.195 86.396,347.709 86.398 C 347.439 86.399,346.912 86.895,346.536 87.500 C 345.565 89.066,343.926 90.800,343.417 90.800 C 343.178 90.800,342.537 91.272,341.992 91.848 C 339.152 94.850,337.433 96.400,336.944 96.400 C 336.645 96.400,336.400 96.642,336.400 96.938 C 336.400 97.557,333.251 100.791,332.621 100.818 C 332.389 100.829,331.840 101.297,331.400 101.859 C 330.960 102.421,329.988 103.448,329.239 104.141 C 327.004 106.209,322.489 110.451,320.022 112.800 C 318.751 114.010,317.146 115.442,316.455 115.981 C 315.765 116.521,315.194 117.151,315.188 117.381 C 315.181 117.612,314.340 118.430,313.319 119.199 C 311.382 120.659,309.954 122.037,308.600 123.751 C 308.160 124.307,307.620 124.772,307.400 124.783 C 306.873 124.810,304.549 127.001,303.744 128.230 C 303.394 128.764,302.947 129.200,302.749 129.200 C 302.552 129.200,301.178 130.343,299.695 131.741 C 298.213 133.138,296.113 135.073,295.030 136.041 C 293.946 137.008,292.298 138.520,291.367 139.400 C 290.435 140.280,288.292 142.260,286.603 143.800 C 284.914 145.340,282.286 147.815,280.763 149.300 C 279.240 150.785,277.738 152.000,277.424 152.000 C 277.111 152.000,276.748 152.335,276.618 152.744 C 276.337 153.630,273.430 156.400,272.782 156.400 C 272.269 156.400,270.839 157.989,270.802 158.600 C 270.789 158.820,270.130 159.450,269.338 160.000 C 267.770 161.089,266.910 161.884,264.855 164.146 C 264.116 164.960,263.004 165.888,262.384 166.208 C 261.764 166.529,261.151 167.126,261.021 167.535 C 260.891 167.943,260.136 168.800,259.342 169.439 C 257.474 170.942,253.487 174.690,250.127 178.100 C 248.664 179.585,247.326 180.800,247.154 180.800 C 246.769 180.800,244.800 182.595,244.800 182.946 C 244.800 183.323,243.254 184.800,242.859 184.800 C 242.671 184.800,241.514 185.870,240.286 187.177 C 236.859 190.827,239.517 190.600,200.200 190.600 C 160.814 190.600,163.455 190.826,160.072 187.165 C 158.870 185.864,157.712 184.800,157.499 184.800 C 156.984 184.800,155.216 183.106,155.204 182.600 C 155.199 182.380,154.568 181.773,153.802 181.252 C 153.037 180.731,151.733 179.585,150.905 178.707 C 150.077 177.828,148.860 176.634,148.200 176.055 C 147.540 175.475,146.100 174.054,145.000 172.897 C 143.900 171.740,142.828 170.795,142.617 170.797 C 142.070 170.801,139.200 167.929,139.200 167.377 C 139.200 167.123,138.389 166.404,137.398 165.777 C 136.408 165.151,135.114 163.942,134.525 163.091 C 133.935 162.241,132.936 161.277,132.305 160.951 C 130.954 160.252,129.564 158.937,128.992 157.815 C 128.768 157.376,128.166 156.807,127.654 156.552 C 126.376 155.915,123.600 153.153,123.600 152.519 C 123.600 152.233,123.334 152.000,123.008 152.000 C 122.683 152.000,121.152 150.785,119.606 149.300 C 118.061 147.815,115.601 145.520,114.141 144.200 C 112.681 142.880,110.539 140.900,109.381 139.800 C 107.008 137.545,105.053 135.767,100.808 132.000 C 99.196 130.570,96.889 128.365,95.682 127.100 C 94.474 125.835,93.287 124.797,93.043 124.793 C 92.477 124.784,90.800 123.028,90.800 122.444 C 90.800 122.200,90.665 121.996,90.500 121.991 C 90.335 121.986,89.538 121.401,88.728 120.691 C 87.918 119.981,86.802 119.040,86.246 118.600 C 85.691 118.160,85.229 117.618,85.218 117.396 C 85.208 117.173,84.626 116.543,83.924 115.996 C 82.702 115.043,80.530 113.044,75.016 107.800 C 72.814 105.706,70.731 103.767,66.145 99.545 C 65.515 98.965,64.524 97.975,63.943 97.345 C 63.361 96.715,62.056 95.506,61.043 94.657 C 60.029 93.808,59.200 92.937,59.200 92.721 C 59.200 92.234,57.556 90.831,56.964 90.813 C 56.423 90.797,53.854 88.050,53.492 87.100 C 53.345 86.715,52.957 86.400,52.628 86.400 C 52.300 86.400,50.866 85.275,49.441 83.900 C 46.827 81.378,43.009 77.765,39.331 74.336 C 38.231 73.310,36.447 71.713,35.366 70.785 C 34.285 69.858,32.136 67.896,30.590 66.427 C 29.045 64.957,27.470 63.636,27.090 63.490 C 26.711 63.344,26.392 62.994,26.382 62.713 C 26.371 62.431,25.901 61.840,25.336 61.400 C 24.771 60.960,24.019 60.285,23.666 59.900 C 23.312 59.515,22.836 59.200,22.607 59.200 C 20.263 59.200,19.612 54.545,19.606 37.713 L 19.600 22.427 21.013 21.013 L 22.427 19.600 200.200 19.600 L 377.973 19.600 379.387 21.013 M70.647 123.416 C 71.343 124.478,72.800 125.475,72.800 124.889 C 72.800 124.484,70.680 122.400,70.269 122.400 C 70.111 122.400,70.281 122.857,70.647 123.416 M328.500 123.488 C 328.005 124.059,327.600 124.673,327.600 124.851 C 327.600 125.463,328.679 124.760,329.551 123.581 C 330.651 122.093,329.775 122.016,328.500 123.488 M145.213 192.700 C 145.236 193.218,146.569 194.627,147.300 194.907 C 148.337 195.304,148.151 194.740,146.836 193.499 C 145.657 192.386,145.189 192.156,145.213 192.700 M253.404 193.596 C 252.774 194.254,252.346 194.879,252.453 194.987 C 252.748 195.282,254.338 194.063,254.811 193.179 C 255.431 192.021,254.707 192.236,253.404 193.596 M170.649 198.973 C 168.282 200.019,168.400 196.658,168.402 262.946 C 168.404 323.311,168.445 325.333,169.713 328.000 C 170.317 329.269,171.880 330.800,172.572 330.800 C 172.863 330.800,173.308 331.048,173.560 331.352 C 173.812 331.655,174.548 332.010,175.196 332.139 C 176.348 332.370,178.000 333.665,178.000 334.338 C 178.000 335.027,179.720 336.213,181.298 336.610 C 182.193 336.836,183.122 337.374,183.363 337.805 C 184.446 339.752,185.391 340.635,187.210 341.404 C 188.426 341.918,189.513 342.744,190.083 343.588 C 190.702 344.504,192.132 345.533,194.483 346.755 C 196.904 348.013,198.002 348.811,198.083 349.372 C 198.216 350.289,200.938 351.983,202.295 351.993 C 202.927 351.998,203.352 352.390,203.746 353.333 C 204.342 354.759,206.132 356.400,207.092 356.400 C 207.858 356.400,210.000 357.933,210.000 358.481 C 210.000 359.069,211.920 360.800,212.572 360.800 C 212.863 360.800,213.308 361.048,213.560 361.352 C 213.812 361.655,214.548 362.010,215.196 362.139 C 216.348 362.370,218.000 363.665,218.000 364.338 C 218.000 365.029,219.722 366.213,221.310 366.613 C 222.838 366.998,223.565 367.718,224.644 369.915 C 225.201 371.049,227.487 371.606,228.996 370.976 C 232.043 369.703,231.787 377.289,231.910 284.800 C 232.033 193.083,232.228 199.877,229.442 198.870 C 227.501 198.168,172.252 198.265,170.649 198.973 M229.387 201.013 L 230.800 202.427 230.800 282.652 C 230.800 369.481,230.897 365.444,228.751 368.172 C 227.696 369.512,227.742 369.525,225.254 367.214 C 224.078 366.121,222.730 365.107,222.258 364.959 C 221.786 364.811,220.598 363.892,219.619 362.917 C 218.639 361.941,217.245 360.895,216.521 360.593 C 215.797 360.290,214.528 359.386,213.702 358.583 C 212.184 357.107,208.997 354.800,208.478 354.800 C 208.323 354.800,207.449 354.097,206.536 353.237 C 205.623 352.377,203.914 351.055,202.738 350.299 C 201.562 349.544,200.060 348.387,199.400 347.730 C 198.740 347.072,197.480 346.112,196.600 345.595 C 195.720 345.079,194.190 343.958,193.200 343.103 C 191.094 341.286,190.696 340.977,190.182 340.761 C 188.663 340.122,186.376 338.457,185.762 337.543 C 185.357 336.941,184.750 336.339,184.413 336.207 C 182.874 335.603,181.141 334.404,179.541 332.834 C 178.583 331.896,177.260 330.902,176.600 330.626 C 174.806 329.876,171.188 326.260,170.343 324.372 C 169.630 322.779,169.600 320.309,169.600 262.570 L 169.600 202.427 171.013 201.013 L 172.427 199.600 200.200 199.600 L 227.973 199.600 229.387 201.013 " stroke="none" fill="#64a4d4" fill-rule="evenodd"></path><path id="path4" d="M21.013 21.013 L 19.600 22.427 19.606 37.713 C 19.612 54.545,20.263 59.200,22.607 59.200 C 22.836 59.200,23.312 59.515,23.666 59.900 C 24.019 60.285,24.771 60.960,25.336 61.400 C 25.901 61.840,26.371 62.431,26.382 62.713 C 26.392 62.994,26.711 63.344,27.090 63.490 C 27.470 63.636,29.045 64.957,30.590 66.427 C 32.136 67.896,34.285 69.858,35.366 70.785 C 36.447 71.713,38.231 73.310,39.331 74.336 C 43.009 77.765,46.827 81.378,49.441 83.900 C 50.866 85.275,52.300 86.400,52.628 86.400 C 52.957 86.400,53.345 86.715,53.492 87.100 C 53.854 88.050,56.423 90.797,56.964 90.813 C 57.556 90.831,59.200 92.234,59.200 92.721 C 59.200 92.937,60.029 93.808,61.043 94.657 C 62.056 95.506,63.361 96.715,63.943 97.345 C 64.524 97.975,65.515 98.965,66.145 99.545 C 70.731 103.767,72.814 105.706,75.016 107.800 C 80.530 113.044,82.702 115.043,83.924 115.996 C 84.626 116.543,85.208 117.173,85.218 117.396 C 85.229 117.618,85.691 118.160,86.246 118.600 C 86.802 119.040,87.918 119.981,88.728 120.691 C 89.538 121.401,90.335 121.986,90.500 121.991 C 90.665 121.996,90.800 122.200,90.800 122.444 C 90.800 123.028,92.477 124.784,93.043 124.793 C 93.287 124.797,94.474 125.835,95.682 127.100 C 96.889 128.365,99.196 130.570,100.808 132.000 C 105.053 135.767,107.008 137.545,109.381 139.800 C 110.539 140.900,112.681 142.880,114.141 144.200 C 115.601 145.520,118.061 147.815,119.606 149.300 C 121.152 150.785,122.683 152.000,123.008 152.000 C 123.334 152.000,123.600 152.233,123.600 152.519 C 123.600 153.153,126.376 155.915,127.654 156.552 C 128.166 156.807,128.768 157.376,128.992 157.815 C 129.564 158.937,130.954 160.252,132.305 160.951 C 132.936 161.277,133.935 162.241,134.525 163.091 C 135.114 163.942,136.408 165.151,137.398 165.777 C 138.389 166.404,139.200 167.123,139.200 167.377 C 139.200 167.929,142.070 170.801,142.617 170.797 C 142.828 170.795,143.900 171.740,145.000 172.897 C 146.100 174.054,147.540 175.475,148.200 176.055 C 148.860 176.634,150.077 177.828,150.905 178.707 C 151.733 179.585,153.037 180.731,153.802 181.252 C 154.568 181.773,155.199 182.380,155.204 182.600 C 155.216 183.106,156.984 184.800,157.499 184.800 C 157.712 184.800,158.870 185.864,160.072 187.165 C 163.455 190.826,160.814 190.600,200.200 190.600 C 239.517 190.600,236.859 190.827,240.286 187.177 C 241.514 185.870,242.671 184.800,242.859 184.800 C 243.254 184.800,244.800 183.323,244.800 182.946 C 244.800 182.595,246.769 180.800,247.154 180.800 C 247.326 180.800,248.664 179.585,250.127 178.100 C 253.487 174.690,257.474 170.942,259.342 169.439 C 260.136 168.800,260.891 167.943,261.021 167.535 C 261.151 167.126,261.764 166.529,262.384 166.208 C 263.004 165.888,264.116 164.960,264.855 164.146 C 266.910 161.884,267.770 161.089,269.338 160.000 C 270.130 159.450,270.789 158.820,270.802 158.600 C 270.839 157.989,272.269 156.400,272.782 156.400 C 273.430 156.400,276.337 153.630,276.618 152.744 C 276.748 152.335,277.111 152.000,277.424 152.000 C 277.738 152.000,279.240 150.785,280.763 149.300 C 282.286 147.815,284.914 145.340,286.603 143.800 C 288.292 142.260,290.435 140.280,291.367 139.400 C 292.298 138.520,293.946 137.008,295.030 136.041 C 296.113 135.073,298.213 133.138,299.695 131.741 C 301.178 130.343,302.552 129.200,302.749 129.200 C 302.947 129.200,303.394 128.764,303.744 128.230 C 304.549 127.001,306.873 124.810,307.400 124.783 C 307.620 124.772,308.160 124.307,308.600 123.751 C 309.954 122.037,311.382 120.659,313.319 119.199 C 314.340 118.430,315.181 117.612,315.188 117.381 C 315.194 117.151,315.765 116.521,316.455 115.981 C 317.146 115.442,318.751 114.010,320.022 112.800 C 322.489 110.451,327.004 106.209,329.239 104.141 C 329.988 103.448,330.960 102.421,331.400 101.859 C 331.840 101.297,332.389 100.829,332.621 100.818 C 333.251 100.791,336.400 97.557,336.400 96.938 C 336.400 96.642,336.645 96.400,336.944 96.400 C 337.433 96.400,339.152 94.850,341.992 91.848 C 342.537 91.272,343.178 90.800,343.417 90.800 C 343.926 90.800,345.565 89.066,346.536 87.500 C 346.912 86.895,347.439 86.399,347.709 86.398 C 348.195 86.396,350.188 84.663,351.872 82.777 C 352.938 81.583,353.875 80.800,354.237 80.800 C 354.552 80.800,356.400 78.866,356.400 78.537 C 356.400 78.415,356.893 77.929,357.495 77.458 C 359.102 76.200,366.208 69.760,368.924 67.100 C 370.216 65.835,371.418 64.800,371.594 64.800 C 371.770 64.800,372.018 64.530,372.145 64.200 C 372.271 63.870,372.651 63.600,372.987 63.600 C 373.324 63.600,373.602 63.375,373.605 63.100 C 373.608 62.825,374.373 61.948,375.305 61.152 C 380.980 56.304,380.800 57.069,380.800 37.798 L 380.800 22.427 379.387 21.013 L 377.973 19.600 200.200 19.600 L 22.427 19.600 21.013 21.013 M378.500 21.757 C 379.580 22.577,379.569 52.289,378.487 54.705 C 377.849 56.130,375.158 59.200,374.546 59.200 C 374.414 59.200,373.261 60.235,371.983 61.500 C 370.705 62.765,368.095 65.240,366.183 67.000 C 364.271 68.760,361.664 71.190,360.390 72.400 C 359.116 73.610,357.427 75.113,356.637 75.739 C 355.847 76.366,355.199 77.086,355.198 77.339 C 355.197 77.593,354.198 78.520,352.980 79.400 C 351.761 80.280,350.457 81.419,350.082 81.931 C 348.784 83.702,347.710 84.720,346.990 84.860 C 346.592 84.937,345.698 85.810,345.002 86.800 C 344.306 87.790,343.343 88.798,342.861 89.041 C 341.477 89.737,339.599 91.550,339.215 92.560 C 339.022 93.069,338.110 93.858,337.188 94.314 C 336.117 94.844,335.058 95.839,334.252 97.071 C 333.491 98.237,332.646 99.050,332.115 99.125 C 331.252 99.249,328.800 101.672,328.800 102.402 C 328.800 102.607,327.832 103.394,326.650 104.151 C 325.436 104.928,324.273 106.038,323.979 106.702 C 323.671 107.399,322.682 108.313,321.548 108.951 C 320.344 109.628,319.308 110.611,318.747 111.608 C 318.258 112.479,317.485 113.309,317.029 113.453 C 315.633 113.894,313.710 115.569,313.208 116.780 C 312.935 117.440,312.320 118.034,311.766 118.173 C 311.235 118.306,310.800 118.592,310.800 118.808 C 310.800 119.023,310.551 119.200,310.246 119.200 C 309.941 119.200,309.385 119.669,309.009 120.242 C 308.100 121.630,306.202 123.597,305.757 123.613 C 305.269 123.631,304.012 124.743,302.748 126.273 C 302.170 126.974,300.644 128.404,299.358 129.452 C 298.071 130.500,296.385 132.004,295.609 132.794 C 294.834 133.584,293.435 134.848,292.500 135.602 C 291.565 136.355,290.800 137.188,290.800 137.453 C 290.800 137.717,290.633 137.993,290.429 138.067 C 289.847 138.276,287.191 140.478,285.925 141.800 C 283.416 144.422,283.003 144.800,282.654 144.800 C 282.254 144.800,281.035 146.057,279.800 147.742 C 279.360 148.343,278.145 149.385,277.100 150.059 C 276.055 150.732,275.200 151.438,275.200 151.628 C 275.200 152.287,272.786 154.717,271.896 154.954 C 271.403 155.085,270.493 155.915,269.872 156.798 C 269.252 157.682,267.893 158.962,266.852 159.644 C 265.810 160.326,264.731 161.397,264.453 162.025 C 264.175 162.653,263.284 163.564,262.474 164.048 C 260.492 165.233,259.200 166.426,259.200 167.070 C 259.200 167.763,257.753 169.200,257.054 169.200 C 256.200 169.200,254.575 170.645,253.929 171.979 C 253.584 172.690,252.609 173.574,251.571 174.115 C 250.396 174.728,249.551 175.541,249.062 176.531 C 248.581 177.502,247.744 178.319,246.663 178.870 C 244.891 179.774,244.199 180.458,243.594 181.905 C 243.386 182.403,242.717 183.031,242.108 183.302 C 240.614 183.966,240.178 184.314,238.500 186.185 C 238.225 186.492,238.000 186.981,237.999 187.271 C 237.998 189.055,235.153 189.200,200.200 189.200 C 163.323 189.200,162.985 189.178,161.949 186.676 C 161.507 185.610,159.311 183.600,158.588 183.600 C 158.067 183.600,156.400 181.918,156.400 181.392 C 156.400 180.789,155.213 179.721,153.552 178.830 C 152.831 178.444,152.052 177.784,151.821 177.364 C 151.589 176.944,151.297 176.510,151.171 176.400 C 151.045 176.290,150.825 175.885,150.683 175.500 C 150.541 175.115,150.149 174.800,149.813 174.800 C 149.476 174.800,149.200 174.638,149.200 174.439 C 149.200 174.241,148.659 173.890,147.998 173.659 C 147.276 173.408,146.630 172.804,146.381 172.151 C 145.865 170.792,144.185 169.200,143.268 169.200 C 142.477 169.200,141.326 167.984,140.795 166.586 C 140.449 165.677,137.676 163.600,136.808 163.600 C 136.584 163.600,136.400 163.352,136.400 163.048 C 136.400 162.410,133.397 159.200,132.800 159.200 C 132.347 159.200,130.800 157.747,130.800 157.322 C 130.800 156.838,128.672 154.800,128.167 154.800 C 127.638 154.800,125.200 152.187,125.200 151.620 C 125.200 151.427,124.323 150.729,123.251 150.070 C 122.179 149.410,120.784 148.148,120.151 147.264 C 119.518 146.381,118.473 145.346,117.830 144.965 C 116.210 144.006,115.200 143.099,115.200 142.606 C 115.200 142.377,114.713 141.832,114.117 141.395 C 113.522 140.958,112.712 140.285,112.317 139.900 C 111.923 139.515,111.465 139.192,111.300 139.182 C 111.135 139.171,110.640 138.702,110.200 138.139 C 109.760 137.576,108.871 136.639,108.223 136.057 C 107.576 135.476,106.099 134.100,104.941 133.000 C 103.782 131.900,102.079 130.370,101.155 129.600 C 100.231 128.830,98.558 127.234,97.437 126.053 C 96.317 124.873,95.004 123.756,94.520 123.571 C 94.036 123.386,92.956 122.344,92.120 121.256 C 91.284 120.167,90.330 119.162,90.000 119.021 C 88.373 118.327,87.573 117.744,87.369 117.104 C 87.247 116.717,86.978 116.400,86.773 116.400 C 86.568 116.400,86.400 116.164,86.400 115.875 C 86.400 115.269,84.591 113.842,83.305 113.433 C 82.821 113.280,82.021 112.435,81.527 111.555 C 80.944 110.519,79.956 109.591,78.718 108.917 C 77.492 108.249,76.555 107.374,76.103 106.473 C 75.652 105.572,74.794 104.771,73.708 104.235 C 72.778 103.776,71.915 103.099,71.791 102.732 C 71.431 101.661,69.072 99.299,68.202 99.138 C 67.764 99.057,66.838 98.124,66.146 97.066 C 65.343 95.839,64.280 94.843,63.209 94.313 C 62.173 93.800,61.298 92.994,60.923 92.207 C 60.588 91.505,59.430 90.352,58.349 89.644 C 57.268 88.937,55.944 87.661,55.407 86.811 C 54.869 85.960,54.018 85.133,53.515 84.975 C 52.493 84.652,50.818 83.201,50.807 82.628 C 50.799 82.203,48.049 79.600,47.608 79.600 C 47.212 79.600,45.200 77.712,45.200 77.341 C 45.200 76.858,43.090 74.800,42.594 74.800 C 42.344 74.800,41.231 73.855,40.123 72.700 C 39.014 71.545,36.437 69.070,34.395 67.200 C 32.353 65.330,29.628 62.765,28.341 61.500 C 27.053 60.235,25.839 59.200,25.643 59.200 C 25.446 59.200,25.182 58.930,25.055 58.600 C 24.929 58.270,24.549 58.000,24.213 58.000 C 23.876 58.000,23.600 57.795,23.600 57.544 C 23.600 57.293,23.309 56.875,22.953 56.615 C 21.383 55.467,21.212 53.614,21.206 37.683 C 21.201 25.992,21.318 22.232,21.700 21.798 C 22.426 20.974,377.414 20.933,378.500 21.757 M171.013 201.013 L 169.600 202.427 169.600 262.570 C 169.600 320.309,169.630 322.779,170.343 324.372 C 171.188 326.260,174.806 329.876,176.600 330.626 C 177.260 330.902,178.583 331.896,179.541 332.834 C 181.141 334.404,182.874 335.603,184.413 336.207 C 184.750 336.339,185.357 336.941,185.762 337.543 C 186.376 338.457,188.663 340.122,190.182 340.761 C 190.696 340.977,191.094 341.286,193.200 343.103 C 194.190 343.958,195.720 345.079,196.600 345.595 C 197.480 346.112,198.740 347.072,199.400 347.730 C 200.060 348.387,201.562 349.544,202.738 350.299 C 203.914 351.055,205.623 352.377,206.536 353.237 C 207.449 354.097,208.323 354.800,208.478 354.800 C 208.997 354.800,212.184 357.107,213.702 358.583 C 214.528 359.386,215.797 360.290,216.521 360.593 C 217.245 360.895,218.639 361.941,219.619 362.917 C 220.598 363.892,221.786 364.811,222.258 364.959 C 222.730 365.107,224.078 366.121,225.254 367.214 C 227.742 369.525,227.696 369.512,228.751 368.172 C 230.897 365.444,230.800 369.481,230.800 282.652 L 230.800 202.427 229.387 201.013 L 227.973 199.600 200.200 199.600 L 172.427 199.600 171.013 201.013 M228.500 201.757 C 229.498 202.515,229.594 362.635,228.598 364.546 C 228.269 365.176,228.000 365.975,228.000 366.321 C 228.000 366.799,227.737 366.707,226.900 365.934 C 226.295 365.376,224.946 364.516,223.902 364.025 C 222.858 363.533,221.712 362.636,221.355 362.031 C 220.997 361.426,219.873 360.497,218.855 359.966 C 216.333 358.649,214.800 357.535,214.800 357.018 C 214.800 356.626,211.814 354.457,209.768 353.363 C 209.311 353.118,208.256 352.258,207.425 351.450 C 206.593 350.643,204.988 349.541,203.857 349.002 C 202.620 348.413,201.535 347.551,201.136 346.841 C 200.725 346.111,199.598 345.232,198.187 344.541 C 196.930 343.926,195.625 342.999,195.286 342.483 C 194.751 341.665,189.627 338.000,189.020 338.000 C 188.898 338.000,188.167 337.302,187.396 336.448 C 186.624 335.594,185.104 334.513,184.018 334.046 C 182.819 333.530,181.772 332.738,181.354 332.029 C 180.974 331.387,179.750 330.392,178.632 329.818 C 176.173 328.555,175.200 327.844,175.200 327.310 C 175.200 327.089,174.480 326.410,173.600 325.800 C 172.720 325.190,172.000 324.446,172.000 324.146 C 172.000 323.846,171.820 323.600,171.600 323.600 C 170.956 323.600,171.056 202.530,171.700 201.798 C 172.421 200.980,227.424 200.940,228.500 201.757 " stroke="none" fill="#84b4e4" fill-rule="evenodd"></path></g></svg>