<svg id="svg" xmlns="http://www.w3.org/2000/svg" xmlns:xlink="http://www.w3.org/1999/xlink" width="400" height="400" viewBox="0, 0, 400,400"><g id="svgg"><path id="path0" d="M171.607 52.277 C 171.281 52.415,170.691 52.939,170.297 53.440 C 169.903 53.941,169.090 54.599,168.490 54.902 C 167.891 55.205,167.040 55.657,166.600 55.906 C 166.160 56.155,164.957 56.468,163.926 56.600 C 162.184 56.824,161.990 56.969,161.184 58.633 C 160.599 59.841,159.907 60.595,159.059 60.950 C 157.391 61.647,156.807 62.415,156.537 64.264 C 156.210 66.509,154.918 69.030,153.469 70.249 C 151.436 71.959,151.519 78.026,153.606 80.281 C 155.265 82.072,156.236 83.990,156.605 86.200 C 156.929 88.145,157.342 88.682,159.071 89.404 C 159.876 89.740,160.574 90.405,160.830 91.080 C 161.478 92.783,162.403 93.600,163.684 93.600 C 165.786 93.600,170.800 96.330,170.800 97.475 C 170.800 97.873,171.766 98.000,174.801 98.000 L 178.802 98.000 180.101 96.650 C 181.685 95.004,183.693 94.033,186.263 93.671 C 187.952 93.433,188.287 93.223,188.883 92.030 C 189.741 90.312,190.313 89.741,192.031 88.883 C 193.149 88.325,193.420 87.944,193.512 86.800 C 193.657 84.981,195.452 81.300,196.878 79.897 C 198.185 78.611,198.673 70.800,197.446 70.800 C 196.382 70.800,193.633 65.753,193.613 63.762 C 193.599 62.406,192.804 61.486,191.080 60.830 C 190.405 60.574,189.740 59.876,189.404 59.071 C 188.666 57.306,188.103 56.890,185.993 56.552 C 183.934 56.223,181.938 55.171,180.078 53.434 C 178.749 52.194,173.492 51.475,171.607 52.277 M311.607 182.277 C 311.281 182.415,310.691 182.939,310.297 183.440 C 309.903 183.941,309.090 184.599,308.490 184.902 C 307.891 185.205,307.040 185.657,306.600 185.906 C 306.160 186.155,304.957 186.468,303.926 186.600 C 302.184 186.824,301.990 186.969,301.184 188.633 C 300.599 189.841,299.907 190.595,299.059 190.950 C 297.391 191.647,296.807 192.415,296.537 194.264 C 296.210 196.509,294.918 199.030,293.469 200.249 C 291.436 201.959,291.519 208.026,293.606 210.281 C 295.265 212.072,296.236 213.990,296.605 216.200 C 296.929 218.145,297.342 218.682,299.071 219.404 C 299.876 219.740,300.574 220.405,300.830 221.080 C 301.478 222.783,302.403 223.600,303.684 223.600 C 305.786 223.600,310.800 226.330,310.800 227.475 C 310.800 227.873,311.766 228.000,314.801 228.000 L 318.802 228.000 320.101 226.650 C 321.685 225.004,323.693 224.033,326.263 223.671 C 327.952 223.433,328.287 223.223,328.883 222.030 C 329.741 220.312,330.313 219.741,332.031 218.883 C 333.149 218.325,333.420 217.944,333.512 216.800 C 333.657 214.981,335.452 211.300,336.878 209.897 C 338.185 208.611,338.673 200.800,337.446 200.800 C 336.382 200.800,333.633 195.753,333.613 193.762 C 333.599 192.406,332.804 191.486,331.080 190.830 C 330.405 190.574,329.740 189.876,329.404 189.071 C 328.666 187.306,328.103 186.890,325.993 186.552 C 323.934 186.223,321.938 185.171,320.078 183.434 C 318.749 182.194,313.492 181.475,311.607 182.277 M111.607 302.277 C 111.281 302.415,110.691 302.939,110.297 303.440 C 109.903 303.941,109.090 304.599,108.490 304.902 C 107.891 305.205,107.040 305.657,106.600 305.906 C 106.160 306.155,104.957 306.468,103.926 306.600 C 102.184 306.824,101.990 306.969,101.184 308.633 C 100.599 309.841,99.907 310.595,99.059 310.950 C 97.391 311.647,96.807 312.415,96.537 314.264 C 96.210 316.509,94.918 319.030,93.469 320.249 C 91.436 321.959,91.519 328.026,93.606 330.281 C 95.265 332.072,96.236 333.990,96.605 336.200 C 96.929 338.145,97.342 338.682,99.071 339.404 C 99.876 339.740,100.574 340.405,100.830 341.080 C 101.478 342.783,102.403 343.600,103.684 343.600 C 105.786 343.600,110.800 346.330,110.800 347.475 C 110.800 347.873,111.766 348.000,114.801 348.000 L 118.802 348.000 120.101 346.650 C 121.685 345.004,123.693 344.033,126.263 343.671 C 127.952 343.433,128.287 343.223,128.883 342.030 C 129.741 340.312,130.313 339.741,132.031 338.883 C 133.149 338.325,133.420 337.944,133.512 336.800 C 133.657 334.981,135.452 331.300,136.878 329.897 C 138.185 328.611,138.673 320.800,137.446 320.800 C 136.382 320.800,133.633 315.753,133.613 313.762 C 133.599 312.406,132.804 311.486,131.080 310.830 C 130.405 310.574,129.740 309.876,129.404 309.071 C 128.666 307.306,128.103 306.890,125.993 306.552 C 123.934 306.223,121.938 305.171,120.078 303.434 C 118.749 302.194,113.492 301.475,111.607 302.277 " stroke="none" fill="#dcf3fc" fill-rule="evenodd"></path><path id="path1" d="M167.100 51.664 C 166.055 52.125,165.200 52.654,165.200 52.839 C 165.200 53.025,164.187 53.656,162.949 54.241 C 161.674 54.845,159.624 56.366,158.219 57.753 C 155.988 59.954,155.410 60.767,153.848 63.897 C 153.601 64.390,153.257 64.795,153.082 64.797 C 150.132 64.826,149.861 81.754,152.758 84.995 C 153.154 85.438,154.078 86.880,154.811 88.200 C 156.519 91.276,159.593 94.288,162.517 95.752 C 163.783 96.386,164.950 97.106,165.110 97.352 C 166.558 99.584,181.378 100.565,183.381 98.562 C 183.690 98.253,184.114 98.000,184.322 98.000 C 184.531 98.000,184.911 97.748,185.167 97.439 C 185.423 97.131,186.647 96.366,187.886 95.739 C 190.648 94.343,194.080 90.954,195.751 87.971 C 196.438 86.745,197.540 84.958,198.200 84.000 L 199.400 82.258 199.388 75.229 C 199.376 68.194,198.660 64.800,197.189 64.800 C 197.007 64.800,196.385 63.800,195.807 62.577 C 194.279 59.348,190.589 55.761,187.090 54.105 C 186.051 53.613,185.200 53.050,185.200 52.854 C 185.200 50.810,171.135 49.885,167.100 51.664 M180.078 53.434 C 181.938 55.171,183.934 56.223,185.993 56.552 C 188.103 56.890,188.666 57.306,189.404 59.071 C 189.740 59.876,190.405 60.574,191.080 60.830 C 192.804 61.486,193.599 62.406,193.613 63.762 C 193.633 65.753,196.382 70.800,197.446 70.800 C 198.673 70.800,198.185 78.611,196.878 79.897 C 195.452 81.300,193.657 84.981,193.512 86.800 C 193.420 87.944,193.149 88.325,192.031 88.883 C 190.313 89.741,189.741 90.312,188.883 92.030 C 188.287 93.223,187.952 93.433,186.263 93.671 C 183.693 94.033,181.685 95.004,180.101 96.650 L 178.802 98.000 174.801 98.000 C 171.766 98.000,170.800 97.873,170.800 97.475 C 170.800 96.330,165.786 93.600,163.684 93.600 C 162.403 93.600,161.478 92.783,160.830 91.080 C 160.574 90.405,159.876 89.740,159.071 89.404 C 157.342 88.682,156.929 88.145,156.605 86.200 C 156.236 83.990,155.265 82.072,153.606 80.281 C 151.519 78.026,151.436 71.959,153.469 70.249 C 154.918 69.030,156.210 66.509,156.537 64.264 C 156.807 62.415,157.391 61.647,159.059 60.950 C 159.907 60.595,160.599 59.841,161.184 58.633 C 161.990 56.969,162.184 56.824,163.926 56.600 C 164.957 56.468,166.160 56.155,166.600 55.906 C 167.040 55.657,167.891 55.205,168.490 54.902 C 169.090 54.599,169.903 53.941,170.297 53.440 C 171.877 51.431,177.929 51.428,180.078 53.434 M306.900 181.786 C 305.745 182.323,304.800 182.908,304.800 183.084 C 304.800 183.260,303.886 183.824,302.768 184.337 C 301.651 184.849,299.612 186.378,298.238 187.734 C 295.990 189.953,295.410 190.766,293.848 193.897 C 293.601 194.390,293.257 194.795,293.082 194.797 C 290.132 194.826,289.861 211.754,292.758 214.995 C 293.154 215.438,294.078 216.880,294.811 218.200 C 296.517 221.272,299.592 224.288,302.508 225.748 C 303.769 226.379,304.800 227.036,304.800 227.207 C 304.800 229.378,321.357 230.586,323.381 228.562 C 323.690 228.253,324.114 228.000,324.322 228.000 C 324.531 228.000,324.911 227.748,325.167 227.439 C 325.423 227.131,326.647 226.366,327.886 225.739 C 330.648 224.343,334.080 220.954,335.751 217.971 C 336.438 216.745,337.540 214.958,338.200 214.000 L 339.400 212.258 339.388 205.229 C 339.376 198.194,338.660 194.800,337.189 194.800 C 337.007 194.800,336.385 193.800,335.807 192.577 C 334.279 189.348,330.589 185.761,327.090 184.105 C 326.051 183.613,325.200 183.050,325.200 182.854 C 325.200 180.702,311.008 179.873,306.900 181.786 M320.078 183.434 C 321.938 185.171,323.934 186.223,325.993 186.552 C 328.103 186.890,328.666 187.306,329.404 189.071 C 329.740 189.876,330.405 190.574,331.080 190.830 C 332.804 191.486,333.599 192.406,333.613 193.762 C 333.633 195.753,336.382 200.800,337.446 200.800 C 338.673 200.800,338.185 208.611,336.878 209.897 C 335.452 211.300,333.657 214.981,333.512 216.800 C 333.420 217.944,333.149 218.325,332.031 218.883 C 330.313 219.741,329.741 220.312,328.883 222.030 C 328.287 223.223,327.952 223.433,326.263 223.671 C 323.693 224.033,321.685 225.004,320.101 226.650 L 318.802 228.000 314.801 228.000 C 311.766 228.000,310.800 227.873,310.800 227.475 C 310.800 226.330,305.786 223.600,303.684 223.600 C 302.403 223.600,301.478 222.783,300.830 221.080 C 300.574 220.405,299.876 219.740,299.071 219.404 C 297.342 218.682,296.929 218.145,296.605 216.200 C 296.236 213.990,295.265 212.072,293.606 210.281 C 291.519 208.026,291.436 201.959,293.469 200.249 C 294.918 199.030,296.210 196.509,296.537 194.264 C 296.807 192.415,297.391 191.647,299.059 190.950 C 299.907 190.595,300.599 189.841,301.184 188.633 C 301.990 186.969,302.184 186.824,303.926 186.600 C 304.957 186.468,306.160 186.155,306.600 185.906 C 307.040 185.657,307.891 185.205,308.490 184.902 C 309.090 184.599,309.903 183.941,310.297 183.440 C 311.877 181.431,317.929 181.428,320.078 183.434 M107.100 301.664 C 106.055 302.125,105.200 302.654,105.200 302.839 C 105.200 303.025,104.187 303.656,102.949 304.241 C 101.674 304.845,99.624 306.366,98.219 307.753 C 95.988 309.954,95.410 310.767,93.848 313.897 C 93.601 314.390,93.257 314.795,93.082 314.797 C 90.132 314.826,89.861 331.754,92.758 334.995 C 93.154 335.438,94.078 336.880,94.811 338.200 C 96.519 341.276,99.593 344.288,102.517 345.752 C 103.783 346.386,104.950 347.106,105.110 347.352 C 106.558 349.584,121.378 350.565,123.381 348.562 C 123.690 348.253,124.114 348.000,124.322 348.000 C 124.531 348.000,124.911 347.748,125.167 347.439 C 125.423 347.131,126.647 346.366,127.886 345.739 C 130.648 344.343,134.080 340.954,135.751 337.971 C 136.438 336.745,137.540 334.958,138.200 334.000 L 139.400 332.258 139.388 325.229 C 139.376 318.194,138.660 314.800,137.189 314.800 C 137.007 314.800,136.385 313.800,135.807 312.577 C 134.279 309.348,130.589 305.761,127.090 304.105 C 126.051 303.613,125.200 303.050,125.200 302.854 C 125.200 300.810,111.135 299.885,107.100 301.664 M120.078 303.434 C 121.938 305.171,123.934 306.223,125.993 306.552 C 128.103 306.890,128.666 307.306,129.404 309.071 C 129.740 309.876,130.405 310.574,131.080 310.830 C 132.804 311.486,133.599 312.406,133.613 313.762 C 133.633 315.753,136.382 320.800,137.446 320.800 C 138.673 320.800,138.185 328.611,136.878 329.897 C 135.452 331.300,133.657 334.981,133.512 336.800 C 133.420 337.944,133.149 338.325,132.031 338.883 C 130.313 339.741,129.741 340.312,128.883 342.030 C 128.287 343.223,127.952 343.433,126.263 343.671 C 123.693 344.033,121.685 345.004,120.101 346.650 L 118.802 348.000 114.801 348.000 C 111.766 348.000,110.800 347.873,110.800 347.475 C 110.800 346.330,105.786 343.600,103.684 343.600 C 102.403 343.600,101.478 342.783,100.830 341.080 C 100.574 340.405,99.876 339.740,99.071 339.404 C 97.342 338.682,96.929 338.145,96.605 336.200 C 96.236 333.990,95.265 332.072,93.606 330.281 C 91.519 328.026,91.436 321.959,93.469 320.249 C 94.918 319.030,96.210 316.509,96.537 314.264 C 96.807 312.415,97.391 311.647,99.059 310.950 C 99.907 310.595,100.599 309.841,101.184 308.633 C 101.990 306.969,102.184 306.824,103.926 306.600 C 104.957 306.468,106.160 306.155,106.600 305.906 C 107.040 305.657,107.891 305.205,108.490 304.902 C 109.090 304.599,109.903 303.941,110.297 303.440 C 111.877 301.431,117.929 301.428,120.078 303.434 " stroke="none" fill="#bcd4f4" fill-rule="evenodd"></path><path id="path2" d="M168.200 49.559 C 166.116 50.117,164.051 51.120,163.017 52.076 C 162.467 52.584,161.158 53.450,160.109 54.000 C 157.203 55.522,153.600 59.453,153.600 61.099 C 153.600 61.328,153.035 62.119,152.344 62.858 C 148.001 67.500,147.963 82.386,152.281 87.301 C 153.007 88.127,153.600 89.035,153.600 89.320 C 153.600 89.604,153.871 90.189,154.201 90.619 C 154.532 91.048,155.212 92.027,155.713 92.794 C 156.214 93.561,157.022 94.387,157.509 94.630 C 157.996 94.872,158.711 95.349,159.097 95.688 C 159.484 96.028,160.196 96.426,160.680 96.573 C 161.163 96.720,162.104 97.350,162.770 97.972 C 165.470 100.494,166.818 100.800,175.241 100.800 C 183.716 100.800,184.170 100.688,187.772 97.703 C 188.637 96.986,189.672 96.400,190.072 96.400 C 190.472 96.400,190.800 96.259,190.800 96.086 C 190.800 95.914,191.385 95.429,192.100 95.009 C 193.721 94.056,194.056 93.721,195.009 92.100 C 195.429 91.385,195.914 90.800,196.086 90.800 C 196.259 90.800,196.400 90.472,196.400 90.072 C 196.400 89.672,197.004 88.637,197.743 87.772 C 202.210 82.543,202.348 67.454,197.972 62.770 C 197.350 62.104,196.724 61.192,196.582 60.742 C 195.872 58.507,192.539 54.800,191.238 54.800 C 190.997 54.800,190.800 54.634,190.800 54.431 C 190.800 54.228,190.196 53.863,189.459 53.619 C 188.721 53.376,187.686 52.710,187.159 52.140 C 184.940 49.742,173.386 48.169,168.200 49.559 M183.226 51.649 C 184.312 52.116,185.200 52.659,185.200 52.854 C 185.200 53.050,186.051 53.613,187.090 54.105 C 190.589 55.761,194.279 59.348,195.807 62.577 C 196.385 63.800,197.007 64.800,197.189 64.800 C 198.660 64.800,199.376 68.194,199.388 75.229 L 199.400 82.258 198.200 84.000 C 197.540 84.958,196.438 86.745,195.751 87.971 C 194.080 90.954,190.648 94.343,187.886 95.739 C 186.647 96.366,185.423 97.131,185.167 97.439 C 184.911 97.748,184.531 98.000,184.322 98.000 C 184.114 98.000,183.690 98.253,183.381 98.562 C 181.378 100.565,166.558 99.584,165.110 97.352 C 164.950 97.106,163.783 96.386,162.517 95.752 C 159.593 94.288,156.519 91.276,154.811 88.200 C 154.078 86.880,153.154 85.438,152.758 84.995 C 149.861 81.754,150.132 64.826,153.082 64.797 C 153.257 64.795,153.601 64.390,153.848 63.897 C 155.410 60.767,155.988 59.954,158.219 57.753 C 159.624 56.366,161.674 54.845,162.949 54.241 C 164.187 53.656,165.200 53.025,165.200 52.839 C 165.200 50.812,179.141 49.892,183.226 51.649 M308.200 179.559 C 306.116 180.117,304.051 181.120,303.017 182.076 C 302.467 182.584,301.158 183.450,300.109 184.000 C 297.203 185.522,293.600 189.453,293.600 191.099 C 293.600 191.328,293.035 192.119,292.344 192.858 C 288.001 197.500,287.963 212.386,292.281 217.301 C 293.007 218.127,293.600 219.035,293.600 219.320 C 293.600 219.604,293.871 220.189,294.201 220.619 C 294.532 221.048,295.212 222.027,295.713 222.794 C 296.214 223.561,297.022 224.387,297.509 224.630 C 297.996 224.872,298.711 225.349,299.097 225.688 C 299.484 226.028,300.196 226.426,300.680 226.573 C 301.163 226.720,302.104 227.350,302.770 227.972 C 305.470 230.494,306.818 230.800,315.241 230.800 C 323.716 230.800,324.170 230.688,327.772 227.703 C 328.637 226.986,329.672 226.400,330.072 226.400 C 330.472 226.400,330.800 226.259,330.800 226.086 C 330.800 225.914,331.385 225.429,332.100 225.009 C 333.721 224.056,334.056 223.721,335.009 222.100 C 335.429 221.385,335.914 220.800,336.086 220.800 C 336.259 220.800,336.400 220.472,336.400 220.072 C 336.400 219.672,337.004 218.637,337.743 217.772 C 342.210 212.543,342.348 197.454,337.972 192.770 C 337.350 192.104,336.724 191.192,336.582 190.742 C 335.872 188.507,332.539 184.800,331.238 184.800 C 330.997 184.800,330.800 184.634,330.800 184.431 C 330.800 184.228,330.196 183.863,329.459 183.619 C 328.721 183.376,327.686 182.710,327.159 182.140 C 324.940 179.742,313.386 178.169,308.200 179.559 M323.226 181.649 C 324.312 182.116,325.200 182.659,325.200 182.854 C 325.200 183.050,326.051 183.613,327.090 184.105 C 330.589 185.761,334.279 189.348,335.807 192.577 C 336.385 193.800,337.007 194.800,337.189 194.800 C 338.660 194.800,339.376 198.194,339.388 205.229 L 339.400 212.258 338.200 214.000 C 337.540 214.958,336.438 216.745,335.751 217.971 C 334.080 220.954,330.648 224.343,327.886 225.739 C 326.647 226.366,325.423 227.131,325.167 227.439 C 324.911 227.748,324.531 228.000,324.322 228.000 C 324.114 228.000,323.690 228.253,323.381 228.562 C 321.357 230.586,304.800 229.378,304.800 227.207 C 304.800 227.036,303.769 226.379,302.508 225.748 C 299.592 224.288,296.517 221.272,294.811 218.200 C 294.078 216.880,293.154 215.438,292.758 214.995 C 289.861 211.754,290.132 194.826,293.082 194.797 C 293.257 194.795,293.601 194.390,293.848 193.897 C 295.410 190.766,295.990 189.953,298.238 187.734 C 299.612 186.378,301.651 184.849,302.768 184.337 C 303.886 183.824,304.800 183.260,304.800 183.084 C 304.800 180.895,318.917 179.796,323.226 181.649 M108.200 299.559 C 106.116 300.117,104.051 301.120,103.017 302.076 C 102.467 302.584,101.158 303.450,100.109 304.000 C 97.203 305.522,93.600 309.453,93.600 311.099 C 93.600 311.328,93.035 312.119,92.344 312.858 C 88.001 317.500,87.963 332.386,92.281 337.301 C 93.007 338.127,93.600 339.035,93.600 339.320 C 93.600 339.604,93.871 340.189,94.201 340.619 C 94.532 341.048,95.212 342.027,95.713 342.794 C 96.214 343.561,97.022 344.387,97.509 344.630 C 97.996 344.872,98.711 345.349,99.097 345.688 C 99.484 346.028,100.196 346.426,100.680 346.573 C 101.163 346.720,102.104 347.350,102.770 347.972 C 105.470 350.494,106.818 350.800,115.241 350.800 C 123.716 350.800,124.170 350.688,127.772 347.703 C 128.637 346.986,129.672 346.400,130.072 346.400 C 130.472 346.400,130.800 346.259,130.800 346.086 C 130.800 345.914,131.385 345.429,132.100 345.009 C 133.721 344.056,134.056 343.721,135.009 342.100 C 135.429 341.385,135.914 340.800,136.086 340.800 C 136.259 340.800,136.400 340.472,136.400 340.072 C 136.400 339.672,137.004 338.637,137.743 337.772 C 142.210 332.543,142.348 317.454,137.972 312.770 C 137.350 312.104,136.724 311.192,136.582 310.742 C 135.872 308.507,132.539 304.800,131.238 304.800 C 130.997 304.800,130.800 304.634,130.800 304.431 C 130.800 304.228,130.196 303.863,129.459 303.619 C 128.721 303.376,127.686 302.710,127.159 302.140 C 124.940 299.742,113.386 298.169,108.200 299.559 M123.226 301.649 C 124.312 302.116,125.200 302.659,125.200 302.854 C 125.200 303.050,126.051 303.613,127.090 304.105 C 130.589 305.761,134.279 309.348,135.807 312.577 C 136.385 313.800,137.007 314.800,137.189 314.800 C 138.660 314.800,139.376 318.194,139.388 325.229 L 139.400 332.258 138.200 334.000 C 137.540 334.958,136.438 336.745,135.751 337.971 C 134.080 340.954,130.648 344.343,127.886 345.739 C 126.647 346.366,125.423 347.131,125.167 347.439 C 124.911 347.748,124.531 348.000,124.322 348.000 C 124.114 348.000,123.690 348.253,123.381 348.562 C 121.378 350.565,106.558 349.584,105.110 347.352 C 104.950 347.106,103.783 346.386,102.517 345.752 C 99.593 344.288,96.519 341.276,94.811 338.200 C 94.078 336.880,93.154 335.438,92.758 334.995 C 89.861 331.754,90.132 314.826,93.082 314.797 C 93.257 314.795,93.601 314.390,93.848 313.897 C 95.410 310.767,95.988 309.954,98.219 307.753 C 99.624 306.366,101.674 304.845,102.949 304.241 C 104.187 303.656,105.200 303.025,105.200 302.839 C 105.200 300.812,119.141 299.892,123.226 301.649 " stroke="none" fill="#74acdc" fill-rule="evenodd"></path><path id="path3" d="M166.612 48.887 C 165.062 49.100,163.347 49.611,162.750 50.036 C 162.160 50.456,161.479 50.800,161.238 50.800 C 160.997 50.800,160.800 51.038,160.800 51.328 C 160.800 52.055,159.334 53.233,157.132 54.274 C 155.607 54.996,155.093 55.540,154.189 57.387 C 153.586 58.618,152.634 59.987,152.073 60.428 C 150.138 61.950,149.325 63.651,148.852 67.165 C 147.781 75.130,148.767 88.000,150.449 88.000 C 150.642 88.000,150.800 88.185,150.800 88.412 C 150.800 88.639,151.430 89.378,152.200 90.054 C 152.970 90.730,153.600 91.507,153.600 91.781 C 153.600 93.025,156.072 95.611,158.242 96.637 C 159.515 97.240,160.588 98.033,160.698 98.453 C 160.805 98.864,161.060 99.200,161.263 99.200 C 161.467 99.200,161.996 99.537,162.438 99.950 C 165.898 103.173,185.538 102.435,189.021 98.952 C 189.806 98.167,191.468 96.952,192.713 96.251 C 194.544 95.222,195.234 94.522,196.315 92.599 C 197.051 91.291,198.339 89.528,199.178 88.680 C 202.473 85.352,203.050 65.765,199.950 62.438 C 199.537 61.996,199.200 61.467,199.200 61.263 C 199.200 61.060,198.874 60.808,198.475 60.704 C 198.072 60.598,197.160 59.327,196.422 57.844 C 195.232 55.452,194.872 55.068,192.965 54.166 C 191.795 53.612,190.390 52.629,189.844 51.980 C 189.298 51.331,188.660 50.800,188.426 50.800 C 188.192 50.800,188.000 50.642,188.000 50.449 C 188.000 48.780,174.523 47.796,166.612 48.887 M184.400 50.289 C 185.390 50.737,186.631 51.570,187.159 52.140 C 187.686 52.710,188.721 53.376,189.459 53.619 C 190.196 53.863,190.800 54.228,190.800 54.431 C 190.800 54.634,190.997 54.800,191.238 54.800 C 192.539 54.800,195.872 58.507,196.582 60.742 C 196.724 61.192,197.350 62.104,197.972 62.770 C 200.492 65.468,200.800 66.821,200.800 75.212 C 200.800 83.680,200.625 84.397,197.743 87.772 C 197.004 88.637,196.400 89.672,196.400 90.072 C 196.400 90.472,196.259 90.800,196.086 90.800 C 195.914 90.800,195.429 91.385,195.009 92.100 C 194.056 93.721,193.721 94.056,192.100 95.009 C 191.385 95.429,190.800 95.914,190.800 96.086 C 190.800 96.259,190.472 96.400,190.072 96.400 C 189.672 96.400,188.637 96.986,187.772 97.703 C 184.170 100.688,183.716 100.800,175.241 100.800 C 166.818 100.800,165.470 100.494,162.770 97.972 C 162.104 97.350,161.163 96.720,160.680 96.573 C 160.196 96.426,159.484 96.028,159.097 95.688 C 158.711 95.349,157.996 94.872,157.509 94.630 C 157.022 94.387,156.214 93.561,155.713 92.794 C 155.212 92.027,154.532 91.048,154.201 90.619 C 153.871 90.189,153.600 89.604,153.600 89.320 C 153.600 89.035,153.007 88.127,152.281 87.301 C 147.963 82.386,148.001 67.500,152.344 62.858 C 153.035 62.119,153.600 61.328,153.600 61.099 C 153.600 59.453,157.203 55.522,160.109 54.000 C 161.158 53.450,162.467 52.584,163.017 52.076 C 164.051 51.120,166.116 50.117,168.200 49.559 C 170.749 48.876,182.443 49.402,184.400 50.289 M306.612 178.887 C 305.062 179.100,303.347 179.611,302.750 180.036 C 302.160 180.456,301.479 180.800,301.238 180.800 C 300.997 180.800,300.800 181.038,300.800 181.328 C 300.800 182.055,299.334 183.233,297.132 184.274 C 295.607 184.996,295.093 185.540,294.189 187.387 C 293.586 188.618,292.634 189.987,292.073 190.428 C 290.138 191.950,289.325 193.651,288.852 197.165 C 287.781 205.130,288.767 218.000,290.449 218.000 C 290.642 218.000,290.800 218.185,290.800 218.412 C 290.800 218.639,291.430 219.378,292.200 220.054 C 292.970 220.730,293.600 221.507,293.600 221.781 C 293.600 223.025,296.072 225.611,298.242 226.637 C 299.515 227.240,300.588 228.033,300.698 228.453 C 300.805 228.864,301.060 229.200,301.263 229.200 C 301.467 229.200,301.996 229.537,302.438 229.950 C 305.898 233.173,325.538 232.435,329.021 228.952 C 329.806 228.167,331.468 226.952,332.713 226.251 C 334.544 225.222,335.234 224.522,336.315 222.599 C 337.051 221.291,338.339 219.528,339.178 218.680 C 342.473 215.352,343.050 195.765,339.950 192.438 C 339.537 191.996,339.200 191.467,339.200 191.263 C 339.200 191.060,338.874 190.808,338.475 190.704 C 338.072 190.598,337.160 189.327,336.422 187.844 C 335.232 185.452,334.872 185.068,332.965 184.166 C 331.795 183.612,330.390 182.629,329.844 181.980 C 329.298 181.331,328.660 180.800,328.426 180.800 C 328.192 180.800,328.000 180.642,328.000 180.449 C 328.000 178.780,314.523 177.796,306.612 178.887 M324.400 180.289 C 325.390 180.737,326.631 181.570,327.159 182.140 C 327.686 182.710,328.721 183.376,329.459 183.619 C 330.196 183.863,330.800 184.228,330.800 184.431 C 330.800 184.634,330.997 184.800,331.238 184.800 C 332.539 184.800,335.872 188.507,336.582 190.742 C 336.724 191.192,337.350 192.104,337.972 192.770 C 340.492 195.468,340.800 196.821,340.800 205.212 C 340.800 213.680,340.625 214.397,337.743 217.772 C 337.004 218.637,336.400 219.672,336.400 220.072 C 336.400 220.472,336.259 220.800,336.086 220.800 C 335.914 220.800,335.429 221.385,335.009 222.100 C 334.056 223.721,333.721 224.056,332.100 225.009 C 331.385 225.429,330.800 225.914,330.800 226.086 C 330.800 226.259,330.472 226.400,330.072 226.400 C 329.672 226.400,328.637 226.986,327.772 227.703 C 324.170 230.688,323.716 230.800,315.241 230.800 C 306.818 230.800,305.470 230.494,302.770 227.972 C 302.104 227.350,301.163 226.720,300.680 226.573 C 300.196 226.426,299.484 226.028,299.097 225.688 C 298.711 225.349,297.996 224.872,297.509 224.630 C 297.022 224.387,296.214 223.561,295.713 222.794 C 295.212 222.027,294.532 221.048,294.201 220.619 C 293.871 220.189,293.600 219.604,293.600 219.320 C 293.600 219.035,293.007 218.127,292.281 217.301 C 287.963 212.386,288.001 197.500,292.344 192.858 C 293.035 192.119,293.600 191.328,293.600 191.099 C 293.600 189.453,297.203 185.522,300.109 184.000 C 301.158 183.450,302.467 182.584,303.017 182.076 C 304.051 181.120,306.116 180.117,308.200 179.559 C 310.749 178.876,322.443 179.402,324.400 180.289 M106.612 298.887 C 105.062 299.100,103.347 299.611,102.750 300.036 C 102.160 300.456,101.479 300.800,101.238 300.800 C 100.997 300.800,100.800 301.038,100.800 301.328 C 100.800 302.055,99.334 303.233,97.132 304.274 C 95.607 304.996,95.093 305.540,94.189 307.387 C 93.586 308.618,92.634 309.987,92.073 310.428 C 90.138 311.950,89.325 313.651,88.852 317.165 C 87.781 325.130,88.767 338.000,90.449 338.000 C 90.642 338.000,90.800 338.185,90.800 338.412 C 90.800 338.639,91.430 339.378,92.200 340.054 C 92.970 340.730,93.600 341.507,93.600 341.781 C 93.600 343.025,96.072 345.611,98.242 346.637 C 99.515 347.240,100.588 348.033,100.698 348.453 C 100.805 348.864,101.060 349.200,101.263 349.200 C 101.467 349.200,101.996 349.537,102.438 349.950 C 105.898 353.173,125.538 352.435,129.021 348.952 C 129.806 348.167,131.468 346.952,132.713 346.251 C 134.544 345.222,135.234 344.522,136.315 342.599 C 137.051 341.291,138.339 339.528,139.178 338.680 C 142.473 335.352,143.050 315.765,139.950 312.438 C 139.537 311.996,139.200 311.467,139.200 311.263 C 139.200 311.060,138.874 310.808,138.475 310.704 C 138.072 310.598,137.160 309.327,136.422 307.844 C 135.232 305.452,134.872 305.068,132.965 304.166 C 131.795 303.612,130.390 302.629,129.844 301.980 C 129.298 301.331,128.660 300.800,128.426 300.800 C 128.192 300.800,128.000 300.642,128.000 300.449 C 128.000 298.780,114.523 297.796,106.612 298.887 M124.400 300.289 C 125.390 300.737,126.631 301.570,127.159 302.140 C 127.686 302.710,128.721 303.376,129.459 303.619 C 130.196 303.863,130.800 304.228,130.800 304.431 C 130.800 304.634,130.997 304.800,131.238 304.800 C 132.539 304.800,135.872 308.507,136.582 310.742 C 136.724 311.192,137.350 312.104,137.972 312.770 C 140.492 315.468,140.800 316.821,140.800 325.212 C 140.800 333.680,140.625 334.397,137.743 337.772 C 137.004 338.637,136.400 339.672,136.400 340.072 C 136.400 340.472,136.259 340.800,136.086 340.800 C 135.914 340.800,135.429 341.385,135.009 342.100 C 134.056 343.721,133.721 344.056,132.100 345.009 C 131.385 345.429,130.800 345.914,130.800 346.086 C 130.800 346.259,130.472 346.400,130.072 346.400 C 129.672 346.400,128.637 346.986,127.772 347.703 C 124.170 350.688,123.716 350.800,115.241 350.800 C 106.818 350.800,105.470 350.494,102.770 347.972 C 102.104 347.350,101.163 346.720,100.680 346.573 C 100.196 346.426,99.484 346.028,99.097 345.688 C 98.711 345.349,97.996 344.872,97.509 344.630 C 97.022 344.387,96.214 343.561,95.713 342.794 C 95.212 342.027,94.532 341.048,94.201 340.619 C 93.871 340.189,93.600 339.604,93.600 339.320 C 93.600 339.035,93.007 338.127,92.281 337.301 C 87.963 332.386,88.001 317.500,92.344 312.858 C 93.035 312.119,93.600 311.328,93.600 311.099 C 93.600 309.453,97.203 305.522,100.109 304.000 C 101.158 303.450,102.467 302.584,103.017 302.076 C 104.051 301.120,106.116 300.117,108.200 299.559 C 110.749 298.876,122.443 299.402,124.400 300.289 " stroke="none" fill="#74a4dc" fill-rule="evenodd"></path><path id="path4" d="M153.787 38.671 C 153.407 39.050,153.206 39.720,153.310 40.263 C 153.408 40.778,153.334 41.200,153.145 41.200 C 152.955 41.200,152.800 41.560,152.800 42.000 C 152.800 42.798,152.332 42.964,150.500 42.816 C 149.986 42.774,149.597 42.970,149.594 43.271 C 149.589 43.662,149.486 43.643,149.200 43.200 C 148.878 42.702,148.810 42.736,148.800 43.400 C 148.790 44.071,148.722 44.104,148.376 43.600 C 148.034 43.101,147.975 43.135,148.028 43.800 C 148.063 44.240,148.071 45.356,148.046 46.281 L 148.000 47.962 145.500 48.081 L 143.000 48.200 142.880 50.500 C 142.777 52.473,142.649 52.800,141.980 52.800 C 141.551 52.800,141.200 52.955,141.200 53.145 C 141.200 53.334,140.778 53.408,140.263 53.310 C 139.118 53.091,137.930 54.172,138.022 55.351 C 138.059 55.818,138.069 58.855,138.044 62.100 L 138.000 68.000 73.000 68.000 L 8.000 68.000 8.000 75.200 L 8.000 82.400 73.000 82.400 L 138.000 82.400 138.044 88.300 C 138.069 91.545,138.060 94.570,138.026 95.021 C 137.942 96.120,139.356 97.357,140.387 97.088 C 140.834 96.971,141.200 97.038,141.200 97.237 C 141.200 97.437,141.560 97.600,142.000 97.600 C 142.828 97.600,142.938 97.965,142.810 100.300 C 142.757 101.266,142.907 101.600,143.393 101.600 C 143.753 101.600,143.953 101.752,143.839 101.937 C 143.724 102.123,144.558 102.307,145.692 102.347 C 148.187 102.435,147.937 102.170,148.078 104.881 C 148.169 106.625,148.309 107.042,148.693 106.723 C 149.051 106.426,149.262 106.497,149.446 106.977 C 149.588 107.346,150.082 107.614,150.551 107.578 C 152.218 107.448,152.800 107.609,152.800 108.200 C 152.800 108.530,153.059 108.800,153.376 108.800 C 153.693 108.800,154.063 108.978,154.197 109.195 C 154.337 109.422,154.177 109.489,153.821 109.353 C 153.017 109.044,152.984 110.351,153.767 111.424 C 154.712 112.717,196.400 112.833,196.400 111.542 C 196.400 111.328,196.175 111.282,195.900 111.441 C 195.610 111.608,195.540 111.576,195.733 111.364 C 195.917 111.164,196.277 110.998,196.533 110.995 C 196.790 110.992,196.993 110.497,196.984 109.895 C 196.976 109.293,197.111 108.800,197.284 108.800 C 197.458 108.800,197.600 108.530,197.600 108.200 C 197.600 107.575,198.087 107.468,200.356 107.595 C 201.444 107.656,201.665 107.546,201.471 107.040 C 201.329 106.670,201.422 106.449,201.697 106.505 C 201.995 106.565,202.197 105.894,202.252 104.664 C 202.358 102.295,202.295 102.358,204.664 102.252 C 205.894 102.197,206.565 101.995,206.505 101.697 C 206.449 101.422,206.670 101.329,207.040 101.471 C 207.546 101.665,207.656 101.444,207.595 100.356 C 207.468 98.087,207.575 97.600,208.200 97.600 C 208.530 97.600,208.800 97.458,208.800 97.284 C 208.800 97.111,209.293 96.976,209.895 96.984 C 210.497 96.993,210.992 96.790,210.995 96.533 C 210.998 96.277,211.164 95.917,211.364 95.733 C 211.576 95.540,211.608 95.610,211.441 95.900 C 211.282 96.175,211.341 96.400,211.572 96.400 C 211.802 96.400,212.006 95.995,212.024 95.500 C 212.042 95.005,212.147 91.855,212.257 88.501 L 212.458 82.402 302.329 82.301 L 392.200 82.200 392.309 75.100 L 392.418 68.000 302.409 68.000 L 212.400 68.000 212.398 62.300 C 212.396 58.100,212.242 56.307,211.814 55.487 C 211.495 54.875,211.430 54.495,211.669 54.643 C 211.924 54.800,212.028 54.682,211.919 54.356 C 211.619 53.452,209.626 52.913,209.183 53.615 C 208.873 54.104,208.811 54.085,208.806 53.500 C 208.803 53.115,208.530 52.800,208.200 52.800 C 207.609 52.800,207.448 52.218,207.578 50.551 C 207.614 50.082,207.346 49.588,206.977 49.446 C 206.497 49.262,206.426 49.051,206.723 48.693 C 207.042 48.309,206.625 48.169,204.881 48.078 C 202.170 47.937,202.435 48.187,202.347 45.692 C 202.307 44.558,202.123 43.724,201.937 43.839 C 201.752 43.953,201.600 43.753,201.600 43.393 C 201.600 42.907,201.266 42.757,200.300 42.810 C 198.087 42.931,197.600 42.821,197.600 42.200 C 197.600 41.870,197.445 41.600,197.255 41.600 C 197.066 41.600,196.988 41.195,197.081 40.700 C 197.185 40.153,196.925 39.450,196.417 38.907 L 195.583 38.015 175.012 38.015 C 156.484 38.015,154.377 38.080,153.787 38.671 M183.000 48.811 C 186.019 49.238,188.000 49.886,188.000 50.449 C 188.000 50.642,188.192 50.800,188.426 50.800 C 188.660 50.800,189.298 51.331,189.844 51.980 C 190.390 52.629,191.795 53.612,192.965 54.166 C 194.872 55.068,195.232 55.452,196.422 57.844 C 197.160 59.327,198.072 60.598,198.475 60.704 C 198.874 60.808,199.200 61.060,199.200 61.263 C 199.200 61.467,199.537 61.996,199.950 62.438 C 203.050 65.765,202.473 85.352,199.178 88.680 C 198.339 89.528,197.051 91.291,196.315 92.599 C 195.234 94.522,194.544 95.222,192.713 96.251 C 191.468 96.952,189.806 98.167,189.021 98.952 C 185.538 102.435,165.898 103.173,162.438 99.950 C 161.996 99.537,161.467 99.200,161.263 99.200 C 161.060 99.200,160.805 98.864,160.698 98.453 C 160.588 98.033,159.515 97.240,158.242 96.637 C 156.072 95.611,153.600 93.025,153.600 91.781 C 153.600 91.507,152.970 90.730,152.200 90.054 C 151.430 89.378,150.800 88.639,150.800 88.412 C 150.800 88.185,150.642 88.000,150.449 88.000 C 148.767 88.000,147.781 75.130,148.852 67.165 C 149.325 63.651,150.138 61.950,152.073 60.428 C 152.634 59.987,153.586 58.618,154.189 57.387 C 155.093 55.540,155.607 54.996,157.132 54.274 C 159.334 53.233,160.800 52.055,160.800 51.328 C 160.800 51.038,160.997 50.800,161.238 50.800 C 161.479 50.800,162.160 50.456,162.750 50.036 C 164.746 48.614,176.551 47.900,183.000 48.811 M293.787 168.671 C 293.407 169.050,293.206 169.720,293.310 170.263 C 293.408 170.778,293.334 171.200,293.145 171.200 C 292.955 171.200,292.800 171.560,292.800 172.000 C 292.800 172.798,292.332 172.964,290.500 172.816 C 289.986 172.774,289.597 172.970,289.594 173.271 C 289.589 173.662,289.486 173.643,289.200 173.200 C 288.878 172.702,288.810 172.736,288.800 173.400 C 288.790 174.071,288.722 174.104,288.376 173.600 C 288.034 173.101,287.975 173.135,288.028 173.800 C 288.063 174.240,288.071 175.356,288.046 176.281 L 288.000 177.962 285.500 178.081 L 283.000 178.200 282.880 180.500 C 282.777 182.473,282.649 182.800,281.980 182.800 C 281.551 182.800,281.200 182.955,281.200 183.145 C 281.200 183.334,280.778 183.408,280.263 183.310 C 279.118 183.091,277.930 184.172,278.022 185.351 C 278.059 185.818,278.069 188.855,278.044 192.100 L 278.000 198.000 143.000 198.000 L 8.000 198.000 8.000 205.200 L 8.000 212.400 143.000 212.400 L 278.000 212.400 278.044 218.300 C 278.069 221.545,278.060 224.570,278.026 225.021 C 277.942 226.120,279.356 227.357,280.387 227.088 C 280.834 226.971,281.200 227.038,281.200 227.237 C 281.200 227.437,281.560 227.600,282.000 227.600 C 282.828 227.600,282.938 227.965,282.810 230.300 C 282.757 231.266,282.907 231.600,283.393 231.600 C 283.753 231.600,283.953 231.752,283.839 231.937 C 283.724 232.123,284.558 232.307,285.692 232.347 C 288.187 232.435,287.937 232.170,288.078 234.881 C 288.169 236.625,288.309 237.042,288.693 236.723 C 289.051 236.426,289.262 236.497,289.446 236.977 C 289.588 237.346,290.082 237.614,290.551 237.578 C 292.218 237.448,292.800 237.609,292.800 238.200 C 292.800 238.530,293.059 238.800,293.376 238.800 C 293.693 238.800,294.063 238.978,294.197 239.195 C 294.337 239.422,294.177 239.489,293.821 239.353 C 293.017 239.044,292.984 240.351,293.767 241.424 C 294.712 242.717,336.400 242.833,336.400 241.542 C 336.400 241.328,336.175 241.282,335.900 241.441 C 335.610 241.608,335.540 241.576,335.733 241.364 C 335.917 241.164,336.277 240.998,336.533 240.995 C 336.790 240.992,336.993 240.497,336.984 239.895 C 336.976 239.293,337.111 238.800,337.284 238.800 C 337.458 238.800,337.600 238.530,337.600 238.200 C 337.600 237.575,338.087 237.468,340.356 237.595 C 341.444 237.656,341.665 237.546,341.471 237.040 C 341.329 236.670,341.422 236.449,341.697 236.505 C 341.995 236.565,342.197 235.894,342.252 234.664 C 342.358 232.295,342.295 232.358,344.664 232.252 C 345.894 232.197,346.565 231.995,346.505 231.697 C 346.449 231.422,346.670 231.329,347.040 231.471 C 347.546 231.665,347.656 231.444,347.595 230.356 C 347.468 228.087,347.575 227.600,348.200 227.600 C 348.530 227.600,348.800 227.458,348.800 227.284 C 348.800 227.111,349.293 226.976,349.895 226.984 C 350.497 226.993,350.992 226.790,350.995 226.533 C 350.998 226.277,351.164 225.917,351.364 225.733 C 351.576 225.540,351.608 225.610,351.441 225.900 C 351.282 226.175,351.341 226.400,351.572 226.400 C 351.802 226.400,352.006 225.995,352.024 225.500 C 352.042 225.005,352.147 221.857,352.257 218.504 L 352.458 212.407 372.329 212.304 L 392.200 212.200 392.309 205.100 L 392.418 198.000 372.409 198.000 L 352.400 198.000 352.398 192.300 C 352.396 188.100,352.242 186.307,351.814 185.487 C 351.495 184.875,351.430 184.495,351.669 184.643 C 351.924 184.800,352.028 184.682,351.919 184.356 C 351.619 183.452,349.626 182.913,349.183 183.615 C 348.873 184.104,348.811 184.085,348.806 183.500 C 348.803 183.115,348.530 182.800,348.200 182.800 C 347.609 182.800,347.448 182.218,347.578 180.551 C 347.614 180.082,347.346 179.588,346.977 179.446 C 346.497 179.262,346.426 179.051,346.723 178.693 C 347.042 178.309,346.625 178.169,344.881 178.078 C 342.170 177.937,342.435 178.187,342.347 175.692 C 342.307 174.558,342.123 173.724,341.937 173.839 C 341.752 173.953,341.600 173.753,341.600 173.393 C 341.600 172.907,341.266 172.757,340.300 172.810 C 338.087 172.931,337.600 172.821,337.600 172.200 C 337.600 171.870,337.445 171.600,337.255 171.600 C 337.066 171.600,336.988 171.195,337.081 170.700 C 337.185 170.153,336.925 169.450,336.417 168.907 L 335.583 168.015 315.012 168.015 C 296.484 168.015,294.377 168.080,293.787 168.671 M323.000 178.811 C 326.019 179.238,328.000 179.886,328.000 180.449 C 328.000 180.642,328.192 180.800,328.426 180.800 C 328.660 180.800,329.298 181.331,329.844 181.980 C 330.390 182.629,331.795 183.612,332.965 184.166 C 334.872 185.068,335.232 185.452,336.422 187.844 C 337.160 189.327,338.072 190.598,338.475 190.704 C 338.874 190.808,339.200 191.060,339.200 191.263 C 339.200 191.467,339.537 191.996,339.950 192.438 C 343.050 195.765,342.473 215.352,339.178 218.680 C 338.339 219.528,337.051 221.291,336.315 222.599 C 335.234 224.522,334.544 225.222,332.713 226.251 C 331.468 226.952,329.806 228.167,329.021 228.952 C 325.538 232.435,305.898 233.173,302.438 229.950 C 301.996 229.537,301.467 229.200,301.263 229.200 C 301.060 229.200,300.805 228.864,300.698 228.453 C 300.588 228.033,299.515 227.240,298.242 226.637 C 296.072 225.611,293.600 223.025,293.600 221.781 C 293.600 221.507,292.970 220.730,292.200 220.054 C 291.430 219.378,290.800 218.639,290.800 218.412 C 290.800 218.185,290.642 218.000,290.449 218.000 C 288.767 218.000,287.781 205.130,288.852 197.165 C 289.325 193.651,290.138 191.950,292.073 190.428 C 292.634 189.987,293.586 188.618,294.189 187.387 C 295.093 185.540,295.607 184.996,297.132 184.274 C 299.334 183.233,300.800 182.055,300.800 181.328 C 300.800 181.038,300.997 180.800,301.238 180.800 C 301.479 180.800,302.160 180.456,302.750 180.036 C 304.746 178.614,316.551 177.900,323.000 178.811 M93.787 288.671 C 93.407 289.050,93.206 289.720,93.310 290.263 C 93.408 290.778,93.334 291.200,93.145 291.200 C 92.955 291.200,92.800 291.560,92.800 292.000 C 92.800 292.798,92.332 292.964,90.500 292.816 C 89.986 292.774,89.597 292.970,89.594 293.271 C 89.589 293.662,89.486 293.643,89.200 293.200 C 88.878 292.702,88.810 292.736,88.800 293.400 C 88.790 294.071,88.722 294.104,88.376 293.600 C 88.034 293.101,87.975 293.135,88.028 293.800 C 88.063 294.240,88.071 295.356,88.046 296.281 L 88.000 297.962 85.500 298.081 L 83.000 298.200 82.880 300.500 C 82.777 302.473,82.649 302.800,81.980 302.800 C 81.551 302.800,81.200 302.955,81.200 303.145 C 81.200 303.334,80.778 303.408,80.263 303.310 C 79.118 303.091,77.930 304.172,78.022 305.351 C 78.059 305.818,78.069 308.855,78.044 312.100 L 78.000 318.000 43.000 318.000 L 8.000 318.000 8.000 325.200 L 8.000 332.400 43.000 332.400 L 78.000 332.400 78.044 338.300 C 78.069 341.545,78.060 344.570,78.026 345.021 C 77.942 346.120,79.356 347.357,80.387 347.088 C 80.834 346.971,81.200 347.038,81.200 347.237 C 81.200 347.437,81.560 347.600,82.000 347.600 C 82.828 347.600,82.938 347.965,82.810 350.300 C 82.757 351.266,82.907 351.600,83.393 351.600 C 83.753 351.600,83.953 351.752,83.839 351.937 C 83.724 352.123,84.558 352.307,85.692 352.347 C 88.187 352.435,87.937 352.170,88.078 354.881 C 88.169 356.625,88.309 357.042,88.693 356.723 C 89.051 356.426,89.262 356.497,89.446 356.977 C 89.588 357.346,90.082 357.614,90.551 357.578 C 92.218 357.448,92.800 357.609,92.800 358.200 C 92.800 358.530,93.059 358.800,93.376 358.800 C 93.693 358.800,94.063 358.978,94.197 359.195 C 94.337 359.422,94.177 359.489,93.821 359.353 C 93.017 359.044,92.984 360.351,93.767 361.424 C 94.712 362.717,136.400 362.833,136.400 361.542 C 136.400 361.328,136.175 361.282,135.900 361.441 C 135.610 361.608,135.540 361.576,135.733 361.364 C 135.917 361.164,136.277 360.998,136.533 360.995 C 136.790 360.992,136.993 360.497,136.984 359.895 C 136.976 359.293,137.111 358.800,137.284 358.800 C 137.458 358.800,137.600 358.530,137.600 358.200 C 137.600 357.575,138.087 357.468,140.356 357.595 C 141.444 357.656,141.665 357.546,141.471 357.040 C 141.329 356.670,141.422 356.449,141.697 356.505 C 141.995 356.565,142.197 355.894,142.252 354.664 C 142.358 352.295,142.295 352.358,144.664 352.252 C 145.894 352.197,146.565 351.995,146.505 351.697 C 146.449 351.422,146.670 351.329,147.040 351.471 C 147.546 351.665,147.656 351.444,147.595 350.356 C 147.468 348.087,147.575 347.600,148.200 347.600 C 148.530 347.600,148.800 347.458,148.800 347.284 C 148.800 347.111,149.293 346.976,149.895 346.984 C 150.497 346.993,150.992 346.790,150.995 346.533 C 150.998 346.277,151.164 345.917,151.364 345.733 C 151.576 345.540,151.608 345.610,151.441 345.900 C 151.282 346.175,151.341 346.400,151.572 346.400 C 151.802 346.400,152.006 345.995,152.024 345.500 C 152.042 345.005,152.147 341.855,152.257 338.501 L 152.458 332.401 272.329 332.301 L 392.200 332.200 392.309 325.100 L 392.418 318.000 272.409 318.000 L 152.400 318.000 152.398 312.300 C 152.396 308.100,152.242 306.307,151.814 305.487 C 151.495 304.875,151.430 304.495,151.669 304.643 C 151.924 304.800,152.028 304.682,151.919 304.356 C 151.619 303.452,149.626 302.913,149.183 303.615 C 148.873 304.104,148.811 304.085,148.806 303.500 C 148.803 303.115,148.530 302.800,148.200 302.800 C 147.609 302.800,147.448 302.218,147.578 300.551 C 147.614 300.082,147.346 299.588,146.977 299.446 C 146.497 299.262,146.426 299.051,146.723 298.693 C 147.042 298.309,146.625 298.169,144.881 298.078 C 142.170 297.937,142.435 298.187,142.347 295.692 C 142.307 294.558,142.123 293.724,141.937 293.839 C 141.752 293.953,141.600 293.753,141.600 293.393 C 141.600 292.907,141.266 292.757,140.300 292.810 C 138.087 292.931,137.600 292.821,137.600 292.200 C 137.600 291.870,137.445 291.600,137.255 291.600 C 137.066 291.600,136.988 291.195,137.081 290.700 C 137.185 290.153,136.925 289.450,136.417 288.907 L 135.583 288.015 115.012 288.015 C 96.484 288.015,94.377 288.080,93.787 288.671 M123.000 298.811 C 126.019 299.238,128.000 299.886,128.000 300.449 C 128.000 300.642,128.192 300.800,128.426 300.800 C 128.660 300.800,129.298 301.331,129.844 301.980 C 130.390 302.629,131.795 303.612,132.965 304.166 C 134.872 305.068,135.232 305.452,136.422 307.844 C 137.160 309.327,138.072 310.598,138.475 310.704 C 138.874 310.808,139.200 311.060,139.200 311.263 C 139.200 311.467,139.537 311.996,139.950 312.438 C 143.050 315.765,142.473 335.352,139.178 338.680 C 138.339 339.528,137.051 341.291,136.315 342.599 C 135.234 344.522,134.544 345.222,132.713 346.251 C 131.468 346.952,129.806 348.167,129.021 348.952 C 125.538 352.435,105.898 353.173,102.438 349.950 C 101.996 349.537,101.467 349.200,101.263 349.200 C 101.060 349.200,100.805 348.864,100.698 348.453 C 100.588 348.033,99.515 347.240,98.242 346.637 C 96.072 345.611,93.600 343.025,93.600 341.781 C 93.600 341.507,92.970 340.730,92.200 340.054 C 91.430 339.378,90.800 338.639,90.800 338.412 C 90.800 338.185,90.642 338.000,90.449 338.000 C 88.767 338.000,87.781 325.130,88.852 317.165 C 89.325 313.651,90.138 311.950,92.073 310.428 C 92.634 309.987,93.586 308.618,94.189 307.387 C 95.093 305.540,95.607 304.996,97.132 304.274 C 99.334 303.233,100.800 302.055,100.800 301.328 C 100.800 301.038,100.997 300.800,101.238 300.800 C 101.479 300.800,102.160 300.456,102.750 300.036 C 104.746 298.614,116.551 297.900,123.000 298.811 " stroke="none" fill="#448cc4" fill-rule="evenodd"></path></g></svg>