<svg id="svg" xmlns="http://www.w3.org/2000/svg" xmlns:xlink="http://www.w3.org/1999/xlink" width="400" height="400" viewBox="0, 0, 400,400"><g id="svgg"><path id="path0" d="M91.200 44.000 C 91.200 44.228,90.011 44.400,88.433 44.400 C 85.025 44.400,84.400 44.624,84.400 45.843 C 84.400 46.369,84.244 46.800,84.052 46.800 C 83.861 46.800,83.602 47.433,83.476 48.207 C 83.191 49.968,81.287 51.925,79.526 52.268 C 78.797 52.410,78.072 52.722,77.915 52.963 C 77.715 53.270,69.815 53.435,51.415 53.516 C 36.412 53.583,25.200 53.785,25.200 53.989 C 25.200 54.186,24.840 54.460,24.400 54.600 C 23.609 54.851,23.600 55.205,23.600 85.080 L 23.600 115.306 24.461 116.053 C 25.690 117.119,135.108 117.235,136.171 116.171 C 137.282 115.061,137.111 45.244,135.995 44.289 C 135.051 43.480,91.200 43.197,91.200 44.000 M331.200 154.000 C 331.200 154.228,330.011 154.400,328.433 154.400 C 325.025 154.400,324.400 154.624,324.400 155.843 C 324.400 156.369,324.244 156.800,324.052 156.800 C 323.861 156.800,323.602 157.433,323.476 158.207 C 323.191 159.968,321.287 161.925,319.526 162.268 C 318.797 162.410,318.072 162.722,317.915 162.963 C 317.715 163.270,309.811 163.435,291.398 163.516 C 265.965 163.629,265.143 163.657,264.384 164.416 C 263.236 165.564,263.145 224.660,264.289 225.995 C 265.245 227.112,375.058 227.285,376.171 226.171 C 377.282 225.061,377.111 155.244,375.995 154.289 C 375.051 153.480,331.200 153.197,331.200 154.000 M331.200 304.000 C 331.200 304.228,330.011 304.400,328.433 304.400 C 325.025 304.400,324.400 304.624,324.400 305.843 C 324.400 306.369,324.244 306.800,324.052 306.800 C 323.861 306.800,323.602 307.433,323.476 308.207 C 323.191 309.968,321.287 311.925,319.526 312.268 C 318.797 312.410,318.072 312.722,317.915 312.963 C 317.715 313.270,309.811 313.435,291.398 313.516 C 265.965 313.629,265.143 313.657,264.384 314.416 C 263.236 315.564,263.145 374.660,264.289 375.995 C 265.245 377.112,375.058 377.285,376.171 376.171 C 377.282 375.061,377.111 305.244,375.995 304.289 C 375.051 303.480,331.200 303.197,331.200 304.000 " stroke="none" fill="#dcf4fc" fill-rule="evenodd"></path><path id="path1" d="M72.247 16.221 C 72.101 16.601,72.174 16.740,72.435 16.578 C 72.670 16.433,73.202 16.681,73.619 17.128 C 74.149 17.697,74.230 17.994,73.888 18.116 C 73.620 18.212,73.523 18.423,73.674 18.586 C 73.824 18.748,74.198 18.646,74.505 18.360 C 74.977 17.919,74.887 17.667,73.918 16.719 C 72.582 15.414,72.560 15.407,72.247 16.221 M20.033 16.691 C 19.500 16.791,18.510 17.428,17.833 18.106 L 16.600 19.338 16.600 30.396 L 16.600 41.453 17.758 42.526 C 18.396 43.117,19.341 43.600,19.858 43.600 C 20.376 43.600,20.800 43.780,20.800 44.000 C 20.800 44.262,28.247 44.400,42.341 44.400 C 54.189 44.400,64.989 44.516,66.341 44.657 C 72.757 45.328,66.939 45.600,46.200 45.600 C 33.387 45.600,23.600 45.753,23.600 45.953 C 23.600 46.148,22.469 46.379,21.087 46.467 C 17.629 46.687,16.687 47.629,16.467 51.087 C 16.379 52.469,16.148 53.600,15.953 53.600 C 15.752 53.600,15.600 67.178,15.600 85.200 C 15.600 103.222,15.752 116.800,15.953 116.800 C 16.148 116.800,16.379 117.925,16.468 119.300 C 16.629 121.791,17.549 123.600,18.656 123.600 C 18.918 123.600,19.208 123.825,19.300 124.100 C 19.529 124.786,140.676 124.840,141.115 124.154 C 141.272 123.909,141.805 123.582,142.299 123.427 C 142.794 123.273,143.308 122.709,143.442 122.173 C 143.577 121.638,143.847 121.200,144.043 121.200 C 144.240 121.200,144.400 120.210,144.400 119.000 C 144.400 117.790,144.580 116.800,144.800 116.800 C 145.064 116.800,145.200 104.333,145.200 80.200 C 145.200 56.067,145.064 43.600,144.800 43.600 C 144.580 43.600,144.400 42.610,144.400 41.400 C 144.400 40.190,144.220 39.200,144.000 39.200 C 143.780 39.200,143.600 38.970,143.600 38.689 C 143.600 37.551,141.818 36.631,139.300 36.468 C 137.925 36.379,136.800 36.148,136.800 35.953 C 136.800 35.752,123.914 35.600,106.843 35.600 C 80.583 35.600,76.857 35.526,76.655 35.000 C 76.515 34.635,76.655 34.400,77.013 34.400 C 77.336 34.400,77.600 34.220,77.600 34.000 C 77.600 33.780,77.171 33.600,76.647 33.600 C 76.030 33.600,75.619 33.318,75.484 32.800 C 75.348 32.280,75.472 32.000,75.837 32.000 C 76.147 32.000,76.400 31.711,76.400 31.357 C 76.400 30.950,76.180 30.799,75.800 30.945 C 75.302 31.136,75.200 30.701,75.200 28.387 C 75.200 25.681,75.171 25.600,74.200 25.600 C 73.039 25.600,72.891 25.022,73.900 24.427 C 74.451 24.102,74.489 23.941,74.078 23.670 C 73.764 23.463,73.549 22.501,73.539 21.263 C 73.528 19.766,73.369 19.200,72.962 19.200 C 72.265 19.200,72.220 19.869,72.900 20.112 C 73.191 20.216,73.252 20.439,73.045 20.645 C 72.839 20.852,72.615 20.789,72.511 20.496 C 72.346 20.035,70.885 18.519,69.445 17.315 C 68.575 16.587,66.021 16.522,65.581 17.217 C 65.274 17.702,65.211 17.683,65.206 17.100 C 65.200 16.428,23.438 16.050,20.033 16.691 M70.000 17.019 C 70.000 17.244,72.014 19.200,72.246 19.200 C 72.317 19.200,72.271 18.930,72.145 18.600 C 72.018 18.270,71.754 18.000,71.557 18.000 C 71.361 18.000,71.200 17.730,71.200 17.400 C 71.200 17.070,70.930 16.800,70.600 16.800 C 70.270 16.800,70.000 16.899,70.000 17.019 M56.958 21.700 C 57.342 22.085,57.895 22.400,58.185 22.400 C 58.476 22.400,58.823 22.838,58.958 23.373 C 59.092 23.909,59.561 24.461,60.001 24.600 C 60.440 24.740,60.800 25.136,60.800 25.480 C 60.800 26.173,64.507 30.000,65.177 30.000 C 65.410 30.000,65.600 30.180,65.600 30.400 C 65.600 30.620,65.856 30.800,66.169 30.800 C 66.908 30.800,69.200 33.092,69.200 33.831 C 69.200 34.144,69.380 34.400,69.600 34.400 C 70.546 34.400,69.873 36.124,68.352 37.600 C 67.004 38.908,66.421 39.200,65.152 39.200 C 64.298 39.200,63.600 39.380,63.600 39.600 C 63.600 39.861,56.859 40.000,44.177 40.000 L 24.755 40.000 22.777 38.053 L 20.800 36.107 20.800 30.285 L 20.800 24.463 22.663 22.600 L 24.526 20.737 40.392 20.868 C 54.864 20.988,56.319 21.062,56.958 21.700 M153.600 26.200 C 153.600 26.540,153.959 26.800,154.429 26.800 C 155.165 26.800,155.190 26.733,154.657 26.200 C 154.327 25.870,153.954 25.600,153.829 25.600 C 153.703 25.600,153.600 25.870,153.600 26.200 M135.600 39.600 C 135.600 39.820,135.870 40.000,136.200 40.000 C 136.530 40.000,136.800 40.180,136.800 40.400 C 136.800 40.620,137.044 40.800,137.342 40.800 C 137.977 40.800,140.000 42.586,140.000 43.148 C 140.000 43.360,140.225 43.608,140.500 43.700 C 140.895 43.832,141.000 51.489,141.000 80.200 C 141.000 108.911,140.895 116.568,140.500 116.700 C 140.225 116.792,140.000 117.046,140.000 117.264 C 140.000 117.483,139.474 118.188,138.831 118.831 C 138.188 119.474,137.483 120.000,137.264 120.000 C 137.046 120.000,136.792 120.225,136.700 120.500 C 136.568 120.897,124.911 121.000,80.200 121.000 C 35.489 121.000,23.832 120.897,23.700 120.500 C 23.608 120.225,23.360 120.000,23.148 120.000 C 22.586 120.000,20.800 117.977,20.800 117.342 C 20.800 117.044,20.620 116.800,20.400 116.800 C 20.180 116.800,20.000 116.530,20.000 116.200 C 20.000 115.870,19.820 115.600,19.600 115.600 C 19.337 115.600,19.200 105.200,19.200 85.200 C 19.200 65.200,19.337 54.800,19.600 54.800 C 19.820 54.800,20.000 54.530,20.000 54.200 C 20.000 53.870,20.180 53.600,20.400 53.600 C 20.620 53.600,20.800 53.400,20.800 53.156 C 20.800 52.542,22.490 50.815,23.100 50.807 C 23.375 50.803,23.600 50.620,23.600 50.400 C 23.600 50.180,23.960 50.000,24.400 50.000 C 24.840 50.000,25.200 49.835,25.200 49.634 C 25.200 49.418,35.391 49.213,50.067 49.134 C 69.509 49.029,74.970 48.891,75.100 48.500 C 75.192 48.225,75.458 48.000,75.693 48.000 C 76.316 48.000,78.655 45.486,78.978 44.471 C 79.130 43.992,79.413 43.600,79.608 43.600 C 79.802 43.600,80.573 42.970,81.321 42.200 C 82.069 41.430,82.888 40.800,83.140 40.800 C 83.393 40.800,83.600 40.620,83.600 40.400 C 83.600 40.163,85.067 40.000,87.200 40.000 C 89.333 40.000,90.800 39.837,90.800 39.600 C 90.800 39.338,98.533 39.200,113.200 39.200 C 127.867 39.200,135.600 39.338,135.600 39.600 M312.247 126.221 C 312.101 126.601,312.174 126.740,312.435 126.578 C 312.670 126.433,313.202 126.681,313.619 127.128 C 314.149 127.697,314.230 127.994,313.888 128.116 C 313.620 128.212,313.523 128.423,313.674 128.586 C 313.824 128.748,314.198 128.646,314.505 128.360 C 314.977 127.919,314.887 127.667,313.918 126.719 C 312.582 125.414,312.560 125.407,312.247 126.221 M260.033 126.691 C 259.500 126.791,258.510 127.428,257.833 128.106 L 256.600 129.338 256.600 140.396 L 256.600 151.453 257.758 152.526 C 258.396 153.117,259.341 153.600,259.858 153.600 C 260.376 153.600,260.800 153.780,260.800 154.000 C 260.800 154.262,268.247 154.400,282.341 154.400 C 294.189 154.400,304.989 154.516,306.341 154.657 C 312.757 155.328,306.939 155.600,286.200 155.600 C 273.387 155.600,263.600 155.753,263.600 155.953 C 263.600 156.148,262.469 156.379,261.087 156.467 C 257.629 156.687,256.687 157.629,256.467 161.087 C 256.379 162.469,256.148 163.600,255.953 163.600 C 255.752 163.600,255.600 177.178,255.600 195.200 C 255.600 213.222,255.752 226.800,255.953 226.800 C 256.148 226.800,256.379 227.925,256.468 229.300 C 256.629 231.791,257.549 233.600,258.656 233.600 C 258.918 233.600,259.208 233.825,259.300 234.100 C 259.529 234.786,380.676 234.840,381.115 234.154 C 381.272 233.909,381.805 233.582,382.299 233.427 C 382.794 233.273,383.308 232.709,383.442 232.173 C 383.577 231.638,383.847 231.200,384.043 231.200 C 384.240 231.200,384.400 230.210,384.400 229.000 C 384.400 227.790,384.580 226.800,384.800 226.800 C 385.064 226.800,385.200 214.333,385.200 190.200 C 385.200 166.067,385.064 153.600,384.800 153.600 C 384.580 153.600,384.400 152.610,384.400 151.400 C 384.400 150.190,384.220 149.200,384.000 149.200 C 383.780 149.200,383.600 148.970,383.600 148.689 C 383.600 147.551,381.818 146.631,379.300 146.468 C 377.925 146.379,376.800 146.148,376.800 145.953 C 376.800 145.752,363.914 145.600,346.843 145.600 C 320.583 145.600,316.857 145.526,316.655 145.000 C 316.515 144.635,316.655 144.400,317.013 144.400 C 317.336 144.400,317.600 144.220,317.600 144.000 C 317.600 143.780,317.171 143.600,316.647 143.600 C 316.030 143.600,315.619 143.318,315.484 142.800 C 315.348 142.280,315.472 142.000,315.837 142.000 C 316.147 142.000,316.400 141.711,316.400 141.357 C 316.400 140.950,316.180 140.799,315.800 140.945 C 315.302 141.136,315.200 140.701,315.200 138.387 C 315.200 135.681,315.171 135.600,314.200 135.600 C 313.039 135.600,312.891 135.022,313.900 134.427 C 314.451 134.102,314.489 133.941,314.078 133.670 C 313.764 133.463,313.549 132.501,313.539 131.263 C 313.528 129.766,313.369 129.200,312.962 129.200 C 312.265 129.200,312.220 129.869,312.900 130.112 C 313.191 130.216,313.252 130.439,313.045 130.645 C 312.839 130.852,312.615 130.789,312.511 130.496 C 312.346 130.035,310.885 128.519,309.445 127.315 C 308.648 126.648,305.900 126.500,305.696 127.113 C 305.466 127.803,304.800 127.718,304.800 127.000 C 304.800 126.419,263.010 126.130,260.033 126.691 M310.000 127.019 C 310.000 127.244,312.014 129.200,312.246 129.200 C 312.317 129.200,312.271 128.930,312.145 128.600 C 312.018 128.270,311.754 128.000,311.557 128.000 C 311.361 128.000,311.200 127.730,311.200 127.400 C 311.200 127.070,310.930 126.800,310.600 126.800 C 310.270 126.800,310.000 126.899,310.000 127.019 M296.958 131.700 C 297.342 132.085,297.895 132.400,298.185 132.400 C 298.476 132.400,298.823 132.838,298.958 133.373 C 299.092 133.909,299.561 134.461,300.001 134.600 C 300.440 134.740,300.800 135.136,300.800 135.480 C 300.800 136.173,304.507 140.000,305.177 140.000 C 305.410 140.000,305.600 140.180,305.600 140.400 C 305.600 140.620,305.856 140.800,306.169 140.800 C 306.908 140.800,309.200 143.092,309.200 143.831 C 309.200 144.144,309.380 144.400,309.600 144.400 C 310.546 144.400,309.873 146.124,308.352 147.600 C 307.004 148.908,306.421 149.200,305.152 149.200 C 304.298 149.200,303.600 149.380,303.600 149.600 C 303.600 149.861,296.859 150.000,284.177 150.000 L 264.755 150.000 262.777 148.053 L 260.800 146.107 260.800 140.285 L 260.800 134.463 262.663 132.600 L 264.526 130.737 280.392 130.868 C 294.864 130.988,296.319 131.062,296.958 131.700 M5.600 133.957 C 5.600 134.154,5.870 134.418,6.200 134.545 C 6.565 134.685,6.800 134.545,6.800 134.187 C 6.800 133.864,6.530 133.600,6.200 133.600 C 5.870 133.600,5.600 133.761,5.600 133.957 M153.600 134.200 C 153.600 134.873,153.673 134.900,154.567 134.557 C 155.461 134.214,155.354 133.600,154.400 133.600 C 153.956 133.600,153.600 133.867,153.600 134.200 M393.600 136.200 C 393.600 136.540,393.959 136.800,394.429 136.800 C 395.165 136.800,395.190 136.733,394.657 136.200 C 394.327 135.870,393.954 135.600,393.829 135.600 C 393.703 135.600,393.600 135.870,393.600 136.200 M375.600 149.600 C 375.600 149.820,375.870 150.000,376.200 150.000 C 376.530 150.000,376.800 150.180,376.800 150.400 C 376.800 150.620,377.044 150.800,377.342 150.800 C 377.977 150.800,380.000 152.586,380.000 153.148 C 380.000 153.360,380.225 153.608,380.500 153.700 C 380.895 153.832,381.000 161.489,381.000 190.200 C 381.000 218.911,380.895 226.568,380.500 226.700 C 380.225 226.792,380.000 227.046,380.000 227.264 C 380.000 227.483,379.474 228.188,378.831 228.831 C 378.188 229.474,377.483 230.000,377.264 230.000 C 377.046 230.000,376.792 230.225,376.700 230.500 C 376.568 230.897,364.911 231.000,320.200 231.000 C 275.489 231.000,263.832 230.897,263.700 230.500 C 263.608 230.225,263.360 230.000,263.148 230.000 C 262.586 230.000,260.800 227.977,260.800 227.342 C 260.800 227.044,260.620 226.800,260.400 226.800 C 260.180 226.800,260.000 226.530,260.000 226.200 C 260.000 225.870,259.820 225.600,259.600 225.600 C 259.337 225.600,259.200 215.200,259.200 195.200 C 259.200 175.200,259.337 164.800,259.600 164.800 C 259.820 164.800,260.000 164.530,260.000 164.200 C 260.000 163.870,260.180 163.600,260.400 163.600 C 260.620 163.600,260.800 163.400,260.800 163.156 C 260.800 162.542,262.490 160.815,263.100 160.807 C 263.375 160.803,263.600 160.620,263.600 160.400 C 263.600 160.180,263.870 160.000,264.200 160.000 C 264.530 160.000,264.800 159.835,264.800 159.634 C 264.800 159.417,275.059 159.213,289.867 159.134 C 309.469 159.029,314.970 158.891,315.100 158.500 C 315.192 158.225,315.458 158.000,315.693 158.000 C 316.316 158.000,318.655 155.486,318.978 154.471 C 319.130 153.992,319.413 153.600,319.608 153.600 C 319.802 153.600,320.573 152.970,321.321 152.200 C 322.069 151.430,322.888 150.800,323.140 150.800 C 323.393 150.800,323.600 150.620,323.600 150.400 C 323.600 150.163,325.067 150.000,327.200 150.000 C 329.333 150.000,330.800 149.837,330.800 149.600 C 330.800 149.338,338.533 149.200,353.200 149.200 C 367.867 149.200,375.600 149.338,375.600 149.600 M245.600 243.957 C 245.600 244.154,245.870 244.418,246.200 244.545 C 246.565 244.685,246.800 244.545,246.800 244.187 C 246.800 243.864,246.530 243.600,246.200 243.600 C 245.870 243.600,245.600 243.761,245.600 243.957 M393.600 244.200 C 393.600 244.873,393.673 244.900,394.567 244.557 C 395.461 244.214,395.354 243.600,394.400 243.600 C 393.956 243.600,393.600 243.867,393.600 244.200 M312.247 276.221 C 312.101 276.601,312.174 276.740,312.435 276.578 C 312.670 276.433,313.202 276.681,313.619 277.128 C 314.149 277.697,314.230 277.994,313.888 278.116 C 313.620 278.212,313.523 278.423,313.674 278.586 C 313.824 278.748,314.198 278.646,314.505 278.360 C 314.977 277.919,314.887 277.667,313.918 276.719 C 312.582 275.414,312.560 275.407,312.247 276.221 M260.033 276.691 C 259.500 276.791,258.510 277.428,257.833 278.106 L 256.600 279.338 256.600 290.396 L 256.600 301.453 257.758 302.526 C 258.396 303.117,259.341 303.600,259.858 303.600 C 260.376 303.600,260.800 303.780,260.800 304.000 C 260.800 304.262,268.247 304.400,282.341 304.400 C 294.189 304.400,304.989 304.516,306.341 304.657 C 312.757 305.328,306.939 305.600,286.200 305.600 C 273.387 305.600,263.600 305.753,263.600 305.953 C 263.600 306.148,262.469 306.379,261.087 306.467 C 257.629 306.687,256.687 307.629,256.467 311.087 C 256.379 312.469,256.148 313.600,255.953 313.600 C 255.752 313.600,255.600 327.178,255.600 345.200 C 255.600 363.222,255.752 376.800,255.953 376.800 C 256.148 376.800,256.379 377.925,256.468 379.300 C 256.629 381.791,257.549 383.600,258.656 383.600 C 258.918 383.600,259.208 383.825,259.300 384.100 C 259.529 384.786,380.676 384.840,381.115 384.154 C 381.272 383.909,381.805 383.582,382.299 383.427 C 382.794 383.273,383.308 382.709,383.442 382.173 C 383.577 381.638,383.847 381.200,384.043 381.200 C 384.240 381.200,384.400 380.210,384.400 379.000 C 384.400 377.790,384.580 376.800,384.800 376.800 C 385.064 376.800,385.200 364.333,385.200 340.200 C 385.200 316.067,385.064 303.600,384.800 303.600 C 384.580 303.600,384.400 302.610,384.400 301.400 C 384.400 300.190,384.220 299.200,384.000 299.200 C 383.780 299.200,383.600 298.970,383.600 298.689 C 383.600 297.551,381.818 296.631,379.300 296.468 C 377.925 296.379,376.800 296.148,376.800 295.953 C 376.800 295.752,363.914 295.600,346.843 295.600 C 320.583 295.600,316.857 295.526,316.655 295.000 C 316.515 294.635,316.655 294.400,317.013 294.400 C 317.336 294.400,317.600 294.220,317.600 294.000 C 317.600 293.780,317.171 293.600,316.647 293.600 C 316.030 293.600,315.619 293.318,315.484 292.800 C 315.348 292.280,315.472 292.000,315.837 292.000 C 316.147 292.000,316.400 291.711,316.400 291.357 C 316.400 290.950,316.180 290.799,315.800 290.945 C 315.302 291.136,315.200 290.701,315.200 288.387 C 315.200 285.681,315.171 285.600,314.200 285.600 C 313.039 285.600,312.891 285.022,313.900 284.427 C 314.451 284.102,314.489 283.941,314.078 283.670 C 313.764 283.463,313.549 282.501,313.539 281.263 C 313.528 279.766,313.369 279.200,312.962 279.200 C 312.265 279.200,312.220 279.869,312.900 280.112 C 313.191 280.216,313.252 280.439,313.045 280.645 C 312.839 280.852,312.615 280.789,312.511 280.496 C 312.346 280.035,310.885 278.519,309.445 277.315 C 308.648 276.648,305.900 276.500,305.696 277.113 C 305.466 277.803,304.800 277.718,304.800 277.000 C 304.800 276.419,263.010 276.130,260.033 276.691 M310.000 277.019 C 310.000 277.244,312.014 279.200,312.246 279.200 C 312.317 279.200,312.271 278.930,312.145 278.600 C 312.018 278.270,311.754 278.000,311.557 278.000 C 311.361 278.000,311.200 277.730,311.200 277.400 C 311.200 277.070,310.930 276.800,310.600 276.800 C 310.270 276.800,310.000 276.899,310.000 277.019 M296.958 281.700 C 297.342 282.085,297.895 282.400,298.185 282.400 C 298.476 282.400,298.823 282.838,298.958 283.373 C 299.092 283.909,299.561 284.461,300.001 284.600 C 300.440 284.740,300.800 285.136,300.800 285.480 C 300.800 286.173,304.507 290.000,305.177 290.000 C 305.410 290.000,305.600 290.180,305.600 290.400 C 305.600 290.620,305.856 290.800,306.169 290.800 C 306.908 290.800,309.200 293.092,309.200 293.831 C 309.200 294.144,309.380 294.400,309.600 294.400 C 310.546 294.400,309.873 296.124,308.352 297.600 C 307.004 298.908,306.421 299.200,305.152 299.200 C 304.298 299.200,303.600 299.380,303.600 299.600 C 303.600 299.861,296.859 300.000,284.177 300.000 L 264.755 300.000 262.777 298.053 L 260.800 296.107 260.800 290.285 L 260.800 284.463 262.663 282.600 L 264.526 280.737 280.392 280.868 C 294.864 280.988,296.319 281.062,296.958 281.700 M393.600 286.200 C 393.600 286.540,393.959 286.800,394.429 286.800 C 395.165 286.800,395.190 286.733,394.657 286.200 C 394.327 285.870,393.954 285.600,393.829 285.600 C 393.703 285.600,393.600 285.870,393.600 286.200 M375.600 299.600 C 375.600 299.820,375.870 300.000,376.200 300.000 C 376.530 300.000,376.800 300.180,376.800 300.400 C 376.800 300.620,377.044 300.800,377.342 300.800 C 377.977 300.800,380.000 302.586,380.000 303.148 C 380.000 303.360,380.225 303.608,380.500 303.700 C 381.233 303.944,381.233 376.456,380.500 376.700 C 380.225 376.792,380.000 377.046,380.000 377.264 C 380.000 377.483,379.474 378.188,378.831 378.831 C 378.188 379.474,377.483 380.000,377.264 380.000 C 377.046 380.000,376.792 380.225,376.700 380.500 C 376.568 380.897,364.911 381.000,320.200 381.000 C 275.489 381.000,263.832 380.897,263.700 380.500 C 263.608 380.225,263.360 380.000,263.148 380.000 C 262.586 380.000,260.800 377.977,260.800 377.342 C 260.800 377.044,260.620 376.800,260.400 376.800 C 260.180 376.800,260.000 376.530,260.000 376.200 C 260.000 375.870,259.820 375.600,259.600 375.600 C 259.337 375.600,259.200 365.200,259.200 345.200 C 259.200 325.200,259.337 314.800,259.600 314.800 C 259.820 314.800,260.000 314.530,260.000 314.200 C 260.000 313.870,260.180 313.600,260.400 313.600 C 260.620 313.600,260.800 313.400,260.800 313.156 C 260.800 312.542,262.490 310.815,263.100 310.807 C 263.375 310.803,263.600 310.620,263.600 310.400 C 263.600 310.180,263.870 310.000,264.200 310.000 C 264.530 310.000,264.800 309.835,264.800 309.634 C 264.800 309.417,275.059 309.213,289.867 309.134 C 309.469 309.029,314.970 308.891,315.100 308.500 C 315.192 308.225,315.458 308.000,315.693 308.000 C 316.316 308.000,318.655 305.486,318.978 304.471 C 319.130 303.992,319.413 303.600,319.608 303.600 C 319.802 303.600,320.573 302.970,321.321 302.200 C 322.069 301.430,322.888 300.800,323.140 300.800 C 323.393 300.800,323.600 300.620,323.600 300.400 C 323.600 300.163,325.067 300.000,327.200 300.000 C 329.333 300.000,330.800 299.837,330.800 299.600 C 330.800 299.338,338.533 299.200,353.200 299.200 C 367.867 299.200,375.600 299.338,375.600 299.600 M75.600 353.957 C 75.600 354.154,75.870 354.418,76.200 354.545 C 76.565 354.685,76.800 354.545,76.800 354.187 C 76.800 353.864,76.530 353.600,76.200 353.600 C 75.870 353.600,75.600 353.761,75.600 353.957 M245.600 393.957 C 245.600 394.154,245.870 394.418,246.200 394.545 C 246.565 394.685,246.800 394.545,246.800 394.187 C 246.800 393.864,246.530 393.600,246.200 393.600 C 245.870 393.600,245.600 393.761,245.600 393.957 M393.600 394.200 C 393.600 394.873,393.673 394.900,394.567 394.557 C 395.461 394.214,395.354 393.600,394.400 393.600 C 393.956 393.600,393.600 393.867,393.600 394.200 " stroke="none" fill="#5494cc" fill-rule="evenodd"></path><path id="path2" d="M22.663 22.600 L 20.800 24.463 20.800 30.285 L 20.800 36.107 22.777 38.053 L 24.755 40.000 44.177 40.000 C 56.859 40.000,63.600 39.861,63.600 39.600 C 63.600 39.380,64.298 39.200,65.152 39.200 C 66.421 39.200,67.004 38.908,68.352 37.600 C 69.873 36.124,70.546 34.400,69.600 34.400 C 69.380 34.400,69.200 34.144,69.200 33.831 C 69.200 33.092,66.908 30.800,66.169 30.800 C 65.856 30.800,65.600 30.620,65.600 30.400 C 65.600 30.180,65.410 30.000,65.177 30.000 C 64.507 30.000,60.800 26.173,60.800 25.480 C 60.800 25.136,60.440 24.740,60.001 24.600 C 59.561 24.461,59.092 23.909,58.958 23.373 C 58.823 22.838,58.476 22.400,58.185 22.400 C 57.895 22.400,57.342 22.085,56.958 21.700 C 56.319 21.062,54.864 20.988,40.392 20.868 L 24.526 20.737 22.663 22.600 M90.800 39.600 C 90.800 39.837,89.333 40.000,87.200 40.000 C 85.067 40.000,83.600 40.163,83.600 40.400 C 83.600 40.620,83.393 40.800,83.140 40.800 C 82.888 40.800,82.069 41.430,81.321 42.200 C 80.573 42.970,79.802 43.600,79.608 43.600 C 79.413 43.600,79.130 43.992,78.978 44.471 C 78.655 45.486,76.316 48.000,75.693 48.000 C 75.458 48.000,75.192 48.225,75.100 48.500 C 74.970 48.891,69.509 49.029,50.067 49.134 C 35.391 49.213,25.200 49.418,25.200 49.634 C 25.200 49.835,24.840 50.000,24.400 50.000 C 23.960 50.000,23.600 50.180,23.600 50.400 C 23.600 50.620,23.375 50.803,23.100 50.807 C 22.490 50.815,20.800 52.542,20.800 53.156 C 20.800 53.400,20.620 53.600,20.400 53.600 C 20.180 53.600,20.000 53.870,20.000 54.200 C 20.000 54.530,19.820 54.800,19.600 54.800 C 19.337 54.800,19.200 65.200,19.200 85.200 C 19.200 105.200,19.337 115.600,19.600 115.600 C 19.820 115.600,20.000 115.870,20.000 116.200 C 20.000 116.530,20.180 116.800,20.400 116.800 C 20.620 116.800,20.800 117.044,20.800 117.342 C 20.800 117.977,22.586 120.000,23.148 120.000 C 23.360 120.000,23.608 120.225,23.700 120.500 C 23.945 121.235,136.455 121.235,136.700 120.500 C 136.792 120.225,137.046 120.000,137.264 120.000 C 137.483 120.000,138.188 119.474,138.831 118.831 C 139.474 118.188,140.000 117.483,140.000 117.264 C 140.000 117.046,140.225 116.792,140.500 116.700 C 140.895 116.568,141.000 108.911,141.000 80.200 C 141.000 51.489,140.895 43.832,140.500 43.700 C 140.225 43.608,140.000 43.360,140.000 43.148 C 140.000 42.586,137.977 40.800,137.342 40.800 C 137.044 40.800,136.800 40.620,136.800 40.400 C 136.800 40.180,136.530 40.000,136.200 40.000 C 135.870 40.000,135.600 39.820,135.600 39.600 C 135.600 39.338,127.867 39.200,113.200 39.200 C 98.533 39.200,90.800 39.338,90.800 39.600 M135.995 44.289 C 137.111 45.244,137.282 115.061,136.171 116.171 C 135.108 117.235,25.690 117.119,24.461 116.053 L 23.600 115.306 23.600 85.080 C 23.600 55.205,23.609 54.851,24.400 54.600 C 24.840 54.460,25.200 54.186,25.200 53.989 C 25.200 53.785,36.412 53.583,51.415 53.516 C 69.815 53.435,77.715 53.270,77.915 52.963 C 78.072 52.722,78.797 52.410,79.526 52.268 C 81.287 51.925,83.191 49.968,83.476 48.207 C 83.602 47.433,83.861 46.800,84.052 46.800 C 84.244 46.800,84.400 46.369,84.400 45.843 C 84.400 44.624,85.025 44.400,88.433 44.400 C 90.011 44.400,91.200 44.228,91.200 44.000 C 91.200 43.197,135.051 43.480,135.995 44.289 M262.663 132.600 L 260.800 134.463 260.800 140.285 L 260.800 146.107 262.777 148.053 L 264.755 150.000 284.177 150.000 C 296.859 150.000,303.600 149.861,303.600 149.600 C 303.600 149.380,304.298 149.200,305.152 149.200 C 306.421 149.200,307.004 148.908,308.352 147.600 C 309.873 146.124,310.546 144.400,309.600 144.400 C 309.380 144.400,309.200 144.144,309.200 143.831 C 309.200 143.092,306.908 140.800,306.169 140.800 C 305.856 140.800,305.600 140.620,305.600 140.400 C 305.600 140.180,305.410 140.000,305.177 140.000 C 304.507 140.000,300.800 136.173,300.800 135.480 C 300.800 135.136,300.440 134.740,300.001 134.600 C 299.561 134.461,299.092 133.909,298.958 133.373 C 298.823 132.838,298.476 132.400,298.185 132.400 C 297.895 132.400,297.342 132.085,296.958 131.700 C 296.319 131.062,294.864 130.988,280.392 130.868 L 264.526 130.737 262.663 132.600 M330.800 149.600 C 330.800 149.837,329.333 150.000,327.200 150.000 C 325.067 150.000,323.600 150.163,323.600 150.400 C 323.600 150.620,323.393 150.800,323.140 150.800 C 322.888 150.800,322.069 151.430,321.321 152.200 C 320.573 152.970,319.802 153.600,319.608 153.600 C 319.413 153.600,319.130 153.992,318.978 154.471 C 318.655 155.486,316.316 158.000,315.693 158.000 C 315.458 158.000,315.192 158.225,315.100 158.500 C 314.970 158.891,309.469 159.029,289.867 159.134 C 275.059 159.213,264.800 159.417,264.800 159.634 C 264.800 159.835,264.530 160.000,264.200 160.000 C 263.870 160.000,263.600 160.180,263.600 160.400 C 263.600 160.620,263.375 160.803,263.100 160.807 C 262.490 160.815,260.800 162.542,260.800 163.156 C 260.800 163.400,260.620 163.600,260.400 163.600 C 260.180 163.600,260.000 163.870,260.000 164.200 C 260.000 164.530,259.820 164.800,259.600 164.800 C 259.337 164.800,259.200 175.200,259.200 195.200 C 259.200 215.200,259.337 225.600,259.600 225.600 C 259.820 225.600,260.000 225.870,260.000 226.200 C 260.000 226.530,260.180 226.800,260.400 226.800 C 260.620 226.800,260.800 227.044,260.800 227.342 C 260.800 227.977,262.586 230.000,263.148 230.000 C 263.360 230.000,263.608 230.225,263.700 230.500 C 263.832 230.897,275.489 231.000,320.200 231.000 C 364.911 231.000,376.568 230.897,376.700 230.500 C 376.792 230.225,377.046 230.000,377.264 230.000 C 377.483 230.000,378.188 229.474,378.831 228.831 C 379.474 228.188,380.000 227.483,380.000 227.264 C 380.000 227.046,380.225 226.792,380.500 226.700 C 380.895 226.568,381.000 218.911,381.000 190.200 C 381.000 161.489,380.895 153.832,380.500 153.700 C 380.225 153.608,380.000 153.360,380.000 153.148 C 380.000 152.586,377.977 150.800,377.342 150.800 C 377.044 150.800,376.800 150.620,376.800 150.400 C 376.800 150.180,376.530 150.000,376.200 150.000 C 375.870 150.000,375.600 149.820,375.600 149.600 C 375.600 149.338,367.867 149.200,353.200 149.200 C 338.533 149.200,330.800 149.338,330.800 149.600 M375.995 154.289 C 377.111 155.244,377.282 225.061,376.171 226.171 C 375.058 227.285,265.245 227.112,264.289 225.995 C 263.145 224.660,263.236 165.564,264.384 164.416 C 265.143 163.657,265.965 163.629,291.398 163.516 C 309.811 163.435,317.715 163.270,317.915 162.963 C 318.072 162.722,318.797 162.410,319.526 162.268 C 321.287 161.925,323.191 159.968,323.476 158.207 C 323.602 157.433,323.861 156.800,324.052 156.800 C 324.244 156.800,324.400 156.369,324.400 155.843 C 324.400 154.624,325.025 154.400,328.433 154.400 C 330.011 154.400,331.200 154.228,331.200 154.000 C 331.200 153.197,375.051 153.480,375.995 154.289 M262.663 282.600 L 260.800 284.463 260.800 290.285 L 260.800 296.107 262.777 298.053 L 264.755 300.000 284.177 300.000 C 296.859 300.000,303.600 299.861,303.600 299.600 C 303.600 299.380,304.298 299.200,305.152 299.200 C 306.421 299.200,307.004 298.908,308.352 297.600 C 309.873 296.124,310.546 294.400,309.600 294.400 C 309.380 294.400,309.200 294.144,309.200 293.831 C 309.200 293.092,306.908 290.800,306.169 290.800 C 305.856 290.800,305.600 290.620,305.600 290.400 C 305.600 290.180,305.410 290.000,305.177 290.000 C 304.507 290.000,300.800 286.173,300.800 285.480 C 300.800 285.136,300.440 284.740,300.001 284.600 C 299.561 284.461,299.092 283.909,298.958 283.373 C 298.823 282.838,298.476 282.400,298.185 282.400 C 297.895 282.400,297.342 282.085,296.958 281.700 C 296.319 281.062,294.864 280.988,280.392 280.868 L 264.526 280.737 262.663 282.600 M330.800 299.600 C 330.800 299.837,329.333 300.000,327.200 300.000 C 325.067 300.000,323.600 300.163,323.600 300.400 C 323.600 300.620,323.393 300.800,323.140 300.800 C 322.888 300.800,322.069 301.430,321.321 302.200 C 320.573 302.970,319.802 303.600,319.608 303.600 C 319.413 303.600,319.130 303.992,318.978 304.471 C 318.655 305.486,316.316 308.000,315.693 308.000 C 315.458 308.000,315.192 308.225,315.100 308.500 C 314.970 308.891,309.469 309.029,289.867 309.134 C 275.059 309.213,264.800 309.417,264.800 309.634 C 264.800 309.835,264.530 310.000,264.200 310.000 C 263.870 310.000,263.600 310.180,263.600 310.400 C 263.600 310.620,263.375 310.803,263.100 310.807 C 262.490 310.815,260.800 312.542,260.800 313.156 C 260.800 313.400,260.620 313.600,260.400 313.600 C 260.180 313.600,260.000 313.870,260.000 314.200 C 260.000 314.530,259.820 314.800,259.600 314.800 C 259.337 314.800,259.200 325.200,259.200 345.200 C 259.200 365.200,259.337 375.600,259.600 375.600 C 259.820 375.600,260.000 375.870,260.000 376.200 C 260.000 376.530,260.180 376.800,260.400 376.800 C 260.620 376.800,260.800 377.044,260.800 377.342 C 260.800 377.977,262.586 380.000,263.148 380.000 C 263.360 380.000,263.608 380.225,263.700 380.500 C 263.832 380.897,275.489 381.000,320.200 381.000 C 364.911 381.000,376.568 380.897,376.700 380.500 C 376.792 380.225,377.046 380.000,377.264 380.000 C 377.483 380.000,378.188 379.474,378.831 378.831 C 379.474 378.188,380.000 377.483,380.000 377.264 C 380.000 377.046,380.225 376.792,380.500 376.700 C 380.895 376.568,381.000 368.911,381.000 340.200 C 381.000 311.489,380.895 303.832,380.500 303.700 C 380.225 303.608,380.000 303.360,380.000 303.148 C 380.000 302.586,377.977 300.800,377.342 300.800 C 377.044 300.800,376.800 300.620,376.800 300.400 C 376.800 300.180,376.530 300.000,376.200 300.000 C 375.870 300.000,375.600 299.820,375.600 299.600 C 375.600 299.338,367.867 299.200,353.200 299.200 C 338.533 299.200,330.800 299.338,330.800 299.600 M375.995 304.289 C 377.111 305.244,377.282 375.061,376.171 376.171 C 375.058 377.285,265.245 377.112,264.289 375.995 C 263.145 374.660,263.236 315.564,264.384 314.416 C 265.143 313.657,265.965 313.629,291.398 313.516 C 309.811 313.435,317.715 313.270,317.915 312.963 C 318.072 312.722,318.797 312.410,319.526 312.268 C 321.287 311.925,323.191 309.968,323.476 308.207 C 323.602 307.433,323.861 306.800,324.052 306.800 C 324.244 306.800,324.400 306.369,324.400 305.843 C 324.400 304.624,325.025 304.400,328.433 304.400 C 330.011 304.400,331.200 304.228,331.200 304.000 C 331.200 303.197,375.051 303.480,375.995 304.289 " stroke="none" fill="#acd4fc" fill-rule="evenodd"></path><path id="path3" d="M6.800 6.200 C 6.800 6.530,6.530 6.800,6.200 6.800 C 5.473 6.800,5.404 7.454,6.100 7.735 C 6.500 7.896,6.500 7.943,6.100 7.968 C 5.365 8.015,5.365 132.238,6.100 132.536 C 6.476 132.689,6.452 132.844,6.000 133.163 C 5.482 133.530,5.496 133.589,6.100 133.594 C 6.485 133.597,6.800 133.878,6.800 134.218 C 6.800 134.557,7.025 134.806,7.300 134.770 C 7.575 134.734,23.055 134.727,41.700 134.753 L 75.600 134.800 75.600 243.567 C 75.600 330.205,75.702 352.375,76.100 352.536 C 76.476 352.689,76.452 352.844,76.000 353.163 C 75.482 353.530,75.496 353.589,76.100 353.594 C 76.485 353.597,76.800 353.878,76.800 354.218 C 76.800 354.557,77.025 354.806,77.300 354.770 C 77.575 354.734,115.555 354.727,161.700 354.753 L 245.600 354.800 245.600 373.567 C 245.600 388.205,245.710 392.378,246.100 392.536 C 246.476 392.689,246.452 392.844,246.000 393.163 C 245.482 393.530,245.496 393.589,246.100 393.594 C 246.485 393.597,246.800 393.869,246.800 394.199 C 246.800 394.729,255.282 394.797,320.200 394.795 C 384.944 394.792,393.600 394.721,393.600 394.196 C 393.600 393.846,393.972 393.597,394.500 393.594 C 395.245 393.589,395.297 393.515,394.800 393.163 C 394.348 392.844,394.324 392.689,394.700 392.536 C 395.434 392.238,395.434 288.161,394.700 287.865 C 394.300 287.704,394.300 287.657,394.700 287.632 C 395.538 287.579,395.257 286.800,394.400 286.800 C 393.907 286.800,393.598 286.531,393.594 286.100 C 393.589 285.496,393.530 285.482,393.163 286.000 C 392.844 286.452,392.689 286.476,392.536 286.100 C 392.376 285.706,385.245 285.600,358.767 285.600 L 325.200 285.600 325.200 281.171 C 325.200 275.472,325.328 275.600,319.629 275.600 L 315.200 275.600 315.200 271.171 C 315.200 267.867,315.055 266.598,314.629 266.171 C 313.833 265.375,248.186 265.305,247.865 266.100 C 247.704 266.500,247.657 266.500,247.632 266.100 C 247.586 265.385,246.800 265.479,246.800 266.200 C 246.800 266.530,246.530 266.800,246.200 266.800 C 245.473 266.800,245.404 267.454,246.100 267.735 C 246.500 267.896,246.500 267.943,246.100 267.968 C 245.704 267.993,245.600 275.044,245.600 301.800 L 245.600 335.600 170.400 335.600 L 95.200 335.600 95.200 270.200 L 95.200 204.800 170.400 204.800 L 245.600 204.800 245.600 223.567 C 245.600 238.205,245.710 242.378,246.100 242.536 C 246.476 242.689,246.452 242.844,246.000 243.163 C 245.482 243.530,245.496 243.589,246.100 243.594 C 246.485 243.597,246.800 243.869,246.800 244.199 C 246.800 244.729,255.282 244.797,320.200 244.795 C 384.944 244.792,393.600 244.721,393.600 244.196 C 393.600 243.846,393.972 243.597,394.500 243.594 C 395.245 243.589,395.297 243.515,394.800 243.163 C 394.348 242.844,394.324 242.689,394.700 242.536 C 395.434 242.238,395.434 138.161,394.700 137.865 C 394.300 137.704,394.300 137.657,394.700 137.632 C 395.538 137.579,395.257 136.800,394.400 136.800 C 393.907 136.800,393.598 136.531,393.594 136.100 C 393.589 135.496,393.530 135.482,393.163 136.000 C 392.844 136.452,392.689 136.476,392.536 136.100 C 392.376 135.706,385.245 135.600,358.767 135.600 L 325.200 135.600 325.200 131.171 C 325.200 125.472,325.328 125.600,319.629 125.600 L 315.200 125.600 315.200 121.171 C 315.200 117.867,315.055 116.598,314.629 116.171 C 313.833 115.375,248.186 115.305,247.865 116.100 C 247.704 116.500,247.657 116.500,247.632 116.100 C 247.586 115.385,246.800 115.479,246.800 116.200 C 246.800 116.530,246.530 116.800,246.200 116.800 C 245.473 116.800,245.404 117.454,246.100 117.735 C 246.500 117.896,246.500 117.943,246.100 117.968 C 245.704 117.993,245.600 125.044,245.600 151.800 L 245.600 185.600 170.400 185.600 L 95.200 185.600 95.200 160.200 L 95.200 134.800 123.900 134.737 C 139.685 134.702,152.825 134.682,153.100 134.693 C 153.375 134.703,153.600 134.461,153.600 134.156 C 153.600 133.848,154.002 133.597,154.500 133.594 C 155.245 133.589,155.297 133.515,154.800 133.163 C 154.348 132.844,154.324 132.689,154.700 132.536 C 155.434 132.238,155.434 28.161,154.700 27.865 C 154.300 27.704,154.300 27.657,154.700 27.632 C 155.538 27.579,155.257 26.800,154.400 26.800 C 153.907 26.800,153.598 26.531,153.594 26.100 C 153.589 25.496,153.530 25.482,153.163 26.000 C 152.844 26.452,152.689 26.476,152.536 26.100 C 152.376 25.706,145.245 25.600,118.767 25.600 L 85.200 25.600 85.200 21.171 C 85.200 15.472,85.328 15.600,79.629 15.600 L 75.200 15.600 75.200 11.171 C 75.200 7.867,75.055 6.598,74.629 6.171 C 73.833 5.375,8.186 5.305,7.865 6.100 C 7.704 6.500,7.657 6.500,7.632 6.100 C 7.586 5.385,6.800 5.479,6.800 6.200 M73.918 16.719 C 74.887 17.667,74.977 17.919,74.505 18.360 C 74.198 18.646,73.824 18.748,73.674 18.586 C 73.523 18.423,73.620 18.212,73.888 18.116 C 74.230 17.994,74.149 17.697,73.619 17.128 C 73.202 16.681,72.670 16.433,72.435 16.578 C 72.174 16.740,72.101 16.601,72.247 16.221 C 72.560 15.407,72.582 15.414,73.918 16.719 M65.206 17.100 C 65.211 17.683,65.274 17.702,65.581 17.217 C 66.021 16.522,68.575 16.587,69.445 17.315 C 70.885 18.519,72.346 20.035,72.511 20.496 C 72.615 20.789,72.839 20.852,73.045 20.645 C 73.252 20.439,73.191 20.216,72.900 20.112 C 72.220 19.869,72.265 19.200,72.962 19.200 C 73.369 19.200,73.528 19.766,73.539 21.263 C 73.549 22.501,73.764 23.463,74.078 23.670 C 74.489 23.941,74.451 24.102,73.900 24.427 C 72.891 25.022,73.039 25.600,74.200 25.600 C 75.171 25.600,75.200 25.681,75.200 28.387 C 75.200 30.701,75.302 31.136,75.800 30.945 C 76.180 30.799,76.400 30.950,76.400 31.357 C 76.400 31.711,76.147 32.000,75.837 32.000 C 75.472 32.000,75.348 32.280,75.484 32.800 C 75.619 33.318,76.030 33.600,76.647 33.600 C 77.171 33.600,77.600 33.780,77.600 34.000 C 77.600 34.220,77.336 34.400,77.013 34.400 C 76.655 34.400,76.515 34.635,76.655 35.000 C 76.857 35.526,80.583 35.600,106.843 35.600 C 123.914 35.600,136.800 35.752,136.800 35.953 C 136.800 36.148,137.925 36.379,139.300 36.468 C 141.818 36.631,143.600 37.551,143.600 38.689 C 143.600 38.970,143.780 39.200,144.000 39.200 C 144.220 39.200,144.400 40.190,144.400 41.400 C 144.400 42.610,144.580 43.600,144.800 43.600 C 145.064 43.600,145.200 56.067,145.200 80.200 C 145.200 104.333,145.064 116.800,144.800 116.800 C 144.580 116.800,144.400 117.790,144.400 119.000 C 144.400 120.210,144.240 121.200,144.043 121.200 C 143.847 121.200,143.577 121.638,143.442 122.173 C 143.308 122.709,142.794 123.273,142.299 123.427 C 141.805 123.582,141.272 123.909,141.115 124.154 C 140.676 124.840,19.529 124.786,19.300 124.100 C 19.208 123.825,18.918 123.600,18.656 123.600 C 17.549 123.600,16.629 121.791,16.468 119.300 C 16.379 117.925,16.148 116.800,15.953 116.800 C 15.752 116.800,15.600 103.222,15.600 85.200 C 15.600 67.178,15.752 53.600,15.953 53.600 C 16.148 53.600,16.379 52.469,16.467 51.087 C 16.687 47.629,17.629 46.687,21.087 46.467 C 22.469 46.379,23.600 46.148,23.600 45.953 C 23.600 45.753,33.387 45.600,46.200 45.600 C 66.939 45.600,72.757 45.328,66.341 44.657 C 64.989 44.516,54.189 44.400,42.341 44.400 C 28.247 44.400,20.800 44.262,20.800 44.000 C 20.800 43.780,20.376 43.600,19.858 43.600 C 19.341 43.600,18.396 43.117,17.758 42.526 L 16.600 41.453 16.600 30.396 L 16.600 19.338 17.833 18.106 C 19.503 16.436,18.278 16.516,43.100 16.454 C 63.900 16.403,65.200 16.441,65.206 17.100 M71.200 17.400 C 71.200 17.730,71.361 18.000,71.557 18.000 C 71.754 18.000,72.018 18.270,72.145 18.600 C 72.459 19.419,72.289 19.360,71.058 18.219 C 69.848 17.097,69.752 16.800,70.600 16.800 C 70.930 16.800,71.200 17.070,71.200 17.400 M313.918 126.719 C 314.887 127.667,314.977 127.919,314.505 128.360 C 314.198 128.646,313.824 128.748,313.674 128.586 C 313.523 128.423,313.620 128.212,313.888 128.116 C 314.230 127.994,314.149 127.697,313.619 127.128 C 313.202 126.681,312.670 126.433,312.435 126.578 C 312.174 126.740,312.101 126.601,312.247 126.221 C 312.560 125.407,312.582 125.414,313.918 126.719 M304.800 127.000 C 304.800 127.718,305.466 127.803,305.696 127.113 C 305.900 126.500,308.648 126.648,309.445 127.315 C 310.885 128.519,312.346 130.035,312.511 130.496 C 312.615 130.789,312.839 130.852,313.045 130.645 C 313.252 130.439,313.191 130.216,312.900 130.112 C 312.220 129.869,312.265 129.200,312.962 129.200 C 313.369 129.200,313.528 129.766,313.539 131.263 C 313.549 132.501,313.764 133.463,314.078 133.670 C 314.489 133.941,314.451 134.102,313.900 134.427 C 312.891 135.022,313.039 135.600,314.200 135.600 C 315.171 135.600,315.200 135.681,315.200 138.387 C 315.200 140.701,315.302 141.136,315.800 140.945 C 316.180 140.799,316.400 140.950,316.400 141.357 C 316.400 141.711,316.147 142.000,315.837 142.000 C 315.472 142.000,315.348 142.280,315.484 142.800 C 315.619 143.318,316.030 143.600,316.647 143.600 C 317.171 143.600,317.600 143.780,317.600 144.000 C 317.600 144.220,317.336 144.400,317.013 144.400 C 316.655 144.400,316.515 144.635,316.655 145.000 C 316.857 145.526,320.583 145.600,346.843 145.600 C 363.914 145.600,376.800 145.752,376.800 145.953 C 376.800 146.148,377.925 146.379,379.300 146.468 C 381.818 146.631,383.600 147.551,383.600 148.689 C 383.600 148.970,383.780 149.200,384.000 149.200 C 384.220 149.200,384.400 150.190,384.400 151.400 C 384.400 152.610,384.580 153.600,384.800 153.600 C 385.064 153.600,385.200 166.067,385.200 190.200 C 385.200 214.333,385.064 226.800,384.800 226.800 C 384.580 226.800,384.400 227.790,384.400 229.000 C 384.400 230.210,384.240 231.200,384.043 231.200 C 383.847 231.200,383.577 231.638,383.442 232.173 C 383.308 232.709,382.794 233.273,382.299 233.427 C 381.805 233.582,381.272 233.909,381.115 234.154 C 380.676 234.840,259.529 234.786,259.300 234.100 C 259.208 233.825,258.918 233.600,258.656 233.600 C 257.549 233.600,256.629 231.791,256.468 229.300 C 256.379 227.925,256.148 226.800,255.953 226.800 C 255.752 226.800,255.600 213.222,255.600 195.200 C 255.600 177.178,255.752 163.600,255.953 163.600 C 256.148 163.600,256.379 162.469,256.467 161.087 C 256.687 157.629,257.629 156.687,261.087 156.467 C 262.469 156.379,263.600 156.148,263.600 155.953 C 263.600 155.753,273.387 155.600,286.200 155.600 C 306.939 155.600,312.757 155.328,306.341 154.657 C 304.989 154.516,294.189 154.400,282.341 154.400 C 268.247 154.400,260.800 154.262,260.800 154.000 C 260.800 153.780,260.376 153.600,259.858 153.600 C 259.341 153.600,258.396 153.117,257.758 152.526 L 256.600 151.453 256.600 140.396 L 256.600 129.338 257.833 128.106 C 259.502 126.436,258.296 126.516,282.900 126.454 C 302.124 126.407,304.800 126.473,304.800 127.000 M311.200 127.400 C 311.200 127.730,311.361 128.000,311.557 128.000 C 311.754 128.000,312.018 128.270,312.145 128.600 C 312.459 129.419,312.289 129.360,311.058 128.219 C 309.848 127.097,309.752 126.800,310.600 126.800 C 310.930 126.800,311.200 127.070,311.200 127.400 M313.918 276.719 C 314.887 277.667,314.977 277.919,314.505 278.360 C 314.198 278.646,313.824 278.748,313.674 278.586 C 313.523 278.423,313.620 278.212,313.888 278.116 C 314.230 277.994,314.149 277.697,313.619 277.128 C 313.202 276.681,312.670 276.433,312.435 276.578 C 312.174 276.740,312.101 276.601,312.247 276.221 C 312.560 275.407,312.582 275.414,313.918 276.719 M304.800 277.000 C 304.800 277.718,305.466 277.803,305.696 277.113 C 305.900 276.500,308.648 276.648,309.445 277.315 C 310.885 278.519,312.346 280.035,312.511 280.496 C 312.615 280.789,312.839 280.852,313.045 280.645 C 313.252 280.439,313.191 280.216,312.900 280.112 C 312.220 279.869,312.265 279.200,312.962 279.200 C 313.369 279.200,313.528 279.766,313.539 281.263 C 313.549 282.501,313.764 283.463,314.078 283.670 C 314.489 283.941,314.451 284.102,313.900 284.427 C 312.891 285.022,313.039 285.600,314.200 285.600 C 315.171 285.600,315.200 285.681,315.200 288.387 C 315.200 290.701,315.302 291.136,315.800 290.945 C 316.180 290.799,316.400 290.950,316.400 291.357 C 316.400 291.711,316.147 292.000,315.837 292.000 C 315.472 292.000,315.348 292.280,315.484 292.800 C 315.619 293.318,316.030 293.600,316.647 293.600 C 317.171 293.600,317.600 293.780,317.600 294.000 C 317.600 294.220,317.336 294.400,317.013 294.400 C 316.655 294.400,316.515 294.635,316.655 295.000 C 316.857 295.526,320.583 295.600,346.843 295.600 C 363.914 295.600,376.800 295.752,376.800 295.953 C 376.800 296.148,377.925 296.379,379.300 296.468 C 381.818 296.631,383.600 297.551,383.600 298.689 C 383.600 298.970,383.780 299.200,384.000 299.200 C 384.220 299.200,384.400 300.190,384.400 301.400 C 384.400 302.610,384.580 303.600,384.800 303.600 C 385.064 303.600,385.200 316.067,385.200 340.200 C 385.200 364.333,385.064 376.800,384.800 376.800 C 384.580 376.800,384.400 377.790,384.400 379.000 C 384.400 380.210,384.240 381.200,384.043 381.200 C 383.847 381.200,383.577 381.638,383.442 382.173 C 383.308 382.709,382.794 383.273,382.299 383.427 C 381.805 383.582,381.272 383.909,381.115 384.154 C 380.676 384.840,259.529 384.786,259.300 384.100 C 259.208 383.825,258.918 383.600,258.656 383.600 C 257.549 383.600,256.629 381.791,256.468 379.300 C 256.379 377.925,256.148 376.800,255.953 376.800 C 255.752 376.800,255.600 363.222,255.600 345.200 C 255.600 327.178,255.752 313.600,255.953 313.600 C 256.148 313.600,256.379 312.469,256.467 311.087 C 256.687 307.629,257.629 306.687,261.087 306.467 C 262.469 306.379,263.600 306.148,263.600 305.953 C 263.600 305.753,273.387 305.600,286.200 305.600 C 306.939 305.600,312.757 305.328,306.341 304.657 C 304.989 304.516,294.189 304.400,282.341 304.400 C 268.247 304.400,260.800 304.262,260.800 304.000 C 260.800 303.780,260.376 303.600,259.858 303.600 C 259.341 303.600,258.396 303.117,257.758 302.526 L 256.600 301.453 256.600 290.396 L 256.600 279.338 257.833 278.106 C 259.502 276.436,258.296 276.516,282.900 276.454 C 302.124 276.407,304.800 276.473,304.800 277.000 M311.200 277.400 C 311.200 277.730,311.361 278.000,311.557 278.000 C 311.754 278.000,312.018 278.270,312.145 278.600 C 312.459 279.419,312.289 279.360,311.058 278.219 C 309.848 277.097,309.752 276.800,310.600 276.800 C 310.930 276.800,311.200 277.070,311.200 277.400 " stroke="none" fill="#458cc5" fill-rule="evenodd"></path><path id="path4" d="" stroke="none" fill="#e0e8e0" fill-rule="evenodd"></path></g></svg>