<svg id="svg" xmlns="http://www.w3.org/2000/svg" xmlns:xlink="http://www.w3.org/1999/xlink" width="400" height="400" viewBox="0, 0, 400,400"><g id="svgg"><path id="path0" d="M282.600 225.436 C 279.904 225.696,276.662 226.460,275.400 227.132 C 273.848 227.958,271.561 228.786,270.811 228.794 C 269.517 228.807,264.536 230.597,263.553 231.402 C 262.977 231.873,261.897 232.488,261.153 232.769 C 259.503 233.391,256.776 234.803,256.114 235.378 C 255.038 236.312,254.522 236.668,252.729 237.711 C 251.700 238.310,250.530 239.216,250.129 239.726 C 249.728 240.235,248.860 240.993,248.200 241.411 C 247.540 241.828,246.640 242.613,246.200 243.155 C 245.189 244.400,244.400 245.189,243.155 246.200 C 242.613 246.640,241.828 247.540,241.411 248.200 C 240.993 248.860,240.235 249.728,239.726 250.129 C 239.216 250.530,238.311 251.700,237.713 252.729 C 237.116 253.758,236.441 254.819,236.214 255.086 C 235.162 256.323,234.907 256.702,234.119 258.200 C 233.657 259.080,233.049 260.409,232.769 261.153 C 232.488 261.897,231.873 262.977,231.402 263.553 C 230.597 264.536,228.807 269.517,228.794 270.811 C 228.786 271.553,227.965 273.831,227.139 275.400 C 224.553 280.314,224.592 303.332,227.195 308.200 C 227.870 309.462,228.444 311.281,229.213 314.600 C 229.884 317.494,230.434 318.862,231.403 320.047 C 231.874 320.623,232.488 321.703,232.769 322.447 C 233.499 324.384,234.857 326.900,235.550 327.600 C 235.876 327.930,236.643 329.010,237.254 330.000 C 239.653 333.891,249.998 344.217,253.620 346.335 C 254.622 346.921,256.062 347.866,256.820 348.436 C 257.579 349.006,258.830 349.699,259.600 349.976 C 261.910 350.808,262.967 351.358,263.623 352.070 C 264.278 352.779,266.250 353.601,269.100 354.352 C 272.929 355.361,274.258 355.794,275.400 356.405 C 278.168 357.885,281.079 358.200,292.000 358.200 C 302.916 358.200,304.884 357.982,308.000 356.431 C 309.311 355.778,310.232 355.482,314.500 354.348 C 317.190 353.633,319.600 352.717,319.600 352.409 C 319.600 352.117,321.676 351.052,324.778 349.753 C 325.755 349.344,326.925 348.639,327.378 348.186 C 327.830 347.734,329.010 346.884,330.000 346.297 C 333.758 344.070,344.070 333.758,346.297 330.000 C 346.884 329.010,347.734 327.830,348.186 327.378 C 348.639 326.925,349.343 325.755,349.752 324.778 C 351.192 321.335,351.369 320.991,352.212 320.000 C 352.979 319.097,353.461 317.834,354.427 314.200 C 355.447 310.359,355.802 309.262,356.431 308.000 C 359.077 302.687,359.015 279.926,356.341 275.128 C 355.619 273.833,354.813 271.528,354.806 270.738 C 354.794 269.460,352.854 264.340,352.128 263.674 C 351.362 262.970,350.823 261.950,349.976 259.600 C 349.699 258.830,349.006 257.579,348.436 256.820 C 347.866 256.062,346.921 254.622,346.335 253.620 C 344.342 250.213,333.742 239.490,330.442 237.543 C 329.695 237.102,328.846 236.530,328.556 236.271 C 328.265 236.012,327.797 235.611,327.514 235.380 C 326.783 234.783,324.039 233.369,322.447 232.769 C 321.703 232.488,320.623 231.874,320.047 231.403 C 318.862 230.434,317.494 229.884,314.600 229.213 C 311.255 228.438,309.441 227.867,308.559 227.313 C 306.135 225.791,290.564 224.665,282.600 225.436 M301.523 242.438 C 302.555 242.678,304.553 243.408,305.963 244.059 C 307.372 244.710,309.442 245.482,310.563 245.774 C 313.398 246.513,315.299 247.354,315.975 248.169 C 316.291 248.550,317.373 249.279,318.379 249.789 C 320.935 251.085,330.400 259.686,330.400 260.714 C 330.400 260.919,331.028 261.878,331.796 262.844 C 333.841 265.417,333.834 268.408,331.777 270.650 C 330.995 271.502,329.911 272.734,329.369 273.387 C 328.481 274.457,328.106 274.590,325.590 274.733 C 322.179 274.925,321.429 274.507,316.657 269.747 C 315.296 268.391,313.218 266.661,309.400 263.709 C 308.854 263.287,307.351 262.605,305.200 261.804 C 304.210 261.435,303.130 260.897,302.800 260.608 C 299.481 257.705,284.736 257.817,280.400 260.777 C 279.850 261.153,278.770 261.690,278.000 261.971 C 276.242 262.611,274.719 263.308,274.200 263.709 C 270.394 266.652,268.242 268.474,266.588 270.155 C 262.123 274.693,261.193 275.206,258.098 274.841 C 255.760 274.566,254.730 274.084,253.735 272.800 C 253.479 272.470,252.624 271.502,251.835 270.650 C 249.889 268.547,249.757 265.378,251.524 263.191 C 252.142 262.426,253.034 261.163,253.504 260.385 C 255.007 257.901,262.370 251.247,265.225 249.792 C 266.229 249.281,267.309 248.550,267.625 248.169 C 268.297 247.359,270.192 246.517,273.000 245.780 C 274.100 245.491,276.080 244.748,277.400 244.128 C 278.720 243.508,280.610 242.797,281.600 242.548 C 283.970 241.952,299.080 241.868,301.523 242.438 " stroke="none" fill="#65b3f0" fill-rule="evenodd"></path><path id="path1" d="M281.600 208.999 C 279.070 209.278,275.920 209.900,274.600 210.382 C 271.288 211.589,269.044 212.223,266.000 212.810 C 263.574 213.278,262.243 213.805,258.200 215.898 C 257.320 216.354,255.880 216.947,255.000 217.216 C 254.120 217.485,252.590 218.275,251.600 218.972 C 250.610 219.669,248.958 220.657,247.929 221.168 C 246.900 221.678,245.561 222.615,244.954 223.248 C 244.347 223.882,243.614 224.400,243.325 224.400 C 243.036 224.400,242.800 224.560,242.800 224.757 C 242.800 224.953,242.356 225.225,241.813 225.361 C 240.747 225.629,239.153 227.043,233.098 233.098 C 227.043 239.153,225.629 240.747,225.361 241.813 C 225.225 242.356,224.953 242.800,224.757 242.800 C 224.560 242.800,224.400 243.036,224.400 243.325 C 224.400 243.614,223.882 244.347,223.248 244.954 C 222.615 245.561,221.678 246.900,221.168 247.929 C 220.657 248.958,219.669 250.610,218.972 251.600 C 218.275 252.590,217.485 254.120,217.216 255.000 C 216.947 255.880,216.359 257.320,215.909 258.200 C 213.676 262.574,213.267 263.645,212.657 266.713 C 212.295 268.534,211.626 271.054,211.171 272.313 C 209.629 276.573,209.279 278.190,208.839 283.063 C 207.975 292.640,208.670 304.276,210.389 309.000 C 211.696 312.592,211.962 313.522,212.622 316.800 C 213.301 320.180,214.074 322.187,215.690 324.778 C 216.301 325.756,216.800 326.890,216.800 327.298 C 216.800 327.705,217.160 328.784,217.600 329.694 C 219.039 332.674,218.120 335.600,215.743 335.600 C 215.065 335.600,214.967 335.804,215.120 336.900 C 215.352 338.570,215.872 339.200,217.016 339.200 C 218.861 339.200,219.200 339.579,219.200 341.643 L 219.200 343.600 221.200 343.600 L 223.200 343.600 223.200 345.351 C 223.200 348.127,224.736 351.200,226.122 351.200 C 226.892 351.200,227.470 351.942,227.835 353.398 C 228.225 354.951,228.648 355.325,230.700 355.930 C 231.901 356.285,232.400 356.648,232.400 357.167 C 232.400 358.575,235.722 360.400,238.285 360.400 L 240.000 360.400 240.000 362.400 L 240.000 364.400 241.957 364.400 C 244.021 364.400,244.400 364.739,244.400 366.584 C 244.400 368.037,245.346 368.473,248.994 368.700 C 251.091 368.831,252.401 369.083,252.402 369.356 C 252.403 369.600,252.592 370.475,252.821 371.300 L 253.238 372.800 257.676 372.800 L 262.115 372.800 263.453 374.100 C 264.189 374.815,264.793 375.619,264.796 375.886 C 264.806 377.112,266.606 377.200,291.800 377.200 C 316.994 377.200,318.794 377.112,318.804 375.886 C 318.807 375.619,319.411 374.815,320.147 374.100 L 321.485 372.800 325.924 372.800 L 330.362 372.800 330.779 371.300 C 331.008 370.475,331.197 369.602,331.198 369.359 C 331.199 369.092,332.571 368.813,334.668 368.651 C 338.649 368.345,339.110 368.087,339.278 366.070 L 339.400 364.600 341.646 364.482 L 343.892 364.363 344.157 366.359 L 344.421 368.354 346.211 368.623 C 347.958 368.884,348.000 368.926,348.000 370.365 C 348.000 372.278,348.575 372.800,350.680 372.800 L 352.400 372.800 352.400 374.520 C 352.400 376.636,352.922 377.200,354.880 377.200 C 356.373 377.200,356.400 377.227,356.400 378.720 C 356.400 380.678,356.964 381.200,359.080 381.200 L 360.800 381.200 360.800 383.157 C 360.800 385.317,361.105 385.600,363.433 385.600 C 364.749 385.600,364.800 385.656,364.800 387.120 C 364.800 389.078,365.364 389.600,367.480 389.600 L 369.200 389.600 369.200 391.600 L 369.200 393.600 371.200 393.600 L 373.200 393.600 373.200 395.320 C 373.200 397.436,373.722 398.000,375.680 398.000 C 377.035 398.000,377.200 398.109,377.200 399.000 L 377.200 400.000 385.400 400.000 L 393.600 400.000 393.600 399.000 C 393.600 398.107,393.764 398.000,395.138 398.000 C 397.063 398.000,398.000 397.040,398.000 395.069 C 398.000 393.769,398.115 393.600,399.000 393.600 L 400.000 393.600 400.000 385.400 L 400.000 377.200 399.000 377.200 C 398.109 377.200,398.000 377.035,398.000 375.680 C 398.000 373.722,397.436 373.200,395.320 373.200 L 393.600 373.200 393.600 371.200 L 393.600 369.200 391.600 369.200 L 389.600 369.200 389.600 367.480 C 389.600 365.364,389.078 364.800,387.120 364.800 C 385.656 364.800,385.600 364.749,385.600 363.433 C 385.600 361.105,385.317 360.800,383.157 360.800 L 381.200 360.800 381.200 359.080 C 381.200 356.964,380.678 356.400,378.720 356.400 C 377.227 356.400,377.200 356.373,377.200 354.880 C 377.200 352.922,376.636 352.400,374.520 352.400 L 372.800 352.400 372.800 350.680 C 372.800 348.575,372.278 348.000,370.365 348.000 C 368.926 348.000,368.884 347.958,368.623 346.211 L 368.354 344.421 366.377 344.159 L 364.400 343.897 364.400 341.791 C 364.400 339.568,364.710 339.200,366.584 339.200 C 368.020 339.200,368.415 338.338,368.676 334.639 C 368.823 332.551,369.092 331.199,369.359 331.198 C 369.602 331.197,370.475 331.008,371.300 330.779 L 372.800 330.362 372.800 325.924 L 372.800 321.485 374.100 320.147 C 374.815 319.411,375.619 318.807,375.886 318.804 C 377.112 318.794,377.200 316.994,377.200 291.800 C 377.200 266.606,377.112 264.806,375.886 264.796 C 375.619 264.793,374.815 264.189,374.100 263.453 L 372.800 262.115 372.800 257.676 L 372.800 253.238 371.300 252.821 C 370.475 252.592,369.575 252.403,369.300 252.402 C 369.025 252.401,368.800 252.265,368.801 252.100 C 368.801 251.935,367.849 251.859,366.685 251.932 L 364.569 252.064 363.204 249.347 C 362.453 247.853,361.264 246.021,360.561 245.277 C 359.859 244.532,358.950 243.267,358.542 242.465 C 358.134 241.663,356.997 240.141,356.015 239.084 C 355.033 238.026,353.953 236.752,353.615 236.253 C 352.849 235.124,348.614 230.877,347.175 229.796 C 346.587 229.354,345.168 228.139,344.022 227.096 C 342.876 226.053,341.682 225.200,341.369 225.200 C 341.056 225.200,340.800 225.020,340.800 224.800 C 340.800 224.580,340.564 224.400,340.275 224.400 C 339.986 224.400,339.253 223.882,338.646 223.248 C 338.039 222.615,336.700 221.678,335.671 221.168 C 334.642 220.657,332.990 219.669,332.000 218.972 C 331.010 218.275,329.480 217.485,328.600 217.216 C 327.720 216.947,326.280 216.359,325.400 215.909 C 321.155 213.742,320.013 213.289,317.600 212.817 C 314.555 212.222,312.312 211.588,309.000 210.386 C 304.067 208.597,291.155 207.943,281.600 208.999 M305.559 226.176 C 306.747 226.511,308.097 227.023,308.559 227.313 C 309.441 227.867,311.255 228.438,314.600 229.213 C 317.494 229.884,318.862 230.434,320.047 231.403 C 320.623 231.874,321.703 232.488,322.447 232.769 C 324.039 233.369,326.783 234.783,327.514 235.380 C 327.797 235.611,328.265 236.012,328.556 236.271 C 328.846 236.530,329.695 237.102,330.442 237.543 C 333.742 239.490,344.342 250.213,346.335 253.620 C 346.921 254.622,347.866 256.062,348.436 256.820 C 349.006 257.579,349.699 258.830,349.976 259.600 C 350.823 261.950,351.362 262.970,352.128 263.674 C 352.854 264.340,354.794 269.460,354.806 270.738 C 354.813 271.528,355.619 273.833,356.341 275.128 C 357.875 277.880,358.153 280.378,358.177 291.600 C 358.201 302.954,357.999 304.851,356.431 308.000 C 355.802 309.262,355.447 310.359,354.427 314.200 C 353.461 317.834,352.979 319.097,352.212 320.000 C 351.369 320.991,351.192 321.335,349.752 324.778 C 349.343 325.755,348.639 326.925,348.186 327.378 C 347.734 327.830,346.884 329.010,346.297 330.000 C 344.070 333.758,333.758 344.070,330.000 346.297 C 329.010 346.884,327.830 347.734,327.378 348.186 C 326.925 348.639,325.755 349.344,324.778 349.753 C 321.676 351.052,319.600 352.117,319.600 352.409 C 319.600 352.717,317.190 353.633,314.500 354.348 C 310.232 355.482,309.311 355.778,308.000 356.431 C 302.726 359.057,280.327 359.040,275.400 356.405 C 274.258 355.794,272.929 355.361,269.100 354.352 C 266.250 353.601,264.278 352.779,263.623 352.070 C 262.967 351.358,261.910 350.808,259.600 349.976 C 258.830 349.699,257.579 349.006,256.820 348.436 C 256.062 347.866,254.622 346.921,253.620 346.335 C 249.998 344.217,239.653 333.891,237.254 330.000 C 236.643 329.010,235.876 327.930,235.550 327.600 C 234.857 326.900,233.499 324.384,232.769 322.447 C 232.488 321.703,231.874 320.623,231.403 320.047 C 230.434 318.862,229.884 317.494,229.213 314.600 C 228.444 311.281,227.870 309.462,227.195 308.200 C 224.592 303.332,224.553 280.314,227.139 275.400 C 227.965 273.831,228.786 271.553,228.794 270.811 C 228.807 269.517,230.597 264.536,231.402 263.553 C 231.873 262.977,232.488 261.897,232.769 261.153 C 233.049 260.409,233.657 259.080,234.119 258.200 C 234.907 256.702,235.162 256.323,236.214 255.086 C 236.441 254.819,237.116 253.758,237.713 252.729 C 238.311 251.700,239.216 250.530,239.726 250.129 C 240.235 249.728,240.993 248.860,241.411 248.200 C 241.828 247.540,242.613 246.640,243.155 246.200 C 244.400 245.189,245.189 244.400,246.200 243.155 C 246.640 242.613,247.540 241.828,248.200 241.411 C 248.860 240.993,249.728 240.235,250.129 239.726 C 250.530 239.216,251.700 238.310,252.729 237.711 C 254.522 236.668,255.038 236.312,256.114 235.378 C 256.776 234.803,259.503 233.391,261.153 232.769 C 261.897 232.488,262.977 231.873,263.553 231.402 C 264.536 230.597,269.517 228.807,270.811 228.794 C 271.561 228.786,273.848 227.958,275.400 227.132 C 279.027 225.202,299.774 224.544,305.559 226.176 " stroke="none" fill="#5f6161" fill-rule="evenodd"></path><path id="path2" d="M43.071 69.981 C 41.710 70.853,40.680 72.241,40.902 72.907 C 40.991 73.174,41.321 72.854,41.634 72.196 C 41.947 71.538,42.604 70.824,43.094 70.608 C 43.584 70.393,44.072 69.988,44.180 69.708 C 44.414 69.099,44.471 69.085,43.071 69.981 M37.664 75.206 C 37.150 75.635,36.790 76.147,36.864 76.344 C 36.939 76.542,37.506 76.185,38.125 75.551 C 39.396 74.251,39.088 74.020,37.664 75.206 M184.800 98.373 C 181.109 100.427,181.969 100.400,121.399 100.400 C 59.386 100.400,60.421 100.365,56.216 102.635 C 54.826 103.386,53.433 104.000,53.120 104.000 C 52.158 104.000,48.646 105.857,47.800 106.813 C 47.360 107.310,46.055 108.326,44.900 109.071 C 43.745 109.815,42.800 110.607,42.800 110.829 C 42.800 111.281,42.325 111.923,40.690 113.685 C 39.397 115.079,38.013 117.531,37.238 119.800 C 36.362 122.364,35.308 123.600,33.996 123.600 C 33.364 123.600,32.724 123.799,32.574 124.043 C 32.383 124.351,32.196 124.321,31.956 123.943 C 31.764 123.639,31.610 165.556,31.606 219.100 C 31.602 289.597,31.718 314.800,32.049 314.800 C 32.376 314.800,32.373 314.950,32.039 315.353 C 31.684 315.781,31.724 315.962,32.215 316.150 C 32.565 316.285,32.770 316.531,32.672 316.697 C 31.925 317.965,34.060 319.380,35.120 318.320 C 35.618 317.822,35.729 318.405,35.723 321.486 C 35.721 322.194,35.853 322.691,36.016 322.590 C 36.179 322.489,36.423 322.990,36.558 323.704 C 36.802 324.988,38.518 326.400,39.836 326.400 C 40.150 326.400,40.684 327.095,41.024 327.944 C 41.677 329.575,43.186 330.703,44.024 330.185 C 44.336 329.993,44.423 330.040,44.255 330.311 C 44.108 330.549,44.170 330.858,44.393 330.996 C 44.617 331.134,44.800 331.087,44.800 330.890 C 44.800 330.694,45.070 330.533,45.400 330.533 C 45.730 330.533,46.000 330.683,46.000 330.867 C 46.000 331.050,46.437 331.200,46.971 331.200 C 48.079 331.200,49.334 332.260,48.954 332.875 C 48.793 333.136,48.575 333.088,48.356 332.743 C 48.083 332.311,48.011 332.334,48.006 332.853 C 48.003 333.213,48.373 333.604,48.830 333.724 C 49.286 333.843,49.757 334.314,49.876 334.770 C 49.996 335.227,50.387 335.597,50.747 335.594 C 51.266 335.589,51.289 335.517,50.857 335.244 C 50.512 335.025,50.464 334.807,50.725 334.646 C 50.951 334.507,51.420 334.677,51.768 335.025 C 52.344 335.601,52.400 335.601,52.400 335.019 C 52.400 334.438,52.485 334.437,53.360 335.011 C 54.121 335.509,54.363 335.532,54.528 335.120 C 54.678 334.747,54.746 334.738,54.768 335.087 C 54.793 335.468,72.259 335.579,135.031 335.593 L 215.262 335.612 216.018 334.706 C 216.826 333.736,217.033 331.452,216.451 329.919 C 216.259 329.413,215.878 328.280,215.604 327.400 C 215.330 326.520,214.706 325.350,214.217 324.800 C 213.094 323.537,212.600 322.208,211.767 318.200 C 211.401 316.440,211.012 314.595,210.904 314.100 C 210.795 313.605,210.561 313.200,210.382 313.200 C 210.204 313.200,209.640 312.165,209.131 310.900 C 206.934 305.449,208.003 270.400,210.365 270.400 C 210.534 270.400,210.886 269.455,211.147 268.300 C 211.408 267.145,211.867 265.120,212.166 263.800 C 212.879 260.662,213.382 259.438,214.325 258.538 C 214.751 258.132,215.520 256.453,216.035 254.807 C 216.612 252.961,217.453 251.275,218.230 250.407 C 218.923 249.633,219.736 248.311,220.037 247.469 C 220.337 246.626,221.362 245.026,222.313 243.911 C 223.264 242.797,224.397 241.189,224.831 240.338 C 225.265 239.488,226.384 238.029,227.316 237.096 C 228.249 236.163,229.367 234.905,229.801 234.300 C 230.235 233.695,230.735 233.200,230.913 233.200 C 231.333 233.200,233.200 231.333,233.200 230.913 C 233.200 230.735,233.695 230.235,234.300 229.801 C 234.905 229.367,236.163 228.249,237.096 227.316 C 238.029 226.384,239.488 225.265,240.338 224.831 C 241.189 224.397,242.797 223.264,243.911 222.313 C 245.026 221.362,246.626 220.337,247.469 220.037 C 248.311 219.736,249.663 218.896,250.474 218.170 C 251.438 217.306,252.959 216.550,254.874 215.983 C 256.483 215.506,258.132 214.764,258.538 214.334 C 259.435 213.383,260.652 212.882,263.800 212.166 C 265.120 211.867,267.145 211.408,268.300 211.147 C 269.455 210.886,270.400 210.534,270.400 210.365 C 270.400 207.708,304.318 206.734,310.913 209.202 C 312.171 209.672,313.200 210.204,313.200 210.382 C 313.200 210.561,313.605 210.795,314.100 210.904 C 314.595 211.012,316.440 211.401,318.200 211.767 C 322.208 212.600,323.537 213.094,324.800 214.217 C 325.350 214.706,326.520 215.333,327.400 215.611 C 331.022 216.752,332.259 217.312,333.400 218.330 C 334.822 219.598,336.185 220.400,336.918 220.400 C 337.210 220.400,338.408 221.220,339.581 222.221 C 340.755 223.223,342.454 224.416,343.358 224.873 C 344.261 225.330,345.138 225.940,345.306 226.227 C 345.888 227.222,348.014 229.151,348.806 229.402 C 349.243 229.540,349.600 229.800,349.600 229.979 C 349.600 230.289,351.829 232.658,353.441 234.061 C 353.858 234.425,354.650 235.360,355.200 236.138 C 355.750 236.917,356.563 237.753,357.006 237.995 C 357.450 238.237,358.336 239.435,358.977 240.658 C 359.617 241.881,360.784 243.552,361.570 244.372 C 362.357 245.191,363.336 246.801,363.746 247.948 L 364.493 250.034 366.546 249.891 L 368.600 249.748 368.698 187.174 C 368.761 146.512,368.656 124.194,368.398 123.441 C 368.148 122.713,368.141 122.112,368.377 121.827 C 368.610 121.547,368.612 121.148,368.383 120.787 C 368.082 120.310,368.006 120.350,367.978 121.000 L 367.944 121.800 367.627 121.000 C 367.453 120.560,367.393 119.930,367.493 119.600 C 367.603 119.238,367.541 119.159,367.338 119.400 C 366.910 119.907,365.336 119.900,364.841 119.388 C 364.633 119.175,364.405 117.560,364.332 115.800 C 364.199 112.566,363.192 110.663,362.004 111.398 C 361.782 111.535,361.600 111.368,361.600 111.027 C 361.600 110.686,361.240 110.182,360.800 109.907 C 359.759 109.257,359.788 108.896,360.900 108.682 L 361.800 108.509 360.900 108.454 C 359.921 108.395,359.757 108.003,360.430 107.330 C 360.737 107.023,360.549 106.959,359.771 107.108 C 359.015 107.252,358.768 107.176,358.964 106.858 C 359.132 106.586,358.984 106.400,358.600 106.400 C 358.213 106.400,358.067 106.585,358.238 106.862 C 358.434 107.178,358.347 107.213,357.962 106.972 C 357.653 106.779,357.220 106.599,357.000 106.571 C 356.780 106.544,356.381 106.494,356.113 106.461 C 355.843 106.427,355.732 106.121,355.865 105.774 C 356.012 105.392,355.771 104.915,355.246 104.547 C 354.773 104.216,354.468 103.814,354.567 103.654 C 354.666 103.493,354.582 103.100,354.380 102.781 C 354.165 102.441,354.010 102.393,354.006 102.665 C 354.000 103.106,353.516 103.101,350.800 102.632 C 350.250 102.537,349.104 102.446,348.253 102.430 C 346.910 102.404,346.734 102.295,346.916 101.600 C 347.031 101.160,346.932 100.800,346.696 100.800 C 346.460 100.800,346.380 100.686,346.519 100.547 C 347.041 100.025,345.976 98.722,345.411 99.191 C 345.018 99.517,344.836 99.507,344.717 99.152 C 344.629 98.887,344.206 98.571,343.778 98.451 C 342.492 98.089,185.449 98.012,184.800 98.373 M362.494 107.752 C 362.875 108.042,363.055 108.425,362.894 108.604 C 362.732 108.782,362.856 108.780,363.168 108.599 C 363.607 108.344,363.670 108.443,363.444 109.034 C 363.213 109.641,363.255 109.698,363.647 109.309 C 364.185 108.776,363.117 107.187,362.238 107.213 C 361.997 107.220,362.112 107.463,362.494 107.752 M37.594 323.335 C 37.597 323.080,37.872 322.911,38.204 322.959 C 39.510 323.151,40.408 324.958,39.391 325.348 C 39.018 325.491,38.913 325.270,39.035 324.594 C 39.186 323.766,39.065 323.648,38.141 323.718 C 37.481 323.769,37.010 323.571,36.906 323.200 C 36.758 322.667,36.786 322.667,37.163 323.200 C 37.410 323.549,37.590 323.606,37.594 323.335 M43.406 327.700 C 43.267 327.425,43.342 327.200,43.574 327.200 C 43.805 327.200,43.919 327.605,43.827 328.100 C 43.735 328.595,43.646 329.135,43.630 329.300 C 43.613 329.465,43.401 329.600,43.157 329.600 C 42.914 329.600,42.816 329.336,42.940 329.013 C 43.064 328.690,42.993 328.319,42.783 328.189 C 42.572 328.059,42.400 327.659,42.400 327.300 C 42.400 326.748,42.498 326.768,43.030 327.424 C 43.376 327.851,43.545 327.975,43.406 327.700 " stroke="none" fill="#fccb2c" fill-rule="evenodd"></path><path id="path3" d="M281.600 242.548 C 280.610 242.797,278.720 243.508,277.400 244.128 C 276.080 244.748,274.100 245.491,273.000 245.780 C 270.192 246.517,268.297 247.359,267.625 248.169 C 267.309 248.550,266.229 249.281,265.225 249.792 C 262.370 251.247,255.007 257.901,253.504 260.385 C 253.034 261.163,252.142 262.426,251.524 263.191 C 249.757 265.378,249.889 268.547,251.835 270.650 C 252.624 271.502,253.479 272.470,253.735 272.800 C 256.730 276.665,261.059 275.775,266.588 270.155 C 268.242 268.474,270.394 266.652,274.200 263.709 C 274.719 263.308,276.242 262.611,278.000 261.971 C 278.770 261.690,279.850 261.153,280.400 260.777 C 284.736 257.817,299.481 257.705,302.800 260.608 C 303.130 260.897,304.210 261.435,305.200 261.804 C 307.351 262.605,308.854 263.287,309.400 263.709 C 313.218 266.661,315.296 268.391,316.657 269.747 C 321.429 274.507,322.179 274.925,325.590 274.733 C 328.106 274.590,328.481 274.457,329.369 273.387 C 329.911 272.734,330.995 271.502,331.777 270.650 C 333.834 268.408,333.841 265.417,331.796 262.844 C 331.028 261.878,330.400 260.919,330.400 260.714 C 330.400 259.686,320.935 251.085,318.379 249.789 C 317.373 249.279,316.291 248.550,315.975 248.169 C 315.299 247.354,313.398 246.513,310.563 245.774 C 309.442 245.482,307.372 244.710,305.963 244.059 C 301.524 242.009,287.261 241.124,281.600 242.548 " stroke="none" fill="#bcdcfc" fill-rule="evenodd"></path><path id="path4" d="M49.106 65.357 C 48.725 65.644,48.530 65.996,48.673 66.140 C 48.816 66.283,48.725 66.400,48.471 66.400 C 48.217 66.400,48.036 66.715,48.068 67.100 C 48.227 69.002,48.053 69.200,46.220 69.200 C 45.233 69.200,44.297 69.423,44.120 69.700 C 43.944 69.975,43.440 70.398,43.000 70.639 C 42.560 70.881,41.998 71.477,41.751 71.964 C 41.503 72.452,41.191 72.843,41.056 72.834 C 38.793 72.682,35.650 76.651,35.619 79.700 C 35.600 81.591,35.594 81.600,34.200 81.650 C 33.430 81.678,32.575 81.723,32.300 81.750 C 31.909 81.789,31.775 86.240,31.686 102.200 C 31.571 122.816,31.649 124.911,32.502 124.058 C 32.754 123.806,33.452 123.600,34.053 123.600 C 35.303 123.600,36.378 122.318,37.238 119.800 C 38.013 117.531,39.397 115.079,40.690 113.685 C 42.325 111.923,42.800 111.281,42.800 110.829 C 42.800 110.607,43.745 109.815,44.900 109.071 C 46.055 108.326,47.360 107.310,47.800 106.813 C 48.646 105.857,52.158 104.000,53.120 104.000 C 53.433 104.000,54.826 103.386,56.216 102.635 C 60.421 100.365,59.386 100.400,121.399 100.400 C 177.811 100.400,180.222 100.350,183.200 99.120 C 185.303 98.252,185.400 98.133,185.436 96.354 C 185.476 94.386,185.112 94.074,182.722 94.028 C 181.247 94.000,181.244 93.996,181.122 92.100 L 181.000 90.200 179.100 90.078 L 177.200 89.956 177.200 88.378 C 177.200 87.510,177.213 86.672,177.230 86.516 C 177.276 86.068,175.936 85.659,174.322 85.628 C 172.847 85.600,172.844 85.596,172.722 83.700 L 172.600 81.800 170.700 81.678 C 168.804 81.556,168.800 81.553,168.772 80.078 C 168.741 78.464,168.332 77.124,167.884 77.170 C 167.728 77.187,166.880 77.200,166.000 77.200 L 164.400 77.200 164.400 75.443 C 164.400 73.501,164.047 73.200,161.767 73.200 C 160.478 73.200,160.400 73.122,160.400 71.833 C 160.400 69.553,160.099 69.200,158.157 69.200 L 156.400 69.200 156.400 67.600 C 156.400 66.720,156.413 65.872,156.430 65.716 C 156.446 65.559,156.131 65.301,155.730 65.142 C 154.288 64.569,49.873 64.781,49.106 65.357 M41.670 70.526 C 41.191 71.035,40.804 71.620,40.809 71.826 C 40.814 72.032,41.129 71.818,41.509 71.352 C 41.889 70.886,42.560 70.306,43.000 70.064 C 43.604 69.732,43.646 69.621,43.170 69.612 C 42.823 69.605,42.148 70.017,41.670 70.526 M38.125 75.551 C 37.506 76.185,36.939 76.542,36.864 76.344 C 36.723 75.970,38.360 74.436,38.925 74.413 C 39.104 74.406,38.744 74.918,38.125 75.551 M343.181 98.387 C 343.500 98.585,343.907 98.658,344.084 98.548 C 344.261 98.439,344.515 98.635,344.650 98.985 C 344.832 99.459,345.027 99.510,345.419 99.184 C 345.977 98.721,347.035 100.032,346.519 100.547 C 346.380 100.686,346.460 100.800,346.696 100.800 C 346.932 100.800,347.031 101.160,346.916 101.600 C 346.734 102.295,346.910 102.404,348.253 102.430 C 349.104 102.446,350.250 102.537,350.800 102.632 C 353.386 103.078,354.000 103.104,354.000 102.765 C 354.000 102.564,353.550 102.400,353.000 102.400 C 352.071 102.400,352.000 102.262,352.000 100.467 C 352.000 99.237,351.818 98.499,351.500 98.439 C 349.825 98.125,342.685 98.080,343.181 98.387 M354.536 103.257 C 354.608 103.728,354.989 104.349,355.383 104.637 C 355.794 104.937,355.999 105.426,355.863 105.781 C 355.732 106.121,355.844 106.427,356.113 106.461 C 356.381 106.494,356.780 106.544,357.000 106.571 C 357.220 106.599,357.653 106.779,357.962 106.972 C 358.347 107.213,358.434 107.178,358.238 106.862 C 358.067 106.585,358.213 106.400,358.600 106.400 C 358.956 106.400,359.136 106.580,359.000 106.800 C 358.864 107.020,359.123 107.200,359.576 107.200 C 360.556 107.200,360.608 106.951,359.800 106.143 C 359.470 105.813,359.203 105.331,359.206 105.071 C 359.210 104.789,359.379 104.841,359.628 105.200 C 359.970 105.695,360.021 105.660,359.916 105.000 C 359.846 104.560,359.576 104.200,359.315 104.200 C 359.054 104.200,358.606 103.939,358.320 103.619 C 357.871 103.118,357.896 103.111,358.500 103.568 C 358.923 103.888,359.200 103.931,359.200 103.676 C 359.200 103.035,357.633 102.675,357.028 103.177 C 356.625 103.511,356.436 103.470,356.259 103.010 C 355.879 102.018,354.379 102.232,354.536 103.257 M360.480 107.280 C 359.775 107.985,359.889 108.323,360.900 108.518 L 361.800 108.691 360.900 108.746 C 359.786 108.813,359.749 109.251,360.800 109.907 C 361.240 110.182,361.600 110.670,361.600 110.991 C 361.600 111.315,361.839 111.483,362.136 111.369 C 362.431 111.256,362.903 111.442,363.185 111.782 C 363.467 112.122,363.856 112.400,364.049 112.400 C 364.567 112.400,364.475 111.035,363.920 110.480 C 363.547 110.107,363.547 110.000,363.920 110.000 C 364.184 110.000,364.400 109.801,364.400 109.557 C 364.400 109.314,364.126 109.220,363.791 109.348 C 363.303 109.536,363.261 109.433,363.582 108.833 C 363.885 108.268,363.819 107.951,363.315 107.542 C 362.850 107.165,362.738 107.152,362.947 107.500 C 363.114 107.778,363.054 108.000,362.811 108.000 C 362.571 108.000,362.271 107.730,362.145 107.400 C 361.867 106.677,361.136 106.624,360.480 107.280 M364.400 116.958 C 364.400 118.281,364.598 119.275,364.900 119.462 C 365.613 119.903,366.942 119.869,367.338 119.400 C 367.541 119.159,367.603 119.238,367.493 119.600 C 367.393 119.930,367.453 120.560,367.627 121.000 L 367.944 121.800 367.978 121.000 C 368.006 120.337,368.077 120.303,368.392 120.800 C 368.651 121.209,368.758 120.508,368.728 118.600 C 368.676 115.211,368.518 114.976,366.214 114.857 L 364.400 114.763 364.400 116.958 M368.223 121.963 C 368.099 122.163,368.167 122.748,368.374 123.263 C 368.725 124.139,368.751 124.116,368.775 122.900 C 368.800 121.586,368.632 121.300,368.223 121.963 M282.200 208.023 C 275.204 208.311,270.400 209.265,270.400 210.365 C 270.400 210.534,269.455 210.886,268.300 211.147 C 267.145 211.408,265.120 211.867,263.800 212.166 C 260.652 212.882,259.435 213.383,258.538 214.334 C 258.132 214.764,256.483 215.506,254.874 215.983 C 252.959 216.550,251.438 217.306,250.474 218.170 C 249.663 218.896,248.311 219.736,247.469 220.037 C 246.626 220.337,245.026 221.362,243.911 222.313 C 242.797 223.264,241.189 224.397,240.338 224.831 C 239.488 225.265,238.029 226.384,237.096 227.316 C 236.163 228.249,234.905 229.367,234.300 229.801 C 233.695 230.235,233.200 230.735,233.200 230.913 C 233.200 231.333,231.333 233.200,230.913 233.200 C 230.735 233.200,230.235 233.695,229.801 234.300 C 229.367 234.905,228.249 236.163,227.316 237.096 C 226.384 238.029,225.265 239.488,224.831 240.338 C 224.397 241.189,223.264 242.797,222.313 243.911 C 221.362 245.026,220.337 246.626,220.037 247.469 C 219.736 248.311,218.923 249.633,218.230 250.407 C 217.453 251.275,216.612 252.961,216.035 254.807 C 215.520 256.453,214.751 258.132,214.325 258.538 C 213.382 259.438,212.879 260.662,212.166 263.800 C 211.867 265.120,211.408 267.145,211.147 268.300 C 210.886 269.455,210.534 270.400,210.365 270.400 C 208.003 270.400,206.934 305.449,209.131 310.900 C 209.640 312.165,210.204 313.200,210.382 313.200 C 210.561 313.200,210.795 313.605,210.904 314.100 C 211.012 314.595,211.401 316.440,211.767 318.200 C 212.600 322.208,213.094 323.537,214.217 324.800 C 214.706 325.350,215.330 326.520,215.604 327.400 C 215.878 328.280,216.259 329.413,216.451 329.919 C 217.003 331.371,216.864 333.849,216.200 334.400 C 215.458 335.016,215.424 335.600,216.130 335.600 C 218.129 335.600,218.919 332.424,217.600 329.694 C 217.160 328.784,216.800 327.705,216.800 327.298 C 216.800 326.890,216.301 325.756,215.690 324.778 C 214.054 322.156,213.298 320.169,212.599 316.652 C 212.255 314.920,211.605 312.490,211.155 311.252 C 209.674 307.172,209.558 306.646,208.981 301.400 C 208.293 295.141,208.250 289.589,208.839 283.063 C 209.279 278.190,209.629 276.573,211.171 272.313 C 211.626 271.054,212.295 268.534,212.657 266.713 C 213.267 263.645,213.676 262.574,215.909 258.200 C 216.359 257.320,216.947 255.880,217.216 255.000 C 217.485 254.120,218.275 252.590,218.972 251.600 C 219.669 250.610,220.657 248.958,221.168 247.929 C 221.678 246.900,222.615 245.561,223.248 244.954 C 223.882 244.347,224.400 243.614,224.400 243.325 C 224.400 243.036,224.560 242.800,224.757 242.800 C 224.953 242.800,225.225 242.356,225.361 241.813 C 225.629 240.747,227.043 239.153,233.098 233.098 C 239.153 227.043,240.747 225.629,241.813 225.361 C 242.356 225.225,242.800 224.953,242.800 224.757 C 242.800 224.560,243.036 224.400,243.325 224.400 C 243.614 224.400,244.347 223.882,244.954 223.248 C 245.561 222.615,246.900 221.678,247.929 221.168 C 248.958 220.657,250.610 219.669,251.600 218.972 C 252.590 218.275,254.120 217.485,255.000 217.216 C 255.880 216.947,257.320 216.354,258.200 215.898 C 262.243 213.805,263.574 213.278,266.000 212.810 C 269.030 212.226,271.267 211.595,274.600 210.386 C 277.473 209.344,285.607 208.409,291.800 208.409 C 297.993 208.409,306.127 209.344,309.000 210.386 C 312.312 211.588,314.555 212.222,317.600 212.817 C 320.013 213.289,321.155 213.742,325.400 215.909 C 326.280 216.359,327.720 216.947,328.600 217.216 C 329.480 217.485,331.010 218.275,332.000 218.972 C 332.990 219.669,334.642 220.657,335.671 221.168 C 336.700 221.678,338.039 222.615,338.646 223.248 C 339.253 223.882,339.986 224.400,340.275 224.400 C 340.564 224.400,340.800 224.580,340.800 224.800 C 340.800 225.020,341.056 225.200,341.369 225.200 C 341.682 225.200,342.876 226.053,344.022 227.096 C 345.168 228.139,346.587 229.354,347.175 229.796 C 348.614 230.877,352.849 235.124,353.615 236.253 C 353.953 236.752,355.033 238.026,356.015 239.084 C 356.997 240.141,358.134 241.663,358.542 242.465 C 358.950 243.267,359.859 244.532,360.561 245.277 C 361.264 246.021,362.450 247.847,363.197 249.333 L 364.555 252.036 366.577 251.918 C 368.426 251.810,368.610 251.710,368.721 250.753 C 368.841 249.719,368.815 249.707,366.670 249.876 L 364.498 250.048 363.749 247.955 C 363.337 246.804,362.357 245.191,361.570 244.372 C 360.784 243.552,359.617 241.881,358.977 240.658 C 358.336 239.435,357.450 238.237,357.006 237.995 C 356.563 237.753,355.750 236.917,355.200 236.138 C 354.650 235.360,353.858 234.425,353.441 234.061 C 351.829 232.658,349.600 230.289,349.600 229.979 C 349.600 229.800,349.243 229.540,348.806 229.402 C 348.014 229.151,345.888 227.222,345.306 226.227 C 345.138 225.940,344.261 225.330,343.358 224.873 C 342.454 224.416,340.755 223.223,339.581 222.221 C 338.408 221.220,337.210 220.400,336.918 220.400 C 336.185 220.400,334.822 219.598,333.400 218.330 C 332.259 217.312,331.022 216.752,327.400 215.611 C 326.520 215.333,325.350 214.706,324.800 214.217 C 323.537 213.094,322.208 212.600,318.200 211.767 C 316.440 211.401,314.595 211.012,314.100 210.904 C 313.605 210.795,313.200 210.561,313.200 210.382 C 313.200 208.971,298.798 207.262,290.400 207.677 C 289.850 207.704,286.160 207.860,282.200 208.023 M31.733 316.589 C 31.733 316.925,31.870 317.200,32.037 317.200 C 32.205 317.200,32.430 317.515,32.538 317.900 C 32.645 318.285,32.690 318.070,32.636 317.423 C 32.537 316.222,31.733 315.479,31.733 316.589 M36.906 323.200 C 37.010 323.571,37.481 323.769,38.141 323.718 C 39.065 323.648,39.186 323.766,39.035 324.594 C 38.913 325.270,39.018 325.491,39.391 325.348 C 40.408 324.958,39.510 323.151,38.204 322.959 C 37.872 322.911,37.597 323.080,37.594 323.335 C 37.590 323.606,37.410 323.549,37.163 323.200 C 36.786 322.667,36.758 322.667,36.906 323.200 M42.400 327.300 C 42.400 327.659,42.572 328.059,42.783 328.189 C 42.993 328.319,43.064 328.690,42.940 329.013 C 42.816 329.336,42.914 329.600,43.157 329.600 C 43.401 329.600,43.613 329.465,43.630 329.300 C 43.646 329.135,43.735 328.595,43.827 328.100 C 43.919 327.605,43.805 327.200,43.574 327.200 C 43.342 327.200,43.267 327.425,43.406 327.700 C 43.545 327.975,43.376 327.851,43.030 327.424 C 42.498 326.768,42.400 326.748,42.400 327.300 M48.157 332.233 C 48.291 332.581,48.400 332.951,48.400 333.056 C 48.400 333.161,48.572 333.141,48.783 333.011 C 49.247 332.724,48.874 331.600,48.314 331.600 C 48.094 331.600,48.024 331.885,48.157 332.233 M48.914 334.500 C 49.401 334.995,49.862 335.259,49.938 335.087 C 50.139 334.628,49.190 333.600,48.565 333.600 C 48.220 333.600,48.344 333.921,48.914 334.500 M50.589 334.817 C 50.459 335.028,50.439 335.200,50.544 335.200 C 50.649 335.200,51.019 335.309,51.367 335.443 C 51.715 335.576,52.000 335.506,52.000 335.286 C 52.000 334.726,50.876 334.353,50.589 334.817 M52.400 334.951 C 52.400 335.350,52.734 335.600,53.267 335.600 C 53.743 335.600,54.058 335.549,53.967 335.487 C 53.875 335.425,53.485 335.133,53.100 334.838 C 52.501 334.379,52.400 334.396,52.400 334.951 " stroke="none" fill="#fca304" fill-rule="evenodd"></path></g></svg>