<svg id="svg" xmlns="http://www.w3.org/2000/svg" xmlns:xlink="http://www.w3.org/1999/xlink" width="400" height="400" viewBox="0, 0, 400,400"><g id="svgg"><path id="path0" d="M8.000 200.199 L 8.000 362.400 185.100 362.397 C 282.505 362.395,363.115 362.283,364.234 362.149 C 367.480 361.759,367.382 362.231,367.524 346.314 L 367.647 332.427 369.124 332.192 C 372.403 331.670,372.347 331.960,372.377 315.347 L 372.400 302.493 373.300 302.252 C 373.795 302.119,374.652 302.008,375.204 302.005 C 377.302 301.994,377.389 301.405,377.524 286.314 L 377.647 272.427 379.124 272.192 C 382.403 271.670,382.347 271.960,382.377 255.347 L 382.400 242.493 383.300 242.252 C 383.795 242.119,384.652 242.008,385.204 242.005 C 387.302 241.994,387.389 241.405,387.524 226.314 L 387.647 212.427 389.124 212.192 C 392.403 211.670,392.347 211.960,392.377 195.347 L 392.400 182.493 393.300 182.252 C 393.795 182.119,394.652 182.008,395.204 182.005 C 397.302 181.994,397.389 181.406,397.524 166.300 L 397.647 152.400 398.824 152.400 L 400.000 152.400 400.000 135.200 L 400.000 118.000 381.200 118.000 L 362.400 118.000 362.400 93.000 L 362.400 68.000 257.400 68.000 L 152.400 68.000 152.400 66.033 C 152.400 63.013,152.227 62.800,149.777 62.800 L 147.640 62.800 147.520 60.500 L 147.400 58.200 144.900 58.081 L 142.400 57.962 142.400 56.014 C 142.400 53.015,142.224 52.800,139.777 52.800 L 137.640 52.800 137.520 50.500 L 137.400 48.200 134.900 48.081 L 132.400 47.962 132.400 46.014 C 132.400 43.015,132.224 42.800,129.777 42.800 L 127.640 42.800 127.520 40.500 L 127.400 38.200 67.700 38.099 L 8.000 37.997 8.000 200.199 M117.474 49.625 C 118.691 50.085,120.800 51.920,120.800 52.518 C 120.800 53.059,122.522 54.785,123.070 54.793 C 123.328 54.797,123.958 55.346,124.470 56.014 C 125.784 57.727,127.238 59.191,129.150 60.723 C 130.057 61.450,130.803 62.260,130.807 62.523 C 130.815 63.099,132.547 64.800,133.126 64.800 C 133.353 64.800,133.958 65.346,134.470 66.014 C 135.784 67.727,137.238 69.191,139.150 70.723 C 140.057 71.450,140.800 72.265,140.800 72.534 C 140.800 73.075,142.164 74.375,143.399 75.011 C 143.839 75.238,144.559 75.985,144.999 76.673 C 146.768 79.434,137.197 79.200,248.492 79.200 L 349.061 79.200 350.030 80.232 L 351.000 81.264 351.000 100.221 L 351.000 119.178 350.089 120.089 L 349.178 121.000 270.489 121.221 C 186.476 121.456,190.201 121.349,187.800 123.589 C 185.655 125.591,184.388 126.400,183.401 126.400 C 182.945 126.400,181.825 127.203,180.882 128.204 C 179.877 129.273,178.096 130.522,176.515 131.270 C 175.046 131.964,173.348 133.039,172.741 133.660 C 171.381 135.052,169.221 136.397,168.344 136.399 C 167.983 136.399,166.712 137.361,165.518 138.535 C 162.621 141.387,166.837 141.200,105.403 141.200 C 53.732 141.200,52.508 141.218,51.828 141.969 C 51.296 142.557,51.048 143.902,50.778 147.669 C 50.452 152.226,49.289 157.892,48.462 158.953 C 47.666 159.973,46.461 166.096,46.248 170.200 C 45.808 178.665,44.363 185.917,42.720 187.896 C 42.212 188.509,40.814 199.635,40.797 203.200 C 40.785 205.762,39.461 211.615,38.252 214.447 C 37.278 216.727,36.479 221.051,36.229 225.400 C 35.745 233.785,34.398 240.749,32.929 242.449 C 32.302 243.175,30.800 254.271,30.800 258.177 C 30.800 260.581,29.199 268.012,28.485 268.925 C 27.669 269.967,26.464 276.044,26.248 280.200 C 25.817 288.508,24.303 296.211,22.799 297.753 C 22.389 298.173,21.229 295.672,20.780 293.400 C 19.146 285.146,19.229 291.708,19.214 168.422 L 19.200 51.444 20.275 50.322 L 21.350 49.200 68.849 49.200 C 101.436 49.200,116.701 49.334,117.474 49.625 M385.546 129.058 C 389.342 129.454,391.006 131.169,390.658 134.324 C 390.387 136.781,389.037 141.432,388.358 142.250 C 387.419 143.382,386.773 147.394,386.402 154.400 C 385.818 165.397,384.851 170.473,382.881 172.870 C 382.553 173.269,382.184 175.288,381.968 177.870 C 381.768 180.251,381.337 185.440,381.011 189.400 C 380.447 196.249,379.489 200.888,378.358 202.250 C 377.419 203.382,376.773 207.394,376.402 214.400 C 375.818 225.397,374.851 230.473,372.881 232.870 C 372.553 233.269,372.184 235.288,371.968 237.870 C 371.768 240.251,371.337 245.440,371.011 249.400 C 370.447 256.249,369.489 260.888,368.358 262.250 C 367.419 263.382,366.773 267.394,366.402 274.400 C 365.818 285.397,364.851 290.473,362.881 292.870 C 362.553 293.269,362.184 295.288,361.968 297.870 C 361.768 300.251,361.337 305.440,361.011 309.400 C 360.447 316.249,359.489 320.888,358.358 322.250 C 357.476 323.313,356.783 327.200,356.585 332.200 C 356.471 335.060,356.081 339.798,355.719 342.729 L 355.060 348.058 353.506 349.387 C 352.652 350.119,351.164 350.916,350.199 351.158 C 347.615 351.809,27.304 351.785,24.331 351.133 C 19.216 350.013,18.612 347.120,22.035 340.133 C 23.146 337.866,23.275 337.152,23.634 331.333 C 24.256 321.244,26.133 312.000,27.560 312.000 C 27.930 312.000,28.786 304.445,29.180 297.715 C 29.523 291.843,30.384 287.897,31.826 285.579 C 32.967 283.746,33.483 280.950,33.777 275.001 C 34.202 266.418,35.610 259.214,37.195 257.513 C 37.958 256.694,38.650 251.667,39.191 242.996 C 39.589 236.631,40.322 233.381,42.187 229.727 C 43.125 227.889,43.288 226.940,43.634 221.327 C 44.256 211.243,46.133 202.000,47.560 202.000 C 47.916 202.000,48.764 194.673,49.214 187.715 C 49.592 181.867,50.448 177.934,51.864 175.539 C 52.996 173.623,53.487 170.897,53.796 164.800 C 54.381 153.260,55.579 150.170,59.852 149.178 C 60.717 148.978,83.030 148.802,110.400 148.780 C 159.176 148.742,163.355 148.647,164.018 147.567 C 165.321 145.444,167.006 144.264,169.996 143.380 C 170.544 143.218,171.829 142.230,172.852 141.185 C 174.251 139.756,175.120 139.216,176.356 139.007 C 177.260 138.855,178.000 138.566,178.000 138.365 C 178.000 138.164,178.270 138.000,178.600 138.000 C 178.930 138.000,179.200 137.738,179.200 137.418 C 179.200 136.520,180.858 135.070,182.822 134.248 C 186.105 132.875,186.544 132.606,188.039 131.057 C 188.858 130.208,190.129 129.372,190.864 129.198 C 192.456 128.821,381.981 128.685,385.546 129.058 " stroke="none" fill="#458cc4" fill-rule="evenodd"></path><path id="path1" d="M22.047 166.300 C 22.073 229.165,22.213 281.140,22.358 281.800 C 22.760 283.636,23.531 278.531,23.777 272.400 C 24.108 264.137,25.359 258.146,27.242 255.800 C 27.937 254.934,28.577 249.806,29.162 240.400 C 29.518 234.684,30.633 229.960,31.963 228.532 C 32.905 227.520,33.511 223.787,33.768 217.400 C 34.112 208.838,35.473 202.333,37.241 200.800 C 38.004 200.138,38.082 199.533,38.795 188.800 C 39.304 181.150,40.385 175.742,41.794 173.800 C 42.942 172.217,43.520 168.941,43.769 162.600 C 44.101 154.139,45.610 147.085,47.408 145.593 C 47.734 145.323,48.000 144.493,48.000 143.750 C 48.000 141.462,49.333 139.509,51.294 138.922 C 52.639 138.520,64.104 138.411,105.450 138.406 C 158.841 138.400,160.284 138.370,160.715 137.243 C 161.254 135.834,164.841 133.600,166.565 133.600 C 167.288 133.600,167.884 133.131,168.738 131.891 C 169.384 130.951,170.338 129.985,170.857 129.745 C 171.376 129.505,172.637 128.921,173.660 128.446 C 174.684 127.972,175.618 127.329,175.738 127.017 C 176.074 126.141,180.077 123.600,181.121 123.600 C 182.467 123.600,183.472 122.955,183.755 121.911 C 184.074 120.732,185.697 119.577,187.761 119.059 C 188.840 118.789,216.544 118.572,268.800 118.424 L 348.200 118.200 348.304 100.104 L 348.408 82.008 247.304 81.901 C 160.822 81.810,145.980 81.712,144.676 81.223 C 143.134 80.644,138.000 76.041,138.000 75.237 C 138.000 74.997,137.800 74.800,137.556 74.800 C 136.942 74.800,135.215 73.110,135.207 72.500 C 135.203 72.225,135.024 72.000,134.809 72.000 C 134.286 72.000,128.000 65.730,128.000 65.209 C 128.000 64.984,127.800 64.800,127.556 64.800 C 126.942 64.800,125.215 63.110,125.207 62.500 C 125.203 62.225,125.024 62.000,124.809 62.000 C 124.286 62.000,118.000 55.730,118.000 55.209 C 118.000 54.984,117.793 54.800,117.540 54.800 C 117.288 54.800,116.469 54.170,115.721 53.400 L 114.361 52.000 68.181 52.000 L 22.000 52.000 22.047 166.300 M194.092 131.093 C 192.741 131.215,192.073 131.569,190.892 132.792 C 190.072 133.643,188.185 134.981,186.700 135.766 C 185.215 136.551,183.505 137.633,182.900 138.169 C 180.244 140.522,179.827 140.800,178.956 140.800 C 178.420 140.800,177.315 141.491,176.317 142.449 C 175.373 143.356,173.430 144.726,172.000 145.494 C 170.570 146.262,168.860 147.392,168.200 148.005 C 167.540 148.618,166.283 149.498,165.406 149.960 L 163.812 150.800 113.129 150.800 C 55.635 150.800,59.970 150.547,59.359 153.932 C 59.214 154.740,58.569 156.986,57.926 158.924 C 56.805 162.303,56.219 166.084,55.218 176.400 C 54.816 180.540,53.877 184.252,52.638 186.600 C 52.290 187.260,52.004 188.341,52.002 189.003 C 52.001 189.664,51.817 190.834,51.594 191.603 C 51.370 192.371,51.014 195.430,50.801 198.400 C 50.370 204.438,49.425 209.435,47.813 214.200 C 46.772 217.278,46.134 221.561,45.218 231.600 C 44.837 235.773,44.202 238.336,42.787 241.400 C 42.024 243.053,40.981 249.798,40.623 255.400 C 40.369 259.359,39.193 265.174,37.791 269.400 C 37.015 271.740,36.522 274.643,35.956 280.200 C 35.157 288.062,34.117 293.309,32.776 296.253 C 32.349 297.190,32.000 298.462,32.000 299.081 C 32.000 299.699,31.817 300.834,31.594 301.603 C 31.370 302.371,31.014 305.430,30.801 308.400 C 30.369 314.441,29.424 319.439,27.812 324.200 C 27.002 326.592,26.534 329.318,25.957 335.000 C 25.203 342.414,24.702 345.984,24.242 347.200 C 24.089 347.605,24.474 348.028,25.424 348.500 C 27.440 349.502,348.369 349.601,349.200 348.600 C 349.474 348.270,349.946 348.000,350.249 348.000 C 350.621 348.000,350.800 347.502,350.800 346.464 C 350.800 345.619,351.344 343.324,352.008 341.364 C 353.190 337.878,355.200 324.803,355.200 320.602 C 355.200 318.528,356.526 312.060,357.215 310.773 C 357.927 309.441,358.799 304.545,359.204 299.600 C 359.869 291.485,360.890 284.980,362.093 281.200 C 363.279 277.469,365.165 265.024,365.189 260.761 C 365.202 258.538,366.510 252.090,367.215 250.773 C 367.927 249.441,368.799 244.545,369.204 239.600 C 369.870 231.467,370.889 224.983,372.095 221.200 C 373.317 217.369,374.559 209.454,375.015 202.600 C 375.309 198.178,376.226 193.199,377.187 190.800 C 378.206 188.257,378.829 184.882,379.204 179.865 C 379.798 171.938,380.877 165.060,382.226 160.600 C 383.546 156.237,384.386 150.728,385.184 141.200 C 385.396 138.670,385.756 135.971,385.985 135.203 C 386.692 132.821,386.540 132.431,384.567 131.586 C 382.871 130.859,201.906 130.391,194.092 131.093 M383.682 139.400 C 383.531 148.645,383.012 152.663,381.797 154.000 C 379.609 156.407,379.004 160.392,378.163 177.930 C 377.978 181.797,377.762 183.316,377.378 183.464 C 375.200 184.300,374.042 189.648,373.581 201.000 C 373.147 211.699,373.015 212.661,371.798 214.000 C 369.616 216.400,369.033 220.206,368.171 237.706 C 367.970 241.776,367.785 242.913,367.259 243.311 C 365.021 245.005,364.036 249.757,363.591 261.000 C 363.187 271.214,363.065 272.078,361.784 273.800 C 359.559 276.792,359.029 280.300,358.171 297.706 C 357.970 301.776,357.785 302.913,357.259 303.311 C 355.021 305.005,354.036 309.757,353.591 321.000 C 353.186 331.228,353.065 332.082,351.776 333.800 C 350.347 335.703,349.220 339.828,348.961 344.102 C 348.745 347.670,348.651 348.021,347.863 348.211 C 346.530 348.532,26.905 348.238,26.582 347.915 C 25.705 347.038,27.478 329.978,28.516 329.311 C 30.489 328.044,31.468 322.726,31.971 310.544 L 32.276 303.166 33.559 301.842 C 35.343 300.002,36.262 295.866,36.591 288.200 C 36.951 279.792,37.497 275.572,38.350 274.601 C 40.631 272.001,41.439 268.133,41.817 258.000 C 42.145 249.225,42.283 248.318,43.494 247.012 C 45.445 244.908,46.013 242.201,46.640 232.008 C 47.223 222.547,47.615 219.889,48.512 219.313 C 50.489 218.045,51.467 212.734,51.971 200.544 L 52.276 193.166 53.559 191.842 C 55.343 190.002,56.262 185.866,56.591 178.200 C 56.951 169.792,57.497 165.572,58.350 164.601 C 60.024 162.693,60.523 161.309,61.150 156.838 L 61.800 152.200 114.000 152.000 C 168.977 151.789,167.674 151.835,169.714 150.069 C 170.107 149.729,170.647 149.006,170.914 148.462 C 171.473 147.325,171.927 147.045,174.378 146.323 C 175.851 145.890,176.296 145.515,176.978 144.134 C 177.683 142.706,178.028 142.430,179.400 142.197 C 182.216 141.721,184.973 140.188,185.810 138.633 C 186.537 137.284,188.033 136.400,189.590 136.400 C 190.480 136.400,191.875 134.867,192.208 133.522 C 192.579 132.026,185.133 132.130,289.600 132.167 L 383.799 132.200 383.682 139.400 " stroke="none" fill="#b4dcfc" fill-rule="evenodd"></path><path id="path2" d="M193.938 132.289 C 192.741 132.416,192.427 132.639,192.208 133.522 C 191.875 134.867,190.480 136.400,189.590 136.400 C 188.033 136.400,186.537 137.284,185.810 138.633 C 184.973 140.188,182.216 141.721,179.400 142.197 C 178.028 142.430,177.683 142.706,176.978 144.134 C 176.296 145.515,175.851 145.890,174.378 146.323 C 171.927 147.045,171.473 147.325,170.914 148.462 C 170.647 149.006,170.107 149.729,169.714 150.069 C 167.674 151.835,168.977 151.789,114.000 152.000 L 61.800 152.200 61.150 156.838 C 60.523 161.309,60.024 162.693,58.350 164.601 C 57.497 165.572,56.951 169.792,56.591 178.200 C 56.262 185.866,55.343 190.002,53.559 191.842 L 52.276 193.166 51.971 200.544 C 51.467 212.734,50.489 218.045,48.512 219.313 C 47.615 219.889,47.223 222.547,46.640 232.008 C 46.013 242.201,45.445 244.908,43.494 247.012 C 42.283 248.318,42.145 249.225,41.817 258.000 C 41.439 268.133,40.631 272.001,38.350 274.601 C 37.497 275.572,36.951 279.792,36.591 288.200 C 36.262 295.866,35.343 300.002,33.559 301.842 L 32.276 303.166 31.971 310.544 C 31.468 322.726,30.489 328.044,28.516 329.311 C 27.478 329.978,25.705 347.038,26.582 347.915 C 26.905 348.238,346.530 348.532,347.863 348.211 C 348.651 348.021,348.745 347.670,348.961 344.102 C 349.220 339.828,350.347 335.703,351.776 333.800 C 353.065 332.082,353.186 331.228,353.591 321.000 C 354.036 309.757,355.021 305.005,357.259 303.311 C 357.785 302.913,357.970 301.776,358.171 297.706 C 359.029 280.300,359.559 276.792,361.784 273.800 C 363.065 272.078,363.187 271.214,363.591 261.000 C 364.036 249.757,365.021 245.005,367.259 243.311 C 367.785 242.913,367.970 241.776,368.171 237.706 C 369.033 220.206,369.616 216.400,371.798 214.000 C 373.015 212.661,373.147 211.699,373.581 201.000 C 374.042 189.648,375.200 184.300,377.378 183.464 C 377.762 183.316,377.978 181.797,378.163 177.930 C 379.004 160.392,379.609 156.407,381.797 154.000 C 383.012 152.663,383.531 148.645,383.682 139.400 L 383.799 132.200 289.600 132.167 C 237.790 132.149,194.742 132.203,193.938 132.289 " stroke="none" fill="#dcf4fc" fill-rule="evenodd"></path><path id="path3" d="M20.275 50.322 L 19.200 51.444 19.214 168.422 C 19.229 291.708,19.146 285.146,20.780 293.400 C 21.229 295.672,22.389 298.173,22.799 297.753 C 24.303 296.211,25.817 288.508,26.248 280.200 C 26.464 276.044,27.669 269.967,28.485 268.925 C 29.199 268.012,30.800 260.581,30.800 258.177 C 30.800 254.271,32.302 243.175,32.929 242.449 C 34.398 240.749,35.745 233.785,36.229 225.400 C 36.479 221.051,37.278 216.727,38.252 214.447 C 39.461 211.615,40.785 205.762,40.797 203.200 C 40.814 199.635,42.212 188.509,42.720 187.896 C 44.363 185.917,45.808 178.665,46.248 170.200 C 46.461 166.096,47.666 159.973,48.462 158.953 C 49.289 157.892,50.452 152.226,50.778 147.669 C 51.048 143.902,51.296 142.557,51.828 141.969 C 52.508 141.218,53.732 141.200,105.403 141.200 C 166.837 141.200,162.621 141.387,165.518 138.535 C 166.712 137.361,167.983 136.399,168.344 136.399 C 169.221 136.397,171.381 135.052,172.741 133.660 C 173.348 133.039,175.046 131.964,176.515 131.270 C 178.096 130.522,179.877 129.273,180.882 128.204 C 181.825 127.203,182.945 126.400,183.401 126.400 C 184.388 126.400,185.655 125.591,187.800 123.589 C 190.201 121.349,186.476 121.456,270.489 121.221 L 349.178 121.000 350.089 120.089 L 351.000 119.178 351.000 100.221 L 351.000 81.264 350.030 80.232 L 349.061 79.200 248.492 79.200 C 137.197 79.200,146.768 79.434,144.999 76.673 C 144.559 75.985,143.839 75.238,143.399 75.011 C 142.164 74.375,140.800 73.075,140.800 72.534 C 140.800 72.265,140.057 71.450,139.150 70.723 C 137.238 69.191,135.784 67.727,134.470 66.014 C 133.958 65.346,133.353 64.800,133.126 64.800 C 132.547 64.800,130.815 63.099,130.807 62.523 C 130.803 62.260,130.057 61.450,129.150 60.723 C 127.238 59.191,125.784 57.727,124.470 56.014 C 123.958 55.346,123.328 54.797,123.070 54.793 C 122.522 54.785,120.800 53.059,120.800 52.518 C 120.800 51.920,118.691 50.085,117.474 49.625 C 116.701 49.334,101.436 49.200,68.849 49.200 L 21.350 49.200 20.275 50.322 M116.286 51.500 C 117.119 51.885,118.061 52.560,118.379 53.000 C 118.698 53.440,120.363 55.188,122.079 56.884 C 123.796 58.581,125.200 60.156,125.200 60.384 C 125.200 60.613,125.388 60.800,125.617 60.800 C 126.121 60.800,126.959 61.464,128.128 62.789 C 128.607 63.334,130.395 65.172,132.100 66.874 C 133.805 68.576,135.200 70.156,135.200 70.384 C 135.200 70.613,135.388 70.800,135.617 70.800 C 136.127 70.800,136.974 71.476,138.124 72.800 C 140.341 75.355,144.757 79.279,146.226 80.001 C 147.839 80.793,148.706 80.800,247.995 80.800 C 340.617 80.800,348.192 80.850,348.869 81.462 C 350.058 82.538,349.994 117.606,348.800 118.800 C 348.006 119.594,347.462 119.600,270.300 119.607 C 181.715 119.615,186.755 119.405,185.121 123.151 C 185.054 123.304,183.779 124.031,182.288 124.767 C 180.796 125.503,179.263 126.502,178.881 126.987 C 178.500 127.473,177.290 128.366,176.194 128.972 C 175.097 129.578,174.029 130.237,173.820 130.437 C 173.611 130.637,173.121 130.800,172.732 130.800 C 172.343 130.800,171.622 131.344,171.130 132.009 C 170.268 133.175,167.962 134.800,167.169 134.800 C 166.505 134.800,163.600 136.883,163.600 137.359 C 163.600 139.427,164.556 139.391,106.364 139.507 L 52.528 139.614 50.864 141.038 C 49.426 142.269,49.200 142.680,49.200 144.066 C 49.200 145.867,48.259 149.992,47.161 153.000 C 46.239 155.527,45.200 161.117,45.201 163.544 C 45.203 166.168,43.732 175.309,42.812 178.400 C 42.386 179.830,41.778 181.900,41.460 183.000 C 41.143 184.100,40.494 188.330,40.018 192.400 C 39.126 200.019,37.895 206.701,37.115 208.159 C 36.448 209.406,35.595 214.097,35.199 218.696 C 34.696 224.542,33.635 231.072,32.809 233.400 C 31.223 237.874,30.125 244.076,29.376 252.800 C 29.108 255.927,28.167 260.267,27.164 263.000 C 26.244 265.510,25.200 271.104,25.200 273.529 C 25.200 275.801,23.690 285.622,23.005 287.800 L 22.502 289.400 22.224 287.800 C 22.071 286.920,21.688 284.994,21.373 283.521 C 20.433 279.123,20.520 52.573,21.462 51.531 C 22.468 50.419,113.884 50.389,116.286 51.500 M190.864 129.198 C 190.129 129.372,188.858 130.208,188.039 131.057 C 186.544 132.606,186.105 132.875,182.822 134.248 C 180.858 135.070,179.200 136.520,179.200 137.418 C 179.200 137.738,178.930 138.000,178.600 138.000 C 178.270 138.000,178.000 138.164,178.000 138.365 C 178.000 138.566,177.260 138.855,176.356 139.007 C 175.120 139.216,174.251 139.756,172.852 141.185 C 171.829 142.230,170.544 143.218,169.996 143.380 C 167.006 144.264,165.321 145.444,164.018 147.567 C 163.355 148.647,159.176 148.742,110.400 148.780 C 83.030 148.802,60.717 148.978,59.852 149.178 C 55.579 150.170,54.381 153.260,53.796 164.800 C 53.487 170.897,52.996 173.623,51.864 175.539 C 50.448 177.934,49.592 181.867,49.214 187.715 C 48.764 194.673,47.916 202.000,47.560 202.000 C 46.133 202.000,44.256 211.243,43.634 221.327 C 43.288 226.940,43.125 227.889,42.187 229.727 C 40.322 233.381,39.589 236.631,39.191 242.996 C 38.650 251.667,37.958 256.694,37.195 257.513 C 35.610 259.214,34.202 266.418,33.777 275.001 C 33.483 280.950,32.967 283.746,31.826 285.579 C 30.384 287.897,29.523 291.843,29.180 297.715 C 28.786 304.445,27.930 312.000,27.560 312.000 C 26.133 312.000,24.256 321.244,23.634 331.333 C 23.275 337.152,23.146 337.866,22.035 340.133 C 18.612 347.120,19.216 350.013,24.331 351.133 C 27.304 351.785,347.615 351.809,350.199 351.158 C 351.164 350.916,352.652 350.119,353.506 349.387 L 355.060 348.058 355.719 342.729 C 356.081 339.798,356.471 335.060,356.585 332.200 C 356.783 327.200,357.476 323.313,358.358 322.250 C 359.489 320.888,360.447 316.249,361.011 309.400 C 361.337 305.440,361.768 300.251,361.968 297.870 C 362.184 295.288,362.553 293.269,362.881 292.870 C 364.851 290.473,365.818 285.397,366.402 274.400 C 366.773 267.394,367.419 263.382,368.358 262.250 C 369.489 260.888,370.447 256.249,371.011 249.400 C 371.337 245.440,371.768 240.251,371.968 237.870 C 372.184 235.288,372.553 233.269,372.881 232.870 C 374.851 230.473,375.818 225.397,376.402 214.400 C 376.773 207.394,377.419 203.382,378.358 202.250 C 379.489 200.888,380.447 196.249,381.011 189.400 C 381.337 185.440,381.768 180.251,381.968 177.870 C 382.184 175.288,382.553 173.269,382.881 172.870 C 384.851 170.473,385.818 165.397,386.402 154.400 C 386.773 147.394,387.419 143.382,388.358 142.250 C 389.037 141.432,390.387 136.781,390.658 134.324 C 391.006 131.169,389.342 129.454,385.546 129.058 C 381.981 128.685,192.456 128.821,190.864 129.198 M384.590 130.482 C 385.582 130.747,386.865 131.341,387.443 131.801 L 388.493 132.639 387.470 136.420 C 386.372 140.479,385.183 148.539,385.202 151.800 C 385.216 154.291,383.747 162.324,382.789 165.000 C 381.898 167.486,380.903 173.173,380.620 177.400 C 380.244 183.018,379.181 189.649,377.798 195.000 C 376.407 200.381,375.182 208.312,375.202 211.800 C 375.216 214.291,373.747 222.324,372.789 225.000 C 371.920 227.425,370.904 233.149,370.639 237.114 C 370.261 242.774,369.137 249.862,367.804 255.000 C 366.410 260.372,365.182 268.300,365.202 271.800 C 365.216 274.291,363.747 282.324,362.789 285.000 C 361.920 287.425,360.904 293.149,360.639 297.114 C 360.261 302.774,359.137 309.862,357.804 315.000 C 356.410 320.372,355.182 328.300,355.202 331.800 C 355.223 335.591,353.185 344.798,351.619 347.985 C 351.461 348.307,350.591 348.982,349.685 349.486 L 348.038 350.402 187.319 350.300 C 14.966 350.190,25.655 350.315,22.918 348.375 L 22.037 347.750 22.774 345.575 C 23.849 342.406,24.806 337.008,25.202 331.885 C 25.578 327.030,26.025 324.441,27.186 320.400 C 28.776 314.868,29.175 312.758,29.985 305.600 C 30.874 297.743,31.605 293.846,32.801 290.600 C 33.776 287.953,34.786 282.139,35.186 276.867 C 35.557 271.985,36.184 268.361,37.205 265.200 C 38.479 261.257,39.127 258.270,39.593 254.200 C 39.845 252.000,40.233 248.580,40.456 246.600 C 40.680 244.620,41.410 241.020,42.080 238.600 C 42.750 236.180,43.451 233.390,43.637 232.400 C 43.823 231.410,44.245 229.160,44.574 227.400 C 44.903 225.640,45.178 223.169,45.186 221.908 C 45.202 219.243,46.088 214.118,47.174 210.400 C 48.703 205.167,49.158 202.864,49.978 196.200 C 50.438 192.460,50.811 188.937,50.807 188.371 C 50.803 187.805,51.078 186.455,51.417 185.371 C 51.756 184.287,52.367 182.320,52.775 181.000 C 53.835 177.572,54.800 171.879,55.202 166.684 C 55.705 160.188,57.628 152.021,58.657 152.006 C 58.909 152.003,59.205 151.764,59.316 151.476 C 59.862 150.051,61.677 150.000,111.969 150.000 C 164.224 150.000,163.727 150.018,165.828 148.068 C 167.399 146.611,170.088 144.816,170.714 144.807 C 171.466 144.797,173.252 143.626,174.406 142.386 C 174.960 141.792,176.510 140.752,177.852 140.075 C 179.194 139.397,180.810 138.294,181.444 137.622 C 182.079 136.950,182.808 136.400,183.065 136.400 C 183.323 136.400,183.593 136.240,183.667 136.044 C 183.740 135.848,185.015 135.140,186.500 134.469 C 188.161 133.719,189.200 133.010,189.200 132.625 C 189.200 132.281,189.367 132.000,189.571 132.000 C 189.776 132.000,190.222 131.721,190.562 131.381 C 190.903 131.040,191.951 130.610,192.891 130.425 C 195.779 129.855,382.456 129.911,384.590 130.482 " stroke="none" fill="#84b4dc" fill-rule="evenodd"></path><path id="path4" d="M21.462 51.531 C 20.520 52.573,20.433 279.123,21.373 283.521 C 21.688 284.994,22.071 286.920,22.224 287.800 L 22.502 289.400 23.005 287.800 C 23.690 285.622,25.200 275.801,25.200 273.529 C 25.200 271.104,26.244 265.510,27.164 263.000 C 28.167 260.267,29.108 255.927,29.376 252.800 C 30.125 244.076,31.223 237.874,32.809 233.400 C 33.635 231.072,34.696 224.542,35.199 218.696 C 35.595 214.097,36.448 209.406,37.115 208.159 C 37.895 206.701,39.126 200.019,40.018 192.400 C 40.494 188.330,41.143 184.100,41.460 183.000 C 41.778 181.900,42.386 179.830,42.812 178.400 C 43.732 175.309,45.203 166.168,45.201 163.544 C 45.200 161.117,46.239 155.527,47.161 153.000 C 48.259 149.992,49.200 145.867,49.200 144.066 C 49.200 142.680,49.426 142.269,50.864 141.038 L 52.528 139.614 106.364 139.507 C 164.556 139.391,163.600 139.427,163.600 137.359 C 163.600 136.883,166.505 134.800,167.169 134.800 C 167.962 134.800,170.268 133.175,171.130 132.009 C 171.622 131.344,172.343 130.800,172.732 130.800 C 173.121 130.800,173.611 130.637,173.820 130.437 C 174.029 130.237,175.097 129.578,176.194 128.972 C 177.290 128.366,178.500 127.473,178.881 126.987 C 179.263 126.502,180.796 125.503,182.288 124.767 C 183.779 124.031,185.054 123.304,185.121 123.151 C 186.755 119.405,181.715 119.615,270.300 119.607 C 347.462 119.600,348.006 119.594,348.800 118.800 C 349.994 117.606,350.058 82.538,348.869 81.462 C 348.192 80.850,340.617 80.800,247.995 80.800 C 148.706 80.800,147.839 80.793,146.226 80.001 C 144.757 79.279,140.341 75.355,138.124 72.800 C 136.974 71.476,136.127 70.800,135.617 70.800 C 135.388 70.800,135.200 70.613,135.200 70.384 C 135.200 70.156,133.805 68.576,132.100 66.874 C 130.395 65.172,128.607 63.334,128.128 62.789 C 126.959 61.464,126.121 60.800,125.617 60.800 C 125.388 60.800,125.200 60.613,125.200 60.384 C 125.200 60.156,123.796 58.581,122.079 56.884 C 120.363 55.188,118.698 53.440,118.379 53.000 C 116.712 50.697,119.038 50.800,68.448 50.800 C 24.078 50.800,22.096 50.831,21.462 51.531 M115.721 53.400 C 116.469 54.170,117.288 54.800,117.540 54.800 C 117.793 54.800,118.000 54.984,118.000 55.209 C 118.000 55.730,124.286 62.000,124.809 62.000 C 125.024 62.000,125.203 62.225,125.207 62.500 C 125.215 63.110,126.942 64.800,127.556 64.800 C 127.800 64.800,128.000 64.984,128.000 65.209 C 128.000 65.730,134.286 72.000,134.809 72.000 C 135.024 72.000,135.203 72.225,135.207 72.500 C 135.215 73.110,136.942 74.800,137.556 74.800 C 137.800 74.800,138.000 74.997,138.000 75.237 C 138.000 76.041,143.134 80.644,144.676 81.223 C 145.980 81.712,160.822 81.810,247.304 81.901 L 348.408 82.008 348.304 100.104 L 348.200 118.200 268.800 118.424 C 216.544 118.572,188.840 118.789,187.761 119.059 C 185.697 119.577,184.074 120.732,183.755 121.911 C 183.472 122.955,182.467 123.600,181.121 123.600 C 180.077 123.600,176.074 126.141,175.738 127.017 C 175.618 127.329,174.684 127.972,173.660 128.446 C 172.637 128.921,171.376 129.505,170.857 129.745 C 170.338 129.985,169.384 130.951,168.738 131.891 C 167.884 133.131,167.288 133.600,166.565 133.600 C 164.841 133.600,161.254 135.834,160.715 137.243 C 160.284 138.370,158.841 138.400,105.450 138.406 C 64.104 138.411,52.639 138.520,51.294 138.922 C 49.333 139.509,48.000 141.462,48.000 143.750 C 48.000 144.493,47.734 145.323,47.408 145.593 C 45.610 147.085,44.101 154.139,43.769 162.600 C 43.520 168.941,42.942 172.217,41.794 173.800 C 40.385 175.742,39.304 181.150,38.795 188.800 C 38.082 199.533,38.004 200.138,37.241 200.800 C 35.473 202.333,34.112 208.838,33.768 217.400 C 33.511 223.787,32.905 227.520,31.963 228.532 C 30.633 229.960,29.518 234.684,29.162 240.400 C 28.577 249.806,27.937 254.934,27.242 255.800 C 25.359 258.146,24.108 264.137,23.777 272.400 C 23.531 278.531,22.760 283.636,22.358 281.800 C 22.213 281.140,22.073 229.165,22.047 166.300 L 22.000 52.000 68.181 52.000 L 114.361 52.000 115.721 53.400 M192.891 130.425 C 191.951 130.610,190.903 131.040,190.562 131.381 C 190.222 131.721,189.776 132.000,189.571 132.000 C 189.367 132.000,189.200 132.281,189.200 132.625 C 189.200 133.010,188.161 133.719,186.500 134.469 C 185.015 135.140,183.740 135.848,183.667 136.044 C 183.593 136.240,183.323 136.400,183.065 136.400 C 182.808 136.400,182.079 136.950,181.444 137.622 C 180.810 138.294,179.194 139.397,177.852 140.075 C 176.510 140.752,174.960 141.792,174.406 142.386 C 173.252 143.626,171.466 144.797,170.714 144.807 C 170.088 144.816,167.399 146.611,165.828 148.068 C 163.727 150.018,164.224 150.000,111.969 150.000 C 61.677 150.000,59.862 150.051,59.316 151.476 C 59.205 151.764,58.909 152.003,58.657 152.006 C 57.628 152.021,55.705 160.188,55.202 166.684 C 54.800 171.879,53.835 177.572,52.775 181.000 C 52.367 182.320,51.756 184.287,51.417 185.371 C 51.078 186.455,50.803 187.805,50.807 188.371 C 50.811 188.937,50.438 192.460,49.978 196.200 C 49.158 202.864,48.703 205.167,47.174 210.400 C 46.088 214.118,45.202 219.243,45.186 221.908 C 45.178 223.169,44.903 225.640,44.574 227.400 C 44.245 229.160,43.823 231.410,43.637 232.400 C 43.451 233.390,42.750 236.180,42.080 238.600 C 41.410 241.020,40.680 244.620,40.456 246.600 C 40.233 248.580,39.845 252.000,39.593 254.200 C 39.127 258.270,38.479 261.257,37.205 265.200 C 36.184 268.361,35.557 271.985,35.186 276.867 C 34.786 282.139,33.776 287.953,32.801 290.600 C 31.605 293.846,30.874 297.743,29.985 305.600 C 29.175 312.758,28.776 314.868,27.186 320.400 C 26.025 324.441,25.578 327.030,25.202 331.885 C 24.806 337.008,23.849 342.406,22.774 345.575 L 22.037 347.750 22.918 348.375 C 25.655 350.315,14.966 350.190,187.319 350.300 L 348.038 350.402 349.685 349.486 C 350.591 348.982,351.461 348.307,351.619 347.985 C 353.185 344.798,355.223 335.591,355.202 331.800 C 355.182 328.300,356.410 320.372,357.804 315.000 C 359.137 309.862,360.261 302.774,360.639 297.114 C 360.904 293.149,361.920 287.425,362.789 285.000 C 363.747 282.324,365.216 274.291,365.202 271.800 C 365.182 268.300,366.410 260.372,367.804 255.000 C 369.137 249.862,370.261 242.774,370.639 237.114 C 370.904 233.149,371.920 227.425,372.789 225.000 C 373.747 222.324,375.216 214.291,375.202 211.800 C 375.182 208.312,376.407 200.381,377.798 195.000 C 379.181 189.649,380.244 183.018,380.620 177.400 C 380.903 173.173,381.898 167.486,382.789 165.000 C 383.747 162.324,385.216 154.291,385.202 151.800 C 385.183 148.539,386.372 140.479,387.470 136.420 L 388.493 132.639 387.443 131.801 C 386.865 131.341,385.582 130.747,384.590 130.482 C 382.456 129.911,195.779 129.855,192.891 130.425 M384.567 131.586 C 386.540 132.431,386.692 132.821,385.985 135.203 C 385.756 135.971,385.396 138.670,385.184 141.200 C 384.386 150.728,383.546 156.237,382.226 160.600 C 380.877 165.060,379.798 171.938,379.204 179.865 C 378.829 184.882,378.206 188.257,377.187 190.800 C 376.226 193.199,375.309 198.178,375.015 202.600 C 374.559 209.454,373.317 217.369,372.095 221.200 C 370.889 224.983,369.870 231.467,369.204 239.600 C 368.799 244.545,367.927 249.441,367.215 250.773 C 366.510 252.090,365.202 258.538,365.189 260.761 C 365.165 265.024,363.279 277.469,362.093 281.200 C 360.890 284.980,359.869 291.485,359.204 299.600 C 358.799 304.545,357.927 309.441,357.215 310.773 C 356.526 312.060,355.200 318.528,355.200 320.602 C 355.200 324.803,353.190 337.878,352.008 341.364 C 351.344 343.324,350.800 345.619,350.800 346.464 C 350.800 347.502,350.621 348.000,350.249 348.000 C 349.946 348.000,349.474 348.270,349.200 348.600 C 348.369 349.601,27.440 349.502,25.424 348.500 C 24.474 348.028,24.089 347.605,24.242 347.200 C 24.702 345.984,25.203 342.414,25.957 335.000 C 26.534 329.318,27.002 326.592,27.812 324.200 C 29.424 319.439,30.369 314.441,30.801 308.400 C 31.014 305.430,31.370 302.371,31.594 301.603 C 31.817 300.834,32.000 299.699,32.000 299.081 C 32.000 298.462,32.349 297.190,32.776 296.253 C 34.117 293.309,35.157 288.062,35.956 280.200 C 36.522 274.643,37.015 271.740,37.791 269.400 C 39.193 265.174,40.369 259.359,40.623 255.400 C 40.981 249.798,42.024 243.053,42.787 241.400 C 44.202 238.336,44.837 235.773,45.218 231.600 C 46.134 221.561,46.772 217.278,47.813 214.200 C 49.425 209.435,50.370 204.438,50.801 198.400 C 51.014 195.430,51.370 192.371,51.594 191.603 C 51.817 190.834,52.001 189.664,52.002 189.003 C 52.004 188.341,52.290 187.260,52.638 186.600 C 53.877 184.252,54.816 180.540,55.218 176.400 C 56.219 166.084,56.805 162.303,57.926 158.924 C 58.569 156.986,59.214 154.740,59.359 153.932 C 59.970 150.547,55.635 150.800,113.129 150.800 L 163.812 150.800 165.406 149.960 C 166.283 149.498,167.540 148.618,168.200 148.005 C 168.860 147.392,170.570 146.262,172.000 145.494 C 173.430 144.726,175.373 143.356,176.317 142.449 C 177.315 141.491,178.420 140.800,178.956 140.800 C 179.827 140.800,180.244 140.522,182.900 138.169 C 183.505 137.633,185.215 136.551,186.700 135.766 C 188.185 134.981,190.072 133.643,190.892 132.792 C 192.858 130.757,182.993 130.949,289.267 130.870 C 381.362 130.801,382.761 130.812,384.567 131.586 " stroke="none" fill="#94bce4" fill-rule="evenodd"></path></g></svg>