<?xml version="1.0" encoding="UTF-8"?>
<svg xmlns="http://www.w3.org/2000/svg" xmlns:xlink="http://www.w3.org/1999/xlink" viewBox="0 0 40 40" version="1.1" width="40px" height="40px">
<g id="surface1">
<path style=" fill:#B6DCFE;" d="M 27.953125 20.5 L 27.742188 18.398438 L 27.390625 18.320313 C 25.882813 17.988281 24.527344 17.207031 23.472656 16.054688 L 23.226563 15.785156 L 21.296875 16.65625 L 20.25 14.84375 L 21.960938 13.613281 L 21.851563 13.269531 C 21.617188 12.53125 21.5 11.769531 21.5 11 C 21.5 10.230469 21.617188 9.46875 21.851563 8.730469 L 21.960938 8.386719 L 20.25 7.15625 L 21.296875 5.34375 L 23.226563 6.214844 L 23.472656 5.945313 C 24.527344 4.792969 25.878906 4.007813 27.386719 3.679688 L 27.742188 3.601563 L 27.953125 1.5 L 30.046875 1.5 L 30.257813 3.601563 L 30.609375 3.679688 C 32.117188 4.011719 33.472656 4.792969 34.527344 5.945313 L 34.773438 6.214844 L 36.703125 5.34375 L 37.75 7.15625 L 36.039063 8.386719 L 36.148438 8.730469 C 36.382813 9.46875 36.5 10.230469 36.5 11 C 36.5 11.769531 36.382813 12.53125 36.148438 13.269531 L 36.039063 13.613281 L 37.75 14.84375 L 36.703125 16.65625 L 34.773438 15.785156 L 34.527344 16.054688 C 33.472656 17.207031 32.121094 17.992188 30.613281 18.320313 L 30.257813 18.398438 L 30.046875 20.5 Z M 29 6.5 C 26.519531 6.5 24.5 8.519531 24.5 11 C 24.5 13.480469 26.519531 15.5 29 15.5 C 31.480469 15.5 33.5 13.480469 33.5 11 C 33.5 8.519531 31.480469 6.5 29 6.5 Z "/>
<path style=" fill:#4788C7;" d="M 29.59375 2 L 29.722656 3.289063 L 29.796875 4.011719 L 30.503906 4.164063 C 31.910156 4.472656 33.175781 5.207031 34.160156 6.28125 L 34.648438 6.816406 L 35.308594 6.519531 L 36.496094 5.984375 L 37.09375 7.015625 L 36.042969 7.769531 L 35.453125 8.191406 L 35.671875 8.882813 C 35.890625 9.570313 36 10.28125 36 11 C 36 11.71875 35.890625 12.429688 35.671875 13.117188 L 35.453125 13.808594 L 36.042969 14.230469 L 37.09375 14.984375 L 36.496094 16.015625 L 35.308594 15.480469 L 34.648438 15.183594 L 34.160156 15.71875 C 33.175781 16.792969 31.910156 17.527344 30.503906 17.835938 L 29.796875 17.988281 L 29.722656 18.710938 L 29.59375 20 L 28.40625 20 L 28.277344 18.710938 L 28.203125 17.988281 L 27.496094 17.835938 C 26.089844 17.527344 24.824219 16.792969 23.839844 15.71875 L 23.351563 15.183594 L 22.691406 15.480469 L 21.503906 16.015625 L 20.90625 14.984375 L 21.957031 14.230469 L 22.546875 13.808594 L 22.328125 13.117188 C 22.109375 12.429688 22 11.71875 22 11 C 22 10.28125 22.109375 9.570313 22.328125 8.882813 L 22.546875 8.191406 L 21.957031 7.769531 L 20.90625 7.015625 L 21.503906 5.984375 L 22.691406 6.519531 L 23.351563 6.816406 L 23.839844 6.28125 C 24.824219 5.207031 26.089844 4.472656 27.496094 4.164063 L 28.203125 4.011719 L 28.277344 3.289063 L 28.40625 2 L 29.59375 2 M 29 16 C 31.757813 16 34 13.757813 34 11 C 34 8.242188 31.757813 6 29 6 C 26.242188 6 24 8.242188 24 11 C 24 13.757813 26.242188 16 29 16 M 30.5 1 L 27.5 1 L 27.28125 3.191406 C 25.640625 3.550781 24.195313 4.414063 23.101563 5.609375 L 21.089844 4.699219 L 19.589844 7.300781 L 21.375 8.582031 C 21.132813 9.34375 21 10.15625 21 11 C 21 11.84375 21.132813 12.65625 21.375 13.417969 L 19.589844 14.699219 L 21.089844 17.300781 L 23.101563 16.390625 C 24.195313 17.585938 25.640625 18.449219 27.28125 18.808594 L 27.5 21 L 30.5 21 L 30.71875 18.808594 C 32.359375 18.449219 33.804688 17.585938 34.898438 16.390625 L 36.910156 17.300781 L 38.410156 14.699219 L 36.625 13.417969 C 36.867188 12.65625 37 11.84375 37 11 C 37 10.15625 36.867188 9.34375 36.625 8.582031 L 38.410156 7.300781 L 36.910156 4.699219 L 34.898438 5.609375 C 33.804688 4.414063 32.359375 3.550781 30.71875 3.191406 Z M 29 15 C 26.789063 15 25 13.210938 25 11 C 25 8.789063 26.789063 7 29 7 C 31.210938 7 33 8.789063 33 11 C 33 13.210938 31.210938 15 29 15 Z "/>
<path style=" fill:#DFF0FE;" d="M 11.953125 38.5 L 11.632813 35.300781 L 11.292969 35.214844 C 9.675781 34.808594 8.210938 33.960938 7.050781 32.769531 L 6.808594 32.519531 L 3.882813 33.839844 L 2.335938 31.160156 L 4.941406 29.285156 L 4.847656 28.949219 C 4.617188 28.132813 4.5 27.3125 4.5 26.5 C 4.5 25.6875 4.617188 24.867188 4.847656 24.050781 L 4.941406 23.714844 L 2.335938 21.839844 L 3.882813 19.160156 L 6.808594 20.480469 L 7.050781 20.230469 C 8.210938 19.039063 9.675781 18.191406 11.292969 17.785156 L 11.632813 17.699219 L 11.953125 14.5 L 15.046875 14.5 L 15.367188 17.699219 L 15.707031 17.785156 C 17.324219 18.191406 18.789063 19.039063 19.949219 20.230469 L 20.195313 20.480469 L 23.121094 19.160156 L 24.667969 21.839844 L 22.058594 23.714844 L 22.15625 24.050781 C 22.382813 24.867188 22.5 25.691406 22.5 26.5 C 22.5 27.308594 22.382813 28.132813 22.15625 28.949219 L 22.058594 29.285156 L 24.667969 31.160156 L 23.121094 33.839844 L 20.195313 32.519531 L 19.949219 32.769531 C 18.789063 33.960938 17.324219 34.808594 15.707031 35.214844 L 15.367188 35.300781 L 15.046875 38.5 Z M 13.5 21.5 C 10.742188 21.5 8.5 23.742188 8.5 26.5 C 8.5 29.257813 10.742188 31.5 13.5 31.5 C 16.257813 31.5 18.5 29.257813 18.5 26.5 C 18.5 23.742188 16.257813 21.5 13.5 21.5 Z "/>
<path style=" fill:#4788C7;" d="M 14.59375 15 L 14.835938 17.398438 L 14.90625 18.097656 L 15.585938 18.269531 C 17.109375 18.65625 18.496094 19.453125 19.589844 20.578125 L 20.078125 21.078125 L 20.71875 20.792969 L 22.910156 19.800781 L 24.007813 21.699219 L 22.050781 23.105469 L 21.480469 23.515625 L 21.671875 24.1875 C 21.890625 24.957031 22 25.734375 22 26.5 C 22 27.265625 21.890625 28.042969 21.671875 28.8125 L 21.480469 29.488281 L 22.050781 29.894531 L 24.007813 31.300781 L 22.910156 33.199219 L 20.71875 32.210938 L 20.078125 31.921875 L 19.589844 32.425781 C 18.496094 33.550781 17.109375 34.347656 15.585938 34.730469 L 14.90625 34.902344 L 14.835938 35.601563 L 14.59375 38 L 12.40625 38 L 12.164063 35.601563 L 12.09375 34.902344 L 11.414063 34.730469 C 9.890625 34.34375 8.503906 33.546875 7.410156 32.421875 L 6.921875 31.921875 L 6.28125 32.207031 L 4.089844 33.199219 L 2.992188 31.300781 L 4.949219 29.894531 L 5.519531 29.484375 L 5.328125 28.8125 C 5.109375 28.042969 5 27.265625 5 26.5 C 5 25.734375 5.109375 24.957031 5.328125 24.1875 L 5.519531 23.511719 L 4.949219 23.105469 L 2.992188 21.699219 L 4.089844 19.800781 L 6.28125 20.789063 L 6.921875 21.078125 L 7.410156 20.574219 C 8.503906 19.449219 9.890625 18.652344 11.414063 18.269531 L 12.09375 18.097656 L 12.164063 17.398438 L 12.40625 15 L 14.59375 15 M 13.5 32 C 16.53125 32 19 29.53125 19 26.5 C 19 23.46875 16.53125 21 13.5 21 C 10.46875 21 8 23.46875 8 26.5 C 8 29.53125 10.46875 32 13.5 32 M 15.5 14 L 11.5 14 L 11.171875 17.300781 C 9.441406 17.738281 7.898438 18.640625 6.695313 19.882813 L 3.675781 18.519531 L 1.675781 21.984375 L 4.363281 23.917969 C 4.132813 24.738281 4 25.601563 4 26.5 C 4 27.398438 4.132813 28.261719 4.363281 29.085938 L 1.675781 31.019531 L 3.675781 34.480469 L 6.695313 33.121094 C 7.898438 34.359375 9.441406 35.265625 11.171875 35.699219 L 11.5 39 L 15.5 39 L 15.828125 35.699219 C 17.558594 35.261719 19.101563 34.359375 20.308594 33.117188 L 23.324219 34.480469 L 25.324219 31.015625 L 22.636719 29.082031 C 22.867188 28.261719 23 27.398438 23 26.5 C 23 25.601563 22.867188 24.738281 22.636719 23.914063 L 25.324219 21.980469 L 23.324219 18.519531 L 20.304688 19.878906 C 19.101563 18.640625 17.558594 17.738281 15.828125 17.300781 Z M 13.5 31 C 11.015625 31 9 28.984375 9 26.5 C 9 24.015625 11.015625 22 13.5 22 C 15.984375 22 18 24.015625 18 26.5 C 18 28.984375 15.984375 31 13.5 31 Z "/>
</g>
</svg>
