<?xml version="1.0" standalone="no"?>
<!DOCTYPE svg PUBLIC "-//W3C//DTD SVG 20010904//EN"
 "http://www.w3.org/TR/2001/REC-SVG-20010904/DTD/svg10.dtd">
<svg version="1.0" xmlns="http://www.w3.org/2000/svg"
 width="100" height="100" viewBox="0 0 250.000000 282.000000"
 preserveAspectRatio="xMidYMid meet">
<g transform="translate(0.000000,282.000000) scale(0.100000,-0.100000)"
fill="#3f51b5" stroke="none">
<path d="M1100 2813 c-355 -69 -640 -282 -797 -593 -180 -356 -141 -809 95
-1126 280 -376 725 -532 1160 -408 365 103 651 398 755 778 19 70 22 106 22
271 0 165 -3 201 -22 271 -53 194 -150 362 -288 499 -133 134 -288 226 -472
281 -78 24 -108 27 -258 30 -93 1 -181 0 -195 -3z m375 -278 c242 -65 456
-257 546 -489 137 -354 28 -750 -266 -973 -134 -101 -275 -151 -451 -160 -244
-12 -451 71 -622 251 -305 321 -305 821 1 1142 117 124 262 205 427 240 82 17
282 11 365 -11z"/>
<path d="M1183 2304 c-23 -26 -23 -28 -23 -357 l0 -332 238 -238 c180 -180
243 -237 262 -237 35 0 80 47 80 84 0 27 -28 59 -210 241 l-210 210 0 306 0
306 -23 21 c-33 31 -85 29 -114 -4z"/>
<path d="M417 544 c-4 -4 -7 -94 -7 -201 l0 -193 30 0 30 0 0 90 0 90 85 0 85
0 0 -90 0 -90 30 0 30 0 -2 198 -3 197 -25 0 c-24 0 -25 -2 -28 -82 l-3 -83
-84 0 -84 0 -3 83 c-3 74 -5 82 -23 85 -12 2 -24 0 -28 -4z"/>
<path d="M1177 514 c-4 -4 -7 -22 -7 -40 0 -26 -4 -33 -22 -36 -31 -4 -31 -42
0 -46 21 -3 22 -8 22 -96 0 -78 3 -97 20 -119 38 -48 120 -43 120 9 0 24 -2
25 -31 19 -43 -10 -49 3 -49 102 l0 82 38 3 c30 2 38 7 40 26 3 20 -1 22 -37
22 -39 0 -40 1 -43 38 -2 28 -8 38 -23 40 -12 2 -24 0 -28 -4z"/>
<path d="M953 430 c-67 -40 -52 -107 32 -151 60 -30 72 -63 30 -79 -19 -7 -35
-6 -62 5 -29 12 -38 13 -45 3 -12 -20 -10 -26 18 -44 58 -38 160 -11 175 47
11 46 -9 77 -67 104 -60 28 -73 47 -53 71 13 15 35 15 87 -1 19 -6 22 -4 22
17 0 47 -80 63 -137 28z"/>
<path d="M1425 440 c-97 -40 -115 -218 -28 -276 34 -22 110 -22 151 0 67 35
89 144 48 225 -26 49 -113 75 -171 51z m108 -68 c12 -11 17 -30 17 -71 0 -74
-18 -101 -69 -101 -48 0 -72 25 -78 82 -9 93 67 145 130 90z"/>
<path d="M1756 429 c-21 -17 -26 -18 -26 -5 0 10 -9 16 -25 16 l-25 0 0 -145
0 -145 30 0 30 0 0 98 c0 92 2 100 24 121 18 17 32 22 50 17 19 -5 26 -2 31
14 15 47 -42 66 -89 29z"/>
<path d="M1878 443 c-10 -2 -18 -6 -18 -9 0 -11 94 -260 101 -268 4 -4 -1 -28
-12 -53 -26 -61 -25 -73 10 -73 23 0 31 6 39 28 94 258 132 366 132 369 0 2
-14 3 -32 1 -31 -3 -32 -6 -66 -107 l-35 -105 -34 100 c-19 54 -39 105 -45
112 -11 12 -12 13 -40 5z"/>
<path d="M785 428 c-3 -8 -4 -72 -3 -144 l3 -129 30 0 30 0 0 140 0 140 -28 3
c-16 2 -29 -2 -32 -10z"/>
</g>
</svg>
