<?xml version="1.0" standalone="no"?>
<!DOCTYPE svg PUBLIC "-//W3C//DTD SVG 20010904//EN"
 "http://www.w3.org/TR/2001/REC-SVG-20010904/DTD/svg10.dtd">
<svg version="1.0" xmlns="http://www.w3.org/2000/svg"
 width="80.000000pt" height="80.000000pt" viewBox="0 0 80.000000 80.000000"
 preserveAspectRatio="xMidYMid meet">
<metadata>
Created by potrace 1.15, written by Peter Selinger 2001-2017
</metadata>
<g transform="translate(0.000000,80.000000) scale(0.100000,-0.100000)"
fill="#000000" stroke="none">
<path d="M246 523 c-43 -131 -83 -249 -88 -263 -6 -14 -16 -42 -24 -62 l-13
-38 70 0 c47 0 71 4 74 13 2 6 11 38 20 70 l16 57 99 0 99 0 16 -58 c9 -31 18
-63 20 -69 3 -9 27 -13 73 -13 l70 0 -45 132 c-25 73 -47 140 -49 148 -2 8
-25 83 -52 165 l-49 150 -80 3 -79 3 -78 -238z m308 -48 c48 -145 89 -271 92
-280 5 -12 -3 -15 -43 -15 l-50 0 -19 68 -20 67 -114 0 -114 0 -20 -67 -19
-68 -48 0 c-27 0 -49 1 -49 3 0 5 166 498 179 530 10 26 14 27 75 27 l64 0 86
-265z"/>
<path d="M387 663 c-7 -12 -77 -260 -77 -273 0 -6 34 -10 90 -10 65 0 90 3 90
13 0 6 -17 70 -38 141 -34 117 -51 152 -65 129z m42 -120 c13 -43 27 -91 32
-107 5 -16 9 -31 9 -32 0 -2 -31 -4 -70 -4 -38 0 -70 2 -70 4 0 1 4 16 9 32 5
16 19 64 32 107 12 42 26 77 29 77 3 0 17 -35 29 -77z"/>
<path d="M40 80 l0 -40 360 0 360 0 0 40 0 40 -360 0 -360 0 0 -40z m700 0 c0
-20 -7 -20 -340 -20 -333 0 -340 0 -340 20 0 20 7 20 340 20 333 0 340 0 340
-20z"/>
</g>
</svg>
