<svg id="svg" xmlns="http://www.w3.org/2000/svg" xmlns:xlink="http://www.w3.org/1999/xlink" width="400" height="400" viewBox="0, 0, 400,400"><g id="svgg"><path id="path0" d="M193.053 8.280 C 192.914 8.420,192.800 9.493,192.800 10.667 L 192.800 12.800 191.174 12.800 C 188.514 12.800,188.000 13.289,188.000 15.814 L 188.000 18.000 186.014 18.000 C 183.699 18.000,183.296 18.471,182.924 21.611 C 182.726 23.288,182.556 23.602,181.844 23.613 C 179.811 23.645,178.000 26.990,178.000 30.713 C 178.000 32.931,177.776 33.093,175.100 32.821 C 174.715 32.782,174.397 32.986,174.394 33.275 C 174.389 33.703,174.327 33.705,174.059 33.281 C 173.796 32.867,173.626 32.887,173.216 33.381 C 172.795 33.888,172.801 34.001,173.251 34.006 C 173.702 34.011,173.705 34.072,173.269 34.349 C 172.977 34.534,172.774 34.936,172.817 35.243 C 173.155 37.655,172.910 37.954,170.500 38.080 L 168.200 38.200 168.082 40.451 L 167.963 42.702 166.024 42.959 C 163.669 43.271,163.241 43.737,162.935 46.317 C 162.713 48.192,162.600 48.357,161.149 48.927 C 159.157 49.710,158.000 52.174,158.000 55.633 L 158.000 58.000 156.100 58.046 C 155.055 58.072,153.930 58.117,153.600 58.146 C 153.158 58.186,152.968 58.806,152.880 60.500 L 152.760 62.800 151.154 62.800 C 148.515 62.800,148.000 63.293,148.000 65.814 L 148.000 68.000 146.014 68.000 C 143.699 68.000,143.296 68.471,142.924 71.611 C 142.726 73.288,142.556 73.602,141.844 73.613 C 139.811 73.645,138.000 76.990,138.000 80.713 C 138.000 82.897,137.661 83.156,135.243 82.817 C 134.936 82.774,134.534 82.977,134.349 83.269 C 134.072 83.705,134.011 83.702,134.006 83.251 C 134.001 82.801,133.888 82.795,133.381 83.216 C 132.887 83.626,132.867 83.796,133.281 84.059 C 133.705 84.327,133.703 84.389,133.275 84.394 C 132.986 84.397,132.782 84.715,132.821 85.100 C 133.092 87.765,132.946 87.952,130.500 88.080 L 128.200 88.200 128.082 90.451 L 127.963 92.702 126.024 92.959 C 123.669 93.271,123.241 93.737,122.935 96.317 C 122.713 98.192,122.600 98.357,121.149 98.927 C 118.764 99.864,118.000 102.024,118.000 107.833 L 118.000 112.400 143.000 112.400 L 168.000 112.400 168.000 170.369 L 168.000 228.338 166.659 228.781 C 163.374 229.865,162.835 232.520,162.802 247.777 C 162.790 253.264,162.724 257.809,162.656 257.877 C 162.588 257.945,161.791 258.030,160.885 258.065 C 158.065 258.176,158.089 258.123,158.033 264.313 C 158.005 267.485,157.898 268.055,157.300 268.232 C 153.868 269.247,153.346 270.115,152.926 275.500 C 152.724 278.105,152.651 278.183,150.586 278.027 C 149.578 277.951,147.909 279.659,148.014 280.660 C 148.057 281.067,148.071 282.876,148.046 284.681 L 148.000 287.962 145.500 288.081 L 143.000 288.200 142.917 290.350 C 142.817 292.921,142.764 292.988,140.948 292.866 C 138.308 292.688,138.000 292.977,138.000 295.627 L 138.000 298.000 135.627 298.000 C 133.042 298.000,132.659 298.368,132.813 300.708 C 132.944 302.697,132.882 302.756,130.500 302.880 L 128.200 303.000 128.081 305.500 L 127.962 308.000 124.681 308.046 C 122.876 308.071,121.067 308.057,120.660 308.014 C 119.659 307.909,117.951 309.578,118.027 310.586 C 118.183 312.650,118.105 312.723,115.500 312.931 C 110.234 313.349,108.997 313.943,108.562 316.259 C 108.233 318.017,108.408 317.956,103.449 318.029 C 98.558 318.100,98.166 318.304,98.067 320.828 C 98.031 321.766,97.942 322.591,97.871 322.662 C 97.800 322.733,93.030 322.807,87.271 322.827 C 77.768 322.859,76.799 322.924,76.794 323.531 C 76.789 324.054,76.713 324.083,76.447 323.662 C 75.321 321.885,69.656 324.005,68.828 326.514 L 68.340 327.995 38.270 328.097 L 8.200 328.200 8.200 360.200 L 8.200 392.200 59.439 392.200 C 115.472 392.200,111.994 392.355,112.006 389.851 C 112.017 387.677,112.169 387.622,118.318 387.576 C 122.357 387.547,124.002 387.400,124.006 387.067 C 124.010 386.793,124.165 386.842,124.383 387.185 C 124.956 388.092,126.897 387.239,127.378 385.869 C 127.682 385.007,127.638 384.669,127.185 384.383 C 126.787 384.131,126.760 384.010,127.100 384.006 C 127.375 384.003,127.600 383.664,127.600 383.254 C 127.600 382.565,128.082 382.492,133.805 382.318 C 140.889 382.103,142.000 381.644,142.000 378.930 L 142.000 377.600 144.380 377.600 C 149.798 377.600,152.000 376.551,152.000 373.971 C 152.000 372.327,152.391 372.117,154.943 372.386 C 157.078 372.612,157.600 372.102,157.600 369.792 L 157.600 367.600 159.900 367.580 C 165.978 367.526,167.476 367.098,167.065 365.528 C 166.961 365.128,167.058 364.800,167.283 364.800 C 167.509 364.800,167.612 364.264,167.515 363.600 C 167.324 362.304,167.397 362.268,170.030 362.387 C 171.770 362.465,172.491 361.712,172.392 359.920 C 172.266 357.642,172.263 357.645,174.900 357.519 L 177.400 357.400 177.519 354.900 L 177.638 352.400 179.656 352.400 C 181.068 352.400,181.979 352.160,182.691 351.600 C 183.250 351.160,183.920 350.800,184.179 350.800 C 184.686 350.800,186.084 349.056,186.524 347.875 C 186.673 347.476,186.980 347.264,187.207 347.404 C 187.434 347.545,187.594 347.511,187.563 347.330 C 187.409 346.445,187.712 345.996,189.001 345.200 C 189.771 344.723,190.506 343.916,190.635 343.405 C 190.763 342.894,191.213 342.385,191.634 342.275 C 192.274 342.108,192.400 341.706,192.400 339.837 L 192.400 337.600 194.400 337.550 C 195.500 337.523,196.625 337.478,196.900 337.450 C 197.227 337.417,197.441 336.535,197.519 334.900 L 197.638 332.400 200.200 332.400 L 202.762 332.400 202.881 334.900 L 203.000 337.400 205.500 337.519 L 208.000 337.638 208.000 340.019 C 208.000 341.691,208.153 342.400,208.514 342.400 C 208.796 342.400,209.343 342.934,209.728 343.586 C 210.113 344.238,210.962 345.087,211.614 345.472 C 212.722 346.126,212.979 346.517,212.837 347.330 C 212.806 347.511,212.938 347.562,213.132 347.442 C 213.325 347.323,213.825 347.936,214.242 348.804 C 214.783 349.931,215.430 350.557,216.500 350.989 C 217.325 351.321,218.000 351.775,218.000 351.997 C 218.000 352.223,219.054 352.400,220.400 352.400 L 222.800 352.400 222.850 354.400 C 222.878 355.500,222.923 356.625,222.950 356.900 C 222.983 357.227,223.865 357.441,225.500 357.519 L 228.000 357.638 228.000 359.570 C 228.000 361.306,228.448 362.269,229.300 362.366 C 229.465 362.385,230.320 362.400,231.200 362.400 C 232.692 362.400,232.800 362.477,232.800 363.540 C 232.800 367.061,233.617 367.586,239.100 367.595 L 242.800 367.600 242.800 369.424 C 242.800 370.776,242.929 371.170,243.300 370.947 C 243.640 370.743,243.624 370.863,243.251 371.323 C 242.949 371.695,242.859 372.026,243.051 372.057 C 243.435 372.120,246.137 372.313,247.400 372.368 C 248.058 372.396,248.203 372.688,248.220 374.007 C 248.245 376.075,249.125 376.955,251.193 376.980 C 252.076 376.991,252.798 377.135,252.799 377.300 C 252.799 377.465,253.950 377.600,255.355 377.600 L 257.911 377.600 258.160 378.930 C 258.524 380.866,259.829 382.116,261.269 381.905 C 261.910 381.810,262.528 381.883,262.641 382.067 C 262.755 382.250,265.087 382.400,267.824 382.400 L 272.800 382.400 272.800 384.200 C 272.800 387.416,273.254 387.600,281.200 387.600 C 288.584 387.600,288.205 387.477,288.026 389.821 C 287.834 392.346,283.930 392.174,341.800 392.188 L 392.200 392.200 392.200 360.200 L 392.200 328.200 362.160 328.097 L 332.119 327.995 331.508 326.438 C 330.659 324.276,329.396 323.567,326.237 323.476 C 324.791 323.434,323.606 323.265,323.604 323.100 C 323.598 322.610,321.001 322.759,320.480 323.280 C 320.107 323.653,320.000 323.647,320.000 323.252 C 320.000 322.893,319.325 322.761,317.700 322.804 C 316.435 322.838,312.430 322.849,308.800 322.830 L 302.200 322.794 302.125 320.755 C 302.022 317.940,302.359 318.089,295.950 318.033 L 292.100 318.000 291.858 316.790 C 291.554 315.272,289.921 313.600,288.742 313.600 C 287.868 313.600,287.865 313.614,288.624 314.201 C 289.290 314.717,289.299 314.767,288.689 314.554 C 288.298 314.417,287.796 313.967,287.575 313.553 C 287.250 312.947,286.713 312.800,284.818 312.800 C 282.471 312.800,281.439 311.741,281.940 309.850 C 282.110 309.213,280.657 307.962,279.821 308.026 C 279.370 308.060,277.515 308.069,275.700 308.044 L 272.400 308.000 272.400 306.033 C 272.400 303.009,272.229 302.800,269.757 302.800 L 267.600 302.800 267.600 301.033 C 267.600 298.189,267.423 298.000,264.757 298.000 C 262.196 298.000,262.239 298.049,262.392 295.280 C 262.491 293.488,261.770 292.735,260.030 292.813 C 257.634 292.921,257.647 292.933,257.520 290.500 L 257.400 288.200 254.939 288.082 L 252.478 287.964 252.257 284.282 C 252.135 282.257,252.003 280.330,251.964 280.000 C 251.827 278.835,250.727 278.027,249.349 278.079 C 247.648 278.143,247.612 278.102,247.537 275.966 C 247.503 274.995,247.278 274.068,247.037 273.906 C 246.733 273.701,246.746 273.610,247.081 273.606 C 247.423 273.602,247.374 273.222,246.914 272.300 C 246.557 271.585,246.151 270.730,246.011 270.400 C 245.871 270.070,245.001 269.445,244.078 269.010 C 242.522 268.278,242.399 268.104,242.384 266.610 C 242.307 259.089,241.982 258.105,239.563 258.072 C 238.657 258.059,237.847 257.980,237.763 257.896 C 237.679 257.812,237.593 253.121,237.573 247.472 C 237.553 241.822,237.402 237.200,237.237 237.200 C 237.073 237.200,237.017 236.666,237.113 236.014 C 237.574 232.869,236.024 229.534,233.752 228.784 L 232.400 228.338 232.400 170.372 L 232.400 112.406 257.300 112.303 L 282.200 112.200 282.200 107.400 C 282.200 101.678,281.517 99.780,279.175 98.992 C 277.905 98.564,277.778 98.368,277.494 96.398 C 277.102 93.670,276.739 93.273,274.358 92.957 C 272.424 92.700,272.400 92.679,272.395 91.248 C 272.383 88.298,272.141 88.000,269.753 88.000 C 267.495 88.000,267.242 87.678,267.583 85.243 C 267.626 84.936,267.423 84.534,267.131 84.349 C 266.695 84.072,266.698 84.011,267.149 84.006 C 267.599 84.001,267.605 83.888,267.184 83.381 C 266.774 82.887,266.604 82.867,266.341 83.281 C 266.134 83.608,266.010 83.633,266.006 83.347 C 266.003 83.088,265.297 82.885,264.358 82.872 C 262.322 82.844,262.434 82.983,262.348 80.377 C 262.226 76.730,260.388 73.600,258.367 73.600 C 257.880 73.600,257.651 73.093,257.478 71.631 C 257.124 68.637,256.567 68.000,254.304 68.000 L 252.400 68.000 252.400 66.029 C 252.400 63.533,251.717 62.800,249.391 62.800 L 247.640 62.800 247.520 60.500 L 247.400 58.200 245.005 58.071 C 242.136 57.917,242.512 58.324,242.300 55.143 C 242.070 51.694,241.011 49.610,239.175 48.992 C 237.905 48.564,237.778 48.368,237.494 46.398 C 237.102 43.670,236.739 43.273,234.358 42.957 C 232.424 42.700,232.400 42.679,232.395 41.248 C 232.383 38.298,232.141 38.000,229.753 38.000 C 227.495 38.000,227.242 37.678,227.583 35.243 C 227.626 34.936,227.423 34.534,227.131 34.349 C 226.695 34.072,226.698 34.011,227.149 34.006 C 227.599 34.001,227.605 33.888,227.184 33.381 C 226.774 32.887,226.604 32.867,226.341 33.281 C 226.134 33.608,226.010 33.633,226.006 33.347 C 226.003 33.088,225.297 32.885,224.358 32.872 C 222.322 32.844,222.434 32.983,222.348 30.377 C 222.226 26.730,220.388 23.600,218.367 23.600 C 217.880 23.600,217.651 23.093,217.478 21.631 C 217.124 18.637,216.567 18.000,214.304 18.000 L 212.400 18.000 212.400 16.029 C 212.400 13.533,211.717 12.800,209.391 12.800 L 207.640 12.800 207.520 10.500 L 207.400 8.200 200.353 8.114 C 196.477 8.066,193.192 8.141,193.053 8.280 M204.683 26.987 C 205.961 28.369,206.901 29.840,207.239 30.987 C 207.534 31.984,207.969 32.800,208.208 32.800 C 209.957 32.800,212.000 35.126,212.000 37.118 C 212.000 37.670,212.584 38.205,213.900 38.858 C 215.295 39.549,215.892 40.119,216.147 41.000 C 216.704 42.928,216.988 43.322,218.741 44.595 C 219.677 45.274,220.847 46.656,221.422 47.762 C 221.984 48.842,223.268 50.552,224.275 51.562 C 226.090 53.384,227.574 55.953,227.591 57.300 C 227.596 57.720,227.907 58.000,228.367 58.000 C 230.187 58.000,231.557 59.574,232.000 62.173 C 232.148 63.043,232.491 63.423,233.329 63.646 C 234.707 64.013,236.400 65.760,236.400 66.816 C 236.400 67.667,237.538 69.193,238.189 69.213 C 238.969 69.237,240.602 71.005,241.318 72.600 C 241.712 73.480,243.083 75.310,244.363 76.666 C 245.929 78.324,246.865 79.720,247.222 80.927 C 247.672 82.452,247.969 82.794,249.198 83.199 C 250.612 83.666,252.000 85.743,252.000 87.392 C 252.000 87.715,252.585 88.275,253.300 88.637 C 255.224 89.609,256.400 90.824,256.400 91.839 C 256.400 92.369,256.898 93.122,257.611 93.670 C 260.823 96.139,260.933 96.267,260.933 97.540 C 260.933 101.548,258.667 102.000,238.568 102.000 L 222.027 102.000 221.876 178.900 C 221.702 267.218,221.918 262.005,218.300 265.185 C 217.464 265.920,216.973 268.397,216.593 273.800 C 216.335 277.458,215.315 280.761,214.426 280.813 C 213.125 280.890,212.208 282.645,211.959 285.536 C 211.592 289.785,210.918 291.739,209.165 293.637 C 207.505 295.435,206.400 297.801,206.400 299.554 C 206.400 300.180,206.085 301.123,205.700 301.651 C 205.315 302.178,204.805 302.967,204.567 303.405 C 204.329 303.842,203.779 304.363,203.344 304.562 C 202.830 304.797,202.249 305.891,201.681 307.694 C 200.819 310.429,199.636 311.960,198.364 311.987 C 197.926 311.996,197.491 312.834,196.964 314.681 C 196.336 316.886,195.838 317.721,194.161 319.386 C 193.039 320.499,191.733 322.289,191.257 323.363 C 190.340 325.438,189.435 326.367,188.310 326.387 C 187.622 326.400,186.400 328.269,186.400 329.310 C 186.400 330.173,184.690 331.562,183.281 331.844 C 182.396 332.021,182.000 332.328,182.000 332.836 C 182.000 334.513,180.735 336.258,179.085 336.860 C 177.742 337.350,177.348 337.748,176.847 339.120 C 176.226 340.822,174.606 342.000,172.884 342.000 C 172.292 342.000,172.022 342.358,171.826 343.400 C 171.682 344.170,171.392 344.800,171.182 344.800 C 170.972 344.800,170.800 345.067,170.800 345.392 C 170.800 345.718,170.305 346.103,169.700 346.249 C 167.833 346.696,166.401 347.588,166.387 348.310 C 166.363 349.649,164.100 351.600,162.572 351.600 C 162.277 351.600,161.028 352.584,159.796 353.786 C 157.645 355.887,156.986 356.217,152.500 357.439 C 152.225 357.514,151.994 357.896,151.987 358.287 C 151.963 359.576,150.548 360.742,147.954 361.610 C 146.416 362.124,144.971 362.929,144.323 363.632 C 143.730 364.274,143.138 364.800,143.006 364.800 C 142.875 364.800,142.280 365.142,141.684 365.560 C 141.088 365.978,139.816 366.433,138.858 366.572 C 136.699 366.883,135.279 367.602,133.371 369.350 C 131.612 370.962,129.686 371.601,125.497 371.962 C 122.905 372.186,122.291 372.378,121.763 373.131 C 119.894 375.800,118.831 376.209,112.339 376.761 C 106.840 377.228,105.200 377.648,105.200 378.590 C 105.200 378.926,105.033 379.200,104.829 379.200 C 104.624 379.200,104.190 379.467,103.863 379.794 C 102.155 381.502,97.360 381.723,58.423 381.892 C 18.493 382.065,20.109 382.145,18.966 379.934 C 18.201 378.455,18.122 341.948,18.880 340.342 C 19.755 338.488,19.867 338.481,50.909 338.297 L 80.418 338.122 81.335 337.261 C 81.839 336.788,82.471 336.400,82.740 336.400 C 83.008 336.400,83.680 336.104,84.233 335.742 C 85.567 334.868,90.571 334.047,97.200 333.614 C 103.437 333.207,103.539 333.179,104.595 331.607 C 105.702 329.961,107.164 329.346,111.900 328.534 C 115.048 327.995,116.051 327.671,116.220 327.137 C 116.342 326.754,116.792 326.330,117.220 326.194 C 117.649 326.057,118.000 325.731,118.000 325.467 C 118.000 324.842,120.887 323.600,122.341 323.600 C 123.169 323.600,124.067 323.027,125.668 321.477 C 127.347 319.850,128.414 319.188,130.230 318.644 C 131.533 318.254,132.825 317.865,133.100 317.780 C 133.375 317.695,133.600 317.176,133.600 316.627 C 133.600 315.592,135.939 313.614,137.193 313.587 C 138.078 313.569,139.200 312.611,139.200 311.874 C 139.200 310.988,140.990 309.285,142.085 309.129 C 142.653 309.048,143.471 308.268,144.271 307.043 C 144.975 305.966,146.233 304.702,147.069 304.234 C 147.995 303.714,148.746 302.917,148.994 302.191 C 149.470 300.796,150.924 299.200,151.720 299.200 C 152.503 299.200,153.442 298.013,153.776 296.600 C 154.152 295.007,155.515 293.600,156.682 293.600 C 157.201 293.600,157.684 293.375,157.756 293.100 C 158.768 289.217,159.550 287.652,161.496 285.610 C 162.966 284.068,163.600 283.079,163.600 282.328 C 163.600 280.820,164.169 279.490,165.370 278.195 C 165.936 277.583,166.400 276.942,166.400 276.769 C 166.400 276.595,166.722 276.352,167.116 276.227 C 167.674 276.049,167.991 275.094,168.551 271.900 C 168.946 269.645,169.346 267.517,169.439 267.172 C 169.631 266.460,171.931 264.000,172.405 264.000 C 173.010 264.000,173.264 262.531,173.620 257.000 C 173.990 251.235,175.154 244.686,175.949 243.891 C 176.197 243.643,176.400 243.173,176.400 242.846 C 176.400 242.519,176.805 241.821,177.300 241.294 L 178.200 240.336 178.200 171.268 L 178.200 102.200 161.000 101.993 C 142.506 101.770,141.978 101.710,140.126 99.635 C 138.643 97.972,139.020 96.514,141.395 94.722 C 142.492 93.895,143.572 92.713,143.795 92.095 C 144.413 90.381,145.272 89.412,146.680 88.840 C 147.727 88.414,148.096 87.913,148.704 86.088 C 149.372 84.085,149.613 83.797,151.069 83.266 C 152.502 82.744,152.748 82.459,153.197 80.812 C 153.562 79.472,154.307 78.342,155.852 76.784 C 157.033 75.593,158.000 74.390,158.000 74.109 C 158.000 73.829,158.162 73.600,158.361 73.600 C 158.559 73.600,158.910 73.060,159.140 72.400 C 159.607 71.061,161.423 69.200,162.263 69.200 C 162.564 69.200,163.237 68.235,163.759 67.055 C 164.719 64.884,166.019 63.600,167.257 63.600 C 167.687 63.600,168.033 63.158,168.201 62.396 C 168.815 59.598,170.159 58.000,171.898 58.000 C 172.466 58.000,172.776 57.503,173.171 55.962 C 173.571 54.403,174.174 53.449,175.742 51.897 C 178.021 49.642,178.856 48.419,179.421 46.512 C 179.501 46.243,180.474 45.371,181.583 44.574 C 182.851 43.663,183.600 42.828,183.600 42.324 C 183.600 41.067,185.091 39.291,186.606 38.743 C 187.797 38.313,188.073 37.953,188.597 36.149 C 189.184 34.130,190.605 32.800,192.174 32.800 C 192.422 32.800,192.873 31.945,193.176 30.900 C 194.186 27.420,197.210 24.800,200.218 24.800 L 202.662 24.800 204.683 26.987 M229.442 264.935 C 230.637 265.962,231.367 268.171,231.965 272.568 C 232.212 274.378,232.562 275.459,232.977 275.691 C 233.326 275.886,233.793 276.261,234.014 276.523 C 235.959 278.831,236.361 279.547,236.598 281.126 C 236.885 283.039,237.806 284.800,238.520 284.800 C 239.186 284.800,240.799 286.467,240.813 287.170 C 240.820 287.516,241.090 288.149,241.413 288.576 C 241.736 289.004,242.000 289.934,242.000 290.644 C 242.000 292.612,242.355 293.155,243.824 293.431 C 245.461 293.738,246.076 294.423,246.600 296.521 C 247.009 298.161,247.356 298.501,249.336 299.204 C 250.156 299.495,250.701 300.149,251.293 301.552 C 251.931 303.061,252.425 303.617,253.500 304.039 C 255.025 304.638,256.400 306.130,256.400 307.186 C 256.400 307.864,257.222 308.429,259.299 309.181 C 260.038 309.449,260.694 310.205,261.302 311.490 C 262.068 313.107,262.400 313.419,263.470 313.523 C 265.060 313.678,266.742 315.208,267.058 316.788 C 267.232 317.661,267.528 318.000,268.115 318.000 C 270.911 318.000,273.928 319.679,276.270 322.538 C 276.945 323.362,277.494 323.600,278.725 323.600 C 280.519 323.600,283.943 325.614,284.568 327.037 C 284.879 327.746,285.632 327.983,289.484 328.587 C 294.225 329.331,296.400 330.419,296.400 332.046 C 296.400 332.965,297.418 333.154,304.693 333.587 C 311.425 333.988,315.851 334.748,317.410 335.770 C 317.939 336.116,318.614 336.400,318.911 336.400 C 319.207 336.400,319.836 336.760,320.308 337.200 C 321.150 337.984,321.721 338.000,349.483 338.002 C 367.735 338.004,378.329 338.151,379.288 338.418 C 382.105 339.200,382.000 338.357,382.000 360.271 L 382.000 379.964 380.962 381.002 L 379.924 382.040 340.862 381.868 C 296.672 381.675,297.269 381.711,294.956 379.036 L 293.631 377.502 287.534 376.890 C 280.840 376.217,279.239 375.641,278.324 373.573 C 278.038 372.928,277.714 372.395,277.602 372.389 C 271.146 372.043,265.200 370.190,265.200 368.524 C 265.200 367.823,263.207 366.967,260.711 366.594 C 259.672 366.439,258.429 365.972,257.949 365.556 C 257.470 365.140,256.845 364.800,256.561 364.800 C 256.278 364.800,255.722 364.253,255.327 363.584 C 254.931 362.914,254.156 362.272,253.604 362.156 C 250.084 361.415,248.000 359.999,248.000 358.346 C 248.000 357.869,247.527 357.590,246.390 357.398 C 243.591 356.925,240.164 354.954,239.422 353.389 C 239.059 352.625,238.636 351.986,238.481 351.969 C 236.211 351.722,234.285 350.423,233.754 348.780 C 233.378 347.618,233.004 347.302,231.390 346.779 C 229.441 346.147,228.000 344.416,228.000 342.706 C 228.000 342.179,227.671 341.997,226.700 341.987 C 225.060 341.970,223.851 340.971,223.244 339.132 C 222.861 337.973,222.433 337.569,221.021 337.029 C 219.305 336.374,218.000 334.457,218.000 332.592 C 218.000 332.203,217.595 332.000,216.818 332.000 C 215.438 332.000,213.600 330.376,213.600 329.156 C 213.600 327.823,212.876 326.880,211.645 326.610 C 210.129 326.277,209.447 325.460,208.549 322.900 C 208.061 321.510,207.589 320.800,207.150 320.800 C 202.936 320.800,202.326 309.163,206.485 308.092 C 207.660 307.790,207.813 307.586,207.923 306.177 C 208.246 302.026,210.246 298.051,212.031 298.013 C 212.644 298.000,213.600 294.344,213.600 292.014 C 213.600 290.607,214.812 288.333,216.424 286.716 C 217.677 285.460,217.944 284.878,218.166 282.916 C 219.044 275.168,220.102 271.816,221.990 270.806 C 222.376 270.599,223.281 269.246,224.000 267.799 C 225.824 264.133,227.490 263.256,229.442 264.935 M189.551 343.581 C 188.679 344.760,187.600 345.463,187.600 344.851 C 187.600 344.306,189.368 342.451,189.912 342.425 C 190.239 342.409,190.109 342.826,189.551 343.581 M211.678 343.475 C 212.958 344.701,213.159 345.420,212.057 344.830 C 211.263 344.405,209.788 342.400,210.269 342.400 C 210.427 342.400,211.061 342.884,211.678 343.475 " stroke="none" fill="#458bc5" fill-rule="evenodd"></path><path id="path1" d="M227.095 276.476 C 226.733 277.204,226.333 278.462,226.206 279.271 C 226.052 280.249,225.361 281.424,224.142 282.780 C 222.416 284.700,222.290 284.998,221.971 287.909 C 221.375 293.336,220.011 296.400,218.189 296.400 C 217.569 296.400,217.454 296.746,216.649 301.037 C 216.121 303.854,214.746 306.400,213.753 306.400 C 212.813 306.400,212.000 307.661,211.994 309.129 C 211.991 309.938,211.761 311.050,211.482 311.600 C 211.078 312.400,211.075 313.078,211.471 315.000 C 212.273 318.897,212.386 319.200,213.034 319.200 C 213.793 319.200,216.400 321.895,216.400 322.679 C 216.400 323.206,217.940 325.031,221.100 328.249 C 221.815 328.978,222.400 329.849,222.400 330.187 C 222.400 330.524,222.581 330.800,222.802 330.800 C 223.329 330.800,229.200 336.657,229.200 337.183 C 229.200 337.407,229.812 337.845,230.559 338.157 C 231.307 338.469,232.072 338.984,232.259 339.300 C 232.447 339.616,233.088 340.189,233.684 340.573 C 234.281 340.957,234.873 341.600,235.001 342.002 C 235.128 342.403,236.383 343.287,237.790 343.966 C 239.882 344.974,240.440 345.453,240.852 346.592 C 241.285 347.790,241.667 348.087,243.578 348.713 C 245.561 349.362,245.895 349.637,246.686 351.273 C 247.511 352.981,247.700 353.123,249.486 353.380 C 252.331 353.788,254.565 354.997,255.424 356.593 C 256.093 357.835,256.460 358.040,259.134 358.671 C 261.576 359.246,262.397 359.656,263.766 360.985 C 265.747 362.908,267.144 363.600,269.044 363.600 C 271.103 363.600,274.466 365.280,275.306 366.727 C 275.923 367.791,276.301 367.977,278.306 368.210 C 284.941 368.978,289.600 370.374,289.600 371.594 C 289.600 372.603,292.726 373.268,299.115 373.618 C 308.783 374.147,315.130 375.425,318.254 377.472 C 319.116 378.037,322.491 378.113,348.712 378.154 L 378.200 378.200 378.200 360.200 L 378.200 342.200 343.000 341.961 C 304.357 341.698,303.877 341.668,300.986 339.368 C 298.619 337.485,298.107 337.301,293.851 336.812 C 289.339 336.293,287.055 335.369,285.167 333.300 C 284.261 332.307,283.650 332.000,282.580 332.000 C 279.727 332.000,274.800 329.529,274.800 328.098 C 274.800 327.626,271.947 326.400,270.850 326.400 C 269.837 326.400,268.097 324.701,267.935 323.553 C 267.826 322.783,267.450 322.527,265.956 322.201 C 264.941 321.981,263.861 321.597,263.556 321.349 C 263.250 321.101,262.618 320.781,262.152 320.638 C 261.685 320.496,260.875 319.813,260.352 319.122 C 258.972 317.300,257.937 316.400,257.220 316.400 C 256.339 316.400,254.632 314.726,254.029 313.270 C 253.668 312.399,253.008 311.839,251.733 311.324 C 250.230 310.716,249.783 310.264,248.943 308.500 C 248.332 307.219,247.680 306.395,247.271 306.387 C 246.201 306.365,244.966 305.101,243.836 302.870 C 243.259 301.732,242.619 300.800,242.414 300.800 C 241.185 300.800,238.433 296.781,238.032 294.400 C 237.848 293.310,237.486 292.846,236.398 292.304 C 234.999 291.607,233.600 289.617,233.600 288.325 C 233.600 287.198,232.770 285.720,231.856 285.219 C 230.311 284.374,229.424 282.656,228.582 278.876 L 227.752 275.151 227.095 276.476 " stroke="none" fill="#dcf4fc" fill-rule="evenodd"></path><path id="path2" d="M197.100 32.032 C 196.715 32.256,196.400 32.859,196.400 33.371 C 196.400 33.883,196.130 34.526,195.800 34.800 C 195.470 35.074,195.200 35.503,195.200 35.755 C 195.200 36.006,194.480 36.523,193.600 36.904 C 192.720 37.286,192.000 37.875,192.000 38.215 C 192.000 39.108,190.456 42.000,189.979 42.000 C 189.757 42.000,189.455 42.315,189.309 42.700 C 189.162 43.085,188.645 43.714,188.160 44.098 C 187.675 44.483,186.790 45.653,186.193 46.698 C 185.131 48.561,183.031 50.800,182.346 50.800 C 182.156 50.800,182.000 50.993,182.000 51.229 C 182.000 51.464,181.730 51.927,181.400 52.257 C 181.070 52.587,180.800 53.161,180.800 53.533 C 180.800 54.162,180.230 54.731,177.552 56.776 C 176.976 57.216,176.403 58.085,176.279 58.707 C 176.006 60.072,174.175 62.000,173.153 62.000 C 172.681 62.000,172.318 62.396,172.144 63.100 C 171.767 64.625,170.438 66.643,168.258 69.000 C 167.241 70.100,166.407 71.225,166.404 71.500 C 166.402 71.775,166.242 72.000,166.049 72.000 C 165.855 72.000,165.476 72.534,165.206 73.186 C 164.936 73.838,164.131 74.716,163.417 75.137 C 162.650 75.590,161.746 76.672,161.209 77.781 C 160.639 78.959,159.573 80.202,158.350 81.115 C 157.278 81.916,156.400 82.878,156.400 83.253 C 156.400 84.090,155.127 86.394,154.662 86.397 C 153.802 86.404,152.081 88.096,151.872 89.139 C 151.745 89.777,151.091 90.847,150.420 91.518 C 149.749 92.189,149.200 92.889,149.200 93.073 C 149.200 93.257,148.842 93.631,148.405 93.904 C 147.644 94.379,145.403 97.559,145.671 97.784 C 146.746 98.685,148.667 98.800,162.587 98.800 C 179.609 98.800,179.904 98.843,181.006 101.473 C 181.587 102.859,181.629 109.519,181.461 173.600 C 181.275 244.183,181.123 251.868,179.866 254.388 C 179.500 255.122,179.200 255.892,179.200 256.100 C 179.200 256.307,178.834 256.990,178.387 257.619 C 177.341 259.088,176.410 262.166,176.404 264.174 C 176.397 266.943,175.175 270.467,173.533 272.456 C 172.690 273.476,172.000 274.579,172.000 274.907 C 172.000 275.234,171.730 276.149,171.400 276.938 C 171.070 277.728,170.800 278.761,170.800 279.235 C 170.800 279.708,169.964 281.128,168.942 282.390 C 167.920 283.653,166.653 285.836,166.125 287.243 C 165.184 289.752,164.091 291.178,162.700 291.708 C 162.315 291.855,162.000 292.244,162.000 292.574 C 162.000 293.649,160.627 296.142,159.352 297.385 C 157.929 298.771,155.200 302.590,155.200 303.196 C 155.200 303.418,155.057 303.600,154.883 303.600 C 154.388 303.600,150.800 306.960,150.800 307.423 C 150.800 307.907,147.921 310.800,147.440 310.800 C 146.973 310.800,145.217 312.523,145.197 313.000 C 145.187 313.220,143.804 314.390,142.123 315.600 C 140.442 316.810,138.389 318.449,137.561 319.241 C 135.977 320.757,133.743 322.000,132.602 322.000 C 132.230 322.000,131.840 322.327,131.735 322.727 C 131.446 323.831,129.635 325.148,126.706 326.384 C 125.253 326.997,123.183 328.241,122.106 329.149 C 121.030 330.057,119.749 330.800,119.261 330.800 C 118.774 330.800,117.728 331.070,116.938 331.400 C 116.149 331.730,115.240 332.000,114.918 332.000 C 114.597 332.000,113.584 332.614,112.667 333.364 C 110.721 334.956,106.757 336.398,104.313 336.404 C 102.180 336.410,99.124 337.315,97.619 338.387 C 96.990 338.834,96.307 339.200,96.100 339.200 C 95.892 339.200,95.122 339.500,94.388 339.866 C 92.188 340.964,85.872 341.208,53.400 341.452 C 33.464 341.603,22.424 341.828,22.100 342.091 C 21.391 342.668,21.371 377.611,22.080 378.320 C 23.491 379.731,86.627 378.684,88.800 377.214 C 90.349 376.166,93.847 375.238,97.800 374.829 C 109.375 373.628,111.946 373.130,113.296 371.825 C 114.409 370.751,118.433 369.200,120.109 369.200 C 122.622 369.200,126.060 367.913,127.757 366.336 C 128.661 365.497,129.683 364.808,130.029 364.805 C 130.375 364.802,131.455 364.551,132.429 364.247 C 133.403 363.943,134.985 363.457,135.944 363.168 C 137.015 362.846,137.842 362.306,138.086 361.772 C 138.526 360.806,141.110 359.200,142.223 359.200 C 143.386 359.200,145.967 357.855,146.213 357.120 C 146.338 356.747,146.775 356.335,147.184 356.205 C 147.592 356.076,148.017 355.733,148.128 355.443 C 148.239 355.153,149.442 354.575,150.801 354.158 C 152.777 353.552,153.484 353.100,154.335 351.901 C 154.921 351.077,156.210 350.009,157.200 349.529 C 158.190 349.048,159.090 348.540,159.200 348.398 C 159.310 348.257,159.715 348.025,160.100 347.883 C 160.485 347.741,160.808 347.394,160.817 347.113 C 160.834 346.603,164.442 343.600,165.038 343.600 C 165.584 343.600,167.994 341.816,168.011 341.400 C 168.033 340.836,169.450 339.200,169.915 339.200 C 170.128 339.200,170.526 338.930,170.800 338.600 C 171.074 338.270,171.614 338.000,172.000 338.000 C 172.419 338.000,172.915 337.474,173.227 336.700 C 173.869 335.109,175.078 333.913,176.743 333.224 C 177.477 332.919,178.000 332.411,178.000 332.000 C 178.000 331.614,178.270 331.074,178.600 330.800 C 178.930 330.526,179.200 330.128,179.200 329.915 C 179.200 329.405,180.863 328.030,181.500 328.013 C 181.775 328.006,182.000 327.812,182.000 327.583 C 182.000 327.354,182.191 326.949,182.424 326.683 C 182.657 326.417,183.194 325.660,183.618 325.000 C 184.042 324.340,184.616 323.452,184.894 323.026 C 185.581 321.975,187.239 320.400,187.658 320.400 C 187.846 320.400,188.000 320.130,188.000 319.800 C 188.000 319.470,188.136 319.200,188.302 319.200 C 188.469 319.200,189.006 318.326,189.496 317.257 C 190.082 315.979,190.936 314.951,191.994 314.252 C 192.877 313.667,193.600 312.888,193.600 312.521 C 193.600 311.713,195.153 308.408,195.879 307.671 C 196.166 307.381,196.400 306.988,196.400 306.798 C 196.400 306.609,196.715 306.349,197.100 306.220 C 197.825 305.977,199.200 303.415,199.200 302.307 C 199.200 301.290,200.875 298.443,201.850 297.804 C 202.668 297.268,204.800 291.587,204.800 289.942 C 204.800 289.644,205.495 288.639,206.344 287.710 C 207.936 285.969,209.200 282.605,209.200 280.109 C 209.200 278.577,210.661 274.609,211.819 273.000 C 213.209 271.066,213.651 268.868,214.792 258.200 C 215.003 256.220,215.437 253.790,215.755 252.800 C 216.073 251.810,216.439 250.518,216.567 249.928 C 216.696 249.338,217.054 248.603,217.364 248.294 C 218.369 247.288,218.443 243.098,218.723 171.709 L 219.000 101.218 220.109 100.109 L 221.217 99.000 236.909 98.885 C 253.993 98.760,256.236 98.490,254.200 96.800 C 253.870 96.526,253.600 96.083,253.600 95.815 C 253.600 95.548,253.015 94.763,252.300 94.071 C 249.658 91.516,249.221 90.960,248.414 89.131 C 247.852 87.856,247.208 87.094,246.385 86.731 C 245.291 86.249,243.600 83.833,243.600 82.752 C 243.600 82.295,242.004 80.835,241.481 80.813 C 240.951 80.791,239.226 78.644,239.213 77.989 C 239.199 77.353,237.620 75.579,235.841 74.200 C 235.273 73.760,234.806 73.085,234.804 72.700 C 234.802 72.315,234.632 72.000,234.427 72.000 C 234.222 72.000,233.951 71.675,233.825 71.279 C 233.699 70.882,232.607 69.520,231.398 68.251 C 230.189 66.983,229.194 65.733,229.187 65.473 C 229.180 65.213,228.910 64.651,228.587 64.224 C 228.264 63.796,228.000 63.121,228.000 62.724 C 228.000 62.305,227.705 61.996,227.300 61.991 C 226.002 61.975,223.600 59.269,223.600 57.823 C 223.600 57.491,223.105 56.910,222.500 56.534 C 220.897 55.536,219.200 53.654,219.200 52.875 C 219.200 52.503,218.279 51.389,217.153 50.399 C 216.027 49.410,214.939 48.240,214.736 47.800 C 213.971 46.147,213.227 45.032,212.220 44.032 C 210.094 41.920,209.293 40.834,208.568 39.080 C 208.014 37.742,207.487 37.148,206.514 36.766 C 205.253 36.271,203.600 33.925,203.600 32.630 C 203.600 31.584,198.652 31.128,197.100 32.032 M227.188 271.968 C 226.851 272.316,225.864 274.040,224.996 275.800 C 224.127 277.560,223.199 279.180,222.934 279.400 C 222.329 279.901,220.800 284.261,220.800 285.485 C 220.800 287.019,219.153 291.261,217.811 293.182 C 217.112 294.182,216.109 296.350,215.582 298.000 C 215.055 299.650,214.393 301.284,214.112 301.631 C 213.830 301.979,213.600 302.465,213.600 302.712 C 213.600 302.958,213.330 303.311,213.000 303.496 C 212.337 303.867,210.800 306.663,210.800 307.498 C 210.800 308.321,208.833 312.000,208.393 312.000 C 207.824 312.000,207.911 313.087,208.561 314.114 C 208.869 314.601,209.252 315.630,209.411 316.400 C 209.570 317.170,209.822 317.890,209.969 318.000 C 210.117 318.110,210.717 319.010,211.302 320.000 C 211.887 320.990,213.115 322.610,214.031 323.600 C 214.947 324.590,215.902 325.874,216.152 326.452 C 216.403 327.031,217.551 328.250,218.704 329.162 C 219.857 330.073,220.800 331.002,220.800 331.226 C 220.800 331.949,223.528 334.800,224.219 334.800 C 224.593 334.800,225.976 336.478,226.369 337.408 C 226.557 337.853,227.226 338.477,227.855 338.795 C 228.991 339.368,232.000 342.311,232.000 342.848 C 232.000 343.002,232.771 343.502,233.712 343.958 C 234.654 344.414,236.153 345.487,237.044 346.342 C 238.875 348.102,242.592 350.800,243.184 350.800 C 243.400 350.800,243.978 351.344,244.470 352.009 C 245.461 353.350,247.243 354.523,248.931 354.947 C 249.540 355.100,250.615 355.805,251.319 356.514 C 252.585 357.789,253.108 358.092,257.800 360.271 C 259.120 360.884,260.650 361.839,261.200 362.393 C 261.750 362.947,263.280 363.731,264.600 364.136 C 267.407 364.996,270.493 366.447,272.231 367.724 C 272.935 368.240,275.416 369.109,278.023 369.752 C 281.858 370.698,284.256 371.646,286.600 373.142 C 287.269 373.569,291.213 374.362,294.660 374.763 C 298.190 375.174,301.905 375.966,306.000 377.183 C 312.707 379.174,320.107 379.534,355.230 379.574 L 377.861 379.600 378.730 378.674 C 379.596 377.753,379.600 377.668,379.600 360.144 L 379.600 342.539 378.700 341.694 C 377.803 340.852,377.695 340.849,347.000 340.698 C 312.991 340.532,310.028 340.329,304.868 337.808 C 303.695 337.236,302.165 336.672,301.468 336.555 C 295.081 335.485,290.356 333.988,288.932 332.583 C 288.674 332.329,287.144 331.716,285.532 331.220 C 281.739 330.055,280.072 329.254,278.628 327.904 C 277.984 327.302,277.084 326.702,276.628 326.572 C 274.620 325.999,271.296 324.195,270.138 323.049 C 268.322 321.251,267.904 320.963,266.656 320.650 C 266.042 320.496,264.878 319.682,264.069 318.842 C 263.261 318.001,261.840 316.839,260.910 316.258 C 259.395 315.312,256.210 312.555,253.794 310.100 C 253.307 309.605,252.794 309.200,252.654 309.200 C 252.254 309.200,250.800 307.642,250.800 307.214 C 250.800 307.002,250.440 306.635,250.000 306.400 C 249.560 306.165,249.200 305.817,249.200 305.628 C 249.200 305.440,248.156 304.218,246.879 302.913 C 245.603 301.609,244.258 299.909,243.891 299.136 C 243.524 298.363,242.764 297.386,242.201 296.965 C 241.087 296.132,239.200 293.491,239.200 292.765 C 239.200 292.516,238.304 291.332,237.210 290.134 C 236.045 288.860,235.045 287.309,234.799 286.395 C 234.567 285.536,234.203 284.726,233.989 284.593 C 233.775 284.461,233.600 284.012,233.600 283.596 C 233.600 283.179,232.998 282.245,232.261 281.519 C 231.378 280.649,230.608 279.248,229.997 277.400 C 228.136 271.767,227.874 271.260,227.188 271.968 M230.206 283.676 C 230.643 284.267,231.385 284.962,231.856 285.219 C 232.770 285.720,233.600 287.198,233.600 288.325 C 233.600 289.617,234.999 291.607,236.398 292.304 C 237.486 292.846,237.848 293.310,238.032 294.400 C 238.433 296.781,241.185 300.800,242.414 300.800 C 242.619 300.800,243.259 301.732,243.836 302.870 C 244.966 305.101,246.201 306.365,247.271 306.387 C 247.680 306.395,248.332 307.219,248.943 308.500 C 249.783 310.264,250.230 310.716,251.733 311.324 C 253.008 311.839,253.668 312.399,254.029 313.270 C 254.632 314.726,256.339 316.400,257.220 316.400 C 257.937 316.400,258.972 317.300,260.352 319.122 C 260.875 319.813,261.685 320.496,262.152 320.638 C 262.618 320.781,263.250 321.101,263.556 321.349 C 263.861 321.597,264.941 321.981,265.956 322.201 C 267.450 322.527,267.826 322.783,267.935 323.553 C 268.097 324.701,269.837 326.400,270.850 326.400 C 271.947 326.400,274.800 327.626,274.800 328.098 C 274.800 329.529,279.727 332.000,282.580 332.000 C 283.650 332.000,284.261 332.307,285.167 333.300 C 287.055 335.369,289.339 336.293,293.851 336.812 C 298.107 337.301,298.619 337.485,300.986 339.368 C 303.877 341.668,304.357 341.698,343.000 341.961 L 378.200 342.200 378.200 360.200 L 378.200 378.200 348.712 378.154 C 322.491 378.113,319.116 378.037,318.254 377.472 C 315.130 375.425,308.783 374.147,299.115 373.618 C 292.726 373.268,289.600 372.603,289.600 371.594 C 289.600 370.374,284.941 368.978,278.306 368.210 C 276.301 367.977,275.923 367.791,275.306 366.727 C 274.466 365.280,271.103 363.600,269.044 363.600 C 267.144 363.600,265.747 362.908,263.766 360.985 C 262.397 359.656,261.576 359.246,259.134 358.671 C 256.460 358.040,256.093 357.835,255.424 356.593 C 254.565 354.997,252.331 353.788,249.486 353.380 C 247.700 353.123,247.511 352.981,246.686 351.273 C 245.895 349.637,245.561 349.362,243.578 348.713 C 241.667 348.087,241.285 347.790,240.852 346.592 C 240.440 345.453,239.882 344.974,237.790 343.966 C 236.383 343.287,235.128 342.403,235.001 342.002 C 234.873 341.600,234.281 340.957,233.684 340.573 C 233.088 340.189,232.447 339.616,232.259 339.300 C 232.072 338.984,231.307 338.469,230.559 338.157 C 229.812 337.845,229.200 337.407,229.200 337.183 C 229.200 336.657,223.329 330.800,222.802 330.800 C 222.581 330.800,222.400 330.524,222.400 330.187 C 222.400 329.849,221.815 328.978,221.100 328.249 C 217.940 325.031,216.400 323.206,216.400 322.679 C 216.400 321.895,213.793 319.200,213.034 319.200 C 212.386 319.200,212.273 318.897,211.471 315.000 C 211.075 313.078,211.078 312.400,211.482 311.600 C 211.761 311.050,211.991 309.938,211.994 309.129 C 212.000 307.661,212.813 306.400,213.753 306.400 C 214.746 306.400,216.121 303.854,216.649 301.037 C 217.454 296.746,217.569 296.400,218.189 296.400 C 220.011 296.400,221.375 293.336,221.971 287.909 C 222.290 284.998,222.416 284.700,224.142 282.780 C 225.361 281.424,226.052 280.249,226.206 279.271 C 226.333 278.462,226.733 277.204,227.095 276.476 L 227.752 275.151 228.582 278.876 C 229.039 280.924,229.769 283.084,230.206 283.676 " stroke="none" fill="#b3dbfc" fill-rule="evenodd"></path><path id="path3" d="M195.751 26.900 C 194.373 28.330,193.552 29.606,193.176 30.900 C 192.873 31.945,192.422 32.800,192.174 32.800 C 190.605 32.800,189.184 34.130,188.597 36.149 C 188.073 37.953,187.797 38.313,186.606 38.743 C 185.091 39.291,183.600 41.067,183.600 42.324 C 183.600 42.828,182.851 43.663,181.583 44.574 C 180.474 45.371,179.501 46.243,179.421 46.512 C 178.856 48.419,178.021 49.642,175.742 51.897 C 174.174 53.449,173.571 54.403,173.171 55.962 C 172.776 57.503,172.466 58.000,171.898 58.000 C 170.159 58.000,168.815 59.598,168.201 62.396 C 168.033 63.158,167.687 63.600,167.257 63.600 C 166.019 63.600,164.719 64.884,163.759 67.055 C 163.237 68.235,162.564 69.200,162.263 69.200 C 161.423 69.200,159.607 71.061,159.140 72.400 C 158.910 73.060,158.559 73.600,158.361 73.600 C 158.162 73.600,158.000 73.829,158.000 74.109 C 158.000 74.390,157.033 75.593,155.852 76.784 C 154.307 78.342,153.562 79.472,153.197 80.812 C 152.748 82.459,152.502 82.744,151.069 83.266 C 149.613 83.797,149.372 84.085,148.704 86.088 C 148.096 87.913,147.727 88.414,146.680 88.840 C 145.272 89.412,144.413 90.381,143.795 92.095 C 143.572 92.713,142.492 93.895,141.395 94.722 C 139.020 96.514,138.643 97.972,140.126 99.635 C 141.978 101.710,142.506 101.770,161.000 101.993 L 178.200 102.200 178.200 171.268 L 178.200 240.336 177.300 241.294 C 176.805 241.821,176.400 242.519,176.400 242.846 C 176.400 243.173,176.197 243.643,175.949 243.891 C 175.154 244.686,173.990 251.235,173.620 257.000 C 173.264 262.531,173.010 264.000,172.405 264.000 C 171.931 264.000,169.631 266.460,169.439 267.172 C 169.346 267.517,168.946 269.645,168.551 271.900 C 167.991 275.094,167.674 276.049,167.116 276.227 C 166.722 276.352,166.400 276.595,166.400 276.769 C 166.400 276.942,165.936 277.583,165.370 278.195 C 164.169 279.490,163.600 280.820,163.600 282.328 C 163.600 283.079,162.966 284.068,161.496 285.610 C 159.550 287.652,158.768 289.217,157.756 293.100 C 157.684 293.375,157.201 293.600,156.682 293.600 C 155.515 293.600,154.152 295.007,153.776 296.600 C 153.442 298.013,152.503 299.200,151.720 299.200 C 150.924 299.200,149.470 300.796,148.994 302.191 C 148.746 302.917,147.995 303.714,147.069 304.234 C 146.233 304.702,144.975 305.966,144.271 307.043 C 143.471 308.268,142.653 309.048,142.085 309.129 C 140.990 309.285,139.200 310.988,139.200 311.874 C 139.200 312.611,138.078 313.569,137.193 313.587 C 135.939 313.614,133.600 315.592,133.600 316.627 C 133.600 317.176,133.375 317.695,133.100 317.780 C 132.825 317.865,131.533 318.254,130.230 318.644 C 128.414 319.188,127.347 319.850,125.668 321.477 C 124.067 323.027,123.169 323.600,122.341 323.600 C 120.887 323.600,118.000 324.842,118.000 325.467 C 118.000 325.731,117.649 326.057,117.220 326.194 C 116.792 326.330,116.342 326.754,116.220 327.137 C 116.051 327.671,115.048 327.995,111.900 328.534 C 107.164 329.346,105.702 329.961,104.595 331.607 C 103.539 333.179,103.437 333.207,97.200 333.614 C 90.571 334.047,85.567 334.868,84.233 335.742 C 83.680 336.104,83.008 336.400,82.740 336.400 C 82.471 336.400,81.839 336.788,81.335 337.261 L 80.418 338.122 50.909 338.297 C 19.867 338.481,19.755 338.488,18.880 340.342 C 18.122 341.948,18.201 378.455,18.966 379.934 C 20.109 382.145,18.493 382.065,58.423 381.892 C 97.360 381.723,102.155 381.502,103.863 379.794 C 104.190 379.467,104.624 379.200,104.829 379.200 C 105.033 379.200,105.200 378.926,105.200 378.590 C 105.200 377.648,106.840 377.228,112.339 376.761 C 118.831 376.209,119.894 375.800,121.763 373.131 C 122.291 372.378,122.905 372.186,125.497 371.962 C 129.686 371.601,131.612 370.962,133.371 369.350 C 135.279 367.602,136.699 366.883,138.858 366.572 C 139.816 366.433,141.088 365.978,141.684 365.560 C 142.280 365.142,142.875 364.800,143.006 364.800 C 143.138 364.800,143.730 364.274,144.323 363.632 C 144.971 362.929,146.416 362.124,147.954 361.610 C 150.548 360.742,151.963 359.576,151.987 358.287 C 151.994 357.896,152.225 357.514,152.500 357.439 C 156.986 356.217,157.645 355.887,159.796 353.786 C 161.028 352.584,162.277 351.600,162.572 351.600 C 164.100 351.600,166.363 349.649,166.387 348.310 C 166.401 347.588,167.833 346.696,169.700 346.249 C 170.305 346.103,170.800 345.718,170.800 345.392 C 170.800 345.067,170.972 344.800,171.182 344.800 C 171.392 344.800,171.682 344.170,171.826 343.400 C 172.022 342.358,172.292 342.000,172.884 342.000 C 174.606 342.000,176.226 340.822,176.847 339.120 C 177.348 337.748,177.742 337.350,179.085 336.860 C 180.735 336.258,182.000 334.513,182.000 332.836 C 182.000 332.328,182.396 332.021,183.281 331.844 C 184.690 331.562,186.400 330.173,186.400 329.310 C 186.400 328.269,187.622 326.400,188.310 326.387 C 189.435 326.367,190.340 325.438,191.257 323.363 C 191.733 322.289,193.039 320.499,194.161 319.386 C 195.838 317.721,196.336 316.886,196.964 314.681 C 197.491 312.834,197.926 311.996,198.364 311.987 C 199.636 311.960,200.819 310.429,201.681 307.694 C 202.249 305.891,202.830 304.797,203.344 304.562 C 203.779 304.363,204.329 303.842,204.567 303.405 C 204.805 302.967,205.315 302.178,205.700 301.651 C 206.085 301.123,206.400 300.180,206.400 299.554 C 206.400 297.801,207.505 295.435,209.165 293.637 C 210.918 291.739,211.592 289.785,211.959 285.536 C 212.208 282.645,213.125 280.890,214.426 280.813 C 215.315 280.761,216.335 277.458,216.593 273.800 C 216.973 268.397,217.464 265.920,218.300 265.185 C 221.918 262.005,221.702 267.218,221.876 178.900 L 222.027 102.000 238.568 102.000 C 258.667 102.000,260.933 101.548,260.933 97.540 C 260.933 96.267,260.823 96.139,257.611 93.670 C 256.898 93.122,256.400 92.369,256.400 91.839 C 256.400 90.824,255.224 89.609,253.300 88.637 C 252.585 88.275,252.000 87.715,252.000 87.392 C 252.000 85.743,250.612 83.666,249.198 83.199 C 247.969 82.794,247.672 82.452,247.222 80.927 C 246.865 79.720,245.929 78.324,244.363 76.666 C 243.083 75.310,241.712 73.480,241.318 72.600 C 240.602 71.005,238.969 69.237,238.189 69.213 C 237.538 69.193,236.400 67.667,236.400 66.816 C 236.400 65.760,234.707 64.013,233.329 63.646 C 232.491 63.423,232.148 63.043,232.000 62.173 C 231.557 59.574,230.187 58.000,228.367 58.000 C 227.907 58.000,227.596 57.720,227.591 57.300 C 227.574 55.953,226.090 53.384,224.275 51.562 C 223.268 50.552,221.984 48.842,221.422 47.762 C 220.847 46.656,219.677 45.274,218.741 44.595 C 216.988 43.322,216.704 42.928,216.147 41.000 C 215.892 40.119,215.295 39.549,213.900 38.858 C 212.584 38.205,212.000 37.670,212.000 37.118 C 212.000 35.126,209.957 32.800,208.208 32.800 C 207.969 32.800,207.534 31.984,207.239 30.987 C 206.901 29.840,205.961 28.369,204.683 26.987 L 202.662 24.800 200.218 24.800 C 197.793 24.800,197.758 24.817,195.751 26.900 M203.232 29.217 C 203.661 29.447,204.481 30.392,205.054 31.317 C 205.627 32.243,206.929 33.814,207.948 34.809 C 208.967 35.803,210.070 37.152,210.400 37.805 C 210.730 38.459,211.739 39.718,212.642 40.605 C 213.545 41.491,214.585 42.798,214.953 43.508 C 215.320 44.219,215.796 44.800,216.010 44.800 C 216.225 44.800,216.404 45.025,216.410 45.300 C 216.415 45.575,217.323 46.790,218.426 48.000 C 219.530 49.210,220.817 50.965,221.287 51.900 C 221.757 52.835,222.262 53.600,222.409 53.600 C 222.930 53.600,224.642 55.418,225.216 56.582 C 225.537 57.231,226.574 58.491,227.521 59.382 C 228.467 60.272,229.748 61.810,230.368 62.800 C 230.987 63.790,232.193 65.339,233.047 66.241 C 233.901 67.144,235.050 68.553,235.600 69.372 C 236.597 70.857,237.131 71.515,239.400 74.056 C 240.060 74.795,240.894 76.048,241.253 76.840 C 241.613 77.631,242.451 78.666,243.116 79.140 C 243.780 79.613,244.778 80.765,245.332 81.700 C 245.887 82.635,247.119 84.128,248.070 85.018 C 249.022 85.909,250.070 87.169,250.399 87.818 C 250.729 88.468,251.224 89.144,251.499 89.320 C 251.775 89.496,252.000 89.901,252.000 90.220 C 252.000 90.539,252.230 90.800,252.511 90.800 C 253.129 90.800,254.137 91.930,254.990 93.581 C 255.337 94.252,255.796 94.800,256.010 94.800 C 256.225 94.800,256.400 95.013,256.400 95.274 C 256.400 95.535,256.786 96.160,257.259 96.662 C 258.330 97.803,257.913 98.425,255.138 99.831 L 253.227 100.800 237.675 100.800 C 223.288 100.800,222.076 100.853,221.481 101.510 C 220.898 102.155,220.824 108.752,220.676 173.610 C 220.495 253.278,220.584 250.723,217.683 259.637 C 217.010 261.706,216.075 265.560,215.606 268.200 C 214.573 274.021,214.074 275.776,212.998 277.375 C 211.900 279.007,210.800 281.971,210.800 283.298 C 210.800 284.984,209.218 288.845,207.809 290.600 C 207.102 291.480,206.422 292.650,206.299 293.200 C 205.720 295.775,204.158 299.382,203.205 300.340 C 202.626 300.923,201.717 302.480,201.187 303.800 C 200.027 306.685,198.814 308.722,197.621 309.790 C 196.828 310.500,195.200 313.501,195.200 314.254 C 195.200 314.418,194.500 315.193,193.644 315.976 C 192.788 316.759,191.748 318.030,191.331 318.800 C 189.970 321.316,188.522 323.380,187.350 324.475 C 185.893 325.836,185.200 326.679,185.200 327.087 C 185.200 327.523,183.604 329.195,182.101 330.333 C 181.424 330.846,180.668 331.752,180.423 332.346 C 180.177 332.939,179.313 333.959,178.503 334.612 C 177.694 335.266,176.664 336.225,176.216 336.745 C 174.214 339.064,173.320 339.912,172.182 340.571 C 171.512 340.959,170.536 341.900,170.013 342.663 C 169.490 343.426,168.561 344.310,167.948 344.627 C 167.336 344.943,165.921 346.044,164.805 347.072 C 162.400 349.288,162.012 349.569,159.400 351.000 C 158.300 351.602,156.860 352.670,156.200 353.372 C 155.540 354.074,154.005 355.126,152.788 355.710 C 151.571 356.295,150.078 357.292,149.471 357.926 C 148.481 358.959,147.399 359.538,142.892 361.442 C 142.173 361.746,141.003 362.545,140.292 363.219 C 139.139 364.310,134.275 366.394,132.867 366.398 C 132.574 366.399,131.584 367.006,130.667 367.747 C 128.859 369.208,125.016 370.800,123.298 370.800 C 121.928 370.800,118.837 371.932,117.800 372.813 C 116.666 373.777,113.888 374.683,110.400 375.227 C 105.771 375.949,102.951 376.591,98.600 377.913 C 90.607 380.342,87.903 380.509,53.374 380.700 L 22.147 380.873 20.874 379.423 L 19.600 377.972 19.600 360.065 L 19.600 342.157 20.900 340.913 L 22.200 339.669 52.600 339.493 C 84.437 339.308,87.931 339.117,91.233 337.378 C 91.801 337.079,92.971 336.659,93.833 336.445 C 94.695 336.231,96.390 335.775,97.600 335.433 C 98.810 335.090,100.481 334.807,101.313 334.805 C 102.145 334.802,103.472 334.530,104.262 334.200 C 105.051 333.870,106.023 333.600,106.420 333.600 C 106.818 333.600,107.381 333.373,107.671 333.095 C 109.109 331.721,115.111 329.200,116.945 329.200 C 117.321 329.200,118.802 328.301,120.235 327.202 C 121.669 326.104,123.327 325.087,123.921 324.943 C 124.514 324.799,125.355 324.437,125.789 324.140 C 126.223 323.843,126.820 323.600,127.115 323.600 C 127.410 323.600,128.114 323.050,128.679 322.379 C 129.244 321.707,130.718 320.647,131.953 320.023 C 133.189 319.398,134.560 318.480,135.000 317.983 C 135.440 317.485,136.815 316.325,138.055 315.404 C 142.166 312.354,147.044 307.930,149.545 304.984 C 150.285 304.113,151.860 302.362,153.045 301.094 C 154.230 299.826,155.200 298.625,155.200 298.426 C 155.200 298.227,156.075 297.105,157.145 295.932 C 158.215 294.760,159.556 292.878,160.125 291.752 C 160.695 290.626,161.710 289.242,162.380 288.678 C 163.051 288.113,163.601 287.415,163.601 287.126 C 163.602 286.837,163.962 286.011,164.401 285.290 C 164.841 284.570,165.200 283.726,165.200 283.414 C 165.200 283.103,166.100 281.674,167.200 280.238 C 168.300 278.803,169.200 277.321,169.200 276.945 C 169.200 275.585,171.312 270.165,172.443 268.621 C 173.079 267.753,173.600 266.740,173.600 266.370 C 173.600 266.000,173.852 265.091,174.161 264.349 C 174.470 263.607,174.845 261.920,174.995 260.600 C 175.305 257.871,176.632 252.692,177.404 251.200 C 177.689 250.650,178.247 248.580,178.644 246.600 C 179.694 241.367,180.045 103.339,179.013 101.764 L 178.382 100.800 162.775 100.800 C 145.829 100.800,146.021 100.823,142.950 98.427 L 142.100 97.764 143.056 96.582 C 143.582 95.932,144.256 95.130,144.554 94.800 C 144.852 94.470,145.388 93.626,145.746 92.924 C 146.103 92.223,146.780 91.379,147.251 91.049 C 147.721 90.720,148.777 89.462,149.597 88.254 C 150.417 87.046,152.013 85.156,153.144 84.055 C 154.275 82.953,155.206 81.815,155.213 81.526 C 155.229 80.895,156.586 79.200,157.075 79.200 C 157.615 79.200,158.727 77.750,159.373 76.203 C 159.695 75.431,160.148 74.800,160.380 74.800 C 160.611 74.800,160.800 74.608,160.800 74.373 C 160.800 74.138,161.390 73.373,162.110 72.673 C 162.831 71.973,164.118 70.368,164.971 69.108 C 165.824 67.847,167.260 66.041,168.161 65.093 C 169.063 64.146,170.070 62.838,170.400 62.186 C 170.730 61.534,171.424 60.657,171.943 60.237 C 173.583 58.911,174.477 57.839,175.042 56.524 C 175.344 55.822,176.249 54.745,177.054 54.131 C 177.859 53.517,178.751 52.472,179.036 51.807 C 179.464 50.811,181.817 47.822,184.553 44.800 C 184.852 44.470,185.378 43.660,185.722 43.000 C 186.066 42.340,186.891 41.297,187.556 40.682 C 188.222 40.067,189.336 38.684,190.033 37.609 C 190.730 36.533,191.971 35.114,192.791 34.455 C 193.611 33.797,194.577 32.660,194.939 31.929 C 195.783 30.223,196.450 29.388,197.200 29.096 C 198.230 28.696,202.414 28.780,203.232 29.217 M226.354 264.600 C 225.731 264.939,224.780 266.232,224.000 267.799 C 223.281 269.246,222.376 270.599,221.990 270.806 C 220.102 271.816,219.044 275.168,218.166 282.916 C 217.944 284.878,217.677 285.460,216.424 286.716 C 214.812 288.333,213.600 290.607,213.600 292.014 C 213.600 294.344,212.644 298.000,212.031 298.013 C 210.246 298.051,208.246 302.026,207.923 306.177 C 207.813 307.586,207.660 307.790,206.485 308.092 C 202.326 309.163,202.936 320.800,207.150 320.800 C 207.589 320.800,208.061 321.510,208.549 322.900 C 209.447 325.460,210.129 326.277,211.645 326.610 C 212.876 326.880,213.600 327.823,213.600 329.156 C 213.600 330.376,215.438 332.000,216.818 332.000 C 217.595 332.000,218.000 332.203,218.000 332.592 C 218.000 334.457,219.305 336.374,221.021 337.029 C 222.433 337.569,222.861 337.973,223.244 339.132 C 223.851 340.971,225.060 341.970,226.700 341.987 C 227.671 341.997,228.000 342.179,228.000 342.706 C 228.000 344.416,229.441 346.147,231.390 346.779 C 233.004 347.302,233.378 347.618,233.754 348.780 C 234.285 350.423,236.211 351.722,238.481 351.969 C 238.636 351.986,239.059 352.625,239.422 353.389 C 240.164 354.954,243.591 356.925,246.390 357.398 C 247.527 357.590,248.000 357.869,248.000 358.346 C 248.000 359.999,250.084 361.415,253.604 362.156 C 254.156 362.272,254.931 362.914,255.327 363.584 C 255.722 364.253,256.278 364.800,256.561 364.800 C 256.845 364.800,257.470 365.140,257.949 365.556 C 258.429 365.972,259.672 366.439,260.711 366.594 C 263.207 366.967,265.200 367.823,265.200 368.524 C 265.200 370.190,271.146 372.043,277.602 372.389 C 277.714 372.395,278.038 372.928,278.324 373.573 C 279.239 375.641,280.840 376.217,287.534 376.890 L 293.631 377.502 294.956 379.036 C 297.269 381.711,296.672 381.675,340.862 381.868 L 379.924 382.040 380.962 381.002 L 382.000 379.964 382.000 360.271 C 382.000 338.357,382.105 339.200,379.288 338.418 C 378.329 338.151,367.735 338.004,349.483 338.002 C 321.721 338.000,321.150 337.984,320.308 337.200 C 319.836 336.760,319.207 336.400,318.911 336.400 C 318.614 336.400,317.939 336.116,317.410 335.770 C 315.851 334.748,311.425 333.988,304.693 333.587 C 297.418 333.154,296.400 332.965,296.400 332.046 C 296.400 330.419,294.225 329.331,289.484 328.587 C 285.632 327.983,284.879 327.746,284.568 327.037 C 283.943 325.614,280.519 323.600,278.725 323.600 C 277.494 323.600,276.945 323.362,276.270 322.538 C 273.928 319.679,270.911 318.000,268.115 318.000 C 267.528 318.000,267.232 317.661,267.058 316.788 C 266.742 315.208,265.060 313.678,263.470 313.523 C 262.400 313.419,262.068 313.107,261.302 311.490 C 260.694 310.205,260.038 309.449,259.299 309.181 C 257.222 308.429,256.400 307.864,256.400 307.186 C 256.400 306.130,255.025 304.638,253.500 304.039 C 252.425 303.617,251.931 303.061,251.293 301.552 C 250.701 300.149,250.156 299.495,249.336 299.204 C 247.356 298.501,247.009 298.161,246.600 296.521 C 246.076 294.423,245.461 293.738,243.824 293.431 C 242.355 293.155,242.000 292.612,242.000 290.644 C 242.000 289.934,241.736 289.004,241.413 288.576 C 241.090 288.149,240.820 287.516,240.813 287.170 C 240.799 286.467,239.186 284.800,238.520 284.800 C 237.806 284.800,236.885 283.039,236.598 281.126 C 236.361 279.547,235.959 278.831,234.014 276.523 C 233.793 276.261,233.326 275.886,232.977 275.691 C 232.562 275.459,232.212 274.378,231.965 272.568 C 230.999 265.469,229.271 263.015,226.354 264.600 M229.639 270.548 C 230.277 271.897,230.800 273.280,230.800 273.622 C 230.800 274.815,232.477 279.200,232.937 279.213 C 233.559 279.229,234.426 280.546,235.563 283.200 C 236.081 284.410,236.706 285.850,236.952 286.400 C 237.199 286.950,238.165 288.179,239.100 289.132 C 240.127 290.178,240.800 291.235,240.800 291.804 C 240.800 292.409,241.514 293.433,242.798 294.672 C 243.897 295.733,244.797 296.754,244.798 296.942 C 244.807 298.429,258.117 312.024,261.931 314.442 C 262.929 315.075,264.388 316.292,265.173 317.146 C 265.958 318.001,267.450 319.070,268.489 319.522 C 269.528 319.975,271.096 321.078,271.973 321.973 C 272.851 322.868,273.895 323.600,274.295 323.600 C 274.695 323.600,275.377 323.843,275.811 324.140 C 276.245 324.437,277.110 324.805,277.734 324.957 C 278.890 325.238,279.117 325.391,281.170 327.275 C 281.814 327.866,283.119 328.561,284.070 328.818 C 288.320 329.968,291.105 331.047,292.416 332.051 C 294.006 333.267,297.318 334.230,301.200 334.604 C 303.880 334.862,308.338 336.021,310.800 337.100 C 314.550 338.742,317.815 338.920,348.800 339.165 L 378.600 339.400 379.700 340.446 L 380.800 341.492 380.800 360.128 L 380.800 378.764 379.767 379.796 L 378.735 380.829 343.867 380.706 C 306.169 380.573,305.458 380.535,300.222 378.340 C 297.359 377.140,294.948 376.504,292.060 376.189 C 287.951 375.741,283.630 374.528,281.854 373.325 C 279.870 371.980,276.724 370.864,274.800 370.823 C 273.134 370.787,270.243 369.421,268.668 367.925 C 268.046 367.334,266.966 366.735,266.268 366.594 C 263.520 366.039,260.243 364.542,259.061 363.300 C 258.381 362.585,257.659 362.000,257.458 362.000 C 256.070 362.000,252.076 359.932,250.312 358.300 C 249.183 357.255,248.039 356.400,247.770 356.400 C 246.918 356.400,244.071 354.598,243.227 353.525 C 242.779 352.956,241.489 352.007,240.359 351.417 C 238.093 350.232,238.053 350.202,235.170 347.523 C 234.059 346.490,232.666 345.430,232.075 345.168 C 231.484 344.905,230.402 343.896,229.672 342.924 C 228.941 341.953,227.951 340.994,227.472 340.793 C 226.392 340.341,224.800 338.991,224.800 338.527 C 224.800 338.161,224.035 337.362,221.300 334.872 C 220.365 334.020,219.600 333.125,219.600 332.881 C 219.600 332.637,218.622 331.664,217.427 330.719 C 216.232 329.774,215.076 328.518,214.858 327.930 C 214.641 327.341,213.720 326.140,212.813 325.259 C 211.262 323.754,209.726 321.759,209.073 320.400 C 208.914 320.070,208.353 319.080,207.826 318.200 C 204.754 313.072,204.737 312.848,207.200 310.084 C 208.655 308.452,209.204 307.508,209.213 306.620 C 209.227 305.364,210.598 302.714,212.459 300.347 C 213.042 299.606,213.916 297.572,214.401 295.826 C 214.886 294.080,215.760 291.936,216.342 291.062 C 218.511 287.801,218.818 287.092,219.194 284.477 C 219.624 281.488,220.786 277.921,221.983 275.922 C 222.418 275.195,223.265 273.643,223.865 272.473 C 225.159 269.951,227.414 267.438,228.037 267.823 C 228.280 267.973,229.002 269.200,229.639 270.548 M188.500 343.488 C 188.005 344.059,187.600 344.673,187.600 344.851 C 187.600 345.463,188.679 344.760,189.551 343.581 C 190.651 342.093,189.775 342.016,188.500 343.488 M210.647 343.416 C 211.343 344.478,212.800 345.475,212.800 344.889 C 212.800 344.484,210.680 342.400,210.269 342.400 C 210.111 342.400,210.281 342.857,210.647 343.416 " stroke="none" fill="#649cd4" fill-rule="evenodd"></path><path id="path4" d="M197.200 29.096 C 196.450 29.388,195.783 30.223,194.939 31.929 C 194.577 32.660,193.611 33.797,192.791 34.455 C 191.971 35.114,190.730 36.533,190.033 37.609 C 189.336 38.684,188.222 40.067,187.556 40.682 C 186.891 41.297,186.066 42.340,185.722 43.000 C 185.378 43.660,184.852 44.470,184.553 44.800 C 181.817 47.822,179.464 50.811,179.036 51.807 C 178.751 52.472,177.859 53.517,177.054 54.131 C 176.249 54.745,175.344 55.822,175.042 56.524 C 174.477 57.839,173.583 58.911,171.943 60.237 C 171.424 60.657,170.730 61.534,170.400 62.186 C 170.070 62.838,169.063 64.146,168.161 65.093 C 167.260 66.041,165.824 67.847,164.971 69.108 C 164.118 70.368,162.831 71.973,162.110 72.673 C 161.390 73.373,160.800 74.138,160.800 74.373 C 160.800 74.608,160.611 74.800,160.380 74.800 C 160.148 74.800,159.695 75.431,159.373 76.203 C 158.727 77.750,157.615 79.200,157.075 79.200 C 156.586 79.200,155.229 80.895,155.213 81.526 C 155.206 81.815,154.275 82.953,153.144 84.055 C 152.013 85.156,150.417 87.046,149.597 88.254 C 148.777 89.462,147.721 90.720,147.251 91.049 C 146.780 91.379,146.103 92.223,145.746 92.924 C 145.388 93.626,144.852 94.470,144.554 94.800 C 144.256 95.130,143.582 95.932,143.056 96.582 L 142.100 97.764 142.950 98.427 C 146.021 100.823,145.829 100.800,162.775 100.800 L 178.382 100.800 179.013 101.764 C 180.045 103.339,179.694 241.367,178.644 246.600 C 178.247 248.580,177.689 250.650,177.404 251.200 C 176.632 252.692,175.305 257.871,174.995 260.600 C 174.845 261.920,174.470 263.607,174.161 264.349 C 173.852 265.091,173.600 266.000,173.600 266.370 C 173.600 266.740,173.079 267.753,172.443 268.621 C 171.312 270.165,169.200 275.585,169.200 276.945 C 169.200 277.321,168.300 278.803,167.200 280.238 C 166.100 281.674,165.200 283.103,165.200 283.414 C 165.200 283.726,164.841 284.570,164.401 285.290 C 163.962 286.011,163.602 286.837,163.601 287.126 C 163.601 287.415,163.051 288.113,162.380 288.678 C 161.710 289.242,160.695 290.626,160.125 291.752 C 159.556 292.878,158.215 294.760,157.145 295.932 C 156.075 297.105,155.200 298.227,155.200 298.426 C 155.200 298.625,154.230 299.826,153.045 301.094 C 151.860 302.362,150.285 304.113,149.545 304.984 C 147.044 307.930,142.166 312.354,138.055 315.404 C 136.815 316.325,135.440 317.485,135.000 317.983 C 134.560 318.480,133.189 319.398,131.953 320.023 C 130.718 320.647,129.244 321.707,128.679 322.379 C 128.114 323.050,127.410 323.600,127.115 323.600 C 126.820 323.600,126.223 323.843,125.789 324.140 C 125.355 324.437,124.514 324.799,123.921 324.943 C 123.327 325.087,121.669 326.104,120.235 327.202 C 118.802 328.301,117.321 329.200,116.945 329.200 C 115.111 329.200,109.109 331.721,107.671 333.095 C 107.381 333.373,106.818 333.600,106.420 333.600 C 106.023 333.600,105.051 333.870,104.262 334.200 C 103.472 334.530,102.145 334.802,101.313 334.805 C 100.481 334.807,98.810 335.090,97.600 335.433 C 96.390 335.775,94.695 336.231,93.833 336.445 C 92.971 336.659,91.801 337.079,91.233 337.378 C 87.931 339.117,84.437 339.308,52.600 339.493 L 22.200 339.669 20.900 340.913 L 19.600 342.157 19.600 360.065 L 19.600 377.972 20.874 379.423 L 22.147 380.873 53.374 380.700 C 87.903 380.509,90.607 380.342,98.600 377.913 C 102.951 376.591,105.771 375.949,110.400 375.227 C 113.888 374.683,116.666 373.777,117.800 372.813 C 118.837 371.932,121.928 370.800,123.298 370.800 C 125.016 370.800,128.859 369.208,130.667 367.747 C 131.584 367.006,132.574 366.399,132.867 366.398 C 134.275 366.394,139.139 364.310,140.292 363.219 C 141.003 362.545,142.173 361.746,142.892 361.442 C 147.399 359.538,148.481 358.959,149.471 357.926 C 150.078 357.292,151.571 356.295,152.788 355.710 C 154.005 355.126,155.540 354.074,156.200 353.372 C 156.860 352.670,158.300 351.602,159.400 351.000 C 162.012 349.569,162.400 349.288,164.805 347.072 C 165.921 346.044,167.336 344.943,167.948 344.627 C 168.561 344.310,169.490 343.426,170.013 342.663 C 170.536 341.900,171.512 340.959,172.182 340.571 C 173.320 339.912,174.214 339.064,176.216 336.745 C 176.664 336.225,177.694 335.266,178.503 334.612 C 179.313 333.959,180.177 332.939,180.423 332.346 C 180.668 331.752,181.424 330.846,182.101 330.333 C 183.604 329.195,185.200 327.523,185.200 327.087 C 185.200 326.679,185.893 325.836,187.350 324.475 C 188.522 323.380,189.970 321.316,191.331 318.800 C 191.748 318.030,192.788 316.759,193.644 315.976 C 194.500 315.193,195.200 314.418,195.200 314.254 C 195.200 313.501,196.828 310.500,197.621 309.790 C 198.814 308.722,200.027 306.685,201.187 303.800 C 201.717 302.480,202.626 300.923,203.205 300.340 C 204.158 299.382,205.720 295.775,206.299 293.200 C 206.422 292.650,207.102 291.480,207.809 290.600 C 209.218 288.845,210.800 284.984,210.800 283.298 C 210.800 281.971,211.900 279.007,212.998 277.375 C 214.074 275.776,214.573 274.021,215.606 268.200 C 216.075 265.560,217.010 261.706,217.683 259.637 C 220.584 250.723,220.495 253.278,220.676 173.610 C 220.824 108.752,220.898 102.155,221.481 101.510 C 222.076 100.853,223.288 100.800,237.675 100.800 L 253.227 100.800 255.138 99.831 C 257.913 98.425,258.330 97.803,257.259 96.662 C 256.786 96.160,256.400 95.535,256.400 95.274 C 256.400 95.013,256.225 94.800,256.010 94.800 C 255.796 94.800,255.337 94.252,254.990 93.581 C 254.137 91.930,253.129 90.800,252.511 90.800 C 252.230 90.800,252.000 90.539,252.000 90.220 C 252.000 89.901,251.775 89.496,251.499 89.320 C 251.224 89.144,250.729 88.468,250.399 87.818 C 250.070 87.169,249.022 85.909,248.070 85.018 C 247.119 84.128,245.887 82.635,245.332 81.700 C 244.778 80.765,243.780 79.613,243.116 79.140 C 242.451 78.666,241.613 77.631,241.253 76.840 C 240.894 76.048,240.060 74.795,239.400 74.056 C 237.131 71.515,236.597 70.857,235.600 69.372 C 235.050 68.553,233.901 67.144,233.047 66.241 C 232.193 65.339,230.987 63.790,230.368 62.800 C 229.748 61.810,228.467 60.272,227.521 59.382 C 226.574 58.491,225.537 57.231,225.216 56.582 C 224.642 55.418,222.930 53.600,222.409 53.600 C 222.262 53.600,221.757 52.835,221.287 51.900 C 220.817 50.965,219.530 49.210,218.426 48.000 C 217.323 46.790,216.415 45.575,216.410 45.300 C 216.404 45.025,216.225 44.800,216.010 44.800 C 215.796 44.800,215.320 44.219,214.953 43.508 C 214.585 42.798,213.545 41.491,212.642 40.605 C 211.739 39.718,210.730 38.459,210.400 37.805 C 210.070 37.152,208.967 35.803,207.948 34.809 C 206.929 33.814,205.627 32.243,205.054 31.317 C 203.597 28.964,200.090 27.973,197.200 29.096 M202.967 31.843 C 203.315 31.976,203.600 32.331,203.600 32.630 C 203.600 33.925,205.253 36.271,206.514 36.766 C 207.487 37.148,208.014 37.742,208.568 39.080 C 209.293 40.834,210.094 41.920,212.220 44.032 C 213.227 45.032,213.971 46.147,214.736 47.800 C 214.939 48.240,216.027 49.410,217.153 50.399 C 218.279 51.389,219.200 52.503,219.200 52.875 C 219.200 53.654,220.897 55.536,222.500 56.534 C 223.105 56.910,223.600 57.491,223.600 57.823 C 223.600 59.269,226.002 61.975,227.300 61.991 C 227.705 61.996,228.000 62.305,228.000 62.724 C 228.000 63.121,228.264 63.796,228.587 64.224 C 228.910 64.651,229.180 65.213,229.187 65.473 C 229.194 65.733,230.189 66.983,231.398 68.251 C 232.607 69.520,233.699 70.882,233.825 71.279 C 233.951 71.675,234.222 72.000,234.427 72.000 C 234.632 72.000,234.802 72.315,234.804 72.700 C 234.806 73.085,235.273 73.760,235.841 74.200 C 237.620 75.579,239.199 77.353,239.213 77.989 C 239.226 78.644,240.951 80.791,241.481 80.813 C 242.004 80.835,243.600 82.295,243.600 82.752 C 243.600 83.833,245.291 86.249,246.385 86.731 C 247.208 87.094,247.852 87.856,248.414 89.131 C 249.221 90.960,249.658 91.516,252.300 94.071 C 253.015 94.763,253.600 95.548,253.600 95.815 C 253.600 96.083,253.870 96.526,254.200 96.800 C 256.236 98.490,253.993 98.760,236.909 98.885 L 221.217 99.000 220.109 100.109 L 219.000 101.218 218.723 171.709 C 218.443 243.098,218.369 247.288,217.364 248.294 C 217.054 248.603,216.696 249.338,216.567 249.928 C 216.439 250.518,216.073 251.810,215.755 252.800 C 215.437 253.790,215.003 256.220,214.792 258.200 C 213.651 268.868,213.209 271.066,211.819 273.000 C 210.661 274.609,209.200 278.577,209.200 280.109 C 209.200 282.605,207.936 285.969,206.344 287.710 C 205.495 288.639,204.800 289.644,204.800 289.942 C 204.800 291.587,202.668 297.268,201.850 297.804 C 200.875 298.443,199.200 301.290,199.200 302.307 C 199.200 303.415,197.825 305.977,197.100 306.220 C 196.715 306.349,196.400 306.609,196.400 306.798 C 196.400 306.988,196.166 307.381,195.879 307.671 C 195.153 308.408,193.600 311.713,193.600 312.521 C 193.600 312.888,192.877 313.667,191.994 314.252 C 190.936 314.951,190.082 315.979,189.496 317.257 C 189.006 318.326,188.469 319.200,188.302 319.200 C 188.136 319.200,188.000 319.470,188.000 319.800 C 188.000 320.130,187.846 320.400,187.658 320.400 C 187.239 320.400,185.581 321.975,184.894 323.026 C 184.616 323.452,184.042 324.340,183.618 325.000 C 183.194 325.660,182.657 326.417,182.424 326.683 C 182.191 326.949,182.000 327.354,182.000 327.583 C 182.000 327.812,181.775 328.006,181.500 328.013 C 180.863 328.030,179.200 329.405,179.200 329.915 C 179.200 330.128,178.930 330.526,178.600 330.800 C 178.270 331.074,178.000 331.614,178.000 332.000 C 178.000 332.411,177.477 332.919,176.743 333.224 C 175.078 333.913,173.869 335.109,173.227 336.700 C 172.915 337.474,172.419 338.000,172.000 338.000 C 171.614 338.000,171.074 338.270,170.800 338.600 C 170.526 338.930,170.128 339.200,169.915 339.200 C 169.450 339.200,168.033 340.836,168.011 341.400 C 167.994 341.816,165.584 343.600,165.038 343.600 C 164.442 343.600,160.834 346.603,160.817 347.113 C 160.808 347.394,160.485 347.741,160.100 347.883 C 159.715 348.025,159.310 348.257,159.200 348.398 C 159.090 348.540,158.190 349.048,157.200 349.529 C 156.210 350.009,154.921 351.077,154.335 351.901 C 153.484 353.100,152.777 353.552,150.801 354.158 C 149.442 354.575,148.239 355.153,148.128 355.443 C 148.017 355.733,147.592 356.076,147.184 356.205 C 146.775 356.335,146.338 356.747,146.213 357.120 C 145.967 357.855,143.386 359.200,142.223 359.200 C 141.110 359.200,138.526 360.806,138.086 361.772 C 137.842 362.306,137.015 362.846,135.944 363.168 C 134.985 363.457,133.403 363.943,132.429 364.247 C 131.455 364.551,130.375 364.802,130.029 364.805 C 129.683 364.808,128.661 365.497,127.757 366.336 C 126.060 367.913,122.622 369.200,120.109 369.200 C 118.433 369.200,114.409 370.751,113.296 371.825 C 111.946 373.130,109.375 373.628,97.800 374.829 C 93.847 375.238,90.349 376.166,88.800 377.214 C 86.627 378.684,23.491 379.731,22.080 378.320 C 21.371 377.611,21.391 342.668,22.100 342.091 C 22.424 341.828,33.464 341.603,53.400 341.452 C 85.872 341.208,92.188 340.964,94.388 339.866 C 95.122 339.500,95.892 339.200,96.100 339.200 C 96.307 339.200,96.990 338.834,97.619 338.387 C 99.124 337.315,102.180 336.410,104.313 336.404 C 106.757 336.398,110.721 334.956,112.667 333.364 C 113.584 332.614,114.597 332.000,114.918 332.000 C 115.240 332.000,116.149 331.730,116.938 331.400 C 117.728 331.070,118.774 330.800,119.261 330.800 C 119.749 330.800,121.030 330.057,122.106 329.149 C 123.183 328.241,125.253 326.997,126.706 326.384 C 129.635 325.148,131.446 323.831,131.735 322.727 C 131.840 322.327,132.230 322.000,132.602 322.000 C 133.743 322.000,135.977 320.757,137.561 319.241 C 138.389 318.449,140.442 316.810,142.123 315.600 C 143.804 314.390,145.187 313.220,145.197 313.000 C 145.217 312.523,146.973 310.800,147.440 310.800 C 147.921 310.800,150.800 307.907,150.800 307.423 C 150.800 306.960,154.388 303.600,154.883 303.600 C 155.057 303.600,155.200 303.418,155.200 303.196 C 155.200 302.590,157.929 298.771,159.352 297.385 C 160.627 296.142,162.000 293.649,162.000 292.574 C 162.000 292.244,162.315 291.855,162.700 291.708 C 164.091 291.178,165.184 289.752,166.125 287.243 C 166.653 285.836,167.920 283.653,168.942 282.390 C 169.964 281.128,170.800 279.708,170.800 279.235 C 170.800 278.761,171.070 277.728,171.400 276.938 C 171.730 276.149,172.000 275.234,172.000 274.907 C 172.000 274.579,172.690 273.476,173.533 272.456 C 175.175 270.467,176.397 266.943,176.404 264.174 C 176.410 262.166,177.341 259.088,178.387 257.619 C 178.834 256.990,179.200 256.307,179.200 256.100 C 179.200 255.892,179.500 255.122,179.866 254.388 C 181.123 251.868,181.275 244.183,181.461 173.600 C 181.629 109.519,181.587 102.859,181.006 101.473 C 179.904 98.843,179.609 98.800,162.587 98.800 C 148.667 98.800,146.746 98.685,145.671 97.784 C 145.403 97.559,147.644 94.379,148.405 93.904 C 148.842 93.631,149.200 93.257,149.200 93.073 C 149.200 92.889,149.749 92.189,150.420 91.518 C 151.091 90.847,151.745 89.777,151.872 89.139 C 152.081 88.096,153.802 86.404,154.662 86.397 C 155.127 86.394,156.400 84.090,156.400 83.253 C 156.400 82.878,157.278 81.916,158.350 81.115 C 159.573 80.202,160.639 78.959,161.209 77.781 C 161.746 76.672,162.650 75.590,163.417 75.137 C 164.131 74.716,164.936 73.838,165.206 73.186 C 165.476 72.534,165.855 72.000,166.049 72.000 C 166.242 72.000,166.402 71.775,166.404 71.500 C 166.407 71.225,167.241 70.100,168.258 69.000 C 170.438 66.643,171.767 64.625,172.144 63.100 C 172.318 62.396,172.681 62.000,173.153 62.000 C 174.175 62.000,176.006 60.072,176.279 58.707 C 176.403 58.085,176.976 57.216,177.552 56.776 C 180.230 54.731,180.800 54.162,180.800 53.533 C 180.800 53.161,181.070 52.587,181.400 52.257 C 181.730 51.927,182.000 51.464,182.000 51.229 C 182.000 50.993,182.156 50.800,182.346 50.800 C 183.031 50.800,185.131 48.561,186.193 46.698 C 186.790 45.653,187.675 44.483,188.160 44.098 C 188.645 43.714,189.162 43.085,189.309 42.700 C 189.455 42.315,189.757 42.000,189.979 42.000 C 190.456 42.000,192.000 39.108,192.000 38.215 C 192.000 37.875,192.720 37.286,193.600 36.904 C 194.480 36.523,195.200 36.006,195.200 35.755 C 195.200 35.503,195.470 35.074,195.800 34.800 C 196.130 34.526,196.400 33.883,196.400 33.371 C 196.400 31.854,200.506 30.898,202.967 31.843 M226.275 268.948 C 225.550 269.717,224.465 271.304,223.865 272.473 C 223.265 273.643,222.418 275.195,221.983 275.922 C 220.786 277.921,219.624 281.488,219.194 284.477 C 218.818 287.092,218.511 287.801,216.342 291.062 C 215.760 291.936,214.886 294.080,214.401 295.826 C 213.916 297.572,213.042 299.606,212.459 300.347 C 210.598 302.714,209.227 305.364,209.213 306.620 C 209.204 307.508,208.655 308.452,207.200 310.084 C 204.737 312.848,204.754 313.072,207.826 318.200 C 208.353 319.080,208.914 320.070,209.073 320.400 C 209.726 321.759,211.262 323.754,212.813 325.259 C 213.720 326.140,214.641 327.341,214.858 327.930 C 215.076 328.518,216.232 329.774,217.427 330.719 C 218.622 331.664,219.600 332.637,219.600 332.881 C 219.600 333.125,220.365 334.020,221.300 334.872 C 224.035 337.362,224.800 338.161,224.800 338.527 C 224.800 338.991,226.392 340.341,227.472 340.793 C 227.951 340.994,228.941 341.953,229.672 342.924 C 230.402 343.896,231.484 344.905,232.075 345.168 C 232.666 345.430,234.059 346.490,235.170 347.523 C 238.053 350.202,238.093 350.232,240.359 351.417 C 241.489 352.007,242.779 352.956,243.227 353.525 C 244.071 354.598,246.918 356.400,247.770 356.400 C 248.039 356.400,249.183 357.255,250.312 358.300 C 252.076 359.932,256.070 362.000,257.458 362.000 C 257.659 362.000,258.381 362.585,259.061 363.300 C 260.243 364.542,263.520 366.039,266.268 366.594 C 266.966 366.735,268.046 367.334,268.668 367.925 C 270.243 369.421,273.134 370.787,274.800 370.823 C 276.724 370.864,279.870 371.980,281.854 373.325 C 283.630 374.528,287.951 375.741,292.060 376.189 C 294.948 376.504,297.359 377.140,300.222 378.340 C 305.458 380.535,306.169 380.573,343.867 380.706 L 378.735 380.829 379.767 379.796 L 380.800 378.764 380.800 360.128 L 380.800 341.492 379.700 340.446 L 378.600 339.400 348.800 339.165 C 317.815 338.920,314.550 338.742,310.800 337.100 C 308.338 336.021,303.880 334.862,301.200 334.604 C 297.318 334.230,294.006 333.267,292.416 332.051 C 291.105 331.047,288.320 329.968,284.070 328.818 C 283.119 328.561,281.814 327.866,281.170 327.275 C 279.117 325.391,278.890 325.238,277.734 324.957 C 277.110 324.805,276.245 324.437,275.811 324.140 C 275.377 323.843,274.695 323.600,274.295 323.600 C 273.895 323.600,272.851 322.868,271.973 321.973 C 271.096 321.078,269.528 319.975,268.489 319.522 C 267.450 319.070,265.958 318.001,265.173 317.146 C 264.388 316.292,262.929 315.075,261.931 314.442 C 258.726 312.410,250.705 304.488,245.831 298.542 C 245.264 297.850,244.799 297.130,244.798 296.942 C 244.797 296.754,243.897 295.733,242.798 294.672 C 241.514 293.433,240.800 292.409,240.800 291.804 C 240.800 291.235,240.127 290.178,239.100 289.132 C 238.165 288.179,237.199 286.950,236.952 286.400 C 236.706 285.850,236.081 284.410,235.563 283.200 C 234.426 280.546,233.559 279.229,232.937 279.213 C 232.477 279.200,230.800 274.815,230.800 273.622 C 230.799 272.791,228.597 268.169,228.037 267.823 C 227.793 267.672,227.001 268.179,226.275 268.948 M229.997 277.400 C 230.608 279.248,231.378 280.649,232.261 281.519 C 232.998 282.245,233.600 283.179,233.600 283.596 C 233.600 284.012,233.775 284.461,233.989 284.593 C 234.203 284.726,234.567 285.536,234.799 286.395 C 235.045 287.309,236.045 288.860,237.210 290.134 C 238.304 291.332,239.200 292.516,239.200 292.765 C 239.200 293.491,241.087 296.132,242.201 296.965 C 242.764 297.386,243.524 298.363,243.891 299.136 C 244.258 299.909,245.603 301.609,246.879 302.913 C 248.156 304.218,249.200 305.440,249.200 305.628 C 249.200 305.817,249.560 306.165,250.000 306.400 C 250.440 306.635,250.800 307.002,250.800 307.214 C 250.800 307.642,252.254 309.200,252.654 309.200 C 252.794 309.200,253.307 309.605,253.794 310.100 C 256.210 312.555,259.395 315.312,260.910 316.258 C 261.840 316.839,263.261 318.001,264.069 318.842 C 264.878 319.682,266.042 320.496,266.656 320.650 C 267.904 320.963,268.322 321.251,270.138 323.049 C 271.296 324.195,274.620 325.999,276.628 326.572 C 277.084 326.702,277.984 327.302,278.628 327.904 C 280.072 329.254,281.739 330.055,285.532 331.220 C 287.144 331.716,288.674 332.329,288.932 332.583 C 290.356 333.988,295.081 335.485,301.468 336.555 C 302.165 336.672,303.695 337.236,304.868 337.808 C 310.028 340.329,312.991 340.532,347.000 340.698 C 377.695 340.849,377.803 340.852,378.700 341.694 L 379.600 342.539 379.600 360.144 C 379.600 377.668,379.596 377.753,378.730 378.674 L 377.861 379.600 355.230 379.574 C 320.107 379.534,312.707 379.174,306.000 377.183 C 301.905 375.966,298.190 375.174,294.660 374.763 C 291.213 374.362,287.269 373.569,286.600 373.142 C 284.256 371.646,281.858 370.698,278.023 369.752 C 275.416 369.109,272.935 368.240,272.231 367.724 C 270.493 366.447,267.407 364.996,264.600 364.136 C 263.280 363.731,261.750 362.947,261.200 362.393 C 260.650 361.839,259.120 360.884,257.800 360.271 C 253.108 358.092,252.585 357.789,251.319 356.514 C 250.615 355.805,249.540 355.100,248.931 354.947 C 247.243 354.523,245.461 353.350,244.470 352.009 C 243.978 351.344,243.400 350.800,243.184 350.800 C 242.592 350.800,238.875 348.102,237.044 346.342 C 236.153 345.487,234.654 344.414,233.712 343.958 C 232.771 343.502,232.000 343.002,232.000 342.848 C 232.000 342.311,228.991 339.368,227.855 338.795 C 227.226 338.477,226.557 337.853,226.369 337.408 C 225.976 336.478,224.593 334.800,224.219 334.800 C 223.528 334.800,220.800 331.949,220.800 331.226 C 220.800 331.002,219.857 330.073,218.704 329.162 C 217.551 328.250,216.403 327.031,216.152 326.452 C 215.902 325.874,214.947 324.590,214.031 323.600 C 213.115 322.610,211.887 320.990,211.302 320.000 C 210.717 319.010,210.117 318.110,209.969 318.000 C 209.822 317.890,209.570 317.170,209.411 316.400 C 209.252 315.630,208.869 314.601,208.561 314.114 C 207.911 313.087,207.824 312.000,208.393 312.000 C 208.833 312.000,210.800 308.321,210.800 307.498 C 210.800 306.663,212.337 303.867,213.000 303.496 C 213.330 303.311,213.600 302.958,213.600 302.712 C 213.600 302.465,213.830 301.979,214.112 301.631 C 214.393 301.284,215.055 299.650,215.582 298.000 C 216.109 296.350,217.112 294.182,217.811 293.182 C 219.153 291.261,220.800 287.019,220.800 285.485 C 220.800 284.261,222.329 279.901,222.934 279.400 C 223.199 279.180,224.127 277.560,224.996 275.800 C 227.708 270.305,227.646 270.285,229.997 277.400 " stroke="none" fill="#88b4e0" fill-rule="evenodd"></path></g></svg>