<svg id="svg" xmlns="http://www.w3.org/2000/svg" xmlns:xlink="http://www.w3.org/1999/xlink" width="400" height="400" viewBox="0, 0, 400,400"><g id="svgg"><path id="path0" d="M243.398 43.700 C 243.278 44.195,243.230 60.440,243.290 79.800 L 243.400 115.000 278.800 115.110 C 317.853 115.231,317.008 115.266,314.383 113.633 C 313.402 113.022,312.330 112.000,312.000 111.361 C 311.206 109.825,310.587 109.200,309.858 109.200 C 309.213 109.200,307.773 107.574,307.412 106.439 C 307.291 106.057,306.573 105.449,305.818 105.089 C 305.056 104.726,304.054 103.757,303.570 102.917 C 303.090 102.083,302.135 101.117,301.448 100.771 C 300.762 100.425,299.840 99.479,299.400 98.669 C 298.960 97.858,298.240 97.085,297.800 96.951 C 296.720 96.623,295.200 95.191,295.200 94.502 C 295.200 93.840,294.591 93.235,293.034 92.353 C 292.407 91.998,291.602 91.193,291.247 90.566 C 290.365 89.009,289.760 88.400,289.098 88.400 C 288.463 88.400,287.038 86.939,286.679 85.917 C 286.546 85.541,285.729 84.787,284.863 84.239 C 283.996 83.692,283.057 82.727,282.777 82.093 C 282.497 81.460,281.570 80.540,280.717 80.049 C 279.846 79.548,278.879 78.555,278.511 77.782 C 278.151 77.027,277.543 76.309,277.161 76.188 C 276.026 75.827,274.400 74.387,274.400 73.742 C 274.400 73.011,273.773 72.391,272.232 71.600 C 271.590 71.270,270.601 70.235,270.035 69.300 C 269.469 68.365,268.721 67.600,268.373 67.600 C 267.598 67.600,266.000 65.964,266.000 65.171 C 266.000 64.854,265.235 64.131,264.300 63.565 C 263.365 62.999,262.330 62.010,262.000 61.368 C 261.209 59.827,260.589 59.200,259.858 59.200 C 259.213 59.200,257.773 57.574,257.412 56.439 C 257.291 56.057,256.573 55.449,255.818 55.089 C 255.056 54.726,254.054 53.757,253.570 52.917 C 253.090 52.083,252.135 51.117,251.448 50.771 C 250.762 50.425,249.840 49.479,249.400 48.669 C 248.960 47.858,248.240 47.085,247.800 46.951 C 246.720 46.623,245.200 45.191,245.200 44.502 C 245.200 43.955,244.274 42.800,243.836 42.800 C 243.715 42.800,243.517 43.205,243.398 43.700 M190.107 151.642 C 188.765 151.866,187.329 152.484,186.104 153.363 C 185.054 154.118,183.423 154.975,182.480 155.268 C 181.188 155.669,180.712 156.046,180.546 156.800 C 180.203 158.354,179.271 160.253,178.250 161.481 C 176.246 163.889,176.209 164.104,176.204 173.200 C 176.200 182.143,176.532 184.474,178.049 186.132 C 178.418 186.534,178.814 187.254,178.929 187.732 C 179.700 190.915,180.347 194.097,180.592 195.908 C 180.802 197.462,181.236 198.446,182.241 199.650 C 182.992 200.547,183.707 201.759,183.830 202.341 C 183.954 202.923,184.223 203.813,184.428 204.319 C 184.632 204.824,184.800 205.634,184.800 206.119 C 184.800 206.603,185.392 207.665,186.116 208.477 C 188.606 211.275,188.800 217.157,186.488 219.750 C 185.458 220.905,184.961 222.421,184.377 226.200 C 183.836 229.695,183.403 230.789,181.849 232.588 C 181.220 233.317,180.731 234.478,180.586 235.588 C 180.100 239.307,179.417 241.322,178.241 242.498 C 177.143 243.595,176.557 245.101,175.550 249.408 C 175.344 250.292,174.640 251.588,173.987 252.286 C 173.334 252.985,172.800 253.749,172.800 253.984 C 172.800 254.219,172.634 254.723,172.430 255.105 C 172.227 255.487,171.846 256.647,171.583 257.683 C 171.320 258.719,170.497 260.278,169.753 261.147 C 169.009 262.016,168.400 263.003,168.400 263.340 C 168.400 263.677,168.220 264.064,168.000 264.200 C 167.780 264.336,167.600 264.898,167.600 265.450 C 167.600 267.082,167.244 267.615,162.433 273.176 C 161.461 274.299,160.201 275.325,159.633 275.456 C 156.682 276.135,154.656 277.024,153.369 278.203 C 152.570 278.935,151.113 279.728,150.069 279.999 C 149.041 280.267,147.921 280.557,147.581 280.644 C 147.240 280.731,146.223 281.492,145.319 282.335 C 144.303 283.282,142.815 284.137,141.419 284.577 C 139.966 285.033,138.929 285.641,138.509 286.282 C 138.150 286.830,136.862 287.749,135.646 288.325 C 134.430 288.901,132.659 290.116,131.710 291.024 C 130.762 291.933,129.292 292.906,128.445 293.185 C 127.350 293.546,126.744 294.057,126.352 294.947 C 126.019 295.702,125.168 296.527,124.209 297.022 C 123.067 297.612,122.511 298.215,122.242 299.153 C 122.035 299.873,121.097 301.318,120.157 302.364 C 117.125 305.735,116.778 313.990,119.583 315.988 C 120.194 316.423,120.923 317.332,121.204 318.008 C 121.698 319.202,123.367 320.400,124.535 320.400 C 124.850 320.400,125.718 321.027,126.462 321.793 C 128.950 324.354,136.912 324.773,139.448 322.475 C 140.761 321.285,142.346 320.400,143.162 320.400 C 143.597 320.400,144.064 320.220,144.200 320.000 C 144.336 319.780,144.790 319.600,145.208 319.600 C 145.627 319.600,147.067 318.621,148.407 317.425 C 149.748 316.229,151.228 315.194,151.696 315.125 C 152.239 315.045,152.655 314.592,152.847 313.869 C 153.143 312.753,155.022 310.801,155.801 310.800 C 156.021 310.800,156.651 309.951,157.201 308.913 C 157.750 307.875,158.861 306.331,159.668 305.481 C 160.476 304.631,161.620 302.981,162.211 301.813 C 162.802 300.645,163.681 299.509,164.164 299.289 C 164.689 299.050,165.273 298.187,165.615 297.144 C 166.193 295.385,166.672 294.628,168.281 292.931 C 168.765 292.420,169.458 291.327,169.821 290.501 C 171.113 287.565,171.299 287.283,172.229 286.859 C 172.747 286.624,173.612 285.732,174.151 284.878 C 175.112 283.355,175.727 282.994,179.058 281.996 C 179.970 281.723,181.140 281.117,181.658 280.650 C 183.235 279.227,184.178 278.893,189.712 277.799 C 190.323 277.678,191.189 277.159,191.635 276.646 C 192.461 275.696,194.876 274.868,199.587 273.921 C 201.023 273.632,202.637 273.011,203.214 272.526 C 204.734 271.248,206.878 270.553,211.600 269.807 C 214.194 269.397,216.106 268.880,216.600 268.454 C 220.587 265.015,232.739 264.482,236.063 267.600 C 237.704 269.139,239.756 270.400,240.619 270.400 C 240.924 270.400,241.802 271.028,242.569 271.796 C 243.833 273.060,246.560 274.379,247.938 274.394 C 249.139 274.407,252.719 275.664,253.435 276.324 C 255.296 278.040,256.509 278.200,267.600 278.196 C 278.664 278.192,279.394 278.091,281.262 276.304 C 282.279 275.332,283.973 274.400,284.724 274.400 C 285.686 274.400,286.800 273.176,286.800 272.119 C 286.800 271.669,287.511 270.523,288.381 269.571 C 290.889 266.828,291.261 260.097,289.028 257.864 C 288.445 257.282,287.442 255.631,286.798 254.195 C 285.826 252.030,285.431 251.546,284.477 251.355 C 283.844 251.229,282.087 250.197,280.572 249.063 L 277.817 247.000 262.209 247.000 C 246.222 247.000,243.601 247.211,241.348 248.675 C 238.457 250.555,233.200 250.402,233.200 248.438 C 233.200 248.269,232.254 247.652,231.099 247.068 C 229.680 246.350,228.821 245.606,228.455 244.780 C 228.157 244.106,227.234 243.127,226.404 242.603 C 225.554 242.066,224.713 241.126,224.477 240.448 C 224.246 239.786,223.420 238.830,222.641 238.322 C 221.862 237.815,220.759 236.545,220.188 235.501 C 219.618 234.457,218.809 233.419,218.391 233.195 C 217.482 232.708,215.200 229.490,215.200 228.694 C 215.200 228.385,214.390 227.310,213.400 226.306 C 212.410 225.302,211.600 224.134,211.600 223.710 C 211.600 222.960,211.076 222.299,209.366 220.888 C 208.908 220.510,208.008 218.896,207.366 217.301 C 206.720 215.695,205.900 214.304,205.526 214.183 C 203.541 213.535,203.226 206.929,205.018 203.510 C 206.921 199.878,207.087 199.244,207.555 193.800 C 207.820 190.720,208.254 186.130,208.519 183.600 C 209.663 172.665,208.405 161.043,205.791 158.401 C 205.028 157.631,203.998 156.545,203.502 155.989 C 203.006 155.433,202.009 154.734,201.286 154.435 C 200.564 154.136,199.664 153.500,199.286 153.021 C 198.131 151.555,194.186 150.962,190.107 151.642 M195.085 167.700 C 197.292 170.109,196.496 180.658,193.990 182.206 C 193.327 182.616,191.916 179.001,191.649 176.207 C 190.972 169.119,192.629 165.018,195.085 167.700 M199.809 232.971 C 200.415 233.285,201.391 234.050,201.979 234.671 C 202.567 235.292,203.421 236.050,203.878 236.355 C 204.335 236.661,204.945 237.628,205.234 238.504 C 205.568 239.516,206.237 240.408,207.066 240.949 C 207.784 241.417,208.750 242.520,209.212 243.400 C 209.675 244.280,210.614 245.360,211.299 245.800 C 211.984 246.240,212.984 247.395,213.521 248.367 C 214.058 249.339,215.021 250.574,215.660 251.112 C 216.613 251.913,216.735 252.197,216.334 252.679 C 215.478 253.711,212.656 255.429,210.900 255.987 C 209.965 256.285,209.200 256.636,209.200 256.768 C 209.200 257.607,205.195 258.899,201.200 259.349 C 198.109 259.696,196.271 260.271,195.158 261.238 C 191.592 264.337,185.280 263.253,186.197 259.699 C 186.353 259.095,186.611 257.667,186.770 256.526 C 186.948 255.246,187.507 253.809,188.229 252.772 C 189.857 250.434,190.758 248.720,190.781 247.920 C 190.834 246.023,192.105 242.526,193.143 241.420 C 193.959 240.551,194.436 239.452,194.801 237.600 C 195.663 233.233,197.335 231.687,199.809 232.971 M269.872 259.680 C 272.418 260.601,270.213 263.200,266.885 263.200 C 264.818 263.200,259.197 260.646,260.406 260.255 C 260.732 260.150,261.540 259.883,262.200 259.663 C 263.891 259.100,268.293 259.109,269.872 259.680 " stroke="none" fill="#fcf3ef" fill-rule="evenodd"></path><path id="path1" d="M243.431 41.100 C 242.033 42.490,242.000 43.359,242.000 79.373 C 242.000 114.402,242.006 114.655,242.821 115.531 L 243.643 116.412 279.721 116.306 C 314.133 116.205,315.851 116.166,316.897 115.456 L 317.993 114.712 281.041 77.756 C 260.718 57.430,244.010 40.800,243.912 40.800 C 243.814 40.800,243.597 40.935,243.431 41.100 M244.629 43.371 C 244.943 43.686,245.200 44.194,245.200 44.502 C 245.200 45.191,246.720 46.623,247.800 46.951 C 248.240 47.085,248.960 47.858,249.400 48.669 C 249.840 49.479,250.762 50.425,251.448 50.771 C 252.135 51.117,253.090 52.083,253.570 52.917 C 254.054 53.757,255.056 54.726,255.818 55.089 C 256.573 55.449,257.291 56.057,257.412 56.439 C 257.773 57.574,259.213 59.200,259.858 59.200 C 260.589 59.200,261.209 59.827,262.000 61.368 C 262.330 62.010,263.365 62.999,264.300 63.565 C 265.235 64.131,266.000 64.854,266.000 65.171 C 266.000 65.964,267.598 67.600,268.373 67.600 C 268.721 67.600,269.469 68.365,270.035 69.300 C 270.601 70.235,271.590 71.270,272.232 71.600 C 273.773 72.391,274.400 73.011,274.400 73.742 C 274.400 74.387,276.026 75.827,277.161 76.188 C 277.543 76.309,278.151 77.027,278.511 77.782 C 278.879 78.555,279.846 79.548,280.717 80.049 C 281.570 80.540,282.497 81.460,282.777 82.093 C 283.057 82.727,283.996 83.692,284.863 84.239 C 285.729 84.787,286.546 85.541,286.679 85.917 C 287.038 86.939,288.463 88.400,289.098 88.400 C 289.760 88.400,290.365 89.009,291.247 90.566 C 291.602 91.193,292.407 91.998,293.034 92.353 C 294.591 93.235,295.200 93.840,295.200 94.502 C 295.200 95.191,296.720 96.623,297.800 96.951 C 298.240 97.085,298.960 97.858,299.400 98.669 C 299.840 99.479,300.762 100.425,301.448 100.771 C 302.135 101.117,303.090 102.083,303.570 102.917 C 304.054 103.757,305.056 104.726,305.818 105.089 C 306.573 105.449,307.291 106.057,307.412 106.439 C 307.773 107.574,309.213 109.200,309.858 109.200 C 310.587 109.200,311.206 109.825,312.000 111.361 C 312.330 112.000,313.402 113.022,314.383 113.633 C 317.008 115.266,317.853 115.231,278.800 115.110 L 243.400 115.000 243.290 79.800 C 243.170 41.400,243.152 41.895,244.629 43.371 M187.600 150.904 C 186.830 151.136,185.660 151.722,185.000 152.205 C 184.340 152.689,183.080 153.455,182.200 153.907 C 181.320 154.360,180.381 155.061,180.113 155.465 C 174.905 163.317,175.173 162.362,175.201 172.998 C 175.228 182.929,175.698 186.199,177.710 190.452 C 178.269 191.633,178.843 193.140,178.985 193.800 C 179.127 194.460,179.392 195.720,179.574 196.600 C 179.963 198.485,180.820 200.916,181.195 201.200 C 181.692 201.576,183.146 204.597,183.601 206.200 C 184.081 207.889,184.842 209.665,185.230 210.000 C 185.357 210.110,185.774 211.170,186.157 212.355 C 186.911 214.692,186.919 214.650,184.938 219.112 C 184.422 220.273,184.000 221.486,184.000 221.806 C 184.000 223.534,182.214 229.326,181.440 230.107 C 180.985 230.567,180.192 232.813,179.149 236.600 C 178.592 238.623,178.076 239.762,176.732 241.931 C 176.142 242.883,175.536 244.395,175.385 245.290 C 175.037 247.349,174.316 249.051,173.104 250.675 C 172.580 251.376,171.724 253.266,171.201 254.875 C 170.678 256.484,169.677 258.610,168.977 259.600 C 168.277 260.590,167.296 262.570,166.796 264.000 C 166.297 265.430,165.766 266.690,165.616 266.800 C 165.466 266.910,164.615 267.996,163.723 269.214 C 161.064 272.846,158.535 274.773,155.600 275.405 C 154.830 275.571,153.210 276.370,152.000 277.181 C 150.790 277.993,148.744 279.078,147.453 279.594 C 146.162 280.109,144.588 280.967,143.956 281.498 C 143.324 282.030,141.744 282.980,140.445 283.610 C 139.145 284.239,137.654 285.182,137.130 285.706 C 136.607 286.230,135.100 287.206,133.783 287.875 C 132.465 288.545,130.733 289.747,129.934 290.546 C 129.134 291.346,128.209 292.000,127.877 292.000 C 127.546 292.000,126.554 292.861,125.672 293.914 C 124.791 294.966,123.603 296.077,123.033 296.382 C 122.462 296.688,121.562 297.672,121.032 298.569 C 120.503 299.466,119.554 300.772,118.925 301.470 C 114.286 306.624,116.540 317.125,123.210 321.423 C 124.194 322.058,125.404 322.962,125.899 323.433 C 128.162 325.588,138.242 325.466,141.194 323.247 C 141.961 322.671,143.671 321.718,144.994 321.128 C 148.623 319.511,157.508 311.781,158.183 309.654 C 158.312 309.246,159.033 308.353,159.784 307.669 C 160.535 306.986,161.863 305.205,162.735 303.711 C 163.607 302.217,164.683 300.668,165.124 300.269 C 165.566 299.869,166.162 298.970,166.449 298.271 C 166.736 297.572,167.109 296.820,167.279 296.600 C 167.449 296.380,168.040 295.635,168.592 294.945 C 169.144 294.255,170.129 292.675,170.781 291.435 C 172.612 287.954,176.268 284.071,178.200 283.553 C 179.080 283.318,180.113 282.962,180.495 282.763 C 180.877 282.563,181.368 282.400,181.587 282.400 C 181.806 282.400,182.933 281.795,184.092 281.057 C 185.252 280.318,186.740 279.612,187.400 279.489 C 190.675 278.879,191.933 278.399,195.272 276.488 C 196.081 276.025,197.873 275.441,199.253 275.190 C 202.337 274.631,205.075 273.726,206.400 272.827 C 207.495 272.085,209.319 271.518,213.000 270.776 C 215.853 270.201,218.507 269.396,220.315 268.558 C 223.160 267.239,227.650 266.552,232.007 266.770 C 232.341 266.786,233.508 267.538,234.599 268.440 C 235.690 269.341,237.481 270.534,238.578 271.090 C 239.675 271.646,241.209 272.605,241.986 273.221 C 242.764 273.836,244.390 274.640,245.600 275.007 C 248.921 276.014,250.102 276.475,251.200 277.195 C 253.613 278.777,259.390 279.600,268.087 279.600 C 276.835 279.600,280.385 278.959,282.919 276.920 C 283.535 276.424,284.656 275.726,285.410 275.368 C 286.262 274.964,287.262 273.936,288.048 272.659 C 288.744 271.526,289.617 270.330,289.990 270.000 C 292.560 267.721,291.966 257.929,289.082 255.046 C 288.521 254.485,287.940 253.641,287.791 253.170 C 287.392 251.914,286.369 250.834,284.923 250.142 C 284.221 249.806,283.112 249.020,282.459 248.396 C 280.348 246.378,273.541 245.200,263.998 245.200 C 256.074 245.200,240.467 246.718,237.371 247.789 C 235.960 248.277,235.676 248.257,234.590 247.589 C 233.924 247.180,232.918 246.606,232.353 246.313 C 231.223 245.727,225.200 239.772,225.200 239.241 C 225.200 239.058,224.345 238.018,223.300 236.929 C 222.255 235.840,221.040 234.435,220.600 233.806 C 220.160 233.177,219.127 231.844,218.304 230.843 C 217.481 229.843,216.547 228.476,216.230 227.806 C 215.912 227.136,215.189 226.153,214.623 225.622 C 214.058 225.091,213.051 223.692,212.387 222.515 C 211.722 221.337,210.811 220.064,210.361 219.687 C 209.580 219.031,208.406 216.818,207.821 214.902 C 207.671 214.409,207.328 213.779,207.061 213.502 C 204.762 211.131,204.607 209.583,206.279 205.698 C 207.329 203.259,207.966 200.657,208.205 197.826 C 208.563 193.589,209.164 189.808,210.115 185.800 C 211.576 179.644,211.311 168.225,209.627 164.800 C 209.465 164.470,208.994 162.942,208.581 161.405 C 207.783 158.436,207.513 157.989,205.000 155.490 C 200.409 150.922,193.541 149.112,187.600 150.904 M196.233 151.675 C 197.790 151.987,198.835 152.448,199.286 153.021 C 199.664 153.500,200.564 154.136,201.286 154.435 C 202.009 154.734,203.006 155.433,203.502 155.989 C 203.998 156.545,205.028 157.631,205.791 158.401 C 208.405 161.043,209.663 172.665,208.519 183.600 C 208.254 186.130,207.820 190.720,207.555 193.800 C 207.087 199.244,206.921 199.878,205.018 203.510 C 203.226 206.929,203.541 213.535,205.526 214.183 C 205.900 214.304,206.720 215.695,207.366 217.301 C 208.008 218.896,208.908 220.510,209.366 220.888 C 211.076 222.299,211.600 222.960,211.600 223.710 C 211.600 224.134,212.410 225.302,213.400 226.306 C 214.390 227.310,215.200 228.385,215.200 228.694 C 215.200 229.490,217.482 232.708,218.391 233.195 C 218.809 233.419,219.618 234.457,220.188 235.501 C 220.759 236.545,221.862 237.815,222.641 238.322 C 223.420 238.830,224.246 239.786,224.477 240.448 C 224.713 241.126,225.554 242.066,226.404 242.603 C 227.234 243.127,228.157 244.106,228.455 244.780 C 228.821 245.606,229.680 246.350,231.099 247.068 C 232.254 247.652,233.200 248.269,233.200 248.438 C 233.200 250.402,238.457 250.555,241.348 248.675 C 243.601 247.211,246.222 247.000,262.209 247.000 L 277.817 247.000 280.572 249.063 C 282.087 250.197,283.844 251.229,284.477 251.355 C 285.431 251.546,285.826 252.030,286.798 254.195 C 287.442 255.631,288.445 257.282,289.028 257.864 C 291.261 260.097,290.889 266.828,288.381 269.571 C 287.511 270.523,286.800 271.669,286.800 272.119 C 286.800 273.176,285.686 274.400,284.724 274.400 C 283.973 274.400,282.279 275.332,281.262 276.304 C 279.394 278.091,278.664 278.192,267.600 278.196 C 256.509 278.200,255.296 278.040,253.435 276.324 C 252.719 275.664,249.139 274.407,247.938 274.394 C 246.560 274.379,243.833 273.060,242.569 271.796 C 241.802 271.028,240.924 270.400,240.619 270.400 C 239.756 270.400,237.704 269.139,236.063 267.600 C 233.656 265.341,225.561 264.835,220.200 266.608 C 218.671 267.114,217.395 267.768,216.600 268.454 C 216.106 268.880,214.194 269.397,211.600 269.807 C 206.878 270.553,204.734 271.248,203.214 272.526 C 202.637 273.011,201.023 273.632,199.587 273.921 C 194.876 274.868,192.461 275.696,191.635 276.646 C 191.189 277.159,190.323 277.678,189.712 277.799 C 184.178 278.893,183.235 279.227,181.658 280.650 C 181.140 281.117,179.970 281.723,179.058 281.996 C 175.727 282.994,175.112 283.355,174.151 284.878 C 173.612 285.732,172.747 286.624,172.229 286.859 C 171.299 287.283,171.113 287.565,169.821 290.501 C 169.458 291.327,168.765 292.420,168.281 292.931 C 166.672 294.628,166.193 295.385,165.615 297.144 C 165.273 298.187,164.689 299.050,164.164 299.289 C 163.681 299.509,162.802 300.645,162.211 301.813 C 161.620 302.981,160.476 304.631,159.668 305.481 C 158.861 306.331,157.750 307.875,157.201 308.913 C 156.651 309.951,156.021 310.800,155.801 310.800 C 155.022 310.801,153.143 312.753,152.847 313.869 C 152.655 314.592,152.239 315.045,151.696 315.125 C 151.228 315.194,149.748 316.229,148.407 317.425 C 147.067 318.621,145.627 319.600,145.208 319.600 C 144.790 319.600,144.336 319.780,144.200 320.000 C 144.064 320.220,143.597 320.400,143.162 320.400 C 142.346 320.400,140.761 321.285,139.448 322.475 C 136.912 324.773,128.950 324.354,126.462 321.793 C 125.718 321.027,124.850 320.400,124.535 320.400 C 123.367 320.400,121.698 319.202,121.204 318.008 C 120.923 317.332,120.194 316.423,119.583 315.988 C 116.778 313.990,117.125 305.735,120.157 302.364 C 121.097 301.318,122.035 299.873,122.242 299.153 C 122.511 298.215,123.067 297.612,124.209 297.022 C 125.168 296.527,126.019 295.702,126.352 294.947 C 126.744 294.057,127.350 293.546,128.445 293.185 C 129.292 292.906,130.762 291.933,131.710 291.024 C 132.659 290.116,134.430 288.901,135.646 288.325 C 136.862 287.749,138.150 286.830,138.509 286.282 C 138.929 285.641,139.966 285.033,141.419 284.577 C 142.815 284.137,144.303 283.282,145.319 282.335 C 146.223 281.492,147.240 280.731,147.581 280.644 C 147.921 280.557,149.041 280.267,150.069 279.999 C 151.113 279.728,152.570 278.935,153.369 278.203 C 154.656 277.024,156.682 276.135,159.633 275.456 C 160.201 275.325,161.461 274.299,162.433 273.176 C 167.244 267.615,167.600 267.082,167.600 265.450 C 167.600 264.898,167.780 264.336,168.000 264.200 C 168.220 264.064,168.400 263.677,168.400 263.340 C 168.400 263.003,169.009 262.016,169.753 261.147 C 170.497 260.278,171.320 258.719,171.583 257.683 C 171.846 256.647,172.227 255.487,172.430 255.105 C 172.634 254.723,172.800 254.219,172.800 253.984 C 172.800 253.749,173.334 252.985,173.987 252.286 C 174.640 251.588,175.344 250.292,175.550 249.408 C 176.557 245.101,177.143 243.595,178.241 242.498 C 179.417 241.322,180.100 239.307,180.586 235.588 C 180.731 234.478,181.220 233.317,181.849 232.588 C 183.403 230.789,183.836 229.695,184.377 226.200 C 184.961 222.421,185.458 220.905,186.488 219.750 C 188.800 217.157,188.606 211.275,186.116 208.477 C 185.392 207.665,184.800 206.603,184.800 206.119 C 184.800 205.634,184.632 204.824,184.428 204.319 C 184.223 203.813,183.954 202.923,183.830 202.341 C 183.707 201.759,182.992 200.547,182.241 199.650 C 181.236 198.446,180.802 197.462,180.592 195.908 C 180.347 194.097,179.700 190.915,178.929 187.732 C 178.814 187.254,178.418 186.534,178.049 186.132 C 176.532 184.474,176.200 182.143,176.204 173.200 C 176.209 164.104,176.246 163.889,178.250 161.481 C 179.271 160.253,180.203 158.354,180.546 156.800 C 180.712 156.046,181.188 155.669,182.480 155.268 C 183.423 154.975,185.054 154.118,186.104 153.363 C 187.329 152.484,188.765 151.866,190.107 151.642 C 193.102 151.143,193.596 151.146,196.233 151.675 M192.574 167.629 C 191.007 169.361,191.172 177.818,192.831 180.769 C 193.875 182.627,193.969 182.609,195.114 180.322 C 197.983 174.594,195.862 163.995,192.574 167.629 M194.634 171.198 C 195.049 173.040,194.624 177.109,193.945 177.788 C 193.092 178.642,192.567 172.735,193.290 170.417 C 193.874 168.545,194.061 168.654,194.634 171.198 M196.278 233.700 C 195.745 234.419,195.085 236.162,194.801 237.600 C 194.436 239.452,193.959 240.551,193.143 241.420 C 192.105 242.526,190.834 246.023,190.781 247.920 C 190.758 248.720,189.857 250.434,188.229 252.772 C 187.507 253.809,186.948 255.246,186.770 256.526 C 186.611 257.667,186.353 259.095,186.197 259.699 C 185.280 263.253,191.592 264.337,195.158 261.238 C 196.271 260.271,198.109 259.696,201.200 259.349 C 205.195 258.899,209.200 257.607,209.200 256.768 C 209.200 256.636,209.965 256.285,210.900 255.987 C 212.656 255.429,215.478 253.711,216.334 252.679 C 216.735 252.197,216.613 251.913,215.660 251.112 C 215.021 250.574,214.058 249.339,213.521 248.367 C 212.984 247.395,211.984 246.240,211.299 245.800 C 210.614 245.360,209.675 244.280,209.212 243.400 C 208.750 242.520,207.784 241.417,207.066 240.949 C 206.237 240.408,205.568 239.516,205.234 238.504 C 204.945 237.628,204.335 236.661,203.878 236.355 C 203.421 236.050,202.567 235.292,201.979 234.671 C 199.589 232.147,197.670 231.820,196.278 233.700 M200.226 235.400 C 201.166 236.170,202.117 236.800,202.340 236.800 C 202.564 236.800,202.860 237.160,203.000 237.600 C 203.140 238.040,203.422 238.400,203.627 238.400 C 203.832 238.400,204.000 238.661,204.000 238.980 C 204.000 239.299,204.900 240.513,206.000 241.678 C 207.100 242.844,208.000 243.940,208.000 244.115 C 208.000 244.289,208.765 245.175,209.700 246.084 C 211.275 247.616,214.396 251.855,214.399 252.467 C 214.401 252.928,211.886 254.313,209.800 255.000 C 208.700 255.362,206.720 256.165,205.400 256.785 C 204.080 257.404,202.010 258.033,200.800 258.181 C 198.033 258.521,193.750 259.844,192.416 260.771 C 189.399 262.870,187.820 261.818,188.100 257.897 C 188.210 256.364,188.457 254.995,188.650 254.855 C 189.840 253.990,191.357 250.880,191.800 248.400 C 192.163 246.367,192.801 244.813,194.017 243.000 C 194.608 242.120,195.400 240.140,195.779 238.600 C 196.987 233.682,197.596 233.244,200.226 235.400 M262.200 259.663 C 261.540 259.883,260.732 260.150,260.406 260.255 C 259.197 260.646,264.818 263.200,266.885 263.200 C 268.819 263.200,271.200 261.773,271.200 260.614 C 271.200 259.395,264.977 258.737,262.200 259.663 " stroke="none" fill="#fcbca4" fill-rule="evenodd"></path><path id="path2" d="M243.276 39.824 C 241.587 41.737,241.600 41.432,241.600 79.169 L 241.600 115.164 242.628 116.192 L 243.657 117.220 279.928 117.110 C 311.332 117.015,316.332 116.919,317.185 116.400 C 318.440 115.635,319.337 114.810,319.148 114.595 C 318.922 114.339,243.823 39.198,243.811 39.215 C 243.805 39.224,243.564 39.498,243.276 39.824 M281.041 77.756 L 317.993 114.712 316.897 115.456 C 315.851 116.166,314.133 116.205,279.721 116.306 L 243.643 116.412 242.821 115.531 C 241.747 114.378,241.504 45.283,242.565 42.749 C 243.116 41.431,243.553 40.800,243.912 40.800 C 244.010 40.800,260.718 57.430,281.041 77.756 M188.200 149.971 C 187.540 150.161,186.511 150.427,185.914 150.563 C 185.317 150.698,184.417 151.219,183.914 151.720 C 183.411 152.222,182.219 153.075,181.263 153.616 C 180.195 154.222,179.195 155.214,178.663 156.197 C 178.189 157.076,177.323 158.319,176.739 158.961 C 174.496 161.427,173.677 173.306,175.031 183.716 C 175.598 188.070,176.012 189.501,177.485 192.200 C 177.911 192.979,178.236 194.092,179.237 198.200 C 179.719 200.178,180.662 202.413,181.178 202.800 C 181.582 203.103,183.200 206.718,183.200 207.318 C 183.200 207.608,183.833 209.414,184.607 211.333 L 186.013 214.822 185.068 216.515 C 184.549 217.446,183.918 219.106,183.667 220.204 C 183.417 221.302,182.948 223.334,182.627 224.721 C 182.306 226.107,181.529 228.087,180.900 229.121 C 180.271 230.154,179.511 232.080,179.212 233.400 C 178.523 236.436,177.238 240.000,176.832 240.000 C 176.457 240.000,175.467 242.335,174.797 244.800 C 174.035 247.600,173.562 248.733,172.940 249.250 C 172.289 249.790,170.400 253.742,170.400 254.563 C 170.400 255.448,169.163 258.136,168.454 258.791 C 167.747 259.444,167.172 260.563,166.393 262.800 C 165.497 265.375,164.844 266.636,164.019 267.383 C 163.568 267.791,163.200 268.322,163.200 268.564 C 163.200 269.057,160.691 271.726,158.942 273.093 C 158.314 273.584,156.549 274.375,155.020 274.851 C 153.491 275.327,151.799 276.125,151.261 276.624 C 150.722 277.123,149.543 277.839,148.641 278.213 C 145.812 279.389,142.800 280.957,142.800 281.255 C 142.800 281.412,141.795 282.033,140.568 282.633 C 139.340 283.234,137.498 284.417,136.475 285.263 C 135.452 286.108,134.384 286.800,134.102 286.800 C 133.280 286.800,131.956 287.666,129.671 289.700 C 128.496 290.745,127.371 291.600,127.171 291.600 C 126.716 291.600,120.400 297.825,120.400 298.273 C 120.400 298.453,119.683 299.385,118.807 300.343 C 115.442 304.025,114.912 314.299,117.925 317.462 C 118.521 318.088,119.408 319.163,119.896 319.851 C 120.385 320.539,121.390 321.389,122.130 321.740 C 122.871 322.091,124.153 322.998,124.979 323.755 C 127.905 326.436,139.719 326.223,142.503 323.440 C 142.821 323.122,144.303 322.308,145.796 321.631 C 147.289 320.954,149.280 319.725,150.221 318.900 C 153.775 315.783,154.221 315.360,155.000 314.355 C 155.440 313.787,156.288 313.009,156.884 312.626 C 157.481 312.242,158.090 311.546,158.239 311.078 C 158.387 310.610,159.324 309.367,160.320 308.315 C 161.316 307.263,162.661 305.457,163.310 304.301 C 163.959 303.146,164.911 301.796,165.425 301.302 C 165.940 300.808,166.704 299.638,167.124 298.702 C 167.545 297.766,168.429 296.389,169.090 295.642 C 169.751 294.895,170.791 293.275,171.400 292.042 C 172.009 290.809,173.204 289.125,174.054 288.301 C 174.904 287.476,175.600 286.597,175.600 286.348 C 175.600 285.618,177.161 284.470,178.533 284.192 C 180.891 283.713,182.593 283.019,184.426 281.789 C 185.431 281.115,187.321 280.328,188.626 280.040 C 189.932 279.752,191.360 279.373,191.800 279.198 C 192.240 279.024,193.185 278.661,193.900 278.392 C 194.615 278.123,195.200 277.758,195.200 277.580 C 195.200 277.102,199.104 275.745,201.400 275.427 C 203.838 275.088,205.868 274.443,207.200 273.584 C 208.876 272.504,210.624 271.982,216.571 270.787 C 217.874 270.525,219.764 269.956,220.771 269.522 C 227.508 266.615,231.296 266.592,234.480 269.439 C 235.294 270.166,236.824 271.155,237.880 271.636 C 238.936 272.117,240.487 273.098,241.326 273.815 C 242.165 274.533,243.515 275.241,244.326 275.387 C 245.137 275.534,247.240 276.352,249.000 277.206 C 256.399 280.797,277.961 281.659,282.241 278.535 C 282.794 278.131,284.092 277.218,285.124 276.506 C 286.156 275.795,287.315 274.990,287.700 274.718 C 288.085 274.446,288.400 274.026,288.400 273.784 C 288.400 273.542,289.042 272.594,289.826 271.678 C 291.670 269.523,292.001 268.262,291.996 263.403 C 291.990 257.931,291.743 256.812,290.142 254.979 C 289.384 254.110,288.489 252.832,288.154 252.139 C 287.819 251.445,286.613 250.232,285.473 249.444 C 284.333 248.655,282.926 247.629,282.347 247.162 C 279.650 244.990,263.819 243.645,254.621 244.807 C 252.849 245.031,248.700 245.484,245.400 245.814 C 242.100 246.144,238.585 246.556,237.590 246.730 C 235.069 247.170,231.054 245.360,230.096 243.351 C 229.742 242.608,229.340 242.000,229.203 242.000 C 228.574 242.000,226.253 239.680,225.599 238.398 C 225.199 237.615,224.429 236.737,223.887 236.447 C 223.345 236.157,222.491 235.188,221.989 234.294 C 221.486 233.401,220.424 231.977,219.627 231.132 C 218.830 230.286,217.824 228.922,217.389 228.099 C 216.955 227.277,215.835 225.834,214.900 224.892 C 213.965 223.950,213.200 222.896,213.200 222.551 C 213.200 221.823,211.697 219.557,210.884 219.060 C 210.328 218.720,208.001 214.154,208.000 213.400 C 207.999 213.180,207.549 212.477,207.000 211.838 C 205.783 210.423,205.784 210.661,206.979 207.100 C 207.518 205.496,208.235 202.207,208.572 199.791 C 209.597 192.462,210.056 189.882,210.669 188.000 C 212.877 181.217,212.886 168.577,210.686 164.571 C 210.332 163.927,209.652 162.230,209.174 160.800 C 207.696 156.374,204.871 153.292,199.931 150.717 C 198.091 149.758,190.591 149.281,188.200 149.971 M198.040 150.872 C 200.785 151.824,204.868 154.928,207.215 157.846 C 207.553 158.266,208.168 159.868,208.581 161.405 C 208.994 162.942,209.465 164.470,209.627 164.800 C 211.311 168.225,211.576 179.644,210.115 185.800 C 209.164 189.808,208.563 193.589,208.205 197.826 C 207.966 200.657,207.329 203.259,206.279 205.698 C 204.607 209.583,204.762 211.131,207.061 213.502 C 207.328 213.779,207.671 214.409,207.821 214.902 C 208.406 216.818,209.580 219.031,210.361 219.687 C 210.811 220.064,211.722 221.337,212.387 222.515 C 213.051 223.692,214.058 225.091,214.623 225.622 C 215.189 226.153,215.912 227.136,216.230 227.806 C 216.547 228.476,217.481 229.843,218.304 230.843 C 219.127 231.844,220.160 233.177,220.600 233.806 C 221.040 234.435,222.255 235.840,223.300 236.929 C 224.345 238.018,225.200 239.058,225.200 239.241 C 225.200 239.772,231.223 245.727,232.353 246.313 C 232.918 246.606,233.924 247.180,234.590 247.589 C 235.676 248.257,235.960 248.277,237.371 247.789 C 240.467 246.718,256.074 245.200,263.998 245.200 C 273.541 245.200,280.348 246.378,282.459 248.396 C 283.112 249.020,284.221 249.806,284.923 250.142 C 286.369 250.834,287.392 251.914,287.791 253.170 C 287.940 253.641,288.521 254.485,289.082 255.046 C 291.966 257.929,292.560 267.721,289.990 270.000 C 289.617 270.330,288.744 271.526,288.048 272.659 C 287.262 273.936,286.262 274.964,285.410 275.368 C 284.656 275.726,283.535 276.424,282.919 276.920 C 278.458 280.509,256.544 280.699,251.200 277.195 C 250.102 276.475,248.921 276.014,245.600 275.007 C 244.390 274.640,242.764 273.836,241.986 273.221 C 241.209 272.605,239.675 271.646,238.578 271.090 C 237.481 270.534,235.690 269.341,234.599 268.440 C 233.508 267.538,232.341 266.786,232.007 266.770 C 227.650 266.552,223.160 267.239,220.315 268.558 C 218.507 269.396,215.853 270.201,213.000 270.776 C 209.319 271.518,207.495 272.085,206.400 272.827 C 205.075 273.726,202.337 274.631,199.253 275.190 C 197.873 275.441,196.081 276.025,195.272 276.488 C 191.933 278.399,190.675 278.879,187.400 279.489 C 186.740 279.612,185.252 280.318,184.092 281.057 C 182.933 281.795,181.806 282.400,181.587 282.400 C 181.368 282.400,180.877 282.563,180.495 282.763 C 180.113 282.962,179.080 283.318,178.200 283.553 C 176.268 284.071,172.612 287.954,170.781 291.435 C 170.129 292.675,169.144 294.255,168.592 294.945 C 168.040 295.635,167.449 296.380,167.279 296.600 C 167.109 296.820,166.736 297.572,166.449 298.271 C 166.162 298.970,165.566 299.869,165.124 300.269 C 164.683 300.668,163.607 302.217,162.735 303.711 C 161.863 305.205,160.535 306.986,159.784 307.669 C 159.033 308.353,158.312 309.246,158.183 309.654 C 157.508 311.781,148.623 319.511,144.994 321.128 C 143.671 321.718,141.961 322.671,141.194 323.247 C 138.242 325.466,128.162 325.588,125.899 323.433 C 125.404 322.962,124.194 322.058,123.210 321.423 C 116.540 317.125,114.286 306.624,118.925 301.470 C 119.554 300.772,120.503 299.466,121.032 298.569 C 121.562 297.672,122.462 296.688,123.033 296.382 C 123.603 296.077,124.791 294.966,125.672 293.914 C 126.554 292.861,127.546 292.000,127.877 292.000 C 128.209 292.000,129.134 291.346,129.934 290.546 C 130.733 289.747,132.465 288.545,133.783 287.875 C 135.100 287.206,136.607 286.230,137.130 285.706 C 137.654 285.182,139.145 284.239,140.445 283.610 C 141.744 282.980,143.324 282.030,143.956 281.498 C 144.588 280.967,146.162 280.109,147.453 279.594 C 148.744 279.078,150.790 277.993,152.000 277.181 C 153.210 276.370,154.830 275.571,155.600 275.405 C 158.535 274.773,161.064 272.846,163.723 269.214 C 164.615 267.996,165.466 266.910,165.616 266.800 C 165.766 266.690,166.297 265.430,166.796 264.000 C 167.296 262.570,168.277 260.590,168.977 259.600 C 169.677 258.610,170.678 256.484,171.201 254.875 C 171.724 253.266,172.580 251.376,173.104 250.675 C 174.316 249.051,175.037 247.349,175.385 245.290 C 175.536 244.395,176.142 242.883,176.732 241.931 C 178.076 239.762,178.592 238.623,179.149 236.600 C 180.192 232.813,180.985 230.567,181.440 230.107 C 182.214 229.326,184.000 223.534,184.000 221.806 C 184.000 221.486,184.422 220.273,184.938 219.112 C 186.919 214.650,186.911 214.692,186.157 212.355 C 185.774 211.170,185.357 210.110,185.230 210.000 C 184.842 209.665,184.081 207.889,183.601 206.200 C 183.146 204.597,181.692 201.576,181.195 201.200 C 180.820 200.916,179.963 198.485,179.574 196.600 C 179.392 195.720,179.127 194.460,178.985 193.800 C 178.843 193.140,178.269 191.633,177.710 190.452 C 175.698 186.199,175.228 182.929,175.201 172.998 C 175.173 162.362,174.905 163.317,180.113 155.465 C 180.381 155.061,181.320 154.360,182.200 153.907 C 183.080 153.455,184.340 152.689,185.000 152.205 C 187.332 150.497,194.767 149.736,198.040 150.872 M193.290 170.417 C 192.567 172.735,193.092 178.642,193.945 177.788 C 194.624 177.109,195.049 173.040,194.634 171.198 C 194.061 168.654,193.874 168.545,193.290 170.417 M197.043 234.900 C 196.726 235.395,196.157 237.060,195.779 238.600 C 195.400 240.140,194.608 242.120,194.017 243.000 C 192.801 244.813,192.163 246.367,191.800 248.400 C 191.357 250.880,189.840 253.990,188.650 254.855 C 188.457 254.995,188.210 256.364,188.100 257.897 C 187.820 261.818,189.399 262.870,192.416 260.771 C 193.750 259.844,198.033 258.521,200.800 258.181 C 202.010 258.033,204.080 257.404,205.400 256.785 C 206.720 256.165,208.700 255.362,209.800 255.000 C 211.886 254.313,214.401 252.928,214.399 252.467 C 214.396 251.855,211.275 247.616,209.700 246.084 C 208.765 245.175,208.000 244.289,208.000 244.115 C 208.000 243.940,207.100 242.844,206.000 241.678 C 204.900 240.513,204.000 239.299,204.000 238.980 C 204.000 238.661,203.832 238.400,203.627 238.400 C 203.422 238.400,203.140 238.040,203.000 237.600 C 202.860 237.160,202.564 236.800,202.340 236.800 C 202.117 236.800,201.166 236.170,200.226 235.400 C 198.221 233.757,197.815 233.693,197.043 234.900 M201.751 237.581 C 202.225 237.762,203.031 238.746,203.541 239.768 C 204.052 240.791,205.012 242.027,205.675 242.514 C 206.338 243.001,207.224 244.072,207.645 244.894 C 208.066 245.716,208.837 246.668,209.359 247.010 C 210.267 247.605,213.200 251.647,213.200 252.303 C 213.200 252.794,210.806 253.929,208.600 254.484 C 207.500 254.760,205.633 255.487,204.452 256.097 C 203.271 256.708,200.751 257.488,198.852 257.831 C 193.991 258.709,192.366 259.221,191.066 260.281 C 189.527 261.536,189.200 261.181,189.200 258.255 C 189.200 256.133,189.374 255.520,190.355 254.179 C 190.990 253.310,191.714 251.610,191.963 250.400 C 192.374 248.403,192.960 247.014,195.164 242.800 C 195.567 242.030,196.208 240.140,196.588 238.600 C 197.542 234.741,197.783 234.527,199.493 236.028 C 200.261 236.702,201.277 237.401,201.751 237.581 " stroke="none" fill="#fca486" fill-rule="evenodd"></path><path id="path3" d="M64.985 23.700 C 64.881 23.975,64.841 103.580,64.898 200.600 L 65.000 377.000 200.200 377.000 L 335.400 377.000 335.501 240.024 C 335.581 130.707,335.500 102.984,335.101 102.730 C 334.825 102.555,333.835 102.409,332.900 102.406 L 331.200 102.400 331.200 100.833 C 331.200 98.339,330.932 98.000,328.957 98.000 L 327.200 98.000 327.200 96.243 C 327.200 94.268,326.861 94.000,324.367 94.000 L 322.800 94.000 322.800 92.000 L 322.800 90.000 320.821 90.000 L 318.842 90.000 318.721 87.900 L 318.600 85.800 316.500 85.679 L 314.400 85.558 314.400 83.579 L 314.400 81.600 312.400 81.600 L 310.400 81.600 310.400 80.033 C 310.400 77.539,310.132 77.200,308.157 77.200 L 306.400 77.200 306.400 75.443 C 306.400 73.468,306.061 73.200,303.567 73.200 L 302.000 73.200 302.000 71.200 L 302.000 69.200 300.000 69.200 L 298.000 69.200 298.000 67.243 C 298.000 65.049,297.712 64.800,295.167 64.800 L 293.600 64.800 293.600 62.800 L 293.600 60.800 291.600 60.800 L 289.600 60.800 289.600 59.233 C 289.600 56.739,289.332 56.400,287.357 56.400 L 285.600 56.400 285.600 54.643 C 285.600 52.668,285.261 52.400,282.767 52.400 C 281.211 52.400,281.200 52.389,281.200 50.833 C 281.200 48.339,280.932 48.000,278.957 48.000 L 277.200 48.000 277.200 46.243 C 277.200 44.268,276.861 44.000,274.367 44.000 L 272.800 44.000 272.800 42.000 L 272.800 40.000 270.821 40.000 L 268.842 40.000 268.721 37.900 L 268.600 35.800 266.500 35.679 L 264.400 35.558 264.400 33.579 L 264.400 31.600 262.400 31.600 L 260.400 31.600 260.400 30.033 C 260.400 27.539,260.132 27.200,258.157 27.200 L 256.400 27.200 256.400 25.443 C 256.400 24.209,256.211 23.613,255.767 23.443 C 254.399 22.918,65.185 23.173,64.985 23.700 M245.544 38.006 C 246.207 38.669,246.855 39.542,246.983 39.947 C 247.112 40.352,247.829 41.013,248.578 41.416 C 249.327 41.820,250.129 42.564,250.360 43.071 C 250.591 43.578,251.481 44.490,252.338 45.097 C 253.194 45.703,254.280 46.784,254.750 47.498 C 255.220 48.212,256.229 49.202,256.991 49.698 C 257.754 50.194,258.572 51.065,258.810 51.633 C 259.047 52.201,259.924 53.096,260.758 53.623 C 261.592 54.150,262.792 55.341,263.425 56.270 C 264.058 57.198,264.964 58.055,265.439 58.174 C 265.913 58.293,266.625 58.888,267.019 59.495 C 267.946 60.924,272.676 65.654,274.105 66.581 C 274.712 66.975,275.307 67.687,275.426 68.161 C 275.545 68.636,276.402 69.542,277.330 70.175 C 278.259 70.808,279.450 72.008,279.977 72.842 C 280.504 73.676,281.399 74.553,281.967 74.790 C 282.535 75.028,283.406 75.846,283.902 76.609 C 284.398 77.371,285.388 78.380,286.102 78.850 C 286.816 79.320,287.897 80.406,288.503 81.262 C 289.110 82.119,290.035 83.016,290.559 83.254 C 291.083 83.493,291.708 84.120,291.949 84.647 C 292.189 85.175,293.183 86.169,294.158 86.856 C 295.133 87.543,296.252 88.703,296.646 89.433 C 297.039 90.163,297.941 91.073,298.650 91.455 C 299.359 91.837,300.129 92.564,300.360 93.071 C 300.591 93.578,301.481 94.490,302.338 95.097 C 303.194 95.703,304.280 96.784,304.750 97.498 C 305.220 98.212,306.229 99.202,306.991 99.698 C 307.754 100.194,308.572 101.065,308.810 101.633 C 309.047 102.201,309.924 103.096,310.758 103.623 C 311.592 104.150,312.792 105.341,313.425 106.270 C 314.058 107.198,314.964 108.055,315.439 108.174 C 315.913 108.293,316.614 108.888,316.997 109.495 C 317.379 110.103,318.571 111.427,319.646 112.438 C 322.577 115.194,321.594 117.021,316.693 117.924 C 312.909 118.621,244.497 118.603,242.919 117.905 C 240.422 116.799,240.600 119.807,240.600 78.615 C 240.600 37.325,240.537 38.433,242.942 37.270 C 244.180 36.670,244.220 36.682,245.544 38.006 M200.954 149.268 C 202.722 149.771,204.256 150.917,204.597 151.991 C 204.713 152.357,205.475 152.974,206.291 153.363 C 208.377 154.358,209.977 156.995,209.994 159.467 C 210.002 160.633,210.400 161.600,210.871 161.600 C 213.316 161.600,214.458 169.685,213.650 181.276 C 213.095 189.222,212.556 191.638,210.884 193.668 C 210.564 194.057,210.181 196.064,209.967 198.468 C 209.765 200.741,209.402 204.040,209.160 205.800 C 208.420 211.194,209.205 215.655,211.043 216.492 C 212.321 217.074,213.932 219.632,214.242 221.570 C 214.454 222.899,214.747 223.306,215.911 223.891 C 216.956 224.416,217.490 225.057,217.962 226.358 C 218.313 227.325,218.952 228.315,219.383 228.558 C 220.565 229.225,221.037 229.724,221.708 231.020 C 222.044 231.669,223.201 233.132,224.277 234.272 C 225.354 235.412,226.497 236.849,226.818 237.467 C 227.554 238.885,228.478 240.000,228.917 240.000 C 229.397 240.000,230.124 240.794,230.983 242.256 C 232.457 244.765,234.736 245.337,241.308 244.848 C 244.438 244.615,248.262 244.343,249.805 244.244 C 251.805 244.114,253.240 243.745,254.805 242.957 C 258.264 241.216,273.600 241.433,273.600 243.223 C 273.600 243.720,275.675 244.400,277.188 244.400 C 280.640 244.400,284.800 246.000,284.800 247.328 C 284.800 247.842,286.058 248.771,286.774 248.787 C 287.712 248.808,289.200 250.466,289.200 251.491 C 289.200 252.178,289.518 252.553,290.349 252.842 C 292.502 253.593,293.002 255.597,292.983 263.388 C 292.965 270.762,292.887 271.073,290.400 273.627 C 289.850 274.192,289.141 275.039,288.824 275.510 C 288.507 275.981,287.739 276.577,287.116 276.835 C 286.493 277.093,285.700 277.784,285.353 278.371 C 284.430 279.934,283.179 280.310,277.400 280.766 C 271.817 281.206,269.689 281.532,269.404 281.994 C 269.305 282.154,267.554 281.974,265.512 281.595 C 263.470 281.216,259.464 280.787,256.609 280.642 C 250.720 280.342,248.805 279.891,247.205 278.425 C 245.693 277.041,244.565 276.400,243.639 276.400 C 242.366 276.400,239.291 274.911,238.366 273.847 C 237.891 273.301,236.559 272.470,235.406 272.002 C 234.045 271.450,233.115 270.774,232.755 270.076 C 231.572 267.779,227.593 267.604,224.766 269.724 C 222.871 271.145,220.221 271.984,217.494 272.026 C 214.367 272.073,211.408 272.934,209.941 274.222 C 208.855 275.176,207.900 275.553,205.575 275.943 C 199.103 277.030,198.453 277.222,197.514 278.326 C 196.403 279.631,194.655 280.259,191.137 280.615 C 188.785 280.854,188.283 281.063,186.849 282.400 C 185.695 283.476,184.613 284.048,183.112 284.377 C 177.805 285.541,177.598 285.635,176.780 287.240 C 176.352 288.078,175.283 289.520,174.405 290.443 C 173.526 291.367,172.585 292.770,172.314 293.561 C 171.564 295.747,170.800 296.785,169.747 297.049 C 169.137 297.202,168.710 297.669,168.564 298.344 C 168.232 299.874,167.498 301.730,167.017 302.255 C 166.788 302.506,166.305 303.069,165.945 303.507 C 165.585 303.945,165.135 304.370,164.945 304.452 C 164.755 304.533,164.150 305.500,163.600 306.599 C 162.993 307.813,162.159 308.808,161.478 309.131 C 160.858 309.426,160.060 310.321,159.694 311.132 C 158.793 313.128,158.017 314.000,157.140 314.000 C 156.661 314.000,156.111 314.623,155.564 315.788 C 154.938 317.119,154.373 317.703,153.352 318.072 C 152.542 318.365,151.661 319.108,151.201 319.887 C 150.773 320.613,149.923 321.410,149.312 321.660 C 146.559 322.781,145.741 323.243,144.891 324.155 C 141.733 327.546,126.097 327.454,122.424 324.022 C 121.704 323.350,120.998 322.800,120.855 322.800 C 119.766 322.800,116.133 318.331,115.623 316.364 C 113.883 309.644,115.683 298.800,118.540 298.800 C 119.149 298.800,119.600 297.976,119.600 296.862 C 119.600 296.106,121.256 294.713,122.546 294.382 C 123.013 294.263,123.460 293.813,123.539 293.382 C 123.751 292.226,124.813 291.189,126.463 290.528 C 127.390 290.157,128.101 289.523,128.401 288.798 C 128.824 287.777,131.589 286.000,132.754 286.000 C 132.953 286.000,133.959 285.203,134.990 284.230 C 136.238 283.051,137.357 282.376,138.340 282.210 C 140.137 281.907,140.407 281.732,141.495 280.172 C 142.330 278.975,143.276 278.539,147.100 277.591 C 148.085 277.347,148.800 276.935,148.800 276.612 C 148.800 276.305,149.295 275.708,149.900 275.284 C 150.958 274.543,151.589 274.324,154.200 273.795 C 154.860 273.661,155.805 273.469,156.300 273.368 C 156.795 273.267,157.200 272.946,157.200 272.654 C 157.200 271.989,158.359 270.926,160.024 270.063 C 160.908 269.605,161.470 268.905,161.839 267.800 C 162.134 266.920,162.914 265.750,163.574 265.200 C 164.697 264.263,165.196 263.029,165.879 259.497 C 166.074 258.486,168.028 256.400,168.779 256.400 C 168.954 256.400,169.219 255.455,169.369 254.300 C 169.657 252.077,170.413 249.135,170.781 248.800 C 172.593 247.154,173.540 245.431,174.000 242.948 C 174.553 239.955,175.315 238.152,176.444 237.166 C 177.344 236.380,178.000 234.710,178.000 233.204 C 178.000 230.815,178.956 227.962,180.271 226.426 C 181.391 225.117,181.666 224.383,182.024 221.737 C 182.258 220.012,182.642 217.678,182.877 216.550 C 183.177 215.107,183.179 213.923,182.882 212.550 C 182.650 211.478,182.241 209.469,181.973 208.086 C 181.584 206.084,181.254 205.408,180.352 204.766 C 179.156 203.914,178.000 200.912,178.000 198.656 C 178.000 197.069,177.174 194.753,176.331 193.977 C 174.821 192.585,173.639 186.679,173.571 180.173 C 173.555 178.648,173.396 176.410,173.218 175.200 C 172.903 173.053,173.174 168.791,174.054 162.075 C 174.440 159.133,174.640 158.604,175.791 157.475 C 176.506 156.774,177.401 155.595,177.780 154.855 C 178.238 153.959,178.991 153.304,180.034 152.894 C 180.895 152.556,181.600 152.067,181.600 151.809 C 181.600 151.125,183.213 149.767,184.600 149.282 C 186.277 148.697,198.904 148.685,200.954 149.268 M197.648 238.500 C 197.465 238.995,197.194 240.474,197.044 241.786 C 196.741 244.453,195.792 246.411,194.528 246.976 C 193.947 247.236,193.613 247.855,193.450 248.976 C 192.952 252.385,192.530 254.232,192.043 255.131 C 190.441 258.088,197.726 258.190,201.521 255.263 C 203.238 253.939,205.563 253.202,208.046 253.195 C 212.273 253.181,212.415 252.688,209.196 249.220 C 207.878 247.801,206.800 246.508,206.800 246.347 C 206.800 246.185,205.996 245.271,205.012 244.316 C 203.774 243.112,203.123 242.090,202.895 240.990 C 202.641 239.770,202.337 239.346,201.582 239.162 C 199.727 238.709,198.800 238.306,198.800 237.953 C 198.800 237.235,197.969 237.629,197.648 238.500 " stroke="none" fill="#fc5424" fill-rule="evenodd"></path><path id="path4" d="M242.942 37.270 C 240.537 38.433,240.600 37.325,240.600 78.615 C 240.600 119.807,240.422 116.799,242.919 117.905 C 244.497 118.603,312.909 118.621,316.693 117.924 C 321.594 117.021,322.577 115.194,319.646 112.438 C 318.571 111.427,317.379 110.103,316.997 109.495 C 316.614 108.888,315.913 108.293,315.439 108.174 C 314.964 108.055,314.058 107.198,313.425 106.270 C 312.792 105.341,311.592 104.150,310.758 103.623 C 309.924 103.096,309.047 102.201,308.810 101.633 C 308.572 101.065,307.754 100.194,306.991 99.698 C 306.229 99.202,305.220 98.212,304.750 97.498 C 304.280 96.784,303.194 95.703,302.338 95.097 C 301.481 94.490,300.591 93.578,300.360 93.071 C 300.129 92.564,299.359 91.837,298.650 91.455 C 297.941 91.073,297.039 90.163,296.646 89.433 C 296.252 88.703,295.133 87.543,294.158 86.856 C 293.183 86.169,292.189 85.175,291.949 84.647 C 291.708 84.120,291.083 83.493,290.559 83.254 C 290.035 83.016,289.110 82.119,288.503 81.262 C 287.897 80.406,286.816 79.320,286.102 78.850 C 285.388 78.380,284.398 77.371,283.902 76.609 C 283.406 75.846,282.535 75.028,281.967 74.790 C 281.399 74.553,280.504 73.676,279.977 72.842 C 279.450 72.008,278.259 70.808,277.330 70.175 C 276.402 69.542,275.545 68.636,275.426 68.161 C 275.307 67.687,274.712 66.975,274.105 66.581 C 272.676 65.654,267.946 60.924,267.019 59.495 C 266.625 58.888,265.913 58.293,265.439 58.174 C 264.964 58.055,264.058 57.198,263.425 56.270 C 262.792 55.341,261.592 54.150,260.758 53.623 C 259.924 53.096,259.047 52.201,258.810 51.633 C 258.572 51.065,257.754 50.194,256.991 49.698 C 256.229 49.202,255.220 48.212,254.750 47.498 C 254.280 46.784,253.194 45.703,252.338 45.097 C 251.481 44.490,250.591 43.578,250.360 43.071 C 250.129 42.564,249.327 41.820,248.578 41.416 C 247.829 41.013,247.112 40.352,246.983 39.947 C 246.732 39.157,244.515 36.782,244.069 36.827 C 243.921 36.842,243.414 37.041,242.942 37.270 M281.411 76.814 C 302.085 97.501,319.066 114.503,319.148 114.595 C 319.337 114.810,318.440 115.635,317.185 116.400 C 316.332 116.919,311.332 117.015,279.928 117.110 L 243.657 117.220 242.628 116.192 L 241.600 115.164 241.600 79.169 C 241.600 41.432,241.587 41.737,243.276 39.824 C 243.564 39.498,243.805 39.224,243.811 39.215 C 243.817 39.207,260.737 56.126,281.411 76.814 M184.600 149.282 C 183.213 149.767,181.600 151.125,181.600 151.809 C 181.600 152.067,180.895 152.556,180.034 152.894 C 178.991 153.304,178.238 153.959,177.780 154.855 C 177.401 155.595,176.506 156.774,175.791 157.475 C 174.640 158.604,174.440 159.133,174.054 162.075 C 173.174 168.791,172.903 173.053,173.218 175.200 C 173.396 176.410,173.555 178.648,173.571 180.173 C 173.639 186.679,174.821 192.585,176.331 193.977 C 177.174 194.753,178.000 197.069,178.000 198.656 C 178.000 200.912,179.156 203.914,180.352 204.766 C 181.254 205.408,181.584 206.084,181.973 208.086 C 182.241 209.469,182.650 211.478,182.882 212.550 C 183.179 213.923,183.177 215.107,182.877 216.550 C 182.642 217.678,182.258 220.012,182.024 221.737 C 181.666 224.383,181.391 225.117,180.271 226.426 C 178.956 227.962,178.000 230.815,178.000 233.204 C 178.000 234.710,177.344 236.380,176.444 237.166 C 175.315 238.152,174.553 239.955,174.000 242.948 C 173.540 245.431,172.593 247.154,170.781 248.800 C 170.413 249.135,169.657 252.077,169.369 254.300 C 169.219 255.455,168.954 256.400,168.779 256.400 C 168.028 256.400,166.074 258.486,165.879 259.497 C 165.196 263.029,164.697 264.263,163.574 265.200 C 162.914 265.750,162.134 266.920,161.839 267.800 C 161.470 268.905,160.908 269.605,160.024 270.063 C 158.359 270.926,157.200 271.989,157.200 272.654 C 157.200 272.946,156.795 273.267,156.300 273.368 C 155.805 273.469,154.860 273.661,154.200 273.795 C 151.589 274.324,150.958 274.543,149.900 275.284 C 149.295 275.708,148.800 276.305,148.800 276.612 C 148.800 276.935,148.085 277.347,147.100 277.591 C 143.276 278.539,142.330 278.975,141.495 280.172 C 140.407 281.732,140.137 281.907,138.340 282.210 C 137.357 282.376,136.238 283.051,134.990 284.230 C 133.959 285.203,132.953 286.000,132.754 286.000 C 131.589 286.000,128.824 287.777,128.401 288.798 C 128.101 289.523,127.390 290.157,126.463 290.528 C 124.813 291.189,123.751 292.226,123.539 293.382 C 123.460 293.813,123.013 294.263,122.546 294.382 C 121.256 294.713,119.600 296.106,119.600 296.862 C 119.600 297.976,119.149 298.800,118.540 298.800 C 115.683 298.800,113.883 309.644,115.623 316.364 C 116.133 318.331,119.766 322.800,120.855 322.800 C 120.998 322.800,121.704 323.350,122.424 324.022 C 126.097 327.454,141.733 327.546,144.891 324.155 C 145.741 323.243,146.559 322.781,149.312 321.660 C 149.923 321.410,150.773 320.613,151.201 319.887 C 151.661 319.108,152.542 318.365,153.352 318.072 C 154.373 317.703,154.938 317.119,155.564 315.788 C 156.111 314.623,156.661 314.000,157.140 314.000 C 158.017 314.000,158.793 313.128,159.694 311.132 C 160.060 310.321,160.858 309.426,161.478 309.131 C 162.159 308.808,162.993 307.813,163.600 306.599 C 164.150 305.500,164.755 304.533,164.945 304.452 C 165.135 304.370,165.585 303.945,165.945 303.507 C 166.305 303.069,166.788 302.506,167.017 302.255 C 167.498 301.730,168.232 299.874,168.564 298.344 C 168.710 297.669,169.137 297.202,169.747 297.049 C 170.800 296.785,171.564 295.747,172.314 293.561 C 172.585 292.770,173.526 291.367,174.405 290.443 C 175.283 289.520,176.352 288.078,176.780 287.240 C 177.598 285.635,177.805 285.541,183.112 284.377 C 184.613 284.048,185.695 283.476,186.849 282.400 C 188.283 281.063,188.785 280.854,191.137 280.615 C 194.655 280.259,196.403 279.631,197.514 278.326 C 198.453 277.222,199.103 277.030,205.575 275.943 C 207.900 275.553,208.855 275.176,209.941 274.222 C 211.408 272.934,214.367 272.073,217.494 272.026 C 220.221 271.984,222.871 271.145,224.766 269.724 C 227.593 267.604,231.572 267.779,232.755 270.076 C 233.115 270.774,234.045 271.450,235.406 272.002 C 236.559 272.470,237.891 273.301,238.366 273.847 C 239.291 274.911,242.366 276.400,243.639 276.400 C 244.565 276.400,245.693 277.041,247.205 278.425 C 248.805 279.891,250.720 280.342,256.609 280.642 C 259.464 280.787,263.470 281.216,265.512 281.595 C 267.554 281.974,269.305 282.154,269.404 281.994 C 269.689 281.532,271.817 281.206,277.400 280.766 C 283.179 280.310,284.430 279.934,285.353 278.371 C 285.700 277.784,286.493 277.093,287.116 276.835 C 287.739 276.577,288.507 275.981,288.824 275.510 C 289.141 275.039,289.850 274.192,290.400 273.627 C 292.887 271.073,292.965 270.762,292.983 263.388 C 293.002 255.597,292.502 253.593,290.349 252.842 C 289.518 252.553,289.200 252.178,289.200 251.491 C 289.200 250.466,287.712 248.808,286.774 248.787 C 286.058 248.771,284.800 247.842,284.800 247.328 C 284.800 246.000,280.640 244.400,277.188 244.400 C 275.675 244.400,273.600 243.720,273.600 243.223 C 273.600 241.433,258.264 241.216,254.805 242.957 C 253.240 243.745,251.805 244.114,249.805 244.244 C 248.262 244.343,244.438 244.615,241.308 244.848 C 234.736 245.337,232.457 244.765,230.983 242.256 C 230.124 240.794,229.397 240.000,228.917 240.000 C 228.478 240.000,227.554 238.885,226.818 237.467 C 226.497 236.849,225.354 235.412,224.277 234.272 C 223.201 233.132,222.044 231.669,221.708 231.020 C 221.037 229.724,220.565 229.225,219.383 228.558 C 218.952 228.315,218.313 227.325,217.962 226.358 C 217.490 225.057,216.956 224.416,215.911 223.891 C 214.747 223.306,214.454 222.899,214.242 221.570 C 213.932 219.632,212.321 217.074,211.043 216.492 C 209.205 215.655,208.420 211.194,209.160 205.800 C 209.402 204.040,209.765 200.741,209.967 198.468 C 210.181 196.064,210.564 194.057,210.884 193.668 C 212.556 191.638,213.095 189.222,213.650 181.276 C 214.458 169.685,213.316 161.600,210.871 161.600 C 210.400 161.600,210.002 160.633,209.994 159.467 C 209.977 156.995,208.377 154.358,206.291 153.363 C 205.475 152.974,204.713 152.357,204.597 151.991 C 204.256 150.917,202.722 149.771,200.954 149.268 C 198.904 148.685,186.277 148.697,184.600 149.282 M199.931 150.717 C 204.871 153.292,207.696 156.374,209.174 160.800 C 209.652 162.230,210.332 163.927,210.686 164.571 C 212.886 168.577,212.877 181.217,210.669 188.000 C 210.056 189.882,209.597 192.462,208.572 199.791 C 208.235 202.207,207.518 205.496,206.979 207.100 C 205.784 210.661,205.783 210.423,207.000 211.838 C 207.549 212.477,207.999 213.180,208.000 213.400 C 208.001 214.154,210.328 218.720,210.884 219.060 C 211.697 219.557,213.200 221.823,213.200 222.551 C 213.200 222.896,213.965 223.950,214.900 224.892 C 215.835 225.834,216.955 227.277,217.389 228.099 C 217.824 228.922,218.830 230.286,219.627 231.132 C 220.424 231.977,221.486 233.401,221.989 234.294 C 222.491 235.188,223.345 236.157,223.887 236.447 C 224.429 236.737,225.199 237.615,225.599 238.398 C 226.253 239.680,228.574 242.000,229.203 242.000 C 229.340 242.000,229.742 242.608,230.096 243.351 C 231.054 245.360,235.069 247.170,237.590 246.730 C 238.585 246.556,242.100 246.144,245.400 245.814 C 248.700 245.484,252.849 245.031,254.621 244.807 C 263.819 243.645,279.650 244.990,282.347 247.162 C 282.926 247.629,284.333 248.655,285.473 249.444 C 286.613 250.232,287.819 251.445,288.154 252.139 C 288.489 252.832,289.384 254.110,290.142 254.979 C 291.743 256.812,291.990 257.931,291.996 263.403 C 292.001 268.262,291.670 269.523,289.826 271.678 C 289.042 272.594,288.400 273.542,288.400 273.784 C 288.400 274.026,288.085 274.446,287.700 274.718 C 287.315 274.990,286.156 275.795,285.124 276.506 C 284.092 277.218,282.794 278.131,282.241 278.535 C 277.961 281.659,256.399 280.797,249.000 277.206 C 247.240 276.352,245.137 275.534,244.326 275.387 C 243.515 275.241,242.165 274.533,241.326 273.815 C 240.487 273.098,238.936 272.117,237.880 271.636 C 236.824 271.155,235.294 270.166,234.480 269.439 C 231.296 266.592,227.508 266.615,220.771 269.522 C 219.764 269.956,217.874 270.525,216.571 270.787 C 210.624 271.982,208.876 272.504,207.200 273.584 C 205.868 274.443,203.838 275.088,201.400 275.427 C 199.104 275.745,195.200 277.102,195.200 277.580 C 195.200 277.758,194.615 278.123,193.900 278.392 C 193.185 278.661,192.240 279.024,191.800 279.198 C 191.360 279.373,189.932 279.752,188.626 280.040 C 187.321 280.328,185.431 281.115,184.426 281.789 C 182.593 283.019,180.891 283.713,178.533 284.192 C 177.161 284.470,175.600 285.618,175.600 286.348 C 175.600 286.597,174.904 287.476,174.054 288.301 C 173.204 289.125,172.009 290.809,171.400 292.042 C 170.791 293.275,169.751 294.895,169.090 295.642 C 168.429 296.389,167.545 297.766,167.124 298.702 C 166.704 299.638,165.940 300.808,165.425 301.302 C 164.911 301.796,163.959 303.146,163.310 304.301 C 162.661 305.457,161.316 307.263,160.320 308.315 C 159.324 309.367,158.387 310.610,158.239 311.078 C 158.090 311.546,157.481 312.242,156.884 312.626 C 156.288 313.009,155.440 313.787,155.000 314.355 C 154.221 315.360,153.775 315.783,150.221 318.900 C 149.280 319.725,147.289 320.954,145.796 321.631 C 144.303 322.308,142.821 323.122,142.503 323.440 C 139.719 326.223,127.905 326.436,124.979 323.755 C 124.153 322.998,122.871 322.091,122.130 321.740 C 121.390 321.389,120.385 320.539,119.896 319.851 C 119.408 319.163,118.521 318.088,117.925 317.462 C 114.912 314.299,115.442 304.025,118.807 300.343 C 119.683 299.385,120.400 298.453,120.400 298.273 C 120.400 297.825,126.716 291.600,127.171 291.600 C 127.371 291.600,128.496 290.745,129.671 289.700 C 131.956 287.666,133.280 286.800,134.102 286.800 C 134.384 286.800,135.452 286.108,136.475 285.263 C 137.498 284.417,139.340 283.234,140.568 282.633 C 141.795 282.033,142.800 281.412,142.800 281.255 C 142.800 280.957,145.812 279.389,148.641 278.213 C 149.543 277.839,150.722 277.123,151.261 276.624 C 151.799 276.125,153.491 275.327,155.020 274.851 C 156.549 274.375,158.314 273.584,158.942 273.093 C 160.691 271.726,163.200 269.057,163.200 268.564 C 163.200 268.322,163.568 267.791,164.019 267.383 C 164.844 266.636,165.497 265.375,166.393 262.800 C 167.172 260.563,167.747 259.444,168.454 258.791 C 169.163 258.136,170.400 255.448,170.400 254.563 C 170.400 253.742,172.289 249.790,172.940 249.250 C 173.562 248.733,174.035 247.600,174.797 244.800 C 175.467 242.335,176.457 240.000,176.832 240.000 C 177.238 240.000,178.523 236.436,179.212 233.400 C 179.511 232.080,180.271 230.154,180.900 229.121 C 181.529 228.087,182.306 226.107,182.627 224.721 C 182.948 223.334,183.417 221.302,183.667 220.204 C 183.918 219.106,184.549 217.446,185.068 216.515 L 186.013 214.822 184.607 211.333 C 183.833 209.414,183.200 207.608,183.200 207.318 C 183.200 206.718,181.582 203.103,181.178 202.800 C 180.662 202.413,179.719 200.178,179.237 198.200 C 178.236 194.092,177.911 192.979,177.485 192.200 C 176.012 189.501,175.598 188.070,175.031 183.716 C 173.677 173.306,174.496 161.427,176.739 158.961 C 177.323 158.319,178.189 157.076,178.663 156.197 C 179.195 155.214,180.195 154.222,181.263 153.616 C 182.219 153.075,183.411 152.222,183.914 151.720 C 184.417 151.219,185.317 150.698,185.914 150.563 C 186.511 150.427,187.540 150.161,188.200 149.971 C 190.591 149.281,198.091 149.758,199.931 150.717 M197.688 235.301 C 197.464 235.575,196.969 237.060,196.588 238.600 C 196.208 240.140,195.567 242.030,195.164 242.800 C 192.960 247.014,192.374 248.403,191.963 250.400 C 191.714 251.610,190.990 253.310,190.355 254.179 C 189.374 255.520,189.200 256.133,189.200 258.255 C 189.200 261.181,189.527 261.536,191.066 260.281 C 192.366 259.221,193.991 258.709,198.852 257.831 C 200.751 257.488,203.271 256.708,204.452 256.097 C 205.633 255.487,207.500 254.760,208.600 254.484 C 210.806 253.929,213.200 252.794,213.200 252.303 C 213.200 251.647,210.267 247.605,209.359 247.010 C 208.837 246.668,208.066 245.716,207.645 244.894 C 207.224 244.072,206.338 243.001,205.675 242.514 C 205.012 242.027,204.052 240.791,203.541 239.768 C 203.031 238.746,202.225 237.762,201.751 237.581 C 201.277 237.401,200.261 236.702,199.493 236.028 C 198.418 235.084,198.002 234.917,197.688 235.301 M198.800 237.953 C 198.800 238.306,199.727 238.709,201.582 239.162 C 202.337 239.346,202.641 239.770,202.895 240.990 C 203.123 242.090,203.774 243.112,205.012 244.316 C 205.996 245.271,206.800 246.185,206.800 246.347 C 206.800 246.508,207.878 247.801,209.196 249.220 C 212.415 252.688,212.273 253.181,208.046 253.195 C 205.563 253.202,203.238 253.939,201.521 255.263 C 197.726 258.190,190.441 258.088,192.043 255.131 C 192.530 254.232,192.952 252.385,193.450 248.976 C 193.613 247.855,193.947 247.236,194.528 246.976 C 195.792 246.411,196.741 244.453,197.044 241.786 C 197.360 239.008,197.813 237.600,198.390 237.600 C 198.616 237.600,198.800 237.759,198.800 237.953 " stroke="none" fill="#fc8a66" fill-rule="evenodd"></path></g></svg>