<svg id="svg" xmlns="http://www.w3.org/2000/svg" xmlns:xlink="http://www.w3.org/1999/xlink" width="400" height="400" viewBox="0, 0, 400,400"><g id="svgg"><path id="path0" d="M243.264 43.019 C 242.585 44.510,242.600 114.440,243.280 115.120 C 243.950 115.790,314.287 115.816,315.756 115.147 L 316.750 114.695 315.078 113.298 C 314.158 112.530,313.144 111.519,312.824 111.051 C 312.504 110.583,311.721 109.750,311.085 109.200 C 310.448 108.650,309.539 107.799,309.064 107.310 C 308.589 106.820,307.678 105.920,307.040 105.310 C 306.401 104.699,305.231 103.503,304.440 102.651 C 303.648 101.799,302.652 100.809,302.227 100.451 C 301.801 100.093,301.081 99.377,300.627 98.860 C 300.172 98.343,299.360 97.533,298.822 97.060 C 298.284 96.587,297.474 95.803,297.022 95.318 C 296.284 94.526,295.522 93.753,292.724 90.959 C 292.261 90.496,291.286 89.506,290.558 88.759 C 289.830 88.012,288.012 86.203,286.517 84.739 C 285.023 83.276,283.507 81.746,283.149 81.339 C 282.791 80.933,281.801 79.952,280.949 79.160 C 280.097 78.369,278.902 77.199,278.292 76.560 C 277.683 75.922,276.802 75.022,276.334 74.559 C 275.865 74.096,274.894 73.106,274.176 72.359 C 273.458 71.612,272.449 70.633,271.935 70.183 C 271.421 69.734,270.413 68.744,269.695 67.983 C 268.058 66.248,267.352 65.542,265.617 63.905 C 264.856 63.187,263.866 62.179,263.417 61.665 C 262.967 61.151,261.970 60.124,261.200 59.383 C 260.430 58.642,259.440 57.671,259.000 57.225 C 258.560 56.780,257.678 55.917,257.040 55.308 C 256.401 54.698,255.231 53.503,254.440 52.651 C 253.648 51.799,252.652 50.809,252.227 50.451 C 251.801 50.093,251.081 49.377,250.627 48.860 C 250.172 48.343,249.360 47.533,248.822 47.060 C 247.526 45.921,246.418 44.757,245.200 43.256 C 243.979 41.751,243.849 41.735,243.264 43.019 M101.700 193.398 C 100.986 194.209,100.966 272.806,101.680 273.520 C 102.383 274.223,114.544 274.191,115.130 273.484 C 115.410 273.147,115.600 268.366,115.679 259.692 L 115.800 246.417 116.874 245.344 C 121.595 240.625,129.425 246.504,130.596 255.646 C 130.750 256.842,131.161 257.800,131.766 258.368 C 132.962 259.491,133.755 261.426,134.611 265.305 C 135.073 267.398,135.672 268.884,136.448 269.860 C 137.082 270.658,137.600 271.555,137.600 271.855 C 137.600 273.851,151.201 275.331,152.716 273.500 C 153.341 272.744,152.855 271.038,151.633 269.700 C 151.032 269.042,150.354 267.986,150.126 267.352 C 149.423 265.397,148.887 263.464,148.632 261.966 C 148.498 261.177,147.880 259.961,147.258 259.265 C 146.108 257.977,145.599 256.669,144.771 252.874 C 144.485 251.562,143.867 250.266,143.158 249.489 C 139.920 245.945,139.938 237.751,143.185 236.406 C 143.857 236.128,144.540 235.408,144.837 234.666 C 145.115 233.970,146.016 232.654,146.841 231.742 C 149.690 228.589,150.964 219.118,149.712 210.400 C 148.988 205.363,148.571 204.278,146.545 202.164 C 145.532 201.107,144.537 199.766,144.335 199.184 C 144.031 198.313,143.388 197.928,140.683 196.999 C 137.797 196.007,135.419 194.786,134.800 193.977 C 133.863 192.752,102.748 192.208,101.700 193.398 M188.600 193.247 C 188.160 193.464,187.198 194.555,186.462 195.673 C 185.184 197.614,184.885 198.717,184.150 204.200 C 183.843 206.495,183.211 208.018,181.962 209.475 C 181.101 210.479,180.810 211.328,180.592 213.475 C 180.147 217.837,179.355 220.688,178.000 222.799 C 176.965 224.412,176.593 225.658,175.939 229.684 C 175.295 233.650,174.934 234.870,174.070 236.000 C 172.771 237.699,172.019 239.725,171.992 241.600 C 171.950 244.510,170.841 247.983,169.184 250.400 C 168.807 250.950,168.288 252.750,168.032 254.400 C 167.104 260.364,166.219 262.959,164.758 264.000 C 164.442 264.225,163.200 271.067,163.200 272.582 C 163.200 273.883,164.605 274.139,170.494 273.915 C 177.311 273.655,177.443 273.516,178.398 265.600 C 179.012 260.503,179.067 260.276,179.908 259.306 C 181.281 257.723,184.756 257.200,193.896 257.200 C 204.241 257.200,204.821 257.387,205.989 261.090 C 206.282 262.019,206.846 263.128,207.244 263.555 C 208.086 264.459,209.200 268.896,209.200 271.345 C 209.200 273.949,209.346 274.000,216.831 274.000 C 224.743 274.000,224.697 274.023,224.010 270.520 C 223.480 267.818,222.831 266.000,222.397 266.000 C 221.516 266.000,220.446 262.288,219.578 256.217 C 219.359 254.687,219.040 253.337,218.870 253.217 C 217.464 252.228,216.491 249.776,216.008 246.000 C 215.542 242.353,214.868 239.935,214.057 239.000 C 212.977 237.754,212.467 236.417,212.000 233.600 C 211.052 227.883,210.682 226.606,209.573 225.218 C 208.626 224.034,208.332 223.074,207.791 219.400 C 207.206 215.428,205.938 211.600,205.208 211.600 C 204.677 211.600,203.206 206.036,203.200 204.000 C 203.194 202.142,202.513 199.770,201.773 199.030 C 201.075 198.332,199.622 195.252,199.609 194.444 C 199.585 192.939,191.102 192.017,188.600 193.247 M229.400 193.326 C 228.740 193.569,228.163 193.782,228.118 193.800 C 228.072 193.817,228.316 194.634,228.660 195.616 C 229.478 197.953,229.939 201.324,230.397 208.332 C 230.724 213.331,230.918 214.380,231.914 216.532 C 233.264 219.452,233.808 222.304,234.404 229.600 C 234.897 235.635,235.372 238.183,236.463 240.649 C 237.350 242.656,238.382 248.204,238.393 251.025 C 238.405 254.323,239.555 262.084,240.133 262.767 C 241.053 263.854,241.566 265.673,242.006 269.400 C 242.302 271.902,242.633 273.152,243.092 273.500 C 243.811 274.044,251.951 274.158,255.200 273.670 L 257.000 273.400 257.669 266.000 C 258.346 258.516,258.791 256.196,259.867 254.553 C 260.678 253.317,261.600 248.698,261.600 245.877 C 261.600 241.791,262.797 234.900,263.918 232.531 C 264.977 230.293,268.626 230.019,269.670 232.100 C 270.868 234.487,271.927 240.140,272.013 244.600 C 272.063 247.197,272.836 250.780,273.615 252.020 C 274.901 254.071,275.191 255.369,275.812 261.888 C 276.955 273.861,277.042 273.971,285.474 273.990 C 290.645 274.003,291.480 273.703,291.807 271.718 C 292.067 270.146,292.482 268.994,293.481 267.084 C 294.170 265.766,295.166 259.209,295.195 255.800 C 295.226 252.167,296.584 245.460,297.531 244.261 C 298.160 243.465,298.729 240.002,299.184 234.200 C 299.745 227.046,300.258 224.376,301.643 221.400 C 302.521 219.512,302.809 218.189,302.993 215.200 C 303.562 205.960,304.258 201.683,305.791 198.000 C 307.873 192.997,307.621 192.806,298.949 192.802 C 292.704 192.800,292.992 192.580,292.653 197.600 C 291.992 207.404,291.511 210.463,290.158 213.476 C 289.420 215.120,288.409 223.220,288.396 227.600 C 288.378 233.482,286.838 241.200,285.682 241.200 C 285.135 241.200,284.254 240.040,282.799 237.400 C 279.389 231.216,279.133 230.276,278.253 220.715 C 277.781 215.594,277.486 214.039,276.661 212.315 C 275.503 209.896,274.409 204.449,274.381 200.969 C 274.324 193.644,273.752 192.936,267.828 192.847 C 262.928 192.774,260.634 193.892,260.225 196.551 C 260.119 197.238,259.846 198.985,259.616 200.433 C 259.387 201.881,259.197 204.041,259.193 205.233 C 259.182 208.318,258.120 213.930,257.273 215.374 C 256.192 217.216,255.690 219.655,255.208 225.400 C 254.568 233.036,253.242 238.400,251.994 238.400 C 251.342 238.400,248.078 236.775,247.619 236.223 C 246.674 235.084,245.742 229.173,245.218 221.000 C 244.694 212.819,244.218 208.755,243.664 207.719 C 242.622 205.772,242.005 203.090,241.567 198.605 C 241.220 195.057,240.930 193.686,240.449 193.320 C 239.627 192.693,231.107 192.699,229.400 193.326 M128.969 204.613 C 129.775 204.950,130.536 205.490,130.660 205.813 C 130.784 206.136,131.063 206.400,131.279 206.400 C 132.031 206.400,134.783 208.604,134.791 209.213 C 134.796 209.551,135.405 210.766,136.145 211.915 C 138.553 215.652,138.577 222.221,136.192 224.981 C 135.471 225.815,134.785 226.974,134.669 227.555 C 134.361 229.096,133.195 230.250,131.600 230.595 C 130.830 230.761,129.416 231.353,128.458 231.911 C 127.008 232.756,126.055 232.958,122.781 233.115 C 118.500 233.321,118.588 233.356,116.787 230.800 L 115.800 229.400 115.800 218.169 L 115.800 206.937 116.920 205.469 L 118.041 204.000 122.772 204.000 C 126.115 204.000,127.932 204.180,128.969 204.613 M195.832 218.461 C 196.184 219.142,196.726 221.514,197.038 223.732 C 197.435 226.565,197.879 228.188,198.530 229.183 C 201.359 233.512,202.215 242.819,199.997 245.141 L 198.793 246.400 194.097 246.398 C 186.370 246.394,184.800 245.599,184.800 241.686 C 184.800 240.356,184.974 239.207,185.186 239.133 C 185.633 238.979,186.798 233.753,186.804 231.874 C 186.812 229.616,188.779 224.400,189.623 224.400 C 189.761 224.400,190.089 223.635,190.353 222.700 C 192.067 216.632,194.080 215.074,195.832 218.461 " stroke="none" fill="#deeffc" fill-rule="evenodd"></path><path id="path1" d="M64.985 23.700 C 64.881 23.975,64.841 103.580,64.898 200.600 L 65.000 377.000 200.200 377.000 L 335.400 377.000 335.501 240.024 C 335.581 130.707,335.500 102.984,335.101 102.730 C 334.825 102.555,333.835 102.409,332.900 102.406 L 331.200 102.400 331.200 100.833 C 331.200 98.339,330.932 98.000,328.957 98.000 L 327.200 98.000 327.200 96.243 C 327.200 94.268,326.861 94.000,324.367 94.000 L 322.800 94.000 322.800 92.000 L 322.800 90.000 320.821 90.000 L 318.842 90.000 318.721 87.900 L 318.600 85.800 316.500 85.679 L 314.400 85.558 314.400 83.579 L 314.400 81.600 312.400 81.600 L 310.400 81.600 310.400 80.033 C 310.400 77.539,310.132 77.200,308.157 77.200 L 306.400 77.200 306.400 75.443 C 306.400 73.468,306.061 73.200,303.567 73.200 L 302.000 73.200 302.000 71.200 L 302.000 69.200 300.000 69.200 L 298.000 69.200 298.000 67.243 C 298.000 65.049,297.712 64.800,295.167 64.800 L 293.600 64.800 293.600 62.800 L 293.600 60.800 291.600 60.800 L 289.600 60.800 289.600 59.233 C 289.600 56.739,289.332 56.400,287.357 56.400 L 285.600 56.400 285.600 54.643 C 285.600 52.668,285.261 52.400,282.767 52.400 C 281.211 52.400,281.200 52.389,281.200 50.833 C 281.200 48.339,280.932 48.000,278.957 48.000 L 277.200 48.000 277.200 46.243 C 277.200 44.268,276.861 44.000,274.367 44.000 L 272.800 44.000 272.800 42.000 L 272.800 40.000 270.821 40.000 L 268.842 40.000 268.721 37.900 L 268.600 35.800 266.500 35.679 L 264.400 35.558 264.400 33.579 L 264.400 31.600 262.400 31.600 L 260.400 31.600 260.400 30.033 C 260.400 27.539,260.132 27.200,258.157 27.200 L 256.400 27.200 256.400 25.443 C 256.400 24.209,256.211 23.613,255.767 23.443 C 254.399 22.918,65.185 23.173,64.985 23.700 M245.500 38.249 C 245.775 38.521,246.000 38.917,246.000 39.130 C 246.000 39.343,246.675 40.081,247.500 40.770 C 248.325 41.460,249.124 42.153,249.277 42.312 C 249.429 42.470,251.255 44.310,253.335 46.400 C 255.414 48.490,257.360 50.450,257.658 50.755 C 257.956 51.060,259.010 52.102,260.000 53.071 C 260.990 54.039,261.930 54.960,262.088 55.116 C 262.247 55.272,262.940 56.075,263.630 56.900 C 264.319 57.725,265.057 58.400,265.270 58.400 C 265.710 58.400,266.800 59.405,266.800 59.811 C 266.800 60.162,273.438 66.800,273.789 66.800 C 274.195 66.800,275.200 67.890,275.200 68.330 C 275.200 68.543,275.875 69.281,276.700 69.970 C 277.525 70.660,278.328 71.353,278.484 71.512 C 278.640 71.670,279.561 72.610,280.529 73.600 C 281.498 74.590,282.540 75.648,282.845 75.950 C 283.150 76.253,285.110 78.199,287.200 80.276 C 289.290 82.352,291.130 84.174,291.288 84.325 C 291.447 84.476,292.140 85.275,292.830 86.100 C 293.519 86.925,294.257 87.600,294.470 87.600 C 294.971 87.600,296.000 88.629,296.000 89.130 C 296.000 89.343,296.675 90.081,297.500 90.770 C 298.325 91.460,299.124 92.153,299.277 92.312 C 299.429 92.470,301.255 94.310,303.335 96.400 C 305.414 98.490,307.360 100.450,307.658 100.755 C 307.956 101.060,309.010 102.102,310.000 103.071 C 310.990 104.039,311.930 104.960,312.088 105.116 C 312.247 105.272,312.940 106.075,313.630 106.900 C 314.319 107.725,315.057 108.400,315.270 108.400 C 315.747 108.400,316.804 109.424,316.789 109.871 C 316.783 110.052,317.810 111.126,319.072 112.258 C 321.223 114.187,321.337 114.380,320.901 115.339 C 319.724 117.921,321.734 117.800,280.065 117.800 L 242.329 117.800 241.565 116.856 C 240.381 115.394,240.387 42.349,241.571 39.741 C 242.671 37.319,244.034 36.801,245.500 38.249 M138.577 191.555 C 139.444 191.844,140.614 192.557,141.177 193.140 C 141.740 193.723,142.695 194.425,143.300 194.700 C 143.905 194.975,144.838 195.404,145.374 195.653 C 145.909 195.903,146.567 196.637,146.835 197.284 C 147.103 197.932,147.790 198.761,148.361 199.126 C 148.933 199.491,149.612 199.991,149.872 200.238 C 150.419 200.758,152.000 205.384,152.000 206.466 C 152.000 206.870,152.147 207.200,152.326 207.200 C 155.190 207.200,155.746 222.725,152.989 225.698 C 152.445 226.285,152.000 227.124,152.000 227.564 C 152.000 228.003,151.839 228.776,151.642 229.281 C 151.445 229.787,151.047 230.990,150.759 231.956 C 150.397 233.169,149.859 233.938,149.017 234.442 C 148.348 234.844,147.440 235.840,147.000 236.656 C 146.560 237.472,145.619 238.423,144.909 238.770 C 143.126 239.640,142.933 243.560,144.608 244.878 C 146.044 246.007,146.703 247.491,147.022 250.312 C 147.246 252.295,147.559 253.075,148.632 254.329 C 149.956 255.876,151.178 258.669,151.200 260.200 C 151.221 261.627,152.171 263.795,153.461 265.359 C 154.754 266.926,155.117 268.151,155.432 272.000 C 155.751 275.908,154.669 276.400,145.756 276.400 C 134.638 276.400,133.872 275.881,131.953 267.032 C 131.611 265.454,131.068 264.283,130.325 263.524 C 129.713 262.897,129.110 261.892,128.987 261.292 C 128.864 260.691,128.592 259.549,128.382 258.754 C 128.172 257.958,128.000 256.950,128.000 256.513 C 128.000 256.076,127.553 255.107,127.006 254.359 C 125.805 252.716,124.400 249.772,124.400 248.898 C 124.400 246.878,119.381 245.767,118.414 247.574 C 118.155 248.058,118.000 252.895,118.000 260.524 C 118.000 274.796,117.992 274.865,116.148 275.744 C 114.428 276.564,102.700 276.702,100.989 275.922 C 98.708 274.883,98.800 276.679,98.800 233.394 C 98.800 192.314,98.792 192.534,100.365 191.304 C 101.295 190.577,136.331 190.807,138.577 191.555 M201.302 191.434 C 203.390 192.430,204.340 194.210,205.037 198.437 C 205.817 203.169,206.342 204.987,207.192 205.900 C 208.004 206.771,209.200 210.149,209.200 211.571 C 209.201 213.899,210.473 218.627,211.361 219.600 C 212.782 221.159,212.965 221.845,214.217 230.294 C 214.368 231.314,214.893 232.446,215.534 233.139 C 216.636 234.327,217.600 236.859,217.600 238.563 C 217.600 239.100,217.797 240.498,218.037 241.669 C 218.277 242.841,218.540 244.164,218.622 244.608 C 218.703 245.052,219.091 245.772,219.485 246.208 C 220.886 247.760,221.994 251.306,222.006 254.277 C 222.014 256.253,222.735 258.254,224.069 260.000 C 224.889 261.073,225.294 262.335,225.800 265.400 C 226.662 270.617,227.217 272.800,227.679 272.800 C 227.886 272.800,227.655 273.360,227.168 274.045 C 225.696 276.111,224.414 276.400,216.713 276.399 C 208.497 276.397,207.673 276.118,206.813 273.045 C 206.529 272.030,206.178 271.200,206.034 271.200 C 205.032 271.200,203.202 265.096,203.200 261.749 C 203.200 259.598,202.878 259.532,193.210 259.672 C 183.655 259.810,183.848 259.763,183.345 262.072 C 183.216 262.662,182.795 263.483,182.410 263.897 C 181.111 265.292,180.760 266.408,180.522 269.912 C 180.123 275.787,179.088 276.400,169.574 276.400 C 159.678 276.400,155.660 274.000,159.583 270.431 C 160.484 269.611,160.812 268.826,161.184 266.600 C 162.250 260.229,162.501 259.340,163.785 257.400 C 164.833 255.816,165.207 254.692,165.585 252.000 C 166.311 246.827,167.383 243.825,168.881 242.776 C 169.057 242.653,169.374 241.213,169.586 239.576 C 170.376 233.473,170.960 231.532,172.511 229.858 C 173.283 229.025,173.585 228.048,173.979 225.105 C 174.599 220.482,175.284 218.287,176.807 216.040 C 177.495 215.025,178.000 213.755,178.000 213.040 C 178.002 209.762,179.461 204.539,180.731 203.269 C 181.540 202.460,181.771 201.565,182.387 196.851 C 183.106 191.345,183.951 190.878,193.286 190.833 C 198.613 190.807,200.243 190.929,201.302 191.434 M242.073 191.300 C 245.507 193.082,246.522 196.895,246.997 209.800 C 247.225 215.987,247.793 220.683,248.376 221.200 C 248.500 221.310,248.870 221.920,249.199 222.557 C 249.527 223.193,250.359 224.329,251.048 225.081 L 252.301 226.448 252.569 225.382 C 252.716 224.796,253.010 221.770,253.223 218.658 C 253.738 211.128,254.047 209.338,255.276 206.769 C 256.776 203.635,257.100 202.265,257.372 197.906 C 257.812 190.859,257.993 190.737,267.683 190.891 L 274.569 191.000 275.485 192.359 C 276.134 193.324,276.400 194.297,276.400 195.713 C 276.400 197.980,277.044 200.531,277.987 202.000 C 279.332 204.095,279.883 207.265,280.714 217.687 L 281.055 221.975 283.028 224.144 C 285.963 227.373,285.779 227.721,286.383 217.800 C 287.144 205.287,288.364 198.000,289.698 198.000 C 289.864 198.000,290.000 197.307,290.000 196.460 C 290.000 191.339,290.925 190.817,300.000 190.822 C 309.712 190.828,309.447 190.653,309.286 196.945 C 309.158 201.973,308.257 207.110,307.181 208.959 C 306.255 210.549,305.733 213.613,305.197 220.600 C 304.710 226.948,304.318 228.953,303.006 231.800 C 301.953 234.088,301.200 238.384,301.200 242.112 C 301.200 246.421,299.965 253.428,298.920 255.051 C 297.859 256.699,297.507 258.669,297.011 265.731 C 296.300 275.855,295.801 276.309,285.331 276.368 C 275.169 276.425,274.789 276.172,273.979 268.800 C 273.551 264.898,273.200 263.361,272.381 261.800 C 270.738 258.667,270.406 256.803,269.371 244.900 C 269.232 243.305,269.090 242.000,269.054 242.000 C 269.018 242.000,268.004 242.360,266.800 242.800 C 265.596 243.240,264.579 243.600,264.540 243.600 C 264.500 243.600,264.355 244.995,264.217 246.700 C 263.165 259.705,262.771 262.137,261.291 264.758 C 260.638 265.914,260.182 267.556,259.958 269.558 C 259.196 276.374,259.163 276.396,249.949 276.399 C 238.575 276.401,237.410 275.109,236.608 261.600 C 236.261 255.751,235.705 252.133,234.985 251.034 C 233.707 249.082,232.441 242.508,232.414 237.677 C 232.394 234.153,231.646 229.702,230.747 227.762 C 229.504 225.079,228.923 222.128,228.431 216.000 C 227.889 209.245,227.253 204.800,226.828 204.800 C 226.286 204.800,225.665 202.938,224.999 199.314 C 223.543 191.391,224.183 190.800,234.213 190.800 C 238.950 190.800,241.410 190.957,242.073 191.300 M118.544 208.867 C 118.013 209.690,117.867 226.397,118.379 227.745 L 118.812 228.884 123.506 228.654 C 130.570 228.308,131.463 228.118,131.925 226.861 C 133.610 222.270,133.442 211.438,131.660 209.872 C 130.345 208.716,119.193 207.861,118.544 208.867 M193.220 223.660 C 192.982 224.617,192.619 226.030,192.413 226.800 C 192.208 227.570,191.929 228.726,191.795 229.370 C 191.660 230.013,191.034 231.273,190.404 232.170 C 187.650 236.090,188.074 242.003,191.110 241.997 C 198.611 241.983,199.743 241.027,197.260 236.804 C 196.060 234.762,195.247 232.067,195.210 230.000 C 195.179 228.332,194.174 222.441,193.868 222.134 C 193.749 222.016,193.458 222.702,193.220 223.660 " stroke="none" fill="#448cfc" fill-rule="evenodd"></path><path id="path2" d="M243.276 39.832 C 241.588 41.718,241.600 41.436,241.600 79.126 C 241.600 114.541,241.612 115.091,242.403 116.003 C 242.844 116.512,243.295 116.838,243.405 116.728 C 243.515 116.618,243.244 116.202,242.802 115.802 C 242.011 115.086,242.000 114.605,242.000 79.157 C 242.000 42.343,242.012 42.025,243.495 40.471 C 243.908 40.039,250.830 46.773,281.403 77.346 C 306.031 101.975,318.639 114.852,318.318 115.051 C 318.050 115.216,317.194 115.670,316.415 116.060 C 315.637 116.449,315.245 116.775,315.546 116.784 C 316.163 116.802,319.200 115.174,319.200 114.826 C 319.200 113.847,243.741 39.313,243.276 39.832 M109.526 191.900 C 113.776 191.964,120.616 191.964,124.726 191.899 C 128.837 191.834,125.360 191.781,117.000 191.781 C 108.640 191.782,105.277 191.835,109.526 191.900 M193.200 191.884 C 200.377 192.060,201.610 192.911,203.217 198.800 C 203.487 199.790,203.785 200.387,203.879 200.126 C 204.097 199.520,203.133 196.686,201.969 194.514 C 200.615 191.984,199.421 191.584,193.540 191.686 L 188.600 191.771 193.200 191.884 M232.500 191.897 C 233.985 191.974,236.415 191.974,237.900 191.897 C 239.385 191.820,238.170 191.757,235.200 191.757 C 232.230 191.757,231.015 191.820,232.500 191.897 M267.800 191.887 C 273.148 192.016,274.250 192.377,274.771 194.171 C 275.067 195.190,275.134 195.243,275.164 194.482 C 275.254 192.197,273.728 191.592,268.118 191.686 L 263.000 191.772 267.800 191.887 M296.700 191.898 C 298.515 191.972,301.485 191.972,303.300 191.898 C 305.115 191.823,303.630 191.763,300.000 191.763 C 296.370 191.763,294.885 191.823,296.700 191.898 M134.200 192.452 C 135.080 192.656,137.209 193.554,138.931 194.447 C 140.652 195.341,142.155 195.978,142.269 195.864 C 142.384 195.749,141.695 195.276,140.739 194.812 C 139.783 194.349,138.190 193.531,137.200 192.996 C 136.206 192.458,134.773 192.035,134.000 192.051 L 132.600 192.080 134.200 192.452 M185.665 193.139 C 184.499 194.228,183.650 196.183,184.132 196.666 C 184.258 196.792,184.484 196.378,184.634 195.747 C 184.983 194.283,185.877 193.263,187.397 192.594 C 188.411 192.149,188.465 192.060,187.742 192.033 C 187.271 192.015,186.336 192.513,185.665 193.139 M226.427 192.972 C 225.515 193.942,225.515 193.947,226.197 196.472 C 228.369 204.507,228.741 205.699,228.769 204.720 C 228.799 203.677,228.149 200.916,227.187 198.000 C 225.825 193.870,225.933 193.283,228.200 192.485 C 229.378 192.071,229.381 192.063,228.370 192.032 C 227.765 192.013,226.962 192.401,226.427 192.972 M241.479 192.900 C 241.930 193.395,242.397 194.070,242.518 194.400 C 242.703 194.909,242.742 194.903,242.768 194.361 C 242.802 193.684,241.528 192.000,240.983 192.000 C 240.806 192.000,241.029 192.405,241.479 192.900 M260.089 192.623 C 259.600 192.965,259.206 193.460,259.213 193.723 C 259.220 193.987,259.462 193.888,259.757 193.500 C 260.049 193.115,260.538 192.797,260.844 192.794 C 261.825 192.783,262.748 192.013,261.789 192.006 C 261.343 192.003,260.578 192.280,260.089 192.623 M100.098 233.439 C 99.993 276.354,99.945 275.200,101.817 275.200 C 101.994 275.200,101.749 274.784,101.272 274.276 L 100.404 273.353 100.300 233.376 L 100.196 193.400 100.098 233.439 M308.109 195.200 C 308.109 196.190,308.187 196.595,308.282 196.100 C 308.378 195.605,308.378 194.795,308.282 194.300 C 308.187 193.805,308.109 194.210,308.109 195.200 M258.690 195.550 C 258.531 196.293,258.420 197.463,258.444 198.150 C 258.481 199.217,258.541 199.136,258.849 197.600 C 259.048 196.610,259.159 195.440,259.096 195.000 C 259.018 194.459,258.886 194.637,258.690 195.550 M242.844 196.080 C 242.820 196.675,243.088 198.205,243.441 199.480 C 244.236 202.361,244.696 204.731,245.406 209.600 L 245.960 213.400 245.776 210.200 C 245.533 205.968,245.011 203.028,243.470 197.200 C 243.068 195.677,242.875 195.333,242.844 196.080 M291.065 197.400 C 290.799 199.639,290.085 203.235,289.159 207.000 C 288.943 207.880,288.688 209.500,288.594 210.600 L 288.421 212.600 288.835 211.000 C 290.707 203.757,291.794 197.674,291.516 195.993 C 291.416 195.394,291.238 195.953,291.065 197.400 M143.000 196.400 C 143.136 196.620,143.494 196.800,143.796 196.800 C 144.098 196.800,144.753 197.385,145.250 198.100 C 145.748 198.815,146.907 200.248,147.825 201.284 C 148.743 202.320,149.624 203.760,149.784 204.484 C 149.944 205.208,150.166 205.566,150.278 205.280 C 150.750 204.066,149.419 202.084,144.940 197.336 C 143.788 196.114,142.414 195.452,143.000 196.400 M275.309 198.000 C 275.309 198.990,275.387 199.395,275.482 198.900 C 275.578 198.405,275.578 197.595,275.482 197.100 C 275.387 196.605,275.309 197.010,275.309 198.000 M183.378 198.578 C 183.227 199.381,183.204 200.137,183.326 200.260 C 183.448 200.382,183.672 199.825,183.822 199.022 C 183.973 198.219,183.996 197.463,183.874 197.340 C 183.752 197.218,183.528 197.775,183.378 198.578 M307.449 198.800 C 307.277 199.790,306.805 201.590,306.399 202.800 C 305.404 205.771,304.654 209.367,304.889 210.046 C 304.995 210.351,305.213 209.790,305.373 208.800 C 305.533 207.810,305.989 206.010,306.386 204.800 C 307.598 201.111,308.079 198.964,307.917 197.959 C 307.804 197.259,307.678 197.487,307.449 198.800 M258.114 202.200 C 258.117 203.300,258.195 203.703,258.287 203.095 C 258.379 202.486,258.377 201.586,258.282 201.095 C 258.187 200.603,258.111 201.100,258.114 202.200 M275.634 201.280 C 275.596 202.478,276.389 205.737,277.318 208.200 C 277.650 209.080,278.097 210.610,278.313 211.600 C 278.597 212.908,278.717 213.105,278.752 212.320 C 278.799 211.258,277.865 207.153,277.409 206.414 C 277.281 206.207,276.837 204.724,276.422 203.119 C 275.995 201.463,275.654 200.667,275.634 201.280 M182.689 202.254 C 182.553 202.936,181.802 204.860,181.021 206.529 C 180.239 208.198,179.619 209.976,179.642 210.482 C 179.667 211.045,179.918 210.626,180.290 209.400 C 180.624 208.300,181.201 206.950,181.574 206.400 C 182.439 205.123,183.352 202.255,183.118 201.553 C 183.019 201.256,182.826 201.571,182.689 202.254 M204.049 201.800 C 204.010 203.346,205.131 207.030,206.544 210.000 C 207.329 211.650,207.978 212.676,207.986 212.281 C 207.999 211.595,207.110 209.520,206.066 207.800 C 205.799 207.360,205.240 205.650,204.824 204.000 C 204.409 202.350,204.060 201.360,204.049 201.800 M257.427 206.200 C 257.251 207.080,256.587 209.399,255.953 211.353 C 255.319 213.307,254.818 215.377,254.841 215.953 C 254.877 216.874,254.927 216.831,255.261 215.600 C 255.470 214.830,255.917 213.390,256.254 212.400 C 257.349 209.183,258.037 206.250,257.891 205.416 C 257.797 204.882,257.637 205.152,257.427 206.200 M117.644 207.396 C 117.180 208.383,116.806 209.508,116.812 209.896 C 116.819 210.283,117.229 209.610,117.724 208.400 L 118.623 206.200 122.811 206.302 C 125.948 206.378,127.402 206.596,128.600 207.168 C 129.480 207.588,130.695 208.124,131.301 208.358 C 131.906 208.592,132.761 209.372,133.199 210.092 C 133.638 210.811,133.994 211.130,133.990 210.800 C 133.958 208.265,128.132 205.600,122.622 205.600 L 118.488 205.600 117.644 207.396 M150.422 206.516 C 150.410 206.910,150.801 208.440,151.290 209.916 C 152.354 213.123,152.532 219.457,151.645 222.511 C 150.876 225.159,151.354 225.327,152.254 222.726 C 153.464 219.226,153.217 213.475,151.673 209.200 C 150.997 207.330,150.434 206.122,150.422 206.516 M228.880 207.800 C 228.868 208.680,229.003 210.210,229.180 211.200 L 229.500 213.000 229.520 211.400 C 229.532 210.520,229.397 208.990,229.220 208.000 L 228.900 206.200 228.880 207.800 M304.195 213.711 C 304.043 215.127,303.994 216.626,304.084 217.042 C 304.175 217.459,304.390 216.392,304.562 214.670 C 304.733 212.949,304.783 211.450,304.672 211.339 C 304.561 211.228,304.346 212.295,304.195 213.711 M134.037 212.200 C 134.030 212.640,134.279 213.335,134.590 213.745 C 135.818 215.367,135.684 221.949,134.385 223.800 C 134.231 224.020,133.878 224.920,133.602 225.800 C 133.033 227.610,132.172 228.742,131.000 229.222 C 130.401 229.467,130.362 229.556,130.845 229.575 C 131.724 229.609,133.558 227.710,133.874 226.437 C 134.016 225.867,134.486 224.770,134.919 224.000 C 136.274 221.590,136.352 216.309,135.074 213.587 C 134.490 212.343,134.043 211.745,134.037 212.200 M179.019 213.127 C 178.855 214.077,178.817 214.950,178.934 215.068 C 179.226 215.359,179.726 212.573,179.500 211.921 C 179.400 211.635,179.184 212.177,179.019 213.127 M287.795 215.311 C 287.643 216.727,287.596 218.226,287.691 218.642 C 287.785 219.059,288.005 217.997,288.180 216.282 C 288.355 214.567,288.401 213.068,288.284 212.951 C 288.166 212.833,287.946 213.895,287.795 215.311 M278.870 214.800 C 278.857 215.570,278.995 216.920,279.177 217.800 L 279.508 219.400 279.507 217.600 C 279.506 216.610,279.368 215.260,279.200 214.600 L 278.895 213.400 278.870 214.800 M229.600 214.854 C 229.600 216.293,231.730 225.463,232.165 225.898 C 232.684 226.418,232.353 224.061,231.628 222.077 C 231.204 220.915,230.656 218.675,230.412 217.099 C 229.949 214.120,229.600 213.153,229.600 214.854 M246.076 217.000 C 246.060 218.100,246.195 219.720,246.377 220.600 L 246.708 222.200 246.719 220.600 C 246.725 219.720,246.590 218.100,246.418 217.000 L 246.107 215.000 246.076 217.000 M178.206 217.000 C 178.028 217.660,177.581 218.650,177.212 219.200 C 176.236 220.652,175.490 222.679,175.711 223.280 C 175.816 223.566,176.044 223.260,176.219 222.600 C 176.394 221.940,177.058 220.450,177.696 219.289 C 178.333 218.127,178.781 216.867,178.691 216.489 C 178.577 216.009,178.430 216.164,178.206 217.000 M208.446 217.000 C 208.427 217.660,208.587 218.470,208.800 218.800 C 209.290 219.558,209.290 218.330,208.800 216.800 C 208.486 215.820,208.479 215.824,208.446 217.000 M254.193 219.714 C 254.044 220.913,253.998 222.233,254.092 222.647 C 254.187 223.061,254.406 222.177,254.580 220.682 C 254.755 219.187,254.800 217.867,254.682 217.748 C 254.563 217.630,254.343 218.514,254.193 219.714 M303.440 220.326 C 303.263 221.495,303.215 222.548,303.333 222.666 C 303.647 222.980,304.096 220.269,303.915 219.152 C 303.817 218.543,303.645 218.966,303.440 220.326 M193.060 219.653 C 192.700 220.202,192.033 221.810,191.577 223.226 C 191.122 224.642,190.221 226.914,189.575 228.275 C 188.929 229.636,188.405 230.986,188.411 231.275 C 188.429 232.094,191.460 225.570,191.792 224.000 C 191.954 223.230,192.465 221.917,192.928 221.081 L 193.768 219.563 194.475 220.481 C 194.864 220.987,195.186 221.195,195.191 220.944 C 195.196 220.694,194.866 220.076,194.457 219.571 L 193.714 218.654 193.060 219.653 M209.223 220.044 C 209.210 220.398,209.719 221.748,210.353 223.044 C 210.987 224.340,211.695 225.850,211.926 226.400 C 212.283 227.251,212.348 227.281,212.361 226.600 C 212.370 226.160,211.672 224.360,210.811 222.600 C 209.950 220.840,209.235 219.690,209.223 220.044 M279.668 221.800 C 279.662 222.680,279.811 223.760,280.000 224.200 C 280.461 225.273,280.461 222.640,280.000 221.200 C 279.725 220.341,279.678 220.425,279.668 221.800 M287.036 224.323 C 286.858 226.151,286.806 227.740,286.921 227.854 C 287.209 228.142,287.713 223.184,287.518 221.979 C 287.431 221.440,287.214 222.495,287.036 224.323 M195.462 223.000 C 195.596 223.880,195.772 224.675,195.853 224.767 C 196.156 225.110,195.929 222.968,195.581 222.200 C 195.329 221.642,195.293 221.885,195.462 223.000 M247.013 224.680 C 247.186 227.201,247.989 230.400,248.447 230.400 C 248.586 230.400,249.387 231.030,250.228 231.800 C 251.966 233.392,252.262 233.481,252.554 232.500 C 253.125 230.583,254.000 226.229,254.000 225.309 C 254.000 223.532,253.653 224.501,253.175 227.617 C 252.522 231.866,252.481 231.894,250.158 229.700 C 248.207 227.856,247.715 226.835,247.030 223.200 C 246.927 222.650,246.919 223.316,247.013 224.680 M302.800 224.176 C 302.800 224.713,302.651 225.245,302.468 225.358 C 302.286 225.470,301.904 226.606,301.620 227.881 C 301.335 229.157,300.946 230.830,300.754 231.600 C 300.562 232.370,300.427 233.630,300.455 234.400 C 300.496 235.556,300.572 235.416,300.889 233.600 C 301.100 232.390,301.610 230.303,302.022 228.961 C 302.890 226.134,303.414 223.200,303.051 223.200 C 302.913 223.200,302.800 223.639,302.800 224.176 M150.606 226.200 C 149.633 230.188,149.020 231.762,148.141 232.526 C 147.602 232.995,146.699 234.103,146.135 234.989 C 145.570 235.875,144.409 237.093,143.554 237.696 C 142.699 238.299,142.000 238.993,142.000 239.238 C 142.000 239.947,144.902 237.216,147.858 233.725 C 149.483 231.806,151.501 226.629,151.074 225.474 C 150.978 225.213,150.767 225.540,150.606 226.200 M280.443 225.800 C 280.374 227.231,281.182 229.455,282.203 230.641 C 282.752 231.278,283.670 232.756,284.242 233.925 C 285.450 236.390,285.621 236.335,286.268 233.273 C 286.843 230.554,286.937 227.922,286.400 229.600 C 286.224 230.150,286.062 231.174,286.040 231.876 C 285.983 233.682,285.357 233.851,284.603 232.263 C 284.250 231.518,283.654 230.561,283.280 230.138 C 281.367 227.971,281.082 227.532,280.794 226.316 C 280.618 225.574,280.465 225.349,280.443 225.800 M196.000 226.442 C 196.000 227.699,197.142 231.977,197.964 233.800 C 198.360 234.680,198.823 235.940,198.992 236.600 C 199.161 237.260,199.384 237.566,199.489 237.280 C 199.684 236.750,199.286 235.511,197.972 232.546 C 197.569 231.637,197.032 229.702,196.779 228.246 C 196.317 225.597,196.000 224.862,196.000 226.442 M232.487 227.400 C 232.491 228.060,232.632 229.140,232.800 229.800 L 233.105 231.000 233.113 229.600 C 233.117 228.830,232.976 227.750,232.800 227.200 C 232.489 226.230,232.480 226.235,232.487 227.400 M174.578 228.178 C 174.427 228.981,174.404 229.737,174.526 229.860 C 174.648 229.982,174.872 229.425,175.022 228.622 C 175.173 227.819,175.196 227.063,175.074 226.940 C 174.952 226.818,174.728 227.375,174.578 228.178 M212.468 229.000 C 212.462 229.660,212.611 230.560,212.800 231.000 C 213.270 232.094,213.270 230.267,212.800 228.800 C 212.488 227.825,212.479 227.830,212.468 229.000 M117.981 229.947 C 118.537 231.005,126.969 231.083,129.200 230.051 C 130.126 229.622,130.097 229.606,128.800 229.827 C 124.685 230.529,119.153 230.482,118.314 229.737 C 117.493 229.008,117.489 229.011,117.981 229.947 M173.892 230.642 C 173.731 230.802,173.600 231.180,173.600 231.481 C 173.600 231.782,173.285 232.509,172.900 233.096 C 172.015 234.447,171.202 236.759,171.246 237.800 C 171.264 238.240,171.509 237.874,171.789 236.986 C 172.070 236.098,172.782 234.419,173.373 233.254 C 174.344 231.337,174.629 229.904,173.892 230.642 M187.889 232.800 C 187.736 233.350,187.625 234.250,187.642 234.800 C 187.668 235.661,187.726 235.614,188.058 234.460 C 188.270 233.724,188.381 232.824,188.306 232.460 C 188.208 231.994,188.086 232.093,187.889 232.800 M213.231 232.525 C 213.214 232.923,213.627 234.183,214.149 235.325 C 214.671 236.466,215.232 237.760,215.396 238.200 C 215.567 238.661,215.768 238.800,215.871 238.527 C 215.969 238.267,215.723 237.457,215.325 236.727 C 214.927 235.997,214.300 234.590,213.932 233.600 C 213.563 232.610,213.248 232.126,213.231 232.525 M233.269 233.800 C 233.256 234.680,233.395 236.120,233.577 237.000 L 233.908 238.600 233.931 237.000 C 233.944 236.120,233.805 234.680,233.623 233.800 L 233.292 232.200 233.269 233.800 M266.368 236.078 L 264.537 236.462 263.829 239.579 C 263.440 241.294,263.196 243.035,263.287 243.449 C 263.378 243.862,263.680 242.908,263.958 241.328 C 264.787 236.610,268.708 235.760,269.623 240.100 C 269.971 241.747,270.204 242.280,270.308 241.662 C 270.395 241.146,270.284 240.246,270.063 239.662 C 269.842 239.078,269.549 237.925,269.412 237.100 C 269.147 235.496,269.147 235.496,266.368 236.078 M187.019 237.527 C 186.855 238.477,186.817 239.350,186.934 239.468 C 187.226 239.759,187.726 236.973,187.500 236.321 C 187.400 236.035,187.184 236.577,187.019 237.527 M299.837 239.524 C 299.659 241.132,299.609 242.542,299.724 242.657 C 300.018 242.951,300.508 238.751,300.317 237.571 C 300.231 237.037,300.015 237.916,299.837 239.524 M199.693 239.600 C 199.693 240.370,199.775 240.685,199.876 240.300 C 199.976 239.915,199.976 239.285,199.876 238.900 C 199.775 238.515,199.693 238.830,199.693 239.600 M170.600 240.400 C 170.446 241.310,170.411 242.144,170.521 242.254 C 170.631 242.364,170.846 241.710,171.000 240.800 C 171.154 239.890,171.189 239.056,171.079 238.946 C 170.969 238.836,170.754 239.490,170.600 240.400 M234.053 239.800 C 234.037 240.460,234.379 242.260,234.813 243.800 C 235.247 245.340,235.815 247.500,236.076 248.600 C 236.368 249.834,236.613 250.306,236.717 249.834 C 236.809 249.412,236.694 248.422,236.461 247.634 C 235.821 245.466,234.888 241.993,234.462 240.200 C 234.119 238.753,234.080 238.715,234.053 239.800 M216.034 239.800 C 216.072 241.166,216.738 242.442,216.766 241.200 C 216.778 240.650,216.613 239.930,216.400 239.600 C 216.080 239.105,216.016 239.140,216.034 239.800 M186.828 240.720 C 186.786 242.108,187.912 243.986,189.045 244.417 C 190.748 245.064,197.842 244.900,198.545 244.198 C 199.247 243.496,199.774 242.041,199.446 241.713 C 199.321 241.588,199.112 241.826,198.981 242.243 C 198.379 244.156,198.279 244.196,193.957 244.295 C 189.210 244.403,188.825 244.237,187.639 241.564 C 187.044 240.223,186.850 240.021,186.828 240.720 M142.044 242.681 C 141.997 244.047,142.602 245.776,143.508 246.865 C 143.812 247.231,144.493 248.581,145.021 249.865 C 145.549 251.149,145.983 251.930,145.984 251.600 C 145.990 250.636,144.974 247.996,144.291 247.198 C 143.298 246.038,142.778 244.894,142.420 243.081 C 142.115 241.537,142.084 241.504,142.044 242.681 M169.674 244.200 C 169.419 245.080,168.881 246.340,168.479 247.000 C 167.586 248.466,166.643 251.745,166.905 252.470 C 167.011 252.761,167.236 252.280,167.406 251.400 C 167.576 250.520,168.330 248.481,169.081 246.869 C 169.832 245.257,170.377 243.637,170.292 243.269 C 170.201 242.873,169.948 243.253,169.674 244.200 M216.846 243.800 C 216.827 244.460,216.987 245.270,217.200 245.600 C 217.690 246.358,217.690 245.130,217.200 243.600 C 216.886 242.620,216.879 242.624,216.846 243.800 M270.470 244.400 C 270.457 245.170,270.595 246.520,270.777 247.400 L 271.108 249.000 271.107 247.200 C 271.106 246.210,270.968 244.860,270.800 244.200 L 270.495 243.000 270.470 244.400 M299.023 245.103 C 298.861 246.040,298.396 247.716,297.990 248.827 C 297.584 249.938,297.162 251.872,297.051 253.124 C 296.941 254.376,296.941 254.950,297.052 254.400 C 297.162 253.850,297.578 252.410,297.976 251.200 C 298.997 248.097,299.737 244.606,299.510 243.953 C 299.405 243.649,299.185 244.167,299.023 245.103 M262.611 246.870 C 262.447 248.338,262.398 249.778,262.503 250.070 C 262.607 250.361,262.826 249.399,262.989 247.930 C 263.153 246.462,263.202 245.022,263.097 244.730 C 262.993 244.439,262.774 245.401,262.611 246.870 M117.855 246.255 C 117.275 246.835,116.800 247.489,116.800 247.708 C 116.800 247.928,117.173 247.634,117.629 247.054 C 118.372 246.109,118.726 246.000,121.053 246.000 C 122.680 246.000,123.555 245.851,123.400 245.600 C 122.837 244.689,118.963 245.146,117.855 246.255 M217.623 246.821 C 217.610 247.163,218.023 248.333,218.539 249.421 C 219.056 250.510,219.674 251.850,219.912 252.400 C 220.282 253.253,220.347 253.282,220.356 252.600 C 220.369 251.651,217.656 245.917,217.623 246.821 M125.600 248.298 C 125.600 248.488,126.137 249.490,126.793 250.524 C 127.449 251.558,128.276 253.348,128.632 254.502 C 129.537 257.437,129.631 257.604,129.430 255.909 C 129.229 254.211,127.267 249.600,126.745 249.600 C 126.555 249.600,126.400 249.341,126.400 249.024 C 126.400 248.707,126.220 248.336,126.000 248.200 C 125.780 248.064,125.600 248.108,125.600 248.298 M271.236 250.480 C 271.192 251.811,272.167 255.654,273.196 258.200 C 273.373 258.640,273.699 259.630,273.919 260.400 C 274.253 261.572,274.324 261.637,274.353 260.800 C 274.386 259.870,273.711 257.519,273.149 256.600 C 273.014 256.380,272.675 255.210,272.394 254.000 C 272.114 252.790,271.747 251.260,271.578 250.600 L 271.272 249.400 271.236 250.480 M236.863 252.200 C 236.854 252.860,236.995 254.120,237.177 255.000 L 237.508 256.600 237.514 254.800 C 237.517 253.810,237.376 252.550,237.200 252.000 C 236.887 251.024,236.879 251.028,236.863 252.200 M261.897 252.800 C 261.740 253.350,261.608 254.161,261.605 254.602 C 261.602 255.043,261.060 257.112,260.400 259.200 C 259.740 261.288,259.214 263.447,259.232 263.998 C 259.261 264.946,259.284 264.936,259.648 263.800 C 261.504 258.010,262.500 253.908,262.327 252.759 L 262.184 251.800 261.897 252.800 M146.012 252.800 C 146.012 253.130,146.187 253.670,146.400 254.000 C 146.745 254.533,146.788 254.533,146.788 254.000 C 146.788 253.670,146.613 253.130,146.400 252.800 C 146.055 252.267,146.012 252.267,146.012 252.800 M166.276 254.410 C 166.130 254.955,166.008 255.711,166.005 256.091 C 166.002 256.471,165.370 258.128,164.600 259.773 C 163.830 261.417,163.212 263.086,163.227 263.482 C 163.247 264.015,163.362 263.942,163.673 263.200 C 163.903 262.650,164.510 261.289,165.021 260.176 C 166.105 257.814,166.957 254.670,166.712 253.935 C 166.617 253.652,166.421 253.866,166.276 254.410 M220.468 254.400 C 220.487 256.050,221.117 257.756,221.132 256.200 C 221.138 255.540,220.989 254.640,220.800 254.200 C 220.487 253.473,220.457 253.491,220.468 254.400 M147.038 255.600 C 147.185 256.150,147.678 257.129,148.133 257.775 C 148.589 258.422,149.273 259.862,149.653 260.975 C 150.033 262.089,150.354 262.730,150.366 262.400 C 150.405 261.345,149.389 258.413,148.710 257.620 C 148.349 257.199,147.765 256.346,147.412 255.727 C 146.809 254.667,146.787 254.659,147.038 255.600 M296.190 257.738 C 296.039 258.952,295.998 260.182,296.099 260.472 C 296.200 260.762,296.418 259.864,296.584 258.475 C 296.749 257.087,296.790 255.857,296.675 255.742 C 296.560 255.627,296.342 256.525,296.190 257.738 M129.600 257.951 C 129.600 258.468,130.844 261.367,131.166 261.600 C 131.425 261.788,132.437 263.865,132.920 265.200 C 133.088 265.665,133.144 265.639,133.168 265.084 C 133.200 264.361,131.737 261.170,131.204 260.800 C 131.046 260.690,130.696 259.925,130.427 259.100 C 129.964 257.681,129.600 257.175,129.600 257.951 M221.212 258.600 C 221.212 259.040,221.387 259.670,221.600 260.000 C 221.921 260.497,221.988 260.462,221.988 259.800 C 221.988 259.360,221.813 258.730,221.600 258.400 C 221.279 257.903,221.212 257.938,221.212 258.600 M237.686 259.600 C 237.683 260.590,237.824 261.850,238.000 262.400 C 238.465 263.851,238.482 261.618,238.023 259.400 L 237.692 257.800 237.686 259.600 M182.563 259.389 C 180.881 260.397,179.260 264.273,179.685 266.267 C 179.771 266.670,180.079 265.777,180.369 264.282 C 180.921 261.443,182.486 259.207,183.931 259.194 C 184.299 259.191,184.870 259.013,185.200 258.800 C 186.598 257.896,184.136 258.446,182.563 259.389 M203.261 259.415 C 203.845 260.067,204.409 260.960,204.515 261.400 C 204.684 262.104,204.713 262.088,204.754 261.271 C 204.800 260.342,204.490 259.908,202.998 258.815 C 202.498 258.449,202.596 258.673,203.261 259.415 M222.000 261.060 C 222.000 261.203,222.466 262.273,223.035 263.437 C 223.605 264.601,224.309 266.419,224.600 267.477 C 224.995 268.915,225.137 269.127,225.164 268.319 C 225.202 267.189,224.924 266.375,223.314 262.900 C 222.423 260.977,222.000 260.384,222.000 261.060 M274.463 262.800 C 274.454 263.350,274.595 264.520,274.777 265.400 L 275.108 267.000 275.114 265.400 C 275.117 264.520,274.976 263.350,274.800 262.800 L 274.480 261.800 274.463 262.800 M204.828 263.081 C 204.801 263.937,205.047 264.681,206.325 267.600 C 206.662 268.370,207.165 269.720,207.442 270.600 C 207.933 272.157,207.947 272.167,207.973 270.967 C 207.988 270.288,207.877 269.610,207.726 269.459 C 207.458 269.191,207.073 268.245,205.590 264.200 C 205.135 262.961,204.845 262.535,204.828 263.081 M295.438 264.725 C 295.261 266.113,295.211 267.345,295.328 267.461 C 295.630 267.764,296.103 264.314,295.916 263.163 C 295.829 262.624,295.619 263.311,295.438 264.725 M150.428 263.519 C 150.413 263.805,150.786 264.795,151.258 265.719 C 153.581 270.268,153.976 270.966,153.987 270.549 C 154.005 269.910,152.776 267.042,152.377 266.790 C 152.193 266.674,151.686 265.774,151.250 264.790 C 150.814 263.805,150.444 263.234,150.428 263.519 M238.442 264.400 C 238.420 264.950,238.927 267.020,239.569 269.000 C 240.210 270.980,240.750 272.162,240.768 271.627 C 240.785 271.091,240.462 269.651,240.049 268.427 C 239.636 267.202,239.114 265.570,238.890 264.800 C 238.545 263.616,238.476 263.554,238.442 264.400 M162.578 265.778 C 162.427 266.581,162.404 267.337,162.526 267.460 C 162.648 267.582,162.872 267.025,163.022 266.222 C 163.173 265.419,163.196 264.663,163.074 264.540 C 162.952 264.418,162.728 264.975,162.578 265.778 M258.611 267.272 C 258.448 268.522,258.400 269.782,258.504 270.072 C 258.608 270.362,258.826 269.578,258.989 268.328 C 259.152 267.078,259.200 265.818,259.096 265.528 C 258.992 265.238,258.774 266.022,258.611 267.272 M133.256 266.600 C 133.256 267.040,133.411 267.760,133.600 268.200 L 133.944 269.000 133.944 268.200 C 133.944 267.760,133.789 267.040,133.600 266.600 L 133.256 265.800 133.256 266.600 M179.018 269.526 C 178.853 270.695,178.813 271.746,178.929 271.862 C 179.214 272.147,179.731 268.587,179.500 267.925 C 179.400 267.636,179.182 268.357,179.018 269.526 M275.309 269.600 C 275.309 270.590,275.387 270.995,275.482 270.500 C 275.578 270.005,275.578 269.195,275.482 268.700 C 275.387 268.205,275.309 268.610,275.309 269.600 M294.588 269.400 C 294.008 272.356,293.326 273.450,291.516 274.328 C 290.572 274.786,290.119 275.169,290.508 275.180 C 292.934 275.248,295.966 270.744,295.102 268.353 C 294.992 268.049,294.761 268.520,294.588 269.400 M161.566 270.236 C 161.218 271.316,160.858 272.452,160.766 272.761 C 160.577 273.399,162.988 275.217,163.959 275.167 C 164.312 275.149,164.048 274.892,163.373 274.596 C 161.421 273.739,161.194 273.240,161.862 271.273 C 162.184 270.323,162.392 269.260,162.324 268.910 C 162.256 268.559,161.915 269.157,161.566 270.236 M134.000 269.582 C 134.000 270.094,134.802 271.553,135.500 272.313 C 135.775 272.612,136.000 273.027,136.000 273.234 C 136.000 273.650,138.364 275.197,139.000 275.197 C 139.220 275.197,138.821 274.844,138.114 274.413 C 136.911 273.679,134.800 270.889,134.800 270.032 C 134.800 269.820,134.620 269.536,134.400 269.400 C 134.180 269.264,134.000 269.346,134.000 269.582 M225.293 270.800 C 225.293 271.570,225.375 271.885,225.476 271.500 C 225.576 271.115,225.576 270.485,225.476 270.100 C 225.375 269.715,225.293 270.030,225.293 270.800 M154.105 272.069 C 154.163 272.744,153.840 273.519,153.229 274.169 C 152.696 274.736,152.406 275.200,152.584 275.200 C 152.932 275.200,154.817 273.131,154.771 272.800 C 154.632 271.792,154.024 271.125,154.105 272.069 M275.601 272.353 C 275.600 273.865,279.319 276.015,280.277 275.056 C 280.384 274.949,279.691 274.709,278.736 274.524 C 277.305 274.245,276.877 273.941,276.301 272.793 C 275.687 271.570,275.601 271.516,275.601 272.353 M258.000 272.751 C 258.000 273.711,257.138 274.421,255.498 274.810 L 254.200 275.118 255.425 275.159 C 256.839 275.206,258.400 273.960,258.400 272.784 C 258.400 272.353,258.310 272.000,258.200 272.000 C 258.090 272.000,258.000 272.338,258.000 272.751 M177.929 273.374 C 177.554 273.876,176.493 274.458,175.529 274.689 C 174.116 275.028,174.006 275.113,174.926 275.152 C 176.578 275.222,179.056 273.713,178.732 272.833 C 178.659 272.636,178.298 272.879,177.929 273.374 M208.025 272.884 C 207.998 273.624,209.596 275.337,209.968 274.966 C 210.092 274.842,209.868 274.558,209.471 274.336 C 209.074 274.114,208.592 273.542,208.400 273.066 C 208.133 272.403,208.045 272.361,208.025 272.884 M225.632 272.867 C 225.614 273.233,225.105 273.903,224.500 274.354 C 223.895 274.805,223.594 275.180,223.830 275.187 C 224.524 275.208,226.105 273.306,225.874 272.729 C 225.729 272.365,225.653 272.408,225.632 272.867 M240.813 273.071 C 240.798 273.620,242.701 275.206,243.354 275.188 C 243.599 275.181,243.442 274.968,243.005 274.715 C 242.568 274.461,241.899 273.882,241.518 273.427 C 241.138 272.972,240.821 272.812,240.813 273.071 M115.652 274.227 C 115.137 274.762,114.887 275.200,115.096 275.200 C 115.558 275.200,116.997 273.664,116.758 273.425 C 116.665 273.331,116.167 273.693,115.652 274.227 " stroke="none" fill="#92bcfc" fill-rule="evenodd"></path><path id="path3" d="M243.397 40.515 C 242.021 42.172,242.000 42.739,242.000 79.149 L 242.000 115.061 242.926 115.930 L 243.852 116.800 279.307 116.800 C 315.725 116.800,315.422 116.812,317.889 115.276 C 318.747 114.742,317.481 113.425,281.418 77.361 C 260.870 56.813,243.999 40.007,243.929 40.015 C 243.858 40.024,243.619 40.249,243.397 40.515 M245.200 43.256 C 246.418 44.757,247.526 45.921,248.822 47.060 C 249.360 47.533,250.172 48.343,250.627 48.860 C 251.081 49.377,251.801 50.093,252.227 50.451 C 252.652 50.809,253.648 51.799,254.440 52.651 C 255.231 53.503,256.401 54.698,257.040 55.308 C 257.678 55.917,258.560 56.780,259.000 57.225 C 259.440 57.671,260.430 58.642,261.200 59.383 C 261.970 60.124,262.967 61.151,263.417 61.665 C 263.866 62.179,264.856 63.187,265.617 63.905 C 267.352 65.542,268.058 66.248,269.695 67.983 C 270.413 68.744,271.421 69.734,271.935 70.183 C 272.449 70.633,273.458 71.612,274.176 72.359 C 274.894 73.106,275.865 74.096,276.334 74.559 C 276.802 75.022,277.683 75.922,278.292 76.560 C 278.902 77.199,280.097 78.369,280.949 79.160 C 281.801 79.952,282.791 80.933,283.149 81.339 C 283.507 81.746,285.023 83.276,286.517 84.739 C 288.012 86.203,289.830 88.012,290.558 88.759 C 291.286 89.506,292.261 90.496,292.724 90.959 C 295.522 93.753,296.284 94.526,297.022 95.318 C 297.474 95.803,298.284 96.587,298.822 97.060 C 299.360 97.533,300.172 98.343,300.627 98.860 C 301.081 99.377,301.801 100.093,302.227 100.451 C 302.652 100.809,303.648 101.799,304.440 102.651 C 305.231 103.503,306.401 104.699,307.040 105.310 C 307.678 105.920,308.589 106.820,309.064 107.310 C 309.539 107.799,310.448 108.650,311.085 109.200 C 311.721 109.750,312.504 110.583,312.824 111.051 C 313.144 111.519,314.158 112.530,315.078 113.298 L 316.750 114.695 315.756 115.147 C 314.287 115.816,243.950 115.790,243.280 115.120 C 242.914 114.754,242.800 106.262,242.800 79.339 C 242.800 40.090,242.787 40.283,245.200 43.256 M101.062 192.731 C 100.455 193.402,100.400 196.804,100.400 233.462 L 100.400 273.461 101.326 274.330 C 102.890 275.800,114.236 275.655,115.745 274.145 L 116.800 273.091 116.800 260.200 L 116.800 247.309 117.855 246.255 C 120.126 243.984,126.400 245.999,126.400 249.000 C 126.400 249.330,126.555 249.600,126.745 249.600 C 127.204 249.600,129.136 253.941,129.439 255.650 C 129.727 257.273,130.853 260.521,131.226 260.800 C 131.825 261.249,133.099 264.350,133.610 266.600 C 135.264 273.894,137.133 275.200,145.910 275.200 C 155.386 275.200,155.863 274.415,151.436 266.105 C 151.057 265.393,150.403 263.608,149.982 262.139 C 149.562 260.669,148.782 258.807,148.248 258.001 C 147.714 257.194,146.704 254.795,146.002 252.669 C 145.301 250.544,144.337 248.219,143.860 247.502 C 141.294 243.651,141.161 239.384,143.554 237.696 C 144.409 237.093,145.597 235.833,146.195 234.895 C 146.792 233.957,147.609 232.959,148.011 232.677 C 148.890 232.061,149.398 230.951,150.198 227.900 C 150.529 226.635,151.102 224.565,151.472 223.300 C 152.489 219.822,152.414 213.348,151.316 209.800 C 150.840 208.260,150.214 206.122,149.925 205.049 C 149.583 203.777,148.740 202.345,147.504 200.931 C 146.461 199.739,145.435 198.439,145.223 198.044 C 144.752 197.163,136.355 192.978,133.945 192.422 C 130.451 191.616,101.827 191.886,101.062 192.731 M187.397 192.594 C 185.268 193.530,184.677 194.677,183.580 200.000 C 182.841 203.589,182.292 205.340,181.572 206.400 C 180.870 207.435,180.002 210.440,179.204 214.600 C 178.951 215.920,178.234 218.080,177.612 219.400 C 176.070 222.673,175.678 223.865,175.380 226.200 C 175.035 228.895,174.263 231.517,173.200 233.600 C 172.204 235.553,171.520 237.818,170.787 241.600 C 170.510 243.030,169.711 245.460,169.012 247.000 C 168.313 248.540,167.515 250.880,167.238 252.200 C 166.151 257.377,165.928 258.186,165.152 259.765 C 164.115 261.873,163.427 264.010,162.822 267.000 C 162.555 268.320,162.101 270.210,161.813 271.200 C 160.928 274.244,162.662 275.200,169.072 275.200 C 177.124 275.200,178.335 274.451,179.121 268.992 C 180.653 258.340,180.572 258.400,193.435 258.400 C 203.355 258.401,204.791 258.735,204.804 261.047 C 204.810 261.995,205.693 264.907,206.610 267.000 C 207.770 269.647,207.927 270.133,208.155 271.777 C 208.586 274.877,209.405 275.200,216.821 275.200 C 226.055 275.200,226.205 275.067,224.735 268.200 C 224.499 267.100,223.814 265.120,223.212 263.800 C 221.700 260.481,221.345 259.392,220.800 256.400 C 220.276 253.523,219.910 252.355,218.606 249.400 C 217.415 246.700,216.800 244.731,216.800 243.618 C 216.800 241.974,216.000 239.390,214.430 235.962 C 213.459 233.841,212.400 230.001,212.400 228.599 C 212.400 227.566,212.104 226.735,210.406 223.000 C 208.979 219.864,208.529 218.313,208.201 215.400 C 208.036 213.938,207.347 211.749,206.439 209.800 C 205.620 208.040,204.723 205.430,204.447 204.000 C 203.145 197.256,201.544 193.654,199.318 192.463 C 198.097 191.810,188.953 191.910,187.397 192.594 M228.200 192.485 C 225.892 193.297,225.798 193.911,227.299 198.400 C 228.283 201.343,228.732 203.574,229.191 207.800 C 229.430 210.000,229.699 212.430,229.790 213.200 C 230.167 216.407,230.881 219.936,231.570 222.000 C 232.369 224.393,232.929 227.596,233.635 233.800 C 234.121 238.074,234.774 241.537,235.822 245.400 C 236.679 248.558,237.100 250.991,237.588 255.600 C 238.285 262.180,238.883 265.268,240.145 268.800 C 240.499 269.790,240.797 271.050,240.807 271.600 C 240.859 274.304,242.878 275.202,248.874 275.190 C 257.353 275.174,257.896 274.864,258.407 269.760 C 258.892 264.915,259.391 262.273,260.401 259.200 C 261.453 256.001,261.925 253.603,262.370 249.200 C 262.779 245.160,263.022 243.609,263.886 239.532 C 264.531 236.488,264.548 236.461,265.968 236.204 C 266.756 236.062,267.794 235.851,268.275 235.736 C 269.031 235.554,269.184 235.734,269.405 237.063 C 269.546 237.908,269.809 239.050,269.991 239.600 C 270.173 240.150,270.525 242.220,270.774 244.200 C 271.626 250.964,272.523 255.552,273.198 256.600 C 273.994 257.834,275.067 263.368,275.427 268.092 C 275.786 272.800,276.433 273.987,279.000 274.649 C 282.412 275.529,289.271 275.359,291.437 274.341 C 293.854 273.204,294.672 271.045,295.578 263.400 C 296.490 255.713,297.273 250.983,297.996 248.800 C 299.034 245.668,299.485 243.244,300.009 238.000 C 300.595 232.134,301.690 226.399,302.414 225.400 C 302.725 224.971,303.661 218.993,304.387 212.800 C 304.897 208.445,305.427 205.767,306.285 203.200 C 309.665 193.084,309.051 192.000,299.944 192.000 C 292.041 192.000,291.605 192.194,291.593 195.716 C 291.585 198.033,290.746 203.427,289.868 206.800 C 288.775 210.997,287.600 219.124,287.600 222.484 C 287.600 224.425,287.399 226.032,286.332 232.600 C 285.730 236.303,285.484 236.460,284.247 233.934 C 283.672 232.760,282.750 231.276,282.199 230.636 C 280.873 229.095,280.037 225.635,279.194 218.200 C 278.621 213.139,278.074 210.229,277.314 208.200 C 276.300 205.492,275.694 202.732,275.425 199.600 C 274.765 191.925,274.838 192.000,268.053 192.000 C 259.184 192.000,259.329 191.823,258.166 204.000 C 257.900 206.788,257.249 209.627,256.287 212.200 C 255.519 214.255,254.944 217.242,254.401 222.000 C 253.715 228.011,252.632 233.200,252.063 233.200 C 251.894 233.200,251.069 232.570,250.228 231.800 C 249.387 231.030,248.581 230.400,248.437 230.400 C 247.678 230.400,246.662 224.467,246.006 216.200 C 245.458 209.291,244.666 203.986,243.617 200.200 C 243.374 199.320,243.010 197.543,242.810 196.251 C 242.190 192.239,241.737 191.994,235.030 192.032 C 231.934 192.049,228.860 192.253,228.200 192.485 M131.484 193.258 C 133.198 193.510,134.690 193.833,134.800 193.977 C 135.419 194.786,137.797 196.007,140.683 196.999 C 143.388 197.928,144.031 198.313,144.335 199.184 C 144.537 199.766,145.532 201.107,146.545 202.164 C 151.346 207.175,151.540 226.542,146.841 231.742 C 146.016 232.654,145.115 233.970,144.837 234.666 C 144.540 235.408,143.857 236.128,143.185 236.406 C 139.938 237.751,139.920 245.945,143.158 249.489 C 143.867 250.266,144.485 251.562,144.771 252.874 C 145.599 256.669,146.108 257.977,147.258 259.265 C 147.880 259.961,148.498 261.177,148.632 261.966 C 148.887 263.464,149.423 265.397,150.126 267.352 C 150.354 267.986,151.032 269.042,151.633 269.700 C 152.855 271.038,153.341 272.744,152.716 273.500 C 151.201 275.331,137.600 273.851,137.600 271.855 C 137.600 271.555,137.082 270.658,136.448 269.860 C 135.672 268.884,135.073 267.398,134.611 265.305 C 133.755 261.426,132.962 259.491,131.766 258.368 C 131.161 257.800,130.750 256.842,130.596 255.646 C 129.425 246.504,121.595 240.625,116.874 245.344 L 115.800 246.417 115.679 259.692 C 115.600 268.366,115.410 273.147,115.130 273.484 C 114.544 274.191,102.383 274.223,101.680 273.520 C 100.966 272.806,100.986 194.209,101.700 193.398 C 102.348 192.663,126.653 192.548,131.484 193.258 M198.900 193.357 C 199.285 193.649,199.604 194.138,199.609 194.444 C 199.622 195.252,201.075 198.332,201.773 199.030 C 202.513 199.770,203.194 202.142,203.200 204.000 C 203.206 206.036,204.677 211.600,205.208 211.600 C 205.938 211.600,207.206 215.428,207.791 219.400 C 208.332 223.074,208.626 224.034,209.573 225.218 C 210.682 226.606,211.052 227.883,212.000 233.600 C 212.467 236.417,212.977 237.754,214.057 239.000 C 214.868 239.935,215.542 242.353,216.008 246.000 C 216.491 249.776,217.464 252.228,218.870 253.217 C 219.040 253.337,219.359 254.687,219.578 256.217 C 220.446 262.288,221.516 266.000,222.397 266.000 C 222.831 266.000,223.480 267.818,224.010 270.520 C 224.697 274.023,224.743 274.000,216.831 274.000 C 209.346 274.000,209.200 273.949,209.200 271.345 C 209.200 268.896,208.086 264.459,207.244 263.555 C 206.846 263.128,206.282 262.019,205.989 261.090 C 204.821 257.387,204.241 257.200,193.896 257.200 C 184.756 257.200,181.281 257.723,179.908 259.306 C 179.067 260.276,179.012 260.503,178.398 265.600 C 177.443 273.516,177.311 273.655,170.494 273.915 C 164.605 274.139,163.200 273.883,163.200 272.582 C 163.200 271.067,164.442 264.225,164.758 264.000 C 166.219 262.959,167.104 260.364,168.032 254.400 C 168.288 252.750,168.807 250.950,169.184 250.400 C 170.841 247.983,171.950 244.510,171.992 241.600 C 172.019 239.725,172.771 237.699,174.070 236.000 C 174.934 234.870,175.295 233.650,175.939 229.684 C 176.593 225.658,176.965 224.412,178.000 222.799 C 179.355 220.688,180.147 217.837,180.592 213.475 C 180.810 211.328,181.101 210.479,181.962 209.475 C 183.211 208.018,183.843 206.495,184.150 204.200 C 185.475 194.315,186.709 192.863,193.800 192.840 C 196.860 192.830,198.413 192.987,198.900 193.357 M240.449 193.320 C 240.930 193.686,241.220 195.057,241.567 198.605 C 242.005 203.090,242.622 205.772,243.664 207.719 C 244.218 208.755,244.694 212.819,245.218 221.000 C 245.742 229.173,246.674 235.084,247.619 236.223 C 248.078 236.775,251.342 238.400,251.994 238.400 C 253.242 238.400,254.568 233.036,255.208 225.400 C 255.690 219.655,256.192 217.216,257.273 215.374 C 258.120 213.930,259.182 208.318,259.193 205.233 C 259.197 204.041,259.387 201.881,259.616 200.433 C 259.846 198.985,260.119 197.238,260.225 196.551 C 260.634 193.892,262.928 192.774,267.828 192.847 C 273.752 192.936,274.324 193.644,274.381 200.969 C 274.409 204.449,275.503 209.896,276.661 212.315 C 277.486 214.039,277.781 215.594,278.253 220.715 C 279.133 230.276,279.389 231.216,282.799 237.400 C 284.254 240.040,285.135 241.200,285.682 241.200 C 286.838 241.200,288.378 233.482,288.396 227.600 C 288.409 223.220,289.420 215.120,290.158 213.476 C 291.511 210.463,291.992 207.404,292.653 197.600 C 292.992 192.580,292.704 192.800,298.949 192.802 C 307.621 192.806,307.873 192.997,305.791 198.000 C 304.258 201.683,303.562 205.960,302.993 215.200 C 302.809 218.189,302.521 219.512,301.643 221.400 C 300.258 224.376,299.745 227.046,299.184 234.200 C 298.729 240.002,298.160 243.465,297.531 244.261 C 296.584 245.460,295.226 252.167,295.195 255.800 C 295.166 259.209,294.170 265.766,293.481 267.084 C 292.482 268.994,292.067 270.146,291.807 271.718 C 291.480 273.703,290.645 274.003,285.474 273.990 C 277.042 273.971,276.955 273.861,275.812 261.888 C 275.191 255.369,274.901 254.071,273.615 252.020 C 272.836 250.780,272.063 247.197,272.013 244.600 C 271.992 243.500,271.726 240.890,271.423 238.800 C 270.341 231.353,269.273 229.986,265.359 231.037 C 263.560 231.520,261.600 239.256,261.600 245.877 C 261.600 248.698,260.678 253.317,259.867 254.553 C 258.791 256.196,258.346 258.516,257.669 266.000 L 257.000 273.400 255.200 273.670 C 251.951 274.158,243.811 274.044,243.092 273.500 C 242.633 273.152,242.302 271.902,242.006 269.400 C 241.566 265.673,241.053 263.854,240.133 262.767 C 239.555 262.084,238.405 254.323,238.393 251.025 C 238.382 248.204,237.350 242.656,236.463 240.649 C 235.372 238.183,234.897 235.635,234.404 229.600 C 233.808 222.304,233.264 219.452,231.914 216.532 C 230.918 214.380,230.724 213.331,230.397 208.332 C 229.939 201.324,229.478 197.953,228.660 195.616 C 228.316 194.634,228.072 193.817,228.118 193.800 C 230.039 193.060,231.391 192.880,235.200 192.855 C 238.277 192.835,240.015 192.989,240.449 193.320 M116.920 205.469 L 115.800 206.937 115.800 218.169 L 115.800 229.400 116.787 230.800 C 118.588 233.356,118.500 233.321,122.781 233.115 C 126.055 232.958,127.008 232.756,128.458 231.911 C 129.416 231.353,130.830 230.761,131.600 230.595 C 133.195 230.250,134.361 229.096,134.669 227.555 C 134.785 226.974,135.471 225.815,136.192 224.981 C 138.577 222.221,138.553 215.652,136.145 211.915 C 135.405 210.766,134.796 209.551,134.791 209.213 C 134.783 208.604,132.031 206.400,131.279 206.400 C 131.063 206.400,130.784 206.136,130.660 205.813 C 130.187 204.579,127.666 204.000,122.772 204.000 L 118.041 204.000 116.920 205.469 M129.678 207.046 C 132.512 208.449,133.973 209.683,133.991 210.688 C 133.996 210.957,134.473 212.210,135.051 213.473 C 136.352 216.318,136.286 221.568,134.919 224.000 C 134.486 224.770,134.016 225.867,133.874 226.437 C 133.174 229.255,129.067 230.800,122.282 230.800 L 118.479 230.800 117.640 229.377 C 116.352 227.195,116.356 210.137,117.644 207.396 L 118.488 205.600 122.622 205.600 C 126.566 205.600,126.890 205.666,129.678 207.046 M192.936 217.112 C 192.109 217.861,191.108 220.027,190.353 222.700 C 190.089 223.635,189.761 224.400,189.623 224.400 C 188.779 224.400,186.812 229.616,186.804 231.874 C 186.798 233.753,185.633 238.979,185.186 239.133 C 184.974 239.207,184.800 240.356,184.800 241.686 C 184.800 245.599,186.370 246.394,194.097 246.398 L 198.793 246.400 199.997 245.141 C 202.215 242.819,201.359 233.512,198.530 229.183 C 197.879 228.188,197.435 226.565,197.038 223.732 C 196.226 217.946,194.712 215.502,192.936 217.112 M195.381 221.743 C 195.708 222.875,196.273 225.420,196.636 227.400 C 197.000 229.380,197.614 231.720,198.001 232.600 C 199.503 236.013,199.764 237.051,199.758 239.582 C 199.747 244.219,199.113 244.786,193.926 244.794 C 187.232 244.804,185.780 243.007,187.211 236.477 C 187.438 235.445,187.820 233.700,188.062 232.600 C 188.303 231.500,189.007 229.520,189.625 228.200 C 190.243 226.880,191.122 224.642,191.577 223.226 C 193.196 218.195,194.238 217.789,195.381 221.743 " stroke="none" fill="#9cc4fc" fill-rule="evenodd"></path><path id="path4" d="M243.038 37.683 C 240.769 38.952,240.818 38.051,240.809 78.656 C 240.800 114.750,240.824 115.941,241.565 116.856 L 242.329 117.800 280.065 117.800 C 321.734 117.800,319.724 117.921,320.901 115.339 C 321.337 114.380,321.223 114.187,319.072 112.258 C 317.810 111.126,316.783 110.052,316.789 109.871 C 316.804 109.424,315.747 108.400,315.270 108.400 C 315.057 108.400,314.319 107.725,313.630 106.900 C 312.940 106.075,312.247 105.272,312.088 105.116 C 311.930 104.960,310.990 104.039,310.000 103.071 C 309.010 102.102,307.956 101.060,307.658 100.755 C 307.360 100.450,305.414 98.490,303.335 96.400 C 301.255 94.310,299.429 92.470,299.277 92.312 C 299.124 92.153,298.325 91.460,297.500 90.770 C 296.675 90.081,296.000 89.343,296.000 89.130 C 296.000 88.629,294.971 87.600,294.470 87.600 C 294.257 87.600,293.519 86.925,292.830 86.100 C 292.140 85.275,291.447 84.476,291.288 84.325 C 291.130 84.174,289.290 82.352,287.200 80.276 C 285.110 78.199,283.150 76.253,282.845 75.950 C 282.540 75.648,281.498 74.590,280.529 73.600 C 279.561 72.610,278.640 71.670,278.484 71.512 C 278.328 71.353,277.525 70.660,276.700 69.970 C 275.875 69.281,275.200 68.543,275.200 68.330 C 275.200 67.890,274.195 66.800,273.789 66.800 C 273.438 66.800,266.800 60.162,266.800 59.811 C 266.800 59.405,265.710 58.400,265.270 58.400 C 265.057 58.400,264.319 57.725,263.630 56.900 C 262.940 56.075,262.247 55.272,262.088 55.116 C 261.930 54.960,260.990 54.039,260.000 53.071 C 259.010 52.102,257.956 51.060,257.658 50.755 C 257.360 50.450,255.414 48.490,253.335 46.400 C 251.255 44.310,249.429 42.470,249.277 42.312 C 249.124 42.153,248.325 41.460,247.500 40.770 C 246.675 40.081,246.000 39.343,246.000 39.130 C 246.000 38.051,244.067 37.107,243.038 37.683 M319.200 114.826 C 319.200 114.950,318.500 115.446,317.646 115.926 L 316.091 116.800 279.592 116.800 L 243.094 116.800 242.347 115.939 C 241.330 114.766,241.167 44.210,242.176 41.796 C 243.495 38.638,240.622 36.071,281.500 76.923 C 302.235 97.644,319.200 114.701,319.200 114.826 M100.365 191.304 C 98.792 192.534,98.800 192.314,98.800 233.394 C 98.800 276.679,98.708 274.883,100.989 275.922 C 102.700 276.702,114.428 276.564,116.148 275.744 C 117.992 274.865,118.000 274.796,118.000 260.524 C 118.000 252.895,118.155 248.058,118.414 247.574 C 119.381 245.767,124.400 246.878,124.400 248.898 C 124.400 249.772,125.805 252.716,127.006 254.359 C 127.553 255.107,128.000 256.076,128.000 256.513 C 128.000 256.950,128.172 257.958,128.382 258.754 C 128.592 259.549,128.864 260.691,128.987 261.292 C 129.110 261.892,129.713 262.897,130.325 263.524 C 131.068 264.283,131.611 265.454,131.953 267.032 C 133.872 275.881,134.638 276.400,145.756 276.400 C 154.669 276.400,155.751 275.908,155.432 272.000 C 155.117 268.151,154.754 266.926,153.461 265.359 C 152.171 263.795,151.221 261.627,151.200 260.200 C 151.178 258.669,149.956 255.876,148.632 254.329 C 147.559 253.075,147.246 252.295,147.022 250.312 C 146.703 247.491,146.044 246.007,144.608 244.878 C 142.933 243.560,143.126 239.640,144.909 238.770 C 145.619 238.423,146.560 237.472,147.000 236.656 C 147.440 235.840,148.348 234.844,149.017 234.442 C 149.859 233.938,150.397 233.169,150.759 231.956 C 151.047 230.990,151.445 229.787,151.642 229.281 C 151.839 228.776,152.000 228.003,152.000 227.564 C 152.000 227.124,152.445 226.285,152.989 225.698 C 155.746 222.725,155.190 207.200,152.326 207.200 C 152.147 207.200,152.000 206.870,152.000 206.466 C 152.000 205.384,150.419 200.758,149.872 200.238 C 149.612 199.991,148.933 199.491,148.361 199.126 C 147.790 198.761,147.103 197.932,146.835 197.284 C 146.567 196.637,145.909 195.903,145.374 195.653 C 144.838 195.404,143.905 194.975,143.300 194.700 C 142.695 194.425,141.740 193.723,141.177 193.140 C 139.231 191.124,138.380 191.039,119.000 190.919 C 105.136 190.833,100.854 190.921,100.365 191.304 M185.312 191.429 C 183.498 192.223,182.830 193.461,182.387 196.851 C 181.771 201.565,181.540 202.460,180.731 203.269 C 179.461 204.539,178.002 209.762,178.000 213.040 C 178.000 213.755,177.495 215.025,176.807 216.040 C 175.284 218.287,174.599 220.482,173.979 225.105 C 173.585 228.048,173.283 229.025,172.511 229.858 C 170.960 231.532,170.376 233.473,169.586 239.576 C 169.374 241.213,169.057 242.653,168.881 242.776 C 167.383 243.825,166.311 246.827,165.585 252.000 C 165.207 254.692,164.833 255.816,163.785 257.400 C 162.501 259.340,162.250 260.229,161.184 266.600 C 160.812 268.826,160.484 269.611,159.583 270.431 C 155.660 274.000,159.678 276.400,169.574 276.400 C 179.088 276.400,180.123 275.787,180.522 269.912 C 180.760 266.408,181.111 265.292,182.410 263.897 C 182.795 263.483,183.216 262.662,183.345 262.072 C 183.848 259.763,183.655 259.810,193.210 259.672 C 202.878 259.532,203.200 259.598,203.200 261.749 C 203.202 265.096,205.032 271.200,206.034 271.200 C 206.178 271.200,206.529 272.030,206.813 273.045 C 207.673 276.118,208.497 276.397,216.713 276.399 C 224.414 276.400,225.696 276.111,227.168 274.045 C 227.655 273.360,227.886 272.800,227.679 272.800 C 227.217 272.800,226.662 270.617,225.800 265.400 C 225.294 262.335,224.889 261.073,224.069 260.000 C 222.735 258.254,222.014 256.253,222.006 254.277 C 221.994 251.306,220.886 247.760,219.485 246.208 C 219.091 245.772,218.703 245.052,218.622 244.608 C 218.540 244.164,218.277 242.841,218.037 241.669 C 217.797 240.498,217.600 239.100,217.600 238.563 C 217.600 236.859,216.636 234.327,215.534 233.139 C 214.893 232.446,214.368 231.314,214.217 230.294 C 212.965 221.845,212.782 221.159,211.361 219.600 C 210.473 218.627,209.201 213.899,209.200 211.571 C 209.200 210.149,208.004 206.771,207.192 205.900 C 206.342 204.987,205.817 203.169,205.037 198.437 C 204.340 194.210,203.390 192.430,201.302 191.434 C 199.502 190.575,187.271 190.572,185.312 191.429 M225.959 191.713 C 224.258 192.856,224.076 194.291,224.999 199.314 C 225.665 202.938,226.286 204.800,226.828 204.800 C 227.253 204.800,227.889 209.245,228.431 216.000 C 228.923 222.128,229.504 225.079,230.747 227.762 C 231.646 229.702,232.394 234.153,232.414 237.677 C 232.441 242.508,233.707 249.082,234.985 251.034 C 235.705 252.133,236.261 255.751,236.608 261.600 C 237.410 275.109,238.575 276.401,249.949 276.399 C 259.163 276.396,259.196 276.374,259.958 269.558 C 260.182 267.556,260.638 265.914,261.291 264.758 C 262.771 262.137,263.165 259.705,264.217 246.700 C 264.355 244.995,264.500 243.600,264.540 243.600 C 264.579 243.600,265.596 243.240,266.800 242.800 C 268.004 242.360,269.018 242.000,269.054 242.000 C 269.090 242.000,269.232 243.305,269.371 244.900 C 270.406 256.803,270.738 258.667,272.381 261.800 C 273.200 263.361,273.551 264.898,273.979 268.800 C 274.789 276.172,275.169 276.425,285.331 276.368 C 295.801 276.309,296.300 275.855,297.011 265.731 C 297.507 258.669,297.859 256.699,298.920 255.051 C 299.965 253.428,301.200 246.421,301.200 242.112 C 301.200 238.384,301.953 234.088,303.006 231.800 C 304.318 228.953,304.710 226.948,305.197 220.600 C 305.733 213.613,306.255 210.549,307.181 208.959 C 308.257 207.110,309.158 201.973,309.286 196.945 C 309.447 190.653,309.712 190.828,300.000 190.822 C 290.925 190.817,290.000 191.339,290.000 196.460 C 290.000 197.307,289.864 198.000,289.698 198.000 C 288.364 198.000,287.144 205.287,286.383 217.800 C 285.779 227.721,285.963 227.373,283.028 224.144 L 281.055 221.975 280.714 217.687 C 279.883 207.265,279.332 204.095,277.987 202.000 C 277.044 200.531,276.400 197.980,276.400 195.713 C 276.400 194.297,276.134 193.324,275.485 192.359 L 274.569 191.000 267.683 190.891 C 257.993 190.737,257.812 190.859,257.372 197.906 C 257.100 202.265,256.776 203.635,255.276 206.769 C 254.047 209.338,253.738 211.128,253.223 218.658 C 253.010 221.770,252.716 224.796,252.569 225.382 L 252.301 226.448 251.048 225.081 C 250.359 224.329,249.527 223.193,249.199 222.557 C 248.870 221.920,248.500 221.310,248.376 221.200 C 247.793 220.683,247.225 215.987,246.997 209.800 C 246.522 196.895,245.507 193.082,242.073 191.300 C 240.152 190.304,227.578 190.626,225.959 191.713 M136.600 192.663 C 137.480 193.131,139.673 194.259,141.474 195.167 C 143.776 196.329,145.140 197.322,146.066 198.510 C 146.791 199.439,147.855 200.652,148.431 201.204 C 149.007 201.756,149.678 202.836,149.921 203.604 C 150.164 204.372,150.951 206.800,151.669 209.000 C 153.351 214.151,153.502 219.119,152.102 223.200 C 151.611 224.630,150.828 227.143,150.363 228.784 C 149.414 232.127,147.415 234.849,143.028 238.769 C 141.465 240.166,142.171 244.899,144.280 247.164 C 144.681 247.594,145.253 248.813,145.551 249.873 C 146.946 254.838,147.593 256.397,148.792 257.684 C 149.169 258.088,149.717 259.449,150.012 260.709 C 150.628 263.347,151.870 266.472,152.443 266.826 C 153.314 267.365,154.838 272.870,154.305 273.551 C 153.014 275.201,153.019 275.200,145.729 275.199 C 138.520 275.197,136.000 274.688,136.000 273.234 C 136.000 273.027,135.775 272.612,135.500 272.313 C 134.586 271.319,134.123 270.223,133.421 267.398 C 132.698 264.484,131.750 262.129,130.982 261.338 C 130.735 261.084,130.221 259.824,129.839 258.538 C 128.213 253.064,127.927 252.313,126.793 250.524 C 126.137 249.490,125.600 248.465,125.600 248.247 C 125.600 245.919,119.268 244.971,117.629 247.054 C 116.830 248.070,116.800 248.564,116.800 260.922 C 116.800 272.285,116.725 273.820,116.138 274.469 C 115.041 275.680,101.814 275.569,100.747 274.339 C 100.028 273.510,100.000 271.957,100.000 233.521 L 100.000 193.564 101.016 192.548 L 102.032 191.532 118.516 191.671 C 134.431 191.805,135.055 191.840,136.600 192.663 M199.767 192.211 C 201.871 193.210,203.066 195.899,204.826 203.600 C 205.304 205.690,206.002 207.850,206.377 208.400 C 207.390 209.882,207.933 211.497,208.396 214.400 C 209.039 218.432,209.377 219.575,210.877 222.800 C 211.644 224.450,212.496 227.060,212.769 228.600 C 213.347 231.852,214.303 235.057,215.036 236.200 C 215.758 237.324,216.598 240.120,217.199 243.400 C 217.481 244.940,218.233 247.310,218.869 248.667 C 220.072 251.231,221.200 255.018,221.200 256.491 C 221.200 257.642,221.888 259.713,223.229 262.600 C 225.621 267.751,226.448 272.871,225.117 274.288 C 224.286 275.173,224.048 275.200,217.030 275.187 C 208.651 275.173,208.628 275.164,207.740 271.765 C 207.410 270.498,206.814 268.727,206.417 267.830 C 205.359 265.443,204.893 263.998,204.599 262.200 C 204.452 261.303,203.879 260.117,203.294 259.500 L 202.250 258.400 194.225 258.406 C 181.157 258.416,181.491 258.141,179.208 270.756 C 178.451 274.937,177.894 275.200,169.800 275.200 C 163.618 275.200,162.643 275.032,161.115 273.700 C 160.522 273.183,160.500 272.962,160.953 272.051 C 161.490 270.972,161.963 269.196,162.832 265.000 C 163.106 263.680,163.930 261.291,164.665 259.691 C 165.399 258.091,166.000 256.492,166.000 256.138 C 166.000 255.783,166.164 254.842,166.365 254.046 C 166.566 253.251,166.951 251.623,167.220 250.430 C 167.490 249.236,168.034 247.706,168.430 247.030 C 169.356 245.449,170.177 242.871,170.796 239.600 C 171.440 236.201,172.009 234.440,172.885 233.138 C 173.278 232.554,173.600 231.800,173.600 231.462 C 173.600 231.124,173.760 230.748,173.956 230.627 C 174.151 230.506,174.402 229.821,174.513 229.104 C 175.463 222.935,175.968 221.072,177.195 219.200 C 177.997 217.977,178.611 215.886,179.250 212.200 C 179.517 210.660,180.332 208.098,181.060 206.508 C 182.340 203.713,182.552 202.995,183.634 197.800 C 184.792 192.240,185.600 191.748,193.740 191.654 C 197.254 191.614,198.812 191.758,199.767 192.211 M241.793 192.535 C 242.439 193.182,243.152 195.464,244.438 201.000 C 245.193 204.249,245.654 207.516,245.992 212.000 C 246.985 225.163,247.451 227.142,250.158 229.700 C 251.543 231.008,252.254 231.444,252.442 231.100 C 252.786 230.471,253.544 225.985,254.014 221.800 C 254.624 216.357,255.088 213.912,256.099 210.800 C 257.462 206.604,257.923 204.322,258.198 200.400 C 258.781 192.083,258.964 191.905,267.222 191.671 C 274.657 191.460,274.956 191.641,275.403 196.642 C 275.701 199.966,276.514 204.029,277.254 205.892 C 278.199 208.269,278.935 212.021,279.590 217.800 C 280.583 226.549,280.802 227.330,282.955 229.800 C 283.530 230.460,284.281 231.589,284.624 232.309 C 285.690 234.551,285.852 234.099,286.812 226.200 C 287.025 224.440,287.379 220.930,287.597 218.400 C 288.026 213.412,288.563 209.519,289.168 207.000 C 290.001 203.531,290.765 199.654,291.208 196.637 C 291.962 191.509,291.799 191.600,300.237 191.600 C 309.424 191.600,310.195 193.254,306.387 204.800 C 305.581 207.246,305.222 209.241,304.411 215.800 C 303.525 222.971,303.020 225.776,302.149 228.383 C 301.381 230.680,300.417 236.135,300.407 238.233 C 300.396 240.824,299.083 247.832,297.979 251.200 C 297.210 253.544,296.000 261.206,296.000 263.729 C 296.000 264.563,295.835 266.000,295.633 266.923 C 295.431 267.845,295.038 269.654,294.759 270.942 C 293.947 274.696,292.827 275.200,285.305 275.200 C 276.608 275.200,275.801 274.838,275.404 270.755 C 274.858 265.137,273.980 260.126,273.203 258.200 C 272.002 255.220,271.375 252.454,270.803 247.600 C 269.924 240.154,269.204 237.600,267.984 237.600 C 264.484 237.600,263.995 238.714,262.800 249.400 C 262.249 254.322,261.715 257.139,260.787 260.000 C 259.703 263.342,258.400 270.184,258.400 272.531 C 258.400 274.880,257.364 275.200,249.747 275.200 C 243.149 275.200,242.801 275.160,241.853 274.300 C 240.382 272.964,237.595 263.050,237.603 259.176 C 237.609 256.008,236.650 250.656,234.886 244.000 C 234.448 242.350,233.883 239.200,233.630 237.000 C 232.997 231.499,232.146 226.113,231.608 224.200 C 230.500 220.261,229.680 215.838,229.234 211.400 C 228.791 206.996,228.017 203.186,226.199 196.472 C 225.025 192.140,225.965 191.669,235.630 191.753 C 240.327 191.794,241.158 191.899,241.793 192.535 M117.902 207.846 C 117.076 209.636,116.989 210.489,116.873 218.000 C 116.684 230.153,116.907 230.579,123.273 230.281 C 130.254 229.955,132.762 229.008,133.397 226.462 C 133.543 225.878,133.898 224.860,134.187 224.200 C 135.760 220.611,135.943 216.104,134.616 213.645 C 134.306 213.070,133.942 212.082,133.806 211.449 C 133.509 210.066,131.549 208.001,130.531 207.999 C 130.129 207.998,129.232 207.651,128.539 207.228 C 127.616 206.666,126.138 206.382,123.040 206.175 L 118.803 205.891 117.902 207.846 M129.400 209.018 C 132.326 209.519,132.620 210.208,133.058 217.592 C 133.273 221.203,132.908 224.182,131.925 226.861 C 131.463 228.118,130.570 228.308,123.506 228.654 L 118.812 228.884 118.379 227.745 C 117.867 226.397,118.013 209.690,118.544 208.867 C 118.902 208.312,125.845 208.409,129.400 209.018 M192.928 221.081 C 192.465 221.917,191.954 223.230,191.791 224.000 C 191.628 224.770,190.825 226.840,190.005 228.600 C 189.155 230.427,188.301 233.087,188.015 234.800 C 187.740 236.450,187.383 238.250,187.222 238.800 C 186.842 240.105,188.165 243.339,189.335 243.965 C 190.661 244.675,198.032 244.378,198.395 243.600 C 198.550 243.270,198.884 242.597,199.138 242.105 C 200.001 240.436,199.087 235.012,197.604 233.000 C 197.247 232.515,196.231 228.026,195.612 224.200 C 195.363 222.660,194.847 220.987,194.464 220.481 L 193.768 219.563 192.928 221.081 M194.633 225.475 C 194.936 227.194,195.196 229.230,195.210 230.000 C 195.247 232.067,196.060 234.762,197.260 236.804 C 199.743 241.027,198.611 241.983,191.110 241.997 C 188.074 242.003,187.650 236.090,190.404 232.170 C 191.034 231.273,191.660 230.013,191.795 229.370 C 191.929 228.726,192.208 227.570,192.413 226.800 C 192.619 226.030,192.982 224.617,193.220 223.660 C 193.775 221.427,193.962 221.668,194.633 225.475 " stroke="none" fill="#84b2fc" fill-rule="evenodd"></path></g></svg>