<svg id="svg" xmlns="http://www.w3.org/2000/svg" xmlns:xlink="http://www.w3.org/1999/xlink" width="400" height="400" viewBox="0, 0, 400,400"><g id="svgg"><path id="path0" d="M58.800 21.549 C 58.800 21.741,58.095 22.010,57.233 22.148 C 55.521 22.422,54.800 24.161,54.800 28.020 L 54.800 29.600 52.600 29.600 C 51.390 29.600,50.400 29.757,50.400 29.949 C 50.400 30.141,49.700 30.410,48.844 30.547 C 47.943 30.691,47.143 31.091,46.944 31.498 C 46.505 32.394,46.283 350.034,46.720 351.733 C 47.124 353.303,48.721 353.945,52.300 353.977 L 54.800 354.000 54.800 355.780 C 54.800 362.655,53.908 362.400,77.962 362.400 L 96.284 362.400 97.322 361.147 C 97.893 360.458,98.481 359.333,98.630 358.647 C 98.779 357.961,99.103 357.272,99.350 357.115 C 99.641 356.931,99.847 354.669,99.934 350.715 L 100.068 344.600 88.219 344.600 C 80.003 344.600,76.283 344.464,76.085 344.158 C 75.928 343.914,75.130 343.592,74.311 343.442 C 73.492 343.291,72.682 342.950,72.511 342.684 C 72.153 342.126,70.896 341.278,69.950 340.955 C 69.592 340.833,69.052 340.253,68.750 339.666 C 68.447 339.080,67.885 338.365,67.500 338.077 C 67.115 337.790,66.800 337.314,66.800 337.020 C 66.800 336.726,66.540 336.386,66.222 336.264 C 65.904 336.142,65.518 335.358,65.364 334.521 C 65.211 333.684,64.886 332.872,64.642 332.715 C 63.966 332.278,64.023 301.526,64.700 301.300 C 64.975 301.208,65.200 300.707,65.200 300.185 C 65.200 298.921,66.021 297.123,66.894 296.477 C 67.282 296.190,67.600 295.803,67.600 295.618 C 67.600 295.050,69.747 292.800,70.289 292.800 C 70.570 292.800,70.800 292.617,70.800 292.394 C 70.800 292.170,71.475 291.675,72.300 291.294 C 73.125 290.912,73.890 290.485,74.000 290.345 C 74.514 289.688,80.729 289.200,88.577 289.200 C 93.505 289.200,97.200 289.044,97.200 288.835 C 97.200 288.634,97.920 288.349,98.800 288.200 L 100.400 287.930 100.400 158.365 C 100.400 72.255,100.534 28.800,100.800 28.800 C 101.020 28.800,101.200 28.260,101.200 27.600 C 101.200 26.910,100.988 26.397,100.700 26.394 C 100.367 26.390,100.400 26.258,100.800 26.000 C 101.333 25.655,101.333 25.611,100.800 25.600 C 100.267 25.589,100.267 25.541,100.800 25.163 C 101.252 24.844,101.276 24.689,100.900 24.536 C 100.132 24.224,100.293 22.804,101.100 22.772 C 101.699 22.748,101.684 22.694,101.000 22.400 C 100.316 22.106,100.301 22.052,100.900 22.028 C 101.285 22.013,101.600 21.820,101.600 21.600 C 101.600 21.338,94.200 21.200,80.200 21.200 C 68.291 21.200,58.800 21.355,58.800 21.549 M334.000 21.765 C 334.000 22.130,334.354 22.291,335.000 22.220 C 335.550 22.159,336.003 22.310,336.006 22.555 C 336.010 22.871,336.097 22.875,336.306 22.566 C 336.739 21.927,339.105 22.661,339.325 23.504 C 339.497 24.162,339.510 24.162,339.554 23.500 C 339.608 22.680,340.238 22.592,340.984 23.300 C 341.274 23.575,341.846 24.089,342.255 24.443 C 343.307 25.351,344.400 26.743,344.400 27.175 C 344.400 27.377,344.085 27.624,343.700 27.724 C 343.042 27.896,343.042 27.910,343.710 27.954 C 344.162 27.983,344.507 28.436,344.660 29.200 C 344.998 30.889,346.000 30.765,346.000 29.033 C 346.000 28.282,345.775 27.576,345.500 27.465 C 345.100 27.304,345.100 27.257,345.500 27.232 C 346.246 27.184,346.160 24.400,345.413 24.400 C 345.053 24.400,344.915 24.166,345.057 23.795 C 345.379 22.957,344.409 21.904,343.528 22.135 C 343.079 22.252,342.800 22.110,342.800 21.763 C 342.800 21.045,340.152 20.989,339.865 21.700 C 339.704 22.100,339.657 22.100,339.632 21.700 C 339.583 20.938,334.000 21.002,334.000 21.765 M336.800 23.200 C 336.800 23.420,337.070 23.600,337.400 23.600 C 337.730 23.600,338.000 23.420,338.000 23.200 C 338.000 22.980,337.730 22.800,337.400 22.800 C 337.070 22.800,336.800 22.980,336.800 23.200 M340.000 24.600 C 340.000 24.930,340.180 25.200,340.400 25.200 C 340.620 25.200,340.800 24.930,340.800 24.600 C 340.800 24.270,340.620 24.000,340.400 24.000 C 340.180 24.000,340.000 24.270,340.000 24.600 M342.000 26.800 C 342.000 27.020,342.270 27.200,342.600 27.200 C 342.930 27.200,343.200 27.020,343.200 26.800 C 343.200 26.580,342.930 26.400,342.600 26.400 C 342.270 26.400,342.000 26.580,342.000 26.800 M346.400 29.971 C 346.400 30.176,346.085 30.661,345.700 31.049 C 345.033 31.722,345.033 31.743,345.700 31.490 C 346.193 31.303,346.409 31.428,346.432 31.913 C 346.451 32.330,346.542 32.403,346.665 32.100 C 346.897 31.526,348.000 31.416,348.000 31.967 C 348.000 32.168,347.775 32.437,347.500 32.563 C 347.225 32.689,347.428 32.685,347.950 32.553 C 348.584 32.394,348.810 32.460,348.629 32.753 C 348.458 33.031,348.594 33.101,349.002 32.944 C 350.139 32.507,352.280 35.605,351.766 36.944 C 351.638 37.279,351.898 37.585,352.430 37.724 C 353.079 37.893,353.250 38.166,353.090 38.777 C 352.955 39.294,353.031 39.504,353.295 39.341 C 353.565 39.175,353.645 39.453,353.518 40.115 C 353.410 40.683,353.468 41.385,353.647 41.674 C 353.828 41.967,353.969 40.470,353.963 38.300 C 353.957 36.008,353.791 34.400,353.559 34.400 C 353.326 34.400,353.269 33.839,353.420 33.034 C 353.731 31.374,352.317 30.133,350.603 30.564 C 349.862 30.749,349.600 30.656,349.600 30.208 C 349.600 29.765,349.164 29.600,348.000 29.600 C 347.120 29.600,346.400 29.767,346.400 29.971 M352.832 291.075 C 352.810 291.401,351.889 291.532,349.900 291.492 C 342.223 291.339,337.600 291.593,337.600 292.167 C 337.600 292.478,337.375 292.808,337.100 292.900 C 336.714 293.028,336.542 297.518,336.345 312.633 C 336.108 330.826,335.912 334.800,335.252 334.800 C 335.111 334.800,334.739 335.385,334.427 336.100 C 334.114 336.815,333.530 337.635,333.129 337.923 C 332.728 338.210,332.400 338.615,332.400 338.823 C 332.400 339.383,331.092 340.588,329.555 341.445 C 328.810 341.860,328.060 342.418,327.889 342.684 C 327.718 342.950,326.908 343.291,326.089 343.442 C 325.270 343.592,324.472 343.914,324.315 344.158 C 324.108 344.478,303.584 344.600,249.815 344.600 L 175.600 344.600 175.600 349.669 C 175.600 354.447,176.184 358.800,176.825 358.800 C 176.984 358.800,177.225 359.245,177.361 359.789 C 178.083 362.664,169.729 362.402,259.975 362.383 C 350.468 362.363,345.147 362.568,345.187 359.100 C 345.194 358.495,345.380 358.000,345.600 358.000 C 345.820 358.000,346.000 357.126,346.000 356.057 L 346.000 354.115 348.838 353.851 C 351.943 353.563,352.925 353.192,353.453 352.111 C 353.916 351.163,354.113 290.433,353.651 291.145 C 353.352 291.606,353.263 291.606,353.080 291.145 C 352.944 290.804,352.851 290.777,352.832 291.075 " stroke="none" fill="#546c7c" fill-rule="evenodd"></path><path id="path1" d="M101.123 292.431 C 101.028 292.715,97.250 292.959,90.017 293.149 C 82.042 293.358,79.011 293.568,78.894 293.918 C 78.806 294.183,78.505 294.400,78.226 294.400 C 77.620 294.400,75.200 296.639,75.200 297.200 C 75.200 297.639,72.839 300.000,72.400 300.000 C 71.958 300.000,69.705 302.262,69.133 303.280 C 68.533 304.349,68.133 322.549,68.600 327.536 C 68.878 330.508,68.903 330.560,70.941 332.470 C 73.469 334.841,74.758 336.146,76.533 338.132 C 77.575 339.297,78.296 339.716,79.551 339.884 C 80.458 340.006,81.200 340.262,81.200 340.453 C 81.200 340.644,84.980 340.800,89.600 340.800 C 94.825 340.800,98.000 340.652,98.000 340.408 C 98.000 340.192,98.450 339.902,99.000 339.764 L 100.000 339.513 100.000 325.944 C 100.000 314.252,100.083 312.343,100.600 312.145 C 100.930 312.018,101.199 311.709,101.197 311.457 C 101.196 311.206,101.869 310.415,102.693 309.700 L 104.191 308.400 137.522 308.400 C 160.641 308.400,171.100 308.532,171.660 308.832 C 172.943 309.519,174.400 310.900,174.400 311.429 C 174.400 311.696,174.670 312.018,175.000 312.145 C 175.517 312.343,175.600 314.256,175.600 325.980 L 175.600 339.585 176.600 339.836 C 177.150 339.974,177.600 340.247,177.600 340.443 C 177.600 340.651,207.206 340.800,248.400 340.800 C 295.333 340.800,319.200 340.665,319.200 340.400 C 319.200 340.180,319.752 340.000,320.426 340.000 C 322.396 340.000,324.341 338.578,325.839 336.042 C 326.222 335.393,326.989 334.624,327.543 334.331 C 329.797 333.142,331.600 330.734,331.600 328.911 C 331.600 328.190,331.780 327.600,332.000 327.600 C 332.260 327.600,332.400 321.867,332.400 311.200 C 332.400 301.072,332.254 294.800,332.019 294.800 C 331.809 294.800,331.339 294.170,330.973 293.400 L 330.309 292.000 215.788 292.000 C 134.332 292.000,101.225 292.124,101.123 292.431 " stroke="none" fill="#faeab3" fill-rule="evenodd"></path><path id="path2" d="M102.693 309.700 C 101.869 310.415,101.196 311.206,101.197 311.457 C 101.199 311.709,100.936 312.016,100.613 312.140 C 100.109 312.333,100.010 315.494,99.913 334.597 C 99.832 350.511,99.672 356.911,99.350 357.115 C 99.103 357.272,98.777 357.970,98.626 358.666 C 98.475 359.362,97.912 360.442,97.376 361.066 L 96.401 362.200 96.400 374.267 C 96.400 380.904,96.509 386.619,96.643 386.967 C 96.932 387.721,115.200 387.951,115.200 387.200 C 115.200 386.980,115.842 386.800,116.626 386.800 C 118.327 386.800,119.600 386.195,119.600 385.386 C 119.600 385.064,119.757 384.800,119.948 384.800 C 120.140 384.800,120.419 383.557,120.569 382.038 L 120.841 379.276 124.588 379.138 C 129.164 378.969,128.969 379.164,129.139 374.567 L 129.277 370.800 137.800 370.800 L 146.323 370.800 146.461 374.567 C 146.630 379.163,146.439 378.970,150.991 379.137 L 154.717 379.274 154.975 381.537 C 155.505 386.198,155.968 386.800,159.019 386.800 C 159.778 386.800,160.400 386.980,160.400 387.200 C 160.400 387.951,178.668 387.721,178.957 386.967 C 179.521 385.498,179.222 361.983,178.637 361.759 C 178.327 361.640,177.842 360.970,177.559 360.271 C 177.277 359.572,176.929 358.910,176.788 358.800 C 175.800 358.034,175.600 353.783,175.600 333.610 C 175.600 315.103,175.523 312.345,175.000 312.145 C 174.670 312.018,174.400 311.696,174.400 311.429 C 174.400 310.900,172.943 309.519,171.660 308.832 C 171.100 308.532,160.641 308.400,137.522 308.400 L 104.191 308.400 102.693 309.700 " stroke="none" fill="#fc3c04" fill-rule="evenodd"></path><path id="path3" d="M101.600 21.600 C 101.600 21.820,101.285 22.013,100.900 22.028 C 100.301 22.052,100.316 22.106,101.000 22.400 C 101.684 22.694,101.699 22.748,101.100 22.772 C 100.293 22.804,100.132 24.224,100.900 24.536 C 101.276 24.689,101.252 24.844,100.800 25.163 C 100.267 25.541,100.267 25.589,100.800 25.600 C 101.333 25.611,101.333 25.655,100.800 26.000 C 100.400 26.258,100.367 26.390,100.700 26.394 C 100.988 26.397,101.200 26.910,101.200 27.600 C 101.200 28.260,101.020 28.800,100.800 28.800 C 100.534 28.800,100.400 72.255,100.400 158.365 L 100.400 287.930 98.800 288.200 C 97.920 288.349,97.200 288.634,97.200 288.835 C 97.200 289.044,93.505 289.200,88.577 289.200 C 80.729 289.200,74.514 289.688,74.000 290.345 C 73.890 290.485,73.125 290.912,72.300 291.294 C 71.475 291.675,70.800 292.170,70.800 292.394 C 70.800 292.617,70.570 292.800,70.289 292.800 C 69.747 292.800,67.600 295.050,67.600 295.618 C 67.600 295.803,67.282 296.190,66.894 296.477 C 66.021 297.123,65.200 298.921,65.200 300.185 C 65.200 300.707,64.975 301.208,64.700 301.300 C 64.023 301.526,63.966 332.278,64.642 332.715 C 64.886 332.872,65.211 333.684,65.364 334.521 C 65.518 335.358,65.904 336.142,66.222 336.264 C 66.540 336.386,66.800 336.726,66.800 337.020 C 66.800 337.314,67.115 337.790,67.500 338.077 C 67.885 338.365,68.447 339.080,68.750 339.666 C 69.052 340.253,69.592 340.833,69.950 340.955 C 70.896 341.278,72.153 342.126,72.511 342.684 C 72.682 342.950,73.492 343.291,74.311 343.442 C 75.130 343.592,75.928 343.914,76.085 344.158 C 76.417 344.673,94.351 345.048,97.832 344.613 L 100.000 344.342 100.000 341.971 C 100.000 339.462,99.502 338.956,98.257 340.200 C 97.581 340.877,81.200 341.119,81.200 340.453 C 81.200 340.262,80.458 340.006,79.551 339.884 C 78.296 339.716,77.575 339.297,76.533 338.132 C 74.758 336.146,73.469 334.841,70.941 332.470 C 68.903 330.560,68.878 330.508,68.600 327.536 C 68.133 322.549,68.533 304.349,69.133 303.280 C 69.705 302.262,71.958 300.000,72.400 300.000 C 72.839 300.000,75.200 297.639,75.200 297.200 C 75.200 296.639,77.620 294.400,78.226 294.400 C 78.505 294.400,78.806 294.183,78.894 293.918 C 79.011 293.568,82.042 293.358,90.017 293.149 C 97.250 292.959,101.028 292.715,101.123 292.431 C 101.225 292.124,134.332 292.000,215.788 292.000 L 330.309 292.000 330.973 293.400 C 331.339 294.170,331.809 294.800,332.019 294.800 C 332.254 294.800,332.400 301.072,332.400 311.200 C 332.400 321.867,332.260 327.600,332.000 327.600 C 331.780 327.600,331.600 328.190,331.600 328.911 C 331.600 330.734,329.797 333.142,327.543 334.331 C 326.989 334.624,326.222 335.393,325.839 336.042 C 324.341 338.578,322.396 340.000,320.426 340.000 C 319.752 340.000,319.200 340.180,319.200 340.400 C 319.200 340.905,177.727 340.958,177.533 340.453 C 176.862 338.705,175.600 339.679,175.600 341.944 L 175.600 344.342 177.700 344.591 C 181.664 345.061,324.004 344.640,324.315 344.158 C 324.472 343.914,325.270 343.592,326.089 343.442 C 326.908 343.291,327.718 342.950,327.889 342.684 C 328.060 342.418,328.810 341.860,329.555 341.445 C 331.092 340.588,332.400 339.383,332.400 338.823 C 332.400 338.615,332.728 338.210,333.129 337.923 C 333.530 337.635,334.114 336.815,334.427 336.100 C 334.739 335.385,335.111 334.800,335.252 334.800 C 335.912 334.800,336.108 330.826,336.345 312.633 C 336.542 297.518,336.714 293.028,337.100 292.900 C 337.375 292.808,337.600 292.478,337.600 292.167 C 337.600 291.593,342.223 291.339,349.900 291.492 C 351.902 291.532,352.802 291.403,352.806 291.075 C 352.810 290.782,352.952 290.821,353.179 291.179 C 353.983 292.451,354.021 285.664,353.866 165.600 C 353.689 27.292,353.746 39.062,353.246 39.372 C 353.040 39.499,352.971 39.233,353.090 38.777 C 353.250 38.166,353.079 37.893,352.430 37.724 C 351.898 37.585,351.638 37.279,351.766 36.944 C 352.280 35.605,350.139 32.507,349.002 32.944 C 348.594 33.101,348.458 33.031,348.629 32.753 C 348.810 32.460,348.584 32.394,347.950 32.553 C 347.428 32.685,347.225 32.689,347.500 32.563 C 347.775 32.437,348.000 32.168,348.000 31.967 C 348.000 31.416,346.897 31.526,346.665 32.100 C 346.542 32.403,346.451 32.330,346.432 31.913 C 346.409 31.428,346.193 31.303,345.700 31.490 C 345.033 31.743,345.033 31.722,345.700 31.049 C 346.085 30.661,346.386 30.131,346.368 29.871 C 346.346 29.540,346.277 29.548,346.135 29.900 C 345.768 30.811,344.904 30.418,344.667 29.233 C 344.536 28.580,344.117 27.983,343.717 27.879 C 343.052 27.706,343.051 27.689,343.700 27.646 C 344.898 27.567,344.276 26.187,342.255 24.443 C 341.846 24.089,341.274 23.575,340.984 23.300 C 340.249 22.603,339.691 22.677,339.476 23.500 C 339.306 24.150,339.289 24.150,339.246 23.511 C 339.190 22.678,336.760 21.897,336.306 22.566 C 336.097 22.875,336.010 22.871,336.006 22.555 C 336.003 22.310,335.550 22.159,335.000 22.220 C 334.354 22.291,334.000 22.130,334.000 21.765 C 334.000 21.067,332.554 21.014,332.233 21.700 C 332.047 22.100,331.953 22.100,331.767 21.700 C 331.466 21.055,330.534 21.055,330.233 21.700 C 330.047 22.100,329.953 22.100,329.767 21.700 C 329.464 21.051,327.336 21.051,327.033 21.700 C 326.847 22.100,326.753 22.100,326.567 21.700 C 326.438 21.425,325.733 21.200,325.000 21.200 C 324.267 21.200,323.562 21.425,323.433 21.700 C 323.247 22.100,323.153 22.100,322.967 21.700 C 322.666 21.055,101.600 20.955,101.600 21.600 M338.000 23.200 C 338.000 23.420,337.730 23.600,337.400 23.600 C 337.070 23.600,336.800 23.420,336.800 23.200 C 336.800 22.980,337.070 22.800,337.400 22.800 C 337.730 22.800,338.000 22.980,338.000 23.200 M340.800 24.600 C 340.800 24.930,340.620 25.200,340.400 25.200 C 340.180 25.200,340.000 24.930,340.000 24.600 C 340.000 24.270,340.180 24.000,340.400 24.000 C 340.620 24.000,340.800 24.270,340.800 24.600 M343.200 26.800 C 343.200 27.020,342.930 27.200,342.600 27.200 C 342.270 27.200,342.000 27.020,342.000 26.800 C 342.000 26.580,342.270 26.400,342.600 26.400 C 342.930 26.400,343.200 26.580,343.200 26.800 M148.800 66.444 C 148.800 66.640,149.163 66.800,149.606 66.800 C 150.733 66.800,153.600 67.731,153.600 68.097 C 153.600 68.264,153.836 68.400,154.124 68.400 C 154.826 68.400,157.200 70.752,157.200 71.447 C 157.200 71.751,157.336 72.000,157.503 72.000 C 157.905 72.000,158.763 74.803,159.074 77.132 C 159.211 78.160,159.520 79.132,159.762 79.294 C 160.064 79.496,160.045 79.590,159.700 79.594 C 159.421 79.597,159.200 80.093,159.200 80.716 C 159.200 82.271,158.043 86.572,157.581 86.733 C 157.371 86.807,157.200 87.084,157.200 87.350 C 157.200 89.007,152.345 92.000,149.658 92.000 C 149.223 92.000,148.802 92.195,148.722 92.433 C 148.551 92.947,143.585 93.005,143.236 92.497 C 143.106 92.308,141.928 91.901,140.617 91.593 C 137.785 90.927,135.219 88.693,134.399 86.180 C 134.116 85.311,133.749 84.510,133.584 84.400 C 132.580 83.731,132.613 74.400,133.620 74.400 C 133.812 74.400,134.168 73.662,134.411 72.761 C 134.797 71.326,136.011 69.806,138.087 68.157 C 138.393 67.913,139.624 67.469,140.822 67.170 C 142.020 66.871,143.092 66.500,143.203 66.346 C 143.693 65.671,148.800 65.761,148.800 66.444 M151.944 142.286 C 152.085 142.501,152.730 142.807,153.379 142.966 C 154.393 143.214,155.577 144.246,157.449 146.513 C 157.954 147.125,159.200 151.805,159.200 153.092 C 159.200 153.555,159.425 154.038,159.700 154.167 C 160.100 154.353,160.100 154.447,159.700 154.633 C 159.425 154.762,159.200 155.231,159.200 155.676 C 159.200 157.031,157.891 162.000,157.535 162.000 C 157.351 162.000,157.200 162.207,157.200 162.460 C 157.200 163.221,154.554 165.546,153.341 165.850 C 152.718 166.007,151.987 166.356,151.716 166.627 C 151.446 166.897,150.139 167.245,148.812 167.399 C 147.427 167.559,146.397 167.875,146.394 168.139 C 146.390 168.446,146.289 168.461,146.094 168.185 C 145.932 167.957,144.558 167.563,143.039 167.311 C 141.521 167.058,140.171 166.687,140.039 166.487 C 139.908 166.287,139.337 166.010,138.772 165.872 C 137.165 165.480,134.886 163.004,134.372 161.094 C 134.122 160.162,133.780 159.310,133.611 159.200 C 132.545 158.503,132.569 149.600,133.637 149.600 C 133.817 149.600,134.081 148.976,134.224 148.213 C 134.367 147.450,134.836 146.415,135.266 145.913 C 135.697 145.411,136.392 144.600,136.812 144.111 C 137.233 143.621,138.077 143.099,138.688 142.949 C 139.300 142.799,139.908 142.512,140.041 142.310 C 140.920 140.973,151.071 140.953,151.944 142.286 M148.800 216.444 C 148.800 216.640,149.163 216.800,149.606 216.800 C 150.733 216.800,153.600 217.731,153.600 218.097 C 153.600 218.264,153.836 218.400,154.124 218.400 C 154.826 218.400,157.200 220.752,157.200 221.447 C 157.200 221.751,157.336 222.000,157.503 222.000 C 157.905 222.000,158.763 224.803,159.074 227.132 C 159.211 228.160,159.520 229.132,159.762 229.294 C 160.064 229.496,160.045 229.590,159.700 229.594 C 159.421 229.597,159.200 230.093,159.200 230.716 C 159.200 232.271,158.043 236.572,157.581 236.733 C 157.371 236.807,157.200 237.084,157.200 237.350 C 157.200 239.007,152.345 242.000,149.658 242.000 C 149.223 242.000,148.802 242.195,148.722 242.433 C 148.551 242.947,143.585 243.005,143.236 242.497 C 143.106 242.308,141.928 241.901,140.617 241.593 C 137.785 240.927,135.219 238.693,134.399 236.180 C 134.116 235.311,133.749 234.510,133.584 234.400 C 132.580 233.731,132.613 224.400,133.620 224.400 C 133.812 224.400,134.168 223.662,134.411 222.761 C 134.797 221.326,136.011 219.806,138.087 218.157 C 138.393 217.913,139.624 217.469,140.822 217.170 C 142.020 216.871,143.092 216.500,143.203 216.346 C 143.693 215.671,148.800 215.761,148.800 216.444 " stroke="none" fill="#7c949c" fill-rule="evenodd"></path><path id="path4" d="M144.803 65.933 C 144.035 66.005,143.315 66.191,143.203 66.346 C 143.092 66.500,142.020 66.871,140.822 67.170 C 139.624 67.469,138.393 67.913,138.087 68.157 C 136.011 69.806,134.797 71.326,134.411 72.761 C 134.168 73.662,133.812 74.400,133.620 74.400 C 132.613 74.400,132.580 83.731,133.584 84.400 C 133.749 84.510,134.116 85.311,134.399 86.180 C 135.219 88.693,137.785 90.927,140.617 91.593 C 141.928 91.901,143.106 92.308,143.236 92.497 C 143.585 93.005,148.551 92.947,148.722 92.433 C 148.802 92.195,149.223 92.000,149.658 92.000 C 152.345 92.000,157.200 89.007,157.200 87.350 C 157.200 87.084,157.371 86.807,157.581 86.733 C 158.043 86.572,159.200 82.271,159.200 80.716 C 159.200 80.093,159.421 79.597,159.700 79.594 C 160.045 79.590,160.064 79.496,159.762 79.294 C 159.520 79.132,159.211 78.160,159.074 77.132 C 158.763 74.803,157.905 72.000,157.503 72.000 C 157.336 72.000,157.200 71.751,157.200 71.447 C 157.200 70.752,154.826 68.400,154.124 68.400 C 153.836 68.400,153.600 68.264,153.600 68.097 C 153.600 67.731,150.733 66.800,149.606 66.800 C 149.163 66.800,148.800 66.640,148.800 66.444 C 148.800 66.015,146.729 65.750,144.803 65.933 M143.230 141.447 C 141.609 141.720,140.174 142.109,140.041 142.310 C 139.908 142.512,139.300 142.799,138.688 142.949 C 138.077 143.099,137.233 143.621,136.812 144.111 C 136.392 144.600,135.697 145.411,135.266 145.913 C 134.836 146.415,134.367 147.450,134.224 148.213 C 134.081 148.976,133.817 149.600,133.637 149.600 C 132.569 149.600,132.545 158.503,133.611 159.200 C 133.780 159.310,134.122 160.162,134.372 161.094 C 134.886 163.004,137.165 165.480,138.772 165.872 C 139.337 166.010,139.908 166.287,140.039 166.487 C 140.171 166.687,141.521 167.058,143.039 167.311 C 144.558 167.563,145.932 167.957,146.094 168.185 C 146.289 168.461,146.390 168.446,146.394 168.139 C 146.397 167.875,147.427 167.559,148.812 167.399 C 150.139 167.245,151.446 166.897,151.716 166.627 C 151.987 166.356,152.718 166.007,153.341 165.850 C 154.554 165.546,157.200 163.221,157.200 162.460 C 157.200 162.207,157.351 162.000,157.535 162.000 C 157.891 162.000,159.200 157.031,159.200 155.676 C 159.200 155.231,159.425 154.762,159.700 154.633 C 160.100 154.447,160.100 154.353,159.700 154.167 C 159.425 154.038,159.200 153.555,159.200 153.092 C 159.200 151.805,157.954 147.125,157.449 146.513 C 155.577 144.246,154.393 143.214,153.379 142.966 C 152.730 142.807,152.085 142.501,151.944 142.286 C 151.375 141.417,146.304 140.929,143.230 141.447 M144.803 215.933 C 144.035 216.005,143.315 216.191,143.203 216.346 C 143.092 216.500,142.020 216.871,140.822 217.170 C 139.624 217.469,138.393 217.913,138.087 218.157 C 136.011 219.806,134.797 221.326,134.411 222.761 C 134.168 223.662,133.812 224.400,133.620 224.400 C 132.613 224.400,132.580 233.731,133.584 234.400 C 133.749 234.510,134.116 235.311,134.399 236.180 C 135.219 238.693,137.785 240.927,140.617 241.593 C 141.928 241.901,143.106 242.308,143.236 242.497 C 143.585 243.005,148.551 242.947,148.722 242.433 C 148.802 242.195,149.223 242.000,149.658 242.000 C 152.345 242.000,157.200 239.007,157.200 237.350 C 157.200 237.084,157.371 236.807,157.581 236.733 C 158.043 236.572,159.200 232.271,159.200 230.716 C 159.200 230.093,159.421 229.597,159.700 229.594 C 160.045 229.590,160.064 229.496,159.762 229.294 C 159.520 229.132,159.211 228.160,159.074 227.132 C 158.763 224.803,157.905 222.000,157.503 222.000 C 157.336 222.000,157.200 221.751,157.200 221.447 C 157.200 220.752,154.826 218.400,154.124 218.400 C 153.836 218.400,153.600 218.264,153.600 218.097 C 153.600 217.731,150.733 216.800,149.606 216.800 C 149.163 216.800,148.800 216.640,148.800 216.444 C 148.800 216.015,146.729 215.750,144.803 215.933 " stroke="none" fill="#74df32" fill-rule="evenodd"></path></g></svg>