<svg id="svg" xmlns="http://www.w3.org/2000/svg" xmlns:xlink="http://www.w3.org/1999/xlink" width="400" height="400" viewBox="0, 0, 400,400"><g id="svgg"><path id="path0" d="M97.697 74.900 L 97.600 77.600 95.000 77.600 L 92.400 77.600 92.400 80.000 L 92.400 82.400 90.000 82.400 L 87.600 82.400 87.600 85.000 L 87.600 87.600 85.000 87.600 L 82.400 87.600 82.400 90.000 L 82.400 92.400 80.000 92.400 L 77.600 92.400 77.600 95.000 L 77.600 97.600 75.000 97.600 L 72.400 97.600 72.400 100.000 L 72.400 102.400 70.000 102.400 L 67.600 102.400 67.600 105.000 L 67.600 107.600 65.000 107.600 L 62.400 107.600 62.400 110.000 L 62.400 112.400 60.000 112.400 L 57.600 112.400 57.600 115.000 L 57.600 117.600 52.600 117.600 L 47.600 117.600 47.600 120.000 L 47.600 122.400 45.000 122.400 L 42.400 122.400 42.400 125.000 L 42.400 127.600 40.000 127.600 L 37.600 127.600 37.600 130.000 L 37.600 132.400 35.000 132.400 L 32.400 132.400 32.400 135.200 L 32.400 138.000 35.000 138.000 L 37.600 138.000 37.600 140.400 L 37.600 142.800 40.000 142.800 L 42.400 142.800 42.400 145.400 L 42.400 148.000 45.000 148.000 L 47.600 148.000 47.600 150.400 L 47.600 152.800 52.600 152.800 L 57.600 152.800 57.600 155.400 L 57.600 158.000 60.000 158.000 L 62.400 158.000 62.400 160.400 L 62.400 162.800 65.000 162.800 L 67.600 162.800 67.600 165.400 L 67.600 168.000 70.000 168.000 L 72.400 168.000 72.400 170.400 L 72.400 172.800 75.000 172.800 L 77.600 172.800 77.600 175.400 L 77.600 178.000 80.000 178.000 L 82.400 178.000 82.400 180.400 L 82.400 182.800 85.000 182.800 L 87.600 182.800 87.600 185.400 L 87.600 188.000 90.000 188.000 L 92.400 188.000 92.400 190.400 L 92.400 192.800 94.982 192.800 L 97.563 192.800 97.703 195.500 C 97.780 196.985,97.879 186.905,97.922 173.100 L 98.000 148.000 200.200 148.000 L 302.400 148.000 302.400 150.400 L 302.400 152.800 307.400 152.800 L 312.400 152.800 312.400 155.400 L 312.400 158.000 317.400 158.000 L 322.400 158.000 322.400 160.400 L 322.400 162.800 325.000 162.800 L 327.600 162.800 327.600 165.400 L 327.600 168.000 330.000 168.000 L 332.400 168.000 332.400 170.400 L 332.400 172.800 335.000 172.800 L 337.600 172.800 337.600 175.400 L 337.600 178.000 340.000 178.000 L 342.400 178.000 342.400 183.000 L 342.400 188.000 345.000 188.000 L 347.600 188.000 347.600 193.000 L 347.600 198.000 350.000 198.000 L 352.400 198.000 352.400 230.200 L 352.400 262.400 350.000 262.400 L 347.600 262.400 347.600 267.400 L 347.600 272.400 345.000 272.400 L 342.400 272.400 342.400 277.400 L 342.400 282.400 340.000 282.400 L 337.600 282.400 337.600 285.000 L 337.600 287.600 335.000 287.600 L 332.400 287.600 332.400 290.000 L 332.400 292.400 330.000 292.400 L 327.600 292.400 327.600 295.000 L 327.600 297.600 325.000 297.600 L 322.400 297.600 322.400 300.000 L 322.400 302.400 317.400 302.400 L 312.400 302.400 312.400 305.000 L 312.400 307.600 307.400 307.600 L 302.400 307.600 302.400 310.000 L 302.400 312.400 287.400 312.400 L 272.400 312.400 272.400 322.600 L 272.400 332.800 285.200 332.800 L 298.000 332.800 298.000 330.400 L 298.000 328.000 305.400 328.000 L 312.800 328.000 312.800 325.400 L 312.800 322.800 317.800 322.800 L 322.800 322.800 322.800 320.400 L 322.800 318.000 325.400 318.000 L 328.000 318.000 328.000 315.400 L 328.000 312.800 333.000 312.800 L 338.000 312.800 338.000 310.400 L 338.000 308.000 340.400 308.000 L 342.800 308.000 342.800 305.400 L 342.800 302.800 345.400 302.800 L 348.000 302.800 348.000 300.400 L 348.000 298.000 350.400 298.000 L 352.800 298.000 352.800 293.000 L 352.800 288.000 355.400 288.000 L 358.000 288.000 358.000 285.400 L 358.000 282.800 360.400 282.800 L 362.800 282.800 362.800 277.800 L 362.800 272.800 365.400 272.800 L 368.000 272.800 368.000 265.400 L 368.000 258.000 370.400 258.000 L 372.800 258.000 372.800 230.200 L 372.800 202.400 370.400 202.400 L 368.000 202.400 368.000 195.000 L 368.000 187.600 365.400 187.600 L 362.800 187.600 362.800 182.600 L 362.800 177.600 360.400 177.600 L 358.000 177.600 358.000 175.000 L 358.000 172.400 355.400 172.400 L 352.800 172.400 352.800 167.400 L 352.800 162.400 350.400 162.400 L 348.000 162.400 348.000 160.000 L 348.000 157.600 345.400 157.600 L 342.800 157.600 342.800 155.000 L 342.800 152.400 340.400 152.400 L 338.000 152.400 338.000 150.000 L 338.000 147.600 333.000 147.600 L 328.000 147.600 328.000 145.000 L 328.000 142.400 325.400 142.400 L 322.800 142.400 322.800 140.000 L 322.800 137.600 317.800 137.600 L 312.800 137.600 312.800 135.000 L 312.800 132.400 305.400 132.400 L 298.000 132.400 298.000 130.000 L 298.000 127.600 283.000 127.600 L 268.000 127.600 268.000 125.000 L 268.000 122.400 183.003 122.400 L 98.006 122.400 97.900 97.300 C 97.842 83.495,97.750 73.415,97.697 74.900 M62.400 325.200 L 62.400 338.000 70.200 338.000 L 78.000 338.000 78.000 325.200 L 78.000 312.400 70.200 312.400 L 62.400 312.400 62.400 325.200 M132.400 325.200 L 132.400 338.000 140.200 338.000 L 148.000 338.000 148.000 325.200 L 148.000 312.400 140.200 312.400 L 132.400 312.400 132.400 325.200 M202.400 325.200 L 202.400 338.000 210.200 338.000 L 218.000 338.000 218.000 325.200 L 218.000 312.400 210.200 312.400 L 202.400 312.400 202.400 325.200 " stroke="none" fill="#dcf4fc" fill-rule="evenodd"></path><path id="path1" d="M97.094 67.989 C 96.712 68.533,96.400 69.201,96.400 69.475 C 96.400 70.110,93.637 72.000,92.707 72.000 C 92.316 72.000,92.000 72.296,92.000 72.662 C 92.000 73.628,90.147 75.902,89.100 76.219 C 88.039 76.541,86.406 77.956,86.387 78.570 C 86.363 79.337,85.036 80.606,83.498 81.331 C 82.533 81.786,81.717 82.586,81.215 83.570 C 80.786 84.412,80.201 85.216,79.917 85.355 C 78.304 86.146,76.951 87.155,76.595 87.831 C 75.546 89.823,74.646 90.770,73.575 91.005 C 72.397 91.264,70.800 92.881,70.800 93.815 C 70.800 94.094,69.846 94.955,68.680 95.729 C 67.514 96.503,66.214 97.779,65.791 98.565 C 65.355 99.373,64.420 100.279,63.636 100.651 C 61.913 101.469,60.978 102.345,60.635 103.462 C 60.489 103.937,59.587 104.837,58.631 105.462 C 57.674 106.088,56.147 107.545,55.237 108.700 C 54.326 109.855,53.316 110.800,52.991 110.800 C 52.324 110.800,51.059 111.948,50.703 112.876 C 50.573 113.215,49.597 114.191,48.533 115.046 C 47.470 115.901,46.337 116.960,46.015 117.400 C 45.693 117.840,44.892 118.650,44.234 119.200 C 43.089 120.157,40.162 122.919,34.292 128.580 C 32.803 130.016,31.138 131.484,30.592 131.842 C 29.579 132.506,29.010 138.000,29.955 138.000 C 30.150 138.000,31.268 138.900,32.439 140.000 C 33.611 141.100,34.711 142.000,34.885 142.000 C 35.058 142.000,35.200 142.249,35.200 142.554 C 35.200 142.859,35.695 143.426,36.300 143.815 C 36.905 144.204,38.750 145.862,40.400 147.500 C 46.770 153.821,47.811 154.801,48.154 154.801 C 48.574 154.800,49.938 156.229,50.851 157.626 C 51.209 158.174,52.334 159.148,53.351 159.791 C 54.368 160.434,55.200 161.164,55.200 161.413 C 55.200 162.009,58.000 164.800,58.597 164.800 C 59.189 164.800,60.800 166.501,60.800 167.126 C 60.800 167.746,62.259 169.196,62.900 169.213 C 63.649 169.233,64.940 170.434,65.819 171.926 C 66.249 172.656,67.460 173.782,68.511 174.429 C 69.562 175.077,70.588 176.042,70.790 176.574 C 71.326 177.983,72.474 179.200,73.268 179.200 C 74.143 179.200,75.707 180.656,76.438 182.150 C 76.747 182.782,77.775 183.710,78.723 184.212 C 79.907 184.839,80.721 185.662,81.323 186.840 C 81.916 188.000,82.594 188.693,83.416 188.978 C 84.796 189.457,85.919 190.533,86.813 192.234 C 87.153 192.879,87.822 193.457,88.313 193.528 C 88.801 193.598,89.200 193.811,89.200 194.001 C 89.200 194.191,89.533 194.452,89.939 194.581 C 90.346 194.710,91.014 195.506,91.425 196.349 C 91.927 197.381,92.756 198.196,93.962 198.841 C 95.032 199.414,96.059 200.364,96.513 201.200 C 97.729 203.440,97.835 203.388,98.535 200.204 C 99.112 197.577,99.200 194.143,99.200 174.207 L 99.200 151.236 100.223 150.213 L 101.246 149.190 194.323 149.303 C 297.087 149.428,289.537 149.239,293.000 151.771 C 294.591 152.935,295.900 153.381,300.200 154.225 C 303.377 154.848,303.978 155.107,305.311 156.429 C 306.202 157.313,307.678 158.213,308.911 158.624 C 312.308 159.756,314.431 160.934,314.993 162.000 C 315.283 162.550,316.525 163.507,317.751 164.126 C 319.222 164.868,320.359 165.811,321.091 166.895 C 321.742 167.860,322.695 168.696,323.400 168.920 C 324.759 169.352,326.400 170.709,326.400 171.400 C 326.400 171.955,328.087 173.600,328.656 173.600 C 329.302 173.600,330.589 175.255,331.398 177.125 C 331.927 178.347,332.524 179.008,333.450 179.395 C 334.353 179.772,335.063 180.538,335.747 181.871 C 336.292 182.932,337.607 184.712,338.669 185.826 C 340.408 187.652,342.041 191.160,342.007 193.000 C 342.003 193.220,342.611 193.887,343.358 194.483 C 344.848 195.673,346.381 199.419,346.424 201.978 C 346.437 202.760,346.877 204.210,347.402 205.200 C 351.077 212.131,351.409 214.824,351.076 235.000 C 350.861 248.045,350.385 251.148,348.226 253.583 C 347.356 254.565,346.400 257.184,346.400 258.586 C 346.400 260.723,344.941 264.318,343.508 265.710 C 342.586 266.606,341.898 267.896,341.256 269.936 C 340.521 272.267,339.946 273.256,338.465 274.736 C 337.439 275.761,336.193 277.465,335.695 278.522 C 335.061 279.868,334.411 280.602,333.525 280.975 C 332.653 281.341,331.941 282.134,331.231 283.529 C 330.657 284.654,329.586 285.964,328.816 286.481 C 328.054 286.992,326.962 288.101,326.389 288.945 C 325.716 289.936,324.676 290.770,323.454 291.299 C 322.095 291.888,321.413 292.473,321.037 293.374 C 320.678 294.233,319.894 294.941,318.556 295.615 C 317.480 296.157,316.060 297.156,315.400 297.836 C 313.589 299.702,312.048 300.627,309.400 301.437 C 307.895 301.898,306.546 302.640,305.783 303.426 C 304.406 304.846,300.652 306.400,298.599 306.400 C 297.226 306.400,294.743 307.326,293.583 308.271 C 291.461 310.000,287.854 310.736,280.080 311.028 C 273.453 311.277,272.332 311.413,271.771 312.032 C 271.069 312.807,271.069 336.545,271.770 338.100 C 272.321 339.321,284.059 338.623,286.800 337.205 C 288.942 336.098,293.657 334.957,299.365 334.165 C 303.840 333.545,304.775 333.282,306.365 332.203 C 308.670 330.639,310.754 329.664,312.468 329.346 C 315.321 328.818,317.863 327.690,319.274 326.327 C 320.084 325.544,321.164 324.803,321.674 324.680 C 324.369 324.029,326.446 322.972,328.149 321.386 C 329.194 320.414,330.724 319.436,331.549 319.214 C 333.085 318.800,333.621 318.370,335.433 316.100 C 336.004 315.385,336.815 314.800,337.236 314.800 C 337.656 314.800,338.001 314.665,338.001 314.500 C 338.002 314.335,338.543 313.840,339.203 313.400 C 339.864 312.960,340.506 312.283,340.631 311.896 C 340.755 311.508,341.349 310.937,341.951 310.625 C 343.246 309.955,348.197 305.146,349.843 302.959 C 350.479 302.113,351.821 300.606,352.824 299.610 C 353.827 298.615,354.854 297.315,355.106 296.721 C 355.358 296.128,356.067 295.320,356.682 294.927 C 358.199 293.956,358.714 293.261,359.202 291.524 C 359.431 290.712,360.429 289.182,361.420 288.124 C 362.412 287.066,363.333 285.750,363.467 285.200 C 363.601 284.650,363.840 284.020,363.999 283.800 C 364.158 283.580,364.611 282.536,365.006 281.480 C 365.401 280.425,366.175 279.206,366.727 278.772 C 367.686 278.017,368.826 275.281,369.340 272.500 C 369.654 270.798,370.945 268.008,371.884 267.000 C 373.036 265.764,373.470 264.251,374.409 258.200 C 375.291 252.524,376.329 248.403,377.366 246.466 C 379.229 242.986,379.247 217.655,377.389 213.800 C 375.896 210.703,374.748 205.624,373.790 197.883 C 373.575 196.146,373.115 194.994,371.952 193.283 C 370.409 191.011,369.947 189.849,368.545 184.700 C 368.141 183.215,367.681 182.000,367.523 182.000 C 367.096 182.000,365.200 180.023,365.200 179.577 C 365.200 179.365,364.861 178.428,364.447 177.496 C 364.033 176.563,363.488 175.256,363.236 174.590 C 362.984 173.925,362.064 172.687,361.191 171.840 C 360.299 170.974,359.430 169.655,359.207 168.825 C 358.988 168.014,358.492 167.051,358.105 166.686 C 357.717 166.321,356.815 165.484,356.100 164.825 C 355.385 164.166,354.800 163.381,354.800 163.079 C 354.800 161.971,339.493 146.400,338.403 146.400 C 338.181 146.400,338.000 146.264,338.000 146.098 C 338.000 145.931,337.467 145.560,336.816 145.271 C 336.165 144.983,335.263 144.148,334.810 143.416 C 334.020 142.139,331.917 140.800,330.698 140.800 C 330.073 140.800,328.000 139.047,328.000 138.518 C 328.000 138.128,325.410 136.803,322.270 135.586 C 320.789 135.012,319.551 134.195,318.870 133.342 C 318.218 132.524,317.443 132.000,316.887 132.000 C 316.385 132.000,315.328 131.730,314.538 131.400 C 313.749 131.070,312.612 130.800,312.013 130.800 C 311.414 130.800,309.838 130.098,308.510 129.240 C 304.792 126.837,304.450 126.704,301.065 126.363 C 295.646 125.817,286.996 123.670,286.363 122.715 C 285.657 121.649,274.905 121.486,189.532 121.247 L 101.264 121.000 100.232 120.030 L 99.200 119.061 99.167 95.830 C 99.139 75.501,99.051 72.250,98.461 69.800 L 97.787 67.000 97.094 67.989 M183.003 122.400 L 268.000 122.400 268.000 125.000 L 268.000 127.600 283.000 127.600 L 298.000 127.600 298.000 130.000 L 298.000 132.400 305.400 132.400 L 312.800 132.400 312.800 135.000 L 312.800 137.600 317.800 137.600 L 322.800 137.600 322.800 140.000 L 322.800 142.400 325.400 142.400 L 328.000 142.400 328.000 145.000 L 328.000 147.600 333.000 147.600 L 338.000 147.600 338.000 150.000 L 338.000 152.400 340.400 152.400 L 342.800 152.400 342.800 155.000 L 342.800 157.600 345.400 157.600 L 348.000 157.600 348.000 160.000 L 348.000 162.400 350.400 162.400 L 352.800 162.400 352.800 167.400 L 352.800 172.400 355.400 172.400 L 358.000 172.400 358.000 175.000 L 358.000 177.600 360.400 177.600 L 362.800 177.600 362.800 182.600 L 362.800 187.600 365.400 187.600 L 368.000 187.600 368.000 195.000 L 368.000 202.400 370.400 202.400 L 372.800 202.400 372.800 230.200 L 372.800 258.000 370.400 258.000 L 368.000 258.000 368.000 265.400 L 368.000 272.800 365.400 272.800 L 362.800 272.800 362.800 277.800 L 362.800 282.800 360.400 282.800 L 358.000 282.800 358.000 285.400 L 358.000 288.000 355.400 288.000 L 352.800 288.000 352.800 293.000 L 352.800 298.000 350.400 298.000 L 348.000 298.000 348.000 300.400 L 348.000 302.800 345.400 302.800 L 342.800 302.800 342.800 305.400 L 342.800 308.000 340.400 308.000 L 338.000 308.000 338.000 310.400 L 338.000 312.800 333.000 312.800 L 328.000 312.800 328.000 315.400 L 328.000 318.000 325.400 318.000 L 322.800 318.000 322.800 320.400 L 322.800 322.800 317.800 322.800 L 312.800 322.800 312.800 325.400 L 312.800 328.000 305.400 328.000 L 298.000 328.000 298.000 330.400 L 298.000 332.800 285.200 332.800 L 272.400 332.800 272.400 322.600 L 272.400 312.400 287.400 312.400 L 302.400 312.400 302.400 310.000 L 302.400 307.600 307.400 307.600 L 312.400 307.600 312.400 305.000 L 312.400 302.400 317.400 302.400 L 322.400 302.400 322.400 300.000 L 322.400 297.600 325.000 297.600 L 327.600 297.600 327.600 295.000 L 327.600 292.400 330.000 292.400 L 332.400 292.400 332.400 290.000 L 332.400 287.600 335.000 287.600 L 337.600 287.600 337.600 285.000 L 337.600 282.400 340.000 282.400 L 342.400 282.400 342.400 277.400 L 342.400 272.400 345.000 272.400 L 347.600 272.400 347.600 267.400 L 347.600 262.400 350.000 262.400 L 352.400 262.400 352.400 230.200 L 352.400 198.000 350.000 198.000 L 347.600 198.000 347.600 193.000 L 347.600 188.000 345.000 188.000 L 342.400 188.000 342.400 183.000 L 342.400 178.000 340.000 178.000 L 337.600 178.000 337.600 175.400 L 337.600 172.800 335.000 172.800 L 332.400 172.800 332.400 170.400 L 332.400 168.000 330.000 168.000 L 327.600 168.000 327.600 165.400 L 327.600 162.800 325.000 162.800 L 322.400 162.800 322.400 160.400 L 322.400 158.000 317.400 158.000 L 312.400 158.000 312.400 155.400 L 312.400 152.800 307.400 152.800 L 302.400 152.800 302.400 150.400 L 302.400 148.000 200.200 148.000 L 98.000 148.000 97.922 173.100 C 97.879 186.905,97.780 196.985,97.703 195.500 L 97.563 192.800 94.982 192.800 L 92.400 192.800 92.400 190.400 L 92.400 188.000 90.000 188.000 L 87.600 188.000 87.600 185.400 L 87.600 182.800 85.000 182.800 L 82.400 182.800 82.400 180.400 L 82.400 178.000 80.000 178.000 L 77.600 178.000 77.600 175.400 L 77.600 172.800 75.000 172.800 L 72.400 172.800 72.400 170.400 L 72.400 168.000 70.000 168.000 L 67.600 168.000 67.600 165.400 L 67.600 162.800 65.000 162.800 L 62.400 162.800 62.400 160.400 L 62.400 158.000 60.000 158.000 L 57.600 158.000 57.600 155.400 L 57.600 152.800 52.600 152.800 L 47.600 152.800 47.600 150.400 L 47.600 148.000 45.000 148.000 L 42.400 148.000 42.400 145.400 L 42.400 142.800 40.000 142.800 L 37.600 142.800 37.600 140.400 L 37.600 138.000 35.000 138.000 L 32.400 138.000 32.400 135.200 L 32.400 132.400 35.000 132.400 L 37.600 132.400 37.600 130.000 L 37.600 127.600 40.000 127.600 L 42.400 127.600 42.400 125.000 L 42.400 122.400 45.000 122.400 L 47.600 122.400 47.600 120.000 L 47.600 117.600 52.600 117.600 L 57.600 117.600 57.600 115.000 L 57.600 112.400 60.000 112.400 L 62.400 112.400 62.400 110.000 L 62.400 107.600 65.000 107.600 L 67.600 107.600 67.600 105.000 L 67.600 102.400 70.000 102.400 L 72.400 102.400 72.400 100.000 L 72.400 97.600 75.000 97.600 L 77.600 97.600 77.600 95.000 L 77.600 92.400 80.000 92.400 L 82.400 92.400 82.400 90.000 L 82.400 87.600 85.000 87.600 L 87.600 87.600 87.600 85.000 L 87.600 82.400 90.000 82.400 L 92.400 82.400 92.400 80.000 L 92.400 77.600 95.000 77.600 L 97.600 77.600 97.697 74.900 C 97.750 73.415,97.842 83.495,97.900 97.300 L 98.006 122.400 183.003 122.400 M61.862 311.931 C 60.836 313.065,60.861 337.195,61.889 338.395 C 62.945 339.629,77.167 339.633,78.400 338.400 C 79.648 337.152,79.644 312.958,78.395 311.889 C 77.144 310.818,62.837 310.855,61.862 311.931 M131.862 311.931 C 130.836 313.065,130.861 337.195,131.889 338.395 C 132.945 339.629,147.167 339.633,148.400 338.400 C 149.648 337.152,149.644 312.958,148.395 311.889 C 147.144 310.818,132.837 310.855,131.862 311.931 M201.862 311.931 C 200.836 313.065,200.861 337.195,201.889 338.395 C 202.945 339.629,217.167 339.633,218.400 338.400 C 219.648 337.152,219.644 312.958,218.395 311.889 C 217.144 310.818,202.837 310.855,201.862 311.931 M78.000 325.200 L 78.000 338.000 70.200 338.000 L 62.400 338.000 62.400 325.200 L 62.400 312.400 70.200 312.400 L 78.000 312.400 78.000 325.200 M148.000 325.200 L 148.000 338.000 140.200 338.000 L 132.400 338.000 132.400 325.200 L 132.400 312.400 140.200 312.400 L 148.000 312.400 148.000 325.200 M218.000 325.200 L 218.000 338.000 210.200 338.000 L 202.400 338.000 202.400 325.200 L 202.400 312.400 210.200 312.400 L 218.000 312.400 218.000 325.200 " stroke="none" fill="#dcecfc" fill-rule="evenodd"></path><path id="path2" d="M94.976 67.700 C 93.659 69.075,92.136 70.576,91.591 71.037 C 91.046 71.497,90.047 72.487,89.371 73.237 C 88.696 73.986,87.486 75.050,86.682 75.600 C 85.879 76.150,85.217 76.816,85.211 77.080 C 85.205 77.344,84.369 78.244,83.354 79.080 C 81.269 80.796,79.773 82.266,78.600 83.751 C 78.160 84.307,77.530 84.779,77.200 84.798 C 76.870 84.818,75.880 85.811,75.000 87.007 C 74.120 88.202,73.213 89.184,72.984 89.190 C 72.396 89.204,69.200 92.157,69.200 92.686 C 69.200 92.927,68.381 93.667,67.380 94.330 C 66.379 94.993,65.034 96.261,64.392 97.147 C 63.750 98.033,62.814 98.973,62.313 99.235 C 61.811 99.497,60.389 100.722,59.153 101.956 C 57.918 103.190,56.163 104.880,55.253 105.711 C 54.344 106.543,53.600 107.358,53.600 107.523 C 53.600 107.689,52.611 108.539,51.402 109.412 C 50.193 110.285,49.203 111.126,49.202 111.279 C 49.200 111.604,47.402 113.600,47.112 113.600 C 47.004 113.600,45.410 115.064,43.570 116.853 C 41.729 118.642,38.418 121.740,36.212 123.736 C 34.005 125.733,31.300 128.254,30.200 129.339 C 29.100 130.425,27.795 131.578,27.300 131.902 C 26.363 132.517,25.880 138.000,26.764 138.000 C 26.964 138.000,28.408 139.260,29.972 140.800 C 31.537 142.340,32.909 143.600,33.022 143.600 C 33.135 143.600,33.716 144.098,34.313 144.707 C 34.911 145.315,38.100 148.328,41.400 151.403 C 44.700 154.477,48.525 158.119,49.901 159.496 C 51.277 160.873,52.672 162.000,53.001 162.000 C 53.330 162.000,53.600 162.233,53.600 162.517 C 53.600 163.166,56.861 166.400,57.515 166.400 C 57.782 166.400,58.000 166.552,58.000 166.738 C 58.000 167.092,60.891 170.017,63.595 172.400 C 64.469 173.170,65.187 174.025,65.192 174.300 C 65.196 174.575,65.378 174.800,65.595 174.800 C 66.280 174.800,68.661 176.899,70.200 178.859 C 70.640 179.419,71.540 180.213,72.200 180.624 C 72.860 181.034,73.760 181.821,74.200 182.372 C 74.956 183.320,75.622 183.985,78.275 186.442 C 78.894 187.016,80.098 188.231,80.952 189.142 C 81.805 190.054,82.705 190.808,82.952 190.818 C 83.198 190.829,83.760 191.308,84.200 191.883 C 85.325 193.353,86.862 194.874,88.094 195.736 C 88.672 196.140,89.539 197.040,90.020 197.736 C 90.501 198.431,91.859 199.720,93.037 200.600 C 94.215 201.480,95.187 202.380,95.197 202.600 C 95.227 203.313,97.159 204.867,97.847 204.731 C 100.219 204.265,100.181 204.675,100.400 177.135 L 100.600 151.929 101.569 151.144 C 103.135 149.877,279.504 150.226,284.923 151.507 C 286.860 151.965,288.660 152.517,288.923 152.733 C 289.637 153.321,294.040 154.800,295.078 154.800 C 296.725 154.800,301.371 156.512,303.200 157.792 C 304.190 158.485,306.318 159.569,307.928 160.200 C 309.538 160.832,311.608 162.000,312.528 162.796 C 313.448 163.592,315.091 164.757,316.179 165.385 C 317.268 166.013,319.097 167.488,320.245 168.663 C 321.392 169.838,322.517 170.800,322.745 170.800 C 323.204 170.800,325.200 172.545,325.200 172.946 C 325.200 173.307,326.738 174.800,327.111 174.800 C 327.535 174.800,328.778 176.258,330.074 178.274 C 330.666 179.195,331.617 180.255,332.188 180.629 C 332.758 181.003,333.856 182.384,334.626 183.698 C 335.396 185.012,336.740 186.934,337.613 187.969 C 338.486 189.005,339.206 190.020,339.214 190.226 C 339.221 190.432,339.575 191.320,340.000 192.200 C 340.425 193.080,340.779 194.011,340.786 194.269 C 340.794 194.528,341.391 195.518,342.112 196.469 C 343.560 198.378,345.200 202.311,345.200 203.873 C 345.200 205.068,346.725 210.265,347.409 211.400 C 350.374 216.322,350.260 245.517,347.262 249.351 C 346.727 250.035,345.200 255.385,345.200 256.574 C 345.200 257.984,343.400 262.183,342.033 263.963 C 341.425 264.753,340.495 266.537,339.964 267.926 C 339.434 269.316,338.185 271.476,337.189 272.726 C 336.192 273.977,334.932 275.873,334.389 276.941 C 333.845 278.008,333.130 278.988,332.800 279.119 C 331.992 279.437,331.578 279.885,330.128 282.004 C 329.450 282.996,328.063 284.516,327.047 285.382 C 326.031 286.248,325.196 287.146,325.191 287.378 C 325.185 287.610,323.840 288.790,322.200 290.000 C 320.560 291.210,319.215 292.414,319.209 292.677 C 319.204 292.939,318.152 293.712,316.871 294.394 C 315.590 295.077,313.691 296.339,312.651 297.198 C 310.775 298.749,306.939 300.800,305.916 300.800 C 305.622 300.800,304.756 301.313,303.991 301.941 C 302.304 303.325,299.062 304.800,297.708 304.800 C 296.594 304.800,290.044 306.734,289.351 307.267 C 288.232 308.129,282.592 309.182,277.712 309.439 C 272.560 309.711,272.402 309.747,271.216 310.906 L 270.000 312.095 270.000 325.017 L 270.000 337.939 271.084 339.227 L 272.169 340.516 277.384 340.259 C 285.450 339.861,291.171 338.980,294.288 337.655 C 295.780 337.021,298.080 336.290,299.400 336.030 C 306.543 334.624,308.664 333.966,310.400 332.616 C 311.126 332.052,313.556 331.074,316.000 330.362 C 318.198 329.721,320.268 328.629,321.600 327.407 C 322.150 326.903,323.050 326.355,323.600 326.191 C 324.150 326.027,324.955 325.646,325.389 325.346 C 325.823 325.046,326.456 324.800,326.796 324.800 C 327.136 324.800,328.311 324.018,329.407 323.062 C 330.503 322.106,332.103 320.993,332.961 320.588 C 333.820 320.182,335.158 319.216,335.934 318.439 C 336.710 317.663,338.282 316.392,339.426 315.614 C 340.571 314.836,342.715 313.075,344.190 311.700 C 345.665 310.325,346.991 309.197,347.136 309.193 C 347.454 309.185,349.200 307.382,349.200 307.062 C 349.200 306.938,349.605 306.415,350.100 305.901 C 352.153 303.767,355.200 300.364,355.200 300.206 C 355.200 299.793,357.143 297.230,358.436 295.938 C 359.214 295.159,360.182 293.820,360.588 292.961 C 360.993 292.103,362.112 290.500,363.075 289.400 C 364.038 288.300,364.935 286.950,365.068 286.400 C 365.201 285.850,365.443 285.220,365.606 285.000 C 365.769 284.780,366.034 284.150,366.196 283.600 C 366.358 283.050,366.903 282.150,367.407 281.600 C 368.629 280.268,369.721 278.198,370.362 276.000 C 371.141 273.323,372.065 271.192,373.223 269.400 C 374.329 267.687,374.837 266.118,375.621 262.000 C 375.893 260.570,376.252 258.680,376.418 257.800 C 376.585 256.920,377.269 254.850,377.938 253.200 C 381.569 244.251,381.072 213.616,377.156 204.922 C 376.740 203.999,376.400 202.828,376.400 202.319 C 376.400 201.811,376.210 200.766,375.977 199.997 C 375.744 199.229,375.402 197.594,375.216 196.365 C 374.890 194.202,374.161 192.401,372.217 188.954 C 371.706 188.049,370.982 186.254,370.607 184.966 C 369.736 181.968,368.745 180.050,367.439 178.830 C 366.868 178.297,366.400 177.639,366.400 177.368 C 366.400 176.205,364.006 171.684,362.699 170.378 C 361.916 169.596,361.007 168.313,360.679 167.528 C 360.351 166.742,359.155 165.042,358.022 163.750 C 355.582 160.966,355.370 160.698,355.161 160.125 C 354.491 158.298,341.618 145.532,339.646 144.740 C 339.291 144.598,337.830 143.458,336.400 142.208 C 334.970 140.958,333.187 139.678,332.438 139.362 C 331.689 139.047,330.562 138.252,329.935 137.595 C 329.307 136.938,328.615 136.400,328.397 136.400 C 328.178 136.400,328.000 136.264,328.000 136.098 C 328.000 135.931,327.415 135.564,326.700 135.280 C 325.985 134.997,324.890 134.503,324.268 134.183 C 323.645 133.862,322.933 133.600,322.687 133.600 C 322.440 133.600,321.690 133.073,321.019 132.428 C 319.855 131.309,315.036 129.200,313.643 129.200 C 313.279 129.200,312.053 128.588,310.917 127.840 C 308.534 126.271,304.582 124.804,302.698 124.791 C 301.228 124.780,296.069 123.479,294.797 122.798 C 289.612 120.024,289.135 120.011,190.358 120.005 L 102.517 120.000 101.458 119.019 L 100.400 118.038 100.383 94.319 C 100.364 69.457,100.268 67.762,98.780 66.179 C 97.571 64.891,97.723 64.831,94.976 67.700 M99.167 95.830 L 99.200 119.061 100.232 120.030 L 101.264 121.000 189.532 121.247 C 274.905 121.486,285.657 121.649,286.363 122.715 C 286.996 123.670,295.646 125.817,301.065 126.363 C 304.450 126.704,304.792 126.837,308.510 129.240 C 309.838 130.098,311.414 130.800,312.013 130.800 C 312.612 130.800,313.749 131.070,314.538 131.400 C 315.328 131.730,316.385 132.000,316.887 132.000 C 317.443 132.000,318.218 132.524,318.870 133.342 C 319.551 134.195,320.789 135.012,322.270 135.586 C 325.410 136.803,328.000 138.128,328.000 138.518 C 328.000 139.047,330.073 140.800,330.698 140.800 C 331.917 140.800,334.020 142.139,334.810 143.416 C 335.263 144.148,336.165 144.983,336.816 145.271 C 337.467 145.560,338.000 145.931,338.000 146.098 C 338.000 146.264,338.181 146.400,338.403 146.400 C 339.493 146.400,354.800 161.971,354.800 163.079 C 354.800 163.381,355.385 164.166,356.100 164.825 C 356.815 165.484,357.717 166.321,358.105 166.686 C 358.492 167.051,358.988 168.014,359.207 168.825 C 359.430 169.655,360.299 170.974,361.191 171.840 C 362.064 172.687,362.984 173.925,363.236 174.590 C 363.488 175.256,364.033 176.563,364.447 177.496 C 364.861 178.428,365.200 179.365,365.200 179.577 C 365.200 180.023,367.096 182.000,367.523 182.000 C 367.681 182.000,368.141 183.215,368.545 184.700 C 369.947 189.849,370.409 191.011,371.952 193.283 C 373.115 194.994,373.575 196.146,373.790 197.883 C 374.748 205.624,375.896 210.703,377.389 213.800 C 379.247 217.655,379.229 242.986,377.366 246.466 C 376.329 248.403,375.291 252.524,374.409 258.200 C 373.470 264.251,373.036 265.764,371.884 267.000 C 370.945 268.008,369.654 270.798,369.340 272.500 C 368.826 275.281,367.686 278.017,366.727 278.772 C 366.175 279.206,365.401 280.425,365.006 281.480 C 364.611 282.536,364.158 283.580,363.999 283.800 C 363.840 284.020,363.601 284.650,363.467 285.200 C 363.333 285.750,362.412 287.066,361.420 288.124 C 360.429 289.182,359.431 290.712,359.202 291.524 C 358.714 293.261,358.199 293.956,356.682 294.927 C 356.067 295.320,355.358 296.128,355.106 296.721 C 354.854 297.315,353.827 298.615,352.824 299.610 C 351.821 300.606,350.479 302.113,349.843 302.959 C 348.197 305.146,343.246 309.955,341.951 310.625 C 341.349 310.937,340.755 311.508,340.631 311.896 C 340.506 312.283,339.864 312.960,339.203 313.400 C 338.543 313.840,338.002 314.335,338.001 314.500 C 338.001 314.665,337.656 314.800,337.236 314.800 C 336.815 314.800,336.004 315.385,335.433 316.100 C 333.621 318.370,333.085 318.800,331.549 319.214 C 330.724 319.436,329.194 320.414,328.149 321.386 C 326.446 322.972,324.369 324.029,321.674 324.680 C 321.164 324.803,320.084 325.544,319.274 326.327 C 317.863 327.690,315.321 328.818,312.468 329.346 C 310.754 329.664,308.670 330.639,306.365 332.203 C 304.775 333.282,303.840 333.545,299.365 334.165 C 293.657 334.957,288.942 336.098,286.800 337.205 C 284.059 338.623,272.321 339.321,271.770 338.100 C 271.069 336.545,271.069 312.807,271.771 312.032 C 272.332 311.413,273.453 311.277,280.080 311.028 C 287.854 310.736,291.461 310.000,293.583 308.271 C 294.743 307.326,297.226 306.400,298.599 306.400 C 300.652 306.400,304.406 304.846,305.783 303.426 C 306.546 302.640,307.895 301.898,309.400 301.437 C 312.048 300.627,313.589 299.702,315.400 297.836 C 316.060 297.156,317.480 296.157,318.556 295.615 C 319.894 294.941,320.678 294.233,321.037 293.374 C 321.413 292.473,322.095 291.888,323.454 291.299 C 324.676 290.770,325.716 289.936,326.389 288.945 C 326.962 288.101,328.054 286.992,328.816 286.481 C 329.586 285.964,330.657 284.654,331.231 283.529 C 331.941 282.134,332.653 281.341,333.525 280.975 C 334.411 280.602,335.061 279.868,335.695 278.522 C 336.193 277.465,337.439 275.761,338.465 274.736 C 339.946 273.256,340.521 272.267,341.256 269.936 C 341.898 267.896,342.586 266.606,343.508 265.710 C 344.941 264.318,346.400 260.723,346.400 258.586 C 346.400 257.184,347.356 254.565,348.226 253.583 C 350.385 251.148,350.861 248.045,351.076 235.000 C 351.409 214.824,351.077 212.131,347.402 205.200 C 346.877 204.210,346.437 202.760,346.424 201.978 C 346.381 199.419,344.848 195.673,343.358 194.483 C 342.611 193.887,342.003 193.220,342.007 193.000 C 342.041 191.160,340.408 187.652,338.669 185.826 C 337.607 184.712,336.292 182.932,335.747 181.871 C 335.063 180.538,334.353 179.772,333.450 179.395 C 332.524 179.008,331.927 178.347,331.398 177.125 C 330.589 175.255,329.302 173.600,328.656 173.600 C 328.087 173.600,326.400 171.955,326.400 171.400 C 326.400 170.709,324.759 169.352,323.400 168.920 C 322.695 168.696,321.742 167.860,321.091 166.895 C 320.359 165.811,319.222 164.868,317.751 164.126 C 316.525 163.507,315.283 162.550,314.993 162.000 C 314.431 160.934,312.308 159.756,308.911 158.624 C 307.678 158.213,306.202 157.313,305.311 156.429 C 303.978 155.107,303.377 154.848,300.200 154.225 C 295.900 153.381,294.591 152.935,293.000 151.771 C 289.537 149.239,297.087 149.428,194.323 149.303 L 101.246 149.190 100.223 150.213 L 99.200 151.236 99.200 174.207 C 99.200 194.143,99.112 197.577,98.535 200.204 C 97.835 203.388,97.729 203.440,96.513 201.200 C 96.059 200.364,95.032 199.414,93.962 198.841 C 92.756 198.196,91.927 197.381,91.425 196.349 C 91.014 195.506,90.346 194.710,89.939 194.581 C 89.533 194.452,89.200 194.191,89.200 194.001 C 89.200 193.811,88.801 193.598,88.313 193.528 C 87.822 193.457,87.153 192.879,86.813 192.234 C 85.919 190.533,84.796 189.457,83.416 188.978 C 82.594 188.693,81.916 188.000,81.323 186.840 C 80.721 185.662,79.907 184.839,78.723 184.212 C 77.775 183.710,76.747 182.782,76.438 182.150 C 75.707 180.656,74.143 179.200,73.268 179.200 C 72.474 179.200,71.326 177.983,70.790 176.574 C 70.588 176.042,69.562 175.077,68.511 174.429 C 67.460 173.782,66.249 172.656,65.819 171.926 C 64.940 170.434,63.649 169.233,62.900 169.213 C 62.259 169.196,60.800 167.746,60.800 167.126 C 60.800 166.501,59.189 164.800,58.597 164.800 C 58.000 164.800,55.200 162.009,55.200 161.413 C 55.200 161.164,54.368 160.434,53.351 159.791 C 52.334 159.148,51.209 158.174,50.851 157.626 C 49.938 156.229,48.574 154.800,48.154 154.801 C 47.811 154.801,46.770 153.821,40.400 147.500 C 38.750 145.862,36.905 144.204,36.300 143.815 C 35.695 143.426,35.200 142.859,35.200 142.554 C 35.200 142.249,35.058 142.000,34.885 142.000 C 34.711 142.000,33.611 141.100,32.439 140.000 C 31.268 138.900,30.150 138.000,29.955 138.000 C 29.010 138.000,29.579 132.506,30.592 131.842 C 31.138 131.484,32.803 130.016,34.292 128.580 C 40.162 122.919,43.089 120.157,44.234 119.200 C 44.892 118.650,45.693 117.840,46.015 117.400 C 46.337 116.960,47.470 115.901,48.533 115.046 C 49.597 114.191,50.573 113.215,50.703 112.876 C 51.059 111.948,52.324 110.800,52.991 110.800 C 53.316 110.800,54.326 109.855,55.237 108.700 C 56.147 107.545,57.674 106.088,58.631 105.462 C 59.587 104.837,60.489 103.937,60.635 103.462 C 60.978 102.345,61.913 101.469,63.636 100.651 C 64.420 100.279,65.355 99.373,65.791 98.565 C 66.214 97.779,67.514 96.503,68.680 95.729 C 69.846 94.955,70.800 94.094,70.800 93.815 C 70.800 92.881,72.397 91.264,73.575 91.005 C 74.646 90.770,75.546 89.823,76.595 87.831 C 76.951 87.155,78.304 86.146,79.917 85.355 C 80.201 85.216,80.786 84.412,81.215 83.570 C 81.717 82.586,82.533 81.786,83.498 81.331 C 85.036 80.606,86.363 79.337,86.387 78.570 C 86.406 77.956,88.039 76.541,89.100 76.219 C 90.147 75.902,92.000 73.628,92.000 72.662 C 92.000 72.296,92.316 72.000,92.707 72.000 C 93.637 72.000,96.400 70.110,96.400 69.475 C 96.400 69.201,96.712 68.533,97.094 67.989 L 97.787 67.000 98.461 69.800 C 99.051 72.250,99.139 75.501,99.167 95.830 M61.055 311.055 L 60.000 312.109 60.000 325.024 L 60.000 337.939 61.036 339.169 L 62.071 340.400 70.066 340.400 L 78.062 340.400 79.231 339.231 L 80.400 338.062 80.400 325.066 L 80.400 312.071 79.169 311.036 L 77.939 310.000 70.024 310.000 L 62.109 310.000 61.055 311.055 M131.055 311.055 L 130.000 312.109 130.000 325.024 L 130.000 337.939 131.036 339.169 L 132.071 340.400 140.066 340.400 L 148.062 340.400 149.231 339.231 L 150.400 338.062 150.400 325.066 L 150.400 312.071 149.169 311.036 L 147.939 310.000 140.024 310.000 L 132.109 310.000 131.055 311.055 M201.055 311.055 L 200.000 312.109 200.000 325.024 L 200.000 337.939 201.036 339.169 L 202.071 340.400 210.066 340.400 L 218.062 340.400 219.231 339.231 L 220.400 338.062 220.400 325.066 L 220.400 312.071 219.169 311.036 L 217.939 310.000 210.024 310.000 L 202.109 310.000 201.055 311.055 M78.395 311.889 C 79.644 312.958,79.648 337.152,78.400 338.400 C 77.167 339.633,62.945 339.629,61.889 338.395 C 60.861 337.195,60.836 313.065,61.862 311.931 C 62.837 310.855,77.144 310.818,78.395 311.889 M148.395 311.889 C 149.644 312.958,149.648 337.152,148.400 338.400 C 147.167 339.633,132.945 339.629,131.889 338.395 C 130.861 337.195,130.836 313.065,131.862 311.931 C 132.837 310.855,147.144 310.818,148.395 311.889 M218.395 311.889 C 219.644 312.958,219.648 337.152,218.400 338.400 C 217.167 339.633,202.945 339.629,201.889 338.395 C 200.861 337.195,200.836 313.065,201.862 311.931 C 202.837 310.855,217.144 310.818,218.395 311.889 " stroke="none" fill="#94bce4" fill-rule="evenodd"></path><path id="path3" d="M91.231 51.231 C 89.881 52.581,89.814 53.173,91.102 52.368 C 91.962 51.831,92.958 50.424,92.676 50.143 C 92.578 50.045,91.927 50.534,91.231 51.231 M95.272 65.031 C 94.352 65.818,93.600 66.810,93.600 67.235 C 93.600 67.764,93.001 68.291,91.700 68.905 C 90.232 69.599,89.572 70.235,88.800 71.700 C 88.250 72.744,87.551 73.598,87.247 73.599 C 86.027 73.601,83.960 75.298,83.721 76.494 C 83.525 77.475,83.081 77.882,81.340 78.679 C 80.163 79.218,79.200 79.915,79.200 80.229 C 79.200 80.543,79.034 80.800,78.832 80.800 C 78.629 80.800,78.348 81.328,78.206 81.974 C 78.011 82.861,77.657 83.212,76.756 83.410 C 75.271 83.736,73.912 85.003,73.227 86.700 C 72.939 87.415,72.448 88.000,72.137 88.000 C 70.779 88.000,68.037 90.454,68.013 91.690 C 68.005 92.113,67.307 92.696,66.213 93.194 C 64.985 93.753,64.035 94.601,63.177 95.904 C 62.428 97.042,61.339 98.075,60.457 98.488 C 59.648 98.867,58.685 99.687,58.316 100.311 C 57.948 100.934,57.051 101.885,56.323 102.422 C 55.595 102.960,53.887 104.480,52.527 105.800 C 51.167 107.120,49.592 108.540,49.027 108.956 C 48.462 109.372,48.000 109.957,48.000 110.256 C 48.000 110.555,47.812 110.800,47.583 110.800 C 47.353 110.800,46.210 111.745,45.043 112.900 C 43.876 114.055,42.449 115.336,41.873 115.747 C 41.296 116.158,40.717 116.833,40.585 117.247 C 40.454 117.661,40.191 118.000,40.002 118.000 C 39.812 118.000,38.989 118.630,38.173 119.400 C 37.356 120.170,36.538 120.800,36.354 120.800 C 36.171 120.800,35.752 121.319,35.424 121.953 C 35.096 122.587,34.019 123.642,33.030 124.297 C 32.041 124.952,30.500 126.413,29.606 127.544 C 28.713 128.675,27.761 129.606,27.491 129.613 C 23.459 129.723,23.391 139.276,27.411 140.804 C 27.924 140.999,28.941 141.971,29.672 142.964 C 30.402 143.957,31.210 144.776,31.467 144.784 C 31.723 144.793,31.993 144.942,32.067 145.117 C 32.140 145.291,32.868 145.937,33.684 146.552 C 34.501 147.168,35.276 147.970,35.407 148.336 C 35.538 148.701,36.711 149.810,38.013 150.800 C 39.315 151.790,40.488 152.917,40.619 153.304 C 40.750 153.692,41.339 154.268,41.928 154.586 C 42.518 154.903,43.965 156.161,45.145 157.381 C 46.325 158.602,47.450 159.600,47.645 159.600 C 47.840 159.600,48.000 159.780,48.000 160.000 C 48.000 160.409,49.435 162.000,49.805 162.000 C 50.049 162.000,54.830 166.489,57.965 169.663 C 59.194 170.907,60.562 172.031,61.004 172.159 C 61.446 172.288,62.371 173.252,63.059 174.303 C 63.893 175.577,64.923 176.520,66.154 177.134 C 67.169 177.641,68.000 178.300,68.000 178.597 C 68.000 179.543,69.977 181.530,71.377 181.992 C 72.293 182.295,72.934 182.875,73.371 183.796 C 74.075 185.279,75.651 186.697,76.965 187.028 C 77.459 187.153,78.106 187.928,78.548 188.925 C 79.141 190.262,79.718 190.817,81.343 191.609 C 82.609 192.227,83.445 192.912,83.534 193.404 C 83.745 194.572,85.546 196.324,86.824 196.605 C 87.646 196.786,88.157 197.321,88.785 198.658 C 89.479 200.133,90.000 200.627,91.608 201.334 C 92.899 201.901,93.584 202.447,93.591 202.913 C 93.608 204.197,96.215 206.400,97.717 206.400 C 101.461 206.400,101.579 205.500,101.590 176.780 C 101.598 158.487,101.717 152.443,102.080 152.080 C 102.655 151.505,268.288 151.408,277.125 151.978 C 280.523 152.197,282.694 152.517,283.125 152.861 C 285.117 154.452,291.883 156.400,295.421 156.400 C 297.462 156.400,299.886 157.367,301.000 158.624 C 301.942 159.688,303.980 160.710,306.473 161.368 C 308.410 161.880,309.408 162.391,310.098 163.225 C 311.030 164.349,313.757 166.401,314.318 166.399 C 315.264 166.395,317.937 168.300,318.375 169.289 C 318.843 170.346,320.583 171.450,322.900 172.160 C 323.285 172.278,323.600 172.706,323.600 173.110 C 323.600 174.221,325.529 176.321,326.808 176.602 C 327.724 176.803,328.076 177.233,328.669 178.883 C 329.213 180.396,329.784 181.159,330.902 181.864 C 331.820 182.444,332.770 183.549,333.345 184.706 C 335.015 188.066,335.372 188.603,337.077 190.324 C 338.401 191.661,338.810 192.414,339.024 193.908 C 339.349 196.182,340.604 198.643,342.086 199.916 C 342.764 200.497,343.256 201.403,343.394 202.324 C 344.704 211.045,345.709 214.942,347.231 217.200 C 349.000 219.826,349.011 240.298,347.244 242.800 C 345.957 244.623,343.602 253.761,343.599 256.950 C 343.597 258.268,342.291 260.800,341.613 260.800 C 341.084 260.800,339.200 264.547,339.200 265.600 C 339.200 267.087,337.993 269.356,336.583 270.518 C 335.822 271.145,335.200 271.856,335.200 272.098 C 335.200 272.339,334.886 272.884,334.502 273.308 C 334.118 273.733,333.533 274.812,333.202 275.708 C 332.666 277.156,331.755 278.022,329.700 279.038 C 329.425 279.174,329.200 279.489,329.200 279.739 C 329.200 281.142,327.750 283.550,326.789 283.742 C 325.453 284.009,323.600 285.875,323.599 286.955 C 323.597 287.720,321.119 289.200,319.840 289.200 C 319.390 289.200,318.482 290.337,317.989 291.519 C 317.778 292.025,316.929 292.704,316.103 293.029 C 315.276 293.354,314.330 293.795,314.000 294.011 C 313.670 294.226,313.019 294.568,312.554 294.770 C 312.089 294.973,311.184 295.775,310.543 296.553 C 309.359 297.989,307.098 299.200,305.600 299.200 C 304.547 299.200,300.800 301.084,300.800 301.613 C 300.800 302.271,298.285 303.597,297.035 303.599 C 293.296 303.603,284.538 305.884,283.078 307.233 C 282.556 307.716,281.231 307.978,278.278 308.183 C 268.341 308.871,269.030 307.702,268.873 324.141 C 268.729 339.232,268.838 340.071,271.065 341.002 C 274.242 342.329,292.934 341.195,296.200 339.477 C 300.712 337.104,301.764 336.729,304.763 336.427 C 308.062 336.094,311.587 334.990,312.120 334.121 C 312.296 333.835,312.701 333.600,313.020 333.600 C 313.339 333.600,313.600 333.366,313.600 333.080 C 313.600 332.599,318.782 330.800,320.169 330.800 C 320.492 330.800,321.440 330.165,322.278 329.389 C 323.742 328.032,325.537 327.018,328.300 325.988 C 329.744 325.449,332.000 323.337,332.000 322.524 C 332.000 322.236,332.408 322.000,332.906 322.000 C 334.398 322.000,337.116 320.201,340.613 316.900 C 340.905 316.625,341.336 316.400,341.571 316.400 C 341.807 316.400,342.000 316.253,342.000 316.074 C 342.000 315.895,342.630 315.448,343.400 315.081 C 344.170 314.713,344.800 314.236,344.800 314.020 C 344.800 313.397,347.228 310.800,347.811 310.800 C 348.457 310.800,350.795 308.518,350.813 307.869 C 350.828 307.292,352.630 305.200,353.111 305.200 C 353.578 305.200,355.019 303.575,355.328 302.700 C 355.464 302.315,355.761 302.000,355.987 302.000 C 356.214 302.000,356.400 301.812,356.400 301.583 C 356.400 301.136,356.417 301.114,358.849 298.400 C 360.628 296.415,362.000 294.025,362.000 292.911 C 362.000 292.256,362.770 291.643,364.404 290.996 C 364.736 290.864,365.336 289.912,365.737 288.878 C 367.304 284.842,367.770 283.937,368.472 283.562 C 368.872 283.347,369.200 282.908,369.200 282.586 C 369.200 282.264,369.384 282.000,369.609 282.000 C 370.109 282.000,370.471 281.106,371.614 277.036 C 372.236 274.822,372.852 273.531,373.669 272.732 C 375.060 271.373,376.400 267.485,376.400 264.811 C 376.400 262.724,377.686 258.543,378.542 257.846 C 380.663 256.121,381.600 247.577,381.600 229.957 C 381.600 212.450,380.695 204.646,378.350 201.943 C 377.349 200.788,376.400 197.511,376.400 195.205 C 376.400 193.019,374.943 188.430,374.153 188.127 C 373.849 188.010,373.600 187.673,373.600 187.377 C 373.600 187.082,373.318 186.682,372.973 186.489 C 372.629 186.296,372.165 185.432,371.943 184.569 C 371.721 183.706,371.326 182.150,371.065 181.111 C 370.789 180.016,370.004 178.562,369.195 177.650 C 367.608 175.862,366.406 173.931,366.386 173.138 C 366.353 171.823,364.848 169.525,363.571 168.841 C 362.817 168.437,362.137 167.768,362.061 167.353 C 361.797 165.931,360.631 163.799,359.477 162.631 C 358.050 161.185,355.200 157.358,355.200 156.887 C 355.200 156.437,353.462 154.802,352.974 154.793 C 352.447 154.783,350.800 152.983,350.800 152.417 C 350.800 151.838,348.057 149.203,347.444 149.193 C 346.913 149.185,345.200 147.445,345.200 146.913 C 345.200 146.502,343.502 144.800,343.092 144.800 C 342.549 144.800,339.720 142.715,338.000 141.047 C 336.919 139.998,335.361 139.004,334.100 138.557 C 332.945 138.147,332.000 137.667,332.000 137.490 C 332.000 136.389,330.124 134.846,327.946 134.156 C 326.543 133.712,324.712 132.706,323.503 131.717 C 322.372 130.791,320.986 129.870,320.423 129.670 C 319.157 129.221,316.170 128.415,314.700 128.126 C 314.095 128.007,313.600 127.654,313.600 127.342 C 313.600 127.030,313.285 126.655,312.900 126.508 C 312.515 126.361,311.880 125.943,311.488 125.579 C 310.730 124.875,305.606 123.600,303.535 123.600 C 301.986 123.600,299.200 122.788,299.200 122.337 C 299.200 122.152,298.930 122.000,298.600 122.000 C 298.270 122.000,298.000 121.844,298.000 121.654 C 298.000 120.687,292.477 119.457,286.800 119.159 C 283.610 118.992,240.837 118.843,191.749 118.828 C 118.712 118.805,102.419 118.705,102.063 118.276 C 101.764 117.915,101.592 109.945,101.511 92.576 C 101.384 65.372,101.400 65.563,99.227 64.279 C 97.611 63.325,97.166 63.410,95.272 65.031 M98.780 66.179 C 100.268 67.762,100.364 69.457,100.383 94.319 L 100.400 118.038 101.458 119.019 L 102.517 120.000 190.358 120.005 C 289.135 120.011,289.612 120.024,294.797 122.798 C 296.069 123.479,301.228 124.780,302.698 124.791 C 304.582 124.804,308.534 126.271,310.917 127.840 C 312.053 128.588,313.279 129.200,313.643 129.200 C 315.036 129.200,319.855 131.309,321.019 132.428 C 321.690 133.073,322.440 133.600,322.687 133.600 C 322.933 133.600,323.645 133.862,324.268 134.183 C 324.890 134.503,325.985 134.997,326.700 135.280 C 327.415 135.564,328.000 135.931,328.000 136.098 C 328.000 136.264,328.178 136.400,328.397 136.400 C 328.615 136.400,329.307 136.938,329.935 137.595 C 330.562 138.252,331.689 139.047,332.438 139.362 C 333.187 139.678,334.970 140.958,336.400 142.208 C 337.830 143.458,339.291 144.598,339.646 144.740 C 341.618 145.532,354.491 158.298,355.161 160.125 C 355.370 160.698,355.582 160.966,358.022 163.750 C 359.155 165.042,360.351 166.742,360.679 167.528 C 361.007 168.313,361.916 169.596,362.699 170.378 C 364.006 171.684,366.400 176.205,366.400 177.368 C 366.400 177.639,366.868 178.297,367.439 178.830 C 368.745 180.050,369.736 181.968,370.607 184.966 C 370.982 186.254,371.706 188.049,372.217 188.954 C 374.161 192.401,374.890 194.202,375.216 196.365 C 375.402 197.594,375.744 199.229,375.977 199.997 C 376.210 200.766,376.400 201.811,376.400 202.319 C 376.400 202.828,376.740 203.999,377.156 204.922 C 381.072 213.616,381.569 244.251,377.938 253.200 C 377.269 254.850,376.585 256.920,376.418 257.800 C 376.252 258.680,375.893 260.570,375.621 262.000 C 374.837 266.118,374.329 267.687,373.223 269.400 C 372.065 271.192,371.141 273.323,370.362 276.000 C 369.721 278.198,368.629 280.268,367.407 281.600 C 366.903 282.150,366.358 283.050,366.196 283.600 C 366.034 284.150,365.769 284.780,365.606 285.000 C 365.443 285.220,365.201 285.850,365.068 286.400 C 364.935 286.950,364.038 288.300,363.075 289.400 C 362.112 290.500,360.993 292.103,360.588 292.961 C 360.182 293.820,359.214 295.159,358.436 295.938 C 357.143 297.230,355.200 299.793,355.200 300.206 C 355.200 300.364,352.153 303.767,350.100 305.901 C 349.605 306.415,349.200 306.938,349.200 307.062 C 349.200 307.382,347.454 309.185,347.136 309.193 C 346.991 309.197,345.665 310.325,344.190 311.700 C 342.715 313.075,340.571 314.836,339.426 315.614 C 338.282 316.392,336.710 317.663,335.934 318.439 C 335.158 319.216,333.820 320.182,332.961 320.588 C 332.103 320.993,330.503 322.106,329.407 323.062 C 328.311 324.018,327.136 324.800,326.796 324.800 C 326.456 324.800,325.823 325.046,325.389 325.346 C 324.955 325.646,324.150 326.027,323.600 326.191 C 323.050 326.355,322.150 326.903,321.600 327.407 C 320.268 328.629,318.198 329.721,316.000 330.362 C 313.556 331.074,311.126 332.052,310.400 332.616 C 308.664 333.966,306.543 334.624,299.400 336.030 C 298.080 336.290,295.780 337.021,294.288 337.655 C 291.171 338.980,285.450 339.861,277.384 340.259 L 272.169 340.516 271.084 339.227 L 270.000 337.939 270.000 325.017 L 270.000 312.095 271.216 310.906 C 272.402 309.747,272.560 309.711,277.712 309.439 C 282.592 309.182,288.232 308.129,289.351 307.267 C 290.044 306.734,296.594 304.800,297.708 304.800 C 299.062 304.800,302.304 303.325,303.991 301.941 C 304.756 301.313,305.622 300.800,305.916 300.800 C 306.939 300.800,310.775 298.749,312.651 297.198 C 313.691 296.339,315.590 295.077,316.871 294.394 C 318.152 293.712,319.204 292.939,319.209 292.677 C 319.215 292.414,320.560 291.210,322.200 290.000 C 323.840 288.790,325.185 287.610,325.191 287.378 C 325.196 287.146,326.031 286.248,327.047 285.382 C 328.063 284.516,329.450 282.996,330.128 282.004 C 331.578 279.885,331.992 279.437,332.800 279.119 C 333.130 278.988,333.845 278.008,334.389 276.941 C 334.932 275.873,336.192 273.977,337.189 272.726 C 338.185 271.476,339.434 269.316,339.964 267.926 C 340.495 266.537,341.425 264.753,342.033 263.963 C 343.400 262.183,345.200 257.984,345.200 256.574 C 345.200 255.385,346.727 250.035,347.262 249.351 C 350.260 245.517,350.374 216.322,347.409 211.400 C 346.725 210.265,345.200 205.068,345.200 203.873 C 345.200 202.311,343.560 198.378,342.112 196.469 C 341.391 195.518,340.794 194.528,340.786 194.269 C 340.779 194.011,340.425 193.080,340.000 192.200 C 339.575 191.320,339.221 190.432,339.214 190.226 C 339.206 190.020,338.486 189.005,337.613 187.969 C 336.740 186.934,335.396 185.012,334.626 183.698 C 333.856 182.384,332.758 181.003,332.188 180.629 C 331.617 180.255,330.666 179.195,330.074 178.274 C 328.778 176.258,327.535 174.800,327.111 174.800 C 326.738 174.800,325.200 173.307,325.200 172.946 C 325.200 172.545,323.204 170.800,322.745 170.800 C 322.517 170.800,321.392 169.838,320.245 168.663 C 319.097 167.488,317.268 166.013,316.179 165.385 C 315.091 164.757,313.448 163.592,312.528 162.796 C 311.608 162.000,309.538 160.832,307.928 160.200 C 306.318 159.569,304.190 158.485,303.200 157.792 C 301.371 156.512,296.725 154.800,295.078 154.800 C 294.040 154.800,289.637 153.321,288.923 152.733 C 288.660 152.517,286.860 151.965,284.923 151.507 C 279.504 150.226,103.135 149.877,101.569 151.144 L 100.600 151.929 100.400 177.135 C 100.181 204.675,100.219 204.265,97.847 204.731 C 97.159 204.867,95.227 203.313,95.197 202.600 C 95.187 202.380,94.215 201.480,93.037 200.600 C 91.859 199.720,90.501 198.431,90.020 197.736 C 89.539 197.040,88.672 196.140,88.094 195.736 C 86.862 194.874,85.325 193.353,84.200 191.883 C 83.760 191.308,83.198 190.829,82.952 190.818 C 82.705 190.808,81.805 190.054,80.952 189.142 C 80.098 188.231,78.894 187.016,78.275 186.442 C 75.622 183.985,74.956 183.320,74.200 182.372 C 73.760 181.821,72.860 181.034,72.200 180.624 C 71.540 180.213,70.640 179.419,70.200 178.859 C 68.661 176.899,66.280 174.800,65.595 174.800 C 65.378 174.800,65.196 174.575,65.192 174.300 C 65.187 174.025,64.469 173.170,63.595 172.400 C 60.891 170.017,58.000 167.092,58.000 166.738 C 58.000 166.552,57.782 166.400,57.515 166.400 C 56.861 166.400,53.600 163.166,53.600 162.517 C 53.600 162.233,53.330 162.000,53.001 162.000 C 52.672 162.000,51.277 160.873,49.901 159.496 C 48.525 158.119,44.700 154.477,41.400 151.403 C 38.100 148.328,34.911 145.315,34.313 144.707 C 33.716 144.098,33.135 143.600,33.022 143.600 C 32.909 143.600,31.537 142.340,29.972 140.800 C 28.408 139.260,26.964 138.000,26.764 138.000 C 25.880 138.000,26.363 132.517,27.300 131.902 C 27.795 131.578,29.100 130.425,30.200 129.339 C 31.300 128.254,34.005 125.733,36.212 123.736 C 38.418 121.740,41.729 118.642,43.570 116.853 C 45.410 115.064,47.004 113.600,47.112 113.600 C 47.402 113.600,49.200 111.604,49.202 111.279 C 49.203 111.126,50.193 110.285,51.402 109.412 C 52.611 108.539,53.600 107.689,53.600 107.523 C 53.600 107.358,54.344 106.543,55.253 105.711 C 56.163 104.880,57.918 103.190,59.153 101.956 C 60.389 100.722,61.811 99.497,62.313 99.235 C 62.814 98.973,63.750 98.033,64.392 97.147 C 65.034 96.261,66.379 94.993,67.380 94.330 C 68.381 93.667,69.200 92.927,69.200 92.686 C 69.200 92.157,72.396 89.204,72.984 89.190 C 73.213 89.184,74.120 88.202,75.000 87.007 C 75.880 85.811,76.870 84.818,77.200 84.798 C 77.530 84.779,78.160 84.307,78.600 83.751 C 79.773 82.266,81.269 80.796,83.354 79.080 C 84.369 78.244,85.205 77.344,85.211 77.080 C 85.217 76.816,85.879 76.150,86.682 75.600 C 87.486 75.050,88.696 73.986,89.371 73.237 C 90.047 72.487,91.046 71.497,91.591 71.037 C 92.136 70.576,93.659 69.075,94.976 67.700 C 97.723 64.831,97.571 64.891,98.780 66.179 M90.300 217.865 C 90.575 217.976,90.806 218.277,90.813 218.533 C 90.830 219.167,92.800 220.586,92.800 219.965 C 92.800 219.349,90.900 217.591,90.279 217.632 C 89.929 217.655,89.934 217.717,90.300 217.865 M60.954 309.374 C 58.930 310.255,58.800 311.213,58.800 325.273 C 58.800 342.773,57.980 341.600,70.214 341.600 C 82.356 341.600,81.600 342.692,81.600 325.141 C 81.600 310.848,81.479 310.055,79.183 309.254 C 77.241 308.577,62.563 308.673,60.954 309.374 M130.954 309.374 C 128.930 310.255,128.800 311.213,128.800 325.273 C 128.800 342.773,127.980 341.600,140.214 341.600 C 152.356 341.600,151.600 342.692,151.600 325.141 C 151.600 310.848,151.479 310.055,149.183 309.254 C 147.241 308.577,132.563 308.673,130.954 309.374 M200.954 309.374 C 198.930 310.255,198.800 311.213,198.800 325.273 C 198.800 342.773,197.980 341.600,210.214 341.600 C 222.356 341.600,221.600 342.692,221.600 325.141 C 221.600 310.848,221.479 310.055,219.183 309.254 C 217.241 308.577,202.563 308.673,200.954 309.374 M79.169 311.036 L 80.400 312.071 80.400 325.066 L 80.400 338.062 79.231 339.231 L 78.062 340.400 70.066 340.400 L 62.071 340.400 61.036 339.169 L 60.000 337.939 60.000 325.024 L 60.000 312.109 61.055 311.055 L 62.109 310.000 70.024 310.000 L 77.939 310.000 79.169 311.036 M149.169 311.036 L 150.400 312.071 150.400 325.066 L 150.400 338.062 149.231 339.231 L 148.062 340.400 140.066 340.400 L 132.071 340.400 131.036 339.169 L 130.000 337.939 130.000 325.024 L 130.000 312.109 131.055 311.055 L 132.109 310.000 140.024 310.000 L 147.939 310.000 149.169 311.036 M219.169 311.036 L 220.400 312.071 220.400 325.066 L 220.400 338.062 219.231 339.231 L 218.062 340.400 210.066 340.400 L 202.071 340.400 201.036 339.169 L 200.000 337.939 200.000 325.024 L 200.000 312.109 201.055 311.055 L 202.109 310.000 210.024 310.000 L 217.939 310.000 219.169 311.036 " stroke="none" fill="#80b0dc" fill-rule="evenodd"></path><path id="path4" d="M102.800 40.400 L 102.800 42.800 100.400 42.800 L 98.000 42.800 98.000 45.400 L 98.000 48.000 95.400 48.000 C 93.356 48.000,92.800 48.128,92.800 48.600 C 92.800 48.930,92.647 49.200,92.459 49.200 C 92.125 49.200,90.718 50.514,88.858 52.562 C 88.340 53.133,87.491 53.600,86.972 53.600 C 85.727 53.600,83.600 55.706,83.600 56.939 C 83.600 57.748,83.312 57.978,81.830 58.351 C 79.669 58.895,78.945 59.576,78.407 61.573 C 78.024 62.996,77.862 63.130,76.229 63.375 C 74.125 63.690,73.720 64.107,73.366 66.320 C 73.090 68.046,72.971 68.135,71.111 68.013 C 69.505 67.908,67.904 69.645,68.071 71.311 C 68.179 72.391,68.054 72.621,67.300 72.728 C 66.805 72.798,66.400 72.998,66.400 73.172 C 66.400 73.347,65.978 73.408,65.463 73.310 C 64.232 73.075,63.075 74.232,63.310 75.463 C 63.408 75.978,63.334 76.400,63.145 76.400 C 62.955 76.400,62.800 76.760,62.800 77.200 C 62.800 77.877,62.533 78.000,61.062 78.000 C 58.898 78.000,58.100 78.799,57.928 81.138 L 57.800 82.876 55.862 82.995 C 53.440 83.145,53.050 83.536,52.958 85.904 L 52.885 87.800 50.953 87.926 C 48.418 88.090,48.000 88.505,48.000 90.849 C 48.000 92.914,47.741 93.090,45.100 92.821 C 44.715 92.782,44.400 92.941,44.400 93.175 C 44.400 93.409,44.175 93.555,43.900 93.500 C 43.625 93.445,43.445 93.625,43.500 93.900 C 43.555 94.175,43.409 94.400,43.175 94.400 C 42.941 94.400,42.782 94.715,42.821 95.100 C 43.092 97.765,42.946 97.952,40.500 98.080 L 38.200 98.200 38.080 100.500 L 37.960 102.800 35.860 102.800 C 33.231 102.800,32.800 103.233,32.800 105.880 L 32.800 108.000 30.400 108.000 L 28.000 108.000 28.000 110.400 L 28.000 112.800 25.880 112.800 C 23.230 112.800,22.800 113.230,22.800 115.880 L 22.800 118.000 20.400 118.000 L 18.000 118.000 18.000 120.400 L 18.000 122.800 15.880 122.800 C 13.233 122.800,12.800 123.231,12.800 125.860 L 12.800 127.960 10.500 128.080 L 8.200 128.200 8.200 135.200 C 8.200 140.507,8.321 142.212,8.700 142.250 C 8.975 142.278,10.010 142.322,11.000 142.350 L 12.800 142.400 12.800 144.520 C 12.800 147.167,13.231 147.600,15.860 147.600 L 17.960 147.600 18.080 149.900 L 18.200 152.200 20.500 152.320 L 22.800 152.440 22.800 154.540 C 22.800 157.169,23.233 157.600,25.880 157.600 L 28.000 157.600 28.000 159.757 C 28.000 162.202,28.227 162.400,31.033 162.400 L 32.800 162.400 32.800 164.226 C 32.800 167.095,33.251 167.600,35.814 167.600 L 38.000 167.600 38.000 169.824 C 38.000 171.094,38.160 171.949,38.372 171.817 C 38.577 171.691,38.845 171.749,38.967 171.946 C 39.089 172.144,39.930 172.316,40.837 172.328 C 42.859 172.356,42.844 172.341,42.872 174.358 C 42.884 175.261,43.053 176.000,43.247 176.000 C 43.441 176.000,43.555 176.225,43.500 176.500 C 43.445 176.775,43.625 176.955,43.900 176.900 C 44.175 176.845,44.400 176.991,44.400 177.225 C 44.400 177.459,44.715 177.618,45.100 177.579 C 47.748 177.310,48.000 177.483,48.000 179.576 C 48.000 181.854,48.163 182.008,50.940 182.353 C 52.793 182.582,52.987 182.699,52.873 183.516 C 52.498 186.194,54.569 188.099,57.230 187.523 C 57.643 187.434,57.835 187.893,57.928 189.192 C 58.093 191.516,58.438 191.875,60.820 192.203 C 62.406 192.421,62.800 192.627,62.800 193.238 C 62.800 193.657,62.955 194.000,63.145 194.000 C 63.334 194.000,63.408 194.422,63.310 194.937 C 63.075 196.168,64.232 197.325,65.463 197.090 C 65.978 196.992,66.400 197.066,66.400 197.255 C 66.400 197.445,66.760 197.600,67.200 197.600 C 67.824 197.600,68.000 197.867,68.000 198.814 C 68.000 200.780,69.048 201.999,70.746 202.006 C 72.710 202.014,73.054 202.314,73.388 204.310 C 73.681 206.064,75.193 207.200,77.233 207.200 C 77.746 207.200,78.115 207.691,78.455 208.827 C 78.969 210.542,80.424 212.000,81.621 212.000 C 82.903 212.000,83.600 212.470,83.613 213.343 C 83.628 214.412,85.333 216.400,86.234 216.400 C 87.279 216.400,89.317 217.835,90.200 219.193 C 90.640 219.870,91.388 220.524,91.862 220.646 C 92.336 220.768,92.815 221.213,92.925 221.634 C 93.095 222.283,93.497 222.400,95.563 222.400 L 98.000 222.400 98.000 225.000 L 98.000 227.600 100.380 227.600 L 102.760 227.600 102.880 229.900 L 103.000 232.200 107.600 232.200 L 112.200 232.200 112.302 197.300 L 112.404 162.400 190.119 162.400 L 267.834 162.400 268.321 164.222 C 269.108 167.164,269.820 167.333,282.200 167.519 C 293.778 167.692,292.993 167.559,292.874 169.328 C 292.697 171.961,293.535 172.325,299.900 172.376 L 302.800 172.400 302.800 174.338 C 302.800 176.827,303.589 177.600,306.131 177.600 C 308.084 177.600,308.186 177.720,308.026 179.821 C 307.963 180.649,309.200 182.098,309.850 181.958 C 311.185 181.670,313.601 182.565,313.613 183.351 C 313.629 184.437,315.342 186.398,316.281 186.406 C 317.620 186.418,318.067 187.045,318.067 188.912 C 318.067 190.673,318.953 192.178,319.850 191.940 C 321.571 191.484,322.800 192.496,322.800 194.370 C 322.800 196.825,323.599 197.600,326.131 197.600 L 328.000 197.600 328.050 201.600 C 328.111 206.490,328.078 206.247,328.759 206.880 C 329.222 207.311,329.268 207.297,329.029 206.800 C 328.835 206.395,328.922 206.420,329.296 206.875 C 329.623 207.272,330.380 207.536,331.132 207.514 C 331.835 207.494,332.514 207.581,332.640 207.706 C 332.941 208.007,332.936 252.397,332.636 252.698 C 332.508 252.825,331.773 252.906,331.002 252.877 C 330.231 252.848,329.600 253.010,329.600 253.236 C 329.600 253.462,329.420 253.536,329.200 253.400 C 328.980 253.264,328.800 253.354,328.800 253.600 C 328.800 253.846,328.608 253.929,328.373 253.783 C 328.139 253.638,327.980 253.763,328.021 254.060 C 328.061 254.357,328.073 256.445,328.047 258.700 L 328.000 262.800 326.062 262.800 C 323.573 262.800,322.800 263.589,322.800 266.131 C 322.800 268.083,322.680 268.185,320.586 268.027 C 319.578 267.951,317.909 269.659,318.014 270.660 C 318.249 272.892,318.008 273.600,317.014 273.600 C 315.701 273.600,313.600 275.684,313.600 276.987 C 313.600 278.018,313.037 278.212,310.586 278.027 C 309.578 277.951,307.909 279.659,308.014 280.660 C 308.223 282.640,308.077 282.800,306.062 282.800 C 303.573 282.800,302.800 283.589,302.800 286.131 L 302.800 288.000 298.700 288.047 C 296.445 288.073,294.357 288.061,294.060 288.021 C 293.763 287.980,293.638 288.139,293.783 288.373 C 293.929 288.608,293.846 288.800,293.600 288.800 C 293.354 288.800,293.264 288.980,293.400 289.200 C 293.536 289.420,293.462 289.600,293.236 289.600 C 293.010 289.600,292.848 290.231,292.877 291.002 C 292.947 292.871,293.886 292.709,282.117 292.863 C 272.205 292.993,271.599 293.044,270.987 293.800 C 270.632 294.240,270.455 294.375,270.594 294.100 C 271.009 293.281,269.445 293.515,268.924 294.351 C 268.666 294.764,268.332 295.754,268.183 296.551 L 267.911 298.000 262.953 298.000 L 257.994 298.000 258.097 325.100 L 258.200 352.200 281.200 352.166 C 306.305 352.129,306.400 352.127,306.400 351.550 C 306.400 351.331,306.175 351.282,305.900 351.441 C 305.610 351.608,305.540 351.576,305.733 351.364 C 305.917 351.164,306.277 350.998,306.533 350.995 C 306.790 350.992,306.993 350.497,306.984 349.895 C 306.976 349.293,307.111 348.800,307.284 348.800 C 307.458 348.800,307.600 348.552,307.600 348.249 C 307.600 347.812,308.865 347.662,313.700 347.529 C 320.803 347.334,321.920 346.936,321.920 344.607 C 321.920 342.564,322.182 342.402,325.524 342.377 C 331.232 342.334,331.740 342.127,332.128 339.694 L 332.461 337.600 334.843 337.600 C 336.591 337.600,337.286 337.440,337.455 337.000 C 337.582 336.670,337.891 336.394,338.143 336.386 C 338.881 336.362,340.599 334.691,341.111 333.500 C 341.370 332.895,341.812 332.387,342.091 332.371 C 347.018 332.091,347.510 331.779,347.572 328.900 C 347.600 327.612,347.618 327.600,349.586 327.600 C 351.929 327.600,352.400 327.035,352.400 324.226 L 352.400 322.400 354.367 322.400 C 357.391 322.400,357.600 322.229,357.600 319.757 L 357.600 317.600 359.757 317.600 C 362.229 317.600,362.400 317.391,362.400 314.367 L 362.400 312.400 364.226 312.400 C 367.035 312.400,367.600 311.929,367.600 309.586 C 367.600 307.618,367.612 307.600,368.900 307.572 C 371.779 307.510,372.091 307.018,372.371 302.091 C 372.387 301.812,372.895 301.370,373.500 301.111 C 374.691 300.599,376.362 298.881,376.386 298.143 C 376.394 297.891,376.670 297.582,377.000 297.455 C 377.440 297.286,377.600 296.591,377.600 294.843 L 377.600 292.461 379.694 292.128 C 382.127 291.740,382.334 291.232,382.377 285.524 C 382.402 282.182,382.564 281.920,384.607 281.920 C 386.936 281.920,387.334 280.803,387.529 273.700 C 387.662 268.865,387.812 267.600,388.249 267.600 C 388.552 267.600,388.800 267.458,388.800 267.284 C 388.800 267.111,389.293 266.976,389.895 266.984 C 390.497 266.993,390.992 266.790,390.995 266.533 C 390.998 266.277,391.164 265.917,391.364 265.733 C 391.576 265.540,391.608 265.610,391.441 265.900 C 391.282 266.175,391.341 266.400,391.572 266.400 C 392.438 266.400,392.694 197.271,391.834 195.548 C 391.515 194.909,391.422 194.490,391.627 194.617 C 391.832 194.744,392.000 194.663,392.000 194.438 C 392.000 193.820,390.421 193.101,389.559 193.327 C 389.142 193.436,388.800 193.362,388.800 193.163 C 388.800 192.963,388.530 192.800,388.200 192.800 C 387.697 192.800,387.600 191.956,387.600 187.600 C 387.600 184.740,387.451 182.400,387.269 182.400 C 387.087 182.400,387.016 181.871,387.111 181.224 C 387.357 179.548,385.632 177.846,383.939 178.094 C 382.473 178.310,382.472 178.308,382.226 173.800 C 382.118 171.820,382.011 169.885,381.990 169.501 C 381.940 168.616,380.975 168.114,379.259 168.079 C 377.566 168.044,377.665 168.197,377.554 165.451 C 377.494 163.958,377.269 163.048,376.930 162.918 C 376.638 162.806,376.400 162.498,376.400 162.234 C 376.400 161.421,374.326 159.200,373.566 159.200 C 372.593 159.200,372.303 158.620,372.329 156.724 C 372.358 154.579,371.756 153.054,370.994 153.347 C 370.667 153.472,370.400 153.387,370.400 153.157 C 370.400 152.926,369.820 152.798,369.100 152.870 C 367.843 152.996,367.796 152.947,367.693 151.400 C 367.469 148.028,367.445 148.000,364.792 148.000 L 362.400 148.000 362.350 146.200 C 362.322 145.210,362.255 144.220,362.200 144.000 C 362.145 143.780,362.078 143.412,362.050 143.182 C 362.022 142.953,361.775 142.794,361.500 142.830 C 361.225 142.866,360.244 142.873,359.320 142.847 L 357.640 142.800 357.520 140.500 L 357.400 138.200 354.900 138.081 L 352.400 137.962 352.400 135.861 C 352.400 133.268,351.959 132.800,349.520 132.800 C 347.545 132.800,347.438 132.694,347.587 130.878 C 347.749 128.909,346.613 128.000,343.988 128.000 L 341.594 128.000 340.953 126.400 C 340.601 125.520,340.125 124.800,339.894 124.800 C 339.664 124.800,338.886 124.350,338.164 123.800 C 337.136 123.016,336.383 122.800,334.672 122.800 C 332.368 122.800,332.016 122.371,331.963 119.501 C 331.943 118.389,330.872 118.095,326.602 118.028 C 322.144 117.957,321.920 117.855,321.920 115.899 C 321.920 113.325,320.299 112.800,312.345 112.800 C 307.867 112.800,307.600 112.755,307.600 112.000 C 307.600 111.560,307.437 111.200,307.237 111.200 C 307.038 111.200,306.971 110.834,307.088 110.387 C 307.357 109.356,306.120 107.942,305.021 108.026 C 304.570 108.060,261.045 108.069,208.300 108.044 L 112.400 108.000 112.400 73.000 L 112.400 38.000 107.600 38.000 L 102.800 38.000 102.800 40.400 M92.368 51.102 C 91.831 51.962,90.424 52.958,90.143 52.676 C 90.045 52.578,90.534 51.927,91.231 51.231 C 92.581 49.881,93.173 49.814,92.368 51.102 M99.227 64.279 C 101.400 65.563,101.384 65.372,101.511 92.576 C 101.592 109.945,101.764 117.915,102.063 118.276 C 102.419 118.705,118.712 118.805,191.749 118.828 C 240.837 118.843,283.610 118.992,286.800 119.159 C 292.477 119.457,298.000 120.687,298.000 121.654 C 298.000 121.844,298.270 122.000,298.600 122.000 C 298.930 122.000,299.200 122.152,299.200 122.337 C 299.200 122.788,301.986 123.600,303.535 123.600 C 305.606 123.600,310.730 124.875,311.488 125.579 C 311.880 125.943,312.515 126.361,312.900 126.508 C 313.285 126.655,313.600 127.030,313.600 127.342 C 313.600 127.654,314.095 128.007,314.700 128.126 C 316.170 128.415,319.157 129.221,320.423 129.670 C 320.986 129.870,322.372 130.791,323.503 131.717 C 324.712 132.706,326.543 133.712,327.946 134.156 C 330.124 134.846,332.000 136.389,332.000 137.490 C 332.000 137.667,332.945 138.147,334.100 138.557 C 335.361 139.004,336.919 139.998,338.000 141.047 C 339.720 142.715,342.549 144.800,343.092 144.800 C 343.502 144.800,345.200 146.502,345.200 146.913 C 345.200 147.445,346.913 149.185,347.444 149.193 C 348.057 149.203,350.800 151.838,350.800 152.417 C 350.800 152.983,352.447 154.783,352.974 154.793 C 353.462 154.802,355.200 156.437,355.200 156.887 C 355.200 157.358,358.050 161.185,359.477 162.631 C 360.631 163.799,361.797 165.931,362.061 167.353 C 362.137 167.768,362.817 168.437,363.571 168.841 C 364.848 169.525,366.353 171.823,366.386 173.138 C 366.406 173.931,367.608 175.862,369.195 177.650 C 370.004 178.562,370.789 180.016,371.065 181.111 C 371.326 182.150,371.721 183.706,371.943 184.569 C 372.165 185.432,372.629 186.296,372.973 186.489 C 373.318 186.682,373.600 187.082,373.600 187.377 C 373.600 187.673,373.849 188.010,374.153 188.127 C 374.943 188.430,376.400 193.019,376.400 195.205 C 376.400 197.511,377.349 200.788,378.350 201.943 C 382.799 207.073,382.961 254.251,378.542 257.846 C 377.686 258.543,376.400 262.724,376.400 264.811 C 376.400 267.485,375.060 271.373,373.669 272.732 C 372.852 273.531,372.236 274.822,371.614 277.036 C 370.471 281.106,370.109 282.000,369.609 282.000 C 369.384 282.000,369.200 282.264,369.200 282.586 C 369.200 282.908,368.872 283.347,368.472 283.562 C 367.770 283.937,367.304 284.842,365.737 288.878 C 365.336 289.912,364.736 290.864,364.404 290.996 C 362.770 291.643,362.000 292.256,362.000 292.911 C 362.000 294.025,360.628 296.415,358.849 298.400 C 356.417 301.114,356.400 301.136,356.400 301.583 C 356.400 301.812,356.214 302.000,355.987 302.000 C 355.761 302.000,355.464 302.315,355.328 302.700 C 355.019 303.575,353.578 305.200,353.111 305.200 C 352.630 305.200,350.828 307.292,350.813 307.869 C 350.795 308.518,348.457 310.800,347.811 310.800 C 347.228 310.800,344.800 313.397,344.800 314.020 C 344.800 314.236,344.170 314.713,343.400 315.081 C 342.630 315.448,342.000 315.895,342.000 316.074 C 342.000 316.253,341.807 316.400,341.571 316.400 C 341.336 316.400,340.905 316.625,340.613 316.900 C 337.116 320.201,334.398 322.000,332.906 322.000 C 332.408 322.000,332.000 322.236,332.000 322.524 C 332.000 323.337,329.744 325.449,328.300 325.988 C 325.537 327.018,323.742 328.032,322.278 329.389 C 321.440 330.165,320.492 330.800,320.169 330.800 C 318.782 330.800,313.600 332.599,313.600 333.080 C 313.600 333.366,313.339 333.600,313.020 333.600 C 312.701 333.600,312.296 333.835,312.120 334.121 C 311.587 334.990,308.062 336.094,304.763 336.427 C 301.764 336.729,300.712 337.104,296.200 339.477 C 292.934 341.195,274.242 342.329,271.065 341.002 C 268.838 340.071,268.729 339.232,268.873 324.141 C 269.030 307.702,268.341 308.871,278.278 308.183 C 281.231 307.978,282.556 307.716,283.078 307.233 C 284.538 305.884,293.296 303.603,297.035 303.599 C 298.285 303.597,300.800 302.271,300.800 301.613 C 300.800 301.084,304.547 299.200,305.600 299.200 C 307.098 299.200,309.359 297.989,310.543 296.553 C 311.184 295.775,312.089 294.973,312.554 294.770 C 313.019 294.568,313.670 294.226,314.000 294.011 C 314.330 293.795,315.276 293.354,316.103 293.029 C 316.929 292.704,317.778 292.025,317.989 291.519 C 318.482 290.337,319.390 289.200,319.840 289.200 C 321.119 289.200,323.597 287.720,323.599 286.955 C 323.600 285.875,325.453 284.009,326.789 283.742 C 327.750 283.550,329.200 281.142,329.200 279.739 C 329.200 279.489,329.425 279.174,329.700 279.038 C 331.755 278.022,332.666 277.156,333.202 275.708 C 333.533 274.812,334.118 273.733,334.502 273.308 C 334.886 272.884,335.200 272.339,335.200 272.098 C 335.200 271.856,335.822 271.145,336.583 270.518 C 337.993 269.356,339.200 267.087,339.200 265.600 C 339.200 264.547,341.084 260.800,341.613 260.800 C 342.291 260.800,343.597 258.268,343.599 256.950 C 343.602 253.761,345.957 244.623,347.244 242.800 C 349.011 240.298,349.000 219.826,347.231 217.200 C 345.709 214.942,344.704 211.045,343.394 202.324 C 343.256 201.403,342.764 200.497,342.086 199.916 C 340.604 198.643,339.349 196.182,339.024 193.908 C 338.810 192.414,338.401 191.661,337.077 190.324 C 335.372 188.603,335.015 188.066,333.345 184.706 C 332.770 183.549,331.820 182.444,330.902 181.864 C 329.784 181.159,329.213 180.396,328.669 178.883 C 328.076 177.233,327.724 176.803,326.808 176.602 C 325.529 176.321,323.600 174.221,323.600 173.110 C 323.600 172.706,323.285 172.278,322.900 172.160 C 320.583 171.450,318.843 170.346,318.375 169.289 C 317.937 168.300,315.264 166.395,314.318 166.399 C 313.757 166.401,311.030 164.349,310.098 163.225 C 309.408 162.391,308.410 161.880,306.473 161.368 C 303.980 160.710,301.942 159.688,301.000 158.624 C 299.886 157.367,297.462 156.400,295.421 156.400 C 291.883 156.400,285.117 154.452,283.125 152.861 C 282.694 152.517,280.523 152.197,277.125 151.978 C 268.288 151.408,102.655 151.505,102.080 152.080 C 101.717 152.443,101.598 158.487,101.590 176.780 C 101.579 205.500,101.461 206.400,97.717 206.400 C 96.215 206.400,93.608 204.197,93.591 202.913 C 93.584 202.447,92.899 201.901,91.608 201.334 C 90.000 200.627,89.479 200.133,88.785 198.658 C 88.157 197.321,87.646 196.786,86.824 196.605 C 85.546 196.324,83.745 194.572,83.534 193.404 C 83.445 192.912,82.609 192.227,81.343 191.609 C 79.718 190.817,79.141 190.262,78.548 188.925 C 78.106 187.928,77.459 187.153,76.965 187.028 C 75.651 186.697,74.075 185.279,73.371 183.796 C 72.934 182.875,72.293 182.295,71.377 181.992 C 69.977 181.530,68.000 179.543,68.000 178.597 C 68.000 178.300,67.169 177.641,66.154 177.134 C 64.923 176.520,63.893 175.577,63.059 174.303 C 62.371 173.252,61.446 172.288,61.004 172.159 C 60.562 172.031,59.194 170.907,57.965 169.663 C 54.830 166.489,50.049 162.000,49.805 162.000 C 49.435 162.000,48.000 160.409,48.000 160.000 C 48.000 159.780,47.840 159.600,47.645 159.600 C 47.450 159.600,46.325 158.602,45.145 157.381 C 43.965 156.161,42.518 154.903,41.928 154.586 C 41.339 154.268,40.750 153.692,40.619 153.304 C 40.488 152.917,39.315 151.790,38.013 150.800 C 36.711 149.810,35.538 148.701,35.407 148.336 C 35.276 147.970,34.501 147.168,33.684 146.552 C 32.868 145.937,32.140 145.291,32.067 145.117 C 31.993 144.942,31.723 144.793,31.467 144.784 C 31.210 144.776,30.402 143.957,29.672 142.964 C 28.941 141.971,27.924 140.999,27.411 140.804 C 23.391 139.276,23.459 129.723,27.491 129.613 C 27.761 129.606,28.713 128.675,29.606 127.544 C 30.500 126.413,32.041 124.952,33.030 124.297 C 34.019 123.642,35.096 122.587,35.424 121.953 C 35.752 121.319,36.171 120.800,36.354 120.800 C 36.538 120.800,37.356 120.170,38.173 119.400 C 38.989 118.630,39.812 118.000,40.002 118.000 C 40.191 118.000,40.454 117.661,40.585 117.247 C 40.717 116.833,41.296 116.158,41.873 115.747 C 42.449 115.336,43.876 114.055,45.043 112.900 C 46.210 111.745,47.353 110.800,47.583 110.800 C 47.812 110.800,48.000 110.555,48.000 110.256 C 48.000 109.957,48.462 109.372,49.027 108.956 C 49.592 108.540,51.167 107.120,52.527 105.800 C 53.887 104.480,55.595 102.960,56.323 102.422 C 57.051 101.885,57.948 100.934,58.316 100.311 C 58.685 99.687,59.648 98.867,60.457 98.488 C 61.339 98.075,62.428 97.042,63.177 95.904 C 64.035 94.601,64.985 93.753,66.213 93.194 C 67.307 92.696,68.005 92.113,68.013 91.690 C 68.037 90.454,70.779 88.000,72.137 88.000 C 72.448 88.000,72.939 87.415,73.227 86.700 C 73.912 85.003,75.271 83.736,76.756 83.410 C 77.657 83.212,78.011 82.861,78.206 81.974 C 78.348 81.328,78.629 80.800,78.832 80.800 C 79.034 80.800,79.200 80.543,79.200 80.229 C 79.200 79.915,80.163 79.218,81.340 78.679 C 83.081 77.882,83.525 77.475,83.721 76.494 C 83.960 75.298,86.027 73.601,87.247 73.599 C 87.551 73.598,88.250 72.744,88.800 71.700 C 89.572 70.235,90.232 69.599,91.700 68.905 C 93.001 68.291,93.600 67.764,93.600 67.235 C 93.600 65.160,97.368 63.181,99.227 64.279 M91.779 218.546 C 93.113 219.781,93.138 220.683,91.813 219.719 C 91.269 219.323,90.819 218.790,90.813 218.533 C 90.806 218.277,90.575 217.976,90.300 217.865 C 89.934 217.717,89.929 217.655,90.279 217.632 C 90.543 217.614,91.218 218.026,91.779 218.546 M48.097 325.097 L 48.200 352.200 70.200 352.200 L 92.200 352.200 92.200 325.200 L 92.200 298.200 70.097 298.097 L 47.994 297.993 48.097 325.097 M118.097 325.097 L 118.200 352.200 140.200 352.200 L 162.200 352.200 162.200 325.200 L 162.200 298.200 140.097 298.097 L 117.994 297.993 118.097 325.097 M188.097 325.097 L 188.200 352.200 210.200 352.200 L 232.200 352.200 232.200 325.200 L 232.200 298.200 210.097 298.097 L 187.994 297.993 188.097 325.097 M79.183 309.254 C 81.479 310.055,81.600 310.848,81.600 325.141 C 81.600 342.692,82.356 341.600,70.214 341.600 C 57.980 341.600,58.800 342.773,58.800 325.273 C 58.800 311.213,58.930 310.255,60.954 309.374 C 62.563 308.673,77.241 308.577,79.183 309.254 M149.183 309.254 C 151.479 310.055,151.600 310.848,151.600 325.141 C 151.600 342.692,152.356 341.600,140.214 341.600 C 127.980 341.600,128.800 342.773,128.800 325.273 C 128.800 311.213,128.930 310.255,130.954 309.374 C 132.563 308.673,147.241 308.577,149.183 309.254 M219.183 309.254 C 221.479 310.055,221.600 310.848,221.600 325.141 C 221.600 342.692,222.356 341.600,210.214 341.600 C 197.980 341.600,198.800 342.773,198.800 325.273 C 198.800 311.213,198.930 310.255,200.954 309.374 C 202.563 308.673,217.241 308.577,219.183 309.254 " stroke="none" fill="#4c8ccc" fill-rule="evenodd"></path></g></svg>