<svg id="svg" xmlns="http://www.w3.org/2000/svg" xmlns:xlink="http://www.w3.org/1999/xlink" width="400" height="400" viewBox="0, 0, 400,400"><g id="svgg"><path id="path0" d="M156.495 71.442 C 155.783 72.067,155.200 72.808,155.200 73.089 C 155.200 73.370,155.037 73.600,154.838 73.600 C 154.343 73.600,145.200 82.711,145.200 83.204 C 145.200 83.422,145.037 83.600,144.838 83.600 C 144.343 83.600,135.200 92.711,135.200 93.204 C 135.200 93.422,135.037 93.600,134.838 93.600 C 134.343 93.600,125.200 102.711,125.200 103.204 C 125.200 103.422,125.037 103.600,124.838 103.600 C 124.343 103.600,115.200 112.711,115.200 113.204 C 115.200 113.422,115.037 113.600,114.838 113.600 C 114.343 113.600,105.200 122.711,105.200 123.204 C 105.200 123.422,105.037 123.600,104.838 123.600 C 104.343 123.600,95.200 132.711,95.200 133.204 C 95.200 133.422,95.037 133.600,94.838 133.600 C 94.343 133.600,85.200 142.711,85.200 143.204 C 85.200 143.422,85.037 143.600,84.838 143.600 C 84.343 143.600,75.200 152.711,75.200 153.204 C 75.200 153.422,75.037 153.600,74.838 153.600 C 74.343 153.600,65.200 162.711,65.200 163.204 C 65.200 163.422,65.037 163.600,64.838 163.600 C 64.343 163.600,55.200 172.711,55.200 173.204 C 55.200 173.422,55.037 173.600,54.838 173.600 C 54.343 173.600,45.200 182.711,45.200 183.204 C 45.200 183.422,45.037 183.600,44.838 183.600 C 44.343 183.600,35.200 192.711,35.200 193.204 C 35.200 193.422,35.042 193.600,34.848 193.600 C 34.655 193.600,33.575 194.479,32.448 195.554 L 30.400 197.508 30.400 200.123 C 30.400 202.934,30.642 203.333,33.959 205.996 C 34.642 206.543,35.200 207.141,35.200 207.325 C 35.200 207.508,35.949 208.320,36.865 209.129 C 37.780 209.938,38.995 211.120,39.565 211.755 C 41.083 213.448,42.556 214.869,43.959 215.996 C 44.642 216.543,45.200 217.141,45.200 217.325 C 45.200 217.508,45.949 218.320,46.865 219.129 C 47.780 219.938,48.995 221.120,49.565 221.755 C 51.083 223.448,52.556 224.869,53.959 225.996 C 54.642 226.543,55.200 227.141,55.200 227.325 C 55.200 227.508,55.949 228.320,56.865 229.129 C 57.780 229.938,58.995 231.120,59.565 231.755 C 61.083 233.448,62.556 234.869,63.959 235.996 C 64.642 236.543,65.200 237.141,65.200 237.325 C 65.200 237.508,65.949 238.320,66.865 239.129 C 67.780 239.938,68.995 241.120,69.565 241.755 C 71.083 243.448,72.556 244.869,73.959 245.996 C 74.642 246.543,75.200 247.141,75.200 247.325 C 75.200 247.508,75.949 248.320,76.865 249.129 C 77.780 249.938,78.995 251.120,79.565 251.755 C 81.083 253.448,82.556 254.869,83.959 255.996 C 84.642 256.543,85.200 257.141,85.200 257.325 C 85.200 257.508,85.949 258.320,86.865 259.129 C 87.780 259.938,88.995 261.120,89.565 261.755 C 91.083 263.448,92.556 264.869,93.959 265.996 C 94.642 266.543,95.200 267.141,95.200 267.325 C 95.200 267.508,95.949 268.320,96.865 269.129 C 97.780 269.938,98.995 271.120,99.565 271.755 C 101.083 273.448,102.556 274.869,103.959 275.996 C 104.642 276.543,105.200 277.141,105.200 277.325 C 105.200 277.508,105.949 278.320,106.865 279.129 C 107.780 279.938,108.995 281.120,109.565 281.755 C 111.083 283.448,112.556 284.869,113.959 285.996 C 114.642 286.543,115.200 287.141,115.200 287.325 C 115.200 287.508,115.949 288.320,116.865 289.129 C 117.780 289.938,118.995 291.120,119.565 291.755 C 121.083 293.448,122.556 294.869,123.959 295.996 C 124.642 296.543,125.200 297.141,125.200 297.325 C 125.200 297.508,125.949 298.320,126.865 299.129 C 127.780 299.938,128.995 301.120,129.565 301.755 C 131.083 303.448,132.556 304.869,133.959 305.996 C 134.642 306.543,135.200 307.141,135.200 307.325 C 135.200 307.508,135.949 308.320,136.865 309.129 C 137.780 309.938,138.995 311.120,139.565 311.755 C 141.083 313.448,142.556 314.869,143.959 315.996 C 144.642 316.543,145.200 317.141,145.200 317.325 C 145.200 317.508,145.949 318.320,146.865 319.129 C 147.780 319.938,148.995 321.120,149.565 321.755 C 151.083 323.448,152.556 324.869,153.959 325.996 C 154.642 326.543,155.200 327.138,155.200 327.318 C 155.200 327.498,155.785 328.180,156.500 328.834 L 157.800 330.022 158.060 329.111 C 158.203 328.610,158.338 308.889,158.360 285.287 C 158.403 239.007,158.342 240.343,160.466 239.132 C 161.235 238.694,180.596 238.565,269.800 238.400 L 378.200 238.200 378.200 200.200 L 378.200 162.200 269.800 162.000 C 167.081 161.810,161.346 161.763,160.362 161.094 C 158.388 159.753,158.403 160.093,158.360 114.754 C 158.338 91.349,158.201 71.774,158.055 71.253 L 157.789 70.306 156.495 71.442 " stroke="none" fill="#dcf4fc" fill-rule="evenodd"></path><path id="path1" d="M162.800 40.400 L 162.800 42.800 160.400 42.800 L 158.000 42.800 158.000 45.400 L 158.000 48.000 155.400 48.000 L 152.800 48.000 152.800 50.400 L 152.800 52.800 150.400 52.800 L 148.000 52.800 148.000 55.400 L 148.000 58.000 145.400 58.000 L 142.800 58.000 142.800 60.400 L 142.800 62.800 140.400 62.800 L 138.000 62.800 138.000 65.400 L 138.000 68.000 135.400 68.000 L 132.800 68.000 132.800 70.400 L 132.800 72.800 130.400 72.800 L 128.000 72.800 128.000 75.400 L 128.000 78.000 125.400 78.000 L 122.800 78.000 122.800 80.400 L 122.800 82.800 120.400 82.800 L 118.000 82.800 118.000 85.400 L 118.000 88.000 115.400 88.000 L 112.800 88.000 112.800 90.400 L 112.800 92.800 110.400 92.800 L 108.000 92.800 108.000 95.400 L 108.000 98.000 105.400 98.000 L 102.800 98.000 102.800 100.400 L 102.800 102.800 100.400 102.800 L 98.000 102.800 98.000 105.400 L 98.000 108.000 95.400 108.000 L 92.800 108.000 92.800 110.400 L 92.800 112.800 90.400 112.800 L 88.000 112.800 88.000 115.400 L 88.000 118.000 85.400 118.000 L 82.800 118.000 82.800 120.400 L 82.800 122.800 80.400 122.800 L 78.000 122.800 78.000 125.400 L 78.000 128.000 75.400 128.000 L 72.800 128.000 72.800 130.400 L 72.800 132.800 70.400 132.800 L 68.000 132.800 68.000 135.400 L 68.000 138.000 65.400 138.000 L 62.800 138.000 62.800 140.400 L 62.800 142.800 60.400 142.800 L 58.000 142.800 58.000 145.400 L 58.000 148.000 55.400 148.000 L 52.800 148.000 52.800 150.400 L 52.800 152.800 50.400 152.800 L 48.000 152.800 48.000 155.400 L 48.000 158.000 45.400 158.000 L 42.800 158.000 42.800 160.400 L 42.800 162.800 40.400 162.800 L 38.000 162.800 38.000 165.400 L 38.000 168.000 35.400 168.000 L 32.800 168.000 32.800 170.400 L 32.800 172.800 30.400 172.800 L 28.000 172.800 28.000 175.400 L 28.000 178.000 25.400 178.000 L 22.800 178.000 22.800 180.400 L 22.800 182.800 20.400 182.800 L 18.000 182.800 18.000 185.400 L 18.000 188.000 15.400 188.000 L 12.800 188.000 12.800 190.400 L 12.800 192.800 10.391 192.800 L 7.982 192.800 8.091 200.100 L 8.200 207.400 10.500 207.520 L 12.800 207.640 12.800 209.777 C 12.800 212.224,13.015 212.400,16.014 212.400 L 17.962 212.400 18.081 214.900 L 18.200 217.400 20.500 217.520 L 22.800 217.640 22.800 219.777 C 22.800 222.224,23.015 222.400,26.014 222.400 L 27.962 222.400 28.081 224.900 L 28.200 227.400 30.500 227.520 L 32.800 227.640 32.800 229.777 C 32.800 232.224,33.015 232.400,36.014 232.400 L 37.962 232.400 38.081 234.900 L 38.200 237.400 40.500 237.520 L 42.800 237.640 42.800 239.777 C 42.800 242.224,43.015 242.400,46.014 242.400 L 47.962 242.400 48.081 244.900 L 48.200 247.400 50.500 247.520 L 52.800 247.640 52.800 249.777 C 52.800 252.224,53.015 252.400,56.014 252.400 L 57.962 252.400 58.081 254.900 L 58.200 257.400 60.500 257.520 L 62.800 257.640 62.800 259.777 C 62.800 262.224,63.015 262.400,66.014 262.400 L 67.962 262.400 68.081 264.900 L 68.200 267.400 70.500 267.520 L 72.800 267.640 72.800 269.777 C 72.800 272.224,73.015 272.400,76.014 272.400 L 77.962 272.400 78.081 274.900 L 78.200 277.400 80.500 277.520 L 82.800 277.640 82.800 279.777 C 82.800 282.224,83.015 282.400,86.014 282.400 L 87.962 282.400 88.081 284.900 L 88.200 287.400 90.500 287.520 L 92.800 287.640 92.800 289.777 C 92.800 292.224,93.015 292.400,96.014 292.400 L 97.962 292.400 98.081 294.900 L 98.200 297.400 100.500 297.520 L 102.800 297.640 102.800 299.777 C 102.800 302.224,103.015 302.400,106.014 302.400 L 107.962 302.400 108.081 304.900 L 108.200 307.400 110.500 307.520 L 112.800 307.640 112.800 309.777 C 112.800 312.224,113.015 312.400,116.014 312.400 L 117.962 312.400 118.081 314.900 L 118.200 317.400 120.500 317.520 L 122.800 317.640 122.800 319.777 C 122.800 322.224,123.015 322.400,126.014 322.400 L 127.962 322.400 128.081 324.900 L 128.200 327.400 130.500 327.520 L 132.800 327.640 132.800 329.777 C 132.800 332.224,133.015 332.400,136.014 332.400 L 137.962 332.400 138.081 334.900 L 138.200 337.400 140.500 337.520 L 142.800 337.640 142.800 339.777 C 142.800 342.224,143.015 342.400,146.014 342.400 L 147.962 342.400 148.081 344.900 L 148.200 347.400 150.500 347.520 L 152.800 347.640 152.800 349.777 C 152.800 352.224,153.015 352.400,156.014 352.400 L 157.962 352.400 158.081 354.900 L 158.200 357.400 160.500 357.520 L 162.800 357.640 162.800 359.812 C 162.800 362.442,162.901 362.487,168.400 362.317 L 172.200 362.200 172.301 307.301 L 172.403 252.401 282.301 252.301 L 392.200 252.200 392.301 200.100 L 392.403 148.000 282.401 148.000 L 172.400 148.000 172.400 93.000 L 172.400 38.000 167.600 38.000 L 162.800 38.000 162.800 40.400 M158.835 66.035 C 160.869 68.069,160.800 66.408,160.800 113.587 C 160.800 157.067,160.810 157.610,161.600 158.400 C 162.396 159.196,162.933 159.200,270.146 159.200 L 377.892 159.200 379.046 160.086 C 379.681 160.574,380.332 161.159,380.494 161.386 C 380.656 161.614,380.791 179.091,380.794 200.225 L 380.800 238.650 379.678 239.725 L 378.556 240.800 270.567 240.800 L 162.578 240.800 161.789 241.700 C 161.016 242.581,160.996 243.529,160.800 287.200 L 160.600 331.800 159.667 333.300 C 158.386 335.361,155.307 334.933,155.213 332.681 C 155.196 332.271,153.319 330.587,151.900 329.708 C 151.295 329.334,150.795 328.841,150.790 328.614 C 150.776 328.049,147.675 324.800,147.150 324.800 C 146.694 324.800,145.235 323.203,145.213 322.681 C 145.196 322.271,143.319 320.587,141.900 319.708 C 141.295 319.334,140.795 318.841,140.790 318.614 C 140.776 318.049,137.675 314.800,137.150 314.800 C 136.694 314.800,135.235 313.203,135.213 312.681 C 135.196 312.271,133.319 310.587,131.900 309.708 C 131.295 309.334,130.795 308.841,130.790 308.614 C 130.776 308.049,127.675 304.800,127.150 304.800 C 126.694 304.800,125.235 303.203,125.213 302.681 C 125.196 302.271,123.319 300.587,121.900 299.708 C 121.295 299.334,120.795 298.841,120.790 298.614 C 120.776 298.049,117.675 294.800,117.150 294.800 C 116.694 294.800,115.235 293.203,115.213 292.681 C 115.196 292.271,113.319 290.587,111.900 289.708 C 111.295 289.334,110.795 288.841,110.790 288.614 C 110.776 288.049,107.675 284.800,107.150 284.800 C 106.694 284.800,105.235 283.203,105.213 282.681 C 105.196 282.271,103.319 280.587,101.900 279.708 C 101.295 279.334,100.795 278.841,100.790 278.614 C 100.776 278.049,97.675 274.800,97.150 274.800 C 96.694 274.800,95.235 273.203,95.213 272.681 C 95.196 272.271,93.319 270.587,91.900 269.708 C 91.295 269.334,90.795 268.841,90.790 268.614 C 90.776 268.049,87.675 264.800,87.150 264.800 C 86.694 264.800,85.235 263.203,85.213 262.681 C 85.196 262.271,83.319 260.587,81.900 259.708 C 81.295 259.334,80.795 258.841,80.790 258.614 C 80.776 258.049,77.675 254.800,77.150 254.800 C 76.694 254.800,75.235 253.203,75.213 252.681 C 75.196 252.271,73.319 250.587,71.900 249.708 C 71.295 249.334,70.795 248.841,70.790 248.614 C 70.776 248.049,67.675 244.800,67.150 244.800 C 66.694 244.800,65.235 243.203,65.213 242.681 C 65.196 242.271,63.319 240.587,61.900 239.708 C 61.295 239.334,60.795 238.841,60.790 238.614 C 60.776 238.049,57.675 234.800,57.150 234.800 C 56.694 234.800,55.235 233.203,55.213 232.681 C 55.196 232.271,53.319 230.587,51.900 229.708 C 51.295 229.334,50.795 228.841,50.790 228.614 C 50.776 228.049,47.675 224.800,47.150 224.800 C 46.694 224.800,45.235 223.203,45.213 222.681 C 45.196 222.271,43.319 220.587,41.900 219.708 C 41.295 219.334,40.795 218.841,40.790 218.614 C 40.776 218.049,37.675 214.800,37.150 214.800 C 36.694 214.800,35.235 213.203,35.213 212.681 C 35.196 212.271,33.319 210.587,31.900 209.708 C 31.295 209.334,30.795 208.841,30.790 208.614 C 30.776 208.049,27.675 204.800,27.150 204.800 C 25.054 204.800,24.325 197.997,26.240 196.314 C 26.812 195.811,28.084 194.590,29.066 193.600 C 31.226 191.423,31.573 191.077,33.795 188.869 C 35.972 186.705,36.674 186.004,38.995 183.669 C 41.284 181.366,41.366 181.284,43.669 178.995 C 46.004 176.674,46.705 175.972,48.869 173.795 C 51.016 171.634,51.351 171.299,53.669 168.995 C 56.004 166.674,56.705 165.972,58.869 163.795 C 61.029 161.621,61.621 161.029,63.795 158.869 C 65.972 156.705,66.674 156.004,68.995 153.669 C 71.299 151.351,71.634 151.016,73.795 148.869 C 75.974 146.703,76.703 145.974,78.869 143.795 C 81.029 141.621,81.621 141.029,83.795 138.869 C 85.972 136.705,86.674 136.004,88.995 133.669 C 91.284 131.366,91.366 131.284,93.669 128.995 C 96.002 126.676,96.676 126.002,98.995 123.669 C 101.299 121.351,101.634 121.016,103.795 118.869 C 104.753 117.917,105.897 116.777,106.337 116.337 C 106.777 115.897,107.973 114.697,108.995 113.669 C 110.017 112.641,111.123 111.530,111.453 111.200 C 111.783 110.870,112.837 109.821,113.795 108.869 C 115.972 106.705,116.674 106.004,118.995 103.669 C 121.284 101.366,121.366 101.284,123.669 98.995 C 126.002 96.676,126.676 96.002,128.995 93.669 C 131.292 91.358,131.499 91.151,133.732 88.932 C 135.993 86.685,136.824 85.854,139.064 83.600 C 141.283 81.367,141.617 81.033,143.864 78.800 C 146.122 76.556,146.695 75.983,148.932 73.732 C 151.207 71.443,151.425 71.224,153.600 69.066 C 154.590 68.084,155.811 66.812,156.314 66.240 C 157.420 64.982,157.755 64.955,158.835 66.035 " stroke="none" fill="#468bc5" fill-rule="evenodd"></path><path id="path2" d="M156.314 66.240 C 155.811 66.812,154.590 68.084,153.600 69.066 C 151.425 71.224,151.207 71.443,148.932 73.732 C 146.695 75.983,146.122 76.556,143.864 78.800 C 142.868 79.790,141.783 80.870,141.453 81.200 C 141.123 81.530,140.048 82.610,139.064 83.600 C 136.824 85.854,135.993 86.685,133.732 88.932 C 131.499 91.151,131.292 91.358,128.995 93.669 C 126.676 96.002,126.002 96.676,123.669 98.995 C 122.641 100.017,121.587 101.066,121.326 101.326 C 121.066 101.587,120.017 102.641,118.995 103.669 C 117.973 104.697,116.777 105.897,116.337 106.337 C 115.897 106.777,114.753 107.917,113.795 108.869 C 112.837 109.821,111.783 110.870,111.453 111.200 C 111.123 111.530,110.017 112.641,108.995 113.669 C 107.973 114.697,106.777 115.897,106.337 116.337 C 105.897 116.777,104.753 117.917,103.795 118.869 C 101.634 121.016,101.299 121.351,98.995 123.669 C 96.676 126.002,96.002 126.676,93.669 128.995 C 91.366 131.284,91.284 131.366,88.995 133.669 C 86.674 136.004,85.972 136.705,83.795 138.869 C 81.621 141.029,81.029 141.621,78.869 143.795 C 76.703 145.974,75.974 146.703,73.795 148.869 C 71.634 151.016,71.299 151.351,68.995 153.669 C 66.674 156.004,65.972 156.705,63.795 158.869 C 61.621 161.029,61.029 161.621,58.869 163.795 C 56.705 165.972,56.004 166.674,53.669 168.995 C 51.351 171.299,51.016 171.634,48.869 173.795 C 46.705 175.972,46.004 176.674,43.669 178.995 C 41.366 181.284,41.284 181.366,38.995 183.669 C 36.674 186.004,35.972 186.705,33.795 188.869 C 31.573 191.077,31.226 191.423,29.066 193.600 C 28.084 194.590,26.812 195.811,26.240 196.314 C 24.325 197.997,25.054 204.800,27.150 204.800 C 27.675 204.800,30.776 208.049,30.790 208.614 C 30.795 208.841,31.295 209.334,31.900 209.708 C 33.319 210.587,35.196 212.271,35.213 212.681 C 35.235 213.203,36.694 214.800,37.150 214.800 C 37.675 214.800,40.776 218.049,40.790 218.614 C 40.795 218.841,41.295 219.334,41.900 219.708 C 43.319 220.587,45.196 222.271,45.213 222.681 C 45.235 223.203,46.694 224.800,47.150 224.800 C 47.675 224.800,50.776 228.049,50.790 228.614 C 50.795 228.841,51.295 229.334,51.900 229.708 C 53.319 230.587,55.196 232.271,55.213 232.681 C 55.235 233.203,56.694 234.800,57.150 234.800 C 57.675 234.800,60.776 238.049,60.790 238.614 C 60.795 238.841,61.295 239.334,61.900 239.708 C 63.319 240.587,65.196 242.271,65.213 242.681 C 65.235 243.203,66.694 244.800,67.150 244.800 C 67.675 244.800,70.776 248.049,70.790 248.614 C 70.795 248.841,71.295 249.334,71.900 249.708 C 73.319 250.587,75.196 252.271,75.213 252.681 C 75.235 253.203,76.694 254.800,77.150 254.800 C 77.675 254.800,80.776 258.049,80.790 258.614 C 80.795 258.841,81.295 259.334,81.900 259.708 C 83.319 260.587,85.196 262.271,85.213 262.681 C 85.235 263.203,86.694 264.800,87.150 264.800 C 87.675 264.800,90.776 268.049,90.790 268.614 C 90.795 268.841,91.295 269.334,91.900 269.708 C 93.319 270.587,95.196 272.271,95.213 272.681 C 95.235 273.203,96.694 274.800,97.150 274.800 C 97.675 274.800,100.776 278.049,100.790 278.614 C 100.795 278.841,101.295 279.334,101.900 279.708 C 103.319 280.587,105.196 282.271,105.213 282.681 C 105.235 283.203,106.694 284.800,107.150 284.800 C 107.675 284.800,110.776 288.049,110.790 288.614 C 110.795 288.841,111.295 289.334,111.900 289.708 C 113.319 290.587,115.196 292.271,115.213 292.681 C 115.235 293.203,116.694 294.800,117.150 294.800 C 117.675 294.800,120.776 298.049,120.790 298.614 C 120.795 298.841,121.295 299.334,121.900 299.708 C 123.319 300.587,125.196 302.271,125.213 302.681 C 125.235 303.203,126.694 304.800,127.150 304.800 C 127.675 304.800,130.776 308.049,130.790 308.614 C 130.795 308.841,131.295 309.334,131.900 309.708 C 133.319 310.587,135.196 312.271,135.213 312.681 C 135.235 313.203,136.694 314.800,137.150 314.800 C 137.675 314.800,140.776 318.049,140.790 318.614 C 140.795 318.841,141.295 319.334,141.900 319.708 C 143.319 320.587,145.196 322.271,145.213 322.681 C 145.235 323.203,146.694 324.800,147.150 324.800 C 147.675 324.800,150.776 328.049,150.790 328.614 C 150.795 328.841,151.295 329.334,151.900 329.708 C 153.319 330.587,155.196 332.271,155.213 332.681 C 155.307 334.933,158.386 335.361,159.667 333.300 L 160.600 331.800 160.800 287.200 C 160.996 243.529,161.016 242.581,161.789 241.700 L 162.578 240.800 270.567 240.800 L 378.556 240.800 379.678 239.725 L 380.800 238.650 380.794 200.225 C 380.791 179.091,380.656 161.614,380.494 161.386 C 380.332 161.159,379.681 160.574,379.046 160.086 L 377.892 159.200 270.146 159.200 C 162.933 159.200,162.396 159.196,161.600 158.400 C 160.810 157.610,160.800 157.067,160.800 113.587 C 160.800 66.408,160.869 68.069,158.835 66.035 C 157.755 64.955,157.420 64.982,156.314 66.240 M158.360 114.754 C 158.403 160.093,158.388 159.753,160.362 161.094 C 161.346 161.763,167.081 161.810,269.800 162.000 L 378.200 162.200 378.200 200.200 L 378.200 238.200 269.800 238.400 C 180.596 238.565,161.235 238.694,160.466 239.132 C 158.342 240.343,158.403 239.007,158.360 285.287 C 158.338 308.889,158.203 328.610,158.060 329.111 L 157.800 330.022 156.500 328.834 C 155.785 328.180,155.200 327.498,155.200 327.318 C 155.200 327.138,154.642 326.543,153.959 325.996 C 152.556 324.869,151.083 323.448,149.565 321.755 C 148.995 321.120,147.780 319.938,146.865 319.129 C 145.949 318.320,145.200 317.508,145.200 317.325 C 145.200 317.141,144.642 316.543,143.959 315.996 C 142.556 314.869,141.083 313.448,139.565 311.755 C 138.995 311.120,137.780 309.938,136.865 309.129 C 135.949 308.320,135.200 307.508,135.200 307.325 C 135.200 307.141,134.642 306.543,133.959 305.996 C 132.556 304.869,131.083 303.448,129.565 301.755 C 128.995 301.120,127.780 299.938,126.865 299.129 C 125.949 298.320,125.200 297.508,125.200 297.325 C 125.200 297.141,124.642 296.543,123.959 295.996 C 122.556 294.869,121.083 293.448,119.565 291.755 C 118.995 291.120,117.780 289.938,116.865 289.129 C 115.949 288.320,115.200 287.508,115.200 287.325 C 115.200 287.141,114.642 286.543,113.959 285.996 C 112.556 284.869,111.083 283.448,109.565 281.755 C 108.995 281.120,107.780 279.938,106.865 279.129 C 105.949 278.320,105.200 277.508,105.200 277.325 C 105.200 277.141,104.642 276.543,103.959 275.996 C 102.556 274.869,101.083 273.448,99.565 271.755 C 98.995 271.120,97.780 269.938,96.865 269.129 C 95.949 268.320,95.200 267.508,95.200 267.325 C 95.200 267.141,94.642 266.543,93.959 265.996 C 92.556 264.869,91.083 263.448,89.565 261.755 C 88.995 261.120,87.780 259.938,86.865 259.129 C 85.949 258.320,85.200 257.508,85.200 257.325 C 85.200 257.141,84.642 256.543,83.959 255.996 C 82.556 254.869,81.083 253.448,79.565 251.755 C 78.995 251.120,77.780 249.938,76.865 249.129 C 75.949 248.320,75.200 247.508,75.200 247.325 C 75.200 247.141,74.642 246.543,73.959 245.996 C 72.556 244.869,71.083 243.448,69.565 241.755 C 68.995 241.120,67.780 239.938,66.865 239.129 C 65.949 238.320,65.200 237.508,65.200 237.325 C 65.200 237.141,64.642 236.543,63.959 235.996 C 62.556 234.869,61.083 233.448,59.565 231.755 C 58.995 231.120,57.780 229.938,56.865 229.129 C 55.949 228.320,55.200 227.508,55.200 227.325 C 55.200 227.141,54.642 226.543,53.959 225.996 C 52.556 224.869,51.083 223.448,49.565 221.755 C 48.995 221.120,47.780 219.938,46.865 219.129 C 45.949 218.320,45.200 217.508,45.200 217.325 C 45.200 217.141,44.642 216.543,43.959 215.996 C 42.556 214.869,41.083 213.448,39.565 211.755 C 38.995 211.120,37.780 209.938,36.865 209.129 C 35.949 208.320,35.200 207.508,35.200 207.325 C 35.200 207.141,34.642 206.543,33.959 205.996 C 30.642 203.333,30.400 202.934,30.400 200.123 L 30.400 197.508 32.448 195.554 C 33.575 194.479,34.655 193.600,34.848 193.600 C 35.042 193.600,35.200 193.422,35.200 193.204 C 35.200 192.711,44.343 183.600,44.838 183.600 C 45.037 183.600,45.200 183.422,45.200 183.204 C 45.200 182.711,54.343 173.600,54.838 173.600 C 55.037 173.600,55.200 173.422,55.200 173.204 C 55.200 172.711,64.343 163.600,64.838 163.600 C 65.037 163.600,65.200 163.422,65.200 163.204 C 65.200 162.711,74.343 153.600,74.838 153.600 C 75.037 153.600,75.200 153.422,75.200 153.204 C 75.200 152.711,84.343 143.600,84.838 143.600 C 85.037 143.600,85.200 143.422,85.200 143.204 C 85.200 142.711,94.343 133.600,94.838 133.600 C 95.037 133.600,95.200 133.422,95.200 133.204 C 95.200 132.711,104.343 123.600,104.838 123.600 C 105.037 123.600,105.200 123.422,105.200 123.204 C 105.200 122.711,114.343 113.600,114.838 113.600 C 115.037 113.600,115.200 113.422,115.200 113.204 C 115.200 112.711,124.343 103.600,124.838 103.600 C 125.037 103.600,125.200 103.422,125.200 103.204 C 125.200 102.711,134.343 93.600,134.838 93.600 C 135.037 93.600,135.200 93.422,135.200 93.204 C 135.200 92.711,144.343 83.600,144.838 83.600 C 145.037 83.600,145.200 83.422,145.200 83.204 C 145.200 82.711,154.343 73.600,154.838 73.600 C 155.037 73.600,155.200 73.370,155.200 73.089 C 155.200 72.808,155.783 72.067,156.495 71.442 L 157.789 70.306 158.055 71.253 C 158.201 71.774,158.338 91.349,158.360 114.754 " stroke="none" fill="#acccec" fill-rule="evenodd"></path><path id="path3" d="" stroke="none" fill="#e0e4e0" fill-rule="evenodd"></path><path id="path4" d="" stroke="none" fill="#e0e4e0" fill-rule="evenodd"></path></g></svg>