<svg id="svg" xmlns="http://www.w3.org/2000/svg" xmlns:xlink="http://www.w3.org/1999/xlink" width="400" height="400" viewBox="0, 0, 400,400"><g id="svgg"><path id="path0" d="M105.200 103.973 C 105.200 104.178,104.840 104.460,104.400 104.600 C 103.492 104.888,103.095 156.800,104.000 156.800 C 104.220 156.800,104.400 157.070,104.400 157.400 C 104.400 157.730,104.580 158.000,104.800 158.000 C 105.020 158.000,105.200 158.270,105.200 158.600 C 105.200 159.127,108.294 159.200,130.647 159.200 L 156.094 159.200 157.647 157.647 L 159.200 156.094 159.200 130.479 L 159.200 104.864 158.000 104.600 C 157.340 104.455,156.800 104.171,156.800 103.968 C 156.800 103.748,146.449 103.600,131.000 103.600 C 115.309 103.600,105.200 103.746,105.200 103.973 M173.600 103.968 C 173.600 104.171,173.060 104.455,172.400 104.600 L 171.200 104.864 171.200 130.432 L 171.200 156.001 172.848 157.600 L 174.496 159.200 200.295 159.200 L 226.094 159.200 227.647 157.647 L 229.200 156.094 229.200 130.479 L 229.200 104.864 228.000 104.600 C 227.340 104.455,226.800 104.171,226.800 103.968 C 226.800 103.748,216.136 103.600,200.200 103.600 C 184.264 103.600,173.600 103.748,173.600 103.968 M243.600 103.968 C 243.600 104.171,243.060 104.455,242.400 104.600 L 241.200 104.864 241.200 130.432 L 241.200 156.001 242.848 157.600 L 244.496 159.200 270.295 159.200 L 296.094 159.200 297.647 157.647 L 299.200 156.094 299.200 130.479 L 299.200 104.864 298.000 104.600 C 297.340 104.455,296.800 104.171,296.800 103.968 C 296.800 103.748,286.136 103.600,270.200 103.600 C 254.264 103.600,243.600 103.748,243.600 103.968 M313.600 103.968 C 313.600 104.171,313.060 104.455,312.400 104.600 L 311.200 104.864 311.200 130.432 L 311.200 156.001 312.848 157.600 L 314.496 159.200 340.048 159.200 C 361.826 159.200,365.600 159.116,365.600 158.633 C 365.600 158.322,365.825 157.992,366.100 157.900 C 367.087 157.571,367.014 105.259,366.025 104.338 C 365.141 103.514,313.600 103.151,313.600 103.968 M105.200 171.800 C 105.200 172.130,105.020 172.400,104.800 172.400 C 104.580 172.400,104.400 172.670,104.400 173.000 C 104.400 173.330,104.220 173.600,104.000 173.600 C 103.737 173.600,103.600 182.733,103.600 200.200 C 103.600 217.667,103.737 226.800,104.000 226.800 C 104.220 226.800,104.400 227.070,104.400 227.400 C 104.400 227.730,104.580 228.000,104.800 228.000 C 105.020 228.000,105.200 228.270,105.200 228.600 C 105.200 229.127,108.294 229.200,130.647 229.200 L 156.094 229.200 157.647 227.647 L 159.200 226.094 159.200 200.295 L 159.200 174.496 157.600 172.848 L 156.001 171.200 130.600 171.200 C 108.289 171.200,105.200 171.273,105.200 171.800 M172.900 172.992 L 171.200 174.744 171.200 200.372 L 171.200 226.001 172.848 227.600 L 174.496 229.200 200.295 229.200 L 226.094 229.200 227.647 227.647 L 229.200 226.094 229.200 200.295 L 229.200 174.496 227.600 172.848 L 226.001 171.200 200.300 171.220 L 174.600 171.241 172.900 172.992 M242.900 172.992 L 241.200 174.744 241.200 200.372 L 241.200 226.001 242.848 227.600 L 244.496 229.200 270.295 229.200 L 296.094 229.200 297.647 227.647 L 299.200 226.094 299.200 200.295 L 299.200 174.496 297.600 172.848 L 296.001 171.200 270.300 171.220 L 244.600 171.241 242.900 172.992 M312.900 172.992 L 311.200 174.744 311.200 200.372 L 311.200 226.001 312.848 227.600 L 314.496 229.200 340.048 229.200 C 361.826 229.200,365.600 229.116,365.600 228.633 C 365.600 228.322,365.825 227.992,366.100 227.900 C 366.494 227.769,366.600 221.871,366.600 200.200 C 366.600 178.529,366.494 172.631,366.100 172.500 C 365.825 172.408,365.600 172.078,365.600 171.767 C 365.600 171.283,361.843 171.203,340.100 171.220 L 314.600 171.241 312.900 172.992 M105.200 241.800 C 105.200 242.130,105.020 242.400,104.800 242.400 C 104.580 242.400,104.400 242.670,104.400 243.000 C 104.400 243.330,104.220 243.600,104.000 243.600 C 103.737 243.600,103.600 252.733,103.600 270.200 C 103.600 287.667,103.737 296.800,104.000 296.800 C 104.220 296.800,104.400 297.070,104.400 297.400 C 104.400 297.730,104.580 298.000,104.800 298.000 C 105.020 298.000,105.200 298.270,105.200 298.600 C 105.200 299.127,108.294 299.200,130.647 299.200 L 156.094 299.200 157.647 297.647 L 159.200 296.094 159.200 270.295 L 159.200 244.496 157.600 242.848 L 156.001 241.200 130.600 241.200 C 108.289 241.200,105.200 241.273,105.200 241.800 M172.900 242.992 L 171.200 244.744 171.200 270.372 L 171.200 296.001 172.848 297.600 L 174.496 299.200 200.295 299.200 L 226.094 299.200 227.647 297.647 L 229.200 296.094 229.200 270.295 L 229.200 244.496 227.600 242.848 L 226.001 241.200 200.300 241.220 L 174.600 241.241 172.900 242.992 M242.900 242.992 L 241.200 244.744 241.200 270.372 L 241.200 296.001 242.848 297.600 L 244.496 299.200 270.295 299.200 L 296.094 299.200 297.647 297.647 L 299.200 296.094 299.200 270.295 L 299.200 244.496 297.600 242.848 L 296.001 241.200 270.300 241.220 L 244.600 241.241 242.900 242.992 M312.900 242.992 L 311.200 244.744 311.200 270.372 L 311.200 296.001 312.848 297.600 L 314.496 299.200 340.048 299.200 C 361.826 299.200,365.600 299.116,365.600 298.633 C 365.600 298.322,365.825 297.992,366.100 297.900 C 366.494 297.769,366.600 291.871,366.600 270.200 C 366.600 248.529,366.494 242.631,366.100 242.500 C 365.825 242.408,365.600 242.078,365.600 241.767 C 365.600 241.283,361.843 241.203,340.100 241.220 L 314.600 241.241 312.900 242.992 M105.200 311.800 C 105.200 312.130,105.020 312.400,104.800 312.400 C 104.580 312.400,104.400 312.670,104.400 313.000 C 104.400 313.330,104.220 313.600,104.000 313.600 C 103.737 313.600,103.600 322.484,103.600 339.453 L 103.600 365.306 104.471 366.061 C 105.573 367.017,157.582 367.055,157.900 366.100 C 157.992 365.825,158.322 365.600,158.633 365.600 C 159.116 365.600,159.200 361.826,159.200 340.048 L 159.200 314.496 157.600 312.848 L 156.001 311.200 130.600 311.200 C 108.289 311.200,105.200 311.273,105.200 311.800 M172.900 312.992 L 171.200 314.744 171.200 340.172 C 171.200 361.843,171.284 365.600,171.767 365.600 C 172.078 365.600,172.408 365.825,172.500 366.100 C 172.631 366.494,178.529 366.600,200.200 366.600 C 221.871 366.600,227.769 366.494,227.900 366.100 C 227.992 365.825,228.322 365.600,228.633 365.600 C 229.116 365.600,229.200 361.826,229.200 340.048 L 229.200 314.496 227.600 312.848 L 226.001 311.200 200.300 311.220 L 174.600 311.241 172.900 312.992 M242.900 312.992 L 241.200 314.744 241.200 340.172 C 241.200 361.843,241.284 365.600,241.767 365.600 C 242.078 365.600,242.408 365.825,242.500 366.100 C 242.631 366.494,248.529 366.600,270.200 366.600 C 291.871 366.600,297.769 366.494,297.900 366.100 C 297.992 365.825,298.322 365.600,298.633 365.600 C 299.116 365.600,299.200 361.826,299.200 340.048 L 299.200 314.496 297.600 312.848 L 296.001 311.200 270.300 311.220 L 244.600 311.241 242.900 312.992 M312.900 312.992 L 311.200 314.744 311.200 340.172 C 311.200 361.843,311.284 365.600,311.767 365.600 C 312.078 365.600,312.408 365.825,312.500 366.100 C 312.787 366.960,365.312 367.030,366.171 366.171 C 367.030 365.312,366.960 312.787,366.100 312.500 C 365.825 312.408,365.600 312.078,365.600 311.767 C 365.600 311.283,361.843 311.203,340.100 311.220 L 314.600 311.241 312.900 312.992 " stroke="none" fill="#fcfcfc" fill-rule="evenodd"></path><path id="path1" d="M35.200 29.600 C 35.200 29.820,34.939 30.000,34.619 30.000 C 33.981 30.000,30.000 33.808,30.000 34.419 C 30.000 34.629,29.820 34.800,29.600 34.800 C 29.338 34.800,29.200 43.533,29.200 60.200 C 29.200 76.867,29.338 85.600,29.600 85.600 C 29.820 85.600,30.000 85.794,30.000 86.032 C 30.000 86.269,30.795 87.258,31.766 88.229 C 32.737 89.200,33.607 90.221,33.699 90.497 C 33.831 90.894,39.382 91.000,60.033 91.000 L 86.200 91.000 88.600 88.600 L 91.000 86.200 91.000 60.033 C 91.000 39.382,90.894 33.831,90.497 33.699 C 90.221 33.607,89.200 32.737,88.229 31.766 C 87.258 30.795,86.269 30.000,86.032 30.000 C 85.794 30.000,85.600 29.820,85.600 29.600 C 85.600 29.338,76.933 29.200,60.400 29.200 C 43.867 29.200,35.200 29.338,35.200 29.600 M105.200 29.600 C 105.200 29.820,104.939 30.000,104.619 30.000 C 103.981 30.000,100.000 33.808,100.000 34.419 C 100.000 34.629,99.820 34.800,99.600 34.800 C 99.338 34.800,99.200 43.533,99.200 60.200 C 99.200 76.867,99.338 85.600,99.600 85.600 C 99.820 85.600,100.000 85.794,100.000 86.032 C 100.000 86.269,100.795 87.258,101.766 88.229 C 102.737 89.200,103.607 90.221,103.699 90.497 C 103.831 90.894,109.382 91.000,130.033 91.000 L 156.200 91.000 158.600 88.600 L 161.000 86.200 161.000 60.033 C 161.000 39.382,160.894 33.831,160.497 33.699 C 160.221 33.607,159.200 32.737,158.229 31.766 C 157.258 30.795,156.269 30.000,156.032 30.000 C 155.794 30.000,155.600 29.820,155.600 29.600 C 155.600 29.338,146.933 29.200,130.400 29.200 C 113.867 29.200,105.200 29.338,105.200 29.600 M175.200 29.600 C 175.200 29.820,174.939 30.000,174.619 30.000 C 173.981 30.000,170.000 33.808,170.000 34.419 C 170.000 34.629,169.820 34.800,169.600 34.800 C 169.338 34.800,169.200 43.533,169.200 60.200 C 169.200 76.867,169.338 85.600,169.600 85.600 C 169.820 85.600,170.000 85.794,170.000 86.032 C 170.000 86.269,170.795 87.258,171.766 88.229 C 172.737 89.200,173.607 90.221,173.699 90.497 C 173.831 90.894,179.382 91.000,200.033 91.000 L 226.200 91.000 228.600 88.600 L 231.000 86.200 231.000 60.033 C 231.000 39.382,230.894 33.831,230.497 33.699 C 230.221 33.607,229.200 32.737,228.229 31.766 C 227.258 30.795,226.269 30.000,226.032 30.000 C 225.794 30.000,225.600 29.820,225.600 29.600 C 225.600 29.338,216.933 29.200,200.400 29.200 C 183.867 29.200,175.200 29.338,175.200 29.600 M244.800 29.600 C 244.800 29.820,244.629 30.000,244.419 30.000 C 243.923 30.000,240.000 33.923,240.000 34.419 C 240.000 34.629,239.820 34.800,239.600 34.800 C 239.338 34.800,239.200 43.533,239.200 60.200 C 239.200 76.867,239.338 85.600,239.600 85.600 C 239.820 85.600,240.000 85.794,240.000 86.032 C 240.000 86.269,240.795 87.258,241.766 88.229 C 242.737 89.200,243.607 90.221,243.699 90.497 C 243.831 90.894,249.382 91.000,270.033 91.000 L 296.200 91.000 298.600 88.600 L 301.000 86.200 301.000 60.033 C 301.000 39.382,300.894 33.831,300.497 33.699 C 300.221 33.607,299.200 32.737,298.229 31.766 C 297.258 30.795,296.269 30.000,296.032 30.000 C 295.794 30.000,295.600 29.820,295.600 29.600 C 295.600 29.338,286.867 29.200,270.200 29.200 C 253.533 29.200,244.800 29.338,244.800 29.600 M315.200 29.600 C 315.200 29.820,314.939 30.000,314.619 30.000 C 313.981 30.000,310.000 33.808,310.000 34.419 C 310.000 34.629,309.820 34.800,309.600 34.800 C 309.338 34.800,309.200 43.533,309.200 60.200 C 309.200 76.867,309.338 85.600,309.600 85.600 C 309.820 85.600,310.000 85.794,310.000 86.032 C 310.000 86.269,310.795 87.258,311.766 88.229 C 312.737 89.200,313.607 90.221,313.699 90.497 C 313.831 90.894,319.382 91.000,340.033 91.000 L 366.200 91.000 368.600 88.600 L 371.000 86.200 371.000 60.033 C 371.000 39.382,370.894 33.831,370.497 33.699 C 370.221 33.607,369.200 32.737,368.229 31.766 C 367.258 30.795,366.269 30.000,366.032 30.000 C 365.794 30.000,365.600 29.820,365.600 29.600 C 365.600 29.338,356.933 29.200,340.400 29.200 C 323.867 29.200,315.200 29.338,315.200 29.600 M105.200 98.400 C 105.200 98.620,104.763 98.800,104.229 98.800 C 103.694 98.800,102.987 99.070,102.657 99.400 C 102.327 99.730,101.954 100.000,101.829 100.000 C 101.531 100.000,100.000 101.531,100.000 101.829 C 100.000 101.954,99.730 102.327,99.400 102.657 C 99.070 102.987,98.800 103.604,98.800 104.029 C 98.800 104.453,98.620 104.800,98.400 104.800 C 98.137 104.800,98.000 113.667,98.000 130.600 C 98.000 144.790,98.154 156.400,98.343 156.400 C 98.531 156.400,98.806 157.705,98.954 159.300 C 99.101 160.895,99.397 162.260,99.611 162.333 C 99.825 162.407,100.000 162.902,100.000 163.433 C 100.000 163.965,100.180 164.400,100.400 164.400 C 100.620 164.400,100.800 164.850,100.800 165.400 C 100.800 165.950,100.620 166.400,100.400 166.400 C 100.180 166.400,100.000 166.760,100.000 167.200 C 100.000 167.640,99.832 168.000,99.627 168.000 C 99.423 168.000,99.129 169.440,98.976 171.200 C 98.822 172.960,98.540 174.400,98.348 174.400 C 98.154 174.400,98.000 185.903,98.000 200.400 C 98.000 214.700,98.154 226.400,98.343 226.400 C 98.531 226.400,98.806 227.705,98.954 229.300 C 99.101 230.895,99.397 232.260,99.611 232.333 C 99.825 232.407,100.000 232.902,100.000 233.433 C 100.000 233.965,100.180 234.400,100.400 234.400 C 100.620 234.400,100.800 234.850,100.800 235.400 C 100.800 235.950,100.620 236.400,100.400 236.400 C 100.180 236.400,100.000 236.760,100.000 237.200 C 100.000 237.640,99.832 238.000,99.627 238.000 C 99.423 238.000,99.129 239.440,98.976 241.200 C 98.822 242.960,98.540 244.400,98.348 244.400 C 98.154 244.400,98.000 255.903,98.000 270.400 C 98.000 284.700,98.154 296.400,98.343 296.400 C 98.531 296.400,98.806 297.705,98.954 299.300 C 99.101 300.895,99.397 302.260,99.611 302.333 C 99.825 302.407,100.000 302.902,100.000 303.433 C 100.000 303.965,100.180 304.400,100.400 304.400 C 100.620 304.400,100.800 304.850,100.800 305.400 C 100.800 305.950,100.620 306.400,100.400 306.400 C 100.180 306.400,100.000 306.760,100.000 307.200 C 100.000 307.640,99.832 308.000,99.627 308.000 C 99.423 308.000,99.129 309.440,98.976 311.200 C 98.822 312.960,98.540 314.400,98.348 314.400 C 98.154 314.400,98.000 325.730,98.000 340.000 C 98.000 356.800,98.138 365.600,98.400 365.600 C 98.620 365.600,98.800 366.056,98.800 366.613 C 98.800 367.169,99.070 367.729,99.400 367.855 C 99.730 367.982,100.000 368.336,100.000 368.643 C 100.000 368.949,100.168 369.200,100.373 369.200 C 100.578 369.200,100.860 369.560,101.000 370.000 C 101.140 370.440,101.499 370.800,101.798 370.800 C 102.098 370.800,102.658 371.115,103.043 371.500 C 103.910 372.366,159.371 372.609,159.915 371.748 C 160.072 371.500,161.145 371.168,162.300 371.011 C 163.455 370.854,164.400 370.562,164.400 370.362 C 164.400 369.870,166.299 369.899,166.467 370.395 C 166.540 370.611,167.500 370.909,168.600 371.056 C 169.700 371.203,170.728 371.520,170.885 371.762 C 171.297 372.394,229.514 372.382,229.915 371.748 C 230.072 371.500,231.145 371.168,232.300 371.011 C 233.455 370.854,234.400 370.562,234.400 370.362 C 234.400 369.870,236.299 369.899,236.467 370.395 C 236.540 370.611,237.500 370.909,238.600 371.056 C 239.700 371.203,240.728 371.520,240.885 371.762 C 241.297 372.394,299.514 372.382,299.915 371.748 C 300.072 371.500,301.145 371.168,302.300 371.011 C 303.455 370.854,304.400 370.562,304.400 370.362 C 304.400 369.870,306.299 369.899,306.467 370.395 C 306.540 370.611,307.500 370.909,308.600 371.056 C 309.700 371.203,310.728 371.520,310.885 371.762 C 311.438 372.612,367.169 372.355,367.648 371.500 C 367.863 371.115,368.219 370.800,368.438 370.800 C 368.955 370.800,370.800 368.955,370.800 368.438 C 370.800 368.219,371.115 367.863,371.500 367.648 C 372.355 367.169,372.612 311.438,371.762 310.885 C 371.520 310.728,371.203 309.700,371.056 308.600 C 370.909 307.500,370.611 306.540,370.395 306.467 C 369.899 306.299,369.870 304.400,370.362 304.400 C 370.562 304.400,370.854 303.455,371.011 302.300 C 371.168 301.145,371.500 300.072,371.748 299.915 C 372.382 299.514,372.394 241.297,371.762 240.885 C 371.520 240.728,371.203 239.700,371.056 238.600 C 370.909 237.500,370.611 236.540,370.395 236.467 C 369.899 236.299,369.870 234.400,370.362 234.400 C 370.562 234.400,370.854 233.455,371.011 232.300 C 371.168 231.145,371.500 230.072,371.748 229.915 C 372.382 229.514,372.394 171.297,371.762 170.885 C 371.520 170.728,371.203 169.700,371.056 168.600 C 370.909 167.500,370.611 166.540,370.395 166.467 C 369.899 166.299,369.870 164.400,370.362 164.400 C 370.562 164.400,370.854 163.455,371.011 162.300 C 371.168 161.145,371.500 160.072,371.748 159.915 C 372.609 159.371,372.366 103.910,371.500 103.043 C 371.115 102.658,370.800 102.098,370.800 101.798 C 370.800 101.499,370.440 101.140,370.000 101.000 C 369.560 100.860,369.200 100.578,369.200 100.373 C 369.200 100.168,368.949 100.000,368.643 100.000 C 368.336 100.000,367.982 99.730,367.855 99.400 C 367.729 99.070,367.169 98.800,366.613 98.800 C 366.056 98.800,365.600 98.620,365.600 98.400 C 365.600 98.138,356.800 98.000,340.000 98.000 C 325.730 98.000,314.400 98.154,314.400 98.348 C 314.400 98.540,312.960 98.822,311.200 98.976 C 309.440 99.129,308.000 99.423,308.000 99.627 C 308.000 99.832,307.640 100.000,307.200 100.000 C 306.760 100.000,306.400 100.180,306.400 100.400 C 306.400 100.620,305.950 100.800,305.400 100.800 C 304.850 100.800,304.400 100.620,304.400 100.400 C 304.400 100.180,303.965 100.000,303.433 100.000 C 302.902 100.000,302.407 99.825,302.333 99.611 C 302.260 99.397,300.895 99.101,299.300 98.954 C 297.705 98.806,296.400 98.531,296.400 98.343 C 296.400 98.154,284.700 98.000,270.400 98.000 C 255.903 98.000,244.400 98.154,244.400 98.348 C 244.400 98.540,242.960 98.822,241.200 98.976 C 239.440 99.129,238.000 99.423,238.000 99.627 C 238.000 99.832,237.640 100.000,237.200 100.000 C 236.760 100.000,236.400 100.180,236.400 100.400 C 236.400 100.620,235.950 100.800,235.400 100.800 C 234.850 100.800,234.400 100.620,234.400 100.400 C 234.400 100.180,233.965 100.000,233.433 100.000 C 232.902 100.000,232.407 99.825,232.333 99.611 C 232.260 99.397,230.895 99.101,229.300 98.954 C 227.705 98.806,226.400 98.531,226.400 98.343 C 226.400 98.154,214.700 98.000,200.400 98.000 C 185.903 98.000,174.400 98.154,174.400 98.348 C 174.400 98.540,172.960 98.822,171.200 98.976 C 169.440 99.129,168.000 99.423,168.000 99.627 C 168.000 99.832,167.640 100.000,167.200 100.000 C 166.760 100.000,166.400 100.180,166.400 100.400 C 166.400 100.620,165.950 100.800,165.400 100.800 C 164.850 100.800,164.400 100.620,164.400 100.400 C 164.400 100.180,163.965 100.000,163.433 100.000 C 162.902 100.000,162.407 99.825,162.333 99.611 C 162.260 99.397,160.895 99.101,159.300 98.954 C 157.705 98.806,156.400 98.531,156.400 98.343 C 156.400 98.154,144.880 98.000,130.800 98.000 C 114.000 98.000,105.200 98.138,105.200 98.400 M35.200 99.600 C 35.200 99.820,34.939 100.000,34.619 100.000 C 33.981 100.000,30.000 103.808,30.000 104.419 C 30.000 104.629,29.820 104.800,29.600 104.800 C 29.338 104.800,29.200 113.533,29.200 130.200 C 29.200 146.867,29.338 155.600,29.600 155.600 C 29.820 155.600,30.000 155.794,30.000 156.032 C 30.000 156.269,30.795 157.258,31.766 158.229 C 32.737 159.200,33.607 160.221,33.699 160.497 C 33.831 160.894,39.382 161.000,60.033 161.000 L 86.200 161.000 88.600 158.600 L 91.000 156.200 91.000 130.033 C 91.000 109.382,90.894 103.831,90.497 103.699 C 90.221 103.607,89.200 102.737,88.229 101.766 C 87.258 100.795,86.269 100.000,86.032 100.000 C 85.794 100.000,85.600 99.820,85.600 99.600 C 85.600 99.338,76.933 99.200,60.400 99.200 C 43.867 99.200,35.200 99.338,35.200 99.600 M156.545 103.000 C 156.671 103.330,157.051 103.600,157.387 103.600 C 157.724 103.600,158.000 103.760,158.000 103.957 C 158.000 104.153,158.450 104.426,159.000 104.564 L 160.000 104.815 160.000 130.389 L 160.000 155.962 157.981 157.981 L 155.962 160.000 130.752 160.000 C 104.558 160.000,104.400 159.991,104.400 158.429 C 104.400 158.193,104.220 158.000,104.000 158.000 C 103.780 158.000,103.600 157.724,103.600 157.387 C 103.600 157.051,103.330 156.671,103.000 156.545 C 102.475 156.343,102.402 153.106,102.418 130.657 L 102.437 105.000 103.455 104.200 C 104.016 103.760,104.682 103.182,104.937 102.915 C 105.706 102.110,156.235 102.193,156.545 103.000 M226.545 103.000 C 226.671 103.330,227.051 103.600,227.387 103.600 C 227.724 103.600,228.000 103.760,228.000 103.957 C 228.000 104.153,228.450 104.426,229.000 104.564 L 230.000 104.815 230.000 130.389 L 230.000 155.962 227.981 157.981 L 225.962 160.000 200.358 160.000 L 174.755 160.000 172.777 158.053 L 170.800 156.107 170.800 130.416 C 170.800 105.062,170.810 104.722,171.600 104.516 C 172.040 104.401,172.400 104.167,172.400 103.997 C 172.400 103.826,172.850 103.574,173.400 103.436 C 173.950 103.298,174.400 103.008,174.400 102.792 C 174.400 102.069,226.267 102.275,226.545 103.000 M296.545 103.000 C 296.671 103.330,297.051 103.600,297.387 103.600 C 297.724 103.600,298.000 103.760,298.000 103.957 C 298.000 104.153,298.450 104.426,299.000 104.564 L 300.000 104.815 300.000 130.389 L 300.000 155.962 297.981 157.981 L 295.962 160.000 270.358 160.000 L 244.755 160.000 242.777 158.053 L 240.800 156.107 240.800 130.416 C 240.800 105.062,240.810 104.722,241.600 104.516 C 242.040 104.401,242.400 104.167,242.400 103.997 C 242.400 103.826,242.850 103.574,243.400 103.436 C 243.950 103.298,244.400 103.008,244.400 102.792 C 244.400 102.069,296.267 102.275,296.545 103.000 M366.620 103.740 L 368.000 105.081 368.000 130.753 C 368.000 152.473,367.913 156.458,367.436 156.641 C 367.126 156.761,366.757 157.317,366.616 157.877 C 366.059 160.098,367.286 160.000,340.006 160.000 L 314.755 160.000 312.777 158.053 L 310.800 156.107 310.800 130.416 C 310.800 105.062,310.810 104.722,311.600 104.516 C 312.040 104.401,312.400 104.167,312.400 103.997 C 312.400 103.826,312.850 103.574,313.400 103.436 C 313.950 103.298,314.400 103.008,314.400 102.792 C 314.400 102.540,323.469 102.400,339.820 102.400 L 365.240 102.400 366.620 103.740 M35.200 169.600 C 35.200 169.820,34.939 170.000,34.619 170.000 C 33.981 170.000,30.000 173.808,30.000 174.419 C 30.000 174.629,29.820 174.800,29.600 174.800 C 29.338 174.800,29.200 183.533,29.200 200.200 C 29.200 216.867,29.338 225.600,29.600 225.600 C 29.820 225.600,30.000 225.794,30.000 226.032 C 30.000 226.269,30.795 227.258,31.766 228.229 C 32.737 229.200,33.607 230.221,33.699 230.497 C 33.831 230.894,39.382 231.000,60.033 231.000 L 86.200 231.000 88.600 228.600 L 91.000 226.200 91.000 200.033 C 91.000 179.382,90.894 173.831,90.497 173.699 C 90.221 173.607,89.200 172.737,88.229 171.766 C 87.258 170.795,86.269 170.000,86.032 170.000 C 85.794 170.000,85.600 169.820,85.600 169.600 C 85.600 169.338,76.933 169.200,60.400 169.200 C 43.867 169.200,35.200 169.338,35.200 169.600 M158.053 172.777 L 160.000 174.755 160.000 200.358 L 160.000 225.962 157.981 227.981 L 155.962 230.000 130.752 230.000 C 104.558 230.000,104.400 229.991,104.400 228.429 C 104.400 228.193,104.220 228.000,104.000 228.000 C 103.780 228.000,103.600 227.724,103.600 227.387 C 103.600 227.051,103.330 226.671,103.000 226.545 C 102.275 226.267,102.069 174.400,102.792 174.400 C 103.008 174.400,103.298 173.950,103.436 173.400 C 103.574 172.850,103.847 172.400,104.043 172.400 C 104.240 172.400,104.400 172.145,104.400 171.833 C 104.400 170.875,104.686 170.864,130.753 170.832 L 156.107 170.800 158.053 172.777 M228.053 172.777 L 230.000 174.755 230.000 200.358 L 230.000 225.962 227.981 227.981 L 225.962 230.000 200.358 230.000 L 174.755 230.000 172.777 228.053 L 170.800 226.107 170.800 200.285 L 170.800 174.463 172.632 172.632 L 174.463 170.800 200.285 170.800 L 226.107 170.800 228.053 172.777 M298.053 172.777 L 300.000 174.755 300.000 200.358 L 300.000 225.962 297.981 227.981 L 295.962 230.000 270.358 230.000 L 244.755 230.000 242.777 228.053 L 240.800 226.107 240.800 200.285 L 240.800 174.463 242.632 172.632 L 244.463 170.800 270.285 170.800 L 296.107 170.800 298.053 172.777 M365.846 171.106 C 366.091 171.268,366.430 171.842,366.599 172.381 C 366.768 172.921,367.152 173.609,367.453 173.910 C 368.282 174.739,368.266 226.323,367.436 226.641 C 367.126 226.761,366.757 227.317,366.616 227.877 C 366.059 230.098,367.286 230.000,340.006 230.000 L 314.755 230.000 312.777 228.053 L 310.800 226.107 310.800 200.285 L 310.800 174.463 312.632 172.632 L 314.463 170.800 339.932 170.806 C 353.939 170.809,365.601 170.944,365.846 171.106 M35.200 239.600 C 35.200 239.820,34.939 240.000,34.619 240.000 C 33.981 240.000,30.000 243.808,30.000 244.419 C 30.000 244.629,29.820 244.800,29.600 244.800 C 29.338 244.800,29.200 253.533,29.200 270.200 C 29.200 286.867,29.338 295.600,29.600 295.600 C 29.820 295.600,30.000 295.794,30.000 296.032 C 30.000 296.269,30.795 297.258,31.766 298.229 C 32.737 299.200,33.607 300.221,33.699 300.497 C 33.831 300.894,39.382 301.000,60.033 301.000 L 86.200 301.000 88.600 298.600 L 91.000 296.200 91.000 270.033 C 91.000 249.382,90.894 243.831,90.497 243.699 C 90.221 243.607,89.200 242.737,88.229 241.766 C 87.258 240.795,86.269 240.000,86.032 240.000 C 85.794 240.000,85.600 239.820,85.600 239.600 C 85.600 239.338,76.933 239.200,60.400 239.200 C 43.867 239.200,35.200 239.338,35.200 239.600 M158.053 242.777 L 160.000 244.755 160.000 270.358 L 160.000 295.962 157.981 297.981 L 155.962 300.000 130.752 300.000 C 104.558 300.000,104.400 299.991,104.400 298.429 C 104.400 298.193,104.220 298.000,104.000 298.000 C 103.780 298.000,103.600 297.724,103.600 297.387 C 103.600 297.051,103.330 296.671,103.000 296.545 C 102.275 296.267,102.069 244.400,102.792 244.400 C 103.008 244.400,103.298 243.950,103.436 243.400 C 103.574 242.850,103.847 242.400,104.043 242.400 C 104.240 242.400,104.400 242.145,104.400 241.833 C 104.400 240.875,104.686 240.864,130.753 240.832 L 156.107 240.800 158.053 242.777 M228.053 242.777 L 230.000 244.755 230.000 270.358 L 230.000 295.962 227.981 297.981 L 225.962 300.000 200.358 300.000 L 174.755 300.000 172.777 298.053 L 170.800 296.107 170.800 270.285 L 170.800 244.463 172.632 242.632 L 174.463 240.800 200.285 240.800 L 226.107 240.800 228.053 242.777 M298.053 242.777 L 300.000 244.755 300.000 270.358 L 300.000 295.962 297.981 297.981 L 295.962 300.000 270.358 300.000 L 244.755 300.000 242.777 298.053 L 240.800 296.107 240.800 270.285 L 240.800 244.463 242.632 242.632 L 244.463 240.800 270.285 240.800 L 296.107 240.800 298.053 242.777 M365.846 241.106 C 366.091 241.268,366.430 241.842,366.599 242.381 C 366.768 242.921,367.152 243.609,367.453 243.910 C 368.282 244.739,368.266 296.323,367.436 296.641 C 367.126 296.761,366.757 297.317,366.616 297.877 C 366.059 300.098,367.286 300.000,340.006 300.000 L 314.755 300.000 312.777 298.053 L 310.800 296.107 310.800 270.285 L 310.800 244.463 312.632 242.632 L 314.463 240.800 339.932 240.806 C 353.939 240.809,365.601 240.944,365.846 241.106 M35.200 309.600 C 35.200 309.820,34.939 310.000,34.619 310.000 C 33.981 310.000,30.000 313.808,30.000 314.419 C 30.000 314.629,29.820 314.800,29.600 314.800 C 29.338 314.800,29.200 323.533,29.200 340.200 C 29.200 356.867,29.338 365.600,29.600 365.600 C 29.820 365.600,30.000 365.794,30.000 366.032 C 30.000 366.269,30.795 367.258,31.766 368.229 C 32.737 369.200,33.607 370.221,33.699 370.497 C 33.831 370.894,39.382 371.000,60.033 371.000 L 86.200 371.000 88.600 368.600 L 91.000 366.200 91.000 340.033 C 91.000 319.382,90.894 313.831,90.497 313.699 C 90.221 313.607,89.200 312.737,88.229 311.766 C 87.258 310.795,86.269 310.000,86.032 310.000 C 85.794 310.000,85.600 309.820,85.600 309.600 C 85.600 309.338,76.933 309.200,60.400 309.200 C 43.867 309.200,35.200 309.338,35.200 309.600 M158.053 312.777 L 160.000 314.755 160.000 340.006 C 160.000 367.286,160.098 366.059,157.877 366.616 C 157.317 366.757,156.761 367.126,156.641 367.436 C 156.458 367.913,152.486 368.000,130.841 368.000 L 105.257 368.000 103.828 366.653 L 102.400 365.306 102.400 339.853 C 102.400 323.480,102.540 314.400,102.792 314.400 C 103.008 314.400,103.298 313.950,103.436 313.400 C 103.574 312.850,103.847 312.400,104.043 312.400 C 104.240 312.400,104.400 312.145,104.400 311.833 C 104.400 310.875,104.686 310.864,130.753 310.832 L 156.107 310.800 158.053 312.777 M228.053 312.777 L 230.000 314.755 230.000 340.006 C 230.000 367.286,230.098 366.059,227.877 366.616 C 227.317 366.757,226.761 367.126,226.641 367.436 C 226.323 368.266,174.739 368.282,173.910 367.453 C 173.609 367.152,172.921 366.768,172.381 366.599 C 170.792 366.102,170.813 366.448,170.806 339.932 L 170.800 314.463 172.632 312.632 L 174.463 310.800 200.285 310.800 L 226.107 310.800 228.053 312.777 M298.053 312.777 L 300.000 314.755 300.000 340.006 C 300.000 367.286,300.098 366.059,297.877 366.616 C 297.317 366.757,296.761 367.126,296.641 367.436 C 296.323 368.266,244.739 368.282,243.910 367.453 C 243.609 367.152,242.921 366.768,242.381 366.599 C 240.792 366.102,240.813 366.448,240.806 339.932 L 240.800 314.463 242.632 312.632 L 244.463 310.800 270.285 310.800 L 296.107 310.800 298.053 312.777 M365.846 311.106 C 366.091 311.268,366.430 311.842,366.599 312.381 C 366.768 312.921,367.152 313.609,367.453 313.910 C 367.904 314.361,368.000 318.923,368.000 339.998 L 368.000 365.538 366.769 366.769 L 365.538 368.000 339.998 368.000 C 318.923 368.000,314.361 367.904,313.910 367.453 C 313.609 367.152,312.921 366.768,312.381 366.599 C 310.792 366.102,310.813 366.448,310.806 339.932 L 310.800 314.463 312.632 312.632 L 314.463 310.800 339.932 310.806 C 353.939 310.809,365.601 310.944,365.846 311.106 " stroke="none" fill="#a2d0fc" fill-rule="evenodd"></path><path id="path2" d="M16.100 16.198 C 15.247 17.168,15.379 384.230,16.233 384.557 C 17.060 384.875,383.740 384.875,384.567 384.557 C 385.485 384.205,385.546 17.089,384.629 16.171 C 383.769 15.312,16.857 15.338,16.100 16.198 M85.600 29.600 C 85.600 29.820,85.794 30.000,86.032 30.000 C 86.269 30.000,87.258 30.795,88.229 31.766 C 89.200 32.737,90.221 33.607,90.497 33.699 C 90.894 33.831,91.000 39.382,91.000 60.033 L 91.000 86.200 88.600 88.600 L 86.200 91.000 60.033 91.000 C 39.382 91.000,33.831 90.894,33.699 90.497 C 33.607 90.221,32.737 89.200,31.766 88.229 C 30.795 87.258,30.000 86.269,30.000 86.032 C 30.000 85.794,29.820 85.600,29.600 85.600 C 29.338 85.600,29.200 76.867,29.200 60.200 C 29.200 43.533,29.338 34.800,29.600 34.800 C 29.820 34.800,30.000 34.629,30.000 34.419 C 30.000 33.808,33.981 30.000,34.619 30.000 C 34.939 30.000,35.200 29.820,35.200 29.600 C 35.200 29.338,43.867 29.200,60.400 29.200 C 76.933 29.200,85.600 29.338,85.600 29.600 M155.600 29.600 C 155.600 29.820,155.794 30.000,156.032 30.000 C 156.269 30.000,157.258 30.795,158.229 31.766 C 159.200 32.737,160.221 33.607,160.497 33.699 C 160.894 33.831,161.000 39.382,161.000 60.033 L 161.000 86.200 158.600 88.600 L 156.200 91.000 130.033 91.000 C 109.382 91.000,103.831 90.894,103.699 90.497 C 103.607 90.221,102.737 89.200,101.766 88.229 C 100.795 87.258,100.000 86.269,100.000 86.032 C 100.000 85.794,99.820 85.600,99.600 85.600 C 99.338 85.600,99.200 76.867,99.200 60.200 C 99.200 43.533,99.338 34.800,99.600 34.800 C 99.820 34.800,100.000 34.629,100.000 34.419 C 100.000 33.808,103.981 30.000,104.619 30.000 C 104.939 30.000,105.200 29.820,105.200 29.600 C 105.200 29.338,113.867 29.200,130.400 29.200 C 146.933 29.200,155.600 29.338,155.600 29.600 M225.600 29.600 C 225.600 29.820,225.794 30.000,226.032 30.000 C 226.269 30.000,227.258 30.795,228.229 31.766 C 229.200 32.737,230.221 33.607,230.497 33.699 C 230.894 33.831,231.000 39.382,231.000 60.033 L 231.000 86.200 228.600 88.600 L 226.200 91.000 200.033 91.000 C 179.382 91.000,173.831 90.894,173.699 90.497 C 173.607 90.221,172.737 89.200,171.766 88.229 C 170.795 87.258,170.000 86.269,170.000 86.032 C 170.000 85.794,169.820 85.600,169.600 85.600 C 169.338 85.600,169.200 76.867,169.200 60.200 C 169.200 43.533,169.338 34.800,169.600 34.800 C 169.820 34.800,170.000 34.629,170.000 34.419 C 170.000 33.808,173.981 30.000,174.619 30.000 C 174.939 30.000,175.200 29.820,175.200 29.600 C 175.200 29.338,183.867 29.200,200.400 29.200 C 216.933 29.200,225.600 29.338,225.600 29.600 M295.600 29.600 C 295.600 29.820,295.794 30.000,296.032 30.000 C 296.269 30.000,297.258 30.795,298.229 31.766 C 299.200 32.737,300.221 33.607,300.497 33.699 C 300.894 33.831,301.000 39.382,301.000 60.033 L 301.000 86.200 298.600 88.600 L 296.200 91.000 270.033 91.000 C 249.382 91.000,243.831 90.894,243.699 90.497 C 243.607 90.221,242.737 89.200,241.766 88.229 C 240.795 87.258,240.000 86.269,240.000 86.032 C 240.000 85.794,239.820 85.600,239.600 85.600 C 239.338 85.600,239.200 76.867,239.200 60.200 C 239.200 43.533,239.338 34.800,239.600 34.800 C 239.820 34.800,240.000 34.629,240.000 34.419 C 240.000 33.923,243.923 30.000,244.419 30.000 C 244.629 30.000,244.800 29.820,244.800 29.600 C 244.800 29.338,253.533 29.200,270.200 29.200 C 286.867 29.200,295.600 29.338,295.600 29.600 M365.600 29.600 C 365.600 29.820,365.794 30.000,366.032 30.000 C 366.269 30.000,367.258 30.795,368.229 31.766 C 369.200 32.737,370.221 33.607,370.497 33.699 C 370.894 33.831,371.000 39.382,371.000 60.033 L 371.000 86.200 368.600 88.600 L 366.200 91.000 340.033 91.000 C 319.382 91.000,313.831 90.894,313.699 90.497 C 313.607 90.221,312.737 89.200,311.766 88.229 C 310.795 87.258,310.000 86.269,310.000 86.032 C 310.000 85.794,309.820 85.600,309.600 85.600 C 309.338 85.600,309.200 76.867,309.200 60.200 C 309.200 43.533,309.338 34.800,309.600 34.800 C 309.820 34.800,310.000 34.629,310.000 34.419 C 310.000 33.808,313.981 30.000,314.619 30.000 C 314.939 30.000,315.200 29.820,315.200 29.600 C 315.200 29.338,323.867 29.200,340.400 29.200 C 356.933 29.200,365.600 29.338,365.600 29.600 M156.400 98.343 C 156.400 98.531,157.705 98.806,159.300 98.954 C 160.895 99.101,162.260 99.397,162.333 99.611 C 162.407 99.825,162.902 100.000,163.433 100.000 C 163.965 100.000,164.400 100.180,164.400 100.400 C 164.400 100.620,164.850 100.800,165.400 100.800 C 165.950 100.800,166.400 100.620,166.400 100.400 C 166.400 100.180,166.760 100.000,167.200 100.000 C 167.640 100.000,168.000 99.832,168.000 99.627 C 168.000 99.423,169.440 99.129,171.200 98.976 C 172.960 98.822,174.400 98.540,174.400 98.348 C 174.400 98.154,185.903 98.000,200.400 98.000 C 214.700 98.000,226.400 98.154,226.400 98.343 C 226.400 98.531,227.705 98.806,229.300 98.954 C 230.895 99.101,232.260 99.397,232.333 99.611 C 232.407 99.825,232.902 100.000,233.433 100.000 C 233.965 100.000,234.400 100.180,234.400 100.400 C 234.400 100.620,234.850 100.800,235.400 100.800 C 235.950 100.800,236.400 100.620,236.400 100.400 C 236.400 100.180,236.760 100.000,237.200 100.000 C 237.640 100.000,238.000 99.832,238.000 99.627 C 238.000 99.423,239.440 99.129,241.200 98.976 C 242.960 98.822,244.400 98.540,244.400 98.348 C 244.400 98.154,255.903 98.000,270.400 98.000 C 284.700 98.000,296.400 98.154,296.400 98.343 C 296.400 98.531,297.705 98.806,299.300 98.954 C 300.895 99.101,302.260 99.397,302.333 99.611 C 302.407 99.825,302.902 100.000,303.433 100.000 C 303.965 100.000,304.400 100.180,304.400 100.400 C 304.400 100.620,304.850 100.800,305.400 100.800 C 305.950 100.800,306.400 100.620,306.400 100.400 C 306.400 100.180,306.760 100.000,307.200 100.000 C 307.640 100.000,308.000 99.832,308.000 99.627 C 308.000 99.423,309.440 99.129,311.200 98.976 C 312.960 98.822,314.400 98.540,314.400 98.348 C 314.400 98.154,325.730 98.000,340.000 98.000 C 356.800 98.000,365.600 98.138,365.600 98.400 C 365.600 98.620,366.056 98.800,366.613 98.800 C 367.169 98.800,367.729 99.070,367.855 99.400 C 367.982 99.730,368.336 100.000,368.643 100.000 C 368.949 100.000,369.200 100.168,369.200 100.373 C 369.200 100.578,369.560 100.860,370.000 101.000 C 370.440 101.140,370.800 101.499,370.800 101.798 C 370.800 102.098,371.115 102.658,371.500 103.043 C 372.366 103.910,372.609 159.371,371.748 159.915 C 371.500 160.072,371.168 161.145,371.011 162.300 C 370.854 163.455,370.562 164.400,370.362 164.400 C 369.870 164.400,369.899 166.299,370.395 166.467 C 370.611 166.540,370.909 167.500,371.056 168.600 C 371.203 169.700,371.520 170.728,371.762 170.885 C 372.394 171.297,372.382 229.514,371.748 229.915 C 371.500 230.072,371.168 231.145,371.011 232.300 C 370.854 233.455,370.562 234.400,370.362 234.400 C 369.870 234.400,369.899 236.299,370.395 236.467 C 370.611 236.540,370.909 237.500,371.056 238.600 C 371.203 239.700,371.520 240.728,371.762 240.885 C 372.394 241.297,372.382 299.514,371.748 299.915 C 371.500 300.072,371.168 301.145,371.011 302.300 C 370.854 303.455,370.562 304.400,370.362 304.400 C 369.870 304.400,369.899 306.299,370.395 306.467 C 370.611 306.540,370.909 307.500,371.056 308.600 C 371.203 309.700,371.520 310.728,371.762 310.885 C 372.612 311.438,372.355 367.169,371.500 367.648 C 371.115 367.863,370.800 368.219,370.800 368.438 C 370.800 368.955,368.955 370.800,368.438 370.800 C 368.219 370.800,367.863 371.115,367.648 371.500 C 367.169 372.355,311.438 372.612,310.885 371.762 C 310.728 371.520,309.700 371.203,308.600 371.056 C 307.500 370.909,306.540 370.611,306.467 370.395 C 306.299 369.899,304.400 369.870,304.400 370.362 C 304.400 370.562,303.455 370.854,302.300 371.011 C 301.145 371.168,300.072 371.500,299.915 371.748 C 299.514 372.382,241.297 372.394,240.885 371.762 C 240.728 371.520,239.700 371.203,238.600 371.056 C 237.500 370.909,236.540 370.611,236.467 370.395 C 236.299 369.899,234.400 369.870,234.400 370.362 C 234.400 370.562,233.455 370.854,232.300 371.011 C 231.145 371.168,230.072 371.500,229.915 371.748 C 229.514 372.382,171.297 372.394,170.885 371.762 C 170.728 371.520,169.700 371.203,168.600 371.056 C 167.500 370.909,166.540 370.611,166.467 370.395 C 166.299 369.899,164.400 369.870,164.400 370.362 C 164.400 370.562,163.455 370.854,162.300 371.011 C 161.145 371.168,160.072 371.500,159.915 371.748 C 159.371 372.609,103.910 372.366,103.043 371.500 C 102.658 371.115,102.098 370.800,101.798 370.800 C 101.499 370.800,101.140 370.440,101.000 370.000 C 100.860 369.560,100.578 369.200,100.373 369.200 C 100.168 369.200,100.000 368.949,100.000 368.643 C 100.000 368.336,99.730 367.982,99.400 367.855 C 99.070 367.729,98.800 367.169,98.800 366.613 C 98.800 366.056,98.620 365.600,98.400 365.600 C 98.138 365.600,98.000 356.800,98.000 340.000 C 98.000 325.730,98.154 314.400,98.348 314.400 C 98.540 314.400,98.822 312.960,98.976 311.200 C 99.129 309.440,99.423 308.000,99.627 308.000 C 99.832 308.000,100.000 307.640,100.000 307.200 C 100.000 306.760,100.180 306.400,100.400 306.400 C 100.620 306.400,100.800 305.950,100.800 305.400 C 100.800 304.850,100.620 304.400,100.400 304.400 C 100.180 304.400,100.000 303.965,100.000 303.433 C 100.000 302.902,99.825 302.407,99.611 302.333 C 99.397 302.260,99.101 300.895,98.954 299.300 C 98.806 297.705,98.531 296.400,98.343 296.400 C 98.154 296.400,98.000 284.700,98.000 270.400 C 98.000 255.903,98.154 244.400,98.348 244.400 C 98.540 244.400,98.822 242.960,98.976 241.200 C 99.129 239.440,99.423 238.000,99.627 238.000 C 99.832 238.000,100.000 237.640,100.000 237.200 C 100.000 236.760,100.180 236.400,100.400 236.400 C 100.620 236.400,100.800 235.950,100.800 235.400 C 100.800 234.850,100.620 234.400,100.400 234.400 C 100.180 234.400,100.000 233.965,100.000 233.433 C 100.000 232.902,99.825 232.407,99.611 232.333 C 99.397 232.260,99.101 230.895,98.954 229.300 C 98.806 227.705,98.531 226.400,98.343 226.400 C 98.154 226.400,98.000 214.700,98.000 200.400 C 98.000 185.903,98.154 174.400,98.348 174.400 C 98.540 174.400,98.822 172.960,98.976 171.200 C 99.129 169.440,99.423 168.000,99.627 168.000 C 99.832 168.000,100.000 167.640,100.000 167.200 C 100.000 166.760,100.180 166.400,100.400 166.400 C 100.620 166.400,100.800 165.950,100.800 165.400 C 100.800 164.850,100.620 164.400,100.400 164.400 C 100.180 164.400,100.000 163.965,100.000 163.433 C 100.000 162.902,99.825 162.407,99.611 162.333 C 99.397 162.260,99.101 160.895,98.954 159.300 C 98.806 157.705,98.531 156.400,98.343 156.400 C 98.154 156.400,98.000 144.790,98.000 130.600 C 98.000 113.667,98.137 104.800,98.400 104.800 C 98.620 104.800,98.800 104.453,98.800 104.029 C 98.800 103.604,99.070 102.987,99.400 102.657 C 99.730 102.327,100.000 101.954,100.000 101.829 C 100.000 101.531,101.531 100.000,101.829 100.000 C 101.954 100.000,102.327 99.730,102.657 99.400 C 102.987 99.070,103.694 98.800,104.229 98.800 C 104.763 98.800,105.200 98.620,105.200 98.400 C 105.200 98.138,114.000 98.000,130.800 98.000 C 144.880 98.000,156.400 98.154,156.400 98.343 M85.600 99.600 C 85.600 99.820,85.794 100.000,86.032 100.000 C 86.269 100.000,87.258 100.795,88.229 101.766 C 89.200 102.737,90.221 103.607,90.497 103.699 C 90.894 103.831,91.000 109.382,91.000 130.033 L 91.000 156.200 88.600 158.600 L 86.200 161.000 60.033 161.000 C 39.382 161.000,33.831 160.894,33.699 160.497 C 33.607 160.221,32.737 159.200,31.766 158.229 C 30.795 157.258,30.000 156.269,30.000 156.032 C 30.000 155.794,29.820 155.600,29.600 155.600 C 29.338 155.600,29.200 146.867,29.200 130.200 C 29.200 113.533,29.338 104.800,29.600 104.800 C 29.820 104.800,30.000 104.629,30.000 104.419 C 30.000 103.808,33.981 100.000,34.619 100.000 C 34.939 100.000,35.200 99.820,35.200 99.600 C 35.200 99.338,43.867 99.200,60.400 99.200 C 76.933 99.200,85.600 99.338,85.600 99.600 M85.600 169.600 C 85.600 169.820,85.794 170.000,86.032 170.000 C 86.269 170.000,87.258 170.795,88.229 171.766 C 89.200 172.737,90.221 173.607,90.497 173.699 C 90.894 173.831,91.000 179.382,91.000 200.033 L 91.000 226.200 88.600 228.600 L 86.200 231.000 60.033 231.000 C 39.382 231.000,33.831 230.894,33.699 230.497 C 33.607 230.221,32.737 229.200,31.766 228.229 C 30.795 227.258,30.000 226.269,30.000 226.032 C 30.000 225.794,29.820 225.600,29.600 225.600 C 29.338 225.600,29.200 216.867,29.200 200.200 C 29.200 183.533,29.338 174.800,29.600 174.800 C 29.820 174.800,30.000 174.629,30.000 174.419 C 30.000 173.808,33.981 170.000,34.619 170.000 C 34.939 170.000,35.200 169.820,35.200 169.600 C 35.200 169.338,43.867 169.200,60.400 169.200 C 76.933 169.200,85.600 169.338,85.600 169.600 M85.600 239.600 C 85.600 239.820,85.794 240.000,86.032 240.000 C 86.269 240.000,87.258 240.795,88.229 241.766 C 89.200 242.737,90.221 243.607,90.497 243.699 C 90.894 243.831,91.000 249.382,91.000 270.033 L 91.000 296.200 88.600 298.600 L 86.200 301.000 60.033 301.000 C 39.382 301.000,33.831 300.894,33.699 300.497 C 33.607 300.221,32.737 299.200,31.766 298.229 C 30.795 297.258,30.000 296.269,30.000 296.032 C 30.000 295.794,29.820 295.600,29.600 295.600 C 29.338 295.600,29.200 286.867,29.200 270.200 C 29.200 253.533,29.338 244.800,29.600 244.800 C 29.820 244.800,30.000 244.629,30.000 244.419 C 30.000 243.808,33.981 240.000,34.619 240.000 C 34.939 240.000,35.200 239.820,35.200 239.600 C 35.200 239.338,43.867 239.200,60.400 239.200 C 76.933 239.200,85.600 239.338,85.600 239.600 M85.600 309.600 C 85.600 309.820,85.794 310.000,86.032 310.000 C 86.269 310.000,87.258 310.795,88.229 311.766 C 89.200 312.737,90.221 313.607,90.497 313.699 C 90.894 313.831,91.000 319.382,91.000 340.033 L 91.000 366.200 88.600 368.600 L 86.200 371.000 60.033 371.000 C 39.382 371.000,33.831 370.894,33.699 370.497 C 33.607 370.221,32.737 369.200,31.766 368.229 C 30.795 367.258,30.000 366.269,30.000 366.032 C 30.000 365.794,29.820 365.600,29.600 365.600 C 29.338 365.600,29.200 356.867,29.200 340.200 C 29.200 323.533,29.338 314.800,29.600 314.800 C 29.820 314.800,30.000 314.629,30.000 314.419 C 30.000 313.808,33.981 310.000,34.619 310.000 C 34.939 310.000,35.200 309.820,35.200 309.600 C 35.200 309.338,43.867 309.200,60.400 309.200 C 76.933 309.200,85.600 309.338,85.600 309.600 " stroke="none" fill="#448cc4" fill-rule="evenodd"></path><path id="path3" d="" stroke="none" fill="#dc100e0" fill-rule="evenodd"></path><path id="path4" d="" stroke="none" fill="#dc100e0" fill-rule="evenodd"></path></g></svg>