<svg id="svg" xmlns="http://www.w3.org/2000/svg" xmlns:xlink="http://www.w3.org/1999/xlink" width="400" height="400" viewBox="0, 0, 400,400"><g id="svgg"><path id="path0" d="M178.200 19.436 C 180.001 20.778,180.800 21.627,180.800 22.197 C 180.800 22.529,180.985 22.800,181.210 22.800 C 182.425 22.800,179.730 19.438,178.200 19.045 L 177.400 18.840 178.200 19.436 M20.072 20.239 C 18.621 21.786,19.238 22.086,20.734 20.560 C 21.467 19.812,21.827 19.211,21.534 19.224 C 21.240 19.238,20.582 19.694,20.072 20.239 M33.950 30.684 C 30.848 31.022,30.600 31.772,30.600 40.813 C 30.600 48.294,30.647 48.798,31.400 49.369 C 32.107 49.904,40.082 49.976,100.118 49.987 L 168.036 50.000 169.018 49.018 C 170.897 47.140,170.296 33.369,168.250 31.400 C 167.476 30.655,40.432 29.978,33.950 30.684 M31.199 61.201 C 29.933 62.467,30.130 168.410,31.400 169.370 C 32.106 169.904,40.156 169.976,100.118 169.987 L 168.036 170.000 169.018 169.018 L 170.000 168.036 169.987 115.118 C 169.976 68.538,169.902 62.104,169.370 61.400 C 168.410 60.129,32.467 59.933,31.199 61.201 M232.080 62.080 C 231.383 62.777,231.383 167.623,232.080 168.320 C 232.859 169.099,367.448 169.009,368.229 168.229 C 369.008 167.449,369.098 62.858,368.320 62.080 C 367.622 61.382,232.778 61.382,232.080 62.080 M378.200 219.436 C 380.001 220.778,380.800 221.627,380.800 222.197 C 380.800 222.529,380.985 222.800,381.210 222.800 C 382.425 222.800,379.730 219.438,378.200 219.045 L 377.400 218.840 378.200 219.436 M220.072 220.239 C 218.621 221.786,219.238 222.086,220.734 220.560 C 221.467 219.812,221.827 219.211,221.534 219.224 C 221.240 219.238,220.582 219.694,220.072 220.239 M233.950 230.684 C 230.848 231.022,230.600 231.772,230.600 240.813 C 230.600 248.294,230.647 248.798,231.400 249.369 C 232.107 249.904,240.082 249.976,300.118 249.987 L 368.036 250.000 369.018 249.018 C 370.897 247.140,370.296 233.369,368.250 231.400 C 367.476 230.655,240.432 229.978,233.950 230.684 M231.199 261.201 C 229.933 262.467,230.130 368.410,231.400 369.370 C 232.106 369.904,240.156 369.976,300.118 369.987 L 368.036 370.000 369.018 369.018 L 370.000 368.036 369.987 315.118 C 369.976 268.538,369.902 262.104,369.370 261.400 C 368.410 260.129,232.467 259.933,231.199 261.201 M32.080 262.080 C 31.383 262.777,31.383 367.623,32.080 368.320 C 32.859 369.099,167.448 369.009,168.229 368.229 C 169.008 367.449,169.098 262.858,168.320 262.080 C 167.622 261.382,32.778 261.382,32.080 262.080 " stroke="none" fill="#fcfcfc" fill-rule="evenodd"></path><path id="path1" d="M22.951 18.584 C 22.660 19.343,19.342 22.660,18.583 22.951 C 18.072 23.147,18.011 33.220,18.099 102.688 L 18.200 182.200 100.200 182.200 L 182.200 182.200 182.313 103.800 C 182.421 28.940,182.371 22.800,181.653 22.800 C 181.176 22.800,177.777 19.437,177.484 18.675 C 177.114 17.710,23.321 17.619,22.951 18.584 M168.250 31.400 C 170.296 33.369,170.897 47.140,169.018 49.018 L 168.036 50.000 100.118 49.987 C 40.082 49.976,32.107 49.904,31.400 49.369 C 30.052 48.348,30.181 33.310,31.550 31.853 C 32.875 30.443,28.556 30.523,101.409 30.563 C 166.850 30.600,167.426 30.607,168.250 31.400 M234.216 30.691 C 231.046 31.026,230.710 31.824,230.487 39.555 C 230.276 46.877,230.500 49.200,231.418 49.200 C 231.738 49.200,232.000 49.380,232.000 49.600 C 232.000 49.865,254.915 50.000,299.945 50.000 L 367.891 50.000 368.945 48.945 C 370.845 47.046,370.327 33.527,368.275 31.475 L 367.400 30.600 301.600 30.562 C 265.410 30.541,235.087 30.599,234.216 30.691 M230.431 60.431 L 229.200 61.662 229.213 115.131 L 229.225 168.600 230.279 169.800 L 231.334 171.000 300.058 171.000 L 368.782 171.000 369.891 169.891 L 371.000 168.782 371.000 115.058 L 371.000 61.334 369.800 60.279 L 368.600 59.225 300.131 59.213 L 231.662 59.200 230.431 60.431 M169.370 61.400 C 169.902 62.104,169.976 68.538,169.987 115.118 L 170.000 168.036 169.018 169.018 L 168.036 170.000 100.118 169.987 C 40.156 169.976,32.106 169.904,31.400 169.370 C 30.130 168.410,29.933 62.467,31.199 61.201 C 32.467 59.933,168.410 60.129,169.370 61.400 M368.395 61.889 C 369.661 62.972,369.665 167.135,368.400 168.400 C 367.134 169.666,232.973 169.662,231.889 168.395 C 230.846 167.177,230.819 63.084,231.862 61.931 C 232.863 60.826,367.105 60.784,368.395 61.889 M222.951 218.584 C 222.660 219.343,219.342 222.660,218.583 222.951 C 218.072 223.147,218.011 233.220,218.099 302.688 L 218.200 382.200 300.200 382.200 L 382.200 382.200 382.313 303.800 C 382.421 228.940,382.371 222.800,381.653 222.800 C 381.176 222.800,377.777 219.437,377.484 218.675 C 377.114 217.710,223.321 217.619,222.951 218.584 M34.216 230.691 C 31.046 231.026,30.710 231.824,30.487 239.555 C 30.276 246.877,30.500 249.200,31.418 249.200 C 31.738 249.200,32.000 249.380,32.000 249.600 C 32.000 249.865,54.915 250.000,99.945 250.000 L 167.891 250.000 168.945 248.945 C 170.845 247.046,170.327 233.527,168.275 231.475 L 167.400 230.600 101.600 230.562 C 65.410 230.541,35.087 230.599,34.216 230.691 M368.250 231.400 C 370.296 233.369,370.897 247.140,369.018 249.018 L 368.036 250.000 300.118 249.987 C 240.082 249.976,232.107 249.904,231.400 249.369 C 230.052 248.348,230.181 233.310,231.550 231.853 C 232.875 230.443,228.556 230.523,301.409 230.563 C 366.850 230.600,367.426 230.607,368.250 231.400 M30.431 260.431 L 29.200 261.662 29.213 315.131 L 29.225 368.600 30.279 369.800 L 31.334 371.000 100.058 371.000 L 168.782 371.000 169.891 369.891 L 171.000 368.782 171.000 315.058 L 171.000 261.334 169.800 260.279 L 168.600 259.225 100.131 259.213 L 31.662 259.200 30.431 260.431 M369.370 261.400 C 369.902 262.104,369.976 268.538,369.987 315.118 L 370.000 368.036 369.018 369.018 L 368.036 370.000 300.118 369.987 C 240.156 369.976,232.106 369.904,231.400 369.370 C 230.130 368.410,229.933 262.467,231.199 261.201 C 232.467 259.933,368.410 260.129,369.370 261.400 M168.395 261.889 C 169.661 262.972,169.665 367.135,168.400 368.400 C 167.134 369.666,32.973 369.662,31.889 368.395 C 30.846 367.177,30.819 263.084,31.862 261.931 C 32.863 260.826,167.105 260.784,168.395 261.889 " stroke="none" fill="#9cccfc" fill-rule="evenodd"></path><path id="path2" d="M221.291 18.816 C 217.682 20.419,218.000 12.302,218.000 102.834 L 218.000 182.402 300.100 182.301 L 382.200 182.200 382.200 102.400 C 382.200 13.543,382.403 20.143,379.639 19.167 C 379.067 18.965,378.287 18.620,377.905 18.400 C 376.402 17.535,223.260 17.941,221.291 18.816 M20.885 19.003 C 19.805 19.472,18.400 21.461,18.400 22.520 C 18.400 23.431,22.433 19.967,22.700 18.827 C 22.830 18.273,22.488 18.306,20.885 19.003 M177.755 18.972 C 177.795 19.248,178.499 20.063,179.319 20.783 C 180.412 21.742,180.749 21.893,180.580 21.346 C 180.453 20.936,180.645 21.111,181.006 21.735 C 181.960 23.385,182.237 22.706,181.326 20.951 C 180.536 19.429,177.581 17.792,177.755 18.972 M20.734 20.560 C 20.000 21.308,19.342 21.765,19.272 21.575 C 19.096 21.102,20.874 19.255,21.534 19.224 C 21.827 19.211,21.467 19.812,20.734 20.560 M179.771 19.809 C 180.195 20.129,180.429 20.504,180.292 20.641 C 180.155 20.779,179.558 20.511,178.967 20.046 C 177.775 19.108,178.545 18.881,179.771 19.809 M368.275 31.475 C 370.327 33.527,370.845 47.046,368.945 48.945 L 367.891 50.000 299.945 50.000 C 254.915 50.000,232.000 49.865,232.000 49.600 C 232.000 49.380,231.738 49.200,231.418 49.200 C 229.812 49.200,230.028 33.463,231.657 31.834 C 233.038 30.453,229.342 30.521,301.600 30.562 L 367.400 30.600 368.275 31.475 M369.800 60.279 L 371.000 61.334 371.000 115.058 L 371.000 168.782 369.891 169.891 L 368.782 171.000 300.058 171.000 L 231.334 171.000 230.279 169.800 L 229.225 168.600 229.213 115.131 L 229.200 61.662 230.431 60.431 L 231.662 59.200 300.131 59.213 L 368.600 59.225 369.800 60.279 M21.291 218.816 C 17.682 220.419,18.000 212.302,18.000 302.834 L 18.000 382.402 100.100 382.301 L 182.200 382.200 182.200 302.400 C 182.200 213.543,182.403 220.143,179.639 219.167 C 179.067 218.965,178.287 218.620,177.905 218.400 C 176.402 217.535,23.260 217.941,21.291 218.816 M220.885 219.003 C 219.805 219.472,218.400 221.461,218.400 222.520 C 218.400 223.431,222.433 219.967,222.700 218.827 C 222.830 218.273,222.488 218.306,220.885 219.003 M377.755 218.972 C 377.795 219.248,378.499 220.063,379.319 220.783 C 380.412 221.742,380.749 221.893,380.580 221.346 C 380.453 220.936,380.645 221.111,381.006 221.735 C 381.960 223.385,382.237 222.706,381.326 220.951 C 380.536 219.429,377.581 217.792,377.755 218.972 M220.734 220.560 C 220.000 221.308,219.342 221.765,219.272 221.575 C 219.096 221.102,220.874 219.255,221.534 219.224 C 221.827 219.211,221.467 219.812,220.734 220.560 M379.771 219.809 C 380.195 220.129,380.429 220.504,380.292 220.641 C 380.155 220.779,379.558 220.511,378.967 220.046 C 377.775 219.108,378.545 218.881,379.771 219.809 M168.275 231.475 C 170.327 233.527,170.845 247.046,168.945 248.945 L 167.891 250.000 99.945 250.000 C 54.915 250.000,32.000 249.865,32.000 249.600 C 32.000 249.380,31.738 249.200,31.418 249.200 C 29.812 249.200,30.028 233.463,31.657 231.834 C 33.038 230.453,29.342 230.521,101.600 230.562 L 167.400 230.600 168.275 231.475 M169.800 260.279 L 171.000 261.334 171.000 315.058 L 171.000 368.782 169.891 369.891 L 168.782 371.000 100.058 371.000 L 31.334 371.000 30.279 369.800 L 29.225 368.600 29.213 315.131 L 29.200 261.662 30.431 260.431 L 31.662 259.200 100.131 259.213 L 168.600 259.225 169.800 260.279 " stroke="none" fill="#448cc4" fill-rule="evenodd"></path><path id="path3" d="" stroke="none" fill="#100e8e0" fill-rule="evenodd"></path><path id="path4" d="" stroke="none" fill="#100e8e0" fill-rule="evenodd"></path></g></svg>