<?xml version="1.0" encoding="utf-8"?>
<!-- Generator: Adobe Illustrator 23.0.0, SVG Export Plug-In . SVG Version: 6.00 Build 0)  -->
<svg xmlns="http://www.w3.org/2000/svg" xmlns:xlink="http://www.w3.org/1999/xlink" version="1.1" id="Слой_1" x="0px" y="0px" viewBox="0 0 40 40" style="enable-background:new 0 0 40 40;" xml:space="preserve" width="120px" height="120px">
<style type="text/css">
	.st0{fill:#FFFFFF;}
	.st1{fill:#98CCFD;}
	.st2{fill:#DFF0FE;}
	.st3{fill:#4788C7;}
</style>
<g>
	<path class="st0" d="M38.5,5.5H22v29.1h16.5c0.6,0,1-0.4,1-1V6.5C39.5,5.9,39.1,5.5,38.5,5.5z"/>
</g>
<g>
	<polygon class="st1" points="24.5,38 2.5,34 2.5,6 24.5,2  "/>
</g>
<g>
	<path class="st0" d="M16.1,27l-2.4-4.6c-0.1-0.3-0.2-0.6-0.3-0.9l0,0c-0.1,0.3-0.2,0.7-0.3,1L10.6,27H6.9l4.5-7l-4.1-7h3.8l2,4.2   c0.2,0.4,0.3,0.8,0.4,1.2l0,0c0.1-0.3,0.2-0.7,0.4-1.2l2.3-4.2h3.5l-4.2,6.9l4.3,7.1H16.1z"/>
</g>
<g>
	<path class="st2" d="M37,15h-8v-4h8V15z M30,14h6v-2h-6V14z"/>
</g>
<g>
	<polygon class="st2" points="28,15 24.6,15 24.6,14 27,14 27,12 24.6,12 24.6,11 28,11  "/>
</g>
<g>
	<path class="st2" d="M37,20h-8v-4h8V20z M30,19h6v-2h-6V19z"/>
</g>
<g>
	<path class="st2" d="M37,25h-8v-4h8V25z M30,24h6v-2h-6V24z"/>
</g>
<g>
	<path class="st2" d="M37,30h-8v-4h8V30z M30,29h6v-2h-6V29z"/>
</g>
<g>
	<polygon class="st2" points="28,20 24.6,20 24.6,19 27,19 27,17 24.6,17 24.6,16 28,16  "/>
</g>
<g>
	<polygon class="st2" points="28,25 24.6,25 24.6,24 27,24 27,22 24.6,22 24.6,21 28,21  "/>
</g>
<g>
	<polygon class="st2" points="28,30 24.6,30 24.6,29 27,29 27,27 24.6,27 24.6,26 28,26  "/>
</g>
<g>
	<path class="st3" d="M19.8,28h-3.7c-0.2,0-0.4-0.1-0.5-0.3L13.4,23l-2.3,4.7C11,27.9,10.9,28,10.7,28H6.9c-0.2,0-0.3-0.1-0.4-0.3   s-0.1-0.3,0-0.5l4.3-7.3l-4-7.2c-0.1-0.2-0.1-0.3,0-0.5C6.9,12.1,7.1,12,7.3,12h3.8c0.2,0,0.4,0.1,0.5,0.3l2,4.6l2.2-4.6   c0.1-0.2,0.3-0.3,0.5-0.3h3.5c0.2,0,0.3,0.1,0.4,0.2c0.1,0.2,0.1,0.3,0,0.5l-4.1,7.2l4.2,7.3c0.1,0.2,0.1,0.3,0,0.5   C20.2,27.9,20,28,19.8,28z M16.4,27H19l-3.9-6.8c-0.1-0.2-0.1-0.3,0-0.5l3.8-6.7h-2.3l-2.1,4.4c-0.2,0.5-0.3,0.9-0.4,1.1   c-0.1,0.2-0.2,0.4-0.5,0.4c-0.2,0-0.4-0.2-0.5-0.4c-0.1-0.4-0.2-0.7-0.4-1.1L10.8,13H8.1l3.7,6.8c0.1,0.2,0.1,0.3,0,0.5l-4,6.7h2.6   l2.3-4.7c0.1-0.3,0.2-0.6,0.3-0.9c0.1-0.2,0.3-0.4,0.5-0.4c0.2,0,0.4,0.2,0.5,0.4c0.1,0.3,0.1,0.6,0.3,0.8L16.4,27z"/>
</g>
<g>
	<path class="st3" d="M38.5,35H24.4v-1h14.1c0.3,0,0.5-0.2,0.5-0.5v-27C39,6.2,38.8,6,38.5,6H24V5h14.5C39.3,5,40,5.7,40,6.5v27   C40,34.3,39.3,35,38.5,35z"/>
</g>
<g>
	<path class="st3" d="M25,38.6L2,34.4V5.6l23-4.2V38.6z M3,33.6l21,3.8V2.6L3,6.4V33.6z"/>
</g>
</svg>
